<svg xmlns="http://www.w3.org/2000/svg" viewBox="0 0 1200 760" width="1200" height="760">
  <style>
    text { font-family: 'Helvetica Neue', Helvetica, Arial, 'PingFang SC', 'Microsoft YaHei', 'Microsoft JhengHei', 'SimHei', sans-serif; fill: #111827; }
    .title { font-size: 24px; font-weight: 700; }
    .subtitle { font-size: 13px; fill: #6b7280; }
    .label { font-size: 15px; font-weight: 700; }
    .small { font-size: 12px; fill: #4b5563; }
    .tiny { font-size: 11px; fill: #6b7280; }
    .lane-title { font-size: 13px; font-weight: 700; fill: #374151; }
  </style>
  <defs>
    <marker id="arrow-blue" markerWidth="10" markerHeight="7" refX="9" refY="3.5" orient="auto"><polygon points="0 0, 10 3.5, 0 7" fill="#2563eb"/></marker>
    <marker id="arrow-purple" markerWidth="10" markerHeight="7" refX="9" refY="3.5" orient="auto"><polygon points="0 0, 10 3.5, 0 7" fill="#9333ea"/></marker>
    <marker id="arrow-green" markerWidth="10" markerHeight="7" refX="9" refY="3.5" orient="auto"><polygon points="0 0, 10 3.5, 0 7" fill="#16a34a"/></marker>
    <marker id="arrow-orange" markerWidth="10" markerHeight="7" refX="9" refY="3.5" orient="auto"><polygon points="0 0, 10 3.5, 0 7" fill="#ea580c"/></marker>
    <marker id="arrow-gray" markerWidth="10" markerHeight="7" refX="9" refY="3.5" orient="auto"><polygon points="0 0, 10 3.5, 0 7" fill="#6b7280"/></marker>
    <filter id="shadow" x="-20%" y="-20%" width="140%" height="140%"><feDropShadow dx="0" dy="2" stdDeviation="3" flood-color="#111827" flood-opacity="0.10"/></filter>
  </defs>
  <rect width="1200" height="760" fill="#ffffff"/>
  <text class="title" x="600" y="42" text-anchor="middle">Soul Envoy Gateway 运行拓扑</text>
  <text class="subtitle" x="600" y="66" text-anchor="middle">面试先讲清楚：控制面生成 xDS，数据面 Envoy 真正承接流量；主 HTTP/HTTPS 和 RPC/Auth 是两条链路。</text>
  <rect x="40" y="95" width="1120" height="92" rx="12" fill="#f9fafb" stroke="#e5e7eb"/>
  <text class="lane-title" x="60" y="119">配置资源</text>
  <rect x="40" y="205" width="1120" height="92" rx="12" fill="#f9fafb" stroke="#e5e7eb"/>
  <text class="lane-title" x="60" y="229">控制面</text>
  <rect x="40" y="350" width="1120" height="92" rx="12" fill="#f9fafb" stroke="#e5e7eb"/>
  <text class="lane-title" x="60" y="374">数据面</text>
  <rect x="40" y="505" width="1120" height="92" rx="12" fill="#f9fafb" stroke="#e5e7eb"/>
  <text class="lane-title" x="60" y="529">后端依赖</text>
  <g filter="url(#shadow)">
    <rect x="100" y="122" width="180" height="48" rx="10" fill="#eff6ff" stroke="#bfdbfe" stroke-width="1.5"/>
    <circle cx="124" cy="146" r="14" fill="#dbeafe" stroke="#93c5fd" stroke-width="1"/>
    <text x="124" y="151" text-anchor="middle" font-size="13" font-weight="700" fill="#1d4ed8">G</text>
    <text class="label" x="148" y="152">Gateway / HTTPRoute</text>
    <text class="small" x="148" y="174">入口、域名、路由</text>
  </g>
  <g filter="url(#shadow)">
    <rect x="310" y="122" width="180" height="48" rx="10" fill="#f0fdf4" stroke="#bbf7d0" stroke-width="1.5"/>
    <circle cx="334" cy="146" r="14" fill="#dcfce7" stroke="#86efac" stroke-width="1"/>
    <text x="334" y="151" text-anchor="middle" font-size="13" font-weight="700" fill="#15803d">S</text>
    <text class="label" x="358" y="152">Service / EndpointSlice</text>
    <text class="small" x="358" y="174">后端实例与端口</text>
  </g>
  <g filter="url(#shadow)">
    <rect x="520" y="122" width="180" height="48" rx="10" fill="#faf5ff" stroke="#e9d5ff" stroke-width="1.5"/>
    <circle cx="544" cy="146" r="14" fill="#ede9fe" stroke="#c4b5fd" stroke-width="1"/>
    <text x="544" y="151" text-anchor="middle" font-size="13" font-weight="700" fill="#7e22ce">R</text>
    <text class="label" x="568" y="152">Http2Rpc / Auth 配置</text>
    <text class="small" x="568" y="174">RPC 转码与鉴权</text>
  </g>
  <g filter="url(#shadow)">
    <rect x="170" y="232" width="250" height="72" rx="10" fill="#eff6ff" stroke="#bfdbfe" stroke-width="1.5"/>
    <circle cx="194" cy="256" r="14" fill="#dbeafe" stroke="#93c5fd" stroke-width="1"/>
    <text x="194" y="261" text-anchor="middle" font-size="13" font-weight="700" fill="#1d4ed8">CP</text>
    <text class="label" x="218" y="262">envoy-gateway</text>
    <text class="small" x="218" y="284">主控制面，2 副本</text>
    <text class="small" x="218" y="301">watch 配置并下发 xDS</text>
  </g>
  <g filter="url(#shadow)">
    <rect x="690" y="232" width="280" height="72" rx="10" fill="#faf5ff" stroke="#e9d5ff" stroke-width="1.5"/>
    <circle cx="714" cy="256" r="14" fill="#ede9fe" stroke="#c4b5fd" stroke-width="1"/>
    <text x="714" y="261" text-anchor="middle" font-size="13" font-weight="700" fill="#7e22ce">CP</text>
    <text class="label" x="738" y="262">prod-envoy-gateway-rpc</text>
    <text class="small" x="738" y="284">RPC/Auth 控制面</text>
    <text class="small" x="738" y="301">对应 envoy-gateway-rpc 模式</text>
  </g>
  <g filter="url(#shadow)">
    <rect x="70" y="390" width="92" height="62" rx="10" fill="#fff7ed" stroke="#fed7aa" stroke-width="1.5"/>
    <circle cx="94" cy="414" r="14" fill="#fed7aa" stroke="#fdba74" stroke-width="1"/>
    <text x="94" y="419" text-anchor="middle" font-size="13" font-weight="700" fill="#c2410c">U</text>
    <text class="label" x="118" y="420">外部流量</text>
    <text class="small" x="118" y="442">HTTP/HTTPS</text>
  </g>
  <g filter="url(#shadow)">
    <rect x="190" y="382" width="310" height="80" rx="10" fill="#f0fdf4" stroke="#bbf7d0" stroke-width="1.5"/>
    <circle cx="214" cy="406" r="14" fill="#dcfce7" stroke="#86efac" stroke-width="1"/>
    <text x="214" y="411" text-anchor="middle" font-size="13" font-weight="700" fill="#15803d">DP</text>
    <text class="label" x="238" y="412">envoy-default-eg</text>
    <text class="small" x="238" y="434">主 HTTP/HTTPS 数据面，34 副本</text>
    <text class="small" x="238" y="451">真正承接入口流量</text>
  </g>
  <g filter="url(#shadow)">
    <rect x="555" y="382" width="260" height="80" rx="10" fill="#f0fdfa" stroke="#99f6e4" stroke-width="1.5"/>
    <circle cx="579" cy="406" r="14" fill="#ccfbf1" stroke="#5eead4" stroke-width="1"/>
    <text x="579" y="411" text-anchor="middle" font-size="13" font-weight="700" fill="#0f766e">DP</text>
    <text class="label" x="603" y="412">envoy-soul-auth-rpc</text>
    <text class="small" x="603" y="434">RPC/Auth 数据面，2 副本</text>
    <text class="small" x="603" y="451">专用 Envoy 数据面</text>
  </g>
  <g filter="url(#shadow)">
    <rect x="875" y="382" width="205" height="80" rx="10" fill="#f9fafb" stroke="#d1d5db" stroke-width="1.5" stroke-dasharray="6 4"/>
    <circle cx="899" cy="406" r="14" fill="#f3f4f6" stroke="#d1d5db" stroke-width="1"/>
    <text x="899" y="411" text-anchor="middle" font-size="13" font-weight="700" fill="#6b7280">T</text>
    <text class="label" x="923" y="412">envoy-test</text>
    <text class="small" x="923" y="434">测试/遗留，1 副本</text>
    <text class="small" x="923" y="451">默认不算主链路</text>
  </g>
  <g filter="url(#shadow)">
    <rect x="210" y="532" width="260" height="64" rx="10" fill="#ffffff" stroke="#d1d5db" stroke-width="1.5"/>
    <circle cx="234" cy="556" r="14" fill="#f3f4f6" stroke="#d1d5db" stroke-width="1"/>
    <text x="234" y="561" text-anchor="middle" font-size="13" font-weight="700" fill="#374151">BE</text>
    <text class="label" x="258" y="562">业务后端 Service / Pod</text>
    <text class="small" x="258" y="584">HTTP/HTTPS upstream</text>
  </g>
  <g filter="url(#shadow)">
    <rect x="555" y="532" width="260" height="64" rx="10" fill="#ffffff" stroke="#d1d5db" stroke-width="1.5"/>
    <circle cx="579" cy="556" r="14" fill="#f3f4f6" stroke="#d1d5db" stroke-width="1"/>
    <text x="579" y="561" text-anchor="middle" font-size="13" font-weight="700" fill="#374151">BE</text>
    <text class="label" x="603" y="562">RPC/Auth 后端</text>
    <text class="small" x="603" y="584">Dubbo / Auth / 内部服务</text>
  </g>
  <g filter="url(#shadow)">
    <rect x="850" y="532" width="280" height="64" rx="10" fill="#fef2f2" stroke="#fecaca" stroke-width="1.5" stroke-dasharray="6 4"/>
    <circle cx="874" cy="556" r="14" fill="#fee2e2" stroke="#fca5a5" stroke-width="1"/>
    <text x="874" y="561" text-anchor="middle" font-size="13" font-weight="700" fill="#b91c1c">0</text>
    <text class="label" x="898" y="562">prod-soul-gateway-auth-server-dt</text>
    <text class="small" x="898" y="584">Auth 服务 0/0</text>
    <text class="small" x="898" y="601">当前不承接流量</text>
  </g>
  <line x1="280" y1="146" x2="295" y2="232" stroke="#ea580c" stroke-width="1.8" marker-end="url(#arrow-orange)"/>
  <line x1="400" y1="146" x2="305" y2="232" stroke="#ea580c" stroke-width="1.8" marker-end="url(#arrow-orange)"/>
  <line x1="610" y1="146" x2="810" y2="232" stroke="#ea580c" stroke-width="1.8" marker-end="url(#arrow-orange)"/>
  <rect x="325.0" y="188" width="54" height="20" rx="5" fill="#fff" opacity="0.96" stroke="#e5e7eb"/>
  <text class="tiny" x="352" y="202" text-anchor="middle">watch</text>
  <rect x="678.0" y="188" width="54" height="20" rx="5" fill="#fff" opacity="0.96" stroke="#e5e7eb"/>
  <text class="tiny" x="705" y="202" text-anchor="middle">watch</text>
  <line x1="295" y1="304" x2="345" y2="382" stroke="#2563eb" stroke-width="2.4" marker-end="url(#arrow-blue)"/>
  <rect x="293.0" y="334" width="54" height="20" rx="5" fill="#fff" opacity="0.96" stroke="#e5e7eb"/>
  <text class="tiny" x="320" y="348" text-anchor="middle">xDS</text>
  <line x1="830" y1="304" x2="685" y2="382" stroke="#9333ea" stroke-width="2.4" marker-end="url(#arrow-purple)"/>
  <rect x="731.0" y="334" width="54" height="20" rx="5" fill="#fff" opacity="0.96" stroke="#e5e7eb"/>
  <text class="tiny" x="758" y="348" text-anchor="middle">xDS</text>
  <line x1="162" y1="421" x2="190" y2="421" stroke="#2563eb" stroke-width="2.4" marker-end="url(#arrow-blue)"/>
  <rect x="149.0" y="388" width="54" height="20" rx="5" fill="#fff" opacity="0.96" stroke="#e5e7eb"/>
  <text class="tiny" x="176" y="402" text-anchor="middle">流量</text>
  <line x1="345" y1="462" x2="345" y2="532" stroke="#16a34a" stroke-width="2" marker-end="url(#arrow-green)"/>
  <rect x="307.0" y="490" width="76" height="20" rx="5" fill="#fff" opacity="0.96" stroke="#e5e7eb"/>
  <text class="tiny" x="345" y="504" text-anchor="middle">upstream</text>
  <line x1="685" y1="462" x2="685" y2="532" stroke="#16a34a" stroke-width="2" marker-end="url(#arrow-green)"/>
  <rect x="647.0" y="490" width="76" height="20" rx="5" fill="#fff" opacity="0.96" stroke="#e5e7eb"/>
  <text class="tiny" x="685" y="504" text-anchor="middle">upstream</text>
  <path d="M 977 462 C 982 500 970 515 990 532" fill="none" stroke="#6b7280" stroke-width="1.5" marker-end="url(#arrow-gray)" stroke-dasharray="5 4"/>
  <rect x="978.0" y="491" width="54" height="20" rx="5" fill="#fff" opacity="0.96" stroke="#e5e7eb"/>
  <text class="tiny" x="1005" y="505" text-anchor="middle">非主链路</text>
  <g transform="translate(58,690)">
    <line x1="0" y1="0" x2="34" y2="0" stroke="#2563eb" stroke-width="2" marker-end="url(#arrow-blue)"/><text class="tiny" x="44" y="4">主流量 / 主 xDS</text>
    <line x1="160" y1="0" x2="194" y2="0" stroke="#9333ea" stroke-width="2" marker-end="url(#arrow-purple)"/><text class="tiny" x="204" y="4">RPC/Auth xDS</text>
    <line x1="340" y1="0" x2="374" y2="0" stroke="#ea580c" stroke-width="1.8" marker-end="url(#arrow-orange)"/><text class="tiny" x="384" y="4">控制/监听</text>
    <line x1="500" y1="0" x2="534" y2="0" stroke="#6b7280" stroke-width="1.5" stroke-dasharray="5 4" marker-end="url(#arrow-gray)"/><text class="tiny" x="544" y="4">排查时默认排除</text>
  </g>
</svg>