<svg xmlns="http://www.w3.org/2000/svg" viewBox="0 0 1206 1801" font-family="-apple-system, PingFang SC, Microsoft YaHei, Helvetica, Arial, sans-serif">
<rect x="0" y="0" width="1206" height="1801" fill="#ffffff"/>
<path d="M 424.4,887.0 C 464.4,887.0 464.4,107.0 504.4,107.0" fill="none" stroke="#7c3aed" stroke-width="2.4" stroke-linecap="round"/>
<path d="M 610.0,107.0 C 713.6,107.0 713.6,55.0 817.2,55.0" fill="none" stroke="#7c3aed" stroke-width="2.4" stroke-linecap="round"/>
<path d="M 610.0,107.0 C 713.6,107.0 713.6,107.0 817.2,107.0" fill="none" stroke="#7c3aed" stroke-width="2.4" stroke-linecap="round"/>
<path d="M 610.0,107.0 C 713.6,107.0 713.6,159.0 817.2,159.0" fill="none" stroke="#7c3aed" stroke-width="2.4" stroke-linecap="round"/>
<path d="M 424.4,887.0 C 464.4,887.0 464.4,289.0 504.4,289.0" fill="none" stroke="#2563eb" stroke-width="2.4" stroke-linecap="round"/>
<path d="M 666.0,289.0 C 741.6,289.0 741.6,211.0 817.2,211.0" fill="none" stroke="#2563eb" stroke-width="2.4" stroke-linecap="round"/>
<path d="M 666.0,289.0 C 741.6,289.0 741.6,263.0 817.2,263.0" fill="none" stroke="#2563eb" stroke-width="2.4" stroke-linecap="round"/>
<path d="M 666.0,289.0 C 741.6,289.0 741.6,315.0 817.2,315.0" fill="none" stroke="#2563eb" stroke-width="2.4" stroke-linecap="round"/>
<path d="M 666.0,289.0 C 741.6,289.0 741.6,367.0 817.2,367.0" fill="none" stroke="#2563eb" stroke-width="2.4" stroke-linecap="round"/>
<path d="M 424.4,887.0 C 464.4,887.0 464.4,497.0 504.4,497.0" fill="none" stroke="#0891b2" stroke-width="2.4" stroke-linecap="round"/>
<path d="M 737.2,497.0 C 777.2,497.0 777.2,419.0 817.2,419.0" fill="none" stroke="#0891b2" stroke-width="2.4" stroke-linecap="round"/>
<path d="M 737.2,497.0 C 777.2,497.0 777.2,471.0 817.2,471.0" fill="none" stroke="#0891b2" stroke-width="2.4" stroke-linecap="round"/>
<path d="M 737.2,497.0 C 777.2,497.0 777.2,523.0 817.2,523.0" fill="none" stroke="#0891b2" stroke-width="2.4" stroke-linecap="round"/>
<path d="M 737.2,497.0 C 777.2,497.0 777.2,575.0 817.2,575.0" fill="none" stroke="#0891b2" stroke-width="2.4" stroke-linecap="round"/>
<path d="M 424.4,887.0 C 464.4,887.0 464.4,705.0 504.4,705.0" fill="none" stroke="#dc2626" stroke-width="2.4" stroke-linecap="round"/>
<path d="M 630.4,705.0 C 723.8,705.0 723.8,627.0 817.2,627.0" fill="none" stroke="#dc2626" stroke-width="2.4" stroke-linecap="round"/>
<path d="M 630.4,705.0 C 723.8,705.0 723.8,679.0 817.2,679.0" fill="none" stroke="#dc2626" stroke-width="2.4" stroke-linecap="round"/>
<path d="M 630.4,705.0 C 723.8,705.0 723.8,731.0 817.2,731.0" fill="none" stroke="#dc2626" stroke-width="2.4" stroke-linecap="round"/>
<path d="M 630.4,705.0 C 723.8,705.0 723.8,783.0 817.2,783.0" fill="none" stroke="#dc2626" stroke-width="2.4" stroke-linecap="round"/>
<path d="M 424.4,887.0 C 464.4,887.0 464.4,913.0 504.4,913.0" fill="none" stroke="#ea580c" stroke-width="2.4" stroke-linecap="round"/>
<path d="M 671.2,913.0 C 744.2,913.0 744.2,835.0 817.2,835.0" fill="none" stroke="#ea580c" stroke-width="2.4" stroke-linecap="round"/>
<path d="M 671.2,913.0 C 744.2,913.0 744.2,887.0 817.2,887.0" fill="none" stroke="#ea580c" stroke-width="2.4" stroke-linecap="round"/>
<path d="M 671.2,913.0 C 744.2,913.0 744.2,939.0 817.2,939.0" fill="none" stroke="#ea580c" stroke-width="2.4" stroke-linecap="round"/>
<path d="M 671.2,913.0 C 744.2,913.0 744.2,991.0 817.2,991.0" fill="none" stroke="#ea580c" stroke-width="2.4" stroke-linecap="round"/>
<path d="M 424.4,887.0 C 464.4,887.0 464.4,1121.0 504.4,1121.0" fill="none" stroke="#059669" stroke-width="2.4" stroke-linecap="round"/>
<path d="M 610.0,1121.0 C 713.6,1121.0 713.6,1043.0 817.2,1043.0" fill="none" stroke="#059669" stroke-width="2.4" stroke-linecap="round"/>
<path d="M 610.0,1121.0 C 713.6,1121.0 713.6,1095.0 817.2,1095.0" fill="none" stroke="#059669" stroke-width="2.4" stroke-linecap="round"/>
<path d="M 610.0,1121.0 C 713.6,1121.0 713.6,1147.0 817.2,1147.0" fill="none" stroke="#059669" stroke-width="2.4" stroke-linecap="round"/>
<path d="M 610.0,1121.0 C 713.6,1121.0 713.6,1199.0 817.2,1199.0" fill="none" stroke="#059669" stroke-width="2.4" stroke-linecap="round"/>
<path d="M 424.4,887.0 C 464.4,887.0 464.4,1303.0 504.4,1303.0" fill="none" stroke="#d97706" stroke-width="2.4" stroke-linecap="round"/>
<path d="M 643.6,1303.0 C 730.4,1303.0 730.4,1251.0 817.2,1251.0" fill="none" stroke="#d97706" stroke-width="2.4" stroke-linecap="round"/>
<path d="M 643.6,1303.0 C 730.4,1303.0 730.4,1303.0 817.2,1303.0" fill="none" stroke="#d97706" stroke-width="2.4" stroke-linecap="round"/>
<path d="M 643.6,1303.0 C 730.4,1303.0 730.4,1355.0 817.2,1355.0" fill="none" stroke="#d97706" stroke-width="2.4" stroke-linecap="round"/>
<path d="M 424.4,887.0 C 464.4,887.0 464.4,1485.0 504.4,1485.0" fill="none" stroke="#4f46e5" stroke-width="2.4" stroke-linecap="round"/>
<path d="M 671.2,1485.0 C 744.2,1485.0 744.2,1407.0 817.2,1407.0" fill="none" stroke="#4f46e5" stroke-width="2.4" stroke-linecap="round"/>
<path d="M 671.2,1485.0 C 744.2,1485.0 744.2,1459.0 817.2,1459.0" fill="none" stroke="#4f46e5" stroke-width="2.4" stroke-linecap="round"/>
<path d="M 671.2,1485.0 C 744.2,1485.0 744.2,1511.0 817.2,1511.0" fill="none" stroke="#4f46e5" stroke-width="2.4" stroke-linecap="round"/>
<path d="M 671.2,1485.0 C 744.2,1485.0 744.2,1563.0 817.2,1563.0" fill="none" stroke="#4f46e5" stroke-width="2.4" stroke-linecap="round"/>
<path d="M 424.4,887.0 C 464.4,887.0 464.4,1667.0 504.4,1667.0" fill="none" stroke="#db2777" stroke-width="2.4" stroke-linecap="round"/>
<path d="M 610.0,1667.0 C 713.6,1667.0 713.6,1615.0 817.2,1615.0" fill="none" stroke="#db2777" stroke-width="2.4" stroke-linecap="round"/>
<path d="M 610.0,1667.0 C 713.6,1667.0 713.6,1667.0 817.2,1667.0" fill="none" stroke="#db2777" stroke-width="2.4" stroke-linecap="round"/>
<path d="M 610.0,1667.0 C 713.6,1667.0 713.6,1719.0 817.2,1719.0" fill="none" stroke="#db2777" stroke-width="2.4" stroke-linecap="round"/>
<rect x="40" y="860.0" width="384.4" height="54" rx="12" fill="#1e293b"/>
<text x="232.2" y="894.0" text-anchor="middle" fill="#ffffff" font-size="21" font-weight="700">AIOps 多Agent根因分析 · 拉普拉斯</text>
<line x1="504.4" y1="107.0" x2="610.0" y2="107.0" stroke="#7c3aed" stroke-width="2.4" stroke-linecap="round"/>
<text x="516.4" y="99.0" fill="#7c3aed" font-size="20" font-weight="700">项目定位</text>
<line x1="817.2" y1="55.0" x2="1080.8" y2="55.0" stroke="#7c3aed" stroke-width="2.4" stroke-linecap="round"/>
<text x="829.2" y="47.0" fill="#1f2937" font-size="20" font-weight="400">告警链路下游的诊断Agent</text>
<line x1="817.2" y1="107.0" x2="1094.0" y2="107.0" stroke="#7c3aed" stroke-width="2.4" stroke-linecap="round"/>
<text x="829.2" y="99.0" fill="#1f2937" font-size="20" font-weight="400">LLM按ReAct调只读工具取证</text>
<line x1="817.2" y1="159.0" x2="1045.2" y2="159.0" stroke="#7c3aed" stroke-width="2.4" stroke-linecap="round"/>
<text x="829.2" y="151.0" fill="#1f2937" font-size="20" font-weight="400">对照知识库案例定根因</text>
<line x1="504.4" y1="289.0" x2="666.0" y2="289.0" stroke="#2563eb" stroke-width="2.4" stroke-linecap="round"/>
<text x="516.4" y="281.0" fill="#2563eb" font-size="20" font-weight="700">两种Agent形态</text>
<line x1="817.2" y1="211.0" x2="1100.0" y2="211.0" stroke="#2563eb" stroke-width="2.4" stroke-linecap="round"/>
<text x="829.2" y="203.0" fill="#1f2937" font-size="20" font-weight="400">单Agent ReAct · 生产主力</text>
<line x1="817.2" y1="263.0" x2="1094.0" y2="263.0" stroke="#2563eb" stroke-width="2.4" stroke-linecap="round"/>
<text x="829.2" y="255.0" fill="#1f2937" font-size="20" font-weight="400">多Agent圆桌 · 五角色协作</text>
<line x1="817.2" y1="315.0" x2="1110.0" y2="315.0" stroke="#2563eb" stroke-width="2.4" stroke-linecap="round"/>
<text x="829.2" y="307.0" fill="#1f2937" font-size="20" font-weight="400">receiver→analyst→planner</text>
<line x1="817.2" y1="367.0" x2="1087.6" y2="367.0" stroke="#2563eb" stroke-width="2.4" stroke-linecap="round"/>
<text x="829.2" y="359.0" fill="#1f2937" font-size="20" font-weight="400">→k8s_engineer→examiner</text>
<line x1="504.4" y1="497.0" x2="737.2" y2="497.0" stroke="#0891b2" stroke-width="2.4" stroke-linecap="round"/>
<text x="516.4" y="489.0" fill="#0891b2" font-size="20" font-weight="700">ReAct引擎 TAOPlayer</text>
<line x1="817.2" y1="419.0" x2="1083.6" y2="419.0" stroke="#0891b2" stroke-width="2.4" stroke-linecap="round"/>
<text x="829.2" y="411.0" fill="#1f2937" font-size="20" font-weight="400">think-act-observe 循环</text>
<line x1="817.2" y1="471.0" x2="1101.2" y2="471.0" stroke="#0891b2" stroke-width="2.4" stroke-linecap="round"/>
<text x="829.2" y="463.0" fill="#1f2937" font-size="20" font-weight="400">轮数上限10 · 超限强制汇总</text>
<line x1="817.2" y1="523.0" x2="1118.4" y2="523.0" stroke="#0891b2" stroke-width="2.4" stroke-linecap="round"/>
<text x="829.2" y="515.0" fill="#1f2937" font-size="20" font-weight="400">状态机 · terminate唯一出口</text>
<line x1="817.2" y1="575.0" x2="1004.4" y2="575.0" stroke="#0891b2" stroke-width="2.4" stroke-linecap="round"/>
<text x="829.2" y="567.0" fill="#1f2937" font-size="20" font-weight="400">工具失败有限重试</text>
<line x1="504.4" y1="705.0" x2="630.4" y2="705.0" stroke="#dc2626" stroke-width="2.4" stroke-linecap="round"/>
<text x="516.4" y="697.0" fill="#dc2626" font-size="20" font-weight="700">防幻觉四层</text>
<line x1="817.2" y1="627.0" x2="963.6" y2="627.0" stroke="#dc2626" stroke-width="2.4" stroke-linecap="round"/>
<text x="829.2" y="619.0" fill="#1f2937" font-size="20" font-weight="400">只读工具取证</text>
<line x1="817.2" y1="679.0" x2="1065.6" y2="679.0" stroke="#dc2626" stroke-width="2.4" stroke-linecap="round"/>
<text x="829.2" y="671.0" fill="#1f2937" font-size="20" font-weight="400">知识库故障案例逐项验证</text>
<line x1="817.2" y1="731.0" x2="1066.4" y2="731.0" stroke="#dc2626" stroke-width="2.4" stroke-linecap="round"/>
<text x="829.2" y="723.0" fill="#1f2937" font-size="20" font-weight="400">OBSERVER 12项否决质检</text>
<line x1="817.2" y1="783.0" x2="1059.2" y2="783.0" stroke="#dc2626" stroke-width="2.4" stroke-linecap="round"/>
<text x="829.2" y="775.0" fill="#1f2937" font-size="20" font-weight="400">temperature=0 确定性</text>
<line x1="504.4" y1="913.0" x2="671.2" y2="913.0" stroke="#ea580c" stroke-width="2.4" stroke-linecap="round"/>
<text x="516.4" y="905.0" fill="#ea580c" font-size="20" font-weight="700">只读取证工具集</text>
<line x1="817.2" y1="835.0" x2="1023.6" y2="835.0" stroke="#ea580c" stroke-width="2.4" stroke-linecap="round"/>
<text x="829.2" y="827.0" fill="#1f2937" font-size="20" font-weight="400">k8s · 事件 · 日志</text>
<line x1="817.2" y1="887.0" x2="1046.0" y2="887.0" stroke="#ea580c" stroke-width="2.4" stroke-linecap="round"/>
<text x="829.2" y="879.0" fill="#1f2937" font-size="20" font-weight="400">Prometheus 六维指标</text>
<line x1="817.2" y1="939.0" x2="1112.4" y2="939.0" stroke="#ea580c" stroke-width="2.4" stroke-linecap="round"/>
<text x="829.2" y="931.0" fill="#1f2937" font-size="20" font-weight="400">变更 · 节点池 · 飞书知识库</text>
<line x1="817.2" y1="991.0" x2="1156.0" y2="991.0" stroke="#ea580c" stroke-width="2.4" stroke-linecap="round"/>
<text x="829.2" y="983.0" fill="#1f2937" font-size="20" font-weight="400">Function Calling · 结构化回灌</text>
<line x1="504.4" y1="1121.0" x2="610.0" y2="1121.0" stroke="#059669" stroke-width="2.4" stroke-linecap="round"/>
<text x="516.4" y="1113.0" fill="#059669" font-size="20" font-weight="700">核心流程</text>
<line x1="817.2" y1="1043.0" x2="1103.2" y2="1043.0" stroke="#059669" stroke-width="2.4" stroke-linecap="round"/>
<text x="829.2" y="1035.0" fill="#1f2937" font-size="20" font-weight="400">告警解析 · 提服务树/Pod名</text>
<line x1="817.2" y1="1095.0" x2="1078.8" y2="1095.0" stroke="#059669" stroke-width="2.4" stroke-linecap="round"/>
<text x="829.2" y="1087.0" fill="#1f2937" font-size="20" font-weight="400">预取上下文 · 读故障案例</text>
<line x1="817.2" y1="1147.0" x2="1094.0" y2="1147.0" stroke="#059669" stroke-width="2.4" stroke-linecap="round"/>
<text x="829.2" y="1139.0" fill="#1f2937" font-size="20" font-weight="400">ReAct取证 · 现象逐项验证</text>
<line x1="817.2" y1="1199.0" x2="1026.8" y2="1199.0" stroke="#059669" stroke-width="2.4" stroke-linecap="round"/>
<text x="829.2" y="1191.0" fill="#1f2937" font-size="20" font-weight="400">质检→回写飞书→落库</text>
<line x1="504.4" y1="1303.0" x2="643.6" y2="1303.0" stroke="#d97706" stroke-width="2.4" stroke-linecap="round"/>
<text x="516.4" y="1295.0" fill="#d97706" font-size="20" font-weight="700">LLM接入演进</text>
<line x1="817.2" y1="1251.0" x2="1122.4" y2="1251.0" stroke="#d97706" stroke-width="2.4" stroke-linecap="round"/>
<text x="829.2" y="1243.0" fill="#1f2937" font-size="20" font-weight="400">多模型直连 gpt4o/doubao/ds</text>
<line x1="817.2" y1="1303.0" x2="1066.4" y2="1303.0" stroke="#d97706" stroke-width="2.4" stroke-linecap="round"/>
<text x="829.2" y="1295.0" fill="#1f2937" font-size="20" font-weight="400">统一走内部 AI Gateway</text>
<line x1="817.2" y1="1355.0" x2="1051.2" y2="1355.0" stroke="#d97706" stroke-width="2.4" stroke-linecap="round"/>
<text x="829.2" y="1347.0" fill="#1f2937" font-size="20" font-weight="400">响应转OpenAI兼容结构</text>
<line x1="504.4" y1="1485.0" x2="671.2" y2="1485.0" stroke="#4f46e5" stroke-width="2.4" stroke-linecap="round"/>
<text x="516.4" y="1477.0" fill="#4f46e5" font-size="20" font-weight="700">我的参与与改造</text>
<line x1="817.2" y1="1407.0" x2="1065.6" y2="1407.0" stroke="#4f46e5" stroke-width="2.4" stroke-linecap="round"/>
<text x="829.2" y="1399.0" fill="#1f2937" font-size="20" font-weight="400">参与核心链路建设与改造</text>
<line x1="817.2" y1="1459.0" x2="1090.0" y2="1459.0" stroke="#4f46e5" stroke-width="2.4" stroke-linecap="round"/>
<text x="829.2" y="1451.0" fill="#1f2937" font-size="20" font-weight="400">改造点 · 重试仅1次容错弱</text>
<line x1="817.2" y1="1511.0" x2="1071.6" y2="1511.0" stroke="#4f46e5" stroke-width="2.4" stroke-linecap="round"/>
<text x="829.2" y="1503.0" fill="#1f2937" font-size="20" font-weight="400">多Agent线程+队列轮询脆</text>
<line x1="817.2" y1="1563.0" x2="1086.0" y2="1563.0" stroke="#4f46e5" stroke-width="2.4" stroke-linecap="round"/>
<text x="829.2" y="1555.0" fill="#1f2937" font-size="20" font-weight="400">知识库走飞书实时读耦合重</text>
<line x1="504.4" y1="1667.0" x2="610.0" y2="1667.0" stroke="#db2777" stroke-width="2.4" stroke-linecap="round"/>
<text x="516.4" y="1659.0" fill="#db2777" font-size="20" font-weight="700">面试边界</text>
<line x1="817.2" y1="1615.0" x2="984.0" y2="1615.0" stroke="#db2777" stroke-width="2.4" stroke-linecap="round"/>
<text x="829.2" y="1607.0" fill="#1f2937" font-size="20" font-weight="400">不主导整套平台</text>
<line x1="817.2" y1="1667.0" x2="1058.4" y2="1667.0" stroke="#db2777" stroke-width="2.4" stroke-linecap="round"/>
<text x="829.2" y="1659.0" fill="#1f2937" font-size="20" font-weight="400">工具只读 · 不自动处置</text>
<line x1="817.2" y1="1719.0" x2="1040.0" y2="1719.0" stroke="#db2777" stroke-width="2.4" stroke-linecap="round"/>
<text x="829.2" y="1711.0" fill="#1f2937" font-size="20" font-weight="400">不报准确率/MTTR指标</text>
</svg>