<svg xmlns="http://www.w3.org/2000/svg" viewBox="0 0 1600 600" width="1600" height="600">
  <style>text { font-family: 'Helvetica Neue', Helvetica, Arial, 'PingFang SC', 'Microsoft YaHei', sans-serif; }</style>
  <defs>
    <marker id="ar-blue" markerWidth="10" markerHeight="7" refX="9" refY="3.5" orient="auto"><polygon points="0 0, 10 3.5, 0 7" fill="#2563eb"/></marker>
    <marker id="ar-green" markerWidth="10" markerHeight="7" refX="9" refY="3.5" orient="auto"><polygon points="0 0, 10 3.5, 0 7" fill="#16a34a"/></marker>
    <marker id="ar-orange" markerWidth="10" markerHeight="7" refX="9" refY="3.5" orient="auto"><polygon points="0 0, 10 3.5, 0 7" fill="#ea580c"/></marker>
  </defs>
  <rect width="1600" height="600" fill="#ffffff"/>
  <text x="800" y="36" text-anchor="middle" font-size="20" font-weight="600" fill="#111827">FinOps 平台总体架构</text>
  <rect x="30" y="70" width="260" height="510" rx="10" ry="10" fill="#fafafa" stroke="#d1d5db" stroke-width="1.5" stroke-dasharray="6,4"/>
  <rect x="42" y="80" width="236" height="26" rx="6" ry="6" fill="#eff6ff" stroke="#bfdbfe" stroke-width="1"/>
  <text x="160.0" y="98" text-anchor="middle" font-size="13" font-weight="600" fill="#111827">数据源</text>
  <rect x="320" y="70" width="260" height="380" rx="10" ry="10" fill="#fafafa" stroke="#d1d5db" stroke-width="1.5" stroke-dasharray="6,4"/>
  <rect x="332" y="80" width="236" height="26" rx="6" ry="6" fill="#fff7ed" stroke="#fed7aa" stroke-width="1"/>
  <text x="450.0" y="98" text-anchor="middle" font-size="13" font-weight="600" fill="#111827">sync 离线脚本（cron）</text>
  <rect x="610" y="70" width="280" height="440" rx="10" ry="10" fill="#fafafa" stroke="#d1d5db" stroke-width="1.5" stroke-dasharray="6,4"/>
  <rect x="622" y="80" width="256" height="26" rx="6" ry="6" fill="#f0fdf4" stroke="#bbf7d0" stroke-width="1"/>
  <text x="750.0" y="98" text-anchor="middle" font-size="13" font-weight="600" fill="#111827">MySQL · finops</text>
  <rect x="920" y="70" width="280" height="380" rx="10" ry="10" fill="#fafafa" stroke="#d1d5db" stroke-width="1.5" stroke-dasharray="6,4"/>
  <rect x="932" y="80" width="256" height="26" rx="6" ry="6" fill="#faf5ff" stroke="#ddd6fe" stroke-width="1"/>
  <text x="1060.0" y="98" text-anchor="middle" font-size="13" font-weight="600" fill="#111827">Django 后端 (DRF)</text>
  <rect x="1230" y="70" width="340" height="290" rx="10" ry="10" fill="#fafafa" stroke="#d1d5db" stroke-width="1.5" stroke-dasharray="6,4"/>
  <rect x="1242" y="80" width="316" height="26" rx="6" ry="6" fill="#fef2f2" stroke="#fecaca" stroke-width="1"/>
  <text x="1400.0" y="98" text-anchor="middle" font-size="13" font-weight="600" fill="#111827">出口 / 协同</text>
  <rect x="50" y="110" width="220" height="44" rx="6" ry="6" fill="#eff6ff" stroke="#93c5fd" stroke-width="1.2"/>
  <text x="160.0" y="128" text-anchor="middle" font-size="12" font-weight="600" fill="#111827">阿里云 BSS</text>
  <text x="160.0" y="143" text-anchor="middle" font-size="11" fill="#6b7280">QuerySplitItemBill</text>
  <rect x="50" y="166" width="220" height="44" rx="6" ry="6" fill="#eff6ff" stroke="#93c5fd" stroke-width="1.2"/>
  <text x="160.0" y="184" text-anchor="middle" font-size="12" font-weight="600" fill="#111827">华为云 BSS</text>
  <text x="160.0" y="199" text-anchor="middle" font-size="11" fill="#6b7280">v2/bills</text>
  <rect x="50" y="222" width="220" height="44" rx="6" ry="6" fill="#eff6ff" stroke="#93c5fd" stroke-width="1.2"/>
  <text x="160.0" y="240" text-anchor="middle" font-size="12" font-weight="600" fill="#111827">腾讯云 Billing</text>
  <text x="160.0" y="255" text-anchor="middle" font-size="11" fill="#6b7280">DescribeBillDetail</text>
  <rect x="50" y="278" width="220" height="44" rx="6" ry="6" fill="#eff6ff" stroke="#93c5fd" stroke-width="1.2"/>
  <text x="160.0" y="296" text-anchor="middle" font-size="12" font-weight="600" fill="#111827">火山云</text>
  <text x="160.0" y="311" text-anchor="middle" font-size="11" fill="#6b7280">Cost API</text>
  <rect x="50" y="334" width="220" height="44" rx="6" ry="6" fill="#eff6ff" stroke="#93c5fd" stroke-width="1.2"/>
  <text x="160.0" y="352" text-anchor="middle" font-size="12" font-weight="600" fill="#111827">CMDB MySQL</text>
  <text x="160.0" y="367" text-anchor="middle" font-size="11" fill="#6b7280">category_host</text>
  <rect x="50" y="390" width="220" height="44" rx="6" ry="6" fill="#eff6ff" stroke="#93c5fd" stroke-width="1.2"/>
  <text x="160.0" y="408" text-anchor="middle" font-size="12" font-weight="600" fill="#111827">飞书 OA</text>
  <text x="160.0" y="423" text-anchor="middle" font-size="11" fill="#6b7280">部门 / 用户</text>
  <rect x="50" y="446" width="220" height="44" rx="6" ry="6" fill="#eff6ff" stroke="#93c5fd" stroke-width="1.2"/>
  <text x="160.0" y="464" text-anchor="middle" font-size="12" font-weight="600" fill="#111827">VictoriaMetrics</text>
  <text x="160.0" y="479" text-anchor="middle" font-size="11" fill="#6b7280">EAS / DLC GPU 指标</text>
  <rect x="50" y="502" width="220" height="44" rx="6" ry="6" fill="#eff6ff" stroke="#93c5fd" stroke-width="1.2"/>
  <text x="160.0" y="520" text-anchor="middle" font-size="12" font-weight="600" fill="#111827">PAI-DLC OpenAPI</text>
  <text x="160.0" y="535" text-anchor="middle" font-size="11" fill="#6b7280">任务 / 状态 / 抢占</text>
  <rect x="340" y="110" width="220" height="56" rx="6" ry="6" fill="#fff7ed" stroke="#fdba74" stroke-width="1.2"/>
  <text x="450.0" y="128" text-anchor="middle" font-size="12" font-weight="600" fill="#111827">cost_bill_ali / huawei /</text>
  <text x="450.0" y="143" text-anchor="middle" font-size="11" fill="#6b7280">tencent_cloud_collector</text>
  <rect x="340" y="178" width="220" height="56" rx="6" ry="6" fill="#fff7ed" stroke="#fdba74" stroke-width="1.2"/>
  <text x="450.0" y="196" text-anchor="middle" font-size="12" font-weight="600" fill="#111827">ecs / rds / redis</text>
  <text x="450.0" y="211" text-anchor="middle" font-size="11" fill="#6b7280">资产快照</text>
  <rect x="340" y="246" width="220" height="56" rx="6" ry="6" fill="#fff7ed" stroke="#fdba74" stroke-width="1.2"/>
  <text x="450.0" y="264" text-anchor="middle" font-size="12" font-weight="600" fill="#111827">department_lark</text>
  <text x="450.0" y="279" text-anchor="middle" font-size="11" fill="#6b7280">ram_user</text>
  <rect x="340" y="314" width="220" height="56" rx="6" ry="6" fill="#fff7ed" stroke="#fdba74" stroke-width="1.2"/>
  <text x="450.0" y="332" text-anchor="middle" font-size="12" font-weight="600" fill="#111827">eas_apps / eas_app_monitor</text>
  <text x="450.0" y="347" text-anchor="middle" font-size="11" fill="#6b7280">platform_gpu_statistics</text>
  <rect x="340" y="382" width="220" height="56" rx="6" ry="6" fill="#fff7ed" stroke="#fdba74" stroke-width="1.2"/>
  <text x="450.0" y="400" text-anchor="middle" font-size="12" font-weight="600" fill="#111827">spot/scripts/main.py</text>
  <text x="450.0" y="415" text-anchor="middle" font-size="11" fill="#6b7280">DLC 任务治理 + Spot 重建</text>
  <path d="M630,118 a120.0,8 0 1,0 240,0 a120.0,8 0 1,0 -240,0 L630,158 a120.0,8 0 1,0 240,0 L870,118" fill="#f0fdf4" stroke="#86efac" stroke-width="1.2"/>
  <ellipse cx="750.0" cy="118" rx="120.0" ry="8" fill="none" stroke="#86efac" stroke-width="1.2"/>
  <text x="750.0" y="136.0" text-anchor="middle" font-size="12" font-weight="600" fill="#111827">instance_bill_daily_&lt;year&gt;</text>
  <text x="750.0" y="151.0" text-anchor="middle" font-size="11" fill="#6b7280">按年分表 2022-2025</text>
  <path d="M630,184 a120.0,8 0 1,0 240,0 a120.0,8 0 1,0 -240,0 L630,224 a120.0,8 0 1,0 240,0 L870,184" fill="#f0fdf4" stroke="#86efac" stroke-width="1.2"/>
  <ellipse cx="750.0" cy="184" rx="120.0" ry="8" fill="none" stroke="#86efac" stroke-width="1.2"/>
  <text x="750.0" y="202.0" text-anchor="middle" font-size="12" font-weight="600" fill="#111827">department_bill_daily</text>
  <text x="750.0" y="217.0" text-anchor="middle" font-size="11" fill="#6b7280">部门日账单</text>
  <path d="M630,250 a120.0,8 0 1,0 240,0 a120.0,8 0 1,0 -240,0 L630,290 a120.0,8 0 1,0 240,0 L870,250" fill="#f0fdf4" stroke="#86efac" stroke-width="1.2"/>
  <ellipse cx="750.0" cy="250" rx="120.0" ry="8" fill="none" stroke="#86efac" stroke-width="1.2"/>
  <text x="750.0" y="268.0" text-anchor="middle" font-size="12" font-weight="600" fill="#111827">EcsAsset / Rds / Redis</text>
  <text x="750.0" y="283.0" text-anchor="middle" font-size="11" fill="#6b7280">资产快照</text>
  <path d="M630,316 a120.0,8 0 1,0 240,0 a120.0,8 0 1,0 -240,0 L630,356 a120.0,8 0 1,0 240,0 L870,316" fill="#f0fdf4" stroke="#86efac" stroke-width="1.2"/>
  <ellipse cx="750.0" cy="316" rx="120.0" ry="8" fill="none" stroke="#86efac" stroke-width="1.2"/>
  <text x="750.0" y="334.0" text-anchor="middle" font-size="12" font-weight="600" fill="#111827">Apps / AppMonitor</text>
  <text x="750.0" y="349.0" text-anchor="middle" font-size="11" fill="#6b7280">PlatFormGpuCard</text>
  <path d="M630,382 a120.0,8 0 1,0 240,0 a120.0,8 0 1,0 -240,0 L630,422 a120.0,8 0 1,0 240,0 L870,382" fill="#f0fdf4" stroke="#86efac" stroke-width="1.2"/>
  <ellipse cx="750.0" cy="382" rx="120.0" ry="8" fill="none" stroke="#86efac" stroke-width="1.2"/>
  <text x="750.0" y="400.0" text-anchor="middle" font-size="12" font-weight="600" fill="#111827">spot.Job / RamUser</text>
  <text x="750.0" y="415.0" text-anchor="middle" font-size="11" fill="#6b7280">DLC 任务</text>
  <path d="M630,448 a120.0,8 0 1,0 240,0 a120.0,8 0 1,0 -240,0 L630,488 a120.0,8 0 1,0 240,0 L870,448" fill="#f0fdf4" stroke="#86efac" stroke-width="1.2"/>
  <ellipse cx="750.0" cy="448" rx="120.0" ry="8" fill="none" stroke="#86efac" stroke-width="1.2"/>
  <text x="750.0" y="466.0" text-anchor="middle" font-size="12" font-weight="600" fill="#111827">Budget / CashCoupons</text>
  <text x="750.0" y="481.0" text-anchor="middle" font-size="11" fill="#6b7280">预算 / 代金券</text>
  <rect x="940" y="110" width="240" height="56" rx="6" ry="6" fill="#faf5ff" stroke="#c4b5fd" stroke-width="1.2"/>
  <text x="1060.0" y="128" text-anchor="middle" font-size="12" font-weight="600" fill="#111827">bill_overview</text>
  <text x="1060.0" y="143" text-anchor="middle" font-size="11" fill="#6b7280">预算 / 进度 / 趋势</text>
  <rect x="940" y="178" width="240" height="56" rx="6" ry="6" fill="#faf5ff" stroke="#c4b5fd" stroke-width="1.2"/>
  <text x="1060.0" y="196" text-anchor="middle" font-size="12" font-weight="600" fill="#111827">bill_split_drill</text>
  <text x="1060.0" y="211" text-anchor="middle" font-size="11" fill="#6b7280">产品 ↔ 部门钻取</text>
  <rect x="940" y="246" width="240" height="56" rx="6" ry="6" fill="#faf5ff" stroke="#c4b5fd" stroke-width="1.2"/>
  <text x="1060.0" y="264" text-anchor="middle" font-size="12" font-weight="600" fill="#111827">mcp.py</text>
  <text x="1060.0" y="279" text-anchor="middle" font-size="11" fill="#6b7280">EAS / DLC / 百炼 / Kubeflow</text>
  <rect x="940" y="314" width="240" height="56" rx="6" ry="6" fill="#faf5ff" stroke="#c4b5fd" stroke-width="1.2"/>
  <text x="1060.0" y="332" text-anchor="middle" font-size="12" font-weight="600" fill="#111827">overview.*</text>
  <text x="1060.0" y="347" text-anchor="middle" font-size="11" fill="#6b7280">MonthBill / Ecs / Rds / Redis</text>
  <rect x="940" y="382" width="240" height="56" rx="6" ry="6" fill="#faf5ff" stroke="#c4b5fd" stroke-width="1.2"/>
  <text x="1060.0" y="400" text-anchor="middle" font-size="12" font-weight="600" fill="#111827">spot.views</text>
  <text x="1060.0" y="415" text-anchor="middle" font-size="11" fill="#6b7280">DLC / DlcHour / day_power</text>
  <rect x="1260" y="110" width="290" height="56" rx="6" ry="6" fill="#fef2f2" stroke="#fca5a5" stroke-width="1.2"/>
  <text x="1405.0" y="128" text-anchor="middle" font-size="12" font-weight="600" fill="#111827">飞书卡片报表</text>
  <text x="1405.0" y="143" text-anchor="middle" font-size="11" fill="#6b7280">日报 10:30 / 周报 周一 17:00</text>
  <rect x="1260" y="180" width="290" height="56" rx="6" ry="6" fill="#fef2f2" stroke="#fca5a5" stroke-width="1.2"/>
  <text x="1405.0" y="198" text-anchor="middle" font-size="12" font-weight="600" fill="#111827">前端 Dashboard</text>
  <text x="1405.0" y="213" text-anchor="middle" font-size="11" fill="#6b7280">FinOps 看板</text>
  <rect x="1260" y="250" width="290" height="56" rx="6" ry="6" fill="#fef2f2" stroke="#fca5a5" stroke-width="1.2"/>
  <text x="1405.0" y="268" text-anchor="middle" font-size="12" font-weight="600" fill="#111827">飞书机器人回调</text>
  <text x="1405.0" y="283" text-anchor="middle" font-size="11" fill="#6b7280">FeishuCallbackView · 任务 Clone</text>
  <path d="M270,132.0 L338,138.0" stroke="#2563eb" stroke-width="1.3" fill="none" marker-end="url(#ar-blue)"/>
  <path d="M270,188.0 L338,138.0" stroke="#2563eb" stroke-width="1.3" fill="none" marker-end="url(#ar-blue)"/>
  <path d="M270,244.0 L338,138.0" stroke="#2563eb" stroke-width="1.3" fill="none" marker-end="url(#ar-blue)"/>
  <path d="M270,300.0 L338,138.0" stroke="#2563eb" stroke-width="1.3" fill="none" marker-end="url(#ar-blue)"/>
  <path d="M270,356.0 L338,206.0" stroke="#2563eb" stroke-width="1.3" fill="none" marker-end="url(#ar-blue)"/>
  <path d="M270,412.0 L338,274.0" stroke="#2563eb" stroke-width="1.3" fill="none" marker-end="url(#ar-blue)"/>
  <path d="M270,468.0 L338,342.0" stroke="#2563eb" stroke-width="1.3" fill="none" marker-end="url(#ar-blue)"/>
  <path d="M270,524.0 L338,410.0" stroke="#2563eb" stroke-width="1.3" fill="none" marker-end="url(#ar-blue)"/>
  <path d="M270,132.0 L338,410.0" stroke="#2563eb" stroke-width="1.3" fill="none" marker-end="url(#ar-blue)"/>
  <path d="M560,138.0 L628,138.0" stroke="#16a34a" stroke-width="1.3" fill="none" marker-end="url(#ar-green)"/>
  <path d="M560,138.0 L628,204.0" stroke="#16a34a" stroke-width="1.3" fill="none" marker-end="url(#ar-green)"/>
  <path d="M560,206.0 L628,270.0" stroke="#16a34a" stroke-width="1.3" fill="none" marker-end="url(#ar-green)"/>
  <path d="M560,274.0 L628,270.0" stroke="#16a34a" stroke-width="1.3" fill="none" marker-end="url(#ar-green)"/>
  <path d="M560,342.0 L628,336.0" stroke="#16a34a" stroke-width="1.3" fill="none" marker-end="url(#ar-green)"/>
  <path d="M560,410.0 L628,402.0" stroke="#16a34a" stroke-width="1.3" fill="none" marker-end="url(#ar-green)"/>
  <path d="M870,138.0 L938,138.0" stroke="#16a34a" stroke-width="1.1" fill="none" marker-end="url(#ar-green)" opacity="0.75"/>
  <path d="M870,138.0 L938,206.0" stroke="#16a34a" stroke-width="1.1" fill="none" marker-end="url(#ar-green)" opacity="0.75"/>
  <path d="M870,204.0 L938,138.0" stroke="#16a34a" stroke-width="1.1" fill="none" marker-end="url(#ar-green)" opacity="0.75"/>
  <path d="M870,204.0 L938,206.0" stroke="#16a34a" stroke-width="1.1" fill="none" marker-end="url(#ar-green)" opacity="0.75"/>
  <path d="M870,270.0 L938,342.0" stroke="#16a34a" stroke-width="1.1" fill="none" marker-end="url(#ar-green)" opacity="0.75"/>
  <path d="M870,336.0 L938,274.0" stroke="#16a34a" stroke-width="1.1" fill="none" marker-end="url(#ar-green)" opacity="0.75"/>
  <path d="M870,402.0 L938,410.0" stroke="#16a34a" stroke-width="1.1" fill="none" marker-end="url(#ar-green)" opacity="0.75"/>
  <path d="M870,468.0 L938,138.0" stroke="#16a34a" stroke-width="1.1" fill="none" marker-end="url(#ar-green)" opacity="0.75"/>
  <path d="M1180,138.0 L1258,208.0" stroke="#2563eb" stroke-width="1.1" fill="none" marker-end="url(#ar-blue)" opacity="0.7"/>
  <path d="M1180,206.0 L1258,208.0" stroke="#2563eb" stroke-width="1.1" fill="none" marker-end="url(#ar-blue)" opacity="0.7"/>
  <path d="M1180,274.0 L1258,208.0" stroke="#2563eb" stroke-width="1.1" fill="none" marker-end="url(#ar-blue)" opacity="0.7"/>
  <path d="M1180,342.0 L1258,208.0" stroke="#2563eb" stroke-width="1.1" fill="none" marker-end="url(#ar-blue)" opacity="0.7"/>
  <path d="M1180,410.0 L1258,208.0" stroke="#2563eb" stroke-width="1.1" fill="none" marker-end="url(#ar-blue)" opacity="0.7"/>
  <path d="M560,410.0 C910.0,410.0 910.0,138.0 1258,138.0" stroke="#ea580c" stroke-width="1.6" fill="none" marker-end="url(#ar-orange)"/>
  <path d="M560,342.0 C960.0,312.0 960.0,108.0 1258,135.0" stroke="#ea580c" stroke-width="1.4" fill="none" marker-end="url(#ar-orange)" opacity="0.85"/>
  <path d="M1257,283.0 C910.0,338.0 910.0,470.0 565,415.0" stroke="#9333ea" stroke-width="1.3" fill="none" marker-end="url(#ar-blue)" opacity="0.6" stroke-dasharray="4,3"/>
  <g transform="translate(40, 572)">
    <line x1="0" y1="6" x2="28" y2="6" stroke="#2563eb" stroke-width="1.5" marker-end="url(#ar-blue)"/>
    <text x="34" y="10" font-size="11" fill="#6b7280">数据采集 / 应用读写</text>
    <line x1="180" y1="6" x2="208" y2="6" stroke="#16a34a" stroke-width="1.5" marker-end="url(#ar-green)"/>
    <text x="214" y="10" font-size="11" fill="#6b7280">入库 / 查询</text>
    <line x1="320" y1="6" x2="348" y2="6" stroke="#ea580c" stroke-width="1.5" marker-end="url(#ar-orange)"/>
    <text x="354" y="10" font-size="11" fill="#6b7280">主动告警 / 报表推送</text>
  </g>
</svg>