<svg xmlns="http://www.w3.org/2000/svg" viewBox="0 0 1300 820" width="1300" height="820">
  <style>text { font-family: 'Helvetica Neue', Helvetica, Arial, 'PingFang SC', 'Microsoft YaHei', sans-serif; }</style>
  <defs>
    <marker id="ar" markerWidth="10" markerHeight="7" refX="9" refY="3.5" orient="auto"><polygon points="0 0, 10 3.5, 0 7" fill="#2563eb"/></marker>
    <marker id="ar-purple" markerWidth="10" markerHeight="7" refX="9" refY="3.5" orient="auto"><polygon points="0 0, 10 3.5, 0 7" fill="#9333ea"/></marker>
  </defs>
  <rect width="1300" height="820" fill="#ffffff"/>
  <text x="650" y="40" text-anchor="middle" font-size="20" font-weight="600" fill="#111827">finops 核心数据模型 · ER 图</text>
  <rect x="40" y="80" width="240" height="174" rx="6" ry="6" fill="#ffffff" stroke="#d1d5db" stroke-width="1.5"/>
  <rect x="40" y="80" width="240" height="32" rx="6" ry="6" fill="#2563eb"/>
  <rect x="40" y="106" width="240" height="6" fill="#2563eb"/>
  <text x="160.0" y="101" text-anchor="middle" font-size="14" font-weight="700" fill="#ffffff">EcsAsset</text>
  <text x="52" y="129" font-size="12" fill="#111827"><tspan font-weight="700" fill="#0891b2">IDX</tspan> instance_id</text>
  <text x="268" y="129" text-anchor="end" font-size="11" fill="#6b7280">varchar(64)</text>
  <rect x="41" y="136" width="238" height="20" fill="#fafafa"/>
  <text x="52" y="151" font-size="12" fill="#111827">owner</text>
  <text x="268" y="151" text-anchor="end" font-size="11" fill="#6b7280">varchar(32)</text>
  <text x="52" y="173" font-size="12" fill="#111827">ldap_group</text>
  <text x="268" y="173" text-anchor="end" font-size="11" fill="#6b7280">varchar(32)</text>
  <rect x="41" y="180" width="238" height="20" fill="#fafafa"/>
  <text x="52" y="195" font-size="12" fill="#111827">gpu_spec</text>
  <text x="268" y="195" text-anchor="end" font-size="11" fill="#6b7280">varchar(64)</text>
  <text x="52" y="217" font-size="12" fill="#111827">cloud_type</text>
  <text x="268" y="217" text-anchor="end" font-size="11" fill="#6b7280">tinyint</text>
  <rect x="41" y="224" width="238" height="20" fill="#fafafa"/>
  <text x="52" y="239" font-size="12" fill="#111827">app_type</text>
  <text x="268" y="239" text-anchor="end" font-size="11" fill="#6b7280">tinyint</text>
  <rect x="360" y="80" width="290" height="306" rx="6" ry="6" fill="#ffffff" stroke="#d1d5db" stroke-width="1.5"/>
  <rect x="360" y="80" width="290" height="32" rx="6" ry="6" fill="#16a34a"/>
  <rect x="360" y="106" width="290" height="6" fill="#16a34a"/>
  <text x="505.0" y="101" text-anchor="middle" font-size="14" font-weight="700" fill="#ffffff">InstanceBillDaily_yyyy  (按年分表)</text>
  <text x="372" y="129" font-size="12" fill="#111827"><tspan font-weight="700" fill="#0891b2">IDX</tspan> billing_cycle</text>
  <text x="638" y="129" text-anchor="end" font-size="11" fill="#6b7280">varchar(12)</text>
  <rect x="361" y="136" width="288" height="20" fill="#fafafa"/>
  <text x="372" y="151" font-size="12" fill="#111827"><tspan font-weight="700" fill="#0891b2">IDX</tspan> billing_date</text>
  <text x="638" y="151" text-anchor="end" font-size="11" fill="#6b7280">date</text>
  <text x="372" y="173" font-size="12" fill="#111827"><tspan font-weight="700" fill="#9333ea">FK</tspan> instance_id</text>
  <text x="638" y="173" text-anchor="end" font-size="11" fill="#6b7280">varchar(255)</text>
  <rect x="361" y="180" width="288" height="20" fill="#fafafa"/>
  <text x="372" y="195" font-size="12" fill="#111827"><tspan font-weight="700" fill="#0891b2">IDX</tspan> product_name</text>
  <text x="638" y="195" text-anchor="end" font-size="11" fill="#6b7280">varchar(48)</text>
  <text x="372" y="217" font-size="12" fill="#111827"><tspan font-weight="700" fill="#0891b2">IDX</tspan> product_category</text>
  <text x="638" y="217" text-anchor="end" font-size="11" fill="#6b7280">varchar(48)</text>
  <rect x="361" y="224" width="288" height="20" fill="#fafafa"/>
  <text x="372" y="239" font-size="12" fill="#111827">pretax_amount</text>
  <text x="638" y="239" text-anchor="end" font-size="11" fill="#6b7280">double</text>
  <text x="372" y="261" font-size="12" fill="#111827">after_discount_amount</text>
  <text x="638" y="261" text-anchor="end" font-size="11" fill="#6b7280">double</text>
  <rect x="361" y="268" width="288" height="20" fill="#fafafa"/>
  <text x="372" y="283" font-size="12" fill="#111827"><tspan font-weight="700" fill="#0891b2">IDX</tspan> owner</text>
  <text x="638" y="283" text-anchor="end" font-size="11" fill="#6b7280">varchar(32)</text>
  <text x="372" y="305" font-size="12" fill="#111827"><tspan font-weight="700" fill="#0891b2">IDX</tspan> department</text>
  <text x="638" y="305" text-anchor="end" font-size="11" fill="#6b7280">varchar(32)</text>
  <rect x="361" y="312" width="288" height="20" fill="#fafafa"/>
  <text x="372" y="327" font-size="12" fill="#111827"><tspan font-weight="700" fill="#0891b2">IDX</tspan> p_department</text>
  <text x="638" y="327" text-anchor="end" font-size="11" fill="#6b7280">varchar(32)</text>
  <text x="372" y="349" font-size="12" fill="#111827">cloud_type / app_type</text>
  <text x="638" y="349" text-anchor="end" font-size="11" fill="#6b7280">tinyint</text>
  <rect x="361" y="356" width="288" height="20" fill="#fafafa"/>
  <text x="372" y="371" font-size="12" fill="#111827">subscription_type</text>
  <text x="638" y="371" text-anchor="end" font-size="11" fill="#6b7280">varchar(18)</text>
  <rect x="730" y="80" width="250" height="218" rx="6" ry="6" fill="#ffffff" stroke="#d1d5db" stroke-width="1.5"/>
  <rect x="730" y="80" width="250" height="32" rx="6" ry="6" fill="#16a34a"/>
  <rect x="730" y="106" width="250" height="6" fill="#16a34a"/>
  <text x="855.0" y="101" text-anchor="middle" font-size="14" font-weight="700" fill="#ffffff">DepartmentBillDaily</text>
  <text x="742" y="129" font-size="12" fill="#111827"><tspan font-weight="700" fill="#0891b2">IDX</tspan> billing_cycle</text>
  <text x="968" y="129" text-anchor="end" font-size="11" fill="#6b7280">varchar(12)</text>
  <rect x="731" y="136" width="248" height="20" fill="#fafafa"/>
  <text x="742" y="151" font-size="12" fill="#111827"><tspan font-weight="700" fill="#0891b2">IDX</tspan> billing_date</text>
  <text x="968" y="151" text-anchor="end" font-size="11" fill="#6b7280">date</text>
  <text x="742" y="173" font-size="12" fill="#111827">product_name</text>
  <text x="968" y="173" text-anchor="end" font-size="11" fill="#6b7280">varchar(48)</text>
  <rect x="731" y="180" width="248" height="20" fill="#fafafa"/>
  <text x="742" y="195" font-size="12" fill="#111827">product_category</text>
  <text x="968" y="195" text-anchor="end" font-size="11" fill="#6b7280">varchar(48)</text>
  <text x="742" y="217" font-size="12" fill="#111827"><tspan font-weight="700" fill="#0891b2">IDX</tspan> department</text>
  <text x="968" y="217" text-anchor="end" font-size="11" fill="#6b7280">varchar(32)</text>
  <rect x="731" y="224" width="248" height="20" fill="#fafafa"/>
  <text x="742" y="239" font-size="12" fill="#111827"><tspan font-weight="700" fill="#0891b2">IDX</tspan> p_department</text>
  <text x="968" y="239" text-anchor="end" font-size="11" fill="#6b7280">varchar(32)</text>
  <text x="742" y="261" font-size="12" fill="#111827">after_discount_amount</text>
  <text x="968" y="261" text-anchor="end" font-size="11" fill="#6b7280">double</text>
  <rect x="731" y="268" width="248" height="20" fill="#fafafa"/>
  <text x="742" y="283" font-size="12" fill="#111827">cloud_type / app_type</text>
  <text x="968" y="283" text-anchor="end" font-size="11" fill="#6b7280">tinyint</text>
  <rect x="1030" y="80" width="240" height="130" rx="6" ry="6" fill="#ffffff" stroke="#d1d5db" stroke-width="1.5"/>
  <rect x="1030" y="80" width="240" height="32" rx="6" ry="6" fill="#ea580c"/>
  <rect x="1030" y="106" width="240" height="6" fill="#ea580c"/>
  <text x="1150.0" y="101" text-anchor="middle" font-size="14" font-weight="700" fill="#ffffff">Budget</text>
  <text x="1042" y="129" font-size="12" fill="#111827"><tspan font-weight="700" fill="#0891b2">IDX</tspan> billing_cycle</text>
  <text x="1258" y="129" text-anchor="end" font-size="11" fill="#6b7280">varchar(12)</text>
  <rect x="1031" y="136" width="238" height="20" fill="#fafafa"/>
  <text x="1042" y="151" font-size="12" fill="#111827"><tspan font-weight="700" fill="#9333ea">FK</tspan> p_department</text>
  <text x="1258" y="151" text-anchor="end" font-size="11" fill="#6b7280">varchar(255)</text>
  <text x="1042" y="173" font-size="12" fill="#111827"><tspan font-weight="700" fill="#0891b2">IDX</tspan> budget_amount</text>
  <text x="1258" y="173" text-anchor="end" font-size="11" fill="#6b7280">double</text>
  <rect x="1031" y="180" width="238" height="20" fill="#fafafa"/>
  <text x="1042" y="195" font-size="12" fill="#111827">type</text>
  <text x="1258" y="195" text-anchor="end" font-size="11" fill="#6b7280">0=基础 / 1=追加</text>
  <rect x="40" y="500" width="240" height="174" rx="6" ry="6" fill="#ffffff" stroke="#d1d5db" stroke-width="1.5"/>
  <rect x="40" y="500" width="240" height="32" rx="6" ry="6" fill="#7c3aed"/>
  <rect x="40" y="526" width="240" height="6" fill="#7c3aed"/>
  <text x="160.0" y="521" text-anchor="middle" font-size="14" font-weight="700" fill="#ffffff">PlatFormGpuCard</text>
  <text x="52" y="549" font-size="12" fill="#111827">date</text>
  <text x="268" y="549" text-anchor="end" font-size="11" fill="#6b7280">date</text>
  <rect x="41" y="556" width="238" height="20" fill="#fafafa"/>
  <text x="52" y="571" font-size="12" fill="#111827">spec</text>
  <text x="268" y="571" text-anchor="end" font-size="11" fill="#6b7280">H800/A800/L20…</text>
  <text x="52" y="593" font-size="12" fill="#111827">card_count</text>
  <text x="268" y="593" text-anchor="end" font-size="11" fill="#6b7280">float</text>
  <rect x="41" y="600" width="238" height="20" fill="#fafafa"/>
  <text x="52" y="615" font-size="12" fill="#111827">per_card_cost</text>
  <text x="268" y="615" text-anchor="end" font-size="11" fill="#6b7280">元/月</text>
  <text x="52" y="637" font-size="12" fill="#111827">total_fp16</text>
  <text x="268" y="637" text-anchor="end" font-size="11" fill="#6b7280">TFLOPS</text>
  <rect x="41" y="644" width="238" height="20" fill="#fafafa"/>
  <text x="52" y="659" font-size="12" fill="#111827">unit_cost_power</text>
  <text x="268" y="659" text-anchor="end" font-size="11" fill="#6b7280">元/算力</text>
  <rect x="470" y="500" width="280" height="262" rx="6" ry="6" fill="#ffffff" stroke="#d1d5db" stroke-width="1.5"/>
  <rect x="470" y="500" width="280" height="32" rx="6" ry="6" fill="#9333ea"/>
  <rect x="470" y="526" width="280" height="6" fill="#9333ea"/>
  <text x="610.0" y="521" text-anchor="middle" font-size="14" font-weight="700" fill="#ffffff">spot.Job</text>
  <text x="482" y="549" font-size="12" fill="#111827"><tspan font-weight="700" fill="#dc2626">PK</tspan> job_id</text>
  <text x="738" y="549" text-anchor="end" font-size="11" fill="#6b7280">varchar(32)</text>
  <rect x="471" y="556" width="278" height="20" fill="#fafafa"/>
  <text x="482" y="571" font-size="12" fill="#111827"><tspan font-weight="700" fill="#9333ea">FK</tspan> parent_job_id</text>
  <text x="738" y="571" text-anchor="end" font-size="11" fill="#6b7280">varchar(32)  (自关联)</text>
  <text x="482" y="593" font-size="12" fill="#111827">is_spot</text>
  <text x="738" y="593" text-anchor="end" font-size="11" fill="#6b7280">bool</text>
  <rect x="471" y="600" width="278" height="20" fill="#fafafa"/>
  <text x="482" y="615" font-size="12" fill="#111827">ecs_spec</text>
  <text x="738" y="615" text-anchor="end" font-size="11" fill="#6b7280">varchar(64)</text>
  <text x="482" y="637" font-size="12" fill="#111827">pod_count</text>
  <text x="738" y="637" text-anchor="end" font-size="11" fill="#6b7280">varchar(8)</text>
  <rect x="471" y="644" width="278" height="20" fill="#fafafa"/>
  <text x="482" y="659" font-size="12" fill="#111827">avg_gpu</text>
  <text x="738" y="659" text-anchor="end" font-size="11" fill="#6b7280">varchar(8)</text>
  <text x="482" y="681" font-size="12" fill="#111827">pods_run_time</text>
  <text x="738" y="681" text-anchor="end" font-size="11" fill="#6b7280">float (节点·小时)</text>
  <rect x="471" y="688" width="278" height="20" fill="#fafafa"/>
  <text x="482" y="703" font-size="12" fill="#111827">discount</text>
  <text x="738" y="703" text-anchor="end" font-size="11" fill="#6b7280">float</text>
  <text x="482" y="725" font-size="12" fill="#111827">preempted_alarm_count</text>
  <text x="738" y="725" text-anchor="end" font-size="11" fill="#6b7280">int</text>
  <rect x="471" y="732" width="278" height="20" fill="#fafafa"/>
  <text x="482" y="747" font-size="12" fill="#111827">is_preempted</text>
  <text x="738" y="747" text-anchor="end" font-size="11" fill="#6b7280">bool</text>
  <line x1="280" y1="167.0" x2="360" y2="171" stroke="#2563eb" stroke-width="1.5"/>
  <line x1="304" y1="160.0" x2="304" y2="174.0" stroke="#2563eb" stroke-width="1.6"/>
  <path d="M346,171 L360,164 M346,171 L360,171 M346,171 L360,178" stroke="#2563eb" stroke-width="1.6" fill="none"/>
  <rect x="251.0" y="146.0" width="138" height="16" rx="3" fill="#ffffff" stroke="#e5e7eb" stroke-width="0.6"/>
  <text x="320.0" y="158.0" text-anchor="middle" font-size="11" fill="#111827">instance_id  1 — N</text>
  <line x1="650" y1="263.0" x2="730" y2="219.0" stroke="#2563eb" stroke-width="1.5"/>
  <path d="M676,263.0 L662,256.0 M676,263.0 L662,263.0 M676,263.0 L662,270.0" stroke="#2563eb" stroke-width="1.6" fill="none"/>
  <line x1="718" y1="212.0" x2="718" y2="226.0" stroke="#2563eb" stroke-width="1.6"/>
  <rect x="652.5" y="218.0" width="75" height="16" rx="3" fill="#ffffff" stroke="#e5e7eb" stroke-width="0.6"/>
  <text x="690.0" y="230.0" text-anchor="middle" font-size="11" fill="#111827">聚合  N — 1</text>
  <path d="M1060,80 L1060,60 L950,60 L950,80" stroke="#2563eb" stroke-width="1.5" fill="none"/>
  <line x1="1053" y1="68" x2="1067" y2="68" stroke="#2563eb" stroke-width="1.6"/>
  <path d="M943,66 L950,80 M950,66 L950,80 M957,66 L950,80" stroke="#2563eb" stroke-width="1.6" fill="none"/>
  <rect x="876.5" y="41" width="257" height="16" rx="3" fill="#ffffff" stroke="#e5e7eb" stroke-width="0.6"/>
  <text x="1005.0" y="53" text-anchor="middle" font-size="11" fill="#111827">p_department + billing_cycle  1 — N</text>
  <path d="M750,591.0 C840,561.0 840,701.0 750,671.0" stroke="#9333ea" stroke-width="1.6" fill="none" marker-end="url(#ar-purple)"/>
  <line x1="762" y1="584.0" x2="762" y2="598.0" stroke="#9333ea" stroke-width="1.6"/>
  <rect x="752.0" y="612.0" width="152" height="16" rx="3" fill="#ffffff" stroke="#e5e7eb" stroke-width="0.6"/>
  <text x="828" y="624.0" text-anchor="middle" font-size="11" fill="#9333ea">parent_job_id  1 — N</text>
  <rect x="797.5" y="632.0" width="61" height="16" rx="3" fill="#ffffff" stroke="#e5e7eb" stroke-width="0.6"/>
  <text x="828" y="644.0" text-anchor="middle" font-size="11" fill="#9333ea">（抢占重建链）</text>
  <text x="160.0" y="698" text-anchor="middle" font-size="11" fill="#6b7280" font-style="italic">独立表 · 容量基准（GPU 卡型号 / 单价 / 算力 / 性价比）</text>
  <g transform="translate(40, 784)">
    <text x="0" y="4" font-size="12" font-weight="600" fill="#111827">关系符号：</text>
    <line x1="80" y1="0" x2="100" y2="0" stroke="#2563eb" stroke-width="1.6"/>
    <line x1="100" y1="-5" x2="100" y2="5" stroke="#2563eb" stroke-width="1.6"/>
    <text x="108" y="4" font-size="12" fill="#374151">1（恰好一条）</text>
    <line x1="220" y1="0" x2="240" y2="0" stroke="#2563eb" stroke-width="1.6"/>
    <path d="M226,0 L240,-5 M226,0 L240,0 M226,0 L240,5" stroke="#2563eb" stroke-width="1.6" fill="none"/>
    <text x="248" y="4" font-size="12" fill="#374151">N（多条）</text>
    <text x="340" y="4" font-size="12" font-weight="600" fill="#dc2626">PK</text><text x="365" y="4" font-size="12" fill="#374151">主键</text>
    <text x="410" y="4" font-size="12" font-weight="600" fill="#9333ea">FK</text><text x="435" y="4" font-size="12" fill="#374151">外键 / 自关联</text>
    <text x="540" y="4" font-size="12" font-weight="600" fill="#0891b2">IDX</text><text x="572" y="4" font-size="12" fill="#374151">索引（高频查询字段）</text>
  </g>
</svg>