<svg xmlns="http://www.w3.org/2000/svg" viewBox="0 0 1328 1828" font-family="-apple-system, PingFang SC, Microsoft YaHei, Helvetica, Arial, sans-serif">
  <rect x="0" y="0" width="1328" height="1828" fill="#ffffff"/>
  <path d="M 357.2,901.0 C 394.7,901.0 394.7,119.0 432.2,119.0" fill="none" stroke="#7c3aed" stroke-width="2.4" stroke-linecap="round"/>
  <path d="M 521.6,119.0 C 567.7,119.0 567.7,50.0 613.9,50.0" fill="none" stroke="#7c3aed" stroke-width="2.4" stroke-linecap="round"/>
  <path d="M 521.6,119.0 C 567.7,119.0 567.7,96.0 613.9,96.0" fill="none" stroke="#7c3aed" stroke-width="2.4" stroke-linecap="round"/>
  <path d="M 521.6,119.0 C 567.7,119.0 567.7,142.0 613.9,142.0" fill="none" stroke="#7c3aed" stroke-width="2.4" stroke-linecap="round"/>
  <path d="M 720.6,142.0 C 883.6,142.0 883.6,142.0 1046.5,142.0" fill="none" stroke="#7c3aed" stroke-width="2.4" stroke-linecap="round"/>
  <path d="M 521.6,119.0 C 567.7,119.0 567.7,188.0 613.9,188.0" fill="none" stroke="#7c3aed" stroke-width="2.4" stroke-linecap="round"/>
  <path d="M 357.2,901.0 C 394.7,901.0 394.7,372.0 432.2,372.0" fill="none" stroke="#2563eb" stroke-width="2.4" stroke-linecap="round"/>
  <path d="M 521.6,372.0 C 567.7,372.0 567.7,234.0 613.9,234.0" fill="none" stroke="#2563eb" stroke-width="2.4" stroke-linecap="round"/>
  <path d="M 521.6,372.0 C 567.7,372.0 567.7,280.0 613.9,280.0" fill="none" stroke="#2563eb" stroke-width="2.4" stroke-linecap="round"/>
  <path d="M 521.6,372.0 C 567.7,372.0 567.7,372.0 613.9,372.0" fill="none" stroke="#2563eb" stroke-width="2.4" stroke-linecap="round"/>
  <path d="M 668.6,372.0 C 857.5,372.0 857.5,326.0 1046.5,326.0" fill="none" stroke="#2563eb" stroke-width="2.4" stroke-linecap="round"/>
  <path d="M 668.6,372.0 C 857.5,372.0 857.5,372.0 1046.5,372.0" fill="none" stroke="#2563eb" stroke-width="2.4" stroke-linecap="round"/>
  <path d="M 668.6,372.0 C 857.5,372.0 857.5,418.0 1046.5,418.0" fill="none" stroke="#2563eb" stroke-width="2.4" stroke-linecap="round"/>
  <path d="M 521.6,372.0 C 567.7,372.0 567.7,464.0 613.9,464.0" fill="none" stroke="#2563eb" stroke-width="2.4" stroke-linecap="round"/>
  <path d="M 521.6,372.0 C 567.7,372.0 567.7,510.0 613.9,510.0" fill="none" stroke="#2563eb" stroke-width="2.4" stroke-linecap="round"/>
  <path d="M 357.2,901.0 C 394.7,901.0 394.7,625.0 432.2,625.0" fill="none" stroke="#0891b2" stroke-width="2.4" stroke-linecap="round"/>
  <path d="M 538.9,625.0 C 576.4,625.0 576.4,556.0 613.9,556.0" fill="none" stroke="#0891b2" stroke-width="2.4" stroke-linecap="round"/>
  <path d="M 538.9,625.0 C 576.4,625.0 576.4,602.0 613.9,602.0" fill="none" stroke="#0891b2" stroke-width="2.4" stroke-linecap="round"/>
  <path d="M 538.9,625.0 C 576.4,625.0 576.4,648.0 613.9,648.0" fill="none" stroke="#0891b2" stroke-width="2.4" stroke-linecap="round"/>
  <path d="M 538.9,625.0 C 576.4,625.0 576.4,694.0 613.9,694.0" fill="none" stroke="#0891b2" stroke-width="2.4" stroke-linecap="round"/>
  <path d="M 357.2,901.0 C 394.7,901.0 394.7,832.0 432.2,832.0" fill="none" stroke="#dc2626" stroke-width="2.4" stroke-linecap="round"/>
  <path d="M 521.6,832.0 C 567.7,832.0 567.7,740.0 613.9,740.0" fill="none" stroke="#dc2626" stroke-width="2.4" stroke-linecap="round"/>
  <path d="M 521.6,832.0 C 567.7,832.0 567.7,786.0 613.9,786.0" fill="none" stroke="#dc2626" stroke-width="2.4" stroke-linecap="round"/>
  <path d="M 521.6,832.0 C 567.7,832.0 567.7,832.0 613.9,832.0" fill="none" stroke="#dc2626" stroke-width="2.4" stroke-linecap="round"/>
  <path d="M 521.6,832.0 C 567.7,832.0 567.7,878.0 613.9,878.0" fill="none" stroke="#dc2626" stroke-width="2.4" stroke-linecap="round"/>
  <path d="M 521.6,832.0 C 567.7,832.0 567.7,924.0 613.9,924.0" fill="none" stroke="#dc2626" stroke-width="2.4" stroke-linecap="round"/>
  <path d="M 357.2,901.0 C 394.7,901.0 394.7,1108.0 432.2,1108.0" fill="none" stroke="#ea580c" stroke-width="2.4" stroke-linecap="round"/>
  <path d="M 521.6,1108.0 C 567.7,1108.0 567.7,1016.0 613.9,1016.0" fill="none" stroke="#ea580c" stroke-width="2.4" stroke-linecap="round"/>
  <path d="M 720.6,1016.0 C 883.6,1016.0 883.6,970.0 1046.5,970.0" fill="none" stroke="#ea580c" stroke-width="2.4" stroke-linecap="round"/>
  <path d="M 720.6,1016.0 C 883.6,1016.0 883.6,1016.0 1046.5,1016.0" fill="none" stroke="#ea580c" stroke-width="2.4" stroke-linecap="round"/>
  <path d="M 720.6,1016.0 C 883.6,1016.0 883.6,1062.0 1046.5,1062.0" fill="none" stroke="#ea580c" stroke-width="2.4" stroke-linecap="round"/>
  <path d="M 521.6,1108.0 C 567.7,1108.0 567.7,1108.0 613.9,1108.0" fill="none" stroke="#ea580c" stroke-width="2.4" stroke-linecap="round"/>
  <path d="M 521.6,1108.0 C 567.7,1108.0 567.7,1154.0 613.9,1154.0" fill="none" stroke="#ea580c" stroke-width="2.4" stroke-linecap="round"/>
  <path d="M 521.6,1108.0 C 567.7,1108.0 567.7,1200.0 613.9,1200.0" fill="none" stroke="#ea580c" stroke-width="2.4" stroke-linecap="round"/>
  <path d="M 357.2,901.0 C 394.7,901.0 394.7,1315.0 432.2,1315.0" fill="none" stroke="#059669" stroke-width="2.4" stroke-linecap="round"/>
  <path d="M 521.6,1315.0 C 567.7,1315.0 567.7,1246.0 613.9,1246.0" fill="none" stroke="#059669" stroke-width="2.4" stroke-linecap="round"/>
  <path d="M 521.6,1315.0 C 567.7,1315.0 567.7,1292.0 613.9,1292.0" fill="none" stroke="#059669" stroke-width="2.4" stroke-linecap="round"/>
  <path d="M 521.6,1315.0 C 567.7,1315.0 567.7,1338.0 613.9,1338.0" fill="none" stroke="#059669" stroke-width="2.4" stroke-linecap="round"/>
  <path d="M 521.6,1315.0 C 567.7,1315.0 567.7,1384.0 613.9,1384.0" fill="none" stroke="#059669" stroke-width="2.4" stroke-linecap="round"/>
  <path d="M 357.2,901.0 C 394.7,901.0 394.7,1499.0 432.2,1499.0" fill="none" stroke="#d97706" stroke-width="2.4" stroke-linecap="round"/>
  <path d="M 521.6,1499.0 C 567.7,1499.0 567.7,1430.0 613.9,1430.0" fill="none" stroke="#d97706" stroke-width="2.4" stroke-linecap="round"/>
  <path d="M 521.6,1499.0 C 567.7,1499.0 567.7,1476.0 613.9,1476.0" fill="none" stroke="#d97706" stroke-width="2.4" stroke-linecap="round"/>
  <path d="M 521.6,1499.0 C 567.7,1499.0 567.7,1522.0 613.9,1522.0" fill="none" stroke="#d97706" stroke-width="2.4" stroke-linecap="round"/>
  <path d="M 521.6,1499.0 C 567.7,1499.0 567.7,1568.0 613.9,1568.0" fill="none" stroke="#d97706" stroke-width="2.4" stroke-linecap="round"/>
  <path d="M 357.2,901.0 C 394.7,901.0 394.7,1683.0 432.2,1683.0" fill="none" stroke="#4f46e5" stroke-width="2.4" stroke-linecap="round"/>
  <path d="M 538.9,1683.0 C 576.4,1683.0 576.4,1614.0 613.9,1614.0" fill="none" stroke="#4f46e5" stroke-width="2.4" stroke-linecap="round"/>
  <path d="M 538.9,1683.0 C 576.4,1683.0 576.4,1660.0 613.9,1660.0" fill="none" stroke="#4f46e5" stroke-width="2.4" stroke-linecap="round"/>
  <path d="M 538.9,1683.0 C 576.4,1683.0 576.4,1706.0 613.9,1706.0" fill="none" stroke="#4f46e5" stroke-width="2.4" stroke-linecap="round"/>
  <path d="M 538.9,1683.0 C 576.4,1683.0 576.4,1752.0 613.9,1752.0" fill="none" stroke="#4f46e5" stroke-width="2.4" stroke-linecap="round"/>
  <rect x="40" y="876.0" width="317.2" height="50" rx="11" fill="#1e293b"/>
  <text x="198.6" y="908.0" text-anchor="middle" fill="#ffffff" font-size="20" font-weight="700">PaaS 平台稳定性 · 通用体系</text>
  <line x1="432.2" y1="119.0" x2="521.6" y2="119.0" stroke="#7c3aed" stroke-width="2.4" stroke-linecap="round"/>
  <text x="442.2" y="111.0" fill="#7c3aed" font-size="17" font-weight="700">目标体系</text>
  <line x1="613.9" y1="50.0" x2="820.9" y2="50.0" stroke="#7c3aed" stroke-width="2.4" stroke-linecap="round"/>
  <text x="623.9" y="42.0" fill="#1f2937" font-size="17" font-weight="400">SLI / SLO / SLA 分层</text>
  <line x1="613.9" y1="96.0" x2="772.6" y2="96.0" stroke="#7c3aed" stroke-width="2.4" stroke-linecap="round"/>
  <text x="623.9" y="88.0" fill="#1f2937" font-size="17" font-weight="400">错误预算驱动决策</text>
  <line x1="613.9" y1="142.0" x2="720.6" y2="142.0" stroke="#7c3aed" stroke-width="2.4" stroke-linecap="round"/>
  <text x="623.9" y="134.0" fill="#1f2937" font-size="17" font-weight="400">稳定性分级</text>
  <line x1="1046.5" y1="142.0" x2="1262.4" y2="142.0" stroke="#7c3aed" stroke-width="2.4" stroke-linecap="round"/>
  <text x="1056.5" y="134.0" fill="#1f2937" font-size="17" font-weight="400">核心 / 普通 / 旁路链路</text>
  <line x1="613.9" y1="188.0" x2="916.4" y2="188.0" stroke="#7c3aed" stroke-width="2.4" stroke-linecap="round"/>
  <text x="623.9" y="180.0" fill="#1f2937" font-size="17" font-weight="400">可用性定义 · 平台可用 ≠ 任务成功</text>
  <line x1="432.2" y1="372.0" x2="521.6" y2="372.0" stroke="#2563eb" stroke-width="2.4" stroke-linecap="round"/>
  <text x="442.2" y="364.0" fill="#2563eb" font-size="17" font-weight="700">架构设计</text>
  <line x1="613.9" y1="234.0" x2="929.4" y2="234.0" stroke="#2563eb" stroke-width="2.4" stroke-linecap="round"/>
  <text x="623.9" y="226.0" fill="#1f2937" font-size="17" font-weight="400">消除单点 · 多副本 / 多AZ / 跨集群</text>
  <line x1="613.9" y1="280.0" x2="801.2" y2="280.0" stroke="#2563eb" stroke-width="2.4" stroke-linecap="round"/>
  <text x="623.9" y="272.0" fill="#1f2937" font-size="17" font-weight="400">无状态化 · 状态外置</text>
  <line x1="613.9" y1="372.0" x2="668.6" y2="372.0" stroke="#2563eb" stroke-width="2.4" stroke-linecap="round"/>
  <text x="623.9" y="364.0" fill="#1f2937" font-size="17" font-weight="400">隔离</text>
  <line x1="1046.5" y1="326.0" x2="1265.8" y2="326.0" stroke="#2563eb" stroke-width="2.4" stroke-linecap="round"/>
  <text x="1056.5" y="318.0" fill="#1f2937" font-size="17" font-weight="400">故障隔离 · cell / 分区</text>
  <line x1="1046.5" y1="372.0" x2="1278.7" y2="372.0" stroke="#2563eb" stroke-width="2.4" stroke-linecap="round"/>
  <text x="1056.5" y="364.0" fill="#1f2937" font-size="17" font-weight="400">资源隔离 · cgroup / QoS</text>
  <line x1="1046.5" y1="418.0" x2="1170.6" y2="418.0" stroke="#2563eb" stroke-width="2.4" stroke-linecap="round"/>
  <text x="1056.5" y="410.0" fill="#1f2937" font-size="17" font-weight="400">爆炸半径控制</text>
  <line x1="613.9" y1="464.0" x2="835.9" y2="464.0" stroke="#2563eb" stroke-width="2.4" stroke-linecap="round"/>
  <text x="623.9" y="456.0" fill="#1f2937" font-size="17" font-weight="400">依赖治理 · 强弱依赖分级</text>
  <line x1="613.9" y1="510.0" x2="898.1" y2="510.0" stroke="#2563eb" stroke-width="2.4" stroke-linecap="round"/>
  <text x="623.9" y="502.0" fill="#1f2937" font-size="17" font-weight="400">数据高可用 · 备份 / RPO / RTO</text>
  <line x1="432.2" y1="625.0" x2="538.9" y2="625.0" stroke="#0891b2" stroke-width="2.4" stroke-linecap="round"/>
  <text x="442.2" y="617.0" fill="#0891b2" font-size="17" font-weight="700">容量与性能</text>
  <line x1="613.9" y1="556.0" x2="852.2" y2="556.0" stroke="#0891b2" stroke-width="2.4" stroke-linecap="round"/>
  <text x="623.9" y="548.0" fill="#1f2937" font-size="17" font-weight="400">容量规划 · 预测 + buffer</text>
  <line x1="613.9" y1="602.0" x2="772.6" y2="602.0" stroke="#0891b2" stroke-width="2.4" stroke-linecap="round"/>
  <text x="623.9" y="594.0" fill="#1f2937" font-size="17" font-weight="400">常态化全链路压测</text>
  <line x1="613.9" y1="648.0" x2="864.4" y2="648.0" stroke="#0891b2" stroke-width="2.4" stroke-linecap="round"/>
  <text x="623.9" y="640.0" fill="#1f2937" font-size="17" font-weight="400">资源水位 · 告警 + 自动扩缩</text>
  <line x1="613.9" y1="694.0" x2="801.2" y2="694.0" stroke="#0891b2" stroke-width="2.4" stroke-linecap="round"/>
  <text x="623.9" y="686.0" fill="#1f2937" font-size="17" font-weight="400">性能基线 · 识别退化</text>
  <line x1="432.2" y1="832.0" x2="521.6" y2="832.0" stroke="#dc2626" stroke-width="2.4" stroke-linecap="round"/>
  <text x="442.2" y="824.0" fill="#dc2626" font-size="17" font-weight="700">风险防控</text>
  <line x1="613.9" y1="740.0" x2="858.3" y2="740.0" stroke="#dc2626" stroke-width="2.4" stroke-linecap="round"/>
  <text x="623.9" y="732.0" fill="#1f2937" font-size="17" font-weight="400">限流 · 入口 / 配额 / 频控</text>
  <line x1="613.9" y1="786.0" x2="835.9" y2="786.0" stroke="#dc2626" stroke-width="2.4" stroke-linecap="round"/>
  <text x="623.9" y="778.0" fill="#1f2937" font-size="17" font-weight="400">熔断 · 依赖异常快速失败</text>
  <line x1="613.9" y1="832.0" x2="837.6" y2="832.0" stroke="#dc2626" stroke-width="2.4" stroke-linecap="round"/>
  <text x="623.9" y="824.0" fill="#1f2937" font-size="17" font-weight="400">降级 · 核心保, 非核心弃</text>
  <line x1="613.9" y1="878.0" x2="910.3" y2="878.0" stroke="#dc2626" stroke-width="2.4" stroke-linecap="round"/>
  <text x="623.9" y="870.0" fill="#1f2937" font-size="17" font-weight="400">过载保护 · 队列 + 背压 + 优先级</text>
  <line x1="613.9" y1="924.0" x2="893.0" y2="924.0" stroke="#dc2626" stroke-width="2.4" stroke-linecap="round"/>
  <text x="623.9" y="916.0" fill="#1f2937" font-size="17" font-weight="400">重试治理 · 退避 + 抖动 + 幂等</text>
  <line x1="432.2" y1="1108.0" x2="521.6" y2="1108.0" stroke="#ea580c" stroke-width="2.4" stroke-linecap="round"/>
  <text x="442.2" y="1100.0" fill="#ea580c" font-size="17" font-weight="700">变更管理</text>
  <line x1="613.9" y1="1016.0" x2="720.6" y2="1016.0" stroke="#ea580c" stroke-width="2.4" stroke-linecap="round"/>
  <text x="623.9" y="1008.0" fill="#1f2937" font-size="17" font-weight="400">变更三板斧</text>
  <line x1="1046.5" y1="970.0" x2="1118.5" y2="970.0" stroke="#ea580c" stroke-width="2.4" stroke-linecap="round"/>
  <text x="1056.5" y="962.0" fill="#1f2937" font-size="17" font-weight="400">可灰度</text>
  <line x1="1046.5" y1="1016.0" x2="1118.5" y2="1016.0" stroke="#ea580c" stroke-width="2.4" stroke-linecap="round"/>
  <text x="1056.5" y="1008.0" fill="#1f2937" font-size="17" font-weight="400">可观测</text>
  <line x1="1046.5" y1="1062.0" x2="1118.5" y2="1062.0" stroke="#ea580c" stroke-width="2.4" stroke-linecap="round"/>
  <text x="1056.5" y="1054.0" fill="#1f2937" font-size="17" font-weight="400">可回滚</text>
  <line x1="613.9" y1="1108.0" x2="847.1" y2="1108.0" stroke="#ea580c" stroke-width="2.4" stroke-linecap="round"/>
  <text x="623.9" y="1100.0" fill="#1f2937" font-size="17" font-weight="400">灰度发布 · 金丝雀 / 分批</text>
  <line x1="613.9" y1="1154.0" x2="924.9" y2="1154.0" stroke="#ea580c" stroke-width="2.4" stroke-linecap="round"/>
  <text x="623.9" y="1146.0" fill="#1f2937" font-size="17" font-weight="400">发布策略 · 滚动 / 蓝绿 / Rollout</text>
  <line x1="613.9" y1="1200.0" x2="893.0" y2="1200.0" stroke="#ea580c" stroke-width="2.4" stroke-linecap="round"/>
  <text x="623.9" y="1192.0" fill="#1f2937" font-size="17" font-weight="400">变更管控 · 审批 / 窗口 / 封网</text>
  <line x1="432.2" y1="1315.0" x2="521.6" y2="1315.0" stroke="#059669" stroke-width="2.4" stroke-linecap="round"/>
  <text x="442.2" y="1307.0" fill="#059669" font-size="17" font-weight="700">可观测性</text>
  <line x1="613.9" y1="1246.0" x2="971.5" y2="1246.0" stroke="#059669" stroke-width="2.4" stroke-linecap="round"/>
  <text x="623.9" y="1238.0" fill="#1f2937" font-size="17" font-weight="400">三支柱 · Metrics / Logging / Tracing</text>
  <line x1="613.9" y1="1292.0" x2="899.1" y2="1292.0" stroke="#059669" stroke-width="2.4" stroke-linecap="round"/>
  <text x="623.9" y="1284.0" fill="#1f2937" font-size="17" font-weight="400">全栈覆盖 · 设施→平台→任务→业务</text>
  <line x1="613.9" y1="1338.0" x2="893.0" y2="1338.0" stroke="#059669" stroke-width="2.4" stroke-linecap="round"/>
  <text x="623.9" y="1330.0" fill="#1f2937" font-size="17" font-weight="400">告警体系 · 分级 / 收敛 / 路由</text>
  <line x1="613.9" y1="1384.0" x2="899.1" y2="1384.0" stroke="#059669" stroke-width="2.4" stroke-linecap="round"/>
  <text x="623.9" y="1376.0" fill="#1f2937" font-size="17" font-weight="400">黄金指标 · 流量/错误/延迟/饱和</text>
  <line x1="432.2" y1="1499.0" x2="521.6" y2="1499.0" stroke="#d97706" stroke-width="2.4" stroke-linecap="round"/>
  <text x="442.2" y="1491.0" fill="#d97706" font-size="17" font-weight="700">应急响应</text>
  <line x1="613.9" y1="1430.0" x2="818.5" y2="1430.0" stroke="#d97706" stroke-width="2.4" stroke-linecap="round"/>
  <text x="623.9" y="1422.0" fill="#1f2937" font-size="17" font-weight="400">预案库 · 常见故障预案</text>
  <line x1="613.9" y1="1476.0" x2="854.9" y2="1476.0" stroke="#d97706" stroke-width="2.4" stroke-linecap="round"/>
  <text x="623.9" y="1468.0" fill="#1f2937" font-size="17" font-weight="400">应急流程 · 发现→止血→恢复</text>
  <line x1="613.9" y1="1522.0" x2="864.4" y2="1522.0" stroke="#d97706" stroke-width="2.4" stroke-linecap="round"/>
  <text x="623.9" y="1514.0" fill="#1f2937" font-size="17" font-weight="400">故障演练 · 混沌 / 红蓝对抗</text>
  <line x1="613.9" y1="1568.0" x2="884.1" y2="1568.0" stroke="#d97706" stroke-width="2.4" stroke-linecap="round"/>
  <text x="623.9" y="1560.0" fill="#1f2937" font-size="17" font-weight="400">复盘 · Blameless / RCA 闭环</text>
  <line x1="432.2" y1="1683.0" x2="538.9" y2="1683.0" stroke="#4f46e5" stroke-width="2.4" stroke-linecap="round"/>
  <text x="442.2" y="1675.0" fill="#4f46e5" font-size="17" font-weight="700">组织与流程</text>
  <line x1="613.9" y1="1614.0" x2="818.5" y2="1614.0" stroke="#4f46e5" stroke-width="2.4" stroke-linecap="round"/>
  <text x="623.9" y="1606.0" fill="#1f2937" font-size="17" font-weight="400">稳定性文化 · 人人有责</text>
  <line x1="613.9" y1="1660.0" x2="884.1" y2="1660.0" stroke="#4f46e5" stroke-width="2.4" stroke-linecap="round"/>
  <text x="623.9" y="1652.0" fill="#1f2937" font-size="17" font-weight="400">On-call · 轮值 / 升级 / SOP</text>
  <line x1="613.9" y1="1706.0" x2="899.1" y2="1706.0" stroke="#4f46e5" stroke-width="2.4" stroke-linecap="round"/>
  <text x="623.9" y="1698.0" fill="#1f2937" font-size="17" font-weight="400">红线规范 · 高危管控 / 最小权限</text>
  <line x1="613.9" y1="1752.0" x2="917.1" y2="1752.0" stroke="#4f46e5" stroke-width="2.4" stroke-linecap="round"/>
  <text x="623.9" y="1744.0" fill="#1f2937" font-size="17" font-weight="400">度量 · MTTR / MTBF / 变更成功率</text>
</svg>