<svg xmlns="http://www.w3.org/2000/svg" viewBox="0 0 1241 954" font-family="-apple-system, PingFang SC, Microsoft YaHei, Helvetica, Arial, sans-serif">
  <rect x="0" y="0" width="1241" height="954" fill="#ffffff"/>
  <path d="M 342.0,469.8 C 379.5,469.8 379.5,130.5 417.0,130.5" fill="none" stroke="#7c3aed" stroke-width="2.4" stroke-linecap="round"/>
  <path d="M 561.8,130.5 C 614.9,130.5 614.9,73.0 668.1,73.0" fill="none" stroke="#7c3aed" stroke-width="2.4" stroke-linecap="round"/>
  <path d="M 757.4,73.0 C 881.1,73.0 881.1,50.0 1004.8,50.0" fill="none" stroke="#7c3aed" stroke-width="2.4" stroke-linecap="round"/>
  <path d="M 757.4,73.0 C 881.1,73.0 881.1,96.0 1004.8,96.0" fill="none" stroke="#7c3aed" stroke-width="2.4" stroke-linecap="round"/>
  <path d="M 561.8,130.5 C 614.9,130.5 614.9,142.0 668.1,142.0" fill="none" stroke="#7c3aed" stroke-width="2.4" stroke-linecap="round"/>
  <path d="M 561.8,130.5 C 614.9,130.5 614.9,188.0 668.1,188.0" fill="none" stroke="#7c3aed" stroke-width="2.4" stroke-linecap="round"/>
  <path d="M 342.0,469.8 C 379.5,469.8 379.5,326.0 417.0,326.0" fill="none" stroke="#2563eb" stroke-width="2.4" stroke-linecap="round"/>
  <path d="M 593.1,326.0 C 630.6,326.0 630.6,234.0 668.1,234.0" fill="none" stroke="#2563eb" stroke-width="2.4" stroke-linecap="round"/>
  <path d="M 593.1,326.0 C 630.6,326.0 630.6,280.0 668.1,280.0" fill="none" stroke="#2563eb" stroke-width="2.4" stroke-linecap="round"/>
  <path d="M 593.1,326.0 C 630.6,326.0 630.6,349.0 668.1,349.0" fill="none" stroke="#2563eb" stroke-width="2.4" stroke-linecap="round"/>
  <path d="M 774.8,349.0 C 889.8,349.0 889.8,326.0 1004.8,326.0" fill="none" stroke="#2563eb" stroke-width="2.4" stroke-linecap="round"/>
  <path d="M 774.8,349.0 C 889.8,349.0 889.8,372.0 1004.8,372.0" fill="none" stroke="#2563eb" stroke-width="2.4" stroke-linecap="round"/>
  <path d="M 593.1,326.0 C 630.6,326.0 630.6,418.0 668.1,418.0" fill="none" stroke="#2563eb" stroke-width="2.4" stroke-linecap="round"/>
  <path d="M 342.0,469.8 C 379.5,469.8 379.5,533.0 417.0,533.0" fill="none" stroke="#0891b2" stroke-width="2.4" stroke-linecap="round"/>
  <path d="M 558.4,533.0 C 613.2,533.0 613.2,464.0 668.1,464.0" fill="none" stroke="#0891b2" stroke-width="2.4" stroke-linecap="round"/>
  <path d="M 558.4,533.0 C 613.2,533.0 613.2,510.0 668.1,510.0" fill="none" stroke="#0891b2" stroke-width="2.4" stroke-linecap="round"/>
  <path d="M 558.4,533.0 C 613.2,533.0 613.2,556.0 668.1,556.0" fill="none" stroke="#0891b2" stroke-width="2.4" stroke-linecap="round"/>
  <path d="M 558.4,533.0 C 613.2,533.0 613.2,602.0 668.1,602.0" fill="none" stroke="#0891b2" stroke-width="2.4" stroke-linecap="round"/>
  <path d="M 342.0,469.8 C 379.5,469.8 379.5,671.0 417.0,671.0" fill="none" stroke="#dc2626" stroke-width="2.4" stroke-linecap="round"/>
  <path d="M 579.1,671.0 C 623.6,671.0 623.6,648.0 668.1,648.0" fill="none" stroke="#dc2626" stroke-width="2.4" stroke-linecap="round"/>
  <path d="M 579.1,671.0 C 623.6,671.0 623.6,694.0 668.1,694.0" fill="none" stroke="#dc2626" stroke-width="2.4" stroke-linecap="round"/>
  <path d="M 342.0,469.8 C 379.5,469.8 379.5,809.0 417.0,809.0" fill="none" stroke="#ea580c" stroke-width="2.4" stroke-linecap="round"/>
  <path d="M 523.7,809.0 C 595.9,809.0 595.9,740.0 668.1,740.0" fill="none" stroke="#ea580c" stroke-width="2.4" stroke-linecap="round"/>
  <path d="M 523.7,809.0 C 595.9,809.0 595.9,786.0 668.1,786.0" fill="none" stroke="#ea580c" stroke-width="2.4" stroke-linecap="round"/>
  <path d="M 523.7,809.0 C 595.9,809.0 595.9,832.0 668.1,832.0" fill="none" stroke="#ea580c" stroke-width="2.4" stroke-linecap="round"/>
  <path d="M 523.7,809.0 C 595.9,809.0 595.9,878.0 668.1,878.0" fill="none" stroke="#ea580c" stroke-width="2.4" stroke-linecap="round"/>
  <rect x="40" y="444.8" width="302.0" height="50" rx="11" fill="#1e293b"/>
  <text x="191.0" y="476.8" text-anchor="middle" fill="#ffffff" font-size="20" font-weight="700">训推平台稳定性 · 特有场景</text>
  <line x1="417.0" y1="130.5" x2="561.8" y2="130.5" stroke="#7c3aed" stroke-width="2.4" stroke-linecap="round"/>
  <text x="427.0" y="122.5" fill="#7c3aed" font-size="17" font-weight="700">GPU 资源稳定性</text>
  <line x1="668.1" y1="73.0" x2="757.4" y2="73.0" stroke="#7c3aed" stroke-width="2.4" stroke-linecap="round"/>
  <text x="678.1" y="65.0" fill="#1f2937" font-size="17" font-weight="400">故障检测</text>
  <line x1="1004.8" y1="50.0" x2="1160.8" y2="50.0" stroke="#7c3aed" stroke-width="2.4" stroke-linecap="round"/>
  <text x="1014.8" y="42.0" fill="#1f2937" font-size="17" font-weight="400">掉卡 / 显存 OOM</text>
  <line x1="1004.8" y1="96.0" x2="1154.7" y2="96.0" stroke="#7c3aed" stroke-width="2.4" stroke-linecap="round"/>
  <text x="1014.8" y="88.0" fill="#1f2937" font-size="17" font-weight="400">XID 错误 / ECC</text>
  <line x1="668.1" y1="142.0" x2="907.4" y2="142.0" stroke="#7c3aed" stroke-width="2.4" stroke-linecap="round"/>
  <text x="678.1" y="134.0" fill="#1f2937" font-size="17" font-weight="400">故障卡自动隔离 + 任务迁移</text>
  <line x1="668.1" y1="188.0" x2="872.7" y2="188.0" stroke="#7c3aed" stroke-width="2.4" stroke-linecap="round"/>
  <text x="678.1" y="180.0" fill="#1f2937" font-size="17" font-weight="400">拓扑感知 / 亲和性调度</text>
  <line x1="417.0" y1="326.0" x2="593.1" y2="326.0" stroke="#2563eb" stroke-width="2.4" stroke-linecap="round"/>
  <text x="427.0" y="318.0" fill="#2563eb" font-size="17" font-weight="700">长任务（训练）保障</text>
  <line x1="668.1" y1="234.0" x2="881.2" y2="234.0" stroke="#2563eb" stroke-width="2.4" stroke-linecap="round"/>
  <text x="678.1" y="226.0" fill="#1f2937" font-size="17" font-weight="400">Checkpoint / 断点续训</text>
  <line x1="668.1" y1="280.0" x2="826.8" y2="280.0" stroke="#2563eb" stroke-width="2.4" stroke-linecap="round"/>
  <text x="678.1" y="272.0" fill="#1f2937" font-size="17" font-weight="400">节点故障自动恢复</text>
  <line x1="668.1" y1="349.0" x2="774.8" y2="349.0" stroke="#2563eb" stroke-width="2.4" stroke-linecap="round"/>
  <text x="678.1" y="341.0" fill="#1f2937" font-size="17" font-weight="400">分布式通信</text>
  <line x1="1004.8" y1="326.0" x2="1191.1" y2="326.0" stroke="#2563eb" stroke-width="2.4" stroke-linecap="round"/>
  <text x="1014.8" y="318.0" fill="#1f2937" font-size="17" font-weight="400">RDMA / NCCL 稳定性</text>
  <line x1="1004.8" y1="372.0" x2="1111.5" y2="372.0" stroke="#2563eb" stroke-width="2.4" stroke-linecap="round"/>
  <text x="1014.8" y="364.0" fill="#1f2937" font-size="17" font-weight="400">慢节点检测</text>
  <line x1="668.1" y1="418.0" x2="929.8" y2="418.0" stroke="#2563eb" stroke-width="2.4" stroke-linecap="round"/>
  <text x="678.1" y="410.0" fill="#1f2937" font-size="17" font-weight="400">排队 / 抢占 / 优先级 / 配额</text>
  <line x1="417.0" y1="533.0" x2="558.4" y2="533.0" stroke="#0891b2" stroke-width="2.4" stroke-linecap="round"/>
  <text x="427.0" y="525.0" fill="#0891b2" font-size="17" font-weight="700">推理服务稳定性</text>
  <line x1="668.1" y1="464.0" x2="904.6" y2="464.0" stroke="#0891b2" stroke-width="2.4" stroke-linecap="round"/>
  <text x="678.1" y="456.0" fill="#1f2937" font-size="17" font-weight="400">弹性伸缩 · 按 QPS / 延迟</text>
  <line x1="668.1" y1="510.0" x2="855.3" y2="510.0" stroke="#0891b2" stroke-width="2.4" stroke-linecap="round"/>
  <text x="678.1" y="502.0" fill="#1f2937" font-size="17" font-weight="400">模型灰度 / 平滑切换</text>
  <line x1="668.1" y1="556.0" x2="774.8" y2="556.0" stroke="#0891b2" stroke-width="2.4" stroke-linecap="round"/>
  <text x="678.1" y="548.0" fill="#1f2937" font-size="17" font-weight="400">冷启动优化</text>
  <line x1="668.1" y1="602.0" x2="809.4" y2="602.0" stroke="#0891b2" stroke-width="2.4" stroke-linecap="round"/>
  <text x="678.1" y="594.0" fill="#1f2937" font-size="17" font-weight="400">多模型共置隔离</text>
  <line x1="417.0" y1="671.0" x2="579.1" y2="671.0" stroke="#dc2626" stroke-width="2.4" stroke-linecap="round"/>
  <text x="427.0" y="663.0" fill="#dc2626" font-size="17" font-weight="700">平台 vs 作业边界</text>
  <line x1="668.1" y1="648.0" x2="909.1" y2="648.0" stroke="#dc2626" stroke-width="2.4" stroke-linecap="round"/>
  <text x="678.1" y="640.0" fill="#1f2937" font-size="17" font-weight="400">平台故障 vs 用户代码/数据</text>
  <line x1="668.1" y1="694.0" x2="863.2" y2="694.0" stroke="#dc2626" stroke-width="2.4" stroke-linecap="round"/>
  <text x="678.1" y="686.0" fill="#1f2937" font-size="17" font-weight="400">避免背锅, 也避免漏判</text>
  <line x1="417.0" y1="809.0" x2="523.7" y2="809.0" stroke="#ea580c" stroke-width="2.4" stroke-linecap="round"/>
  <text x="427.0" y="801.0" fill="#ea580c" font-size="17" font-weight="700">强依赖治理</text>
  <line x1="668.1" y1="740.0" x2="757.4" y2="740.0" stroke="#ea580c" stroke-width="2.4" stroke-linecap="round"/>
  <text x="678.1" y="732.0" fill="#1f2937" font-size="17" font-weight="400">镜像仓库</text>
  <line x1="668.1" y1="786.0" x2="901.2" y2="786.0" stroke="#ea580c" stroke-width="2.4" stroke-linecap="round"/>
  <text x="678.1" y="778.0" fill="#1f2937" font-size="17" font-weight="400">对象存储 · 数据集 / 模型</text>
  <line x1="668.1" y1="832.0" x2="892.4" y2="832.0" stroke="#ea580c" stroke-width="2.4" stroke-linecap="round"/>
  <text x="678.1" y="824.0" fill="#1f2937" font-size="17" font-weight="400">调度器 · K8s / Volcano</text>
  <line x1="668.1" y1="878.0" x2="904.6" y2="878.0" stroke="#ea580c" stroke-width="2.4" stroke-linecap="round"/>
  <text x="678.1" y="870.0" fill="#1f2937" font-size="17" font-weight="400">网络 · RDMA / 高性能网络</text>
</svg>