<svg xmlns="http://www.w3.org/2000/svg" viewBox="0 0 879 1226" font-family="-apple-system, PingFang SC, Microsoft YaHei, Helvetica, Arial, sans-serif">
<rect x="0" y="0" width="879" height="1226" fill="#ffffff"/>
<path d="M 239.7,609.5 C 267.7,609.5 267.7,115.0 295.7,115.0" fill="none" stroke="#2563eb" stroke-width="2.4" stroke-linecap="round"/>
<path d="M 497.4,115.0 C 525.4,115.0 525.4,46.0 553.4,46.0" fill="none" stroke="#2563eb" stroke-width="2.4" stroke-linecap="round"/>
<path d="M 497.4,115.0 C 525.4,115.0 525.4,92.0 553.4,92.0" fill="none" stroke="#2563eb" stroke-width="2.4" stroke-linecap="round"/>
<path d="M 497.4,115.0 C 525.4,115.0 525.4,138.0 553.4,138.0" fill="none" stroke="#2563eb" stroke-width="2.4" stroke-linecap="round"/>
<path d="M 497.4,115.0 C 525.4,115.0 525.4,184.0 553.4,184.0" fill="none" stroke="#2563eb" stroke-width="2.4" stroke-linecap="round"/>
<path d="M 239.7,609.5 C 267.7,609.5 267.7,322.0 295.7,322.0" fill="none" stroke="#0891b2" stroke-width="2.4" stroke-linecap="round"/>
<path d="M 403.4,322.0 C 478.4,322.0 478.4,230.0 553.4,230.0" fill="none" stroke="#0891b2" stroke-width="2.4" stroke-linecap="round"/>
<path d="M 403.4,322.0 C 478.4,322.0 478.4,276.0 553.4,276.0" fill="none" stroke="#0891b2" stroke-width="2.4" stroke-linecap="round"/>
<path d="M 403.4,322.0 C 478.4,322.0 478.4,322.0 553.4,322.0" fill="none" stroke="#0891b2" stroke-width="2.4" stroke-linecap="round"/>
<path d="M 403.4,322.0 C 478.4,322.0 478.4,368.0 553.4,368.0" fill="none" stroke="#0891b2" stroke-width="2.4" stroke-linecap="round"/>
<path d="M 403.4,322.0 C 478.4,322.0 478.4,414.0 553.4,414.0" fill="none" stroke="#0891b2" stroke-width="2.4" stroke-linecap="round"/>
<path d="M 239.7,609.5 C 267.7,609.5 267.7,529.0 295.7,529.0" fill="none" stroke="#7c3aed" stroke-width="2.4" stroke-linecap="round"/>
<path d="M 424.8,529.0 C 489.1,529.0 489.1,460.0 553.4,460.0" fill="none" stroke="#7c3aed" stroke-width="2.4" stroke-linecap="round"/>
<path d="M 424.8,529.0 C 489.1,529.0 489.1,506.0 553.4,506.0" fill="none" stroke="#7c3aed" stroke-width="2.4" stroke-linecap="round"/>
<path d="M 424.8,529.0 C 489.1,529.0 489.1,552.0 553.4,552.0" fill="none" stroke="#7c3aed" stroke-width="2.4" stroke-linecap="round"/>
<path d="M 424.8,529.0 C 489.1,529.0 489.1,598.0 553.4,598.0" fill="none" stroke="#7c3aed" stroke-width="2.4" stroke-linecap="round"/>
<path d="M 239.7,609.5 C 267.7,609.5 267.7,736.0 295.7,736.0" fill="none" stroke="#dc2626" stroke-width="2.4" stroke-linecap="round"/>
<path d="M 446.2,736.0 C 499.8,736.0 499.8,644.0 553.4,644.0" fill="none" stroke="#dc2626" stroke-width="2.4" stroke-linecap="round"/>
<path d="M 446.2,736.0 C 499.8,736.0 499.8,690.0 553.4,690.0" fill="none" stroke="#dc2626" stroke-width="2.4" stroke-linecap="round"/>
<path d="M 446.2,736.0 C 499.8,736.0 499.8,736.0 553.4,736.0" fill="none" stroke="#dc2626" stroke-width="2.4" stroke-linecap="round"/>
<path d="M 446.2,736.0 C 499.8,736.0 499.8,782.0 553.4,782.0" fill="none" stroke="#dc2626" stroke-width="2.4" stroke-linecap="round"/>
<path d="M 446.2,736.0 C 499.8,736.0 499.8,828.0 553.4,828.0" fill="none" stroke="#dc2626" stroke-width="2.4" stroke-linecap="round"/>
<path d="M 239.7,609.5 C 267.7,609.5 267.7,943.0 295.7,943.0" fill="none" stroke="#059669" stroke-width="2.4" stroke-linecap="round"/>
<path d="M 403.4,943.0 C 478.4,943.0 478.4,874.0 553.4,874.0" fill="none" stroke="#059669" stroke-width="2.4" stroke-linecap="round"/>
<path d="M 403.4,943.0 C 478.4,943.0 478.4,920.0 553.4,920.0" fill="none" stroke="#059669" stroke-width="2.4" stroke-linecap="round"/>
<path d="M 403.4,943.0 C 478.4,943.0 478.4,966.0 553.4,966.0" fill="none" stroke="#059669" stroke-width="2.4" stroke-linecap="round"/>
<path d="M 403.4,943.0 C 478.4,943.0 478.4,1012.0 553.4,1012.0" fill="none" stroke="#059669" stroke-width="2.4" stroke-linecap="round"/>
<path d="M 239.7,609.5 C 267.7,609.5 267.7,1104.0 295.7,1104.0" fill="none" stroke="#d97706" stroke-width="2.4" stroke-linecap="round"/>
<path d="M 403.4,1104.0 C 478.4,1104.0 478.4,1058.0 553.4,1058.0" fill="none" stroke="#d97706" stroke-width="2.4" stroke-linecap="round"/>
<path d="M 403.4,1104.0 C 478.4,1104.0 478.4,1104.0 553.4,1104.0" fill="none" stroke="#d97706" stroke-width="2.4" stroke-linecap="round"/>
<path d="M 403.4,1104.0 C 478.4,1104.0 478.4,1150.0 553.4,1150.0" fill="none" stroke="#d97706" stroke-width="2.4" stroke-linecap="round"/>
<rect x="40" y="580.5" width="199.7" height="58" rx="11" fill="#1e293b"/>
<text x="139.8" y="617.5" text-anchor="middle" fill="#fff" font-size="24" font-weight="700">推理服务·SRE</text>
<line x1="295.7" y1="115.0" x2="497.4" y2="115.0" stroke="#2563eb" stroke-width="2.4" stroke-linecap="round"/>
<text x="306.7" y="107.0" fill="#2563eb" font-size="21" font-weight="700">serving 解决什么</text>
<line x1="553.4" y1="46.0" x2="704.0" y2="46.0" stroke="#2563eb" stroke-width="2.4" stroke-linecap="round"/>
<text x="564.4" y="38.0" fill="#1f2937" font-size="21" font-weight="400">稳定在线服务</text>
<line x1="553.4" y1="92.0" x2="682.5" y2="92.0" stroke="#2563eb" stroke-width="2.4" stroke-linecap="round"/>
<text x="564.4" y="84.0" fill="#1f2937" font-size="21" font-weight="400">攒批提吞吐</text>
<line x1="553.4" y1="138.0" x2="661.1" y2="138.0" stroke="#2563eb" stroke-width="2.4" stroke-linecap="round"/>
<text x="564.4" y="130.0" fill="#1f2937" font-size="21" font-weight="400">并发调度</text>
<line x1="553.4" y1="184.0" x2="704.0" y2="184.0" stroke="#2563eb" stroke-width="2.4" stroke-linecap="round"/>
<text x="564.4" y="176.0" fill="#1f2937" font-size="21" font-weight="400">压延迟压显存</text>
<line x1="295.7" y1="322.0" x2="403.4" y2="322.0" stroke="#0891b2" stroke-width="2.4" stroke-linecap="round"/>
<text x="306.7" y="314.0" fill="#0891b2" font-size="21" font-weight="700">核心概念</text>
<line x1="553.4" y1="230.0" x2="661.1" y2="230.0" stroke="#0891b2" stroke-width="2.4" stroke-linecap="round"/>
<text x="564.4" y="222.0" fill="#1f2937" font-size="21" font-weight="400">延迟分解</text>
<line x1="553.4" y1="276.0" x2="763.6" y2="276.0" stroke="#0891b2" stroke-width="2.4" stroke-linecap="round"/>
<text x="564.4" y="268.0" fill="#1f2937" font-size="21" font-weight="400">dynamic batching</text>
<line x1="553.4" y1="322.0" x2="798.9" y2="322.0" stroke="#0891b2" stroke-width="2.4" stroke-linecap="round"/>
<text x="564.4" y="314.0" fill="#1f2937" font-size="21" font-weight="400">continuous batching</text>
<line x1="553.4" y1="368.0" x2="810.6" y2="368.0" stroke="#0891b2" stroke-width="2.4" stroke-linecap="round"/>
<text x="564.4" y="360.0" fill="#1f2937" font-size="21" font-weight="400">KV cache / PagedAttn</text>
<line x1="553.4" y1="414.0" x2="704.8" y2="414.0" stroke="#0891b2" stroke-width="2.4" stroke-linecap="round"/>
<text x="564.4" y="406.0" fill="#1f2937" font-size="21" font-weight="400">TTFT / TPOT</text>
<line x1="295.7" y1="529.0" x2="424.8" y2="529.0" stroke="#7c3aed" stroke-width="2.4" stroke-linecap="round"/>
<text x="306.7" y="521.0" fill="#7c3aed" font-size="21" font-weight="700">四框架对标</text>
<line x1="553.4" y1="460.0" x2="771.2" y2="460.0" stroke="#7c3aed" stroke-width="2.4" stroke-linecap="round"/>
<text x="564.4" y="452.0" fill="#1f2937" font-size="21" font-weight="400">TF Serving 纯TF稳</text>
<line x1="553.4" y1="506.0" x2="830.0" y2="506.0" stroke="#7c3aed" stroke-width="2.4" stroke-linecap="round"/>
<text x="564.4" y="498.0" fill="#1f2937" font-size="21" font-weight="400">TorchServe 纯PyTorch简</text>
<line x1="553.4" y1="552.0" x2="786.3" y2="552.0" stroke="#7c3aed" stroke-width="2.4" stroke-linecap="round"/>
<text x="564.4" y="544.0" fill="#1f2937" font-size="21" font-weight="400">Triton 多框架高利用</text>
<line x1="553.4" y1="598.0" x2="733.8" y2="598.0" stroke="#7c3aed" stroke-width="2.4" stroke-linecap="round"/>
<text x="564.4" y="590.0" fill="#1f2937" font-size="21" font-weight="400">vLLM LLM高吞吐</text>
<line x1="295.7" y1="736.0" x2="446.2" y2="736.0" stroke="#dc2626" stroke-width="2.4" stroke-linecap="round"/>
<text x="306.7" y="728.0" fill="#dc2626" font-size="21" font-weight="700">推理性能排查</text>
<line x1="553.4" y1="644.0" x2="770.3" y2="644.0" stroke="#dc2626" stroke-width="2.4" stroke-linecap="round"/>
<text x="564.4" y="636.0" fill="#1f2937" font-size="21" font-weight="400">加载失败 格式/显存</text>
<line x1="553.4" y1="690.0" x2="737.1" y2="690.0" stroke="#dc2626" stroke-width="2.4" stroke-linecap="round"/>
<text x="564.4" y="682.0" fill="#1f2937" font-size="21" font-weight="400">延迟高 先做分解</text>
<line x1="553.4" y1="736.0" x2="780.0" y2="736.0" stroke="#dc2626" stroke-width="2.4" stroke-linecap="round"/>
<text x="564.4" y="728.0" fill="#1f2937" font-size="21" font-weight="400">利用率低还慢 别加卡</text>
<line x1="553.4" y1="782.0" x2="829.1" y2="782.0" stroke="#dc2626" stroke-width="2.4" stroke-linecap="round"/>
<text x="564.4" y="774.0" fill="#1f2937" font-size="21" font-weight="400">吞吐上不去 调batch/实例</text>
<line x1="553.4" y1="828.0" x2="787.1" y2="828.0" stroke="#dc2626" stroke-width="2.4" stroke-linecap="round"/>
<text x="564.4" y="820.0" fill="#1f2937" font-size="21" font-weight="400">OOM KV cache/batch</text>
<line x1="295.7" y1="943.0" x2="403.4" y2="943.0" stroke="#059669" stroke-width="2.4" stroke-linecap="round"/>
<text x="306.7" y="935.0" fill="#059669" font-size="21" font-weight="700">落地设计</text>
<line x1="553.4" y1="874.0" x2="682.5" y2="874.0" stroke="#059669" stroke-width="2.4" stroke-linecap="round"/>
<text x="564.4" y="866.0" fill="#1f2937" font-size="21" font-weight="400">按约束选型</text>
<line x1="553.4" y1="920.0" x2="758.6" y2="920.0" stroke="#059669" stroke-width="2.4" stroke-linecap="round"/>
<text x="564.4" y="912.0" fill="#1f2937" font-size="21" font-weight="400">统一网关+格式规范</text>
<line x1="553.4" y1="966.0" x2="729.6" y2="966.0" stroke="#059669" stroke-width="2.4" stroke-linecap="round"/>
<text x="564.4" y="958.0" fill="#1f2937" font-size="21" font-weight="400">按QPS/延迟扩缩</text>
<line x1="553.4" y1="1012.0" x2="784.2" y2="1012.0" stroke="#059669" stroke-width="2.4" stroke-linecap="round"/>
<text x="564.4" y="1004.0" fill="#1f2937" font-size="21" font-weight="400">延迟分解+TTFT可观测</text>
<line x1="295.7" y1="1104.0" x2="403.4" y2="1104.0" stroke="#d97706" stroke-width="2.4" stroke-linecap="round"/>
<text x="306.7" y="1096.0" fill="#d97706" font-size="21" font-weight="700">经验边界</text>
<line x1="553.4" y1="1058.0" x2="715.7" y2="1058.0" stroke="#d97706" stroke-width="2.4" stroke-linecap="round"/>
<text x="564.4" y="1050.0" fill="#1f2937" font-size="21" font-weight="400">平台承接 真实</text>
<line x1="553.4" y1="1104.0" x2="715.7" y2="1104.0" stroke="#d97706" stroke-width="2.4" stroke-linecap="round"/>
<text x="564.4" y="1096.0" fill="#1f2937" font-size="21" font-weight="400">框架对标 了解</text>
<line x1="553.4" y1="1150.0" x2="737.1" y2="1150.0" stroke="#d97706" stroke-width="2.4" stroke-linecap="round"/>
<text x="564.4" y="1142.0" fill="#1f2937" font-size="21" font-weight="400">引擎内核 不开发</text>
</svg>