<svg xmlns="http://www.w3.org/2000/svg" viewBox="0 0 1640 780" font-family="-apple-system, PingFang SC, Microsoft YaHei, Helvetica, Arial, sans-serif">
<rect x="0" y="0" width="1640" height="780" fill="#f8fafc"/>
<text x="40" y="52" fill="#0f172a" font-size="29.3" font-weight="700">推理服务接入链路与四框架定位</text>
<rect x="40" y="73" width="22" height="16" rx="3" fill="#2563eb"/>
<text x="70" y="86" fill="#334155" font-size="17.1">SRE 真实掌控</text>
<rect x="290" y="73" width="22" height="16" rx="3" fill="#d97706"/>
<text x="320" y="86" fill="#334155" font-size="17.1">serving 层·了解+配合</text>
<rect x="540" y="73" width="22" height="16" rx="3" fill="#dc2626"/>
<text x="570" y="86" fill="#334155" font-size="17.1">模型·业务侧</text>
<rect x="60" y="140" width="360" height="120" rx="10" fill="#eff6ff" stroke="#2563eb" stroke-width="2.4"/>
<text x="240" y="193.0" text-anchor="middle" fill="#334155" font-size="23.2" font-weight="700">Client</text>
<text x="240" y="221.0" text-anchor="middle" fill="#334155" font-size="22.0" font-weight="400">请求 QPS</text>
<defs><marker id="ah64748b" markerWidth="9" markerHeight="9" refX="7" refY="3" orient="auto"><path d="M0,0 L7,3 L0,6 Z" fill="#64748b"/></marker></defs>
<path d="M 420,200 L 460,200" stroke="#64748b" stroke-width="2.4" fill="none" marker-end="url(#ah64748b)"/>
<rect x="460" y="140" width="360" height="120" rx="10" fill="#eff6ff" stroke="#2563eb" stroke-width="2.4"/>
<text x="640" y="193.0" text-anchor="middle" fill="#334155" font-size="23.2" font-weight="700">网关 / LB</text>
<text x="640" y="221.0" text-anchor="middle" fill="#334155" font-size="22.0" font-weight="400">路由·限流·鉴权</text>
<defs><marker id="ah64748b" markerWidth="9" markerHeight="9" refX="7" refY="3" orient="auto"><path d="M0,0 L7,3 L0,6 Z" fill="#64748b"/></marker></defs>
<path d="M 820,200 L 860,200" stroke="#64748b" stroke-width="2.4" fill="none" marker-end="url(#ah64748b)"/>
<rect x="860" y="140" width="360" height="120" rx="10" fill="#fffbeb" stroke="#d97706" stroke-width="2.4"/>
<text x="1040" y="193.0" text-anchor="middle" fill="#334155" font-size="23.2" font-weight="700">Serving 框架</text>
<text x="1040" y="221.0" text-anchor="middle" fill="#334155" font-size="22.0" font-weight="400">加载·batching·并发调度·预/后处理</text>
<defs><marker id="ah64748b" markerWidth="9" markerHeight="9" refX="7" refY="3" orient="auto"><path d="M0,0 L7,3 L0,6 Z" fill="#64748b"/></marker></defs>
<path d="M 1220,200 L 1260,200" stroke="#64748b" stroke-width="2.4" fill="none" marker-end="url(#ah64748b)"/>
<rect x="1260" y="140" width="360" height="120" rx="10" fill="#eff6ff" stroke="#2563eb" stroke-width="2.4"/>
<text x="1440" y="193.0" text-anchor="middle" fill="#334155" font-size="23.2" font-weight="700">GPU 计算</text>
<text x="1440" y="221.0" text-anchor="middle" fill="#334155" font-size="22.0" font-weight="400">显存·算力·KV cache</text>
<rect x="860" y="300" width="360" height="60" rx="10" fill="#fef2f2" stroke="#dc2626" stroke-width="2"/>
<text x="1040" y="335.0" text-anchor="middle" fill="#dc2626" font-size="18.3" font-weight="700">模型(业务侧)：SavedModel/TorchScript/ONNX/TensorRT</text>
<defs><marker id="ahdc2626" markerWidth="9" markerHeight="9" refX="7" refY="3" orient="auto"><path d="M0,0 L7,3 L0,6 Z" fill="#dc2626"/></marker></defs>
<path d="M 1040,300 L 1040,268" stroke="#dc2626" stroke-width="2.0" fill="none" stroke-dasharray="6 5" marker-end="url(#ahdc2626)"/>
<text x="40" y="440" fill="#0f172a" font-size="24.4" font-weight="700">四框架定位（按场景，不堆功能）</text>
<rect x="60" y="470" width="370" height="120" rx="10" fill="#ffffff" stroke="#0891b2" stroke-width="2.6"/>
<text x="245" y="522.0" text-anchor="middle" fill="#334155" font-size="23.2" font-weight="700">TF Serving</text>
<text x="245" y="552.0" text-anchor="middle" fill="#334155" font-size="22.0" font-weight="400">纯 TF·成熟稳定</text>
<rect x="460" y="470" width="370" height="120" rx="10" fill="#ffffff" stroke="#dc2626" stroke-width="2.6"/>
<text x="645" y="522.0" text-anchor="middle" fill="#334155" font-size="23.2" font-weight="700">TorchServe</text>
<text x="645" y="552.0" text-anchor="middle" fill="#334155" font-size="22.0" font-weight="400">纯 PyTorch·简单快上</text>
<rect x="860" y="470" width="370" height="120" rx="10" fill="#ffffff" stroke="#7c3aed" stroke-width="2.6"/>
<text x="1045" y="522.0" text-anchor="middle" fill="#334155" font-size="23.2" font-weight="700">Triton</text>
<text x="1045" y="552.0" text-anchor="middle" fill="#334155" font-size="22.0" font-weight="400">多框架·高 GPU 利用·通用首选</text>
<rect x="1260" y="470" width="370" height="120" rx="10" fill="#ffffff" stroke="#059669" stroke-width="2.6"/>
<text x="1445" y="522.0" text-anchor="middle" fill="#334155" font-size="23.2" font-weight="700">vLLM</text>
<text x="1445" y="552.0" text-anchor="middle" fill="#334155" font-size="22.0" font-weight="400">LLM 专用·高吞吐·PagedAttention</text>
</svg>