<svg xmlns="http://www.w3.org/2000/svg" viewBox="0 0 1740 1080" font-family="-apple-system, PingFang SC, Microsoft YaHei, Helvetica, Arial, sans-serif">
<rect x="0" y="0" width="1740" height="1080" fill="#f8fafc"/>
<text x="40" y="52" fill="#0f172a" font-size="29.3" font-weight="700">推理性能排查决策树（先延迟分解，再判配置 vs 资源）</text>
<rect x="40" y="71" width="22" height="16" rx="3" fill="#2563eb"/>
<text x="70" y="84" fill="#334155" font-size="17.1">平台侧·SRE 处理</text>
<rect x="290" y="71" width="22" height="16" rx="3" fill="#d97706"/>
<text x="320" y="84" fill="#334155" font-size="17.1">框架配置·SRE 配合调</text>
<rect x="540" y="71" width="22" height="16" rx="3" fill="#dc2626"/>
<text x="570" y="84" fill="#334155" font-size="17.1">模型·业务侧</text>
<rect x="40" y="110" width="260" height="72" rx="12" fill="#0f172a" stroke="#0f172a" stroke-width="2"/>
<text x="170" y="140.5" text-anchor="middle" fill="#fff" font-size="22.0" font-weight="700">推理报障</text>
<text x="170" y="164.5" text-anchor="middle" fill="#fff" font-size="20.7" font-weight="400">先做延迟分解</text>
<defs><marker id="ah94a3b8" markerWidth="9" markerHeight="9" refX="7" refY="3" orient="auto"><path d="M0,0 L7,3 L0,6 Z" fill="#94a3b8"/></marker></defs>
<path d="M 300,146 L 328,194" stroke="#94a3b8" stroke-width="2.0" fill="none" marker-end="url(#ah94a3b8)"/>
<rect x="340" y="110" width="250" height="168" rx="12" fill="#d97706" stroke="#d97706" stroke-width="2"/>
<text x="465" y="200.0" text-anchor="middle" fill="#fff" font-size="20.7" font-weight="700">加载失败 / 起不来</text>
<rect x="606" y="110" width="355" height="168" rx="9" fill="#f1f5f9" stroke="#d97706" stroke-width="1.6"/>
<text x="620" y="138" fill="#d97706" font-size="17.1" font-weight="700">可能原因</text>
<text x="620" y="164" fill="#334155" font-size="16.5">格式/版本/依赖/显存/路径</text>
<rect x="975" y="110" width="355" height="168" rx="9" fill="#eef2ff" stroke="#d97706" stroke-width="1.6"/>
<text x="989" y="138" fill="#d97706" font-size="17.1" font-weight="700">怎么验证</text>
<text x="989" y="164" fill="#334155" font-size="16.5">看启动日志·模型格式·显存余量</text>
<rect x="1345" y="110" width="355" height="168" rx="9" fill="#fffbeb" stroke="#d97706" stroke-width="1.6"/>
<text x="1359" y="138" fill="#d97706" font-size="17.1" font-weight="700">结论/责任方</text>
<text x="1359" y="164" fill="#334155" font-size="16.5">格式/依赖=业务 · 显存/镜</text>
<text x="1359" y="186" fill="#334155" font-size="16.5">像=平台</text>
<defs><marker id="ah94a3b8" markerWidth="9" markerHeight="9" refX="7" refY="3" orient="auto"><path d="M0,0 L7,3 L0,6 Z" fill="#94a3b8"/></marker></defs>
<path d="M 300,146 L 328,376" stroke="#94a3b8" stroke-width="2.0" fill="none" marker-end="url(#ah94a3b8)"/>
<rect x="340" y="292" width="250" height="168" rx="12" fill="#d97706" stroke="#d97706" stroke-width="2"/>
<text x="465" y="382.0" text-anchor="middle" fill="#fff" font-size="20.7" font-weight="700">延迟高 / 超时</text>
<rect x="606" y="292" width="355" height="168" rx="9" fill="#f1f5f9" stroke="#d97706" stroke-width="1.6"/>
<text x="620" y="320" fill="#d97706" font-size="17.1" font-weight="700">可能原因</text>
<text x="620" y="346" fill="#334155" font-size="16.5">分解:排队/计算/预处理/网络</text>
<rect x="975" y="292" width="355" height="168" rx="9" fill="#eef2ff" stroke="#d97706" stroke-width="1.6"/>
<text x="989" y="320" fill="#d97706" font-size="17.1" font-weight="700">怎么验证</text>
<text x="989" y="346" fill="#334155" font-size="16.5">排队→并发batch·计算→模</text>
<text x="989" y="368" fill="#334155" font-size="16.5">型·预处理→CPU</text>
<rect x="1345" y="292" width="355" height="168" rx="9" fill="#fffbeb" stroke="#d97706" stroke-width="1.6"/>
<text x="1359" y="320" fill="#d97706" font-size="17.1" font-weight="700">结论/责任方</text>
<text x="1359" y="346" fill="#334155" font-size="16.5">batch/并发/预热=配置 </text>
<text x="1359" y="368" fill="#334155" font-size="16.5">· 模型重=业务</text>
<defs><marker id="ah94a3b8" markerWidth="9" markerHeight="9" refX="7" refY="3" orient="auto"><path d="M0,0 L7,3 L0,6 Z" fill="#94a3b8"/></marker></defs>
<path d="M 300,146 L 328,558" stroke="#94a3b8" stroke-width="2.0" fill="none" marker-end="url(#ah94a3b8)"/>
<rect x="340" y="474" width="250" height="168" rx="12" fill="#2563eb" stroke="#2563eb" stroke-width="2"/>
<text x="465" y="564.0" text-anchor="middle" fill="#fff" font-size="20.7" font-weight="700">利用率低还慢</text>
<rect x="606" y="474" width="355" height="168" rx="9" fill="#f1f5f9" stroke="#2563eb" stroke-width="1.6"/>
<text x="620" y="502" fill="#2563eb" font-size="17.1" font-weight="700">可能原因</text>
<text x="620" y="528" fill="#334155" font-size="16.5">batch没打满/并发不足/预</text>
<text x="620" y="550" fill="#334155" font-size="16.5">处理卡CPU</text>
<rect x="975" y="474" width="355" height="168" rx="9" fill="#eef2ff" stroke="#2563eb" stroke-width="1.6"/>
<text x="989" y="502" fill="#2563eb" font-size="17.1" font-weight="700">怎么验证</text>
<text x="989" y="528" fill="#334155" font-size="16.5">看batch命中·并发数·CP</text>
<text x="989" y="550" fill="#334155" font-size="16.5">U·GPU曲线</text>
<rect x="1345" y="474" width="355" height="168" rx="9" fill="#eff6ff" stroke="#2563eb" stroke-width="1.6"/>
<text x="1359" y="502" fill="#2563eb" font-size="17.1" font-weight="700">结论/责任方</text>
<text x="1359" y="528" fill="#334155" font-size="16.5">多为配置/预处理 · 别盲目加</text>
<text x="1359" y="550" fill="#334155" font-size="16.5">卡</text>
<defs><marker id="ah94a3b8" markerWidth="9" markerHeight="9" refX="7" refY="3" orient="auto"><path d="M0,0 L7,3 L0,6 Z" fill="#94a3b8"/></marker></defs>
<path d="M 300,146 L 328,740" stroke="#94a3b8" stroke-width="2.0" fill="none" marker-end="url(#ah94a3b8)"/>
<rect x="340" y="656" width="250" height="168" rx="12" fill="#d97706" stroke="#d97706" stroke-width="2"/>
<text x="465" y="746.0" text-anchor="middle" fill="#fff" font-size="20.7" font-weight="700">吞吐上不去</text>
<rect x="606" y="656" width="355" height="168" rx="9" fill="#f1f5f9" stroke="#d97706" stroke-width="1.6"/>
<text x="620" y="684" fill="#d97706" font-size="17.1" font-weight="700">可能原因</text>
<text x="620" y="710" fill="#334155" font-size="16.5">batching没开/实例不够</text>
<text x="620" y="732" fill="#334155" font-size="16.5">/(LLM)KV受限</text>
<rect x="975" y="656" width="355" height="168" rx="9" fill="#eef2ff" stroke="#d97706" stroke-width="1.6"/>
<text x="989" y="684" fill="#d97706" font-size="17.1" font-weight="700">怎么验证</text>
<text x="989" y="710" fill="#334155" font-size="16.5">看batch配置·实例数·co</text>
<text x="989" y="732" fill="#334155" font-size="16.5">ntinuous batchi</text>
<text x="989" y="754" fill="#334155" font-size="16.5">ng</text>
<rect x="1345" y="656" width="355" height="168" rx="9" fill="#fffbeb" stroke="#d97706" stroke-width="1.6"/>
<text x="1359" y="684" fill="#d97706" font-size="17.1" font-weight="700">结论/责任方</text>
<text x="1359" y="710" fill="#334155" font-size="16.5">调batching+实例 · </text>
<text x="1359" y="732" fill="#334155" font-size="16.5">LLM看KV预算</text>
<defs><marker id="ah94a3b8" markerWidth="9" markerHeight="9" refX="7" refY="3" orient="auto"><path d="M0,0 L7,3 L0,6 Z" fill="#94a3b8"/></marker></defs>
<path d="M 300,146 L 328,922" stroke="#94a3b8" stroke-width="2.0" fill="none" marker-end="url(#ah94a3b8)"/>
<rect x="340" y="838" width="250" height="168" rx="12" fill="#dc2626" stroke="#dc2626" stroke-width="2"/>
<text x="465" y="928.0" text-anchor="middle" fill="#fff" font-size="20.7" font-weight="700">OOM</text>
<rect x="606" y="838" width="355" height="168" rx="9" fill="#f1f5f9" stroke="#dc2626" stroke-width="1.6"/>
<text x="620" y="866" fill="#dc2626" font-size="17.1" font-weight="700">可能原因</text>
<text x="620" y="892" fill="#334155" font-size="16.5">模型大/batch大/(LLM</text>
<text x="620" y="914" fill="#334155" font-size="16.5">)KV cache爆</text>
<rect x="975" y="838" width="355" height="168" rx="9" fill="#eef2ff" stroke="#dc2626" stroke-width="1.6"/>
<text x="989" y="866" fill="#dc2626" font-size="17.1" font-weight="700">怎么验证</text>
<text x="989" y="892" fill="#334155" font-size="16.5">看显存随并发与序列长度变化</text>
<rect x="1345" y="838" width="355" height="168" rx="9" fill="#fef2f2" stroke="#dc2626" stroke-width="1.6"/>
<text x="1359" y="866" fill="#dc2626" font-size="17.1" font-weight="700">结论/责任方</text>
<text x="1359" y="892" fill="#334155" font-size="16.5">限batch/并发/序列 · </text>
<text x="1359" y="914" fill="#334155" font-size="16.5">LLM用分页省显存</text>
</svg>