<svg xmlns="http://www.w3.org/2000/svg" viewBox="0 0 1286 1736" font-family="-apple-system, PingFang SC, Microsoft YaHei, Helvetica, Arial, sans-serif">
<rect x="0" y="0" width="1286" height="1736" fill="#ffffff"/>
<path d="M 414.4,952.8 C 450.4,952.8 450.4,268.5 486.4,268.5" fill="none" stroke="#7c3aed" stroke-width="2.4" stroke-linecap="round"/>
<path d="M 622.7,268.5 C 668.4,268.5 668.4,96.0 714.1,96.0" fill="none" stroke="#7c3aed" stroke-width="2.4" stroke-linecap="round"/>
<path d="M 834.8,96.0 C 926.4,96.0 926.4,50.0 1018.1,50.0" fill="none" stroke="#7c3aed" stroke-width="2.4" stroke-linecap="round"/>
<path d="M 834.8,96.0 C 926.4,96.0 926.4,96.0 1018.1,96.0" fill="none" stroke="#7c3aed" stroke-width="2.4" stroke-linecap="round"/>
<path d="M 834.8,96.0 C 926.4,96.0 926.4,142.0 1018.1,142.0" fill="none" stroke="#7c3aed" stroke-width="2.4" stroke-linecap="round"/>
<path d="M 622.7,268.5 C 668.4,268.5 668.4,211.0 714.1,211.0" fill="none" stroke="#7c3aed" stroke-width="2.4" stroke-linecap="round"/>
<path d="M 834.8,211.0 C 926.4,211.0 926.4,188.0 1018.1,188.0" fill="none" stroke="#7c3aed" stroke-width="2.4" stroke-linecap="round"/>
<path d="M 834.8,211.0 C 926.4,211.0 926.4,234.0 1018.1,234.0" fill="none" stroke="#7c3aed" stroke-width="2.4" stroke-linecap="round"/>
<path d="M 622.7,268.5 C 668.4,268.5 668.4,326.0 714.1,326.0" fill="none" stroke="#7c3aed" stroke-width="2.4" stroke-linecap="round"/>
<path d="M 792.2,326.0 C 905.1,326.0 905.1,280.0 1018.1,280.0" fill="none" stroke="#7c3aed" stroke-width="2.4" stroke-linecap="round"/>
<path d="M 792.2,326.0 C 905.1,326.0 905.1,326.0 1018.1,326.0" fill="none" stroke="#7c3aed" stroke-width="2.4" stroke-linecap="round"/>
<path d="M 792.2,326.0 C 905.1,326.0 905.1,372.0 1018.1,372.0" fill="none" stroke="#7c3aed" stroke-width="2.4" stroke-linecap="round"/>
<path d="M 622.7,268.5 C 668.4,268.5 668.4,441.0 714.1,441.0" fill="none" stroke="#7c3aed" stroke-width="2.4" stroke-linecap="round"/>
<path d="M 792.2,441.0 C 905.1,441.0 905.1,418.0 1018.1,418.0" fill="none" stroke="#7c3aed" stroke-width="2.4" stroke-linecap="round"/>
<path d="M 792.2,441.0 C 905.1,441.0 905.1,464.0 1018.1,464.0" fill="none" stroke="#7c3aed" stroke-width="2.4" stroke-linecap="round"/>
<path d="M 414.4,952.8 C 450.4,952.8 450.4,625.0 486.4,625.0" fill="none" stroke="#2563eb" stroke-width="2.4" stroke-linecap="round"/>
<path d="M 642.1,625.0 C 678.1,625.0 678.1,510.0 714.1,510.0" fill="none" stroke="#2563eb" stroke-width="2.4" stroke-linecap="round"/>
<path d="M 642.1,625.0 C 678.1,625.0 678.1,556.0 714.1,556.0" fill="none" stroke="#2563eb" stroke-width="2.4" stroke-linecap="round"/>
<path d="M 642.1,625.0 C 678.1,625.0 678.1,602.0 714.1,602.0" fill="none" stroke="#2563eb" stroke-width="2.4" stroke-linecap="round"/>
<path d="M 642.1,625.0 C 678.1,625.0 678.1,648.0 714.1,648.0" fill="none" stroke="#2563eb" stroke-width="2.4" stroke-linecap="round"/>
<path d="M 642.1,625.0 C 678.1,625.0 678.1,694.0 714.1,694.0" fill="none" stroke="#2563eb" stroke-width="2.4" stroke-linecap="round"/>
<path d="M 642.1,625.0 C 678.1,625.0 678.1,740.0 714.1,740.0" fill="none" stroke="#2563eb" stroke-width="2.4" stroke-linecap="round"/>
<path d="M 414.4,952.8 C 450.4,952.8 450.4,924.0 486.4,924.0" fill="none" stroke="#0891b2" stroke-width="2.4" stroke-linecap="round"/>
<path d="M 642.1,924.0 C 678.1,924.0 678.1,786.0 714.1,786.0" fill="none" stroke="#0891b2" stroke-width="2.4" stroke-linecap="round"/>
<path d="M 642.1,924.0 C 678.1,924.0 678.1,832.0 714.1,832.0" fill="none" stroke="#0891b2" stroke-width="2.4" stroke-linecap="round"/>
<path d="M 642.1,924.0 C 678.1,924.0 678.1,878.0 714.1,878.0" fill="none" stroke="#0891b2" stroke-width="2.4" stroke-linecap="round"/>
<path d="M 642.1,924.0 C 678.1,924.0 678.1,924.0 714.1,924.0" fill="none" stroke="#0891b2" stroke-width="2.4" stroke-linecap="round"/>
<path d="M 642.1,924.0 C 678.1,924.0 678.1,970.0 714.1,970.0" fill="none" stroke="#0891b2" stroke-width="2.4" stroke-linecap="round"/>
<path d="M 642.1,924.0 C 678.1,924.0 678.1,1016.0 714.1,1016.0" fill="none" stroke="#0891b2" stroke-width="2.4" stroke-linecap="round"/>
<path d="M 642.1,924.0 C 678.1,924.0 678.1,1062.0 714.1,1062.0" fill="none" stroke="#0891b2" stroke-width="2.4" stroke-linecap="round"/>
<path d="M 414.4,952.8 C 450.4,952.8 450.4,1177.0 486.4,1177.0" fill="none" stroke="#dc2626" stroke-width="2.4" stroke-linecap="round"/>
<path d="M 583.9,1177.0 C 649.0,1177.0 649.0,1108.0 714.1,1108.0" fill="none" stroke="#dc2626" stroke-width="2.4" stroke-linecap="round"/>
<path d="M 583.9,1177.0 C 649.0,1177.0 649.0,1154.0 714.1,1154.0" fill="none" stroke="#dc2626" stroke-width="2.4" stroke-linecap="round"/>
<path d="M 583.9,1177.0 C 649.0,1177.0 649.0,1200.0 714.1,1200.0" fill="none" stroke="#dc2626" stroke-width="2.4" stroke-linecap="round"/>
<path d="M 583.9,1177.0 C 649.0,1177.0 649.0,1246.0 714.1,1246.0" fill="none" stroke="#dc2626" stroke-width="2.4" stroke-linecap="round"/>
<path d="M 414.4,952.8 C 450.4,952.8 450.4,1361.0 486.4,1361.0" fill="none" stroke="#ea580c" stroke-width="2.4" stroke-linecap="round"/>
<path d="M 583.9,1361.0 C 649.0,1361.0 649.0,1292.0 714.1,1292.0" fill="none" stroke="#ea580c" stroke-width="2.4" stroke-linecap="round"/>
<path d="M 583.9,1361.0 C 649.0,1361.0 649.0,1338.0 714.1,1338.0" fill="none" stroke="#ea580c" stroke-width="2.4" stroke-linecap="round"/>
<path d="M 583.9,1361.0 C 649.0,1361.0 649.0,1384.0 714.1,1384.0" fill="none" stroke="#ea580c" stroke-width="2.4" stroke-linecap="round"/>
<path d="M 583.9,1361.0 C 649.0,1361.0 649.0,1430.0 714.1,1430.0" fill="none" stroke="#ea580c" stroke-width="2.4" stroke-linecap="round"/>
<path d="M 414.4,952.8 C 450.4,952.8 450.4,1522.0 486.4,1522.0" fill="none" stroke="#059669" stroke-width="2.4" stroke-linecap="round"/>
<path d="M 603.3,1522.0 C 658.7,1522.0 658.7,1476.0 714.1,1476.0" fill="none" stroke="#059669" stroke-width="2.4" stroke-linecap="round"/>
<path d="M 603.3,1522.0 C 658.7,1522.0 658.7,1522.0 714.1,1522.0" fill="none" stroke="#059669" stroke-width="2.4" stroke-linecap="round"/>
<path d="M 603.3,1522.0 C 658.7,1522.0 658.7,1568.0 714.1,1568.0" fill="none" stroke="#059669" stroke-width="2.4" stroke-linecap="round"/>
<path d="M 414.4,952.8 C 450.4,952.8 450.4,1637.0 486.4,1637.0" fill="none" stroke="#d97706" stroke-width="2.4" stroke-linecap="round"/>
<path d="M 583.9,1637.0 C 649.0,1637.0 649.0,1614.0 714.1,1614.0" fill="none" stroke="#d97706" stroke-width="2.4" stroke-linecap="round"/>
<path d="M 583.9,1637.0 C 649.0,1637.0 649.0,1660.0 714.1,1660.0" fill="none" stroke="#d97706" stroke-width="2.4" stroke-linecap="round"/>
<rect x="40" y="925.8" width="374.4" height="54" rx="11" fill="#1e293b"/>
<text x="227.2" y="959.8" text-anchor="middle" fill="#ffffff" font-size="20" font-weight="700">GPU 利用率指标体系与低利用率治理</text>
<line x1="486.4" y1="268.5" x2="622.7" y2="268.5" stroke="#7c3aed" stroke-width="2.4" stroke-linecap="round"/>
<text x="496.4" y="260.5" fill="#7c3aed" font-size="19" font-weight="700">指标体系分层</text>
<line x1="714.1" y1="96.0" x2="834.8" y2="96.0" stroke="#7c3aed" stroke-width="2.4" stroke-linecap="round"/>
<text x="724.1" y="88.0" fill="#1f2937" font-size="19" font-weight="400">GPU 硬件层</text>
<line x1="1018.1" y1="50.0" x2="1222.0" y2="50.0" stroke="#7c3aed" stroke-width="2.4" stroke-linecap="round"/>
<text x="1028.1" y="42.0" fill="#1f2937" font-size="19" font-weight="400">util / 显存 / 带宽</text>
<line x1="1018.1" y1="96.0" x2="1208.3" y2="96.0" stroke="#7c3aed" stroke-width="2.4" stroke-linecap="round"/>
<text x="1028.1" y="88.0" fill="#1f2937" font-size="19" font-weight="400">SM·Tensor active</text>
<line x1="1018.1" y1="142.0" x2="1211.4" y2="142.0" stroke="#7c3aed" stroke-width="2.4" stroke-linecap="round"/>
<text x="1028.1" y="134.0" fill="#1f2937" font-size="19" font-weight="400">功耗 / 时钟 / XID</text>
<line x1="714.1" y1="211.0" x2="834.8" y2="211.0" stroke="#7c3aed" stroke-width="2.4" stroke-linecap="round"/>
<text x="724.1" y="203.0" fill="#1f2937" font-size="19" font-weight="400">K8s 资源层</text>
<line x1="1018.1" y1="188.0" x2="1225.8" y2="188.0" stroke="#7c3aed" stroke-width="2.4" stroke-linecap="round"/>
<text x="1028.1" y="180.0" fill="#1f2937" font-size="19" font-weight="400">GPU request / 碎片</text>
<line x1="1018.1" y1="234.0" x2="1179.5" y2="234.0" stroke="#7c3aed" stroke-width="2.4" stroke-linecap="round"/>
<text x="1028.1" y="226.0" fill="#1f2937" font-size="19" font-weight="400">Pod / 节点状态</text>
<line x1="714.1" y1="326.0" x2="792.2" y2="326.0" stroke="#7c3aed" stroke-width="2.4" stroke-linecap="round"/>
<text x="724.1" y="318.0" fill="#1f2937" font-size="19" font-weight="400">框架层</text>
<line x1="1018.1" y1="280.0" x2="1225.8" y2="280.0" stroke="#7c3aed" stroke-width="2.4" stroke-linecap="round"/>
<text x="1028.1" y="272.0" fill="#1f2937" font-size="19" font-weight="400">推理 QPS·P99·batch</text>
<line x1="1018.1" y1="326.0" x2="1208.3" y2="326.0" stroke="#7c3aed" stroke-width="2.4" stroke-linecap="round"/>
<text x="1028.1" y="318.0" fill="#1f2937" font-size="19" font-weight="400">LLM TTFT·TPOT·KV</text>
<line x1="1018.1" y1="372.0" x2="1236.5" y2="372.0" stroke="#7c3aed" stroke-width="2.4" stroke-linecap="round"/>
<text x="1028.1" y="364.0" fill="#1f2937" font-size="19" font-weight="400">训练 samples/s·step</text>
<line x1="714.1" y1="441.0" x2="792.2" y2="441.0" stroke="#7c3aed" stroke-width="2.4" stroke-linecap="round"/>
<text x="724.1" y="433.0" fill="#1f2937" font-size="19" font-weight="400">业务层</text>
<line x1="1018.1" y1="418.0" x2="1160.1" y2="418.0" stroke="#7c3aed" stroke-width="2.4" stroke-linecap="round"/>
<text x="1028.1" y="410.0" fill="#1f2937" font-size="19" font-weight="400">SLA / 错误率</text>
<line x1="1018.1" y1="464.0" x2="1168.8" y2="464.0" stroke="#7c3aed" stroke-width="2.4" stroke-linecap="round"/>
<text x="1028.1" y="456.0" fill="#1f2937" font-size="19" font-weight="400">单位 GPU 成本</text>
<line x1="486.4" y1="625.0" x2="642.1" y2="625.0" stroke="#2563eb" stroke-width="2.4" stroke-linecap="round"/>
<text x="496.4" y="617.0" fill="#2563eb" font-size="19" font-weight="700">推理打不满成因</text>
<line x1="714.1" y1="510.0" x2="921.0" y2="510.0" stroke="#2563eb" stroke-width="2.4" stroke-linecap="round"/>
<text x="724.1" y="502.0" fill="#1f2937" font-size="19" font-weight="400">流量不足 / 副本过多</text>
<line x1="714.1" y1="556.0" x2="946.1" y2="556.0" stroke="#2563eb" stroke-width="2.4" stroke-linecap="round"/>
<text x="724.1" y="548.0" fill="#1f2937" font-size="19" font-weight="400">batch 小 / 动态批失效</text>
<line x1="714.1" y1="602.0" x2="892.9" y2="602.0" stroke="#2563eb" stroke-width="2.4" stroke-linecap="round"/>
<text x="724.1" y="594.0" fill="#1f2937" font-size="19" font-weight="400">CPU 前后处理拖慢</text>
<line x1="714.1" y1="648.0" x2="869.7" y2="648.0" stroke="#2563eb" stroke-width="2.4" stroke-linecap="round"/>
<text x="724.1" y="640.0" fill="#1f2937" font-size="19" font-weight="400">显存占满算力空</text>
<line x1="714.1" y1="694.0" x2="861.7" y2="694.0" stroke="#2563eb" stroke-width="2.4" stroke-linecap="round"/>
<text x="724.1" y="686.0" fill="#1f2937" font-size="19" font-weight="400">memory-bound</text>
<line x1="714.1" y1="740.0" x2="869.7" y2="740.0" stroke="#2563eb" stroke-width="2.4" stroke-linecap="round"/>
<text x="724.1" y="732.0" fill="#1f2937" font-size="19" font-weight="400">调度与规格错配</text>
<line x1="486.4" y1="924.0" x2="642.1" y2="924.0" stroke="#0891b2" stroke-width="2.4" stroke-linecap="round"/>
<text x="496.4" y="916.0" fill="#0891b2" font-size="19" font-weight="700">训练打不满成因</text>
<line x1="714.1" y1="786.0" x2="831.0" y2="786.0" stroke="#0891b2" stroke-width="2.4" stroke-linecap="round"/>
<text x="724.1" y="778.0" fill="#1f2937" font-size="19" font-weight="400">数据加载慢</text>
<line x1="714.1" y1="832.0" x2="836.7" y2="832.0" stroke="#0891b2" stroke-width="2.4" stroke-linecap="round"/>
<text x="724.1" y="824.0" fill="#1f2937" font-size="19" font-weight="400">batch 太小</text>
<line x1="714.1" y1="878.0" x2="882.3" y2="878.0" stroke="#0891b2" stroke-width="2.4" stroke-linecap="round"/>
<text x="724.1" y="870.0" fill="#1f2937" font-size="19" font-weight="400">模型小 / 算子碎</text>
<line x1="714.1" y1="924.0" x2="869.7" y2="924.0" stroke="#0891b2" stroke-width="2.4" stroke-linecap="round"/>
<text x="724.1" y="916.0" fill="#1f2937" font-size="19" font-weight="400">分布式通信瓶颈</text>
<line x1="714.1" y1="970.0" x2="943.1" y2="970.0" stroke="#0891b2" stroke-width="2.4" stroke-linecap="round"/>
<text x="724.1" y="962.0" fill="#1f2937" font-size="19" font-weight="400">checkpoint·eval 频繁</text>
<line x1="714.1" y1="1016.0" x2="919.9" y2="1016.0" stroke="#0891b2" stroke-width="2.4" stroke-linecap="round"/>
<text x="724.1" y="1008.0" fill="#1f2937" font-size="19" font-weight="400">Tensor Core 没吃到</text>
<line x1="714.1" y1="1062.0" x2="850.3" y2="1062.0" stroke="#0891b2" stroke-width="2.4" stroke-linecap="round"/>
<text x="724.1" y="1054.0" fill="#1f2937" font-size="19" font-weight="400">资源规格错配</text>
<line x1="486.4" y1="1177.0" x2="583.9" y2="1177.0" stroke="#dc2626" stroke-width="2.4" stroke-linecap="round"/>
<text x="496.4" y="1169.0" fill="#dc2626" font-size="19" font-weight="700">排障决策</text>
<line x1="714.1" y1="1108.0" x2="924.8" y2="1108.0" stroke="#dc2626" stroke-width="2.4" stroke-linecap="round"/>
<text x="724.1" y="1100.0" fill="#1f2937" font-size="19" font-weight="400">先看 util+功耗+显存</text>
<line x1="714.1" y1="1154.0" x2="921.0" y2="1154.0" stroke="#dc2626" stroke-width="2.4" stroke-linecap="round"/>
<text x="724.1" y="1146.0" fill="#1f2937" font-size="19" font-weight="400">症状→假设→验证→优化</text>
<line x1="714.1" y1="1200.0" x2="850.3" y2="1200.0" stroke="#dc2626" stroke-width="2.4" stroke-linecap="round"/>
<text x="724.1" y="1192.0" fill="#1f2937" font-size="19" font-weight="400">快速判断矩阵</text>
<line x1="714.1" y1="1246.0" x2="892.9" y2="1246.0" stroke="#dc2626" stroke-width="2.4" stroke-linecap="round"/>
<text x="724.1" y="1238.0" fill="#1f2937" font-size="19" font-weight="400">瓶颈不一定在 GPU</text>
<line x1="486.4" y1="1361.0" x2="583.9" y2="1361.0" stroke="#ea580c" stroke-width="2.4" stroke-linecap="round"/>
<text x="496.4" y="1353.0" fill="#ea580c" font-size="19" font-weight="700">平台落地</text>
<line x1="714.1" y1="1292.0" x2="854.1" y2="1292.0" stroke="#ea580c" stroke-width="2.4" stroke-linecap="round"/>
<text x="724.1" y="1284.0" fill="#1f2937" font-size="19" font-weight="400">GPU 资源看板</text>
<line x1="714.1" y1="1338.0" x2="882.3" y2="1338.0" stroke="#ea580c" stroke-width="2.4" stroke-linecap="round"/>
<text x="724.1" y="1330.0" fill="#1f2937" font-size="19" font-weight="400">任务 / 模型画像</text>
<line x1="714.1" y1="1384.0" x2="889.1" y2="1384.0" stroke="#ea580c" stroke-width="2.4" stroke-linecap="round"/>
<text x="724.1" y="1376.0" fill="#1f2937" font-size="19" font-weight="400">低利用率治理规则</text>
<line x1="714.1" y1="1430.0" x2="921.0" y2="1430.0" stroke="#ea580c" stroke-width="2.4" stroke-linecap="round"/>
<text x="724.1" y="1422.0" fill="#1f2937" font-size="19" font-weight="400">规格推荐 / 准入校验</text>
<line x1="486.4" y1="1522.0" x2="603.3" y2="1522.0" stroke="#059669" stroke-width="2.4" stroke-linecap="round"/>
<text x="496.4" y="1514.0" fill="#059669" font-size="19" font-weight="700">边界与误区</text>
<line x1="714.1" y1="1476.0" x2="889.1" y2="1476.0" stroke="#059669" stroke-width="2.4" stroke-linecap="round"/>
<text x="724.1" y="1468.0" fill="#1f2937" font-size="19" font-weight="400">打满不是唯一目标</text>
<line x1="714.1" y1="1522.0" x2="880.4" y2="1522.0" stroke="#059669" stroke-width="2.4" stroke-linecap="round"/>
<text x="724.1" y="1514.0" fill="#1f2937" font-size="19" font-weight="400">显存高≠利用率高</text>
<line x1="714.1" y1="1568.0" x2="908.5" y2="1568.0" stroke="#059669" stroke-width="2.4" stroke-linecap="round"/>
<text x="724.1" y="1560.0" fill="#1f2937" font-size="19" font-weight="400">引擎内部为对标理解</text>
<line x1="486.4" y1="1637.0" x2="583.9" y2="1637.0" stroke="#d97706" stroke-width="2.4" stroke-linecap="round"/>
<text x="496.4" y="1629.0" fill="#d97706" font-size="19" font-weight="700">面试话术</text>
<line x1="714.1" y1="1614.0" x2="914.9" y2="1614.0" stroke="#d97706" stroke-width="2.4" stroke-linecap="round"/>
<text x="724.1" y="1606.0" fill="#1f2937" font-size="19" font-weight="400">30s / 3min / 5min</text>
<line x1="714.1" y1="1660.0" x2="894.8" y2="1660.0" stroke="#d97706" stroke-width="2.4" stroke-linecap="round"/>
<text x="724.1" y="1652.0" fill="#1f2937" font-size="19" font-weight="400">追问树 / 高频 QA</text>
</svg>