<svg xmlns="http://www.w3.org/2000/svg" viewBox="0 0 2600 736" font-family="-apple-system, PingFang SC, Microsoft YaHei, Helvetica, Arial, sans-serif">
<rect x="0" y="0" width="2600" height="736" fill="#ffffff"/>
<text x="50.0" y="80.0" text-anchor="start" fill="#0f172a" font-size="34" font-weight="700">低利用率成因机制：GPU 算力为什么空闲（沿流水线找卡点）</text>
<text x="50.0" y="130.0" text-anchor="start" fill="#2563eb" font-size="28" font-weight="700">推理流水线</text>
<rect x="50.0" y="156.0" width="388.3" height="78.0" rx="12" fill="#2563eb" stroke="none" stroke-width="2"/>
<text x="244.2" y="203.0" text-anchor="middle" fill="#ffffff" font-size="23" font-weight="700">请求到达 / 排队</text>
<line x1="442.3" y1="195.0" x2="468.3" y2="195.0" stroke="#94a3b8" stroke-width="4.0" stroke-linecap="round"/>
<path d="M 468.3,195.0 L 453.7,201.5 L 453.7,188.5 Z" fill="#94a3b8"/>
<rect x="50.0" y="248.0" width="388.3" height="132.0" rx="12" fill="#eff6ff" stroke="#2563eb" stroke-width="2"/>
<text x="64.0" y="278.0" text-anchor="start" fill="#dc2626" font-size="17" font-weight="700">卡点</text>
<text x="244.2" y="306.0" text-anchor="middle" fill="#b91c1c" font-size="18" font-weight="400">流量不足或副本过多</text>
<text x="244.2" y="335.4" text-anchor="middle" fill="#0f172a" font-size="17" font-weight="400">看 QPS / 队列长度 / 副本数</text>
<rect x="472.3" y="156.0" width="388.3" height="78.0" rx="12" fill="#2563eb" stroke="none" stroke-width="2"/>
<text x="666.5" y="203.0" text-anchor="middle" fill="#ffffff" font-size="23" font-weight="700">CPU 前处理</text>
<line x1="864.7" y1="195.0" x2="890.7" y2="195.0" stroke="#94a3b8" stroke-width="4.0" stroke-linecap="round"/>
<path d="M 890.7,195.0 L 876.1,201.5 L 876.1,188.5 Z" fill="#94a3b8"/>
<rect x="472.3" y="248.0" width="388.3" height="132.0" rx="12" fill="#eff6ff" stroke="#2563eb" stroke-width="2"/>
<text x="486.3" y="278.0" text-anchor="start" fill="#dc2626" font-size="17" font-weight="700">卡点</text>
<text x="666.5" y="306.0" text-anchor="middle" fill="#b91c1c" font-size="18" font-weight="400">tokenizer / 特征组装慢</text>
<text x="666.5" y="335.4" text-anchor="middle" fill="#0f172a" font-size="17" font-weight="400">看 CPU_UTIL / 前处理耗时</text>
<rect x="894.7" y="156.0" width="388.3" height="78.0" rx="12" fill="#2563eb" stroke="none" stroke-width="2"/>
<text x="1088.8" y="203.0" text-anchor="middle" fill="#ffffff" font-size="23" font-weight="700">组 batch</text>
<line x1="1287.0" y1="195.0" x2="1313.0" y2="195.0" stroke="#94a3b8" stroke-width="4.0" stroke-linecap="round"/>
<path d="M 1313.0,195.0 L 1298.4,201.5 L 1298.4,188.5 Z" fill="#94a3b8"/>
<rect x="894.7" y="248.0" width="388.3" height="132.0" rx="12" fill="#eff6ff" stroke="#2563eb" stroke-width="2"/>
<text x="908.7" y="278.0" text-anchor="start" fill="#dc2626" font-size="17" font-weight="700">卡点</text>
<text x="1088.8" y="306.0" text-anchor="middle" fill="#b91c1c" font-size="18" font-weight="400">动态批没生效, batch≈1</text>
<text x="1088.8" y="335.4" text-anchor="middle" fill="#0f172a" font-size="17" font-weight="400">看 batch 分布 / 等待时间</text>
<rect x="1317.0" y="156.0" width="388.3" height="78.0" rx="12" fill="#2563eb" stroke="none" stroke-width="2"/>
<text x="1511.2" y="203.0" text-anchor="middle" fill="#ffffff" font-size="23" font-weight="700">H2D 拷贝</text>
<line x1="1709.3" y1="195.0" x2="1735.3" y2="195.0" stroke="#94a3b8" stroke-width="4.0" stroke-linecap="round"/>
<path d="M 1735.3,195.0 L 1720.7,201.5 L 1720.7,188.5 Z" fill="#94a3b8"/>
<rect x="1317.0" y="248.0" width="388.3" height="132.0" rx="12" fill="#eff6ff" stroke="#2563eb" stroke-width="2"/>
<text x="1331.0" y="278.0" text-anchor="start" fill="#dc2626" font-size="17" font-weight="700">卡点</text>
<text x="1511.2" y="306.0" text-anchor="middle" fill="#b91c1c" font-size="18" font-weight="400">CPU↔GPU 搬运卡住</text>
<text x="1511.2" y="335.4" text-anchor="middle" fill="#0f172a" font-size="17" font-weight="400">看 MEM_COPY_UTIL</text>
<rect x="1739.3" y="156.0" width="388.3" height="78.0" rx="12" fill="#2563eb" stroke="none" stroke-width="2"/>
<text x="1933.5" y="203.0" text-anchor="middle" fill="#ffffff" font-size="23" font-weight="700">GPU forward</text>
<line x1="2131.7" y1="195.0" x2="2157.7" y2="195.0" stroke="#94a3b8" stroke-width="4.0" stroke-linecap="round"/>
<path d="M 2157.7,195.0 L 2143.1,201.5 L 2143.1,188.5 Z" fill="#94a3b8"/>
<rect x="1739.3" y="248.0" width="388.3" height="132.0" rx="12" fill="#eff6ff" stroke="#2563eb" stroke-width="2"/>
<text x="1753.3" y="278.0" text-anchor="start" fill="#dc2626" font-size="17" font-weight="700">卡点</text>
<text x="1933.5" y="306.0" text-anchor="middle" fill="#b91c1c" font-size="18" font-weight="400">compute / memory bound</text>
<text x="1933.5" y="335.4" text-anchor="middle" fill="#0f172a" font-size="17" font-weight="400">看 SM / Tensor / DRAM active</text>
<rect x="2161.7" y="156.0" width="388.3" height="78.0" rx="12" fill="#2563eb" stroke="none" stroke-width="2"/>
<text x="2355.8" y="203.0" text-anchor="middle" fill="#ffffff" font-size="23" font-weight="700">D2H + 后处理</text>
<rect x="2161.7" y="248.0" width="388.3" height="132.0" rx="12" fill="#eff6ff" stroke="#2563eb" stroke-width="2"/>
<text x="2175.7" y="278.0" text-anchor="start" fill="#dc2626" font-size="17" font-weight="700">卡点</text>
<text x="2355.8" y="306.0" text-anchor="middle" fill="#b91c1c" font-size="18" font-weight="400">返回链路慢</text>
<text x="2355.8" y="335.4" text-anchor="middle" fill="#0f172a" font-size="17" font-weight="400">看 后处理耗时 / 网络</text>
<text x="50.0" y="436.0" text-anchor="start" fill="#059669" font-size="28" font-weight="700">训练流水线</text>
<rect x="50.0" y="462.0" width="388.3" height="78.0" rx="12" fill="#059669" stroke="none" stroke-width="2"/>
<text x="244.2" y="509.0" text-anchor="middle" fill="#ffffff" font-size="23" font-weight="700">数据加载</text>
<line x1="442.3" y1="501.0" x2="468.3" y2="501.0" stroke="#94a3b8" stroke-width="4.0" stroke-linecap="round"/>
<path d="M 468.3,501.0 L 453.7,507.5 L 453.7,494.5 Z" fill="#94a3b8"/>
<rect x="50.0" y="554.0" width="388.3" height="132.0" rx="12" fill="#ecfdf5" stroke="#059669" stroke-width="2"/>
<text x="64.0" y="584.0" text-anchor="start" fill="#dc2626" font-size="17" font-weight="700">卡点</text>
<text x="244.2" y="612.0" text-anchor="middle" fill="#b91c1c" font-size="18" font-weight="400">远端存储 / 小文件 / worker 少</text>
<text x="244.2" y="641.4" text-anchor="middle" fill="#0f172a" font-size="17" font-weight="400">看 dataloader 占 step 比</text>
<rect x="472.3" y="462.0" width="388.3" height="78.0" rx="12" fill="#059669" stroke="none" stroke-width="2"/>
<text x="666.5" y="509.0" text-anchor="middle" fill="#ffffff" font-size="23" font-weight="700">CPU 预处理</text>
<line x1="864.7" y1="501.0" x2="890.7" y2="501.0" stroke="#94a3b8" stroke-width="4.0" stroke-linecap="round"/>
<path d="M 890.7,501.0 L 876.1,507.5 L 876.1,494.5 Z" fill="#94a3b8"/>
<rect x="472.3" y="554.0" width="388.3" height="132.0" rx="12" fill="#ecfdf5" stroke="#059669" stroke-width="2"/>
<text x="486.3" y="584.0" text-anchor="start" fill="#dc2626" font-size="17" font-weight="700">卡点</text>
<text x="666.5" y="612.0" text-anchor="middle" fill="#b91c1c" font-size="18" font-weight="400">解压 / 增强重</text>
<text x="666.5" y="641.4" text-anchor="middle" fill="#0f172a" font-size="17" font-weight="400">看 CPU_UTIL</text>
<rect x="894.7" y="462.0" width="388.3" height="78.0" rx="12" fill="#059669" stroke="none" stroke-width="2"/>
<text x="1088.8" y="509.0" text-anchor="middle" fill="#ffffff" font-size="23" font-weight="700">H2D 拷贝</text>
<line x1="1287.0" y1="501.0" x2="1313.0" y2="501.0" stroke="#94a3b8" stroke-width="4.0" stroke-linecap="round"/>
<path d="M 1313.0,501.0 L 1298.4,507.5 L 1298.4,494.5 Z" fill="#94a3b8"/>
<rect x="894.7" y="554.0" width="388.3" height="132.0" rx="12" fill="#ecfdf5" stroke="#059669" stroke-width="2"/>
<text x="908.7" y="584.0" text-anchor="start" fill="#dc2626" font-size="17" font-weight="700">卡点</text>
<text x="1088.8" y="612.0" text-anchor="middle" fill="#b91c1c" font-size="18" font-weight="400">喂不动 GPU</text>
<text x="1088.8" y="641.4" text-anchor="middle" fill="#0f172a" font-size="17" font-weight="400">看 MEM_COPY_UTIL</text>
<rect x="1317.0" y="462.0" width="388.3" height="78.0" rx="12" fill="#059669" stroke="none" stroke-width="2"/>
<text x="1511.2" y="509.0" text-anchor="middle" fill="#ffffff" font-size="23" font-weight="700">fwd + bwd</text>
<line x1="1709.3" y1="501.0" x2="1735.3" y2="501.0" stroke="#94a3b8" stroke-width="4.0" stroke-linecap="round"/>
<path d="M 1735.3,501.0 L 1720.7,507.5 L 1720.7,494.5 Z" fill="#94a3b8"/>
<rect x="1317.0" y="554.0" width="388.3" height="132.0" rx="12" fill="#ecfdf5" stroke="#059669" stroke-width="2"/>
<text x="1331.0" y="584.0" text-anchor="start" fill="#dc2626" font-size="17" font-weight="700">卡点</text>
<text x="1511.2" y="612.0" text-anchor="middle" fill="#b91c1c" font-size="18" font-weight="400">batch 小 / 算子碎 / FP32</text>
<text x="1511.2" y="641.4" text-anchor="middle" fill="#0f172a" font-size="17" font-weight="400">看 SM / Tensor active</text>
<rect x="1739.3" y="462.0" width="388.3" height="78.0" rx="12" fill="#059669" stroke="none" stroke-width="2"/>
<text x="1933.5" y="509.0" text-anchor="middle" fill="#ffffff" font-size="23" font-weight="700">梯度同步</text>
<line x1="2131.7" y1="501.0" x2="2157.7" y2="501.0" stroke="#94a3b8" stroke-width="4.0" stroke-linecap="round"/>
<path d="M 2157.7,501.0 L 2143.1,507.5 L 2143.1,494.5 Z" fill="#94a3b8"/>
<rect x="1739.3" y="554.0" width="388.3" height="132.0" rx="12" fill="#ecfdf5" stroke="#059669" stroke-width="2"/>
<text x="1753.3" y="584.0" text-anchor="start" fill="#dc2626" font-size="17" font-weight="700">卡点</text>
<text x="1933.5" y="612.0" text-anchor="middle" fill="#b91c1c" font-size="18" font-weight="400">NCCL / PS / worker skew</text>
<text x="1933.5" y="641.4" text-anchor="middle" fill="#0f172a" font-size="17" font-weight="400">看 all-reduce 耗时 / 网络</text>
<rect x="2161.7" y="462.0" width="388.3" height="78.0" rx="12" fill="#059669" stroke="none" stroke-width="2"/>
<text x="2355.8" y="509.0" text-anchor="middle" fill="#ffffff" font-size="23" font-weight="700">周期阻塞</text>
<rect x="2161.7" y="554.0" width="388.3" height="132.0" rx="12" fill="#ecfdf5" stroke="#059669" stroke-width="2"/>
<text x="2175.7" y="584.0" text-anchor="start" fill="#dc2626" font-size="17" font-weight="700">卡点</text>
<text x="2355.8" y="612.0" text-anchor="middle" fill="#b91c1c" font-size="18" font-weight="400">checkpoint / eval 太频</text>
<text x="2355.8" y="641.4" text-anchor="middle" fill="#0f172a" font-size="17" font-weight="400">看 ckpt 耗时 / global step</text>
</svg>