<svg xmlns="http://www.w3.org/2000/svg" viewBox="0 0 2500 796" font-family="-apple-system, PingFang SC, Microsoft YaHei, Helvetica, Arial, sans-serif">
<rect x="0" y="0" width="2500" height="796" fill="#ffffff"/>
<text x="50.0" y="56.0" text-anchor="start" fill="#0f172a" font-size="34" font-weight="700">GPU 利用率治理的平台落地闭环（采集 → 观测 → 治理 → 行动）</text>
<text x="50.0" y="92.0" text-anchor="start" fill="#64748b" font-size="19" font-weight="400">目标不是把 GPU 打满，而是把『分配 vs 真实利用』讲清，输出规格推荐、准入与分时弹性，按 SLA 做成本治理</text>
<rect x="50.0" y="142.0" width="547.5" height="40.0" rx="10" fill="#f1f5f9" stroke="#059669" stroke-width="1"/>
<text x="323.8" y="169.0" text-anchor="middle" fill="#059669" font-size="18" font-weight="700">平台真实在做</text>
<rect x="50.0" y="200.0" width="547.5" height="64.0" rx="14" fill="#059669" stroke="none" stroke-width="2"/>
<text x="323.8" y="241.0" text-anchor="middle" fill="#ffffff" font-size="27" font-weight="700">采集层</text>
<rect x="50.0" y="280.0" width="547.5" height="78.0" rx="12" fill="#ecfdf5" stroke="#059669" stroke-width="2"/>
<text x="323.8" y="326.0" text-anchor="middle" fill="#1f2937" font-size="19" font-weight="400">DCGM Exporter (GPU 指标)</text>
<rect x="50.0" y="376.0" width="547.5" height="78.0" rx="12" fill="#ecfdf5" stroke="#059669" stroke-width="2"/>
<text x="323.8" y="422.0" text-anchor="middle" fill="#1f2937" font-size="19" font-weight="400">kube-state-metrics (GPU request/Pod)</text>
<rect x="50.0" y="472.0" width="547.5" height="78.0" rx="12" fill="#ecfdf5" stroke="#059669" stroke-width="2"/>
<text x="323.8" y="518.0" text-anchor="middle" fill="#1f2937" font-size="19" font-weight="400">推理/训练框架埋点 (QPS/step)</text>
<line x1="605.5" y1="463.0" x2="659.5" y2="463.0" stroke="#94a3b8" stroke-width="5.0" stroke-linecap="round"/>
<path d="M 659.5,463.0 L 644.9,469.5 L 644.9,456.5 Z" fill="#94a3b8"/>
<rect x="667.5" y="142.0" width="547.5" height="40.0" rx="10" fill="#f1f5f9" stroke="#0891b2" stroke-width="1"/>
<text x="941.2" y="169.0" text-anchor="middle" fill="#0891b2" font-size="18" font-weight="700">平台真实在做</text>
<rect x="667.5" y="200.0" width="547.5" height="64.0" rx="14" fill="#0891b2" stroke="none" stroke-width="2"/>
<text x="941.2" y="241.0" text-anchor="middle" fill="#ffffff" font-size="27" font-weight="700">观测层</text>
<rect x="667.5" y="280.0" width="547.5" height="78.0" rx="12" fill="#ecfeff" stroke="#0891b2" stroke-width="2"/>
<text x="941.2" y="326.0" text-anchor="middle" fill="#1f2937" font-size="19" font-weight="400">Prometheus / VictoriaMetrics</text>
<rect x="667.5" y="376.0" width="547.5" height="78.0" rx="12" fill="#ecfeff" stroke="#0891b2" stroke-width="2"/>
<text x="941.2" y="422.0" text-anchor="middle" fill="#1f2937" font-size="19" font-weight="400">Grafana GPU 看板</text>
<rect x="667.5" y="472.0" width="547.5" height="78.0" rx="12" fill="#ecfeff" stroke="#0891b2" stroke-width="2"/>
<text x="941.2" y="518.0" text-anchor="middle" fill="#1f2937" font-size="19" font-weight="400">告警/事件平台联动</text>
<line x1="1223.0" y1="463.0" x2="1277.0" y2="463.0" stroke="#94a3b8" stroke-width="5.0" stroke-linecap="round"/>
<path d="M 1277.0,463.0 L 1262.4,469.5 L 1262.4,456.5 Z" fill="#94a3b8"/>
<rect x="1285.0" y="142.0" width="547.5" height="40.0" rx="10" fill="#f1f5f9" stroke="#2563eb" stroke-width="1"/>
<text x="1558.8" y="169.0" text-anchor="middle" fill="#2563eb" font-size="18" font-weight="700">可做 / 部分落地</text>
<rect x="1285.0" y="200.0" width="547.5" height="64.0" rx="14" fill="#2563eb" stroke="none" stroke-width="2"/>
<text x="1558.8" y="241.0" text-anchor="middle" fill="#ffffff" font-size="27" font-weight="700">治理层</text>
<rect x="1285.0" y="280.0" width="547.5" height="78.0" rx="12" fill="#eff6ff" stroke="#2563eb" stroke-width="2"/>
<text x="1558.8" y="326.0" text-anchor="middle" fill="#1f2937" font-size="19" font-weight="400">GPU 资源看板 (分配 vs 利用)</text>
<rect x="1285.0" y="376.0" width="547.5" height="78.0" rx="12" fill="#eff6ff" stroke="#2563eb" stroke-width="2"/>
<text x="1558.8" y="422.0" text-anchor="middle" fill="#1f2937" font-size="19" font-weight="400">任务 / 模型画像</text>
<rect x="1285.0" y="472.0" width="547.5" height="78.0" rx="12" fill="#eff6ff" stroke="#2563eb" stroke-width="2"/>
<text x="1558.8" y="518.0" text-anchor="middle" fill="#1f2937" font-size="19" font-weight="400">低利用率规则 (只筛选 不强制)</text>
<line x1="1840.5" y1="463.0" x2="1894.5" y2="463.0" stroke="#94a3b8" stroke-width="5.0" stroke-linecap="round"/>
<path d="M 1894.5,463.0 L 1879.9,469.5 L 1879.9,456.5 Z" fill="#94a3b8"/>
<rect x="1902.5" y="142.0" width="547.5" height="40.0" rx="10" fill="#f1f5f9" stroke="#7c3aed" stroke-width="1"/>
<text x="2176.2" y="169.0" text-anchor="middle" fill="#7c3aed" font-size="18" font-weight="700">演进方向 / 需结合 SLA</text>
<rect x="1902.5" y="200.0" width="547.5" height="64.0" rx="14" fill="#7c3aed" stroke="none" stroke-width="2"/>
<text x="2176.2" y="241.0" text-anchor="middle" fill="#ffffff" font-size="27" font-weight="700">行动层</text>
<rect x="1902.5" y="280.0" width="547.5" height="78.0" rx="12" fill="#f5f3ff" stroke="#7c3aed" stroke-width="2"/>
<text x="2176.2" y="326.0" text-anchor="middle" fill="#1f2937" font-size="19" font-weight="400">规格推荐 / 分层资源池</text>
<rect x="1902.5" y="376.0" width="547.5" height="78.0" rx="12" fill="#f5f3ff" stroke="#7c3aed" stroke-width="2"/>
<text x="2176.2" y="422.0" text-anchor="middle" fill="#1f2937" font-size="19" font-weight="400">多卡准入校验</text>
<rect x="1902.5" y="472.0" width="547.5" height="78.0" rx="12" fill="#f5f3ff" stroke="#7c3aed" stroke-width="2"/>
<text x="2176.2" y="518.0" text-anchor="middle" fill="#1f2937" font-size="19" font-weight="400">分时弹性 / 共卡 (MIG·MPS)</text>
<rect x="1902.5" y="568.0" width="547.5" height="78.0" rx="12" fill="#f5f3ff" stroke="#7c3aed" stroke-width="2"/>
<text x="2176.2" y="614.0" text-anchor="middle" fill="#1f2937" font-size="19" font-weight="400">成本治理榜单</text>
<rect x="50.0" y="690.0" width="2400.0" height="80.0" rx="14" fill="#fff7ed" stroke="#ea580c" stroke-width="2"/>
<text x="74.0" y="724.0" text-anchor="start" fill="#c2410c" font-size="22" font-weight="700">经验边界</text>
<text x="1310.0" y="720.0" text-anchor="middle" fill="#9a3412" font-size="19" font-weight="400">采集 / 观测 / 看板 / 画像 = 平台可观测与治理范围内的真实工作；推理引擎内部 (KV cache / 动态批 / 量化) 与 NCCL 细节 = 对标理解，不夸大为自研</text>
<text x="1310.0" y="744.0" text-anchor="middle" fill="#9a3412" font-size="19" font-weight="400">低利用率规则只用于筛选与给建议，在线推理服务不能脱离业务 SLA 与峰值流量直接强制回收</text>
</svg>