<svg xmlns="http://www.w3.org/2000/svg" viewBox="0 0 835 1327" font-family="-apple-system, PingFang SC, Microsoft YaHei, Helvetica, Arial, sans-serif">
<rect x="0" y="0" width="835" height="1327" fill="#ffffff"/>
<path d="M 167.2,662.8 C 206.2,662.8 206.2,114.5 245.2,114.5" fill="none" stroke="#7c3aed" stroke-width="2.4" stroke-linecap="round"/>
<path d="M 364.0,114.5 C 423.5,114.5 423.5,50.0 483.0,50.0" fill="none" stroke="#7c3aed" stroke-width="2.4" stroke-linecap="round"/>
<path d="M 364.0,114.5 C 423.5,114.5 423.5,93.0 483.0,93.0" fill="none" stroke="#7c3aed" stroke-width="2.4" stroke-linecap="round"/>
<path d="M 364.0,114.5 C 423.5,114.5 423.5,136.0 483.0,136.0" fill="none" stroke="#7c3aed" stroke-width="2.4" stroke-linecap="round"/>
<path d="M 364.0,114.5 C 423.5,114.5 423.5,179.0 483.0,179.0" fill="none" stroke="#7c3aed" stroke-width="2.4" stroke-linecap="round"/>
<path d="M 167.2,662.8 C 206.2,662.8 206.2,265.0 245.2,265.0" fill="none" stroke="#2563eb" stroke-width="2.4" stroke-linecap="round"/>
<path d="M 344.2,265.0 C 413.6,265.0 413.6,222.0 483.0,222.0" fill="none" stroke="#2563eb" stroke-width="2.4" stroke-linecap="round"/>
<path d="M 344.2,265.0 C 413.6,265.0 413.6,265.0 483.0,265.0" fill="none" stroke="#2563eb" stroke-width="2.4" stroke-linecap="round"/>
<path d="M 344.2,265.0 C 413.6,265.0 413.6,308.0 483.0,308.0" fill="none" stroke="#2563eb" stroke-width="2.4" stroke-linecap="round"/>
<path d="M 167.2,662.8 C 206.2,662.8 206.2,394.0 245.2,394.0" fill="none" stroke="#0891b2" stroke-width="2.4" stroke-linecap="round"/>
<path d="M 354.9,394.0 C 419.0,394.0 419.0,351.0 483.0,351.0" fill="none" stroke="#0891b2" stroke-width="2.4" stroke-linecap="round"/>
<path d="M 354.9,394.0 C 419.0,394.0 419.0,394.0 483.0,394.0" fill="none" stroke="#0891b2" stroke-width="2.4" stroke-linecap="round"/>
<path d="M 354.9,394.0 C 419.0,394.0 419.0,437.0 483.0,437.0" fill="none" stroke="#0891b2" stroke-width="2.4" stroke-linecap="round"/>
<path d="M 167.2,662.8 C 206.2,662.8 206.2,544.5 245.2,544.5" fill="none" stroke="#dc2626" stroke-width="2.4" stroke-linecap="round"/>
<path d="M 354.9,544.5 C 419.0,544.5 419.0,480.0 483.0,480.0" fill="none" stroke="#dc2626" stroke-width="2.4" stroke-linecap="round"/>
<path d="M 354.9,544.5 C 419.0,544.5 419.0,523.0 483.0,523.0" fill="none" stroke="#dc2626" stroke-width="2.4" stroke-linecap="round"/>
<path d="M 354.9,544.5 C 419.0,544.5 419.0,566.0 483.0,566.0" fill="none" stroke="#dc2626" stroke-width="2.4" stroke-linecap="round"/>
<path d="M 354.9,544.5 C 419.0,544.5 419.0,609.0 483.0,609.0" fill="none" stroke="#dc2626" stroke-width="2.4" stroke-linecap="round"/>
<path d="M 167.2,662.8 C 206.2,662.8 206.2,716.5 245.2,716.5" fill="none" stroke="#ea580c" stroke-width="2.4" stroke-linecap="round"/>
<path d="M 405.0,716.5 C 444.0,716.5 444.0,652.0 483.0,652.0" fill="none" stroke="#ea580c" stroke-width="2.4" stroke-linecap="round"/>
<path d="M 405.0,716.5 C 444.0,716.5 444.0,695.0 483.0,695.0" fill="none" stroke="#ea580c" stroke-width="2.4" stroke-linecap="round"/>
<path d="M 405.0,716.5 C 444.0,716.5 444.0,738.0 483.0,738.0" fill="none" stroke="#ea580c" stroke-width="2.4" stroke-linecap="round"/>
<path d="M 405.0,716.5 C 444.0,716.5 444.0,781.0 483.0,781.0" fill="none" stroke="#ea580c" stroke-width="2.4" stroke-linecap="round"/>
<path d="M 167.2,662.8 C 206.2,662.8 206.2,888.5 245.2,888.5" fill="none" stroke="#059669" stroke-width="2.4" stroke-linecap="round"/>
<path d="M 344.2,888.5 C 413.6,888.5 413.6,824.0 483.0,824.0" fill="none" stroke="#059669" stroke-width="2.4" stroke-linecap="round"/>
<path d="M 344.2,888.5 C 413.6,888.5 413.6,867.0 483.0,867.0" fill="none" stroke="#059669" stroke-width="2.4" stroke-linecap="round"/>
<path d="M 344.2,888.5 C 413.6,888.5 413.6,910.0 483.0,910.0" fill="none" stroke="#059669" stroke-width="2.4" stroke-linecap="round"/>
<path d="M 344.2,888.5 C 413.6,888.5 413.6,953.0 483.0,953.0" fill="none" stroke="#059669" stroke-width="2.4" stroke-linecap="round"/>
<path d="M 167.2,662.8 C 206.2,662.8 206.2,1060.5 245.2,1060.5" fill="none" stroke="#d97706" stroke-width="2.4" stroke-linecap="round"/>
<path d="M 304.7,1060.5 C 393.9,1060.5 393.9,996.0 483.0,996.0" fill="none" stroke="#d97706" stroke-width="2.4" stroke-linecap="round"/>
<path d="M 304.7,1060.5 C 393.9,1060.5 393.9,1039.0 483.0,1039.0" fill="none" stroke="#d97706" stroke-width="2.4" stroke-linecap="round"/>
<path d="M 304.7,1060.5 C 393.9,1060.5 393.9,1082.0 483.0,1082.0" fill="none" stroke="#d97706" stroke-width="2.4" stroke-linecap="round"/>
<path d="M 304.7,1060.5 C 393.9,1060.5 393.9,1125.0 483.0,1125.0" fill="none" stroke="#d97706" stroke-width="2.4" stroke-linecap="round"/>
<path d="M 167.2,662.8 C 206.2,662.8 206.2,1211.0 245.2,1211.0" fill="none" stroke="#4f46e5" stroke-width="2.4" stroke-linecap="round"/>
<path d="M 344.2,1211.0 C 413.6,1211.0 413.6,1168.0 483.0,1168.0" fill="none" stroke="#4f46e5" stroke-width="2.4" stroke-linecap="round"/>
<path d="M 344.2,1211.0 C 413.6,1211.0 413.6,1211.0 483.0,1211.0" fill="none" stroke="#4f46e5" stroke-width="2.4" stroke-linecap="round"/>
<path d="M 344.2,1211.0 C 413.6,1211.0 413.6,1254.0 483.0,1254.0" fill="none" stroke="#4f46e5" stroke-width="2.4" stroke-linecap="round"/>
<rect x="40" y="637.8" width="127.2" height="50" rx="11" fill="#1e293b"/>
<text x="103.6" y="669.8" text-anchor="middle" fill="#ffffff" font-size="20" font-weight="700">模型压缩</text>
<line x1="245.2" y1="114.5" x2="364.0" y2="114.5" stroke="#7c3aed" stroke-width="2.4" stroke-linecap="round"/>
<text x="255.2" y="106.5" fill="#7c3aed" font-size="19" font-weight="700">它解决什么</text>
<line x1="483.0" y1="50.0" x2="753.8" y2="50.0" stroke="#7c3aed" stroke-width="2.4" stroke-linecap="round"/>
<text x="493.0" y="42.0" fill="#1f2937" font-size="19" font-weight="400">显存装不下→量化减半/到1/4</text>
<line x1="483.0" y1="93.0" x2="775.1" y2="93.0" stroke="#7c3aed" stroke-width="2.4" stroke-linecap="round"/>
<text x="493.0" y="85.0" fill="#1f2937" font-size="19" font-weight="400">decode memory-bound→省带宽</text>
<line x1="483.0" y1="136.0" x2="652.0" y2="136.0" stroke="#7c3aed" stroke-width="2.4" stroke-linecap="round"/>
<text x="493.0" y="128.0" fill="#1f2937" font-size="19" font-weight="400">推理成本高→降本</text>
<line x1="483.0" y1="179.0" x2="702.2" y2="179.0" stroke="#7c3aed" stroke-width="2.4" stroke-linecap="round"/>
<text x="493.0" y="171.0" fill="#1f2937" font-size="19" font-weight="400">要更小部署→剪枝/蒸馏</text>
<line x1="245.2" y1="265.0" x2="344.2" y2="265.0" stroke="#2563eb" stroke-width="2.4" stroke-linecap="round"/>
<text x="255.2" y="257.0" fill="#2563eb" font-size="19" font-weight="700">三类方法</text>
<line x1="483.0" y1="222.0" x2="721.9" y2="222.0" stroke="#2563eb" stroke-width="2.4" stroke-linecap="round"/>
<text x="493.0" y="214.0" fill="#1f2937" font-size="19" font-weight="400">量化:改精度 推理最主流</text>
<line x1="483.0" y1="265.0" x2="764.5" y2="265.0" stroke="#2563eb" stroke-width="2.4" stroke-linecap="round"/>
<text x="493.0" y="257.0" fill="#1f2937" font-size="19" font-weight="400">剪枝:改结构 结构化/2:4稀疏</text>
<line x1="483.0" y1="308.0" x2="782.7" y2="308.0" stroke="#2563eb" stroke-width="2.4" stroke-linecap="round"/>
<text x="493.0" y="300.0" fill="#1f2937" font-size="19" font-weight="400">蒸馏:改规模 teacher→student</text>
<line x1="245.2" y1="394.0" x2="354.9" y2="394.0" stroke="#0891b2" stroke-width="2.4" stroke-linecap="round"/>
<text x="255.2" y="386.0" fill="#0891b2" font-size="19" font-weight="700">量化-精度</text>
<line x1="483.0" y1="351.0" x2="747.8" y2="351.0" stroke="#0891b2" stroke-width="2.4" stroke-linecap="round"/>
<text x="493.0" y="343.0" fill="#1f2937" font-size="19" font-weight="400">FP32→FP16→INT8→FP8→INT4</text>
<line x1="483.0" y1="394.0" x2="680.9" y2="394.0" stroke="#0891b2" stroke-width="2.4" stroke-linecap="round"/>
<text x="493.0" y="386.0" fill="#1f2937" font-size="19" font-weight="400">越低越省越易掉精度</text>
<line x1="483.0" y1="437.0" x2="618.6" y2="437.0" stroke="#0891b2" stroke-width="2.4" stroke-linecap="round"/>
<text x="493.0" y="429.0" fill="#1f2937" font-size="19" font-weight="400">FP8需Hopper</text>
<line x1="245.2" y1="544.5" x2="354.9" y2="544.5" stroke="#dc2626" stroke-width="2.4" stroke-linecap="round"/>
<text x="255.2" y="536.5" fill="#dc2626" font-size="19" font-weight="700">量化-方式</text>
<line x1="483.0" y1="480.0" x2="744.7" y2="480.0" stroke="#dc2626" stroke-width="2.4" stroke-linecap="round"/>
<text x="493.0" y="472.0" fill="#1f2937" font-size="19" font-weight="400">PTQ:训练后 快 可能掉精度</text>
<line x1="483.0" y1="523.0" x2="784.2" y2="523.0" stroke="#dc2626" stroke-width="2.4" stroke-linecap="round"/>
<text x="493.0" y="515.0" fill="#1f2937" font-size="19" font-weight="400">QAT:训练时模拟 精度好 成本高</text>
<line x1="483.0" y1="566.0" x2="773.6" y2="566.0" stroke="#dc2626" stroke-width="2.4" stroke-linecap="round"/>
<text x="493.0" y="558.0" fill="#1f2937" font-size="19" font-weight="400">weight-only:对decode收益大</text>
<line x1="483.0" y1="609.0" x2="747.8" y2="609.0" stroke="#dc2626" stroke-width="2.4" stroke-linecap="round"/>
<text x="493.0" y="601.0" fill="#1f2937" font-size="19" font-weight="400">W8A8:用INT8算力 有离群值</text>
<line x1="245.2" y1="716.5" x2="405.0" y2="716.5" stroke="#ea580c" stroke-width="2.4" stroke-linecap="round"/>
<text x="255.2" y="708.5" fill="#ea580c" font-size="19" font-weight="700">代表方法(对标)</text>
<line x1="483.0" y1="652.0" x2="763.0" y2="652.0" stroke="#ea580c" stroke-width="2.4" stroke-linecap="round"/>
<text x="493.0" y="644.0" fill="#1f2937" font-size="19" font-weight="400">GPTQ:逐层二阶 weight-only</text>
<line x1="483.0" y1="695.0" x2="753.8" y2="695.0" stroke="#ea580c" stroke-width="2.4" stroke-linecap="round"/>
<text x="493.0" y="687.0" fill="#1f2937" font-size="19" font-weight="400">AWQ:激活感知 保护重要权重</text>
<line x1="483.0" y1="738.0" x2="772.1" y2="738.0" stroke="#ea580c" stroke-width="2.4" stroke-linecap="round"/>
<text x="493.0" y="730.0" fill="#1f2937" font-size="19" font-weight="400">SmoothQuant:W8A8平滑离群值</text>
<line x1="483.0" y1="781.0" x2="776.6" y2="781.0" stroke="#ea580c" stroke-width="2.4" stroke-linecap="round"/>
<text x="493.0" y="773.0" fill="#1f2937" font-size="19" font-weight="400">KV Cache量化:省长上下文显存</text>
<line x1="245.2" y1="888.5" x2="344.2" y2="888.5" stroke="#059669" stroke-width="2.4" stroke-linecap="round"/>
<text x="255.2" y="880.5" fill="#059669" font-size="19" font-weight="700">上线流程</text>
<line x1="483.0" y1="824.0" x2="706.7" y2="824.0" stroke="#059669" stroke-width="2.4" stroke-linecap="round"/>
<text x="493.0" y="816.0" fill="#1f2937" font-size="19" font-weight="400">选型→量化/构建engine</text>
<line x1="483.0" y1="867.0" x2="621.6" y2="867.0" stroke="#059669" stroke-width="2.4" stroke-linecap="round"/>
<text x="493.0" y="859.0" fill="#1f2937" font-size="19" font-weight="400">精度回归门禁</text>
<line x1="483.0" y1="910.0" x2="764.5" y2="910.0" stroke="#059669" stroke-width="2.4" stroke-linecap="round"/>
<text x="493.0" y="902.0" fill="#1f2937" font-size="19" font-weight="400">实测显存/吞吐/成本对比FP16</text>
<line x1="483.0" y1="953.0" x2="635.3" y2="953.0" stroke="#059669" stroke-width="2.4" stroke-linecap="round"/>
<text x="493.0" y="945.0" fill="#1f2937" font-size="19" font-weight="400">灰度+FP16回滚</text>
<line x1="245.2" y1="1060.5" x2="304.7" y2="1060.5" stroke="#d97706" stroke-width="2.4" stroke-linecap="round"/>
<text x="255.2" y="1052.5" fill="#d97706" font-size="19" font-weight="700">排障</text>
<line x1="483.0" y1="996.0" x2="756.9" y2="996.0" stroke="#d97706" stroke-width="2.4" stroke-linecap="round"/>
<text x="493.0" y="988.0" fill="#1f2937" font-size="19" font-weight="400">加载失败:格式/硬件/engine</text>
<line x1="483.0" y1="1039.0" x2="772.1" y2="1039.0" stroke="#d97706" stroke-width="2.4" stroke-linecap="round"/>
<text x="493.0" y="1031.0" fill="#1f2937" font-size="19" font-weight="400">精度差:回归/长上下文/校准集</text>
<line x1="483.0" y1="1082.0" x2="785.8" y2="1082.0" stroke="#d97706" stroke-width="2.4" stroke-linecap="round"/>
<text x="493.0" y="1074.0" fill="#1f2937" font-size="19" font-weight="400">收益不足:瓶颈是否带宽/kernel</text>
<line x1="483.0" y1="1125.0" x2="721.9" y2="1125.0" stroke="#d97706" stroke-width="2.4" stroke-linecap="round"/>
<text x="493.0" y="1117.0" fill="#1f2937" font-size="19" font-weight="400">仍OOM:KV Cache/PD分离</text>
<line x1="245.2" y1="1211.0" x2="344.2" y2="1211.0" stroke="#4f46e5" stroke-width="2.4" stroke-linecap="round"/>
<text x="255.2" y="1203.0" fill="#4f46e5" font-size="19" font-weight="700">经验边界</text>
<line x1="483.0" y1="1168.0" x2="772.1" y2="1168.0" stroke="#4f46e5" stroke-width="2.4" stroke-linecap="round"/>
<text x="493.0" y="1160.0" fill="#1f2937" font-size="19" font-weight="400">真做:部署+收益评估+上线排障</text>
<line x1="483.0" y1="1211.0" x2="772.1" y2="1211.0" stroke="#4f46e5" stroke-width="2.4" stroke-linecap="round"/>
<text x="493.0" y="1203.0" fill="#1f2937" font-size="19" font-weight="400">社区通病:格式/硬件/精度回归</text>
<line x1="483.0" y1="1254.0" x2="720.4" y2="1254.0" stroke="#4f46e5" stroke-width="2.4" stroke-linecap="round"/>
<text x="493.0" y="1246.0" fill="#1f2937" font-size="19" font-weight="400">对标:GPTQ/AWQ/QAT算法</text>
</svg>