<svg xmlns="http://www.w3.org/2000/svg" viewBox="0 0 759 1084" font-family="-apple-system, PingFang SC, Microsoft YaHei, Helvetica, Arial, sans-serif">
<rect x="0" y="0" width="759" height="1084" fill="#ffffff"/>
<path d="M 221.6,539.5 C 254.6,539.5 254.6,109.0 287.6,109.0" fill="none" stroke="#0891b2" stroke-width="2.4" stroke-linecap="round"/>
<path d="M 394.3,109.0 C 436.0,109.0 436.0,46.0 477.6,46.0" fill="none" stroke="#0891b2" stroke-width="2.4" stroke-linecap="round"/>
<path d="M 394.3,109.0 C 436.0,109.0 436.0,88.0 477.6,88.0" fill="none" stroke="#0891b2" stroke-width="2.4" stroke-linecap="round"/>
<path d="M 394.3,109.0 C 436.0,109.0 436.0,130.0 477.6,130.0" fill="none" stroke="#0891b2" stroke-width="2.4" stroke-linecap="round"/>
<path d="M 394.3,109.0 C 436.0,109.0 436.0,172.0 477.6,172.0" fill="none" stroke="#0891b2" stroke-width="2.4" stroke-linecap="round"/>
<path d="M 221.6,539.5 C 254.6,539.5 254.6,298.0 287.6,298.0" fill="none" stroke="#2563eb" stroke-width="2.4" stroke-linecap="round"/>
<path d="M 377.0,298.0 C 427.3,298.0 427.3,214.0 477.6,214.0" fill="none" stroke="#2563eb" stroke-width="2.4" stroke-linecap="round"/>
<path d="M 377.0,298.0 C 427.3,298.0 427.3,256.0 477.6,256.0" fill="none" stroke="#2563eb" stroke-width="2.4" stroke-linecap="round"/>
<path d="M 377.0,298.0 C 427.3,298.0 427.3,298.0 477.6,298.0" fill="none" stroke="#2563eb" stroke-width="2.4" stroke-linecap="round"/>
<path d="M 377.0,298.0 C 427.3,298.0 427.3,340.0 477.6,340.0" fill="none" stroke="#2563eb" stroke-width="2.4" stroke-linecap="round"/>
<path d="M 377.0,298.0 C 427.3,298.0 427.3,382.0 477.6,382.0" fill="none" stroke="#2563eb" stroke-width="2.4" stroke-linecap="round"/>
<path d="M 221.6,539.5 C 254.6,539.5 254.6,487.0 287.6,487.0" fill="none" stroke="#dc2626" stroke-width="2.4" stroke-linecap="round"/>
<path d="M 380.4,487.0 C 429.0,487.0 429.0,424.0 477.6,424.0" fill="none" stroke="#dc2626" stroke-width="2.4" stroke-linecap="round"/>
<path d="M 380.4,487.0 C 429.0,487.0 429.0,466.0 477.6,466.0" fill="none" stroke="#dc2626" stroke-width="2.4" stroke-linecap="round"/>
<path d="M 380.4,487.0 C 429.0,487.0 429.0,508.0 477.6,508.0" fill="none" stroke="#dc2626" stroke-width="2.4" stroke-linecap="round"/>
<path d="M 380.4,487.0 C 429.0,487.0 429.0,550.0 477.6,550.0" fill="none" stroke="#dc2626" stroke-width="2.4" stroke-linecap="round"/>
<path d="M 221.6,539.5 C 254.6,539.5 254.6,655.0 287.6,655.0" fill="none" stroke="#ea580c" stroke-width="2.4" stroke-linecap="round"/>
<path d="M 411.6,655.0 C 444.6,655.0 444.6,592.0 477.6,592.0" fill="none" stroke="#ea580c" stroke-width="2.4" stroke-linecap="round"/>
<path d="M 411.6,655.0 C 444.6,655.0 444.6,634.0 477.6,634.0" fill="none" stroke="#ea580c" stroke-width="2.4" stroke-linecap="round"/>
<path d="M 411.6,655.0 C 444.6,655.0 444.6,676.0 477.6,676.0" fill="none" stroke="#ea580c" stroke-width="2.4" stroke-linecap="round"/>
<path d="M 411.6,655.0 C 444.6,655.0 444.6,718.0 477.6,718.0" fill="none" stroke="#ea580c" stroke-width="2.4" stroke-linecap="round"/>
<path d="M 221.6,539.5 C 254.6,539.5 254.6,823.0 287.6,823.0" fill="none" stroke="#059669" stroke-width="2.4" stroke-linecap="round"/>
<path d="M 394.3,823.0 C 436.0,823.0 436.0,760.0 477.6,760.0" fill="none" stroke="#059669" stroke-width="2.4" stroke-linecap="round"/>
<path d="M 394.3,823.0 C 436.0,823.0 436.0,802.0 477.6,802.0" fill="none" stroke="#059669" stroke-width="2.4" stroke-linecap="round"/>
<path d="M 394.3,823.0 C 436.0,823.0 436.0,844.0 477.6,844.0" fill="none" stroke="#059669" stroke-width="2.4" stroke-linecap="round"/>
<path d="M 394.3,823.0 C 436.0,823.0 436.0,886.0 477.6,886.0" fill="none" stroke="#059669" stroke-width="2.4" stroke-linecap="round"/>
<path d="M 221.6,539.5 C 254.6,539.5 254.6,970.0 287.6,970.0" fill="none" stroke="#7c3aed" stroke-width="2.4" stroke-linecap="round"/>
<path d="M 377.0,970.0 C 427.3,970.0 427.3,928.0 477.6,928.0" fill="none" stroke="#7c3aed" stroke-width="2.4" stroke-linecap="round"/>
<path d="M 377.0,970.0 C 427.3,970.0 427.3,970.0 477.6,970.0" fill="none" stroke="#7c3aed" stroke-width="2.4" stroke-linecap="round"/>
<path d="M 377.0,970.0 C 427.3,970.0 427.3,1012.0 477.6,1012.0" fill="none" stroke="#7c3aed" stroke-width="2.4" stroke-linecap="round"/>
<rect x="40" y="514.5" width="181.6" height="50" rx="11" fill="#1e293b"/>
<text x="130.8" y="546.5" text-anchor="middle" fill="#fff" font-size="20" font-weight="700">搜推 SRE 保障</text>
<line x1="287.6" y1="109.0" x2="394.3" y2="109.0" stroke="#0891b2" stroke-width="2.4" stroke-linecap="round"/>
<text x="297.6" y="101.0" fill="#0891b2" font-size="17" font-weight="700">搜推在干嘛</text>
<line x1="477.6" y1="46.0" x2="709.1" y2="46.0" stroke="#0891b2" stroke-width="2.4" stroke-linecap="round"/>
<text x="487.6" y="38.0" fill="#1f2937" font-size="17" font-weight="400">召回-粗排-精排-重排 漏斗</text>
<line x1="477.6" y1="88.0" x2="601.7" y2="88.0" stroke="#0891b2" stroke-width="2.4" stroke-linecap="round"/>
<text x="487.6" y="80.0" fill="#1f2937" font-size="17" font-weight="400">严格延迟预算</text>
<line x1="477.6" y1="130.0" x2="645.9" y2="130.0" stroke="#0891b2" stroke-width="2.4" stroke-linecap="round"/>
<text x="487.6" y="122.0" fill="#1f2937" font-size="17" font-weight="400">模型/特征频繁更新</text>
<line x1="477.6" y1="172.0" x2="595.6" y2="172.0" stroke="#0891b2" stroke-width="2.4" stroke-linecap="round"/>
<text x="487.6" y="164.0" fill="#1f2937" font-size="17" font-weight="400">AB 实验分流</text>
<line x1="287.6" y1="298.0" x2="377.0" y2="298.0" stroke="#2563eb" stroke-width="2.4" stroke-linecap="round"/>
<text x="297.6" y="290.0" fill="#2563eb" font-size="17" font-weight="700">核心概念</text>
<line x1="477.6" y1="214.0" x2="680.6" y2="214.0" stroke="#2563eb" stroke-width="2.4" stroke-linecap="round"/>
<text x="487.6" y="206.0" fill="#1f2937" font-size="17" font-weight="400">漏斗四级 各为在线服务</text>
<line x1="477.6" y1="256.0" x2="645.9" y2="256.0" stroke="#2563eb" stroke-width="2.4" stroke-linecap="round"/>
<text x="487.6" y="248.0" fill="#1f2937" font-size="17" font-weight="400">特征平台/实时特征</text>
<line x1="477.6" y1="298.0" x2="584.3" y2="298.0" stroke="#2563eb" stroke-width="2.4" stroke-linecap="round"/>
<text x="487.6" y="290.0" fill="#1f2937" font-size="17" font-weight="400">模型热更新</text>
<line x1="477.6" y1="340.0" x2="595.6" y2="340.0" stroke="#2563eb" stroke-width="2.4" stroke-linecap="round"/>
<text x="487.6" y="332.0" fill="#1f2937" font-size="17" font-weight="400">低延迟高QPS</text>
<line x1="477.6" y1="382.0" x2="567.0" y2="382.0" stroke="#2563eb" stroke-width="2.4" stroke-linecap="round"/>
<text x="487.6" y="374.0" fill="#1f2937" font-size="17" font-weight="400">降级兜底</text>
<line x1="287.6" y1="487.0" x2="380.4" y2="487.0" stroke="#dc2626" stroke-width="2.4" stroke-linecap="round"/>
<text x="297.6" y="479.0" fill="#dc2626" font-size="17" font-weight="700">SRE 排查</text>
<line x1="477.6" y1="424.0" x2="645.9" y2="424.0" stroke="#dc2626" stroke-width="2.4" stroke-linecap="round"/>
<text x="487.6" y="416.0" fill="#1f2937" font-size="17" font-weight="400">延迟突增 分段定位</text>
<line x1="477.6" y1="466.0" x2="611.2" y2="466.0" stroke="#dc2626" stroke-width="2.4" stroke-linecap="round"/>
<text x="487.6" y="458.0" fill="#1f2937" font-size="17" font-weight="400">结果为空/劣化</text>
<line x1="477.6" y1="508.0" x2="628.5" y2="508.0" stroke="#dc2626" stroke-width="2.4" stroke-linecap="round"/>
<text x="487.6" y="500.0" fill="#1f2937" font-size="17" font-weight="400">更新后出事 回滚</text>
<line x1="477.6" y1="550.0" x2="645.9" y2="550.0" stroke="#dc2626" stroke-width="2.4" stroke-linecap="round"/>
<text x="487.6" y="542.0" fill="#1f2937" font-size="17" font-weight="400">高峰雪崩 限流降级</text>
<line x1="287.6" y1="655.0" x2="411.6" y2="655.0" stroke="#ea580c" stroke-width="2.4" stroke-linecap="round"/>
<text x="297.6" y="647.0" fill="#ea580c" font-size="17" font-weight="700">大模型落地难</text>
<line x1="477.6" y1="592.0" x2="619.0" y2="592.0" stroke="#ea580c" stroke-width="2.4" stroke-linecap="round"/>
<text x="487.6" y="584.0" fill="#1f2937" font-size="17" font-weight="400">延迟预算对不上</text>
<line x1="477.6" y1="634.0" x2="622.4" y2="634.0" stroke="#ea580c" stroke-width="2.4" stroke-linecap="round"/>
<text x="487.6" y="626.0" fill="#1f2937" font-size="17" font-weight="400">成本/ROI不成立</text>
<line x1="477.6" y1="676.0" x2="584.3" y2="676.0" stroke="#ea580c" stroke-width="2.4" stroke-linecap="round"/>
<text x="487.6" y="668.0" fill="#1f2937" font-size="17" font-weight="400">增量更新慢</text>
<line x1="477.6" y1="718.0" x2="664.9" y2="718.0" stroke="#ea580c" stroke-width="2.4" stroke-linecap="round"/>
<text x="487.6" y="710.0" fill="#1f2937" font-size="17" font-weight="400">可解释差 → 多为辅助</text>
<line x1="287.6" y1="823.0" x2="394.3" y2="823.0" stroke="#059669" stroke-width="2.4" stroke-linecap="round"/>
<text x="297.6" y="815.0" fill="#059669" font-size="17" font-weight="700">如果我来做</text>
<line x1="477.6" y1="760.0" x2="622.4" y2="760.0" stroke="#059669" stroke-width="2.4" stroke-linecap="round"/>
<text x="487.6" y="752.0" fill="#1f2937" font-size="17" font-weight="400">分段可观测 P99</text>
<line x1="477.6" y1="802.0" x2="601.7" y2="802.0" stroke="#059669" stroke-width="2.4" stroke-linecap="round"/>
<text x="487.6" y="794.0" fill="#1f2937" font-size="17" font-weight="400">分级降级体系</text>
<line x1="477.6" y1="844.0" x2="655.4" y2="844.0" stroke="#059669" stroke-width="2.4" stroke-linecap="round"/>
<text x="487.6" y="836.0" fill="#1f2937" font-size="17" font-weight="400">变更安全 灰度/回滚</text>
<line x1="477.6" y1="886.0" x2="601.7" y2="886.0" stroke="#059669" stroke-width="2.4" stroke-linecap="round"/>
<text x="487.6" y="878.0" fill="#1f2937" font-size="17" font-weight="400">容量过载保护</text>
<line x1="287.6" y1="970.0" x2="377.0" y2="970.0" stroke="#7c3aed" stroke-width="2.4" stroke-linecap="round"/>
<text x="297.6" y="962.0" fill="#7c3aed" font-size="17" font-weight="700">经验边界</text>
<line x1="477.6" y1="928.0" x2="645.9" y2="928.0" stroke="#7c3aed" stroke-width="2.4" stroke-linecap="round"/>
<text x="487.6" y="920.0" fill="#1f2937" font-size="17" font-weight="400">在线稳定性 可迁移</text>
<line x1="477.6" y1="970.0" x2="645.9" y2="970.0" stroke="#7c3aed" stroke-width="2.4" stroke-linecap="round"/>
<text x="487.6" y="962.0" fill="#1f2937" font-size="17" font-weight="400">算法链路 对标了解</text>
<line x1="477.6" y1="1012.0" x2="619.0" y2="1012.0" stroke="#7c3aed" stroke-width="2.4" stroke-linecap="round"/>
<text x="487.6" y="1004.0" fill="#1f2937" font-size="17" font-weight="400">不假装算法出身</text>
</svg>