<svg xmlns="http://www.w3.org/2000/svg" viewBox="0 0 1012 1391" width="1012" height="1391">
  <style>
    text { font-family: -apple-system, BlinkMacSystemFont, PingFang SC, Microsoft YaHei, Helvetica, Arial, sans-serif; }
  </style>
  <defs>
    <marker id="arrow-blue" markerWidth="12" markerHeight="9" refX="11" refY="4.5" orient="auto">
      <polygon points="0 0, 12 4.5, 0 9" fill="#2563eb"/>
    </marker>
    <marker id="arrow-red" markerWidth="12" markerHeight="9" refX="11" refY="4.5" orient="auto">
      <polygon points="0 0, 12 4.5, 0 9" fill="#dc2626"/>
    </marker>
    <marker id="arrow-green" markerWidth="12" markerHeight="9" refX="11" refY="4.5" orient="auto">
      <polygon points="0 0, 12 4.5, 0 9" fill="#16a34a"/>
    </marker>
    <marker id="arrow-purple" markerWidth="12" markerHeight="9" refX="11" refY="4.5" orient="auto">
      <polygon points="0 0, 12 4.5, 0 9" fill="#9333ea"/>
    </marker>
  </defs>
  <rect width="1012" height="1391" fill="#ffffff"/>
<path d="M 443.1,674.0 C 489.1,674.0 489.1,114.0 535.1,114.0" fill="none" stroke="#7c3aed" stroke-width="2.8" stroke-linecap="round"/>
<path d="M 640.7,114.0 C 686.7,114.0 686.7,58.0 732.7,58.0" fill="none" stroke="#7c3aed" stroke-width="2.8" stroke-linecap="round"/>
<path d="M 640.7,114.0 C 686.7,114.0 686.7,114.0 732.7,114.0" fill="none" stroke="#7c3aed" stroke-width="2.8" stroke-linecap="round"/>
<path d="M 640.7,114.0 C 686.7,114.0 686.7,170.0 732.7,170.0" fill="none" stroke="#7c3aed" stroke-width="2.8" stroke-linecap="round"/>
<path d="M 443.1,674.0 C 489.1,674.0 489.1,282.0 535.1,282.0" fill="none" stroke="#2563eb" stroke-width="2.8" stroke-linecap="round"/>
<path d="M 640.7,282.0 C 686.7,282.0 686.7,226.0 732.7,226.0" fill="none" stroke="#2563eb" stroke-width="2.8" stroke-linecap="round"/>
<path d="M 640.7,282.0 C 686.7,282.0 686.7,282.0 732.7,282.0" fill="none" stroke="#2563eb" stroke-width="2.8" stroke-linecap="round"/>
<path d="M 640.7,282.0 C 686.7,282.0 686.7,338.0 732.7,338.0" fill="none" stroke="#2563eb" stroke-width="2.8" stroke-linecap="round"/>
<path d="M 443.1,674.0 C 489.1,674.0 489.1,478.0 535.1,478.0" fill="none" stroke="#0891b2" stroke-width="2.8" stroke-linecap="round"/>
<path d="M 620.3,478.0 C 676.5,478.0 676.5,394.0 732.7,394.0" fill="none" stroke="#0891b2" stroke-width="2.8" stroke-linecap="round"/>
<path d="M 620.3,478.0 C 676.5,478.0 676.5,450.0 732.7,450.0" fill="none" stroke="#0891b2" stroke-width="2.8" stroke-linecap="round"/>
<path d="M 620.3,478.0 C 676.5,478.0 676.5,506.0 732.7,506.0" fill="none" stroke="#0891b2" stroke-width="2.8" stroke-linecap="round"/>
<path d="M 620.3,478.0 C 676.5,478.0 676.5,562.0 732.7,562.0" fill="none" stroke="#0891b2" stroke-width="2.8" stroke-linecap="round"/>
<path d="M 443.1,674.0 C 489.1,674.0 489.1,702.0 535.1,702.0" fill="none" stroke="#dc2626" stroke-width="2.8" stroke-linecap="round"/>
<path d="M 640.7,702.0 C 686.7,702.0 686.7,618.0 732.7,618.0" fill="none" stroke="#dc2626" stroke-width="2.8" stroke-linecap="round"/>
<path d="M 640.7,702.0 C 686.7,702.0 686.7,674.0 732.7,674.0" fill="none" stroke="#dc2626" stroke-width="2.8" stroke-linecap="round"/>
<path d="M 640.7,702.0 C 686.7,702.0 686.7,730.0 732.7,730.0" fill="none" stroke="#dc2626" stroke-width="2.8" stroke-linecap="round"/>
<path d="M 640.7,702.0 C 686.7,702.0 686.7,786.0 732.7,786.0" fill="none" stroke="#dc2626" stroke-width="2.8" stroke-linecap="round"/>
<path d="M 443.1,674.0 C 489.1,674.0 489.1,898.0 535.1,898.0" fill="none" stroke="#ea580c" stroke-width="2.8" stroke-linecap="round"/>
<path d="M 640.7,898.0 C 686.7,898.0 686.7,842.0 732.7,842.0" fill="none" stroke="#ea580c" stroke-width="2.8" stroke-linecap="round"/>
<path d="M 640.7,898.0 C 686.7,898.0 686.7,898.0 732.7,898.0" fill="none" stroke="#ea580c" stroke-width="2.8" stroke-linecap="round"/>
<path d="M 640.7,898.0 C 686.7,898.0 686.7,954.0 732.7,954.0" fill="none" stroke="#ea580c" stroke-width="2.8" stroke-linecap="round"/>
<path d="M 443.1,674.0 C 489.1,674.0 489.1,1066.0 535.1,1066.0" fill="none" stroke="#059669" stroke-width="2.8" stroke-linecap="round"/>
<path d="M 640.7,1066.0 C 686.7,1066.0 686.7,1010.0 732.7,1010.0" fill="none" stroke="#059669" stroke-width="2.8" stroke-linecap="round"/>
<path d="M 640.7,1066.0 C 686.7,1066.0 686.7,1066.0 732.7,1066.0" fill="none" stroke="#059669" stroke-width="2.8" stroke-linecap="round"/>
<path d="M 640.7,1066.0 C 686.7,1066.0 686.7,1122.0 732.7,1122.0" fill="none" stroke="#059669" stroke-width="2.8" stroke-linecap="round"/>
<path d="M 443.1,674.0 C 489.1,674.0 489.1,1234.0 535.1,1234.0" fill="none" stroke="#d97706" stroke-width="2.8" stroke-linecap="round"/>
<path d="M 640.7,1234.0 C 686.7,1234.0 686.7,1178.0 732.7,1178.0" fill="none" stroke="#d97706" stroke-width="2.8" stroke-linecap="round"/>
<path d="M 640.7,1234.0 C 686.7,1234.0 686.7,1234.0 732.7,1234.0" fill="none" stroke="#d97706" stroke-width="2.8" stroke-linecap="round"/>
<path d="M 640.7,1234.0 C 686.7,1234.0 686.7,1290.0 732.7,1290.0" fill="none" stroke="#d97706" stroke-width="2.8" stroke-linecap="round"/>
<rect x="46" y="645.0" width="397.1" height="58" rx="12" fill="#1e293b"/>
<text x="244.56" y="682.0" fill="#ffffff" font-size="22" font-weight="700" text-anchor="middle">K8s Scheduler Framework 二开</text>
<line x1="535.1" y1="114.0" x2="640.7" y2="114.0" stroke="#7c3aed" stroke-width="2.8" stroke-linecap="round"/>
<text x="547.12" y="105.0" fill="#7c3aed" font-size="20" font-weight="700" text-anchor="start">经验边界</text>
<line x1="732.7" y1="58.0" x2="861.5" y2="58.0" stroke="#7c3aed" stroke-width="2.8" stroke-linecap="round"/>
<text x="744.72" y="49" fill="#1f2937" font-size="20" font-weight="400" text-anchor="start">0 基础上手</text>
<line x1="732.7" y1="114.0" x2="838.3" y2="114.0" stroke="#7c3aed" stroke-width="2.8" stroke-linecap="round"/>
<text x="744.72" y="105" fill="#1f2937" font-size="20" font-weight="400" text-anchor="start">理论对标</text>
<line x1="732.7" y1="170.0" x2="899.5" y2="170.0" stroke="#7c3aed" stroke-width="2.8" stroke-linecap="round"/>
<text x="744.72" y="161" fill="#1f2937" font-size="20" font-weight="400" text-anchor="start">不包装生产主导</text>
<line x1="535.1" y1="282.0" x2="640.7" y2="282.0" stroke="#2563eb" stroke-width="2.8" stroke-linecap="round"/>
<text x="547.12" y="273.0" fill="#2563eb" font-size="20" font-weight="700" text-anchor="start">调度基础</text>
<line x1="732.7" y1="226.0" x2="884.7" y2="226.0" stroke="#2563eb" stroke-width="2.8" stroke-linecap="round"/>
<text x="744.72" y="217" fill="#1f2937" font-size="20" font-weight="400" text-anchor="start">Pod 进入队列</text>
<line x1="732.7" y1="282.0" x2="942.3" y2="282.0" stroke="#2563eb" stroke-width="2.8" stroke-linecap="round"/>
<text x="744.72" y="273" fill="#1f2937" font-size="20" font-weight="400" text-anchor="start">Scheduling Cycle</text>
<line x1="732.7" y1="338.0" x2="907.5" y2="338.0" stroke="#2563eb" stroke-width="2.8" stroke-linecap="round"/>
<text x="744.72" y="329" fill="#1f2937" font-size="20" font-weight="400" text-anchor="start">Binding Cycle</text>
<line x1="535.1" y1="478.0" x2="620.3" y2="478.0" stroke="#0891b2" stroke-width="2.8" stroke-linecap="round"/>
<text x="547.12" y="469.0" fill="#0891b2" font-size="20" font-weight="700" text-anchor="start">扩展点</text>
<line x1="732.7" y1="394.0" x2="919.1" y2="394.0" stroke="#0891b2" stroke-width="2.8" stroke-linecap="round"/>
<text x="744.72" y="385" fill="#1f2937" font-size="20" font-weight="400" text-anchor="start">Filter / Score</text>
<line x1="732.7" y1="450.0" x2="942.3" y2="450.0" stroke="#0891b2" stroke-width="2.8" stroke-linecap="round"/>
<text x="744.72" y="441" fill="#1f2937" font-size="20" font-weight="400" text-anchor="start">Reserve / Permit</text>
<line x1="732.7" y1="506.0" x2="919.1" y2="506.0" stroke="#0891b2" stroke-width="2.8" stroke-linecap="round"/>
<text x="744.72" y="497" fill="#1f2937" font-size="20" font-weight="400" text-anchor="start">PreBind / Bind</text>
<line x1="732.7" y1="562.0" x2="895.9" y2="562.0" stroke="#0891b2" stroke-width="2.8" stroke-linecap="round"/>
<text x="744.72" y="553" fill="#1f2937" font-size="20" font-weight="400" text-anchor="start">QueueingHint</text>
<line x1="535.1" y1="702.0" x2="640.7" y2="702.0" stroke="#dc2626" stroke-width="2.8" stroke-linecap="round"/>
<text x="547.12" y="693.0" fill="#dc2626" font-size="20" font-weight="700" text-anchor="start">开发路径</text>
<line x1="732.7" y1="618.0" x2="838.3" y2="618.0" stroke="#dc2626" stroke-width="2.8" stroke-linecap="round"/>
<text x="744.72" y="609" fill="#1f2937" font-size="20" font-weight="400" text-anchor="start">选插件点</text>
<line x1="732.7" y1="674.0" x2="864.3" y2="674.0" stroke="#dc2626" stroke-width="2.8" stroke-linecap="round"/>
<text x="744.72" y="665" fill="#1f2937" font-size="20" font-weight="400" text-anchor="start">写 Go 插件</text>
<line x1="732.7" y1="730.0" x2="858.7" y2="730.0" stroke="#dc2626" stroke-width="2.8" stroke-linecap="round"/>
<text x="744.72" y="721" fill="#1f2937" font-size="20" font-weight="400" text-anchor="start">注册二进制</text>
<line x1="732.7" y1="786.0" x2="890.3" y2="786.0" stroke="#dc2626" stroke-width="2.8" stroke-linecap="round"/>
<text x="744.72" y="777" fill="#1f2937" font-size="20" font-weight="400" text-anchor="start">配置 Profile</text>
<line x1="535.1" y1="898.0" x2="640.7" y2="898.0" stroke="#ea580c" stroke-width="2.8" stroke-linecap="round"/>
<text x="547.12" y="889.0" fill="#ea580c" font-size="20" font-weight="700" text-anchor="start">本地验证</text>
<line x1="732.7" y1="842.0" x2="930.7" y2="842.0" stroke="#ea580c" stroke-width="2.8" stroke-linecap="round"/>
<text x="744.72" y="833" fill="#1f2937" font-size="20" font-weight="400" text-anchor="start">kind / minikube</text>
<line x1="732.7" y1="898.0" x2="907.5" y2="898.0" stroke="#ea580c" stroke-width="2.8" stroke-linecap="round"/>
<text x="744.72" y="889" fill="#1f2937" font-size="20" font-weight="400" text-anchor="start">schedulerName</text>
<line x1="732.7" y1="954.0" x2="895.9" y2="954.0" stroke="#ea580c" stroke-width="2.8" stroke-linecap="round"/>
<text x="744.72" y="945" fill="#1f2937" font-size="20" font-weight="400" text-anchor="start">Event / logs</text>
<line x1="535.1" y1="1066.0" x2="640.7" y2="1066.0" stroke="#059669" stroke-width="2.8" stroke-linecap="round"/>
<text x="547.12" y="1057.0" fill="#059669" font-size="20" font-weight="700" text-anchor="start">排障上线</text>
<line x1="732.7" y1="1010.0" x2="878.7" y2="1010.0" stroke="#059669" stroke-width="2.8" stroke-linecap="round"/>
<text x="744.72" y="1001" fill="#1f2937" font-size="20" font-weight="400" text-anchor="start">RBAC / 配置</text>
<line x1="732.7" y1="1066.0" x2="858.7" y2="1066.0" stroke="#059669" stroke-width="2.8" stroke-linecap="round"/>
<text x="744.72" y="1057" fill="#1f2937" font-size="20" font-weight="400" text-anchor="start">版本强绑定</text>
<line x1="732.7" y1="1122.0" x2="838.3" y2="1122.0" stroke="#059669" stroke-width="2.8" stroke-linecap="round"/>
<text x="744.72" y="1113" fill="#1f2937" font-size="20" font-weight="400" text-anchor="start">灰度回滚</text>
<line x1="535.1" y1="1234.0" x2="640.7" y2="1234.0" stroke="#d97706" stroke-width="2.8" stroke-linecap="round"/>
<text x="547.12" y="1225.0" fill="#d97706" font-size="20" font-weight="700" text-anchor="start">面试表达</text>
<line x1="732.7" y1="1178.0" x2="858.7" y2="1178.0" stroke="#d97706" stroke-width="2.8" stroke-linecap="round"/>
<text x="744.72" y="1169" fill="#1f2937" font-size="20" font-weight="400" text-anchor="start">能说清边界</text>
<line x1="732.7" y1="1234.0" x2="838.3" y2="1234.0" stroke="#d97706" stroke-width="2.8" stroke-linecap="round"/>
<text x="744.72" y="1225" fill="#1f2937" font-size="20" font-weight="400" text-anchor="start">能讲落地</text>
<line x1="732.7" y1="1290.0" x2="890.3" y2="1290.0" stroke="#d97706" stroke-width="2.8" stroke-linecap="round"/>
<text x="744.72" y="1281" fill="#1f2937" font-size="20" font-weight="400" text-anchor="start">能排 Pending</text>
</svg>
