<svg xmlns="http://www.w3.org/2000/svg" viewBox="0 0 1280 800" width="1280" height="800">
  <style>
    text { font-family: 'Helvetica Neue', Helvetica, Arial, 'PingFang SC', 'Microsoft YaHei', 'Microsoft JhengHei', 'SimHei', sans-serif; }
    .title { fill: #111827; font-size: 24px; font-weight: 700; }
    .subtitle { fill: #6b7280; font-size: 13px; }
    .lane-label { fill: #374151; font-size: 12px; font-weight: 700; letter-spacing: 0.04em; }
    .node-title { fill: #111827; font-size: 14px; font-weight: 700; }
    .node-text { fill: #4b5563; font-size: 11px; }
    .small { fill: #6b7280; font-size: 10.5px; }
    .label { fill: #4b5563; font-size: 11px; font-weight: 600; }
  </style>
  <defs>
    <marker id="arrow-blue" markerWidth="10" markerHeight="7" refX="9" refY="3.5" orient="auto">
      <polygon points="0 0, 10 3.5, 0 7" fill="#2563eb"/>
    </marker>
    <marker id="arrow-green" markerWidth="10" markerHeight="7" refX="9" refY="3.5" orient="auto">
      <polygon points="0 0, 10 3.5, 0 7" fill="#16a34a"/>
    </marker>
    <marker id="arrow-purple" markerWidth="10" markerHeight="7" refX="9" refY="3.5" orient="auto">
      <polygon points="0 0, 10 3.5, 0 7" fill="#9333ea"/>
    </marker>
    <marker id="arrow-gray" markerWidth="10" markerHeight="7" refX="9" refY="3.5" orient="auto">
      <polygon points="0 0, 10 3.5, 0 7" fill="#6b7280"/>
    </marker>
  </defs>

  <rect width="1280" height="800" fill="#ffffff"/>
  <text x="40" y="42" class="title">SAE Console 中 Java 服务构建 Pipeline 架构</text>
  <text x="40" y="65" class="subtitle">依据 sae-console 的 pipeline controller、参数生成、Tekton PipelineRun 创建与状态回写路径整理</text>

  <rect x="40" y="88" width="1200" height="108" rx="8" fill="#eff6ff" fill-opacity="0.48" stroke="#bfdbfe" stroke-width="1.3" stroke-dasharray="7,5"/>
  <text x="58" y="112" class="lane-label">触发入口</text>

  <rect x="78" y="126" width="155" height="50" rx="8" fill="#ffffff" stroke="#bfdbfe" stroke-width="1.4"/>
  <text x="155.5" y="147" text-anchor="middle" class="node-title">手动构建</text>
  <text x="155.5" y="164" text-anchor="middle" class="node-text">/pipeline/trigger/user</text>

  <rect x="283" y="126" width="155" height="50" rx="8" fill="#ffffff" stroke="#bfdbfe" stroke-width="1.4"/>
  <text x="360.5" y="147" text-anchor="middle" class="node-title">MCP / API</text>
  <text x="360.5" y="164" text-anchor="middle" class="node-text">/mcp/pipeline/trigger</text>

  <rect x="488" y="126" width="155" height="50" rx="8" fill="#ffffff" stroke="#bfdbfe" stroke-width="1.4"/>
  <text x="565.5" y="147" text-anchor="middle" class="node-title">GitLab 事件</text>
  <text x="565.5" y="164" text-anchor="middle" class="node-text">/pipeline/trigger/event</text>

  <rect x="693" y="126" width="175" height="50" rx="8" fill="#ffffff" stroke="#bfdbfe" stroke-width="1.4"/>
  <text x="780.5" y="147" text-anchor="middle" class="node-title">GitLab Repo</text>
  <text x="780.5" y="164" text-anchor="middle" class="node-text">branch / tag / commit</text>

  <rect x="918" y="126" width="250" height="50" rx="8" fill="#ffffff" stroke="#bfdbfe" stroke-width="1.4"/>
  <text x="1043" y="147" text-anchor="middle" class="node-title">应用构建配置</text>
  <text x="1043" y="164" text-anchor="middle" class="node-text">repo_path / module / template / env</text>

  <rect x="40" y="224" width="1200" height="172" rx="8" fill="#f0fdf4" fill-opacity="0.5" stroke="#bbf7d0" stroke-width="1.3" stroke-dasharray="7,5"/>
  <text x="58" y="248" class="lane-label">SAE Console 控制面</text>

  <ellipse cx="122" cy="280" rx="58" ry="14" fill="#dcfce7" stroke="#86efac" stroke-width="1.4"/>
  <rect x="64" y="280" width="116" height="62" fill="#dcfce7" stroke="none"/>
  <line x1="64" y1="280" x2="64" y2="342" stroke="#86efac" stroke-width="1.4"/>
  <line x1="180" y1="280" x2="180" y2="342" stroke="#86efac" stroke-width="1.4"/>
  <ellipse cx="122" cy="342" rx="58" ry="14" fill="#bbf7d0" stroke="#86efac" stroke-width="1.4"/>
  <text x="122" y="306" text-anchor="middle" class="node-title">application</text>
  <text x="122" y="323" text-anchor="middle" class="node-text">应用元数据</text>

  <rect x="232" y="270" width="140" height="72" rx="8" fill="#ffffff" stroke="#86efac" stroke-width="1.4"/>
  <text x="302" y="293" text-anchor="middle" class="node-title">成员校验</text>
  <text x="302" y="311" text-anchor="middle" class="node-text">app member</text>
  <text x="302" y="327" text-anchor="middle" class="node-text">ops 白名单</text>

  <rect x="424" y="270" width="150" height="72" rx="8" fill="#ffffff" stroke="#86efac" stroke-width="1.4"/>
  <text x="499" y="293" text-anchor="middle" class="node-title">Trigger Controller</text>
  <text x="499" y="311" text-anchor="middle" class="node-text">User / API / Event</text>
  <text x="499" y="327" text-anchor="middle" class="node-text">commit 解析</text>

  <rect x="626" y="270" width="165" height="72" rx="8" fill="#ffffff" stroke="#86efac" stroke-width="1.4"/>
  <text x="708.5" y="293" text-anchor="middle" class="node-title">ResourceToParams</text>
  <text x="708.5" y="311" text-anchor="middle" class="node-text">pipeline-cfg / git-url</text>
  <text x="708.5" y="327" text-anchor="middle" class="node-text">docker-image / builder</text>

  <rect x="843" y="270" width="172" height="72" rx="8" fill="#ffffff" stroke="#86efac" stroke-width="1.4"/>
  <text x="929" y="293" text-anchor="middle" class="node-title">rewritePipeline</text>
  <text x="929" y="311" text-anchor="middle" class="node-text">openjdk8 -&gt; maven3-6</text>
  <text x="929" y="327" text-anchor="middle" class="node-text">openjdk17 -&gt; jdk17</text>

  <ellipse cx="1110" cy="280" rx="74" ry="14" fill="#dcfce7" stroke="#86efac" stroke-width="1.4"/>
  <rect x="1036" y="280" width="148" height="62" fill="#dcfce7" stroke="none"/>
  <line x1="1036" y1="280" x2="1036" y2="342" stroke="#86efac" stroke-width="1.4"/>
  <line x1="1184" y1="280" x2="1184" y2="342" stroke="#86efac" stroke-width="1.4"/>
  <ellipse cx="1110" cy="342" rx="74" ry="14" fill="#bbf7d0" stroke="#86efac" stroke-width="1.4"/>
  <text x="1110" y="305" text-anchor="middle" class="node-title">pipeline_history</text>
  <text x="1110" y="323" text-anchor="middle" class="node-text">Pending / image</text>

  <rect x="40" y="424" width="1200" height="190" rx="8" fill="#fff7ed" fill-opacity="0.5" stroke="#fed7aa" stroke-width="1.3" stroke-dasharray="7,5"/>
  <text x="58" y="448" class="lane-label">Tekton 执行面</text>

  <rect x="62" y="476" width="138" height="76" rx="8" fill="#ffffff" stroke="#fdba74" stroke-width="1.4"/>
  <text x="131" y="498" text-anchor="middle" class="node-title">PipelineRun</text>
  <text x="131" y="516" text-anchor="middle" class="node-text">tekton-pipelines</text>
  <text x="131" y="532" text-anchor="middle" class="node-text">tekton-pipeline-sa</text>

  <rect x="222" y="476" width="138" height="76" rx="8" fill="#ffffff" stroke="#fdba74" stroke-width="1.4"/>
  <text x="291" y="498" text-anchor="middle" class="node-title">PipelineRef</text>
  <text x="291" y="516" text-anchor="middle" class="node-text">pipeline-maven3-6</text>
  <text x="291" y="532" text-anchor="middle" class="node-text">scancode</text>

  <rect x="382" y="476" width="138" height="76" rx="8" fill="#ffffff" stroke="#fdba74" stroke-width="1.4"/>
  <text x="451" y="498" text-anchor="middle" class="node-title">git-clone</text>
  <text x="451" y="516" text-anchor="middle" class="node-text">clone repo</text>
  <text x="451" y="532" text-anchor="middle" class="node-text">checkout revision</text>

  <rect x="542" y="476" width="138" height="76" rx="8" fill="#ffffff" stroke="#fdba74" stroke-width="1.4"/>
  <text x="611" y="498" text-anchor="middle" class="node-title">scan-code</text>
  <text x="611" y="516" text-anchor="middle" class="node-text">code-scan-java</text>
  <text x="611" y="532" text-anchor="middle" class="node-text">SDK / 规范扫描</text>

  <rect x="702" y="476" width="138" height="76" rx="8" fill="#ffffff" stroke="#fdba74" stroke-width="1.4"/>
  <text x="771" y="498" text-anchor="middle" class="node-title">maven-run</text>
  <text x="771" y="516" text-anchor="middle" class="node-text">clean package -Penv</text>
  <text x="771" y="532" text-anchor="middle" class="node-text">skip tests / module pom</text>

  <rect x="862" y="476" width="138" height="76" rx="8" fill="#ffffff" stroke="#fdba74" stroke-width="1.4"/>
  <text x="931" y="498" text-anchor="middle" class="node-title">docker-build</text>
  <text x="931" y="516" text-anchor="middle" class="node-text">Dockerfile</text>
  <text x="931" y="532" text-anchor="middle" class="node-text">build &amp; push image</text>

  <rect x="1022" y="476" width="138" height="76" rx="8" fill="#ffffff" stroke="#fdba74" stroke-width="1.4"/>
  <text x="1091" y="498" text-anchor="middle" class="node-title">deploy / testcase</text>
  <text x="1091" y="516" text-anchor="middle" class="node-text">dev/test/qa/gray</text>
  <text x="1091" y="532" text-anchor="middle" class="node-text">发布与用例回调</text>

  <rect x="40" y="646" width="1200" height="110" rx="8" fill="#faf5ff" fill-opacity="0.54" stroke="#e9d5ff" stroke-width="1.3" stroke-dasharray="7,5"/>
  <text x="58" y="670" class="lane-label">配置、制品与状态回流</text>

  <rect x="82" y="690" width="190" height="45" rx="8" fill="#ffffff" stroke="#d8b4fe" stroke-width="1.4"/>
  <text x="177" y="708" text-anchor="middle" class="node-title">Pipeline ConfigMap</text>
  <text x="177" y="724" text-anchor="middle" class="node-text">{cluster}-{ns}-{app}: script / Dockerfile</text>

  <ellipse cx="408" cy="699" rx="82" ry="13" fill="#ede9fe" stroke="#d8b4fe" stroke-width="1.4"/>
  <rect x="326" y="699" width="164" height="36" fill="#ede9fe" stroke="none"/>
  <line x1="326" y1="699" x2="326" y2="735" stroke="#d8b4fe" stroke-width="1.4"/>
  <line x1="490" y1="699" x2="490" y2="735" stroke="#d8b4fe" stroke-width="1.4"/>
  <ellipse cx="408" cy="735" rx="82" ry="13" fill="#ddd6fe" stroke="#d8b4fe" stroke-width="1.4"/>
  <text x="408" y="717" text-anchor="middle" class="node-title">Harbor Image</text>
  <text x="408" y="732" text-anchor="middle" class="small">/sae/ns/app:env-sha-time</text>

  <rect x="548" y="690" width="168" height="45" rx="8" fill="#ffffff" stroke="#d8b4fe" stroke-width="1.4"/>
  <text x="632" y="708" text-anchor="middle" class="node-title">SAE Application</text>
  <text x="632" y="724" text-anchor="middle" class="node-text">Kubernetes Deployment</text>

  <rect x="780" y="690" width="178" height="45" rx="8" fill="#ffffff" stroke="#d8b4fe" stroke-width="1.4"/>
  <text x="869" y="708" text-anchor="middle" class="node-title">PipelineRun Watcher</text>
  <text x="869" y="724" text-anchor="middle" class="node-text">Started / Running / Ready / Failed</text>

  <rect x="1016" y="690" width="168" height="45" rx="8" fill="#ffffff" stroke="#d8b4fe" stroke-width="1.4"/>
  <text x="1100" y="708" text-anchor="middle" class="node-title">通知与查询</text>
  <text x="1100" y="724" text-anchor="middle" class="node-text">Feishu / history / check</text>

  <path d="M233 151 L424 291" fill="none" stroke="#2563eb" stroke-width="1.7" marker-end="url(#arrow-blue)"/>
  <path d="M438 151 L424 291" fill="none" stroke="#2563eb" stroke-width="1.7" marker-end="url(#arrow-blue)"/>
  <path d="M565 176 L499 270" fill="none" stroke="#2563eb" stroke-width="1.7" marker-end="url(#arrow-blue)"/>
  <path d="M780 176 L451 476" fill="none" stroke="#6b7280" stroke-width="1.4" stroke-dasharray="6,4" marker-end="url(#arrow-gray)"/>
  <path d="M1043 176 L708 270" fill="none" stroke="#16a34a" stroke-width="1.5" marker-end="url(#arrow-green)"/>
  <path d="M180 311 L232 311" fill="none" stroke="#16a34a" stroke-width="1.5" marker-end="url(#arrow-green)"/>
  <path d="M372 306 L424 306" fill="none" stroke="#2563eb" stroke-width="1.7" marker-end="url(#arrow-blue)"/>
  <path d="M574 306 L626 306" fill="none" stroke="#2563eb" stroke-width="1.7" marker-end="url(#arrow-blue)"/>
  <path d="M791 306 L843 306" fill="none" stroke="#2563eb" stroke-width="1.7" marker-end="url(#arrow-blue)"/>
  <path d="M1015 306 L1036 306" fill="none" stroke="#2563eb" stroke-width="1.7" marker-end="url(#arrow-blue)"/>
  <path d="M929 342 L131 476" fill="none" stroke="#2563eb" stroke-width="1.7" marker-end="url(#arrow-blue)"/>
  <path d="M200 514 L222 514" fill="none" stroke="#2563eb" stroke-width="1.7" marker-end="url(#arrow-blue)"/>
  <path d="M360 514 L382 514" fill="none" stroke="#2563eb" stroke-width="1.7" marker-end="url(#arrow-blue)"/>
  <path d="M520 514 L542 514" fill="none" stroke="#2563eb" stroke-width="1.7" marker-end="url(#arrow-blue)"/>
  <path d="M680 514 L702 514" fill="none" stroke="#2563eb" stroke-width="1.7" marker-end="url(#arrow-blue)"/>
  <path d="M840 514 L862 514" fill="none" stroke="#2563eb" stroke-width="1.7" marker-end="url(#arrow-blue)"/>
  <path d="M1000 514 L1022 514" fill="none" stroke="#2563eb" stroke-width="1.7" marker-end="url(#arrow-blue)"/>
  <path d="M177 690 L708 342" fill="none" stroke="#16a34a" stroke-width="1.4" stroke-dasharray="6,4" marker-end="url(#arrow-green)"/>
  <path d="M177 690 L931 552" fill="none" stroke="#16a34a" stroke-width="1.4" stroke-dasharray="6,4" marker-end="url(#arrow-green)"/>
  <path d="M931 552 L408 690" fill="none" stroke="#16a34a" stroke-width="1.6" marker-end="url(#arrow-green)"/>
  <path d="M1091 552 L632 690" fill="none" stroke="#2563eb" stroke-width="1.7" marker-end="url(#arrow-blue)"/>
  <path d="M131 552 L869 690" fill="none" stroke="#9333ea" stroke-width="1.5" stroke-dasharray="6,4" marker-end="url(#arrow-purple)"/>
  <path d="M869 690 L1110 356" fill="none" stroke="#9333ea" stroke-width="1.5" stroke-dasharray="6,4" marker-end="url(#arrow-purple)"/>
  <path d="M958 712 L1016 712" fill="none" stroke="#9333ea" stroke-width="1.5" marker-end="url(#arrow-purple)"/>

  <rect x="635" y="362" width="180" height="24" rx="6" fill="#ffffff" stroke="#bbf7d0" stroke-width="1"/>
  <text x="725" y="379" text-anchor="middle" class="label">生成参数与镜像名</text>
  <rect x="805" y="384" width="178" height="24" rx="6" fill="#ffffff" stroke="#bbf7d0" stroke-width="1"/>
  <text x="894" y="401" text-anchor="middle" class="label">选择 Java PipelineRef</text>
  <rect x="675" y="556" width="244" height="22" rx="6" fill="#ffffff" stroke="#fed7aa" stroke-width="1"/>
  <text x="797" y="572" text-anchor="middle" class="label">Tekton TaskRun 顺序执行</text>

  <g transform="translate(58, 770)">
    <line x1="0" y1="0" x2="34" y2="0" stroke="#2563eb" stroke-width="1.7" marker-end="url(#arrow-blue)"/>
    <text x="42" y="4" class="small">主构建发布流</text>
    <line x1="150" y1="0" x2="184" y2="0" stroke="#16a34a" stroke-width="1.6" marker-end="url(#arrow-green)"/>
    <text x="192" y="4" class="small">配置与制品</text>
    <line x1="300" y1="0" x2="334" y2="0" stroke="#9333ea" stroke-width="1.5" stroke-dasharray="6,4" marker-end="url(#arrow-purple)"/>
    <text x="342" y="4" class="small">状态回写</text>
    <line x1="450" y1="0" x2="484" y2="0" stroke="#6b7280" stroke-width="1.4" stroke-dasharray="6,4" marker-end="url(#arrow-gray)"/>
    <text x="492" y="4" class="small">源码引用</text>
  </g>
</svg>
