<svg xmlns="http://www.w3.org/2000/svg" viewBox="0 0 1033 1432" font-family="-apple-system, PingFang SC, Microsoft YaHei, Helvetica, Arial, sans-serif">
<rect x="0" y="0" width="1033" height="1432" fill="#ffffff"/>
<path d="M 281.1,702.0 C 321.1,702.0 321.1,102.0 361.1,102.0" fill="none" stroke="#7c3aed" stroke-width="2.4" stroke-linecap="round"/>
<path d="M 485.1,102.0 C 586.1,102.0 586.1,52.0 687.1,52.0" fill="none" stroke="#7c3aed" stroke-width="2.4" stroke-linecap="round"/>
<path d="M 485.1,102.0 C 586.1,102.0 586.1,102.0 687.1,102.0" fill="none" stroke="#7c3aed" stroke-width="2.4" stroke-linecap="round"/>
<path d="M 485.1,102.0 C 586.1,102.0 586.1,152.0 687.1,152.0" fill="none" stroke="#7c3aed" stroke-width="2.4" stroke-linecap="round"/>
<path d="M 281.1,702.0 C 321.1,702.0 321.1,277.0 361.1,277.0" fill="none" stroke="#2563eb" stroke-width="2.4" stroke-linecap="round"/>
<path d="M 464.7,277.0 C 575.9,277.0 575.9,202.0 687.1,202.0" fill="none" stroke="#2563eb" stroke-width="2.4" stroke-linecap="round"/>
<path d="M 464.7,277.0 C 575.9,277.0 575.9,252.0 687.1,252.0" fill="none" stroke="#2563eb" stroke-width="2.4" stroke-linecap="round"/>
<path d="M 464.7,277.0 C 575.9,277.0 575.9,302.0 687.1,302.0" fill="none" stroke="#2563eb" stroke-width="2.4" stroke-linecap="round"/>
<path d="M 464.7,277.0 C 575.9,277.0 575.9,352.0 687.1,352.0" fill="none" stroke="#2563eb" stroke-width="2.4" stroke-linecap="round"/>
<path d="M 281.1,702.0 C 321.1,702.0 321.1,477.0 361.1,477.0" fill="none" stroke="#0891b2" stroke-width="2.4" stroke-linecap="round"/>
<path d="M 607.1,477.0 C 647.1,477.0 647.1,402.0 687.1,402.0" fill="none" stroke="#0891b2" stroke-width="2.4" stroke-linecap="round"/>
<path d="M 607.1,477.0 C 647.1,477.0 647.1,452.0 687.1,452.0" fill="none" stroke="#0891b2" stroke-width="2.4" stroke-linecap="round"/>
<path d="M 607.1,477.0 C 647.1,477.0 647.1,502.0 687.1,502.0" fill="none" stroke="#0891b2" stroke-width="2.4" stroke-linecap="round"/>
<path d="M 607.1,477.0 C 647.1,477.0 647.1,552.0 687.1,552.0" fill="none" stroke="#0891b2" stroke-width="2.4" stroke-linecap="round"/>
<path d="M 281.1,702.0 C 321.1,702.0 321.1,652.0 361.1,652.0" fill="none" stroke="#dc2626" stroke-width="2.4" stroke-linecap="round"/>
<path d="M 485.1,652.0 C 586.1,652.0 586.1,602.0 687.1,602.0" fill="none" stroke="#dc2626" stroke-width="2.4" stroke-linecap="round"/>
<path d="M 485.1,652.0 C 586.1,652.0 586.1,652.0 687.1,652.0" fill="none" stroke="#dc2626" stroke-width="2.4" stroke-linecap="round"/>
<path d="M 485.1,652.0 C 586.1,652.0 586.1,702.0 687.1,702.0" fill="none" stroke="#dc2626" stroke-width="2.4" stroke-linecap="round"/>
<path d="M 281.1,702.0 C 321.1,702.0 321.1,827.0 361.1,827.0" fill="none" stroke="#ea580c" stroke-width="2.4" stroke-linecap="round"/>
<path d="M 569.5,827.0 C 628.3,827.0 628.3,752.0 687.1,752.0" fill="none" stroke="#ea580c" stroke-width="2.4" stroke-linecap="round"/>
<path d="M 569.5,827.0 C 628.3,827.0 628.3,802.0 687.1,802.0" fill="none" stroke="#ea580c" stroke-width="2.4" stroke-linecap="round"/>
<path d="M 569.5,827.0 C 628.3,827.0 628.3,852.0 687.1,852.0" fill="none" stroke="#ea580c" stroke-width="2.4" stroke-linecap="round"/>
<path d="M 569.5,827.0 C 628.3,827.0 628.3,902.0 687.1,902.0" fill="none" stroke="#ea580c" stroke-width="2.4" stroke-linecap="round"/>
<path d="M 281.1,702.0 C 321.1,702.0 321.1,1002.0 361.1,1002.0" fill="none" stroke="#059669" stroke-width="2.4" stroke-linecap="round"/>
<path d="M 464.7,1002.0 C 575.9,1002.0 575.9,952.0 687.1,952.0" fill="none" stroke="#059669" stroke-width="2.4" stroke-linecap="round"/>
<path d="M 464.7,1002.0 C 575.9,1002.0 575.9,1002.0 687.1,1002.0" fill="none" stroke="#059669" stroke-width="2.4" stroke-linecap="round"/>
<path d="M 464.7,1002.0 C 575.9,1002.0 575.9,1052.0 687.1,1052.0" fill="none" stroke="#059669" stroke-width="2.4" stroke-linecap="round"/>
<path d="M 281.1,702.0 C 321.1,702.0 321.1,1152.0 361.1,1152.0" fill="none" stroke="#d97706" stroke-width="2.4" stroke-linecap="round"/>
<path d="M 505.5,1152.0 C 596.3,1152.0 596.3,1102.0 687.1,1102.0" fill="none" stroke="#d97706" stroke-width="2.4" stroke-linecap="round"/>
<path d="M 505.5,1152.0 C 596.3,1152.0 596.3,1152.0 687.1,1152.0" fill="none" stroke="#d97706" stroke-width="2.4" stroke-linecap="round"/>
<path d="M 505.5,1152.0 C 596.3,1152.0 596.3,1202.0 687.1,1202.0" fill="none" stroke="#d97706" stroke-width="2.4" stroke-linecap="round"/>
<path d="M 281.1,702.0 C 321.1,702.0 321.1,1302.0 361.1,1302.0" fill="none" stroke="#4f46e5" stroke-width="2.4" stroke-linecap="round"/>
<path d="M 485.1,1302.0 C 586.1,1302.0 586.1,1252.0 687.1,1252.0" fill="none" stroke="#4f46e5" stroke-width="2.4" stroke-linecap="round"/>
<path d="M 485.1,1302.0 C 586.1,1302.0 586.1,1302.0 687.1,1302.0" fill="none" stroke="#4f46e5" stroke-width="2.4" stroke-linecap="round"/>
<path d="M 485.1,1302.0 C 586.1,1302.0 586.1,1352.0 687.1,1352.0" fill="none" stroke="#4f46e5" stroke-width="2.4" stroke-linecap="round"/>
<rect x="40" y="675.0" width="241.1" height="54" rx="11" fill="#1e293b"/>
<text x="160.6" y="709.0" text-anchor="middle" fill="#ffffff" font-size="22" font-weight="700">SAE K8s Operator</text>
<line x1="361.1" y1="102.0" x2="485.1" y2="102.0" stroke="#7c3aed" stroke-width="2.4" stroke-linecap="round"/>
<text x="372.1" y="94.0" fill="#7c3aed" font-size="20" font-weight="700">定位与价值</text>
<line x1="687.1" y1="52.0" x2="872.3" y2="52.0" stroke="#7c3aed" stroke-width="2.4" stroke-linecap="round"/>
<text x="698.1" y="44.0" fill="#1f2937" font-size="20" font-weight="400">应用一等公民抽象</text>
<line x1="687.1" y1="102.0" x2="876.3" y2="102.0" stroke="#7c3aed" stroke-width="2.4" stroke-linecap="round"/>
<text x="698.1" y="94.0" fill="#1f2937" font-size="20" font-weight="400">声明式替代拼YAML</text>
<line x1="687.1" y1="152.0" x2="919.1" y2="152.0" stroke="#7c3aed" stroke-width="2.4" stroke-linecap="round"/>
<text x="698.1" y="144.0" fill="#1f2937" font-size="20" font-weight="400">我:apps核心+流量路由</text>
<line x1="361.1" y1="277.0" x2="464.7" y2="277.0" stroke="#2563eb" stroke-width="2.4" stroke-linecap="round"/>
<text x="372.1" y="269.0" fill="#2563eb" font-size="20" font-weight="700">原理分层</text>
<line x1="687.1" y1="202.0" x2="927.1" y2="202.0" stroke="#2563eb" stroke-width="2.4" stroke-linecap="round"/>
<text x="698.1" y="194.0" fill="#1f2937" font-size="20" font-weight="400">etcd/apiserver存期望</text>
<line x1="687.1" y1="252.0" x2="951.5" y2="252.0" stroke="#2563eb" stroke-width="2.4" stroke-linecap="round"/>
<text x="698.1" y="244.0" fill="#1f2937" font-size="20" font-weight="400">controller-runtime调和</text>
<line x1="687.1" y1="302.0" x2="851.9" y2="302.0" stroke="#2563eb" stroke-width="2.4" stroke-linecap="round"/>
<text x="698.1" y="294.0" fill="#1f2937" font-size="20" font-weight="400">业务控制器翻译</text>
<line x1="687.1" y1="352.0" x2="983.1" y2="352.0" stroke="#2563eb" stroke-width="2.4" stroke-linecap="round"/>
<text x="698.1" y="344.0" fill="#1f2937" font-size="20" font-weight="400">子资源:Deploy/Svc/Ingress</text>
<line x1="361.1" y1="477.0" x2="607.1" y2="477.0" stroke="#0891b2" stroke-width="2.4" stroke-linecap="round"/>
<text x="372.1" y="469.0" fill="#0891b2" font-size="20" font-weight="700">Application Operator</text>
<line x1="687.1" y1="402.0" x2="941.5" y2="402.0" stroke="#0891b2" stroke-width="2.4" stroke-linecap="round"/>
<text x="698.1" y="394.0" fill="#1f2937" font-size="20" font-weight="400">spec:镜像/探针/卷/调度</text>
<line x1="687.1" y1="452.0" x2="871.1" y2="452.0" stroke="#0891b2" stroke-width="2.4" stroke-linecap="round"/>
<text x="698.1" y="444.0" fill="#1f2937" font-size="20" font-weight="400">reconcile分阶段</text>
<line x1="687.1" y1="502.0" x2="960.7" y2="502.0" stroke="#0891b2" stroke-width="2.4" stroke-linecap="round"/>
<text x="698.1" y="494.0" fill="#1f2937" font-size="20" font-weight="400">status conditions状态机</text>
<line x1="687.1" y1="552.0" x2="936.3" y2="552.0" stroke="#0891b2" stroke-width="2.4" stroke-linecap="round"/>
<text x="698.1" y="544.0" fill="#1f2937" font-size="20" font-weight="400">AlreadyExists幂等护栏</text>
<line x1="361.1" y1="652.0" x2="485.1" y2="652.0" stroke="#dc2626" stroke-width="2.4" stroke-linecap="round"/>
<text x="372.1" y="644.0" fill="#dc2626" font-size="20" font-weight="700">元信息对象</text>
<line x1="687.1" y1="602.0" x2="889.5" y2="602.0" stroke="#dc2626" stroke-width="2.4" stroke-linecap="round"/>
<text x="698.1" y="594.0" fill="#1f2937" font-size="20" font-weight="400">Cluster多集群账本</text>
<line x1="687.1" y1="652.0" x2="895.5" y2="652.0" stroke="#dc2626" stroke-width="2.4" stroke-linecap="round"/>
<text x="698.1" y="644.0" fill="#1f2937" font-size="20" font-weight="400">Ready/Offline条件</text>
<line x1="687.1" y1="702.0" x2="913.9" y2="702.0" stroke="#dc2626" stroke-width="2.4" stroke-linecap="round"/>
<text x="698.1" y="694.0" fill="#1f2937" font-size="20" font-weight="400">Zone/Tenant预留骨架</text>
<line x1="361.1" y1="827.0" x2="569.5" y2="827.0" stroke="#ea580c" stroke-width="2.4" stroke-linecap="round"/>
<text x="372.1" y="819.0" fill="#ea580c" font-size="20" font-weight="700">Argo Rollouts二开</text>
<line x1="687.1" y1="752.0" x2="940.3" y2="752.0" stroke="#ea580c" stroke-width="2.4" stroke-linecap="round"/>
<text x="698.1" y="744.0" fill="#1f2937" font-size="20" font-weight="400">Rollout替代Deployment</text>
<line x1="687.1" y1="802.0" x2="973.9" y2="802.0" stroke="#ea580c" stroke-width="2.4" stroke-linecap="round"/>
<text x="698.1" y="794.0" fill="#1f2937" font-size="20" font-weight="400">自研SoulGateway Provider</text>
<line x1="687.1" y1="852.0" x2="891.5" y2="852.0" stroke="#ea580c" stroke-width="2.4" stroke-linecap="round"/>
<text x="698.1" y="844.0" fill="#1f2937" font-size="20" font-weight="400">SetWeight下发权重</text>
<line x1="687.1" y1="902.0" x2="925.1" y2="902.0" stroke="#ea580c" stroke-width="2.4" stroke-linecap="round"/>
<text x="698.1" y="894.0" fill="#1f2937" font-size="20" font-weight="400">VerifyWeight节点对账</text>
<line x1="361.1" y1="1002.0" x2="464.7" y2="1002.0" stroke="#059669" stroke-width="2.4" stroke-linecap="round"/>
<text x="372.1" y="994.0" fill="#059669" font-size="20" font-weight="700">机制要点</text>
<line x1="687.1" y1="952.0" x2="850.7" y2="952.0" stroke="#059669" stroke-width="2.4" stroke-linecap="round"/>
<text x="698.1" y="944.0" fill="#1f2937" font-size="20" font-weight="400">reconcile幂等</text>
<line x1="687.1" y1="1002.0" x2="898.7" y2="1002.0" stroke="#059669" stroke-width="2.4" stroke-linecap="round"/>
<text x="698.1" y="994.0" fill="#1f2937" font-size="20" font-weight="400">status子资源单独写</text>
<line x1="687.1" y1="1052.0" x2="921.9" y2="1052.0" stroke="#059669" stroke-width="2.4" stroke-linecap="round"/>
<text x="698.1" y="1044.0" fill="#1f2937" font-size="20" font-weight="400">ctrl.Result/Requeue</text>
<line x1="361.1" y1="1152.0" x2="505.5" y2="1152.0" stroke="#d97706" stroke-width="2.4" stroke-linecap="round"/>
<text x="372.1" y="1144.0" fill="#d97706" font-size="20" font-weight="700">排障三层对账</text>
<line x1="687.1" y1="1102.0" x2="871.1" y2="1102.0" stroke="#d97706" stroke-width="2.4" stroke-linecap="round"/>
<text x="698.1" y="1094.0" fill="#1f2937" font-size="20" font-weight="400">CR status停在哪</text>
<line x1="687.1" y1="1152.0" x2="883.5" y2="1152.0" stroke="#d97706" stroke-width="2.4" stroke-linecap="round"/>
<text x="698.1" y="1144.0" fill="#1f2937" font-size="20" font-weight="400">控制器日志/子资源</text>
<line x1="687.1" y1="1202.0" x2="857.9" y2="1202.0" stroke="#d97706" stroke-width="2.4" stroke-linecap="round"/>
<text x="698.1" y="1194.0" fill="#1f2937" font-size="20" font-weight="400">网关节点vs Pod</text>
<line x1="361.1" y1="1302.0" x2="485.1" y2="1302.0" stroke="#4f46e5" stroke-width="2.4" stroke-linecap="round"/>
<text x="372.1" y="1294.0" fill="#4f46e5" font-size="20" font-weight="700">边界与演进</text>
<line x1="687.1" y1="1252.0" x2="893.5" y2="1252.0" stroke="#4f46e5" stroke-width="2.4" stroke-linecap="round"/>
<text x="698.1" y="1244.0" fill="#1f2937" font-size="20" font-weight="400">Zone/Tenant不夸大</text>
<line x1="687.1" y1="1302.0" x2="917.9" y2="1302.0" stroke="#4f46e5" stroke-width="2.4" stroke-linecap="round"/>
<text x="698.1" y="1294.0" fill="#1f2937" font-size="20" font-weight="400">finalizer/owner未做</text>
<line x1="687.1" y1="1352.0" x2="921.1" y2="1352.0" stroke="#4f46e5" stroke-width="2.4" stroke-linecap="round"/>
<text x="698.1" y="1344.0" fill="#1f2937" font-size="20" font-weight="400">Rollouts整体非我主导</text>
</svg>