<svg xmlns="http://www.w3.org/2000/svg" viewBox="0 0 1060 1636" font-family="-apple-system, PingFang SC, Microsoft YaHei, Helvetica, Arial, sans-serif">
<rect x="0" y="0" width="1060" height="1636" fill="#ffffff"/>
<path d="M 290,789.4285714285714 C 330,789.4285714285714 330,98.0 360.0,98.0" fill="none" stroke="#7c3aed" stroke-width="2.4" stroke-linecap="round"/>
<path d="M 485.0,98.0 C 587.5,98.0 587.5,46.0 690.0,46.0" fill="none" stroke="#7c3aed" stroke-width="2.2" stroke-linecap="round"/>
<path d="M 485.0,98.0 C 587.5,98.0 587.5,98.0 690.0,98.0" fill="none" stroke="#7c3aed" stroke-width="2.2" stroke-linecap="round"/>
<path d="M 485.0,98.0 C 587.5,98.0 587.5,150.0 690.0,150.0" fill="none" stroke="#7c3aed" stroke-width="2.2" stroke-linecap="round"/>
<path d="M 290,789.4285714285714 C 330,789.4285714285714 330,326.0 360.0,326.0" fill="none" stroke="#2563eb" stroke-width="2.4" stroke-linecap="round"/>
<path d="M 460.0,326.0 C 575.0,326.0 575.0,248.0 690.0,248.0" fill="none" stroke="#2563eb" stroke-width="2.2" stroke-linecap="round"/>
<path d="M 460.0,326.0 C 575.0,326.0 575.0,300.0 690.0,300.0" fill="none" stroke="#2563eb" stroke-width="2.2" stroke-linecap="round"/>
<path d="M 460.0,326.0 C 575.0,326.0 575.0,352.0 690.0,352.0" fill="none" stroke="#2563eb" stroke-width="2.2" stroke-linecap="round"/>
<path d="M 460.0,326.0 C 575.0,326.0 575.0,404.0 690.0,404.0" fill="none" stroke="#2563eb" stroke-width="2.2" stroke-linecap="round"/>
<path d="M 290,789.4285714285714 C 330,789.4285714285714 330,554.0 360.0,554.0" fill="none" stroke="#0891b2" stroke-width="2.4" stroke-linecap="round"/>
<path d="M 460.0,554.0 C 575.0,554.0 575.0,502.0 690.0,502.0" fill="none" stroke="#0891b2" stroke-width="2.2" stroke-linecap="round"/>
<path d="M 460.0,554.0 C 575.0,554.0 575.0,554.0 690.0,554.0" fill="none" stroke="#0891b2" stroke-width="2.2" stroke-linecap="round"/>
<path d="M 460.0,554.0 C 575.0,554.0 575.0,606.0 690.0,606.0" fill="none" stroke="#0891b2" stroke-width="2.2" stroke-linecap="round"/>
<path d="M 290,789.4285714285714 C 330,789.4285714285714 330,782.0 360.0,782.0" fill="none" stroke="#ea580c" stroke-width="2.4" stroke-linecap="round"/>
<path d="M 518.0,782.0 C 604.0,782.0 604.0,704.0 690.0,704.0" fill="none" stroke="#ea580c" stroke-width="2.2" stroke-linecap="round"/>
<path d="M 518.0,782.0 C 604.0,782.0 604.0,756.0 690.0,756.0" fill="none" stroke="#ea580c" stroke-width="2.2" stroke-linecap="round"/>
<path d="M 518.0,782.0 C 604.0,782.0 604.0,808.0 690.0,808.0" fill="none" stroke="#ea580c" stroke-width="2.2" stroke-linecap="round"/>
<path d="M 518.0,782.0 C 604.0,782.0 604.0,860.0 690.0,860.0" fill="none" stroke="#ea580c" stroke-width="2.2" stroke-linecap="round"/>
<path d="M 290,789.4285714285714 C 330,789.4285714285714 330,1036.0 360.0,1036.0" fill="none" stroke="#dc2626" stroke-width="2.4" stroke-linecap="round"/>
<path d="M 554.0,1036.0 C 622.0,1036.0 622.0,958.0 690.0,958.0" fill="none" stroke="#dc2626" stroke-width="2.2" stroke-linecap="round"/>
<path d="M 554.0,1036.0 C 622.0,1036.0 622.0,1010.0 690.0,1010.0" fill="none" stroke="#dc2626" stroke-width="2.2" stroke-linecap="round"/>
<path d="M 554.0,1036.0 C 622.0,1036.0 622.0,1062.0 690.0,1062.0" fill="none" stroke="#dc2626" stroke-width="2.2" stroke-linecap="round"/>
<path d="M 554.0,1036.0 C 622.0,1036.0 622.0,1114.0 690.0,1114.0" fill="none" stroke="#dc2626" stroke-width="2.2" stroke-linecap="round"/>
<path d="M 290,789.4285714285714 C 330,789.4285714285714 330,1264.0 360.0,1264.0" fill="none" stroke="#059669" stroke-width="2.4" stroke-linecap="round"/>
<path d="M 460.0,1264.0 C 575.0,1264.0 575.0,1212.0 690.0,1212.0" fill="none" stroke="#059669" stroke-width="2.2" stroke-linecap="round"/>
<path d="M 460.0,1264.0 C 575.0,1264.0 575.0,1264.0 690.0,1264.0" fill="none" stroke="#059669" stroke-width="2.2" stroke-linecap="round"/>
<path d="M 460.0,1264.0 C 575.0,1264.0 575.0,1316.0 690.0,1316.0" fill="none" stroke="#059669" stroke-width="2.2" stroke-linecap="round"/>
<path d="M 290,789.4285714285714 C 330,789.4285714285714 330,1466.0 360.0,1466.0" fill="none" stroke="#d97706" stroke-width="2.4" stroke-linecap="round"/>
<path d="M 485.0,1466.0 C 587.5,1466.0 587.5,1414.0 690.0,1414.0" fill="none" stroke="#d97706" stroke-width="2.2" stroke-linecap="round"/>
<path d="M 485.0,1466.0 C 587.5,1466.0 587.5,1466.0 690.0,1466.0" fill="none" stroke="#d97706" stroke-width="2.2" stroke-linecap="round"/>
<path d="M 485.0,1466.0 C 587.5,1466.0 587.5,1518.0 690.0,1518.0" fill="none" stroke="#d97706" stroke-width="2.2" stroke-linecap="round"/>
<rect x="40" y="761.4" width="250" height="56" rx="12" fill="#1e293b"/>
<text x="165.0" y="797.4" text-anchor="middle" fill="#ffffff" font-size="24" font-weight="700">SoulGateway 二开</text>
<line x1="360.0" y1="98.0" x2="485.0" y2="98.0" stroke="#7c3aed" stroke-width="2.6" stroke-linecap="round"/>
<text x="370.0" y="89.0" fill="#7c3aed" font-size="21" font-weight="700">定位与价值</text>
<line x1="690.0" y1="46.0" x2="1066.0" y2="46.0" stroke="#7c3aed" stroke-width="2.2" stroke-linecap="round"/>
<text x="701.0" y="38.0" fill="#1f2937" font-size="20">自研网关TrafficRouting Provider</text>
<line x1="690.0" y1="98.0" x2="986.0" y2="98.0" stroke="#7c3aed" stroke-width="2.2" stroke-linecap="round"/>
<text x="701.0" y="90.0" fill="#1f2937" font-size="20">在开源Rollouts上二次开发</text>
<line x1="690.0" y1="150.0" x2="939.0" y2="150.0" stroke="#7c3aed" stroke-width="2.2" stroke-linecap="round"/>
<text x="701.0" y="142.0" fill="#1f2937" font-size="20">节点级灰度(非路由级)</text>
<line x1="360.0" y1="326.0" x2="460.0" y2="326.0" stroke="#2563eb" stroke-width="2.6" stroke-linecap="round"/>
<text x="370.0" y="317.0" fill="#2563eb" font-size="21" font-weight="700">原理分层</text>
<line x1="690.0" y1="248.0" x2="1030.0" y2="248.0" stroke="#2563eb" stroke-width="2.2" stroke-linecap="round"/>
<text x="701.0" y="240.0" fill="#1f2937" font-size="20">Rollout控制器算desiredWeight</text>
<line x1="690.0" y1="300.0" x2="1007.0" y2="300.0" stroke="#2563eb" stroke-width="2.2" stroke-linecap="round"/>
<text x="701.0" y="292.0" fill="#1f2937" font-size="20">TrafficRouting调和层(原生)</text>
<line x1="690.0" y1="352.0" x2="1004.0" y2="352.0" stroke="#2563eb" stroke-width="2.2" stroke-linecap="round"/>
<text x="701.0" y="344.0" fill="#1f2937" font-size="20">SoulGateway Provider(自研)</text>
<line x1="690.0" y1="404.0" x2="965.0" y2="404.0" stroke="#2563eb" stroke-width="2.2" stroke-linecap="round"/>
<text x="701.0" y="396.0" fill="#1f2937" font-size="20">自研网关按节点权重切流</text>
<line x1="360.0" y1="554.0" x2="460.0" y2="554.0" stroke="#0891b2" stroke-width="2.6" stroke-linecap="round"/>
<text x="370.0" y="545.0" fill="#0891b2" font-size="21" font-weight="700">扩展接入</text>
<line x1="690.0" y1="502.0" x2="933.0" y2="502.0" stroke="#0891b2" stroke-width="2.2" stroke-linecap="round"/>
<text x="701.0" y="494.0" fill="#1f2937" font-size="20">CRD加soulGateway字段</text>
<line x1="690.0" y1="554.0" x2="996.0" y2="554.0" stroke="#0891b2" stroke-width="2.2" stroke-linecap="round"/>
<text x="701.0" y="546.0" fill="#1f2937" font-size="20">工厂注册Provider并列Istio</text>
<line x1="690.0" y1="606.0" x2="1052.0" y2="606.0" stroke="#0891b2" stroke-width="2.2" stroke-linecap="round"/>
<text x="701.0" y="598.0" fill="#1f2937" font-size="20">实现Type/SetWeight/Verify/Hash</text>
<line x1="360.0" y1="782.0" x2="518.0" y2="782.0" stroke="#ea580c" stroke-width="2.6" stroke-linecap="round"/>
<text x="370.0" y="773.0" fill="#ea580c" font-size="21" font-weight="700">SetWeight下发</text>
<line x1="690.0" y1="704.0" x2="1006.0" y2="704.0" stroke="#ea580c" stroke-width="2.2" stroke-linecap="round"/>
<text x="701.0" y="696.0" fill="#1f2937" font-size="20">Service→Ready Pod→网关节点</text>
<line x1="690.0" y1="756.0" x2="1016.0" y2="756.0" stroke="#ea580c" stroke-width="2.2" stroke-linecap="round"/>
<text x="701.0" y="748.0" fill="#1f2937" font-size="20">stable(100-w)/canary(w)组装</text>
<line x1="690.0" y1="808.0" x2="1032.0" y2="808.0" stroke="#ea580c" stroke-width="2.2" stroke-linecap="round"/>
<text x="701.0" y="800.0" fill="#1f2937" font-size="20">desiredWeight==0全量回切特判</text>
<line x1="690.0" y1="860.0" x2="962.0" y2="860.0" stroke="#ea580c" stroke-width="2.2" stroke-linecap="round"/>
<text x="701.0" y="852.0" fill="#1f2937" font-size="20">stable节点空保护不摘空</text>
<line x1="360.0" y1="1036.0" x2="554.0" y2="1036.0" stroke="#dc2626" stroke-width="2.6" stroke-linecap="round"/>
<text x="370.0" y="1027.0" fill="#dc2626" font-size="21" font-weight="700">VerifyWeight对账</text>
<line x1="690.0" y1="958.0" x2="964.0" y2="958.0" stroke="#dc2626" stroke-width="2.2" stroke-linecap="round"/>
<text x="701.0" y="950.0" fill="#1f2937" font-size="20">快路径:节点数+权重相等</text>
<line x1="690.0" y1="1010.0" x2="994.0" y2="1010.0" stroke="#dc2626" stroke-width="2.2" stroke-linecap="round"/>
<text x="701.0" y="1002.0" fill="#1f2937" font-size="20">pod-template-hash过滤版本</text>
<line x1="690.0" y1="1062.0" x2="970.0" y2="1062.0" stroke="#dc2626" stroke-width="2.2" stroke-linecap="round"/>
<text x="701.0" y="1054.0" fill="#1f2937" font-size="20">缺的UpNode/多的DownNode</text>
<line x1="690.0" y1="1114.0" x2="940.0" y2="1114.0" stroke="#dc2626" stroke-width="2.2" stroke-linecap="round"/>
<text x="701.0" y="1106.0" fill="#1f2937" font-size="20">异步多轮收敛最终一致</text>
<line x1="360.0" y1="1264.0" x2="460.0" y2="1264.0" stroke="#059669" stroke-width="2.6" stroke-linecap="round"/>
<text x="370.0" y="1255.0" fill="#059669" font-size="21" font-weight="700">速率门控</text>
<line x1="690.0" y1="1212.0" x2="890.0" y2="1212.0" stroke="#059669" stroke-width="2.2" stroke-linecap="round"/>
<text x="701.0" y="1204.0" fill="#1f2937" font-size="20">副本对齐才去验证</text>
<line x1="690.0" y1="1264.0" x2="984.0" y2="1264.0" stroke="#059669" stroke-width="2.2" stroke-linecap="round"/>
<text x="701.0" y="1256.0" fill="#1f2937" font-size="20">未对齐标RetryVerify+重试</text>
<line x1="690.0" y1="1316.0" x2="950.0" y2="1316.0" stroke="#059669" stroke-width="2.2" stroke-linecap="round"/>
<text x="701.0" y="1308.0" fill="#1f2937" font-size="20">避免打爆网关admin接口</text>
<line x1="360.0" y1="1466.0" x2="485.0" y2="1466.0" stroke="#d97706" stroke-width="2.6" stroke-linecap="round"/>
<text x="370.0" y="1457.0" fill="#d97706" font-size="21" font-weight="700">排障与边界</text>
<line x1="690.0" y1="1414.0" x2="950.0" y2="1414.0" stroke="#d97706" stroke-width="2.2" stroke-linecap="round"/>
<text x="701.0" y="1406.0" fill="#1f2937" font-size="20">网关节点vs实际Pod对账</text>
<line x1="690.0" y1="1466.0" x2="936.0" y2="1466.0" stroke="#d97706" stroke-width="2.2" stroke-linecap="round"/>
<text x="701.0" y="1458.0" fill="#1f2937" font-size="20">Rollouts是二开非自研</text>
<line x1="690.0" y1="1518.0" x2="997.0" y2="1518.0" stroke="#d97706" stroke-width="2.2" stroke-linecap="round"/>
<text x="701.0" y="1510.0" fill="#1f2937" font-size="20">AnalysisRun原生我理解联动</text>
</svg>