<svg xmlns="http://www.w3.org/2000/svg" viewBox="0 0 1720 1020" font-family="-apple-system, PingFang SC, Microsoft YaHei, Helvetica, Arial, sans-serif">
<rect x="0" y="0" width="1720" height="1020" fill="#ffffff"/>
<defs>
<marker id="ar" markerWidth="11" markerHeight="8" refX="9" refY="4" orient="auto"><path d="M0,0 L11,4 L0,8 Z" fill="#475569"/></marker>
<marker id="arb" markerWidth="11" markerHeight="8" refX="9" refY="4" orient="auto"><path d="M0,0 L11,4 L0,8 Z" fill="#2563eb"/></marker>
<marker id="arg" markerWidth="11" markerHeight="8" refX="9" refY="4" orient="auto"><path d="M0,0 L11,4 L0,8 Z" fill="#059669"/></marker>
<marker id="aro" markerWidth="11" markerHeight="8" refX="9" refY="4" orient="auto"><path d="M0,0 L11,4 L0,8 Z" fill="#ea580c"/></marker>
</defs>
<text x="860.0" y="56.0" text-anchor="middle" fill="#0f172a" font-size="32" font-weight="700">SAE 服务元信息对象模型与多集群编排场景</text>
<rect x="70.0" y="110.0" width="470.0" height="540.0" rx="16" fill="#f5f3ff" stroke="#7c3aed" stroke-width="2"/>
<text x="305.0" y="150.0" text-anchor="middle" fill="#7c3aed" font-size="24" font-weight="700">Application CR（apps/v1）</text>
<text x="305.0" y="182.0" text-anchor="middle" fill="#6d28d9" font-size="18" font-weight="400">应用一等公民 · 聚合期望状态</text>
<rect x="100.0" y="210.0" width="410.0" height="52.0" rx="10" fill="#ffffff" stroke="#a78bfa" stroke-width="1"/>
<text x="120.0" y="243.0" text-anchor="start" fill="#7c3aed" font-size="19" font-weight="700">工作负载</text>
<text x="235.0" y="243.0" text-anchor="start" fill="#475569" font-size="17" font-weight="400">replicas / image / resources</text>
<rect x="100.0" y="272.0" width="410.0" height="52.0" rx="10" fill="#ffffff" stroke="#a78bfa" stroke-width="1"/>
<text x="120.0" y="305.0" text-anchor="start" fill="#7c3aed" font-size="19" font-weight="700">健康</text>
<text x="235.0" y="305.0" text-anchor="start" fill="#475569" font-size="17" font-weight="400">liveness / readiness 探针默认值</text>
<rect x="100.0" y="334.0" width="410.0" height="52.0" rx="10" fill="#ffffff" stroke="#a78bfa" stroke-width="1"/>
<text x="120.0" y="367.0" text-anchor="start" fill="#7c3aed" font-size="19" font-weight="700">存储</text>
<text x="235.0" y="367.0" text-anchor="start" fill="#475569" font-size="17" font-weight="400">EmptyDir / HostPath / PVC 卷</text>
<rect x="100.0" y="396.0" width="410.0" height="52.0" rx="10" fill="#ffffff" stroke="#a78bfa" stroke-width="1"/>
<text x="120.0" y="429.0" text-anchor="start" fill="#7c3aed" font-size="19" font-weight="700">调度</text>
<text x="235.0" y="429.0" text-anchor="start" fill="#475569" font-size="17" font-weight="400">Toleration / NodeSelector / Affinity</text>
<rect x="100.0" y="458.0" width="410.0" height="52.0" rx="10" fill="#ffffff" stroke="#a78bfa" stroke-width="1"/>
<text x="120.0" y="491.0" text-anchor="start" fill="#7c3aed" font-size="19" font-weight="700">网络</text>
<text x="235.0" y="491.0" text-anchor="start" fill="#475569" font-size="17" font-weight="400">Service / IngressHost 入口</text>
<rect x="100.0" y="520.0" width="410.0" height="52.0" rx="10" fill="#ffffff" stroke="#a78bfa" stroke-width="1"/>
<text x="120.0" y="553.0" text-anchor="start" fill="#7c3aed" font-size="19" font-weight="700">元信息</text>
<text x="235.0" y="553.0" text-anchor="start" fill="#475569" font-size="17" font-weight="400">owner / env / appLevel</text>
<rect x="100.0" y="582.0" width="410.0" height="52.0" rx="10" fill="#ffffff" stroke="#a78bfa" stroke-width="1"/>
<text x="120.0" y="615.0" text-anchor="start" fill="#7c3aed" font-size="19" font-weight="700">多集群</text>
<text x="235.0" y="615.0" text-anchor="start" fill="#475569" font-size="17" font-weight="400">clusters[] 下发目标列表</text>
<rect x="610.0" y="210.0" width="300.0" height="340.0" rx="16" fill="#fef2f2" stroke="#dc2626" stroke-width="2"/>
<text x="760.0" y="250.0" text-anchor="middle" fill="#dc2626" font-size="22" font-weight="700">SAE Operators</text>
<rect x="635.0" y="280.0" width="250.0" height="66.0" rx="10" fill="#ffffff" stroke="#dc2626" stroke-width="2"/>
<text x="760.0" y="319.5" text-anchor="middle" fill="#1f2937" font-size="18" font-weight="400">ApplicationReconciler</text>
<rect x="635.0" y="360.0" width="250.0" height="66.0" rx="10" fill="#ffffff" stroke="#dc2626" stroke-width="2"/>
<text x="760.0" y="399.5" text-anchor="middle" fill="#1f2937" font-size="18" font-weight="400">ClusterReconciler</text>
<rect x="635.0" y="440.0" width="250.0" height="90.0" rx="10" fill="#fff7ed" stroke="#d97706" stroke-width="2" stroke-dasharray="5,3"/>
<text x="760.0" y="478.6" text-anchor="middle" fill="#1f2937" font-size="17" font-weight="400">Zone / Tenant</text>
<text x="760.0" y="503.6" text-anchor="middle" fill="#1f2937" font-size="17" font-weight="400">（预留骨架·占位字段）</text>
<path d="M 540.0,380.0 L 610.0,380.0" fill="none" stroke="#475569" stroke-width="3.0" marker-end="url(#ar)"/>
<rect x="529.7" y="347.2" width="90.6" height="22.0" rx="5" fill="#ffffff" opacity="0.95"/>
<text x="575.0" y="365.1" text-anchor="middle" fill="#475569" font-size="16" font-weight="600">reconcile</text>
<rect x="610.0" y="600.0" width="300.0" height="160.0" rx="14" fill="#eff6ff" stroke="#2563eb" stroke-width="2"/>
<text x="760.0" y="638.0" text-anchor="middle" fill="#2563eb" font-size="18" font-weight="700">Cluster CR（cluster-scoped）</text>
<text x="760.0" y="672.0" text-anchor="middle" fill="#1e40af" font-size="17" font-weight="400">集群账本：kubeconfig / region</text>
<text x="760.0" y="700.0" text-anchor="middle" fill="#1e40af" font-size="17" font-weight="400">nodeCount / version</text>
<text x="760.0" y="732.0" text-anchor="middle" fill="#1e40af" font-size="17" font-weight="400">status: Ready / Offline</text>
<path d="M 760.0,600.0 L 760.0,550.0" fill="none" stroke="#2563eb" stroke-width="2.6" marker-end="url(#arb)"/>
<rect x="706.0" y="565.2" width="107.9" height="22.0" rx="5" fill="#ffffff" opacity="0.95"/>
<text x="760.0" y="583.1" text-anchor="middle" fill="#2563eb" font-size="16" font-weight="600">账本支撑下发</text>
<rect x="990.0" y="150.0" width="330.0" height="150.0" rx="14" fill="#ecfdf5" stroke="#059669" stroke-width="2"/>
<text x="1155.0" y="188.0" text-anchor="middle" fill="#059669" font-size="21" font-weight="700">集群 A（主）</text>
<rect x="1010.0" y="208.0" width="140.0" height="70.0" rx="8" fill="#ffffff" stroke="#059669" stroke-width="2"/>
<text x="1080.0" y="236.8" text-anchor="middle" fill="#1f2937" font-size="16" font-weight="400">Deployment</text>
<text x="1080.0" y="260.8" text-anchor="middle" fill="#1f2937" font-size="16" font-weight="400">→ Pod</text>
<rect x="1165.0" y="208.0" width="135.0" height="70.0" rx="8" fill="#ffffff" stroke="#059669" stroke-width="2"/>
<text x="1232.5" y="236.8" text-anchor="middle" fill="#1f2937" font-size="16" font-weight="400">Service</text>
<text x="1232.5" y="260.8" text-anchor="middle" fill="#1f2937" font-size="16" font-weight="400">Ingress</text>
<rect x="1360.0" y="150.0" width="330.0" height="150.0" rx="14" fill="#ecfdf5" stroke="#059669" stroke-width="2"/>
<text x="1525.0" y="188.0" text-anchor="middle" fill="#059669" font-size="21" font-weight="700">集群 B</text>
<rect x="1380.0" y="208.0" width="140.0" height="70.0" rx="8" fill="#ffffff" stroke="#059669" stroke-width="2"/>
<text x="1450.0" y="236.8" text-anchor="middle" fill="#1f2937" font-size="16" font-weight="400">Deployment</text>
<text x="1450.0" y="260.8" text-anchor="middle" fill="#1f2937" font-size="16" font-weight="400">→ Pod</text>
<rect x="1535.0" y="208.0" width="135.0" height="70.0" rx="8" fill="#ffffff" stroke="#059669" stroke-width="2"/>
<text x="1602.5" y="236.8" text-anchor="middle" fill="#1f2937" font-size="16" font-weight="400">Service</text>
<text x="1602.5" y="260.8" text-anchor="middle" fill="#1f2937" font-size="16" font-weight="400">Ingress</text>
<rect x="990.0" y="360.0" width="330.0" height="150.0" rx="14" fill="#ecfdf5" stroke="#059669" stroke-width="2"/>
<text x="1155.0" y="398.0" text-anchor="middle" fill="#059669" font-size="21" font-weight="700">集群 C</text>
<rect x="1010.0" y="418.0" width="140.0" height="70.0" rx="8" fill="#ffffff" stroke="#059669" stroke-width="2"/>
<text x="1080.0" y="446.8" text-anchor="middle" fill="#1f2937" font-size="16" font-weight="400">Deployment</text>
<text x="1080.0" y="470.8" text-anchor="middle" fill="#1f2937" font-size="16" font-weight="400">→ Pod</text>
<rect x="1165.0" y="418.0" width="135.0" height="70.0" rx="8" fill="#ffffff" stroke="#059669" stroke-width="2"/>
<text x="1232.5" y="446.8" text-anchor="middle" fill="#1f2937" font-size="16" font-weight="400">Service</text>
<text x="1232.5" y="470.8" text-anchor="middle" fill="#1f2937" font-size="16" font-weight="400">Ingress</text>
<rect x="1360.0" y="360.0" width="330.0" height="150.0" rx="14" fill="#fef2f2" stroke="#dc2626" stroke-width="2" stroke-dasharray="5,4"/>
<text x="1525.0" y="398.0" text-anchor="middle" fill="#dc2626" font-size="21" font-weight="700">集群 D</text>
<rect x="1380.0" y="418.0" width="140.0" height="70.0" rx="8" fill="#ffffff" stroke="#dc2626" stroke-width="2"/>
<text x="1450.0" y="446.8" text-anchor="middle" fill="#1f2937" font-size="16" font-weight="400">Deployment</text>
<text x="1450.0" y="470.8" text-anchor="middle" fill="#1f2937" font-size="16" font-weight="400">→ Pod</text>
<rect x="1535.0" y="418.0" width="135.0" height="70.0" rx="8" fill="#ffffff" stroke="#dc2626" stroke-width="2"/>
<text x="1602.5" y="446.8" text-anchor="middle" fill="#1f2937" font-size="16" font-weight="400">Service</text>
<text x="1602.5" y="470.8" text-anchor="middle" fill="#1f2937" font-size="16" font-weight="400">Ingress</text>
<text x="1525.0" y="500.0" text-anchor="middle" fill="#b91c1c" font-size="15" font-weight="700">Offline → 下发预检拦截</text>
<path d="M 910.0,300.0 L 990.0,225.0" fill="none" stroke="#059669" stroke-width="2.6" marker-end="url(#arg)"/>
<path d="M 910.0,330.0 L 1360.0,225.0" fill="none" stroke="#059669" stroke-width="2.6" marker-end="url(#arg)"/>
<path d="M 910.0,360.0 L 990.0,435.0" fill="none" stroke="#059669" stroke-width="2.6" marker-end="url(#arg)"/>
<path d="M 910.0,400.0 L 1360.0,435.0" fill="none" stroke="#94a3b8" stroke-width="2.4" marker-end="url(#ar)" stroke-dasharray="5,4"/>
<rect x="866.8" y="237.2" width="166.5" height="22.0" rx="5" fill="#ffffff" opacity="0.95"/>
<text x="950.0" y="255.1" text-anchor="middle" fill="#059669" font-size="16" font-weight="600">按 clusters[] 下发</text>
<rect x="990.0" y="560.0" width="700.0" height="360.0" rx="14" fill="#f8fafc" stroke="#94a3b8" stroke-width="2" stroke-dasharray="6,4"/>
<text x="1340.0" y="598.0" text-anchor="middle" fill="#334155" font-size="21" font-weight="700">典型场景</text>
<text x="1014.0" y="654.0" text-anchor="start" fill="#334155" font-size="17" font-weight="400">A 控制台发布：表单→Application CR，Operator 落地，看 status 卡在哪个阶段</text>
<text x="1014.0" y="722.0" text-anchor="start" fill="#334155" font-size="17" font-weight="400">B 多集群下发：按 clusters[] + Cluster 账本可达性预检，Offline 拦截</text>
<text x="1014.0" y="790.0" text-anchor="start" fill="#334155" font-size="17" font-weight="400">C 金丝雀卡档：Rollout step + AnalysisRun 门禁停在某一权重</text>
<text x="1014.0" y="858.0" text-anchor="start" fill="#334155" font-size="17" font-weight="400">D 权重漂移：网关节点与 Pod 不一致，VerifyWeight 对账</text>
</svg>