<svg xmlns="http://www.w3.org/2000/svg" viewBox="0 0 1760 940" font-family="-apple-system, PingFang SC, Microsoft YaHei, Helvetica, Arial, sans-serif">
<rect x="0" y="0" width="1760" height="940" fill="#ffffff"/>
<defs>
<marker id="ar" markerWidth="11" markerHeight="8" refX="9" refY="4" orient="auto"><path d="M0,0 L11,4 L0,8 Z" fill="#475569"/></marker>
<marker id="arb" markerWidth="11" markerHeight="8" refX="9" refY="4" orient="auto"><path d="M0,0 L11,4 L0,8 Z" fill="#2563eb"/></marker>
<marker id="arg" markerWidth="11" markerHeight="8" refX="9" refY="4" orient="auto"><path d="M0,0 L11,4 L0,8 Z" fill="#059669"/></marker>
<marker id="aro" markerWidth="11" markerHeight="8" refX="9" refY="4" orient="auto"><path d="M0,0 L11,4 L0,8 Z" fill="#ea580c"/></marker>
</defs>
<text x="880.0" y="54.0" text-anchor="middle" fill="#0f172a" font-size="32" font-weight="700">SAE 发布链路中的 Operator 与 Argo Rollouts 二次开发</text>
<rect x="1180.0" y="86.0" width="520.0" height="70.0" rx="10" fill="#ffffff" stroke="#cbd5e1" stroke-width="1"/>
<rect x="1200" y="104" width="34" height="22" rx="5" fill="#dcfce7" stroke="#059669" stroke-width="1.8"/>
<text x="1248.0" y="121.0" text-anchor="start" fill="#065f46" font-size="17" font-weight="600">我参与核心开发</text>
<rect x="1450" y="104" width="34" height="22" rx="5" fill="#f1f5f9" stroke="#94a3b8" stroke-width="1.8"/>
<text x="1498.0" y="121.0" text-anchor="start" fill="#475569" font-size="17" font-weight="600">同事主导 / 我了解</text>
<text x="80.0" y="210.0" text-anchor="start" fill="#334155" font-size="22" font-weight="700">常规发布链路</text>
<rect x="70.0" y="230.0" width="250.0" height="110.0" rx="14" fill="#eff6ff" stroke="#2563eb" stroke-width="2"/>
<text x="195.0" y="278.2" text-anchor="middle" fill="#1f2937" font-size="20" font-weight="400">控制台 / CLI</text>
<text x="195.0" y="306.2" text-anchor="middle" fill="#1f2937" font-size="20" font-weight="400">发布表单</text>
<rect x="390.0" y="225.0" width="300.0" height="120.0" rx="16" fill="#f5f3ff" stroke="#7c3aed" stroke-width="2"/>
<text x="540.0" y="266.0" text-anchor="middle" fill="#7c3aed" font-size="22" font-weight="700">Application</text>
<text x="540.0" y="298.0" text-anchor="middle" fill="#6d28d9" font-size="18" font-weight="400">Operator (apps/v1)</text>
<rect x="480.0" y="310.0" width="120" height="30" rx="7" fill="#dcfce7" stroke="#059669" stroke-width="1.8"/>
<text x="540.0" y="331.0" text-anchor="middle" fill="#065f46" font-size="16" font-weight="700">我参与核心</text>
<rect x="760.0" y="225.0" width="340.0" height="120.0" rx="14" fill="#ecfdf5" stroke="#059669" stroke-width="2"/>
<text x="930.0" y="278.3" text-anchor="middle" fill="#1f2937" font-size="19" font-weight="400">工作负载子资源</text>
<text x="930.0" y="305.3" text-anchor="middle" fill="#1f2937" font-size="19" font-weight="400">Deployment→Pod / Service / Ingress</text>
<path d="M 320.0,285.0 L 390.0,285.0" fill="none" stroke="#2563eb" stroke-width="3.0" marker-end="url(#arb)"/>
<rect x="320.2" y="253.2" width="69.5" height="22.0" rx="5" fill="#ffffff" opacity="0.95"/>
<text x="355.0" y="271.1" text-anchor="middle" fill="#2563eb" font-size="16" font-weight="600">提交 CR</text>
<path d="M 690.0,285.0 L 760.0,285.0" fill="none" stroke="#475569" stroke-width="3.0" marker-end="url(#ar)"/>
<rect x="679.7" y="253.2" width="90.6" height="22.0" rx="5" fill="#ffffff" opacity="0.95"/>
<text x="725.0" y="271.1" text-anchor="middle" fill="#475569" font-size="16" font-weight="600">reconcile</text>
<text x="80.0" y="430.0" text-anchor="start" fill="#334155" font-size="22" font-weight="700">灰度发布链路（Argo Rollouts 二次开发）</text>
<rect x="70.0" y="455.0" width="250.0" height="120.0" rx="14" fill="#eff6ff" stroke="#2563eb" stroke-width="2"/>
<text x="195.0" y="500.0" text-anchor="middle" fill="#2563eb" font-size="21" font-weight="700">Rollout CR</text>
<text x="195.0" y="532.0" text-anchor="middle" fill="#1e40af" font-size="17" font-weight="400">替代 Deployment</text>
<text x="195.0" y="560.0" text-anchor="middle" fill="#1e40af" font-size="17" font-weight="400">金丝雀 steps</text>
<rect x="400.0" y="440.0" width="330.0" height="160.0" rx="14" fill="#f1f5f9" stroke="#64748b" stroke-width="2"/>
<text x="565.0" y="478.0" text-anchor="middle" fill="#475569" font-size="20" font-weight="700">Rollouts Controller</text>
<rect x="420.0" y="495.0" width="290.0" height="46.0" rx="8" fill="#ffffff" stroke="#94a3b8" stroke-width="2"/>
<text x="565.0" y="523.8" text-anchor="middle" fill="#1f2937" font-size="16" font-weight="400">管理新旧 ReplicaSet</text>
<rect x="420.0" y="548.0" width="290.0" height="40.0" rx="8" fill="#ffffff" stroke="#94a3b8" stroke-width="2"/>
<text x="565.0" y="573.8" text-anchor="middle" fill="#1f2937" font-size="16" font-weight="400">AnalysisRun 指标门禁</text>
<rect x="610.0" y="408.0" width="120" height="30" rx="7" fill="#f1f5f9" stroke="#94a3b8" stroke-width="1.8"/>
<text x="670.0" y="429.0" text-anchor="middle" fill="#475569" font-size="16" font-weight="700">同事主导</text>
<rect x="810.0" y="440.0" width="360.0" height="160.0" rx="16" fill="#ecfdf5" stroke="#059669" stroke-width="2"/>
<text x="990.0" y="478.0" text-anchor="middle" fill="#059669" font-size="21" font-weight="700">SoulGateway</text>
<text x="990.0" y="506.0" text-anchor="middle" fill="#065f46" font-size="17" font-weight="400">自研 TrafficRouting Provider</text>
<rect x="830.0" y="520.0" width="160.0" height="66.0" rx="8" fill="#ffffff" stroke="#059669" stroke-width="2"/>
<text x="910.0" y="546.8" text-anchor="middle" fill="#1f2937" font-size="16" font-weight="400">SetWeight()</text>
<text x="910.0" y="570.8" text-anchor="middle" fill="#1f2937" font-size="16" font-weight="400">下发权重</text>
<rect x="1000.0" y="520.0" width="150.0" height="66.0" rx="8" fill="#ffffff" stroke="#059669" stroke-width="2"/>
<text x="1075.0" y="546.8" text-anchor="middle" fill="#1f2937" font-size="16" font-weight="400">VerifyWeight()</text>
<text x="1075.0" y="570.8" text-anchor="middle" fill="#1f2937" font-size="16" font-weight="400">节点对账</text>
<rect x="930.0" y="408.0" width="120" height="30" rx="7" fill="#dcfce7" stroke="#059669" stroke-width="1.8"/>
<text x="990.0" y="429.0" text-anchor="middle" fill="#065f46" font-size="16" font-weight="700">我参与核心</text>
<rect x="1250.0" y="440.0" width="420.0" height="160.0" rx="16" fill="#fff7ed" stroke="#ea580c" stroke-width="2"/>
<text x="1460.0" y="478.0" text-anchor="middle" fill="#ea580c" font-size="21" font-weight="700">公司自研网关</text>
<text x="1460.0" y="508.0" text-anchor="middle" fill="#9a3412" font-size="17" font-weight="400">admin 接口接收权重</text>
<rect x="1270.0" y="522.0" width="180.0" height="62.0" rx="8" fill="#ffffff" stroke="#ea580c" stroke-width="2"/>
<text x="1360.0" y="546.8" text-anchor="middle" fill="#1f2937" font-size="16" font-weight="400">stable</text>
<text x="1360.0" y="570.8" text-anchor="middle" fill="#1f2937" font-size="16" font-weight="400">100 - w</text>
<rect x="1480.0" y="522.0" width="170.0" height="62.0" rx="8" fill="#ffffff" stroke="#ea580c" stroke-width="2"/>
<text x="1565.0" y="546.8" text-anchor="middle" fill="#1f2937" font-size="16" font-weight="400">canary</text>
<text x="1565.0" y="570.8" text-anchor="middle" fill="#1f2937" font-size="16" font-weight="400">weight w</text>
<path d="M 320.0,515.0 L 400.0,515.0" fill="none" stroke="#2563eb" stroke-width="3.0" marker-end="url(#arb)"/>
<path d="M 730.0,515.0 L 810.0,515.0" fill="none" stroke="#475569" stroke-width="3.0" marker-end="url(#ar)"/>
<rect x="732.4" y="483.2" width="75.3" height="22.0" rx="5" fill="#ffffff" opacity="0.95"/>
<text x="770.0" y="501.1" text-anchor="middle" fill="#475569" font-size="16" font-weight="600">每步驱动</text>
<path d="M 1170.0,515.0 L 1250.0,515.0" fill="none" stroke="#059669" stroke-width="3.0" marker-end="url(#arg)"/>
<rect x="1170.0" y="483.2" width="80.1" height="22.0" rx="5" fill="#ffffff" opacity="0.95"/>
<text x="1210.0" y="501.1" text-anchor="middle" fill="#059669" font-size="16" font-weight="600">调 admin</text>
<path d="M 1460,600 C 1460,660 990,660 990,602" fill="none" stroke="#059669" stroke-width="2.4" stroke-dasharray="6,4" marker-end="url(#arg)"/>
<rect x="1080.2" y="642.2" width="289.7" height="22.0" rx="5" fill="#ffffff" opacity="0.95"/>
<text x="1225.0" y="660.1" text-anchor="middle" fill="#059669" font-size="16" font-weight="600">VerifyWeight 反向对账网关实际节点</text>
<rect x="70.0" y="720.0" width="1600.0" height="150.0" rx="14" fill="#f8fafc" stroke="#94a3b8" stroke-width="2" stroke-dasharray="6,4"/>
<text x="96.0" y="758.0" text-anchor="start" fill="#334155" font-size="20" font-weight="700">诚实边界（面试措辞）</text>
<text x="96.0" y="792.0" text-anchor="start" fill="#334155" font-size="17" font-weight="400">· apps 这块（Application / Cluster）我是 Committer 级参与核心开发；元信息对象 Zone / Tenant 是预留骨架，不夸大。</text>
<text x="96.0" y="824.0" text-anchor="start" fill="#334155" font-size="17" font-weight="400">· Argo Rollouts 整体与 AnalysisRun 指标门禁由同事主导，我理解其机制；我具体参与的是自研 SoulGateway 流量路由 Provider 的开发与集成联调。</text>
<text x="96.0" y="856.0" text-anchor="start" fill="#334155" font-size="17" font-weight="400">· 当前未实现 finalizer 级联清理 / owner reference，这是我能讲的演进点，而非已落地结果。</text>
</svg>