<svg xmlns="http://www.w3.org/2000/svg" viewBox="0 0 871 1046" font-family="-apple-system, PingFang SC, Microsoft YaHei, Helvetica, Arial, sans-serif">
<rect x="0" y="0" width="871" height="1046" fill="#ffffff"/>
<path d="M 247.2,510.0 C 284.7,510.0 284.7,96.0 322.2,96.0" fill="none" stroke="#7c3aed" stroke-width="2.4" stroke-linecap="round"/>
<path d="M 411.6,96.0 C 479.8,96.0 479.8,50.0 548.1,50.0" fill="none" stroke="#7c3aed" stroke-width="2.4" stroke-linecap="round"/>
<path d="M 411.6,96.0 C 479.8,96.0 479.8,96.0 548.1,96.0" fill="none" stroke="#7c3aed" stroke-width="2.4" stroke-linecap="round"/>
<path d="M 411.6,96.0 C 479.8,96.0 479.8,142.0 548.1,142.0" fill="none" stroke="#7c3aed" stroke-width="2.4" stroke-linecap="round"/>
<path d="M 247.2,510.0 C 284.7,510.0 284.7,234.0 322.2,234.0" fill="none" stroke="#2563eb" stroke-width="2.4" stroke-linecap="round"/>
<path d="M 411.6,234.0 C 479.8,234.0 479.8,188.0 548.1,188.0" fill="none" stroke="#2563eb" stroke-width="2.4" stroke-linecap="round"/>
<path d="M 411.6,234.0 C 479.8,234.0 479.8,234.0 548.1,234.0" fill="none" stroke="#2563eb" stroke-width="2.4" stroke-linecap="round"/>
<path d="M 411.6,234.0 C 479.8,234.0 479.8,280.0 548.1,280.0" fill="none" stroke="#2563eb" stroke-width="2.4" stroke-linecap="round"/>
<path d="M 247.2,510.0 C 284.7,510.0 284.7,372.0 322.2,372.0" fill="none" stroke="#0891b2" stroke-width="2.4" stroke-linecap="round"/>
<path d="M 411.6,372.0 C 479.8,372.0 479.8,326.0 548.1,326.0" fill="none" stroke="#0891b2" stroke-width="2.4" stroke-linecap="round"/>
<path d="M 411.6,372.0 C 479.8,372.0 479.8,372.0 548.1,372.0" fill="none" stroke="#0891b2" stroke-width="2.4" stroke-linecap="round"/>
<path d="M 411.6,372.0 C 479.8,372.0 479.8,418.0 548.1,418.0" fill="none" stroke="#0891b2" stroke-width="2.4" stroke-linecap="round"/>
<path d="M 247.2,510.0 C 284.7,510.0 284.7,510.0 322.2,510.0" fill="none" stroke="#dc2626" stroke-width="2.4" stroke-linecap="round"/>
<path d="M 411.6,510.0 C 479.8,510.0 479.8,464.0 548.1,464.0" fill="none" stroke="#dc2626" stroke-width="2.4" stroke-linecap="round"/>
<path d="M 411.6,510.0 C 479.8,510.0 479.8,510.0 548.1,510.0" fill="none" stroke="#dc2626" stroke-width="2.4" stroke-linecap="round"/>
<path d="M 411.6,510.0 C 479.8,510.0 479.8,556.0 548.1,556.0" fill="none" stroke="#dc2626" stroke-width="2.4" stroke-linecap="round"/>
<path d="M 247.2,510.0 C 284.7,510.0 284.7,648.0 322.2,648.0" fill="none" stroke="#ea580c" stroke-width="2.4" stroke-linecap="round"/>
<path d="M 473.1,648.0 C 510.6,648.0 510.6,602.0 548.1,602.0" fill="none" stroke="#ea580c" stroke-width="2.4" stroke-linecap="round"/>
<path d="M 473.1,648.0 C 510.6,648.0 510.6,648.0 548.1,648.0" fill="none" stroke="#ea580c" stroke-width="2.4" stroke-linecap="round"/>
<path d="M 473.1,648.0 C 510.6,648.0 510.6,694.0 548.1,694.0" fill="none" stroke="#ea580c" stroke-width="2.4" stroke-linecap="round"/>
<path d="M 247.2,510.0 C 284.7,510.0 284.7,786.0 322.2,786.0" fill="none" stroke="#059669" stroke-width="2.4" stroke-linecap="round"/>
<path d="M 446.2,786.0 C 497.2,786.0 497.2,740.0 548.1,740.0" fill="none" stroke="#059669" stroke-width="2.4" stroke-linecap="round"/>
<path d="M 446.2,786.0 C 497.2,786.0 497.2,786.0 548.1,786.0" fill="none" stroke="#059669" stroke-width="2.4" stroke-linecap="round"/>
<path d="M 446.2,786.0 C 497.2,786.0 497.2,832.0 548.1,832.0" fill="none" stroke="#059669" stroke-width="2.4" stroke-linecap="round"/>
<path d="M 247.2,510.0 C 284.7,510.0 284.7,924.0 322.2,924.0" fill="none" stroke="#4f46e5" stroke-width="2.4" stroke-linecap="round"/>
<path d="M 446.2,924.0 C 497.2,924.0 497.2,878.0 548.1,878.0" fill="none" stroke="#4f46e5" stroke-width="2.4" stroke-linecap="round"/>
<path d="M 446.2,924.0 C 497.2,924.0 497.2,924.0 548.1,924.0" fill="none" stroke="#4f46e5" stroke-width="2.4" stroke-linecap="round"/>
<path d="M 446.2,924.0 C 497.2,924.0 497.2,970.0 548.1,970.0" fill="none" stroke="#4f46e5" stroke-width="2.4" stroke-linecap="round"/>
<rect x="40" y="485.0" width="207.2" height="50" rx="11" fill="#1e293b"/>
<text x="143.6" y="517.0" text-anchor="middle" fill="#ffffff" font-size="20" font-weight="700">训练框架治理对比</text>
<line x1="322.2" y1="96.0" x2="411.6" y2="96.0" stroke="#7c3aed" stroke-width="2.4" stroke-linecap="round"/>
<text x="332.2" y="88.0" fill="#7c3aed" font-size="17" font-weight="700">角色模型</text>
<line x1="548.1" y1="50.0" x2="812.2" y2="50.0" stroke="#7c3aed" stroke-width="2.4" stroke-linecap="round"/>
<text x="558.1" y="42.0" fill="#1f2937" font-size="17" font-weight="400">TFJob 异构 Chief/PS/Worker</text>
<line x1="548.1" y1="96.0" x2="812.2" y2="96.0" stroke="#7c3aed" stroke-width="2.4" stroke-linecap="round"/>
<text x="558.1" y="88.0" fill="#1f2937" font-size="17" font-weight="400">PyTorch 同构 Master/Worker</text>
<line x1="548.1" y1="142.0" x2="812.2" y2="142.0" stroke="#7c3aed" stroke-width="2.4" stroke-linecap="round"/>
<text x="558.1" y="134.0" fill="#1f2937" font-size="17" font-weight="400">Ray Head/Worker · Head特殊</text>
<line x1="322.2" y1="234.0" x2="411.6" y2="234.0" stroke="#2563eb" stroke-width="2.4" stroke-linecap="round"/>
<text x="332.2" y="226.0" fill="#2563eb" font-size="17" font-weight="700">调度治理</text>
<line x1="548.1" y1="188.0" x2="749.0" y2="188.0" stroke="#2563eb" stroke-width="2.4" stroke-linecap="round"/>
<text x="558.1" y="180.0" fill="#1f2937" font-size="17" font-weight="400">gang all-or-nothing</text>
<line x1="548.1" y1="234.0" x2="710.2" y2="234.0" stroke="#2563eb" stroke-width="2.4" stroke-linecap="round"/>
<text x="558.1" y="226.0" fill="#1f2937" font-size="17" font-weight="400">单层 vs 双层调度</text>
<line x1="548.1" y1="280.0" x2="737.1" y2="280.0" stroke="#2563eb" stroke-width="2.4" stroke-linecap="round"/>
<text x="558.1" y="272.0" fill="#1f2937" font-size="17" font-weight="400">Ray 配额/利用率失真</text>
<line x1="322.2" y1="372.0" x2="411.6" y2="372.0" stroke="#0891b2" stroke-width="2.4" stroke-linecap="round"/>
<text x="332.2" y="364.0" fill="#0891b2" font-size="17" font-weight="700">故障治理</text>
<line x1="548.1" y1="326.0" x2="775.2" y2="326.0" stroke="#0891b2" stroke-width="2.4" stroke-linecap="round"/>
<text x="558.1" y="318.0" fill="#1f2937" font-size="17" font-weight="400">角色级 / 任务级 / app级</text>
<line x1="548.1" y1="372.0" x2="731.0" y2="372.0" stroke="#0891b2" stroke-width="2.4" stroke-linecap="round"/>
<text x="558.1" y="364.0" fill="#1f2937" font-size="17" font-weight="400">PyTorch 一挂全重启</text>
<line x1="548.1" y1="418.0" x2="705.8" y2="418.0" stroke="#0891b2" stroke-width="2.4" stroke-linecap="round"/>
<text x="558.1" y="410.0" fill="#1f2937" font-size="17" font-weight="400">Ray Head 硬单点</text>
<line x1="322.2" y1="510.0" x2="411.6" y2="510.0" stroke="#dc2626" stroke-width="2.4" stroke-linecap="round"/>
<text x="332.2" y="502.0" fill="#dc2626" font-size="17" font-weight="700">资源弹性</text>
<line x1="548.1" y1="464.0" x2="821.7" y2="464.0" stroke="#dc2626" stroke-width="2.4" stroke-linecap="round"/>
<text x="558.1" y="456.0" fill="#1f2937" font-size="17" font-weight="400">静态 / elastic / autoscaler</text>
<line x1="548.1" y1="510.0" x2="729.3" y2="510.0" stroke="#dc2626" stroke-width="2.4" stroke-linecap="round"/>
<text x="558.1" y="502.0" fill="#1f2937" font-size="17" font-weight="400">TFJob 适配潮汐待退</text>
<line x1="548.1" y1="556.0" x2="706.8" y2="556.0" stroke="#dc2626" stroke-width="2.4" stroke-linecap="round"/>
<text x="558.1" y="548.0" fill="#1f2937" font-size="17" font-weight="400">弹性越强核算越难</text>
<line x1="322.2" y1="648.0" x2="473.1" y2="648.0" stroke="#ea580c" stroke-width="2.4" stroke-linecap="round"/>
<text x="332.2" y="640.0" fill="#ea580c" font-size="17" font-weight="700">可观测·生命周期</text>
<line x1="548.1" y1="602.0" x2="689.5" y2="602.0" stroke="#ea580c" stroke-width="2.4" stroke-linecap="round"/>
<text x="558.1" y="594.0" fill="#1f2937" font-size="17" font-weight="400">完成信号源各异</text>
<line x1="548.1" y1="648.0" x2="689.5" y2="648.0" stroke="#ea580c" stroke-width="2.4" stroke-linecap="round"/>
<text x="558.1" y="640.0" fill="#1f2937" font-size="17" font-weight="400">统一状态机适配</text>
<line x1="548.1" y1="694.0" x2="734.4" y2="694.0" stroke="#ea580c" stroke-width="2.4" stroke-linecap="round"/>
<text x="558.1" y="686.0" fill="#1f2937" font-size="17" font-weight="400">Pod Running≠任务活</text>
<line x1="322.2" y1="786.0" x2="446.2" y2="786.0" stroke="#059669" stroke-width="2.4" stroke-linecap="round"/>
<text x="332.2" y="778.0" fill="#059669" font-size="17" font-weight="700">统一排障主线</text>
<line x1="548.1" y1="740.0" x2="724.8" y2="740.0" stroke="#059669" stroke-width="2.4" stroke-linecap="round"/>
<text x="558.1" y="732.0" fill="#1f2937" font-size="17" font-weight="400">调度层 gang/quota</text>
<line x1="548.1" y1="786.0" x2="762.9" y2="786.0" stroke="#059669" stroke-width="2.4" stroke-linecap="round"/>
<text x="558.1" y="778.0" fill="#1f2937" font-size="17" font-weight="400">发现层 rendezvous/GCS</text>
<line x1="548.1" y1="832.0" x2="711.9" y2="832.0" stroke="#059669" stroke-width="2.4" stroke-linecap="round"/>
<text x="558.1" y="824.0" fill="#1f2937" font-size="17" font-weight="400">计算层 NCCL/算力</text>
<line x1="322.2" y1="924.0" x2="446.2" y2="924.0" stroke="#4f46e5" stroke-width="2.4" stroke-linecap="round"/>
<text x="332.2" y="916.0" fill="#4f46e5" font-size="17" font-weight="700">项目安全连接</text>
<line x1="548.1" y1="878.0" x2="704.1" y2="878.0" stroke="#4f46e5" stroke-width="2.4" stroke-linecap="round"/>
<text x="558.1" y="870.0" fill="#1f2937" font-size="17" font-weight="400">TFJob 实践·潮汐</text>
<line x1="548.1" y1="924.0" x2="757.8" y2="924.0" stroke="#4f46e5" stroke-width="2.4" stroke-linecap="round"/>
<text x="558.1" y="916.0" fill="#1f2937" font-size="17" font-weight="400">PyTorch 平台承接·了解</text>
<line x1="548.1" y1="970.0" x2="685.1" y2="970.0" stroke="#4f46e5" stroke-width="2.4" stroke-linecap="round"/>
<text x="558.1" y="962.0" fill="#1f2937" font-size="17" font-weight="400">Ray 少量·对标</text>
</svg>