<svg xmlns="http://www.w3.org/2000/svg" viewBox="0 0 1640 860" font-family="-apple-system, PingFang SC, Microsoft YaHei, Helvetica, Arial, sans-serif">
<rect x="0" y="0" width="1640" height="860" fill="#f8fafc"/>
<text x="40" y="52" fill="#0f172a" font-size="24" font-weight="700">SAI 平台承接三类负载的运行时拓扑</text>
<rect x="40" y="80" width="1560" height="58" rx="12" fill="#1e293b" stroke="#1e293b" stroke-width="2"/>
<text x="820" y="115.5" text-anchor="middle" fill="#fff" font-size="18" font-weight="700">SAI 训推平台  ·  统一提交入口 / 任务画像 / gang &amp; quota / 统一状态机 / 可观测</text>
<defs><marker id="ah94a3b8" markerWidth="9" markerHeight="9" refX="7" refY="3" orient="auto"><path d="M0,0 L7,3 L0,6 Z" fill="#94a3b8"/></marker></defs>
<path d="M 300,138 L 300,180" stroke="#94a3b8" stroke-width="2.0" fill="none" marker-end="url(#ah94a3b8)"/>
<rect x="50" y="180" width="500" height="540" rx="14" fill="#eff6ff" stroke="#2563eb" stroke-width="2"/>
<rect x="50" y="180" width="500" height="54" rx="14" fill="#2563eb" stroke="#2563eb" stroke-width="2"/>
<text x="300" y="214.0" text-anchor="middle" fill="#fff" font-size="19" font-weight="700">TFJob 主力承接</text>
<rect x="80" y="270" width="440" height="86" rx="10" fill="#ffffff" stroke="#2563eb" stroke-width="1"/>
<text x="300" y="306.5" text-anchor="middle" fill="#334155" font-size="16" font-weight="700">承接量</text>
<text x="300" y="330.5" text-anchor="middle" fill="#334155" font-size="15" font-weight="400">主力 (我熟·实践)</text>
<rect x="80" y="374" width="440" height="86" rx="10" fill="#ffffff" stroke="#2563eb" stroke-width="1"/>
<text x="300" y="410.5" text-anchor="middle" fill="#334155" font-size="16" font-weight="700">画像</text>
<text x="300" y="434.5" text-anchor="middle" fill="#334155" font-size="15" font-weight="400">静态·可重试·checkpoint 可控</text>
<rect x="80" y="478" width="440" height="86" rx="10" fill="#ffffff" stroke="#2563eb" stroke-width="1"/>
<text x="300" y="514.5" text-anchor="middle" fill="#334155" font-size="16" font-weight="700">资源</text>
<text x="300" y="538.5" text-anchor="middle" fill="#334155" font-size="15" font-weight="400">潮汐 / 在线低峰 / 待退实例</text>
<rect x="80" y="582" width="440" height="86" rx="10" fill="#ffffff" stroke="#2563eb" stroke-width="1"/>
<text x="300" y="618.5" text-anchor="middle" fill="#334155" font-size="16" font-weight="700">风险</text>
<text x="300" y="642.5" text-anchor="middle" fill="#334155" font-size="15" font-weight="400">夜间回收触发失败 → 退避回离线</text>
<defs><marker id="ah94a3b8" markerWidth="9" markerHeight="9" refX="7" refY="3" orient="auto"><path d="M0,0 L7,3 L0,6 Z" fill="#94a3b8"/></marker></defs>
<path d="M 830,138 L 830,180" stroke="#94a3b8" stroke-width="2.0" fill="none" marker-end="url(#ah94a3b8)"/>
<rect x="580" y="180" width="500" height="540" rx="14" fill="#fef2f2" stroke="#dc2626" stroke-width="2"/>
<rect x="580" y="180" width="500" height="54" rx="14" fill="#dc2626" stroke="#dc2626" stroke-width="2"/>
<text x="830" y="214.0" text-anchor="middle" fill="#fff" font-size="19" font-weight="700">PyTorchJob（数字分身多模态）</text>
<rect x="610" y="270" width="440" height="86" rx="10" fill="#ffffff" stroke="#dc2626" stroke-width="1"/>
<text x="830" y="306.5" text-anchor="middle" fill="#334155" font-size="16" font-weight="700">承接量</text>
<text x="830" y="330.5" text-anchor="middle" fill="#334155" font-size="15" font-weight="400">业务承接 (我了解平台侧)</text>
<rect x="610" y="374" width="440" height="86" rx="10" fill="#ffffff" stroke="#dc2626" stroke-width="1"/>
<text x="830" y="410.5" text-anchor="middle" fill="#334155" font-size="16" font-weight="700">画像</text>
<text x="830" y="434.5" text-anchor="middle" fill="#334155" font-size="15" font-weight="400">同步 all-reduce·拓扑敏感</text>
<rect x="610" y="478" width="440" height="86" rx="10" fill="#ffffff" stroke="#dc2626" stroke-width="1"/>
<text x="830" y="514.5" text-anchor="middle" fill="#334155" font-size="16" font-weight="700">资源</text>
<text x="830" y="538.5" text-anchor="middle" fill="#334155" font-size="15" font-weight="400">专用训练池 + 拓扑感知调度</text>
<rect x="610" y="582" width="440" height="86" rx="10" fill="#ffffff" stroke="#dc2626" stroke-width="1"/>
<text x="830" y="618.5" text-anchor="middle" fill="#334155" font-size="16" font-weight="700">风险</text>
<text x="830" y="642.5" text-anchor="middle" fill="#334155" font-size="15" font-weight="400">少一 worker 卡 rendezvous / NCCL 超时</text>
<defs><marker id="ah94a3b8" markerWidth="9" markerHeight="9" refX="7" refY="3" orient="auto"><path d="M0,0 L7,3 L0,6 Z" fill="#94a3b8"/></marker></defs>
<path d="M 1360,138 L 1360,180" stroke="#94a3b8" stroke-width="2.0" fill="none" marker-end="url(#ah94a3b8)"/>
<rect x="1110" y="180" width="500" height="540" rx="14" fill="#ecfdf5" stroke="#059669" stroke-width="2"/>
<rect x="1110" y="180" width="500" height="54" rx="14" fill="#059669" stroke="#059669" stroke-width="2"/>
<text x="1360" y="214.0" text-anchor="middle" fill="#fff" font-size="19" font-weight="700">Ray 少量负载</text>
<rect x="1140" y="270" width="440" height="86" rx="10" fill="#ffffff" stroke="#059669" stroke-width="1"/>
<text x="1360" y="306.5" text-anchor="middle" fill="#334155" font-size="16" font-weight="700">承接量</text>
<text x="1360" y="330.5" text-anchor="middle" fill="#334155" font-size="15" font-weight="400">少量 (我对标了解)</text>
<rect x="1140" y="374" width="440" height="86" rx="10" fill="#ffffff" stroke="#059669" stroke-width="1"/>
<text x="1360" y="410.5" text-anchor="middle" fill="#334155" font-size="16" font-weight="700">画像</text>
<text x="1360" y="434.5" text-anchor="middle" fill="#334155" font-size="15" font-weight="400">双层调度·Head 单点</text>
<rect x="1140" y="478" width="440" height="86" rx="10" fill="#ffffff" stroke="#059669" stroke-width="1"/>
<text x="1360" y="514.5" text-anchor="middle" fill="#334155" font-size="16" font-weight="700">资源</text>
<text x="1360" y="538.5" text-anchor="middle" fill="#334155" font-size="15" font-weight="400">稳定节点护 Head·避待退/Spot</text>
<rect x="1140" y="582" width="440" height="86" rx="10" fill="#ffffff" stroke="#059669" stroke-width="1"/>
<text x="1360" y="618.5" text-anchor="middle" fill="#334155" font-size="16" font-weight="700">风险</text>
<text x="1360" y="642.5" text-anchor="middle" fill="#334155" font-size="15" font-weight="400">Pod Running 但 task 死 / Head 挂集群废</text>
</svg>