<svg xmlns="http://www.w3.org/2000/svg" viewBox="0 0 1024 1238" font-family="-apple-system, PingFang SC, Microsoft YaHei, Helvetica, Arial, sans-serif">
<rect x="0" y="0" width="1024" height="1238" fill="#ffffff"/>
<path d="M 359.6,604.0 C 391.6,604.0 391.6,104.0 423.6,104.0" fill="none" stroke="#7c3aed" stroke-width="2.6" stroke-linecap="round"/>
<path d="M 537.4,104.0 C 614.3,104.0 614.3,54.0 691.2,54.0" fill="none" stroke="#7c3aed" stroke-width="2.6" stroke-linecap="round"/>
<path d="M 537.4,104.0 C 614.3,104.0 614.3,104.0 691.2,104.0" fill="none" stroke="#7c3aed" stroke-width="2.6" stroke-linecap="round"/>
<path d="M 537.4,104.0 C 614.3,104.0 614.3,154.0 691.2,154.0" fill="none" stroke="#7c3aed" stroke-width="2.6" stroke-linecap="round"/>
<path d="M 359.6,604.0 C 391.6,604.0 391.6,254.0 423.6,254.0" fill="none" stroke="#2563eb" stroke-width="2.6" stroke-linecap="round"/>
<path d="M 582.3,254.0 C 636.7,254.0 636.7,204.0 691.2,204.0" fill="none" stroke="#2563eb" stroke-width="2.6" stroke-linecap="round"/>
<path d="M 582.3,254.0 C 636.7,254.0 636.7,254.0 691.2,254.0" fill="none" stroke="#2563eb" stroke-width="2.6" stroke-linecap="round"/>
<path d="M 582.3,254.0 C 636.7,254.0 636.7,304.0 691.2,304.0" fill="none" stroke="#2563eb" stroke-width="2.6" stroke-linecap="round"/>
<path d="M 359.6,604.0 C 391.6,604.0 391.6,429.0 423.6,429.0" fill="none" stroke="#0891b2" stroke-width="2.6" stroke-linecap="round"/>
<path d="M 582.3,429.0 C 636.7,429.0 636.7,354.0 691.2,354.0" fill="none" stroke="#0891b2" stroke-width="2.6" stroke-linecap="round"/>
<path d="M 582.3,429.0 C 636.7,429.0 636.7,404.0 691.2,404.0" fill="none" stroke="#0891b2" stroke-width="2.6" stroke-linecap="round"/>
<path d="M 582.3,429.0 C 636.7,429.0 636.7,454.0 691.2,454.0" fill="none" stroke="#0891b2" stroke-width="2.6" stroke-linecap="round"/>
<path d="M 582.3,429.0 C 636.7,429.0 636.7,504.0 691.2,504.0" fill="none" stroke="#0891b2" stroke-width="2.6" stroke-linecap="round"/>
<path d="M 359.6,604.0 C 391.6,604.0 391.6,604.0 423.6,604.0" fill="none" stroke="#dc2626" stroke-width="2.6" stroke-linecap="round"/>
<path d="M 627.2,604.0 C 659.2,604.0 659.2,554.0 691.2,554.0" fill="none" stroke="#dc2626" stroke-width="2.6" stroke-linecap="round"/>
<path d="M 627.2,604.0 C 659.2,604.0 659.2,604.0 691.2,604.0" fill="none" stroke="#dc2626" stroke-width="2.6" stroke-linecap="round"/>
<path d="M 627.2,604.0 C 659.2,604.0 659.2,654.0 691.2,654.0" fill="none" stroke="#dc2626" stroke-width="2.6" stroke-linecap="round"/>
<path d="M 359.6,604.0 C 391.6,604.0 391.6,779.0 423.6,779.0" fill="none" stroke="#ea580c" stroke-width="2.6" stroke-linecap="round"/>
<path d="M 582.3,779.0 C 636.7,779.0 636.7,704.0 691.2,704.0" fill="none" stroke="#ea580c" stroke-width="2.6" stroke-linecap="round"/>
<path d="M 582.3,779.0 C 636.7,779.0 636.7,754.0 691.2,754.0" fill="none" stroke="#ea580c" stroke-width="2.6" stroke-linecap="round"/>
<path d="M 582.3,779.0 C 636.7,779.0 636.7,804.0 691.2,804.0" fill="none" stroke="#ea580c" stroke-width="2.6" stroke-linecap="round"/>
<path d="M 582.3,779.0 C 636.7,779.0 636.7,854.0 691.2,854.0" fill="none" stroke="#ea580c" stroke-width="2.6" stroke-linecap="round"/>
<path d="M 359.6,604.0 C 391.6,604.0 391.6,954.0 423.6,954.0" fill="none" stroke="#059669" stroke-width="2.6" stroke-linecap="round"/>
<path d="M 537.4,954.0 C 614.3,954.0 614.3,904.0 691.2,904.0" fill="none" stroke="#059669" stroke-width="2.6" stroke-linecap="round"/>
<path d="M 537.4,954.0 C 614.3,954.0 614.3,954.0 691.2,954.0" fill="none" stroke="#059669" stroke-width="2.6" stroke-linecap="round"/>
<path d="M 537.4,954.0 C 614.3,954.0 614.3,1004.0 691.2,1004.0" fill="none" stroke="#059669" stroke-width="2.6" stroke-linecap="round"/>
<path d="M 359.6,604.0 C 391.6,604.0 391.6,1104.0 423.6,1104.0" fill="none" stroke="#db2777" stroke-width="2.6" stroke-linecap="round"/>
<path d="M 582.3,1104.0 C 636.7,1104.0 636.7,1054.0 691.2,1054.0" fill="none" stroke="#db2777" stroke-width="2.6" stroke-linecap="round"/>
<path d="M 582.3,1104.0 C 636.7,1104.0 636.7,1104.0 691.2,1104.0" fill="none" stroke="#db2777" stroke-width="2.6" stroke-linecap="round"/>
<path d="M 582.3,1104.0 C 636.7,1104.0 636.7,1154.0 691.2,1154.0" fill="none" stroke="#db2777" stroke-width="2.6" stroke-linecap="round"/>
<rect x="44" y="573.0" width="315.6" height="62" rx="12" fill="#1e293b"/>
<text x="201.8" y="613.0" text-anchor="middle" fill="#ffffff" font-size="26" font-weight="700">Agent应用 vs 微服务</text>
<line x1="423.6" y1="104.0" x2="537.4" y2="104.0" stroke="#7c3aed" stroke-width="2.6" stroke-linecap="round"/>
<text x="435.6" y="95.0" fill="#7c3aed" font-size="22" font-weight="700">经验边界</text>
<line x1="691.2" y1="54.0" x2="929.4" y2="54.0" stroke="#7c3aed" stroke-width="2.6" stroke-linecap="round"/>
<text x="703.2" y="45.0" fill="#1f2937" font-size="22" font-weight="400">隔离运行时·理论对标</text>
<line x1="691.2" y1="104.0" x2="919.3" y2="104.0" stroke="#7c3aed" stroke-width="2.6" stroke-linecap="round"/>
<text x="703.2" y="95.0" fill="#1f2937" font-size="22" font-weight="400">控制面/保障·真经验</text>
<line x1="691.2" y1="154.0" x2="849.8" y2="154.0" stroke="#7c3aed" stroke-width="2.6" stroke-linecap="round"/>
<text x="703.2" y="145.0" fill="#1f2937" font-size="22" font-weight="400">先声明再展开</text>
<line x1="423.6" y1="254.0" x2="582.3" y2="254.0" stroke="#2563eb" stroke-width="2.6" stroke-linecap="round"/>
<text x="435.6" y="245.0" fill="#2563eb" font-size="22" font-weight="700">运行环境差异</text>
<line x1="691.2" y1="204.0" x2="884.6" y2="204.0" stroke="#2563eb" stroke-width="2.6" stroke-linecap="round"/>
<text x="703.2" y="195.0" fill="#1f2937" font-size="22" font-weight="400">共享内核→强隔离</text>
<line x1="691.2" y1="254.0" x2="907.0" y2="254.0" stroke="#2563eb" stroke-width="2.6" stroke-linecap="round"/>
<text x="703.2" y="245.0" fill="#1f2937" font-size="22" font-weight="400">分钟长驻→秒级即弃</text>
<line x1="691.2" y1="304.0" x2="907.0" y2="304.0" stroke="#2563eb" stroke-width="2.6" stroke-linecap="round"/>
<text x="703.2" y="295.0" fill="#1f2937" font-size="22" font-weight="400">镜像拉取→瞬时就绪</text>
<line x1="423.6" y1="429.0" x2="582.3" y2="429.0" stroke="#0891b2" stroke-width="2.6" stroke-linecap="round"/>
<text x="435.6" y="420.0" fill="#0891b2" font-size="22" font-weight="700">保障体系差异</text>
<line x1="691.2" y1="354.0" x2="970.8" y2="354.0" stroke="#0891b2" stroke-width="2.6" stroke-linecap="round"/>
<text x="703.2" y="345.0" fill="#1f2937" font-size="22" font-weight="400">探针重启→durable可重放</text>
<line x1="691.2" y1="404.0" x2="913.6" y2="404.0" stroke="#0891b2" stroke-width="2.6" stroke-linecap="round"/>
<text x="703.2" y="395.0" fill="#1f2937" font-size="22" font-weight="400">HPA按QPS→涌浪削峰</text>
<line x1="691.2" y1="454.0" x2="968.6" y2="454.0" stroke="#0891b2" stroke-width="2.6" stroke-linecap="round"/>
<text x="703.2" y="445.0" fill="#1f2937" font-size="22" font-weight="400">RBAC→出站白名单/防残留</text>
<line x1="691.2" y1="504.0" x2="967.3" y2="504.0" stroke="#0891b2" stroke-width="2.6" stroke-linecap="round"/>
<text x="703.2" y="495.0" fill="#1f2937" font-size="22" font-weight="400">P99→Event状态机+token</text>
<line x1="423.6" y1="604.0" x2="627.2" y2="604.0" stroke="#dc2626" stroke-width="2.6" stroke-linecap="round"/>
<text x="435.6" y="595.0" fill="#dc2626" font-size="22" font-weight="700">为什么微服务不够</text>
<line x1="691.2" y1="554.0" x2="872.2" y2="554.0" stroke="#dc2626" stroke-width="2.6" stroke-linecap="round"/>
<text x="703.2" y="545.0" fill="#1f2937" font-size="22" font-weight="400">不可信代码逃逸</text>
<line x1="691.2" y1="604.0" x2="849.8" y2="604.0" stroke="#dc2626" stroke-width="2.6" stroke-linecap="round"/>
<text x="703.2" y="595.0" fill="#1f2937" font-size="22" font-weight="400">秒级高频突发</text>
<line x1="691.2" y1="654.0" x2="884.6" y2="654.0" stroke="#dc2626" stroke-width="2.6" stroke-linecap="round"/>
<text x="703.2" y="645.0" fill="#1f2937" font-size="22" font-weight="400">会话态/数据残留</text>
<line x1="423.6" y1="779.0" x2="582.3" y2="779.0" stroke="#ea580c" stroke-width="2.6" stroke-linecap="round"/>
<text x="435.6" y="770.0" fill="#ea580c" font-size="22" font-weight="700">如果让我落地</text>
<line x1="691.2" y1="704.0" x2="894.7" y2="704.0" stroke="#ea580c" stroke-width="2.6" stroke-linecap="round"/>
<text x="703.2" y="695.0" fill="#1f2937" font-size="22" font-weight="400">复用控制面跑闭环</text>
<line x1="691.2" y1="754.0" x2="872.2" y2="754.0" stroke="#ea580c" stroke-width="2.6" stroke-linecap="round"/>
<text x="703.2" y="745.0" fill="#1f2937" font-size="22" font-weight="400">可插拔隔离后端</text>
<line x1="691.2" y1="804.0" x2="872.2" y2="804.0" stroke="#ea580c" stroke-width="2.6" stroke-linecap="round"/>
<text x="703.2" y="795.0" fill="#1f2937" font-size="22" font-weight="400">冷启动分层提速</text>
<line x1="691.2" y1="854.0" x2="884.6" y2="854.0" stroke="#ea580c" stroke-width="2.6" stroke-linecap="round"/>
<text x="703.2" y="845.0" fill="#1f2937" font-size="22" font-weight="400">多租户+安全收紧</text>
<line x1="423.6" y1="954.0" x2="537.4" y2="954.0" stroke="#059669" stroke-width="2.6" stroke-linecap="round"/>
<text x="435.6" y="945.0" fill="#059669" font-size="22" font-weight="700">排障主线</text>
<line x1="691.2" y1="904.0" x2="896.9" y2="904.0" stroke="#059669" stroke-width="2.6" stroke-linecap="round"/>
<text x="703.2" y="895.0" fill="#1f2937" font-size="22" font-weight="400">会话→沙箱→隔离层</text>
<line x1="691.2" y1="954.0" x2="901.3" y2="954.0" stroke="#059669" stroke-width="2.6" stroke-linecap="round"/>
<text x="703.2" y="945.0" fill="#1f2937" font-size="22" font-weight="400">Event时间线+日志</text>
<line x1="691.2" y1="1004.0" x2="917.1" y2="1004.0" stroke="#059669" stroke-width="2.6" stroke-linecap="round"/>
<text x="703.2" y="995.0" fill="#1f2937" font-size="22" font-weight="400">回写用户可理解结论</text>
<line x1="423.6" y1="1104.0" x2="582.3" y2="1104.0" stroke="#db2777" stroke-width="2.6" stroke-linecap="round"/>
<text x="435.6" y="1095.0" fill="#db2777" font-size="22" font-weight="700">项目安全连接</text>
<line x1="691.2" y1="1054.0" x2="933.8" y2="1054.0" stroke="#db2777" stroke-width="2.6" stroke-linecap="round"/>
<text x="703.2" y="1045.0" fill="#1f2937" font-size="22" font-weight="400">SAE 微服务底座·实践</text>
<line x1="691.2" y1="1104.0" x2="952.8" y2="1104.0" stroke="#db2777" stroke-width="2.6" stroke-linecap="round"/>
<text x="703.2" y="1095.0" fill="#1f2937" font-size="22" font-weight="400">SAI 多云Runtime·实践</text>
<line x1="691.2" y1="1154.0" x2="915.8" y2="1154.0" stroke="#db2777" stroke-width="2.6" stroke-linecap="round"/>
<text x="703.2" y="1145.0" fill="#1f2937" font-size="22" font-weight="400">Bigeyes 闭环·设计</text>
</svg>