<svg xmlns="http://www.w3.org/2000/svg" viewBox="0 0 1000 620" width="1000" height="620">
  <style>text { font-family: 'Helvetica Neue', Helvetica, Arial, 'PingFang SC', 'Microsoft YaHei', 'SimHei', sans-serif; }</style>
  <defs>
    <marker id="arr-g" markerWidth="10" markerHeight="7" refX="9" refY="3.5" orient="auto"><polygon points="0 0, 10 3.5, 0 7" fill="#16a34a"/></marker>
    <marker id="arr-b" markerWidth="10" markerHeight="7" refX="9" refY="3.5" orient="auto"><polygon points="0 0, 10 3.5, 0 7" fill="#2563eb"/></marker>
    <marker id="arr-gray" markerWidth="10" markerHeight="7" refX="9" refY="3.5" orient="auto"><polygon points="0 0, 10 3.5, 0 7" fill="#6b7280"/></marker>
    <marker id="arr-p" markerWidth="10" markerHeight="7" refX="9" refY="3.5" orient="auto"><polygon points="0 0, 10 3.5, 0 7" fill="#9333ea"/></marker>
    <marker id="arr-o" markerWidth="10" markerHeight="7" refX="9" refY="3.5" orient="auto"><polygon points="0 0, 10 3.5, 0 7" fill="#ea580c"/></marker>
    <marker id="arr-r" markerWidth="10" markerHeight="7" refX="9" refY="3.5" orient="auto"><polygon points="0 0, 10 3.5, 0 7" fill="#dc2626"/></marker>
  </defs>
  <rect width="1000" height="620" fill="#ffffff"/>
  <text x="500" y="42" font-size="18" fill="#111827" text-anchor="middle" font-weight="600">经验边界映射：真实生产经验 ↔ 理论对标</text>
  <rect x="40" y="80" width="300" height="480" rx="10" fill="#f0fdf4" stroke="#16a34a" stroke-width="2"/>
  <text x="190" y="110" font-size="15" fill="#15803d" text-anchor="middle" font-weight="600">真实生产经验（实操）</text>
  <rect x="60" y="130" width="260" height="120" rx="8" fill="#ffffff" stroke="#86efac" stroke-width="1.5"/>
  <text x="190" y="170" font-size="15" fill="#111827" text-anchor="middle" font-weight="600">SAE 控制面</text>
  <text x="190" y="198" font-size="12" fill="#6b7280" text-anchor="middle" font-weight="400">Watcher / Reconcile</text>
  <text x="190" y="222" font-size="12" fill="#6b7280" text-anchor="middle" font-weight="400">生命周期管理</text>
  <rect x="60" y="270" width="260" height="120" rx="8" fill="#ffffff" stroke="#86efac" stroke-width="1.5"/>
  <text x="190" y="310" font-size="15" fill="#111827" text-anchor="middle" font-weight="600">SAI 运行时平台</text>
  <text x="190" y="338" font-size="12" fill="#6b7280" text-anchor="middle" font-weight="400">多云 Runtime 抽象</text>
  <text x="190" y="362" font-size="12" fill="#6b7280" text-anchor="middle" font-weight="400">状态同步</text>
  <rect x="60" y="410" width="260" height="120" rx="8" fill="#ffffff" stroke="#86efac" stroke-width="1.5"/>
  <text x="190" y="450" font-size="15" fill="#111827" text-anchor="middle" font-weight="600">Bigeyes</text>
  <text x="190" y="478" font-size="12" fill="#6b7280" text-anchor="middle" font-weight="400">Runtime Event 状态机</text>
  <text x="190" y="502" font-size="12" fill="#6b7280" text-anchor="middle" font-weight="400">故障治理</text>
  <rect x="660" y="80" width="300" height="480" rx="10" fill="#f9fafb" stroke="#9ca3af" stroke-width="2" stroke-dasharray="6,4"/>
  <text x="810" y="110" font-size="15" fill="#4b5563" text-anchor="middle" font-weight="600">理论对标（无直接实操）</text>
  <rect x="680" y="125" width="260" height="70" rx="8" fill="#ffffff" stroke="#d1d5db" stroke-width="1.5" stroke-dasharray="6,4"/>
  <text x="810" y="155" font-size="13" fill="#374151" text-anchor="middle" font-weight="600">gVisor</text>
  <text x="810" y="177" font-size="11" fill="#6b7280" text-anchor="middle" font-weight="400">用户态内核拦截 syscall</text>
  <rect x="680" y="210" width="260" height="70" rx="8" fill="#ffffff" stroke="#d1d5db" stroke-width="1.5" stroke-dasharray="6,4"/>
  <text x="810" y="240" font-size="13" fill="#374151" text-anchor="middle" font-weight="600">Kata Containers</text>
  <text x="810" y="262" font-size="11" fill="#6b7280" text-anchor="middle" font-weight="400">轻量 VM 隔离</text>
  <rect x="680" y="295" width="260" height="70" rx="8" fill="#ffffff" stroke="#d1d5db" stroke-width="1.5" stroke-dasharray="6,4"/>
  <text x="810" y="325" font-size="13" fill="#374151" text-anchor="middle" font-weight="600">Firecracker microVM</text>
  <text x="810" y="347" font-size="11" fill="#6b7280" text-anchor="middle" font-weight="400">硬件隔离 microVM</text>
  <rect x="680" y="380" width="260" height="70" rx="8" fill="#ffffff" stroke="#d1d5db" stroke-width="1.5" stroke-dasharray="6,4"/>
  <text x="810" y="410" font-size="13" fill="#374151" text-anchor="middle" font-weight="600">Sandbox Pool</text>
  <text x="810" y="432" font-size="11" fill="#6b7280" text-anchor="middle" font-weight="400">预热池</text>
  <rect x="680" y="465" width="260" height="70" rx="8" fill="#ffffff" stroke="#d1d5db" stroke-width="1.5" stroke-dasharray="6,4"/>
  <text x="810" y="495" font-size="13" fill="#374151" text-anchor="middle" font-weight="600">Snapshot / Restore</text>
  <text x="810" y="517" font-size="11" fill="#6b7280" text-anchor="middle" font-weight="400">秒级恢复</text>
  <rect x="400" y="268" width="200" height="116" rx="8" fill="#ffffff" stroke="#16a34a" stroke-width="1.5"/>
  <text x="500" y="296" font-size="13" fill="#111827" text-anchor="middle" font-weight="600">同一类工程问题</text>
  <text x="500" y="320" font-size="11" fill="#6b7280" text-anchor="middle" font-weight="400">生命周期 / 状态同步</text>
  <text x="500" y="340" font-size="11" fill="#6b7280" text-anchor="middle" font-weight="400">调度 / Event 治理</text>
  <text x="500" y="366" font-size="12" fill="#15803d" text-anchor="middle" font-weight="600">→ 可迁移理解</text>
  <line x1="340" y1="326" x2="396" y2="326" stroke="#16a34a" stroke-width="2" marker-end="url(#arr-g)"/>
  <line x1="604" y1="326" x2="656" y2="326" stroke="#9ca3af" stroke-width="2" stroke-dasharray="6,4" marker-end="url(#arr-gray)"/>
  <line x1="50" y1="588" x2="84" y2="588" stroke="#16a34a" stroke-width="2" marker-end="url(#arr-g)"/>
  <text x="92" y="592" font-size="12" fill="#6b7280" text-anchor="start" font-weight="400">真实生产经验（可平移）</text>
  <line x1="320" y1="588" x2="354" y2="588" stroke="#9ca3af" stroke-width="2" stroke-dasharray="6,4" marker-end="url(#arr-gray)"/>
  <text x="362" y="592" font-size="12" fill="#6b7280" text-anchor="start" font-weight="400">理论对标（无实操）</text>
</svg>