<svg xmlns="http://www.w3.org/2000/svg" viewBox="0 0 1180 660" width="1180" height="660">
  <style>text{font-family:'Helvetica Neue',Helvetica,Arial,'PingFang SC','Microsoft YaHei',sans-serif}.title{font-size:22px;font-weight:700;fill:#111827}.head{font-size:14px;font-weight:700;fill:#111827}.msg{font-size:12px;fill:#374151}.note{font-size:11px;fill:#6b7280}</style>
  <defs><marker id="arr" markerWidth="10" markerHeight="7" refX="9" refY="3.5" orient="auto"><polygon points="0 0,10 3.5,0 7" fill="#2563eb"/></marker><marker id="green" markerWidth="10" markerHeight="7" refX="9" refY="3.5" orient="auto"><polygon points="0 0,10 3.5,0 7" fill="#16a34a"/></marker></defs>
  <rect width="1180" height="660" fill="#fff"/>
  <text x="40" y="42" class="title">飞书卡片交互闭环时序</text>
  <g transform="translate(40,82)">
    <g>
      <rect x="0" y="0" width="110" height="42" rx="8" fill="#eff6ff" stroke="#bfdbfe"/><text x="55" y="26" text-anchor="middle" class="head">用户</text>
      <rect x="165" y="0" width="110" height="42" rx="8" fill="#fef2f2" stroke="#fecaca"/><text x="220" y="26" text-anchor="middle" class="head">飞书卡片</text>
      <rect x="330" y="0" width="150" height="42" rx="8" fill="#faf5ff" stroke="#e9d5ff"/><text x="405" y="26" text-anchor="middle" class="head">WS Client</text>
      <rect x="535" y="0" width="150" height="42" rx="8" fill="#fff7ed" stroke="#fed7aa"/><text x="610" y="26" text-anchor="middle" class="head">Handler</text>
      <rect x="740" y="0" width="150" height="42" rx="8" fill="#f0fdf4" stroke="#bbf7d0"/><text x="815" y="26" text-anchor="middle" class="head">Service</text>
      <rect x="945" y="0" width="110" height="42" rx="8" fill="#ecfeff" stroke="#a5f3fc"/><text x="1000" y="26" text-anchor="middle" class="head">MySQL</text>
    </g>
    <g stroke="#d1d5db" stroke-dasharray="6,5">
      <line x1="55" y1="42" x2="55" y2="520"/><line x1="220" y1="42" x2="220" y2="520"/><line x1="405" y1="42" x2="405" y2="520"/><line x1="610" y1="42" x2="610" y2="520"/><line x1="815" y1="42" x2="815" y2="520"/><line x1="1000" y1="42" x2="1000" y2="520"/>
    </g>
    <line x1="55" y1="88" x2="220" y2="88" stroke="#2563eb" stroke-width="2" marker-end="url(#arr)"/><text x="138" y="80" text-anchor="middle" class="msg">点击 ack/mute/误报/拉群</text>
    <line x1="220" y1="134" x2="405" y2="134" stroke="#2563eb" stroke-width="2" marker-end="url(#arr)"/><text x="312" y="126" text-anchor="middle" class="msg">P2CardActionTrigger</text>
    <rect x="388" y="146" width="34" height="86" rx="4" fill="#ede9fe" stroke="#c4b5fd"/>
    <line x1="405" y1="178" x2="610" y2="178" stroke="#2563eb" stroke-width="2" marker-end="url(#arr)"/><text x="508" y="170" text-anchor="middle" class="msg">key -> LarkCallback 分发</text>
    <rect x="593" y="190" width="34" height="142" rx="4" fill="#fed7aa" stroke="#fdba74"/>
    <line x1="610" y1="226" x2="815" y2="226" stroke="#2563eb" stroke-width="2" marker-end="url(#arr)"/><text x="712" y="218" text-anchor="middle" class="msg">ack/mute/positive/falsePositive</text>
    <line x1="815" y1="272" x2="1000" y2="272" stroke="#16a34a" stroke-width="2" marker-end="url(#green)"/><text x="908" y="264" text-anchor="middle" class="msg">更新聚合事件与操作日志</text>
    <rect x="535" y="360" width="420" height="74" rx="10" fill="#f9fafb" stroke="#d1d5db" stroke-dasharray="7,4"/>
    <text x="555" y="386" class="note">alt 一键拉群：CreateChatActionHandler 解析 owner/receiver/operator</text>
    <text x="555" y="410" class="note">创建应急群、发送告警摘要卡片，并尝试转移群主</text>
    <line x1="405" y1="470" x2="220" y2="470" stroke="#2563eb" stroke-width="2" marker-end="url(#arr)"/><text x="313" y="462" text-anchor="middle" class="msg">replyFeishuTextMessage 回执</text>
  </g>
</svg>
