<svg xmlns="http://www.w3.org/2000/svg" viewBox="0 0 960 650" width="960" height="650">
<style>
text { font-family: 'Helvetica Neue', Helvetica, Arial, 'PingFang SC', 'Microsoft YaHei', 'Microsoft JhengHei', 'SimHei', sans-serif; }
.title { font-size: 25px; font-weight: 700; fill: #111827; }
.subtitle { font-size: 13px; fill: #6b7280; }
.label { font-size: 14px; font-weight: 650; fill: #111827; }
.small { font-size: 12px; fill: #6b7280; }
.tiny { font-size: 11px; fill: #6b7280; }
.lane { font-size: 11px; font-weight: 700; letter-spacing: 0.04em; }
</style>
<defs>
<filter id="shadow" x="-20%" y="-20%" width="140%" height="140%"><feDropShadow dx="0" dy="4" stdDeviation="4" flood-color="#0f172a" flood-opacity="0.10"/></filter>
<marker id="arrow-blue" markerWidth="10" markerHeight="7" refX="9" refY="3.5" orient="auto"><polygon points="0 0,10 3.5,0 7" fill="#2563eb"/></marker>
<marker id="arrow-green" markerWidth="10" markerHeight="7" refX="9" refY="3.5" orient="auto"><polygon points="0 0,10 3.5,0 7" fill="#16a34a"/></marker>
<marker id="arrow-purple" markerWidth="10" markerHeight="7" refX="9" refY="3.5" orient="auto"><polygon points="0 0,10 3.5,0 7" fill="#9333ea"/></marker>
<marker id="arrow-orange" markerWidth="10" markerHeight="7" refX="9" refY="3.5" orient="auto"><polygon points="0 0,10 3.5,0 7" fill="#ea580c"/></marker>
<marker id="arrow-red" markerWidth="10" markerHeight="7" refX="9" refY="3.5" orient="auto"><polygon points="0 0,10 3.5,0 7" fill="#dc2626"/></marker>
<marker id="arrow-teal" markerWidth="10" markerHeight="7" refX="9" refY="3.5" orient="auto"><polygon points="0 0,10 3.5,0 7" fill="#0f766e"/></marker>
<marker id="arrow-gray" markerWidth="10" markerHeight="7" refX="9" refY="3.5" orient="auto"><polygon points="0 0,10 3.5,0 7" fill="#6b7280"/></marker>
</defs>
<rect width="960" height="650" fill="#ffffff"/>
<text x="480.0" y="34" text-anchor="middle" class="title">PD 分离下的平台侧适配</text>
<text x="480.0" y="57" text-anchor="middle" class="subtitle">SAI 不实现推理引擎，负责多组件服务表达、资源池、状态聚合和观测入口</text>
<rect x="70" y="95" width="165" height="58" rx="10" fill="#eff6ff" stroke="#bfdbfe" stroke-width="1.5" filter="url(#shadow)"/>
<text x="152.5" y="116.0" text-anchor="middle" class="label">模型服务</text>
<text x="152.5" y="137.0" text-anchor="middle" class="small">用户视角仍是一个服务</text>
<rect x="320" y="95" width="165" height="58" rx="10" fill="#faf5ff" stroke="#e9d5ff" stroke-width="1.5" filter="url(#shadow)"/>
<text x="402.5" y="116.0" text-anchor="middle" class="label">SAI 服务模型</text>
<text x="402.5" y="137.0" text-anchor="middle" class="small">组件关系 / 元数据</text>
<rect x="570" y="95" width="165" height="58" rx="10" fill="#f0fdf4" stroke="#bbf7d0" stroke-width="1.5" filter="url(#shadow)"/>
<text x="652.5" y="116.0" text-anchor="middle" class="label">服务级状态</text>
<text x="652.5" y="137.0" text-anchor="middle" class="small">健康度 / 可用性</text>
<line x1="235" y1="124" x2="320" y2="124" stroke="#2563eb" stroke-width="2.2" marker-end="url(#arrow-blue)"/>
<rect x="235.5" y="103.0" width="84" height="20" rx="10" fill="#ffffff" opacity="0.92"/>
<text x="277.5" y="118.0" text-anchor="middle" class="tiny">托管</text>
<line x1="485" y1="124" x2="570" y2="124" stroke="#16a34a" stroke-width="2.2" marker-end="url(#arrow-green)"/>
<rect x="485.5" y="103.0" width="84" height="20" rx="10" fill="#ffffff" opacity="0.92"/>
<text x="527.5" y="118.0" text-anchor="middle" class="tiny">聚合</text>
<rect x="55" y="215" width="850" height="130" rx="10" fill="#faf5ff" fill-opacity="0.45" stroke="#e9d5ff" stroke-width="1.3" stroke-dasharray="7 5"/>
<text x="69" y="237" class="lane" fill="#9333ea">INFERENCE COMPONENTS</text>
<rect x="105" y="258" width="180" height="58" rx="10" fill="#faf5ff" stroke="#e9d5ff" stroke-width="1.5" filter="url(#shadow)"/>
<text x="195.0" y="279.0" text-anchor="middle" class="label">Prefill 组件</text>
<text x="195.0" y="300.0" text-anchor="middle" class="small">吞吐 / 算力 / batch</text>
<rect x="390" y="258" width="180" height="58" rx="10" fill="#faf5ff" stroke="#e9d5ff" stroke-width="1.5" filter="url(#shadow)"/>
<text x="480.0" y="279.0" text-anchor="middle" class="label">Decode 组件</text>
<text x="480.0" y="300.0" text-anchor="middle" class="small">低时延 / 显存 / KV 压力</text>
<rect x="675" y="258" width="180" height="58" rx="10" fill="#faf5ff" stroke="#e9d5ff" stroke-width="1.5" filter="url(#shadow)"/>
<text x="765.0" y="271.0" text-anchor="middle" class="label">Gateway /</text>
<text x="765.0" y="288.0" text-anchor="middle" class="label">Router</text>
<text x="765.0" y="309.0" text-anchor="middle" class="small">路由 / 接入 / 观测</text>
<path d="M402 153 V202 Q402 217 387 217 H195 V258" fill="none" stroke="#9333ea" stroke-width="2.2" marker-end="url(#arrow-purple)"/>
<rect x="254" y="204" width="92" height="20" rx="10" fill="#ffffff" opacity="0.92"/>
<text x="300" y="219" text-anchor="middle" class="tiny">拆分表达</text>
<line x1="285" y1="287" x2="390" y2="287" stroke="#2563eb" stroke-width="2.2" marker-end="url(#arrow-blue)"/>
<rect x="295.5" y="266.0" width="84" height="20" rx="10" fill="#ffffff" opacity="0.92"/>
<text x="337.5" y="281.0" text-anchor="middle" class="tiny">请求流</text>
<line x1="570" y1="287" x2="675" y2="287" stroke="#2563eb" stroke-width="2.2" marker-end="url(#arrow-blue)"/>
<rect x="580.5" y="266.0" width="84" height="20" rx="10" fill="#ffffff" opacity="0.92"/>
<text x="622.5" y="281.0" text-anchor="middle" class="tiny">响应流</text>
<rect x="55" y="390" width="850" height="88" rx="10" fill="#f0fdf4" fill-opacity="0.45" stroke="#bbf7d0" stroke-width="1.3" stroke-dasharray="7 5"/>
<text x="69" y="412" class="lane" fill="#16a34a">COMPONENT LEVEL RESOURCE GOVERNANCE</text>
<rect x="105" y="418" width="180" height="42" rx="10" fill="#f0fdf4" stroke="#bbf7d0" stroke-width="1.5" filter="url(#shadow)"/>
<text x="195.0" y="431.0" text-anchor="middle" class="label">计算型 GPU 池</text>
<text x="195.0" y="452.0" text-anchor="middle" class="small">Prefill</text>
<rect x="390" y="418" width="180" height="42" rx="10" fill="#f0fdf4" stroke="#bbf7d0" stroke-width="1.5" filter="url(#shadow)"/>
<text x="480.0" y="431.0" text-anchor="middle" class="label">高显存 / 稳定池</text>
<text x="480.0" y="452.0" text-anchor="middle" class="small">Decode</text>
<rect x="675" y="418" width="180" height="42" rx="10" fill="#f0fdf4" stroke="#bbf7d0" stroke-width="1.5" filter="url(#shadow)"/>
<text x="765.0" y="431.0" text-anchor="middle" class="label">服务接入资源</text>
<text x="765.0" y="452.0" text-anchor="middle" class="small">Gateway</text>
<line x1="195" y1="316" x2="195" y2="418" stroke="#16a34a" stroke-width="2.2" marker-end="url(#arrow-green)"/>
<line x1="480" y1="316" x2="480" y2="418" stroke="#16a34a" stroke-width="2.2" marker-end="url(#arrow-green)"/>
<line x1="765" y1="316" x2="765" y2="418" stroke="#16a34a" stroke-width="2.2" marker-end="url(#arrow-green)"/>
<rect x="55" y="520" width="850" height="70" rx="10" fill="#f0fdfa" fill-opacity="0.45" stroke="#99f6e4" stroke-width="1.3" stroke-dasharray="7 5"/>
<text x="69" y="542" class="lane" fill="#0f766e">AI SERVING OBSERVABILITY</text>
<rect x="78" y="545" width="98" height="30" rx="15.0" fill="#f0fdfa" stroke="#99f6e4" stroke-width="1.2"/>
<text x="127.0" y="565.0" text-anchor="middle" class="small" font-weight="650" fill="#0f766e">QPS</text>
<rect x="196" y="545" width="98" height="30" rx="15.0" fill="#f0fdfa" stroke="#99f6e4" stroke-width="1.2"/>
<text x="245.0" y="565.0" text-anchor="middle" class="small" font-weight="650" fill="#0f766e">RT</text>
<rect x="314" y="545" width="98" height="30" rx="15.0" fill="#f0fdfa" stroke="#99f6e4" stroke-width="1.2"/>
<text x="363.0" y="565.0" text-anchor="middle" class="small" font-weight="650" fill="#0f766e">错误率</text>
<rect x="432" y="545" width="98" height="30" rx="15.0" fill="#f0fdfa" stroke="#99f6e4" stroke-width="1.2"/>
<text x="481.0" y="565.0" text-anchor="middle" class="small" font-weight="650" fill="#0f766e">TTFT</text>
<rect x="550" y="545" width="98" height="30" rx="15.0" fill="#f0fdfa" stroke="#99f6e4" stroke-width="1.2"/>
<text x="599.0" y="565.0" text-anchor="middle" class="small" font-weight="650" fill="#0f766e">TPS</text>
<rect x="668" y="545" width="98" height="30" rx="15.0" fill="#f0fdfa" stroke="#99f6e4" stroke-width="1.2"/>
<text x="717.0" y="565.0" text-anchor="middle" class="small" font-weight="650" fill="#0f766e">token latency</text>
<rect x="786" y="545" width="98" height="30" rx="15.0" fill="#f0fdfa" stroke="#99f6e4" stroke-width="1.2"/>
<text x="835.0" y="565.0" text-anchor="middle" class="small" font-weight="650" fill="#0f766e">queue latency</text>
<path d="M652 153 V505" fill="none" stroke="#0f766e" stroke-width="2.2" marker-end="url(#arrow-teal)" stroke-dasharray="6 4"/>
<rect x="654" y="320" width="92" height="20" rx="10" fill="#ffffff" opacity="0.92"/>
<text x="700" y="335" text-anchor="middle" class="tiny">状态与指标</text>
<line x1="26" y1="610" x2="56" y2="610" stroke="#2563eb" stroke-width="2" marker-end="url(#arrow-blue)"/>
<text x="64" y="614" class="tiny">平台托管</text>
<line x1="26" y1="628" x2="56" y2="628" stroke="#9333ea" stroke-width="2" marker-end="url(#arrow-purple)"/>
<text x="64" y="632" class="tiny">组件表达</text>
<line x1="26" y1="646" x2="56" y2="646" stroke="#16a34a" stroke-width="2" marker-end="url(#arrow-green)"/>
<text x="64" y="650" class="tiny">资源池治理</text>
<line x1="26" y1="664" x2="56" y2="664" stroke="#0f766e" stroke-width="2" marker-end="url(#arrow-teal)"/>
<text x="64" y="668" class="tiny">观测聚合</text>
</svg>