<svg xmlns="http://www.w3.org/2000/svg" viewBox="0 0 972 1088" font-family="-apple-system, PingFang SC, Microsoft YaHei, Helvetica, Arial, sans-serif">
<rect x="0" y="0" width="972" height="1088" fill="#ffffff"/>
<path d="M 283.8,530.0 C 313.8,530.0 313.8,98.0 343.8,98.0" fill="none" stroke="#7c3aed" stroke-width="2.4" stroke-linecap="round"/>
<path d="M 451.5,98.0 C 519.5,98.0 519.5,50.0 587.5,50.0" fill="none" stroke="#7c3aed" stroke-width="2.4" stroke-linecap="round"/>
<path d="M 451.5,98.0 C 519.5,98.0 519.5,98.0 587.5,98.0" fill="none" stroke="#7c3aed" stroke-width="2.4" stroke-linecap="round"/>
<path d="M 451.5,98.0 C 519.5,98.0 519.5,146.0 587.5,146.0" fill="none" stroke="#7c3aed" stroke-width="2.4" stroke-linecap="round"/>
<path d="M 283.8,530.0 C 313.8,530.0 313.8,242.0 343.8,242.0" fill="none" stroke="#2563eb" stroke-width="2.4" stroke-linecap="round"/>
<path d="M 451.5,242.0 C 519.5,242.0 519.5,194.0 587.5,194.0" fill="none" stroke="#2563eb" stroke-width="2.4" stroke-linecap="round"/>
<path d="M 451.5,242.0 C 519.5,242.0 519.5,242.0 587.5,242.0" fill="none" stroke="#2563eb" stroke-width="2.4" stroke-linecap="round"/>
<path d="M 451.5,242.0 C 519.5,242.0 519.5,290.0 587.5,290.0" fill="none" stroke="#2563eb" stroke-width="2.4" stroke-linecap="round"/>
<path d="M 283.8,530.0 C 313.8,530.0 313.8,386.0 343.8,386.0" fill="none" stroke="#0891b2" stroke-width="2.4" stroke-linecap="round"/>
<path d="M 451.5,386.0 C 519.5,386.0 519.5,338.0 587.5,338.0" fill="none" stroke="#0891b2" stroke-width="2.4" stroke-linecap="round"/>
<path d="M 451.5,386.0 C 519.5,386.0 519.5,386.0 587.5,386.0" fill="none" stroke="#0891b2" stroke-width="2.4" stroke-linecap="round"/>
<path d="M 451.5,386.0 C 519.5,386.0 519.5,434.0 587.5,434.0" fill="none" stroke="#0891b2" stroke-width="2.4" stroke-linecap="round"/>
<path d="M 283.8,530.0 C 313.8,530.0 313.8,530.0 343.8,530.0" fill="none" stroke="#dc2626" stroke-width="2.4" stroke-linecap="round"/>
<path d="M 451.5,530.0 C 519.5,530.0 519.5,482.0 587.5,482.0" fill="none" stroke="#dc2626" stroke-width="2.4" stroke-linecap="round"/>
<path d="M 451.5,530.0 C 519.5,530.0 519.5,530.0 587.5,530.0" fill="none" stroke="#dc2626" stroke-width="2.4" stroke-linecap="round"/>
<path d="M 451.5,530.0 C 519.5,530.0 519.5,578.0 587.5,578.0" fill="none" stroke="#dc2626" stroke-width="2.4" stroke-linecap="round"/>
<path d="M 283.8,530.0 C 313.8,530.0 313.8,674.0 343.8,674.0" fill="none" stroke="#ea580c" stroke-width="2.4" stroke-linecap="round"/>
<path d="M 527.5,674.0 C 557.5,674.0 557.5,626.0 587.5,626.0" fill="none" stroke="#ea580c" stroke-width="2.4" stroke-linecap="round"/>
<path d="M 527.5,674.0 C 557.5,674.0 557.5,674.0 587.5,674.0" fill="none" stroke="#ea580c" stroke-width="2.4" stroke-linecap="round"/>
<path d="M 527.5,674.0 C 557.5,674.0 557.5,722.0 587.5,722.0" fill="none" stroke="#ea580c" stroke-width="2.4" stroke-linecap="round"/>
<path d="M 283.8,530.0 C 313.8,530.0 313.8,818.0 343.8,818.0" fill="none" stroke="#059669" stroke-width="2.4" stroke-linecap="round"/>
<path d="M 494.4,818.0 C 541.0,818.0 541.0,770.0 587.5,770.0" fill="none" stroke="#059669" stroke-width="2.4" stroke-linecap="round"/>
<path d="M 494.4,818.0 C 541.0,818.0 541.0,818.0 587.5,818.0" fill="none" stroke="#059669" stroke-width="2.4" stroke-linecap="round"/>
<path d="M 494.4,818.0 C 541.0,818.0 541.0,866.0 587.5,866.0" fill="none" stroke="#059669" stroke-width="2.4" stroke-linecap="round"/>
<path d="M 283.8,530.0 C 313.8,530.0 313.8,962.0 343.8,962.0" fill="none" stroke="#4f46e5" stroke-width="2.4" stroke-linecap="round"/>
<path d="M 494.4,962.0 C 541.0,962.0 541.0,914.0 587.5,914.0" fill="none" stroke="#4f46e5" stroke-width="2.4" stroke-linecap="round"/>
<path d="M 494.4,962.0 C 541.0,962.0 541.0,962.0 587.5,962.0" fill="none" stroke="#4f46e5" stroke-width="2.4" stroke-linecap="round"/>
<path d="M 494.4,962.0 C 541.0,962.0 541.0,1010.0 587.5,1010.0" fill="none" stroke="#4f46e5" stroke-width="2.4" stroke-linecap="round"/>
<rect x="40" y="501.0" width="243.8" height="58" rx="11" fill="#1e293b"/>
<text x="161.9" y="538.0" text-anchor="middle" fill="#ffffff" font-size="24" font-weight="700">训练框架治理对比</text>
<line x1="343.8" y1="98.0" x2="451.5" y2="98.0" stroke="#7c3aed" stroke-width="2.4" stroke-linecap="round"/>
<text x="354.8" y="90.0" fill="#7c3aed" font-size="21" font-weight="700">角色模型</text>
<line x1="587.5" y1="50.0" x2="911.1" y2="50.0" stroke="#7c3aed" stroke-width="2.4" stroke-linecap="round"/>
<text x="598.5" y="42.0" fill="#1f2937" font-size="21" font-weight="400">TFJob 异构 Chief/PS/Worker</text>
<line x1="587.5" y1="98.0" x2="911.1" y2="98.0" stroke="#7c3aed" stroke-width="2.4" stroke-linecap="round"/>
<text x="598.5" y="90.0" fill="#1f2937" font-size="21" font-weight="400">PyTorch 同构 Master/Worker</text>
<line x1="587.5" y1="146.0" x2="911.1" y2="146.0" stroke="#7c3aed" stroke-width="2.4" stroke-linecap="round"/>
<text x="598.5" y="138.0" fill="#1f2937" font-size="21" font-weight="400">Ray Head/Worker · Head特殊</text>
<line x1="343.8" y1="242.0" x2="451.5" y2="242.0" stroke="#2563eb" stroke-width="2.4" stroke-linecap="round"/>
<text x="354.8" y="234.0" fill="#2563eb" font-size="21" font-weight="700">调度治理</text>
<line x1="587.5" y1="194.0" x2="833.0" y2="194.0" stroke="#2563eb" stroke-width="2.4" stroke-linecap="round"/>
<text x="598.5" y="186.0" fill="#1f2937" font-size="21" font-weight="400">gang all-or-nothing</text>
<line x1="587.5" y1="242.0" x2="785.1" y2="242.0" stroke="#2563eb" stroke-width="2.4" stroke-linecap="round"/>
<text x="598.5" y="234.0" fill="#1f2937" font-size="21" font-weight="400">单层 vs 双层调度</text>
<line x1="587.5" y1="290.0" x2="818.3" y2="290.0" stroke="#2563eb" stroke-width="2.4" stroke-linecap="round"/>
<text x="598.5" y="282.0" fill="#1f2937" font-size="21" font-weight="400">Ray 配额/利用率失真</text>
<line x1="343.8" y1="386.0" x2="451.5" y2="386.0" stroke="#0891b2" stroke-width="2.4" stroke-linecap="round"/>
<text x="354.8" y="378.0" fill="#0891b2" font-size="21" font-weight="700">故障治理</text>
<line x1="587.5" y1="338.0" x2="865.3" y2="338.0" stroke="#0891b2" stroke-width="2.4" stroke-linecap="round"/>
<text x="598.5" y="330.0" fill="#1f2937" font-size="21" font-weight="400">角色级 / 任务级 / app级</text>
<line x1="587.5" y1="386.0" x2="810.7" y2="386.0" stroke="#0891b2" stroke-width="2.4" stroke-linecap="round"/>
<text x="598.5" y="378.0" fill="#1f2937" font-size="21" font-weight="400">PyTorch 一挂全重启</text>
<line x1="587.5" y1="434.0" x2="779.6" y2="434.0" stroke="#0891b2" stroke-width="2.4" stroke-linecap="round"/>
<text x="598.5" y="426.0" fill="#1f2937" font-size="21" font-weight="400">Ray Head 硬单点</text>
<line x1="343.8" y1="530.0" x2="451.5" y2="530.0" stroke="#dc2626" stroke-width="2.4" stroke-linecap="round"/>
<text x="354.8" y="522.0" fill="#dc2626" font-size="21" font-weight="700">资源弹性</text>
<line x1="587.5" y1="482.0" x2="922.9" y2="482.0" stroke="#dc2626" stroke-width="2.4" stroke-linecap="round"/>
<text x="598.5" y="474.0" fill="#1f2937" font-size="21" font-weight="400">静态 / elastic / autoscaler</text>
<line x1="587.5" y1="530.0" x2="808.6" y2="530.0" stroke="#dc2626" stroke-width="2.4" stroke-linecap="round"/>
<text x="598.5" y="522.0" fill="#1f2937" font-size="21" font-weight="400">TFJob 适配潮汐待退</text>
<line x1="587.5" y1="578.0" x2="780.9" y2="578.0" stroke="#dc2626" stroke-width="2.4" stroke-linecap="round"/>
<text x="598.5" y="570.0" fill="#1f2937" font-size="21" font-weight="400">弹性越强核算越难</text>
<line x1="343.8" y1="674.0" x2="527.5" y2="674.0" stroke="#ea580c" stroke-width="2.4" stroke-linecap="round"/>
<text x="354.8" y="666.0" fill="#ea580c" font-size="21" font-weight="700">可观测·生命周期</text>
<line x1="587.5" y1="626.0" x2="759.5" y2="626.0" stroke="#ea580c" stroke-width="2.4" stroke-linecap="round"/>
<text x="598.5" y="618.0" fill="#1f2937" font-size="21" font-weight="400">完成信号源各异</text>
<line x1="587.5" y1="674.0" x2="759.5" y2="674.0" stroke="#ea580c" stroke-width="2.4" stroke-linecap="round"/>
<text x="598.5" y="666.0" fill="#1f2937" font-size="21" font-weight="400">统一状态机适配</text>
<line x1="587.5" y1="722.0" x2="814.9" y2="722.0" stroke="#ea580c" stroke-width="2.4" stroke-linecap="round"/>
<text x="598.5" y="714.0" fill="#1f2937" font-size="21" font-weight="400">Pod Running≠任务活</text>
<line x1="343.8" y1="818.0" x2="494.4" y2="818.0" stroke="#059669" stroke-width="2.4" stroke-linecap="round"/>
<text x="354.8" y="810.0" fill="#059669" font-size="21" font-weight="700">统一排障主线</text>
<line x1="587.5" y1="770.0" x2="803.2" y2="770.0" stroke="#059669" stroke-width="2.4" stroke-linecap="round"/>
<text x="598.5" y="762.0" fill="#1f2937" font-size="21" font-weight="400">调度层 gang/quota</text>
<line x1="587.5" y1="818.0" x2="850.2" y2="818.0" stroke="#059669" stroke-width="2.4" stroke-linecap="round"/>
<text x="598.5" y="810.0" fill="#1f2937" font-size="21" font-weight="400">发现层 rendezvous/GCS</text>
<line x1="587.5" y1="866.0" x2="787.2" y2="866.0" stroke="#059669" stroke-width="2.4" stroke-linecap="round"/>
<text x="598.5" y="858.0" fill="#1f2937" font-size="21" font-weight="400">计算层 NCCL/算力</text>
<line x1="343.8" y1="962.0" x2="494.4" y2="962.0" stroke="#4f46e5" stroke-width="2.4" stroke-linecap="round"/>
<text x="354.8" y="954.0" fill="#4f46e5" font-size="21" font-weight="700">项目安全连接</text>
<line x1="587.5" y1="914.0" x2="777.5" y2="914.0" stroke="#4f46e5" stroke-width="2.4" stroke-linecap="round"/>
<text x="598.5" y="906.0" fill="#1f2937" font-size="21" font-weight="400">TFJob 实践·潮汐</text>
<line x1="587.5" y1="962.0" x2="843.9" y2="962.0" stroke="#4f46e5" stroke-width="2.4" stroke-linecap="round"/>
<text x="598.5" y="954.0" fill="#1f2937" font-size="21" font-weight="400">PyTorch 平台承接·了解</text>
<line x1="587.5" y1="1010.0" x2="754.0" y2="1010.0" stroke="#4f46e5" stroke-width="2.4" stroke-linecap="round"/>
<text x="598.5" y="1002.0" fill="#1f2937" font-size="21" font-weight="400">Ray 少量·对标</text>
</svg>