<svg xmlns="http://www.w3.org/2000/svg" viewBox="0 0 1680 940" font-family="-apple-system, PingFang SC, Microsoft YaHei, Helvetica, Arial, sans-serif">
<rect x="0" y="0" width="1680" height="940" fill="#f8fafc"/>
<text x="40" y="52" fill="#0f172a" font-size="29.3" font-weight="700">三框架角色拓扑与发现机制（PaaS 平台侧视角）</text>
<rect x="40" y="80" width="1600" height="60" rx="12" fill="#1e293b" stroke="#1e293b" stroke-width="2"/>
<text x="840" y="117.0" text-anchor="middle" fill="#ffffff" font-size="23.2" font-weight="700">PaaS 作业治理层  ·  统一提交 / gang &amp; quota / 统一状态机 / TTL·GC</text>
<rect x="60" y="180" width="500" height="640" rx="14" fill="#eff6ff" stroke="#2563eb" stroke-width="2"/>
<rect x="60" y="180" width="500" height="52" rx="14" fill="#2563eb" stroke="#2563eb" stroke-width="2"/>
<text x="310" y="214.0" text-anchor="middle" fill="#ffffff" font-size="25.6" font-weight="700">TFJob</text>
<text x="310" y="258" text-anchor="middle" fill="#2563eb" font-size="18.3" font-weight="700">角色异构 · 可局部容错</text>
<rect x="110" y="280" width="400" height="72" rx="10" fill="#ffffff" stroke="#2563eb" stroke-width="2"/>
<text x="310" y="311.5" text-anchor="middle" fill="#334155" font-size="19.5" font-weight="700">Chief</text>
<text x="310" y="331.5" text-anchor="middle" fill="#334155" font-size="18.3" font-weight="400">汇聚/完成判定</text>
<rect x="110" y="386" width="400" height="72" rx="10" fill="#ffffff" stroke="#2563eb" stroke-width="2"/>
<text x="310" y="417.5" text-anchor="middle" fill="#334155" font-size="19.5" font-weight="700">PS ×N</text>
<text x="310" y="437.5" text-anchor="middle" fill="#334155" font-size="18.3" font-weight="400">参数服务·有状态</text>
<defs><marker id="ah2563eb" markerWidth="9" markerHeight="9" refX="7" refY="3" orient="auto"><path d="M0,0 L7,3 L0,6 Z" fill="#2563eb"/></marker></defs>
<path d="M 310,352 L 310,386" stroke="#2563eb" stroke-width="2.0" fill="none" marker-end="url(#ah2563eb)"/>
<rect x="110" y="492" width="400" height="72" rx="10" fill="#ffffff" stroke="#2563eb" stroke-width="2"/>
<text x="310" y="523.5" text-anchor="middle" fill="#334155" font-size="19.5" font-weight="700">Worker ×N</text>
<text x="310" y="543.5" text-anchor="middle" fill="#334155" font-size="18.3" font-weight="400">算力·可部分容错</text>
<defs><marker id="ah2563eb" markerWidth="9" markerHeight="9" refX="7" refY="3" orient="auto"><path d="M0,0 L7,3 L0,6 Z" fill="#2563eb"/></marker></defs>
<path d="M 310,458 L 310,492" stroke="#2563eb" stroke-width="2.0" fill="none" marker-end="url(#ah2563eb)"/>
<rect x="110" y="598" width="400" height="72" rx="10" fill="#ffffff" stroke="#2563eb" stroke-width="2"/>
<text x="310" y="629.5" text-anchor="middle" fill="#334155" font-size="19.5" font-weight="700">Evaluator</text>
<text x="310" y="649.5" text-anchor="middle" fill="#334155" font-size="18.3" font-weight="400">评估(可选)</text>
<defs><marker id="ah2563eb" markerWidth="9" markerHeight="9" refX="7" refY="3" orient="auto"><path d="M0,0 L7,3 L0,6 Z" fill="#2563eb"/></marker></defs>
<path d="M 310,564 L 310,598" stroke="#2563eb" stroke-width="2.0" fill="none" marker-end="url(#ah2563eb)"/>
<rect x="100" y="740" width="420" height="40" rx="8" fill="#ffffff" stroke="#2563eb" stroke-width="1"/>
<text x="310" y="764.5" text-anchor="middle" fill="#2563eb" font-size="15.9" font-weight="400">发现：TF_CONFIG 注入 env</text>
<rect x="100" y="788" width="420" height="40" rx="8" fill="#2563eb" stroke="#2563eb" stroke-width="1"/>
<text x="310" y="812.5" text-anchor="middle" fill="#ffffff" font-size="15.9" font-weight="400">单层调度（K8s 调 Pod）</text>
<defs><marker id="ah94a3b8" markerWidth="9" markerHeight="9" refX="7" refY="3" orient="auto"><path d="M0,0 L7,3 L0,6 Z" fill="#94a3b8"/></marker></defs>
<path d="M 310,140 L 310,180" stroke="#94a3b8" stroke-width="2.0" fill="none" stroke-dasharray="6 5" marker-end="url(#ah94a3b8)"/>
<rect x="600" y="180" width="500" height="640" rx="14" fill="#fef2f2" stroke="#dc2626" stroke-width="2"/>
<rect x="600" y="180" width="500" height="52" rx="14" fill="#dc2626" stroke="#dc2626" stroke-width="2"/>
<text x="850" y="214.0" text-anchor="middle" fill="#ffffff" font-size="25.6" font-weight="700">PyTorchJob</text>
<text x="850" y="258" text-anchor="middle" fill="#dc2626" font-size="18.3" font-weight="700">角色同构 · 同步 all-reduce</text>
<rect x="650" y="280" width="400" height="72" rx="10" fill="#ffffff" stroke="#dc2626" stroke-width="2"/>
<text x="850" y="311.5" text-anchor="middle" fill="#334155" font-size="19.5" font-weight="700">Master = rank0</text>
<text x="850" y="331.5" text-anchor="middle" fill="#334155" font-size="18.3" font-weight="400">既是协调也是算力</text>
<rect x="650" y="386" width="400" height="72" rx="10" fill="#ffffff" stroke="#dc2626" stroke-width="2"/>
<text x="850" y="417.5" text-anchor="middle" fill="#334155" font-size="19.5" font-weight="700">Worker ×N</text>
<text x="850" y="437.5" text-anchor="middle" fill="#334155" font-size="18.3" font-weight="400">对等 rank</text>
<defs><marker id="ahdc2626" markerWidth="9" markerHeight="9" refX="7" refY="3" orient="auto"><path d="M0,0 L7,3 L0,6 Z" fill="#dc2626"/></marker></defs>
<path d="M 850,352 L 850,386" stroke="#dc2626" stroke-width="2.0" fill="none" marker-end="url(#ahdc2626)"/>
<rect x="650" y="492" width="400" height="72" rx="10" fill="#ffffff" stroke="#dc2626" stroke-width="2"/>
<text x="850" y="523.5" text-anchor="middle" fill="#334155" font-size="19.5" font-weight="700">(elastic)</text>
<text x="850" y="543.5" text-anchor="middle" fill="#334155" font-size="18.3" font-weight="400">torchrun min/max</text>
<defs><marker id="ahdc2626" markerWidth="9" markerHeight="9" refX="7" refY="3" orient="auto"><path d="M0,0 L7,3 L0,6 Z" fill="#dc2626"/></marker></defs>
<path d="M 850,458 L 850,492" stroke="#dc2626" stroke-width="2.0" fill="none" marker-end="url(#ahdc2626)"/>
<rect x="640" y="740" width="420" height="40" rx="8" fill="#ffffff" stroke="#dc2626" stroke-width="1"/>
<text x="850" y="764.5" text-anchor="middle" fill="#dc2626" font-size="15.9" font-weight="400">发现：rendezvous c10d/etcd + MASTER</text>
<rect x="640" y="788" width="420" height="40" rx="8" fill="#dc2626" stroke="#dc2626" stroke-width="1"/>
<text x="850" y="812.5" text-anchor="middle" fill="#ffffff" font-size="15.9" font-weight="400">单层调度 · 差一个 rank 全卡</text>
<defs><marker id="ah94a3b8" markerWidth="9" markerHeight="9" refX="7" refY="3" orient="auto"><path d="M0,0 L7,3 L0,6 Z" fill="#94a3b8"/></marker></defs>
<path d="M 850,140 L 850,180" stroke="#94a3b8" stroke-width="2.0" fill="none" stroke-dasharray="6 5" marker-end="url(#ah94a3b8)"/>
<rect x="1140" y="180" width="500" height="640" rx="14" fill="#ecfdf5" stroke="#059669" stroke-width="2"/>
<rect x="1140" y="180" width="500" height="52" rx="14" fill="#059669" stroke="#059669" stroke-width="2"/>
<text x="1390" y="214.0" text-anchor="middle" fill="#ffffff" font-size="25.6" font-weight="700">Ray (KubeRay)</text>
<text x="1390" y="258" text-anchor="middle" fill="#059669" font-size="18.3" font-weight="700">Head 特殊 · 双层调度</text>
<rect x="1190" y="280" width="400" height="72" rx="10" fill="#ffffff" stroke="#059669" stroke-width="2"/>
<text x="1390" y="311.5" text-anchor="middle" fill="#334155" font-size="19.5" font-weight="700">Head</text>
<text x="1390" y="331.5" text-anchor="middle" fill="#334155" font-size="18.3" font-weight="400">GCS+dashboard·硬单点</text>
<rect x="1190" y="386" width="400" height="72" rx="10" fill="#ffffff" stroke="#059669" stroke-width="2"/>
<text x="1390" y="417.5" text-anchor="middle" fill="#334155" font-size="19.5" font-weight="700">Worker ×N</text>
<text x="1390" y="437.5" text-anchor="middle" fill="#334155" font-size="18.3" font-weight="400">算力·autoscaler 弹</text>
<defs><marker id="ah059669" markerWidth="9" markerHeight="9" refX="7" refY="3" orient="auto"><path d="M0,0 L7,3 L0,6 Z" fill="#059669"/></marker></defs>
<path d="M 1390,352 L 1390,386" stroke="#059669" stroke-width="2.0" fill="none" marker-end="url(#ah059669)"/>
<rect x="1190" y="492" width="400" height="72" rx="10" fill="#ffffff" stroke="#059669" stroke-width="2"/>
<text x="1390" y="523.5" text-anchor="middle" fill="#334155" font-size="19.5" font-weight="700">Ray task/actor</text>
<text x="1390" y="543.5" text-anchor="middle" fill="#334155" font-size="18.3" font-weight="400">Ray 内部再调度</text>
<defs><marker id="ah059669" markerWidth="9" markerHeight="9" refX="7" refY="3" orient="auto"><path d="M0,0 L7,3 L0,6 Z" fill="#059669"/></marker></defs>
<path d="M 1390,458 L 1390,492" stroke="#059669" stroke-width="2.0" fill="none" marker-end="url(#ah059669)"/>
<rect x="1180" y="740" width="420" height="40" rx="8" fill="#ffffff" stroke="#059669" stroke-width="1"/>
<text x="1390" y="764.5" text-anchor="middle" fill="#059669" font-size="15.9" font-weight="400">发现：worker 向 GCS 注册(RAY_ADDRESS)</text>
<rect x="1180" y="788" width="420" height="40" rx="8" fill="#059669" stroke="#059669" stroke-width="1"/>
<text x="1390" y="812.5" text-anchor="middle" fill="#ffffff" font-size="15.9" font-weight="400">双层：K8s 调 Pod + Ray 调 task</text>
<defs><marker id="ah94a3b8" markerWidth="9" markerHeight="9" refX="7" refY="3" orient="auto"><path d="M0,0 L7,3 L0,6 Z" fill="#94a3b8"/></marker></defs>
<path d="M 1390,140 L 1390,180" stroke="#94a3b8" stroke-width="2.0" fill="none" stroke-dasharray="6 5" marker-end="url(#ah94a3b8)"/>
<rect x="40" y="868" width="1600" height="56" rx="12" fill="#0f172a" stroke="#0f172a" stroke-width="2"/>
<text x="840" y="901.5" text-anchor="middle" fill="#e2e8f0" font-size="19.5" font-weight="700">基础设施层  ·  PyTorch all-reduce 对 RDMA/NCCL 最敏感   |   TFJob PS-Worker 多对多   |   Ray gRPC + 分布式 object store(吃内存)</text>
</svg>