<svg xmlns="http://www.w3.org/2000/svg" viewBox="0 0 1720 1020" font-family="-apple-system, PingFang SC, Microsoft YaHei, Helvetica, Arial, sans-serif">
<rect x="0" y="0" width="1720" height="1020" fill="#f8fafc"/>
<text x="40" y="52" fill="#0f172a" font-size="29.3" font-weight="700">四类 PaaS 治理机制的框架差异</text>
<rect x="300" y="90" width="460" height="52" rx="10" fill="#2563eb" stroke="#2563eb" stroke-width="2"/>
<text x="530" y="124.0" text-anchor="middle" fill="#ffffff" font-size="25.6" font-weight="700">TFJob</text>
<rect x="780" y="90" width="460" height="52" rx="10" fill="#dc2626" stroke="#dc2626" stroke-width="2"/>
<text x="1010" y="124.0" text-anchor="middle" fill="#ffffff" font-size="25.6" font-weight="700">PyTorchJob</text>
<rect x="1260" y="90" width="460" height="52" rx="10" fill="#059669" stroke="#059669" stroke-width="2"/>
<text x="1490" y="124.0" text-anchor="middle" fill="#ffffff" font-size="25.6" font-weight="700">Ray</text>
<rect x="40" y="160" width="240" height="200" rx="10" fill="#7c3aed" stroke="#7c3aed" stroke-width="2"/>
<text x="160" y="254.0" text-anchor="middle" fill="#ffffff" font-size="20.7" font-weight="700">调度治理</text>
<text x="160" y="278.0" text-anchor="middle" fill="#ffffff" font-size="19.5" font-weight="400">(gang+quota)</text>
<rect x="300" y="160" width="460" height="200" rx="10" fill="#ffffff" stroke="#2563eb" stroke-width="2"/>
<text x="530" y="252.0" text-anchor="middle" fill="#334155" font-size="19.5" font-weight="400">K8s gang(Volcano)</text>
<text x="530" y="280.0" text-anchor="middle" fill="#334155" font-size="19.5" font-weight="400">按角色画像汇总配额</text>
<rect x="780" y="160" width="460" height="200" rx="10" fill="#ffffff" stroke="#dc2626" stroke-width="2"/>
<text x="1010" y="252.0" text-anchor="middle" fill="#334155" font-size="19.5" font-weight="400">gang 要求更硬</text>
<text x="1010" y="280.0" text-anchor="middle" fill="#334155" font-size="19.5" font-weight="400">差一个 rank 即阻塞</text>
<rect x="1260" y="160" width="460" height="200" rx="10" fill="#ffffff" stroke="#059669" stroke-width="2"/>
<text x="1490" y="252.0" text-anchor="middle" fill="#334155" font-size="19.5" font-weight="400">只保 head+min worker</text>
<text x="1490" y="280.0" text-anchor="middle" fill="#334155" font-size="19.5" font-weight="400">Ray 内部 task 看不见</text>
<rect x="40" y="378" width="240" height="200" rx="10" fill="#ea580c" stroke="#ea580c" stroke-width="2"/>
<text x="160" y="472.0" text-anchor="middle" fill="#ffffff" font-size="20.7" font-weight="700">故障治理</text>
<text x="160" y="496.0" text-anchor="middle" fill="#ffffff" font-size="19.5" font-weight="400">(失败粒度+退避)</text>
<rect x="300" y="378" width="460" height="200" rx="10" fill="#ffffff" stroke="#2563eb" stroke-width="2"/>
<text x="530" y="470.0" text-anchor="middle" fill="#334155" font-size="19.5" font-weight="400">角色级 restartPolicy</text>
<text x="530" y="498.0" text-anchor="middle" fill="#334155" font-size="19.5" font-weight="400">Worker 可局部重试</text>
<rect x="780" y="378" width="460" height="200" rx="10" fill="#ffffff" stroke="#dc2626" stroke-width="2"/>
<text x="1010" y="470.0" text-anchor="middle" fill="#334155" font-size="19.5" font-weight="400">任务级 all-or-nothing</text>
<text x="1010" y="498.0" text-anchor="middle" fill="#334155" font-size="19.5" font-weight="400">一个挂全重启→需熔断</text>
<rect x="1260" y="378" width="460" height="200" rx="10" fill="#ffffff" stroke="#059669" stroke-width="2"/>
<text x="1490" y="470.0" text-anchor="middle" fill="#334155" font-size="19.5" font-weight="400">app级容错(actor重建)</text>
<text x="1490" y="498.0" text-anchor="middle" fill="#334155" font-size="19.5" font-weight="400">Head=硬单点重点护</text>
<rect x="40" y="596" width="240" height="200" rx="10" fill="#0891b2" stroke="#0891b2" stroke-width="2"/>
<text x="160" y="702.0" text-anchor="middle" fill="#ffffff" font-size="20.7" font-weight="700">资源/弹性治理</text>
<rect x="300" y="596" width="460" height="200" rx="10" fill="#ffffff" stroke="#2563eb" stroke-width="2"/>
<text x="530" y="688.0" text-anchor="middle" fill="#334155" font-size="19.5" font-weight="400">提交即静态</text>
<text x="530" y="716.0" text-anchor="middle" fill="#334155" font-size="19.5" font-weight="400">适配潮汐/待退资源</text>
<rect x="780" y="596" width="460" height="200" rx="10" fill="#ffffff" stroke="#dc2626" stroke-width="2"/>
<text x="1010" y="688.0" text-anchor="middle" fill="#334155" font-size="19.5" font-weight="400">torchrun elastic min/max</text>
<text x="1010" y="716.0" text-anchor="middle" fill="#334155" font-size="19.5" font-weight="400">rendezvous 要重集合</text>
<rect x="1260" y="596" width="460" height="200" rx="10" fill="#ffffff" stroke="#059669" stroke-width="2"/>
<text x="1490" y="688.0" text-anchor="middle" fill="#334155" font-size="19.5" font-weight="400">原生 autoscaler</text>
<text x="1490" y="716.0" text-anchor="middle" fill="#334155" font-size="19.5" font-weight="400">与 K8s quota 易打架</text>
<rect x="40" y="814" width="240" height="200" rx="10" fill="#db2777" stroke="#db2777" stroke-width="2"/>
<text x="160" y="920.0" text-anchor="middle" fill="#ffffff" font-size="20.7" font-weight="700">可观测·生命周期</text>
<rect x="300" y="814" width="460" height="200" rx="10" fill="#ffffff" stroke="#2563eb" stroke-width="2"/>
<text x="530" y="906.0" text-anchor="middle" fill="#334155" font-size="19.5" font-weight="400">operator condition</text>
<text x="530" y="934.0" text-anchor="middle" fill="#334155" font-size="19.5" font-weight="400">角色 Pod 日志</text>
<rect x="780" y="814" width="460" height="200" rx="10" fill="#ffffff" stroke="#dc2626" stroke-width="2"/>
<text x="1010" y="906.0" text-anchor="middle" fill="#334155" font-size="19.5" font-weight="400">rank 退出码/NCCL</text>
<text x="1010" y="934.0" text-anchor="middle" fill="#334155" font-size="19.5" font-weight="400">按 rank0 判完成</text>
<rect x="1260" y="814" width="460" height="200" rx="10" fill="#ffffff" stroke="#059669" stroke-width="2"/>
<text x="1490" y="906.0" text-anchor="middle" fill="#334155" font-size="19.5" font-weight="400">须采 dashboard/GCS</text>
<text x="1490" y="934.0" text-anchor="middle" fill="#334155" font-size="19.5" font-weight="400">Pod 健康≠task 健康</text>
</svg>