<svg xmlns="http://www.w3.org/2000/svg" viewBox="0 0 1480 760" font-family="-apple-system, PingFang SC, Microsoft YaHei, Helvetica, Arial, sans-serif">
<defs><marker id="arr" markerWidth="10" markerHeight="10" refX="8" refY="3" orient="auto"><path d="M0,0 L8,3 L0,6 Z" fill="#475569"/></marker></defs>
<rect x="0" y="0" width="1480" height="760" fill="#ffffff"/>
<text x="740.0" y="40.0" text-anchor="middle" fill="#0f172a" font-size="22" font-weight="700">GPU 原理与运维分层 · 谁负责什么</text>
<rect x="70.0" y="72.0" width="1340.0" height="126.0" rx="12" fill="#f1f5f9" stroke="#64748b" stroke-width="2"/>
<text x="90.0" y="102.0" text-anchor="start" fill="#64748b" font-size="16" font-weight="700">业务/框架层（业务负责）</text>
<rect x="101.0" y="116.0" width="412.7" height="62.0" rx="8" fill="#ffffff" stroke="#64748b" stroke-width="2"/>
<text x="307.3" y="151.9" text-anchor="middle" fill="#1f2937" font-size="13" font-weight="700">PyTorch/TF</text>
<rect x="527.7" y="116.0" width="412.7" height="62.0" rx="8" fill="#ffffff" stroke="#64748b" stroke-width="2"/>
<text x="734.0" y="151.9" text-anchor="middle" fill="#1f2937" font-size="13" font-weight="700">推理引擎</text>
<rect x="954.3" y="116.0" width="412.7" height="62.0" rx="8" fill="#ffffff" stroke="#64748b" stroke-width="2"/>
<text x="1160.7" y="151.9" text-anchor="middle" fill="#1f2937" font-size="13" font-weight="700">kernel 调优</text>
<rect x="70.0" y="208.0" width="1340.0" height="126.0" rx="12" fill="#ecfdf5" stroke="#059669" stroke-width="2"/>
<text x="90.0" y="238.0" text-anchor="start" fill="#059669" font-size="16" font-weight="700">观测/运维层（我相邻经验）</text>
<rect x="101.0" y="252.0" width="306.0" height="62.0" rx="8" fill="#ffffff" stroke="#059669" stroke-width="2"/>
<text x="254.0" y="287.9" text-anchor="middle" fill="#1f2937" font-size="13" font-weight="700">DCGM/nvidia-smi</text>
<rect x="421.0" y="252.0" width="306.0" height="62.0" rx="8" fill="#ffffff" stroke="#059669" stroke-width="2"/>
<text x="574.0" y="287.9" text-anchor="middle" fill="#1f2937" font-size="13" font-weight="700">XID/ECC 健康信号</text>
<rect x="741.0" y="252.0" width="306.0" height="62.0" rx="8" fill="#ffffff" stroke="#059669" stroke-width="2"/>
<text x="894.0" y="287.9" text-anchor="middle" fill="#1f2937" font-size="13" font-weight="700">告警 Bigeyes</text>
<rect x="1061.0" y="252.0" width="306.0" height="62.0" rx="8" fill="#ffffff" stroke="#059669" stroke-width="2"/>
<text x="1214.0" y="287.9" text-anchor="middle" fill="#1f2937" font-size="13" font-weight="700">隔离驱逐/换卡</text>
<rect x="70.0" y="344.0" width="1340.0" height="126.0" rx="12" fill="#eff6ff" stroke="#2563eb" stroke-width="2"/>
<text x="90.0" y="374.0" text-anchor="start" fill="#2563eb" font-size="16" font-weight="700">K8s/平台层（我真实做）</text>
<rect x="101.0" y="388.0" width="306.0" height="62.0" rx="8" fill="#ffffff" stroke="#2563eb" stroke-width="2"/>
<text x="254.0" y="423.9" text-anchor="middle" fill="#1f2937" font-size="13" font-weight="700">device plugin</text>
<rect x="421.0" y="388.0" width="306.0" height="62.0" rx="8" fill="#ffffff" stroke="#2563eb" stroke-width="2"/>
<text x="574.0" y="423.9" text-anchor="middle" fill="#1f2937" font-size="13" font-weight="700">nvidia.com/gpu·显存字段</text>
<rect x="741.0" y="388.0" width="306.0" height="62.0" rx="8" fill="#ffffff" stroke="#2563eb" stroke-width="2"/>
<text x="894.0" y="423.9" text-anchor="middle" fill="#1f2937" font-size="13" font-weight="700">NodePool/ResourceGroup</text>
<rect x="1061.0" y="388.0" width="306.0" height="62.0" rx="8" fill="#ffffff" stroke="#2563eb" stroke-width="2"/>
<text x="1214.0" y="423.9" text-anchor="middle" fill="#1f2937" font-size="13" font-weight="700">调度亲和/配额抢占</text>
<rect x="70.0" y="480.0" width="1340.0" height="126.0" rx="12" fill="#fff7ed" stroke="#ea580c" stroke-width="2"/>
<text x="90.0" y="510.0" text-anchor="start" fill="#ea580c" font-size="16" font-weight="700">驱动/运行时层（理论+版本治理接触）</text>
<rect x="101.0" y="524.0" width="306.0" height="62.0" rx="8" fill="#ffffff" stroke="#ea580c" stroke-width="2"/>
<text x="254.0" y="559.9" text-anchor="middle" fill="#1f2937" font-size="13" font-weight="700">GPU driver</text>
<rect x="421.0" y="524.0" width="306.0" height="62.0" rx="8" fill="#ffffff" stroke="#ea580c" stroke-width="2"/>
<text x="574.0" y="559.9" text-anchor="middle" fill="#1f2937" font-size="13" font-weight="700">CUDA runtime</text>
<rect x="741.0" y="524.0" width="306.0" height="62.0" rx="8" fill="#ffffff" stroke="#ea580c" stroke-width="2"/>
<text x="894.0" y="559.9" text-anchor="middle" fill="#1f2937" font-size="13" font-weight="700">cuDNN/cuBLAS/NCCL</text>
<rect x="1061.0" y="524.0" width="306.0" height="62.0" rx="8" fill="#ffffff" stroke="#ea580c" stroke-width="2"/>
<text x="1214.0" y="559.9" text-anchor="middle" fill="#1f2937" font-size="13" font-weight="700">Container Toolkit</text>
<rect x="70.0" y="616.0" width="1340.0" height="126.0" rx="12" fill="#fef2f2" stroke="#dc2626" stroke-width="2"/>
<text x="90.0" y="646.0" text-anchor="start" fill="#dc2626" font-size="16" font-weight="700">硬件层（理论对标）</text>
<rect x="101.0" y="660.0" width="306.0" height="62.0" rx="8" fill="#ffffff" stroke="#dc2626" stroke-width="2"/>
<text x="254.0" y="695.9" text-anchor="middle" fill="#1f2937" font-size="13" font-weight="700">SM/CUDA/Tensor Core</text>
<rect x="421.0" y="660.0" width="306.0" height="62.0" rx="8" fill="#ffffff" stroke="#dc2626" stroke-width="2"/>
<text x="574.0" y="695.9" text-anchor="middle" fill="#1f2937" font-size="13" font-weight="700">HBM/L2/SRAM 层级</text>
<rect x="741.0" y="660.0" width="306.0" height="62.0" rx="8" fill="#ffffff" stroke="#dc2626" stroke-width="2"/>
<text x="894.0" y="695.9" text-anchor="middle" fill="#1f2937" font-size="13" font-weight="700">NVLink/NVSwitch/PCIe</text>
<rect x="1061.0" y="660.0" width="306.0" height="62.0" rx="8" fill="#ffffff" stroke="#dc2626" stroke-width="2"/>
<text x="1214.0" y="695.9" text-anchor="middle" fill="#1f2937" font-size="13" font-weight="700">ECC</text>
<text x="740.0" y="744.0" text-anchor="middle" fill="#64748b" font-size="14" font-weight="400">红/橙=理论对标   蓝=我真实做   绿=我相邻经验（感知/排障/兜底）</text>
</svg>