<svg xmlns="http://www.w3.org/2000/svg" viewBox="0 0 903 1134" font-family="-apple-system, PingFang SC, Microsoft YaHei, Helvetica, Arial, sans-serif">
<rect x="0" y="0" width="903" height="1134" fill="#ffffff"/>
<path d="M 288.6,563.5 C 317.6,563.5 317.6,115.0 346.6,115.0" fill="none" stroke="#7c3aed" stroke-width="2.4" stroke-linecap="round"/>
<path d="M 475.7,115.0 C 517.5,115.0 517.5,46.0 559.4,46.0" fill="none" stroke="#7c3aed" stroke-width="2.4" stroke-linecap="round"/>
<path d="M 475.7,115.0 C 517.5,115.0 517.5,92.0 559.4,92.0" fill="none" stroke="#7c3aed" stroke-width="2.4" stroke-linecap="round"/>
<path d="M 475.7,115.0 C 517.5,115.0 517.5,138.0 559.4,138.0" fill="none" stroke="#7c3aed" stroke-width="2.4" stroke-linecap="round"/>
<path d="M 475.7,115.0 C 517.5,115.0 517.5,184.0 559.4,184.0" fill="none" stroke="#7c3aed" stroke-width="2.4" stroke-linecap="round"/>
<path d="M 288.6,563.5 C 317.6,563.5 317.6,276.0 346.6,276.0" fill="none" stroke="#2563eb" stroke-width="2.4" stroke-linecap="round"/>
<path d="M 451.0,276.0 C 505.2,276.0 505.2,230.0 559.4,230.0" fill="none" stroke="#2563eb" stroke-width="2.4" stroke-linecap="round"/>
<path d="M 451.0,276.0 C 505.2,276.0 505.2,276.0 559.4,276.0" fill="none" stroke="#2563eb" stroke-width="2.4" stroke-linecap="round"/>
<path d="M 451.0,276.0 C 505.2,276.0 505.2,322.0 559.4,322.0" fill="none" stroke="#2563eb" stroke-width="2.4" stroke-linecap="round"/>
<path d="M 288.6,563.5 C 317.6,563.5 317.6,414.0 346.6,414.0" fill="none" stroke="#0891b2" stroke-width="2.4" stroke-linecap="round"/>
<path d="M 486.2,414.0 C 522.8,414.0 522.8,368.0 559.4,368.0" fill="none" stroke="#0891b2" stroke-width="2.4" stroke-linecap="round"/>
<path d="M 486.2,414.0 C 522.8,414.0 522.8,414.0 559.4,414.0" fill="none" stroke="#0891b2" stroke-width="2.4" stroke-linecap="round"/>
<path d="M 486.2,414.0 C 522.8,414.0 522.8,460.0 559.4,460.0" fill="none" stroke="#0891b2" stroke-width="2.4" stroke-linecap="round"/>
<path d="M 288.6,563.5 C 317.6,563.5 317.6,575.0 346.6,575.0" fill="none" stroke="#dc2626" stroke-width="2.4" stroke-linecap="round"/>
<path d="M 454.3,575.0 C 506.8,575.0 506.8,506.0 559.4,506.0" fill="none" stroke="#dc2626" stroke-width="2.4" stroke-linecap="round"/>
<path d="M 454.3,575.0 C 506.8,575.0 506.8,552.0 559.4,552.0" fill="none" stroke="#dc2626" stroke-width="2.4" stroke-linecap="round"/>
<path d="M 454.3,575.0 C 506.8,575.0 506.8,598.0 559.4,598.0" fill="none" stroke="#dc2626" stroke-width="2.4" stroke-linecap="round"/>
<path d="M 454.3,575.0 C 506.8,575.0 506.8,644.0 559.4,644.0" fill="none" stroke="#dc2626" stroke-width="2.4" stroke-linecap="round"/>
<path d="M 288.6,563.5 C 317.6,563.5 317.6,736.0 346.6,736.0" fill="none" stroke="#ea580c" stroke-width="2.4" stroke-linecap="round"/>
<path d="M 454.3,736.0 C 506.8,736.0 506.8,690.0 559.4,690.0" fill="none" stroke="#ea580c" stroke-width="2.4" stroke-linecap="round"/>
<path d="M 454.3,736.0 C 506.8,736.0 506.8,736.0 559.4,736.0" fill="none" stroke="#ea580c" stroke-width="2.4" stroke-linecap="round"/>
<path d="M 454.3,736.0 C 506.8,736.0 506.8,782.0 559.4,782.0" fill="none" stroke="#ea580c" stroke-width="2.4" stroke-linecap="round"/>
<path d="M 288.6,563.5 C 317.6,563.5 317.6,874.0 346.6,874.0" fill="none" stroke="#059669" stroke-width="2.4" stroke-linecap="round"/>
<path d="M 501.4,874.0 C 530.4,874.0 530.4,828.0 559.4,828.0" fill="none" stroke="#059669" stroke-width="2.4" stroke-linecap="round"/>
<path d="M 501.4,874.0 C 530.4,874.0 530.4,874.0 559.4,874.0" fill="none" stroke="#059669" stroke-width="2.4" stroke-linecap="round"/>
<path d="M 501.4,874.0 C 530.4,874.0 530.4,920.0 559.4,920.0" fill="none" stroke="#059669" stroke-width="2.4" stroke-linecap="round"/>
<path d="M 288.6,563.5 C 317.6,563.5 317.6,1012.0 346.6,1012.0" fill="none" stroke="#db2777" stroke-width="2.4" stroke-linecap="round"/>
<path d="M 454.3,1012.0 C 506.8,1012.0 506.8,966.0 559.4,966.0" fill="none" stroke="#db2777" stroke-width="2.4" stroke-linecap="round"/>
<path d="M 454.3,1012.0 C 506.8,1012.0 506.8,1012.0 559.4,1012.0" fill="none" stroke="#db2777" stroke-width="2.4" stroke-linecap="round"/>
<path d="M 454.3,1012.0 C 506.8,1012.0 506.8,1058.0 559.4,1058.0" fill="none" stroke="#db2777" stroke-width="2.4" stroke-linecap="round"/>
<rect x="40" y="534.5" width="248.6" height="58" rx="11" fill="#1e293b"/>
<text x="164.3" y="571.5" text-anchor="middle" fill="#fff" font-size="24" font-weight="700">框架科普·SRE排查</text>
<line x1="346.6" y1="115.0" x2="475.7" y2="115.0" stroke="#7c3aed" stroke-width="2.4" stroke-linecap="round"/>
<text x="357.6" y="107.0" fill="#7c3aed" font-size="21" font-weight="700">框架是什么</text>
<line x1="559.4" y1="46.0" x2="754.8" y2="46.0" stroke="#7c3aed" stroke-width="2.4" stroke-linecap="round"/>
<text x="570.4" y="38.0" fill="#1f2937" font-size="21" font-weight="400">计算图 动态/静态</text>
<line x1="559.4" y1="92.0" x2="772.9" y2="92.0" stroke="#7c3aed" stroke-width="2.4" stroke-linecap="round"/>
<text x="570.4" y="84.0" fill="#1f2937" font-size="21" font-weight="400">autograd 训练核心</text>
<line x1="559.4" y1="138.0" x2="688.5" y2="138.0" stroke="#7c3aed" stroke-width="2.4" stroke-linecap="round"/>
<text x="570.4" y="130.0" fill="#1f2937" font-size="21" font-weight="400">分布式扩展</text>
<line x1="559.4" y1="184.0" x2="718.3" y2="184.0" stroke="#7c3aed" stroke-width="2.4" stroke-linecap="round"/>
<text x="570.4" y="176.0" fill="#1f2937" font-size="21" font-weight="400">serving 部署</text>
<line x1="346.6" y1="276.0" x2="451.0" y2="276.0" stroke="#2563eb" stroke-width="2.4" stroke-linecap="round"/>
<text x="357.6" y="268.0" fill="#2563eb" font-size="21" font-weight="700">PyTorch</text>
<line x1="559.4" y1="230.0" x2="716.2" y2="230.0" stroke="#2563eb" stroke-width="2.4" stroke-linecap="round"/>
<text x="570.4" y="222.0" fill="#1f2937" font-size="21" font-weight="400">动态图 eager</text>
<line x1="559.4" y1="276.0" x2="688.5" y2="276.0" stroke="#2563eb" stroke-width="2.4" stroke-linecap="round"/>
<text x="570.4" y="268.0" fill="#1f2937" font-size="21" font-weight="400">训练为主业</text>
<line x1="559.4" y1="322.0" x2="845.5" y2="322.0" stroke="#2563eb" stroke-width="2.4" stroke-linecap="round"/>
<text x="570.4" y="314.0" fill="#1f2937" font-size="21" font-weight="400">推理转 TorchScript/ONNX</text>
<line x1="346.6" y1="414.0" x2="486.2" y2="414.0" stroke="#0891b2" stroke-width="2.4" stroke-linecap="round"/>
<text x="357.6" y="406.0" fill="#0891b2" font-size="21" font-weight="700">TensorFlow</text>
<line x1="559.4" y1="368.0" x2="721.6" y2="368.0" stroke="#0891b2" stroke-width="2.4" stroke-linecap="round"/>
<text x="570.4" y="360.0" fill="#1f2937" font-size="21" font-weight="400">训练+推理都强</text>
<line x1="559.4" y1="414.0" x2="777.1" y2="414.0" stroke="#0891b2" stroke-width="2.4" stroke-linecap="round"/>
<text x="570.4" y="406.0" fill="#1f2937" font-size="21" font-weight="400">TF1静态/TF2 eager</text>
<line x1="559.4" y1="460.0" x2="781.3" y2="460.0" stroke="#0891b2" stroke-width="2.4" stroke-linecap="round"/>
<text x="570.4" y="452.0" fill="#1f2937" font-size="21" font-weight="400">TF Serving/TFLite</text>
<line x1="346.6" y1="575.0" x2="454.3" y2="575.0" stroke="#dc2626" stroke-width="2.4" stroke-linecap="round"/>
<text x="357.6" y="567.0" fill="#dc2626" font-size="21" font-weight="700">训练视角</text>
<line x1="559.4" y1="506.0" x2="776.2" y2="506.0" stroke="#dc2626" stroke-width="2.4" stroke-linecap="round"/>
<text x="570.4" y="498.0" fill="#1f2937" font-size="21" font-weight="400">吃显存 反向+优化器</text>
<line x1="559.4" y1="552.0" x2="739.7" y2="552.0" stroke="#dc2626" stroke-width="2.4" stroke-linecap="round"/>
<text x="570.4" y="544.0" fill="#1f2937" font-size="21" font-weight="400">分布式 NCCL/PS</text>
<line x1="559.4" y1="598.0" x2="753.6" y2="598.0" stroke="#dc2626" stroke-width="2.4" stroke-linecap="round"/>
<text x="570.4" y="590.0" fill="#1f2937" font-size="21" font-weight="400">checkpoint 容错</text>
<line x1="559.4" y1="644.0" x2="853.1" y2="644.0" stroke="#dc2626" stroke-width="2.4" stroke-linecap="round"/>
<text x="570.4" y="636.0" fill="#1f2937" font-size="21" font-weight="400">故障:Pending/卡死/OOM/慢</text>
<line x1="346.6" y1="736.0" x2="454.3" y2="736.0" stroke="#ea580c" stroke-width="2.4" stroke-linecap="round"/>
<text x="357.6" y="728.0" fill="#ea580c" font-size="21" font-weight="700">推理视角</text>
<line x1="559.4" y1="690.0" x2="645.6" y2="690.0" stroke="#ea580c" stroke-width="2.4" stroke-linecap="round"/>
<text x="570.4" y="682.0" fill="#1f2937" font-size="21" font-weight="400">只前向</text>
<line x1="559.4" y1="736.0" x2="749.4" y2="736.0" stroke="#ea580c" stroke-width="2.4" stroke-linecap="round"/>
<text x="570.4" y="728.0" fill="#1f2937" font-size="21" font-weight="400">延迟/吞吐/batch</text>
<line x1="559.4" y1="782.0" x2="830.8" y2="782.0" stroke="#ea580c" stroke-width="2.4" stroke-linecap="round"/>
<text x="570.4" y="774.0" fill="#1f2937" font-size="21" font-weight="400">故障:加载/延迟/利用率低</text>
<line x1="346.6" y1="874.0" x2="501.4" y2="874.0" stroke="#059669" stroke-width="2.4" stroke-linecap="round"/>
<text x="357.6" y="866.0" fill="#059669" font-size="21" font-weight="700">SRE 分层排查</text>
<line x1="559.4" y1="828.0" x2="764.5" y2="828.0" stroke="#059669" stroke-width="2.4" stroke-linecap="round"/>
<text x="570.4" y="820.0" fill="#1f2937" font-size="21" font-weight="400">基础设施层 平台侧</text>
<line x1="559.4" y1="874.0" x2="721.6" y2="874.0" stroke="#059669" stroke-width="2.4" stroke-linecap="round"/>
<text x="570.4" y="866.0" fill="#1f2937" font-size="21" font-weight="400">框架层 配合查</text>
<line x1="559.4" y1="920.0" x2="785.9" y2="920.0" stroke="#059669" stroke-width="2.4" stroke-linecap="round"/>
<text x="570.4" y="912.0" fill="#1f2937" font-size="21" font-weight="400">业务代码层 甩回业务</text>
<line x1="346.6" y1="1012.0" x2="454.3" y2="1012.0" stroke="#db2777" stroke-width="2.4" stroke-linecap="round"/>
<text x="357.6" y="1004.0" fill="#db2777" font-size="21" font-weight="700">经验边界</text>
<line x1="559.4" y1="966.0" x2="727.9" y2="966.0" stroke="#db2777" stroke-width="2.4" stroke-linecap="round"/>
<text x="570.4" y="958.0" fill="#1f2937" font-size="21" font-weight="400">TFJob 熟·实践</text>
<line x1="559.4" y1="1012.0" x2="718.3" y2="1012.0" stroke="#db2777" stroke-width="2.4" stroke-linecap="round"/>
<text x="570.4" y="1004.0" fill="#1f2937" font-size="21" font-weight="400">PyTorch 了解</text>
<line x1="559.4" y1="1058.0" x2="737.6" y2="1058.0" stroke="#db2777" stroke-width="2.4" stroke-linecap="round"/>
<text x="570.4" y="1050.0" fill="#1f2937" font-size="21" font-weight="400">NCCL/内核 对标</text>
</svg>