<svg xmlns="http://www.w3.org/2000/svg" viewBox="0 0 1640 860" font-family="-apple-system, PingFang SC, Microsoft YaHei, Helvetica, Arial, sans-serif">
<rect x="0" y="0" width="1640" height="860" fill="#f8fafc"/>
<text x="40" y="52" fill="#0f172a" font-size="29.3" font-weight="700">训练栈 vs 推理栈分层（SRE 掌控层 vs 框架了解层）</text>
<rect x="40" y="73" width="22" height="16" rx="3" fill="#2563eb"/>
<text x="70" y="86" fill="#334155" font-size="17.1">SRE 真实掌控/能动手</text>
<rect x="310" y="73" width="22" height="16" rx="3" fill="#d97706"/>
<text x="340" y="86" fill="#334155" font-size="17.1">框架层·了解+配合查</text>
<rect x="580" y="73" width="22" height="16" rx="3" fill="#dc2626"/>
<text x="610" y="86" fill="#334155" font-size="17.1">业务代码层·甩回业务</text>
<rect x="70" y="130" width="720" height="46" rx="10" fill="#1d4ed8" stroke="#1d4ed8" stroke-width="2"/>
<text x="430" y="161.0" text-anchor="middle" fill="#fff" font-size="25.6" font-weight="700">训练栈</text>
<rect x="70" y="192" width="720" height="130" rx="10" fill="#fef2f2" stroke="#dc2626" stroke-width="2.2"/>
<text x="430" y="249.5" text-anchor="middle" fill="#334155" font-size="22.0" font-weight="700">业务训练代码</text>
<text x="430" y="277.5" text-anchor="middle" fill="#334155" font-size="20.7" font-weight="400">模型 / 超参 / 数据 / batch</text>
<rect x="70" y="338" width="720" height="130" rx="10" fill="#fffbeb" stroke="#d97706" stroke-width="2.2"/>
<text x="430" y="395.5" text-anchor="middle" fill="#334155" font-size="22.0" font-weight="700">框架层</text>
<text x="430" y="423.5" text-anchor="middle" fill="#334155" font-size="20.7" font-weight="400">PyTorch/TF + NCCL + DataLoader + checkpoint</text>
<rect x="70" y="484" width="720" height="130" rx="10" fill="#eff6ff" stroke="#2563eb" stroke-width="2.2"/>
<text x="430" y="541.5" text-anchor="middle" fill="#334155" font-size="22.0" font-weight="700">容器 / K8s / 调度</text>
<text x="430" y="569.5" text-anchor="middle" fill="#334155" font-size="20.7" font-weight="400">gang · 配额 · 镜像 · PVC</text>
<rect x="70" y="630" width="720" height="130" rx="10" fill="#eff6ff" stroke="#2563eb" stroke-width="2.2"/>
<text x="430" y="687.5" text-anchor="middle" fill="#334155" font-size="22.0" font-weight="700">基础设施</text>
<text x="430" y="715.5" text-anchor="middle" fill="#334155" font-size="20.7" font-weight="400">GPU · 网络(RDMA) · 存储(NAS)</text>
<rect x="850" y="130" width="720" height="46" rx="10" fill="#047857" stroke="#047857" stroke-width="2"/>
<text x="1210" y="161.0" text-anchor="middle" fill="#fff" font-size="25.6" font-weight="700">推理栈</text>
<rect x="850" y="192" width="720" height="130" rx="10" fill="#fef2f2" stroke="#dc2626" stroke-width="2.2"/>
<text x="1210" y="249.5" text-anchor="middle" fill="#334155" font-size="22.0" font-weight="700">业务请求</text>
<text x="1210" y="277.5" text-anchor="middle" fill="#334155" font-size="20.7" font-weight="400">QPS / batch / 预处理·后处理</text>
<rect x="850" y="338" width="720" height="130" rx="10" fill="#fffbeb" stroke="#d97706" stroke-width="2.2"/>
<text x="1210" y="395.5" text-anchor="middle" fill="#334155" font-size="22.0" font-weight="700">serving 框架</text>
<text x="1210" y="423.5" text-anchor="middle" fill="#334155" font-size="20.7" font-weight="400">TF Serving/TorchServe/Triton + 模型格式</text>
<rect x="850" y="484" width="720" height="130" rx="10" fill="#eff6ff" stroke="#2563eb" stroke-width="2.2"/>
<text x="1210" y="541.5" text-anchor="middle" fill="#334155" font-size="22.0" font-weight="700">容器 / K8s / HPA</text>
<text x="1210" y="569.5" text-anchor="middle" fill="#334155" font-size="20.7" font-weight="400">副本 · 配额 · 弹性 · 镜像</text>
<rect x="850" y="630" width="720" height="130" rx="10" fill="#eff6ff" stroke="#2563eb" stroke-width="2.2"/>
<text x="1210" y="687.5" text-anchor="middle" fill="#334155" font-size="22.0" font-weight="700">基础设施</text>
<text x="1210" y="715.5" text-anchor="middle" fill="#334155" font-size="20.7" font-weight="400">GPU · 网络 · 存储</text>
</svg>