<svg xmlns="http://www.w3.org/2000/svg" viewBox="0 0 1740 1000" font-family="-apple-system, PingFang SC, Microsoft YaHei, Helvetica, Arial, sans-serif">
<rect x="0" y="0" width="1740" height="1000" fill="#f8fafc"/>
<text x="40" y="52" fill="#0f172a" font-size="29.3" font-weight="700">业务报障 → SRE 分层定位决策树</text>
<rect x="40" y="71" width="22" height="16" rx="3" fill="#2563eb"/>
<text x="70" y="84" fill="#334155" font-size="17.1">平台侧·SRE 处理</text>
<rect x="310" y="71" width="22" height="16" rx="3" fill="#d97706"/>
<text x="340" y="84" fill="#334155" font-size="17.1">跨层·SRE 配合判断</text>
<rect x="580" y="71" width="22" height="16" rx="3" fill="#dc2626"/>
<text x="610" y="84" fill="#334155" font-size="17.1">业务侧·甩回业务</text>
<rect x="40" y="110" width="260" height="70" rx="12" fill="#0f172a" stroke="#0f172a" stroke-width="2"/>
<text x="170" y="139.5" text-anchor="middle" fill="#fff" font-size="22.0" font-weight="700">业务模糊报障</text>
<text x="170" y="163.5" text-anchor="middle" fill="#fff" font-size="20.7" font-weight="400">先分层:哪一层?</text>
<defs><marker id="ah94a3b8" markerWidth="9" markerHeight="9" refX="7" refY="3" orient="auto"><path d="M0,0 L7,3 L0,6 Z" fill="#94a3b8"/></marker></defs>
<path d="M 300,145 L 328,205" stroke="#94a3b8" stroke-width="2.0" fill="none" marker-end="url(#ah94a3b8)"/>
<rect x="340" y="110" width="260" height="190" rx="12" fill="#2563eb" stroke="#2563eb" stroke-width="2"/>
<text x="470" y="198.0" text-anchor="middle" fill="#fff" font-size="20.7" font-weight="700">Pending / 起不来</text>
<text x="470" y="224.0" text-anchor="middle" fill="#fff" font-size="19.5" font-weight="400">基础设施/调度层</text>
<rect x="616" y="110" width="352" height="190" rx="9" fill="#f1f5f9" stroke="#2563eb" stroke-width="1.6"/>
<text x="630" y="138" fill="#2563eb" font-size="17.1" font-weight="700">可能原因</text>
<text x="630" y="164" fill="#334155" font-size="16.5">GPU配额不足·gang没满</text>
<text x="630" y="186" fill="#334155" font-size="16.5">足·taint·镜像失败·P</text>
<text x="630" y="208" fill="#334155" font-size="16.5">VC挂不上</text>
<rect x="982" y="110" width="352" height="190" rx="9" fill="#eef2ff" stroke="#2563eb" stroke-width="1.6"/>
<text x="996" y="138" fill="#2563eb" font-size="17.1" font-weight="700">怎么验证</text>
<text x="996" y="164" fill="#334155" font-size="16.5">看 Pod events /</text>
<text x="996" y="186" fill="#334155" font-size="16.5"> PodGroup / qu</text>
<text x="996" y="208" fill="#334155" font-size="16.5">ota</text>
<rect x="1348" y="110" width="352" height="190" rx="9" fill="#eff6ff" stroke="#2563eb" stroke-width="1.6"/>
<text x="1362" y="138" fill="#2563eb" font-size="17.1" font-weight="700">结论/责任方</text>
<text x="1362" y="164" fill="#334155" font-size="16.5">平台侧 SRE 直接处理</text>
<defs><marker id="ah94a3b8" markerWidth="9" markerHeight="9" refX="7" refY="3" orient="auto"><path d="M0,0 L7,3 L0,6 Z" fill="#94a3b8"/></marker></defs>
<path d="M 300,145 L 328,411" stroke="#94a3b8" stroke-width="2.0" fill="none" marker-end="url(#ah94a3b8)"/>
<rect x="340" y="316" width="260" height="190" rx="12" fill="#d97706" stroke="#d97706" stroke-width="2"/>
<text x="470" y="404.0" text-anchor="middle" fill="#fff" font-size="20.7" font-weight="700">卡死不动</text>
<text x="470" y="430.0" text-anchor="middle" fill="#fff" font-size="19.5" font-weight="400">框架通信/发现层</text>
<rect x="616" y="316" width="352" height="190" rx="9" fill="#f1f5f9" stroke="#d97706" stroke-width="1.6"/>
<text x="630" y="344" fill="#d97706" font-size="17.1" font-weight="700">可能原因</text>
<text x="630" y="370" fill="#334155" font-size="16.5">NCCL超时·rendezv</text>
<text x="630" y="392" fill="#334155" font-size="16.5">ous差worker·PS连</text>
<text x="630" y="414" fill="#334155" font-size="16.5">不上·DataLoader卡</text>
<text x="630" y="436" fill="#334155" font-size="16.5">数据</text>
<rect x="982" y="316" width="352" height="190" rx="9" fill="#eef2ff" stroke="#d97706" stroke-width="1.6"/>
<text x="996" y="344" fill="#d97706" font-size="17.1" font-weight="700">怎么验证</text>
<text x="996" y="370" fill="#334155" font-size="16.5">看 rank0/Master</text>
<text x="996" y="392" fill="#334155" font-size="16.5"> NCCL/rendezvo</text>
<text x="996" y="414" fill="#334155" font-size="16.5">us 日志</text>
<rect x="1348" y="316" width="352" height="190" rx="9" fill="#fffbeb" stroke="#d97706" stroke-width="1.6"/>
<text x="1362" y="344" fill="#d97706" font-size="17.1" font-weight="700">结论/责任方</text>
<text x="1362" y="370" fill="#334155" font-size="16.5">网络/存储=平台 · 通信配</text>
<text x="1362" y="392" fill="#334155" font-size="16.5">置=业务</text>
<defs><marker id="ah94a3b8" markerWidth="9" markerHeight="9" refX="7" refY="3" orient="auto"><path d="M0,0 L7,3 L0,6 Z" fill="#94a3b8"/></marker></defs>
<path d="M 300,145 L 328,617" stroke="#94a3b8" stroke-width="2.0" fill="none" marker-end="url(#ah94a3b8)"/>
<rect x="340" y="522" width="260" height="190" rx="12" fill="#dc2626" stroke="#dc2626" stroke-width="2"/>
<text x="470" y="610.0" text-anchor="middle" fill="#fff" font-size="20.7" font-weight="700">OOM 显存爆</text>
<text x="470" y="636.0" text-anchor="middle" fill="#fff" font-size="19.5" font-weight="400">业务代码层(多)</text>
<rect x="616" y="522" width="352" height="190" rx="9" fill="#f1f5f9" stroke="#dc2626" stroke-width="1.6"/>
<text x="630" y="550" fill="#dc2626" font-size="17.1" font-weight="700">可能原因</text>
<text x="630" y="576" fill="#334155" font-size="16.5">batch太大·模型太大·没</text>
<text x="630" y="598" fill="#334155" font-size="16.5">开梯度累积/混合精度</text>
<rect x="982" y="522" width="352" height="190" rx="9" fill="#eef2ff" stroke="#dc2626" stroke-width="1.6"/>
<text x="996" y="550" fill="#dc2626" font-size="17.1" font-weight="700">怎么验证</text>
<text x="996" y="576" fill="#334155" font-size="16.5">分清 CUDA OOM vs</text>
<text x="996" y="598" fill="#334155" font-size="16.5"> K8s OOMKill</text>
<rect x="1348" y="522" width="352" height="190" rx="9" fill="#fef2f2" stroke="#dc2626" stroke-width="1.6"/>
<text x="1362" y="550" fill="#dc2626" font-size="17.1" font-weight="700">结论/责任方</text>
<text x="1362" y="576" fill="#334155" font-size="16.5">CUDA OOM=业务调参 </text>
<text x="1362" y="598" fill="#334155" font-size="16.5">· OOMKill=改lim</text>
<text x="1362" y="620" fill="#334155" font-size="16.5">it</text>
<defs><marker id="ah94a3b8" markerWidth="9" markerHeight="9" refX="7" refY="3" orient="auto"><path d="M0,0 L7,3 L0,6 Z" fill="#94a3b8"/></marker></defs>
<path d="M 300,145 L 328,823" stroke="#94a3b8" stroke-width="2.0" fill="none" marker-end="url(#ah94a3b8)"/>
<rect x="340" y="728" width="260" height="190" rx="12" fill="#d97706" stroke="#d97706" stroke-width="2"/>
<text x="470" y="816.0" text-anchor="middle" fill="#fff" font-size="20.7" font-weight="700">变慢 / 利用率低</text>
<text x="470" y="842.0" text-anchor="middle" fill="#fff" font-size="19.5" font-weight="400">跨层</text>
<rect x="616" y="728" width="352" height="190" rx="9" fill="#f1f5f9" stroke="#d97706" stroke-width="1.6"/>
<text x="630" y="756" fill="#d97706" font-size="17.1" font-weight="700">可能原因</text>
<text x="630" y="782" fill="#334155" font-size="16.5">DataLoader喂不饱·</text>
<text x="630" y="804" fill="#334155" font-size="16.5">慢节点straggler·带</text>
<text x="630" y="826" fill="#334155" font-size="16.5">宽不够·没用RDMA</text>
<rect x="982" y="728" width="352" height="190" rx="9" fill="#eef2ff" stroke="#d97706" stroke-width="1.6"/>
<text x="996" y="756" fill="#d97706" font-size="17.1" font-weight="700">怎么验证</text>
<text x="996" y="782" fill="#334155" font-size="16.5">看 GPU利用率 vs 等待</text>
<text x="996" y="804" fill="#334155" font-size="16.5"> · 各rank进度</text>
<rect x="1348" y="728" width="352" height="190" rx="9" fill="#fffbeb" stroke="#d97706" stroke-width="1.6"/>
<text x="1362" y="756" fill="#d97706" font-size="17.1" font-weight="700">结论/责任方</text>
<text x="1362" y="782" fill="#334155" font-size="16.5">先分:等数据 还是 等通信</text>
</svg>