<svg xmlns="http://www.w3.org/2000/svg" viewBox="0 0 982 1472" font-family="-apple-system, PingFang SC, Microsoft YaHei, Helvetica, Arial, sans-serif">
<rect x="0" y="0" width="982" height="1472" fill="#ffffff"/>
<path d="M 353.2,722.0 C 390.7,722.0 390.7,98.0 428.2,98.0" fill="none" stroke="#7c3aed" stroke-width="2.4" stroke-linecap="round"/>
<path d="M 525.7,98.0 C 593.2,98.0 593.2,50.0 660.8,50.0" fill="none" stroke="#7c3aed" stroke-width="2.4" stroke-linecap="round"/>
<path d="M 525.7,98.0 C 593.2,98.0 593.2,98.0 660.8,98.0" fill="none" stroke="#7c3aed" stroke-width="2.4" stroke-linecap="round"/>
<path d="M 525.7,98.0 C 593.2,98.0 593.2,146.0 660.8,146.0" fill="none" stroke="#7c3aed" stroke-width="2.4" stroke-linecap="round"/>
<path d="M 353.2,722.0 C 390.7,722.0 390.7,266.0 428.2,266.0" fill="none" stroke="#2563eb" stroke-width="2.4" stroke-linecap="round"/>
<path d="M 525.7,266.0 C 593.2,266.0 593.2,194.0 660.8,194.0" fill="none" stroke="#2563eb" stroke-width="2.4" stroke-linecap="round"/>
<path d="M 525.7,266.0 C 593.2,266.0 593.2,242.0 660.8,242.0" fill="none" stroke="#2563eb" stroke-width="2.4" stroke-linecap="round"/>
<path d="M 525.7,266.0 C 593.2,266.0 593.2,290.0 660.8,290.0" fill="none" stroke="#2563eb" stroke-width="2.4" stroke-linecap="round"/>
<path d="M 525.7,266.0 C 593.2,266.0 593.2,338.0 660.8,338.0" fill="none" stroke="#2563eb" stroke-width="2.4" stroke-linecap="round"/>
<path d="M 353.2,722.0 C 390.7,722.0 390.7,482.0 428.2,482.0" fill="none" stroke="#0891b2" stroke-width="2.4" stroke-linecap="round"/>
<path d="M 525.7,482.0 C 593.2,482.0 593.2,386.0 660.8,386.0" fill="none" stroke="#0891b2" stroke-width="2.4" stroke-linecap="round"/>
<path d="M 525.7,482.0 C 593.2,482.0 593.2,434.0 660.8,434.0" fill="none" stroke="#0891b2" stroke-width="2.4" stroke-linecap="round"/>
<path d="M 525.7,482.0 C 593.2,482.0 593.2,482.0 660.8,482.0" fill="none" stroke="#0891b2" stroke-width="2.4" stroke-linecap="round"/>
<path d="M 525.7,482.0 C 593.2,482.0 593.2,530.0 660.8,530.0" fill="none" stroke="#0891b2" stroke-width="2.4" stroke-linecap="round"/>
<path d="M 525.7,482.0 C 593.2,482.0 593.2,578.0 660.8,578.0" fill="none" stroke="#0891b2" stroke-width="2.4" stroke-linecap="round"/>
<path d="M 353.2,722.0 C 390.7,722.0 390.7,698.0 428.2,698.0" fill="none" stroke="#dc2626" stroke-width="2.4" stroke-linecap="round"/>
<path d="M 525.7,698.0 C 593.2,698.0 593.2,626.0 660.8,626.0" fill="none" stroke="#dc2626" stroke-width="2.4" stroke-linecap="round"/>
<path d="M 525.7,698.0 C 593.2,698.0 593.2,674.0 660.8,674.0" fill="none" stroke="#dc2626" stroke-width="2.4" stroke-linecap="round"/>
<path d="M 525.7,698.0 C 593.2,698.0 593.2,722.0 660.8,722.0" fill="none" stroke="#dc2626" stroke-width="2.4" stroke-linecap="round"/>
<path d="M 525.7,698.0 C 593.2,698.0 593.2,770.0 660.8,770.0" fill="none" stroke="#dc2626" stroke-width="2.4" stroke-linecap="round"/>
<path d="M 353.2,722.0 C 390.7,722.0 390.7,890.0 428.2,890.0" fill="none" stroke="#ea580c" stroke-width="2.4" stroke-linecap="round"/>
<path d="M 525.7,890.0 C 593.2,890.0 593.2,818.0 660.8,818.0" fill="none" stroke="#ea580c" stroke-width="2.4" stroke-linecap="round"/>
<path d="M 525.7,890.0 C 593.2,890.0 593.2,866.0 660.8,866.0" fill="none" stroke="#ea580c" stroke-width="2.4" stroke-linecap="round"/>
<path d="M 525.7,890.0 C 593.2,890.0 593.2,914.0 660.8,914.0" fill="none" stroke="#ea580c" stroke-width="2.4" stroke-linecap="round"/>
<path d="M 525.7,890.0 C 593.2,890.0 593.2,962.0 660.8,962.0" fill="none" stroke="#ea580c" stroke-width="2.4" stroke-linecap="round"/>
<path d="M 353.2,722.0 C 390.7,722.0 390.7,1058.0 428.2,1058.0" fill="none" stroke="#059669" stroke-width="2.4" stroke-linecap="round"/>
<path d="M 564.5,1058.0 C 612.6,1058.0 612.6,1010.0 660.8,1010.0" fill="none" stroke="#059669" stroke-width="2.4" stroke-linecap="round"/>
<path d="M 564.5,1058.0 C 612.6,1058.0 612.6,1058.0 660.8,1058.0" fill="none" stroke="#059669" stroke-width="2.4" stroke-linecap="round"/>
<path d="M 564.5,1058.0 C 612.6,1058.0 612.6,1106.0 660.8,1106.0" fill="none" stroke="#059669" stroke-width="2.4" stroke-linecap="round"/>
<path d="M 353.2,722.0 C 390.7,722.0 390.7,1202.0 428.2,1202.0" fill="none" stroke="#d97706" stroke-width="2.4" stroke-linecap="round"/>
<path d="M 585.8,1202.0 C 623.3,1202.0 623.3,1154.0 660.8,1154.0" fill="none" stroke="#d97706" stroke-width="2.4" stroke-linecap="round"/>
<path d="M 585.8,1202.0 C 623.3,1202.0 623.3,1202.0 660.8,1202.0" fill="none" stroke="#d97706" stroke-width="2.4" stroke-linecap="round"/>
<path d="M 585.8,1202.0 C 623.3,1202.0 623.3,1250.0 660.8,1250.0" fill="none" stroke="#d97706" stroke-width="2.4" stroke-linecap="round"/>
<path d="M 353.2,722.0 C 390.7,722.0 390.7,1346.0 428.2,1346.0" fill="none" stroke="#4f46e5" stroke-width="2.4" stroke-linecap="round"/>
<path d="M 525.7,1346.0 C 593.2,1346.0 593.2,1298.0 660.8,1298.0" fill="none" stroke="#4f46e5" stroke-width="2.4" stroke-linecap="round"/>
<path d="M 525.7,1346.0 C 593.2,1346.0 593.2,1346.0 660.8,1346.0" fill="none" stroke="#4f46e5" stroke-width="2.4" stroke-linecap="round"/>
<path d="M 525.7,1346.0 C 593.2,1346.0 593.2,1394.0 660.8,1394.0" fill="none" stroke="#4f46e5" stroke-width="2.4" stroke-linecap="round"/>
<rect x="40" y="697.0" width="313.2" height="50" rx="11" fill="#1e293b"/>
<text x="196.6" y="729.0" text-anchor="middle" fill="#ffffff" font-size="20" font-weight="700">SAE 应用交付与运行治理平台</text>
<line x1="428.2" y1="98.0" x2="525.7" y2="98.0" stroke="#7c3aed" stroke-width="2.4" stroke-linecap="round"/>
<text x="438.2" y="90.0" fill="#7c3aed" font-size="19" font-weight="700">项目定位</text>
<line x1="660.8" y1="50.0" x2="855.2" y2="50.0" stroke="#7c3aed" stroke-width="2.4" stroke-linecap="round"/>
<text x="670.8" y="42.0" fill="#1f2937" font-size="19" font-weight="400">内部应用交付控制面</text>
<line x1="660.8" y1="98.0" x2="846.4" y2="98.0" stroke="#7c3aed" stroke-width="2.4" stroke-linecap="round"/>
<text x="670.8" y="90.0" fill="#1f2937" font-size="19" font-weight="400">收敛交付+运行治理</text>
<line x1="660.8" y1="146.0" x2="932.3" y2="146.0" stroke="#7c3aed" stroke-width="2.4" stroke-linecap="round"/>
<text x="670.8" y="138.0" fill="#1f2937" font-size="19" font-weight="400">复用 K8s/Tekton/Rollouts</text>
<line x1="428.2" y1="266.0" x2="525.7" y2="266.0" stroke="#2563eb" stroke-width="2.4" stroke-linecap="round"/>
<text x="438.2" y="258.0" fill="#2563eb" font-size="19" font-weight="700">我的职责</text>
<line x1="660.8" y1="194.0" x2="816.4" y2="194.0" stroke="#2563eb" stroke-width="2.4" stroke-linecap="round"/>
<text x="670.8" y="186.0" fill="#1f2937" font-size="19" font-weight="400">后端控制面建设</text>
<line x1="660.8" y1="242.0" x2="835.8" y2="242.0" stroke="#2563eb" stroke-width="2.4" stroke-linecap="round"/>
<text x="670.8" y="234.0" fill="#1f2937" font-size="19" font-weight="400">应用生命周期治理</text>
<line x1="660.8" y1="290.0" x2="797.0" y2="290.0" stroke="#2563eb" stroke-width="2.4" stroke-linecap="round"/>
<text x="670.8" y="282.0" fill="#1f2937" font-size="19" font-weight="400">异步状态同步</text>
<line x1="660.8" y1="338.0" x2="835.8" y2="338.0" stroke="#2563eb" stroke-width="2.4" stroke-linecap="round"/>
<text x="670.8" y="330.0" fill="#1f2937" font-size="19" font-weight="400">边界：不自研底座</text>
<line x1="428.2" y1="482.0" x2="525.7" y2="482.0" stroke="#0891b2" stroke-width="2.4" stroke-linecap="round"/>
<text x="438.2" y="474.0" fill="#0891b2" font-size="19" font-weight="700">总体架构</text>
<line x1="660.8" y1="386.0" x2="862.8" y2="386.0" stroke="#0891b2" stroke-width="2.4" stroke-linecap="round"/>
<text x="670.8" y="378.0" fill="#1f2937" font-size="19" font-weight="400">console 同步控制面</text>
<line x1="660.8" y1="434.0" x2="836.6" y2="434.0" stroke="#0891b2" stroke-width="2.4" stroke-linecap="round"/>
<text x="670.8" y="426.0" fill="#1f2937" font-size="19" font-weight="400">sae-api 领域CRD</text>
<line x1="660.8" y1="482.0" x2="862.8" y2="482.0" stroke="#0891b2" stroke-width="2.4" stroke-linecap="round"/>
<text x="670.8" y="474.0" fill="#1f2937" font-size="19" font-weight="400">watcher 异步状态面</text>
<line x1="660.8" y1="530.0" x2="832.8" y2="530.0" stroke="#0891b2" stroke-width="2.4" stroke-linecap="round"/>
<text x="670.8" y="522.0" fill="#1f2937" font-size="19" font-weight="400">saejob 补偿任务</text>
<line x1="660.8" y1="578.0" x2="932.3" y2="578.0" stroke="#0891b2" stroke-width="2.4" stroke-linecap="round"/>
<text x="670.8" y="570.0" fill="#1f2937" font-size="19" font-weight="400">K8s/Tekton/Rollouts 底座</text>
<line x1="428.2" y1="698.0" x2="525.7" y2="698.0" stroke="#dc2626" stroke-width="2.4" stroke-linecap="round"/>
<text x="438.2" y="690.0" fill="#dc2626" font-size="19" font-weight="700">核心能力</text>
<line x1="660.8" y1="626.0" x2="797.0" y2="626.0" stroke="#dc2626" stroke-width="2.4" stroke-linecap="round"/>
<text x="670.8" y="618.0" fill="#1f2937" font-size="19" font-weight="400">统一交付入口</text>
<line x1="660.8" y1="674.0" x2="816.4" y2="674.0" stroke="#dc2626" stroke-width="2.4" stroke-linecap="round"/>
<text x="670.8" y="666.0" fill="#1f2937" font-size="19" font-weight="400">持续构建与发布</text>
<line x1="660.8" y1="722.0" x2="777.7" y2="722.0" stroke="#dc2626" stroke-width="2.4" stroke-linecap="round"/>
<text x="670.8" y="714.0" fill="#1f2937" font-size="19" font-weight="400">多集群编排</text>
<line x1="660.8" y1="770.0" x2="797.0" y2="770.0" stroke="#dc2626" stroke-width="2.4" stroke-linecap="round"/>
<text x="670.8" y="762.0" fill="#1f2937" font-size="19" font-weight="400">观测诊断排障</text>
<line x1="428.2" y1="890.0" x2="525.7" y2="890.0" stroke="#ea580c" stroke-width="2.4" stroke-linecap="round"/>
<text x="438.2" y="882.0" fill="#ea580c" font-size="19" font-weight="700">关键设计</text>
<line x1="660.8" y1="818.0" x2="797.0" y2="818.0" stroke="#ea580c" stroke-width="2.4" stroke-linecap="round"/>
<text x="670.8" y="810.0" fill="#1f2937" font-size="19" font-weight="400">同步异步分层</text>
<line x1="660.8" y1="866.0" x2="889.8" y2="866.0" stroke="#ea580c" stroke-width="2.4" stroke-linecap="round"/>
<text x="670.8" y="858.0" fill="#1f2937" font-size="19" font-weight="400">Application CRD 建模</text>
<line x1="660.8" y1="914.0" x2="898.5" y2="914.0" stroke="#ea580c" stroke-width="2.4" stroke-linecap="round"/>
<text x="670.8" y="906.0" fill="#1f2937" font-size="19" font-weight="400">ClusterManager 多集群</text>
<line x1="660.8" y1="962.0" x2="843.4" y2="962.0" stroke="#ea580c" stroke-width="2.4" stroke-linecap="round"/>
<text x="670.8" y="954.0" fill="#1f2937" font-size="19" font-weight="400">watcher 状态回写</text>
<line x1="428.2" y1="1058.0" x2="564.5" y2="1058.0" stroke="#059669" stroke-width="2.4" stroke-linecap="round"/>
<text x="438.2" y="1050.0" fill="#059669" font-size="19" font-weight="700">难点与稳定性</text>
<line x1="660.8" y1="1010.0" x2="816.4" y2="1010.0" stroke="#059669" stroke-width="2.4" stroke-linecap="round"/>
<text x="670.8" y="1002.0" fill="#1f2937" font-size="19" font-weight="400">状态一致性漂移</text>
<line x1="660.8" y1="1058.0" x2="777.7" y2="1058.0" stroke="#059669" stroke-width="2.4" stroke-linecap="round"/>
<text x="670.8" y="1050.0" fill="#1f2937" font-size="19" font-weight="400">多集群同步</text>
<line x1="660.8" y1="1106.0" x2="862.8" y2="1106.0" stroke="#059669" stroke-width="2.4" stroke-linecap="round"/>
<text x="670.8" y="1098.0" fill="#1f2937" font-size="19" font-weight="400">watcher 丢事件补偿</text>
<line x1="428.2" y1="1202.0" x2="585.8" y2="1202.0" stroke="#d97706" stroke-width="2.4" stroke-linecap="round"/>
<text x="438.2" y="1194.0" fill="#d97706" font-size="19" font-weight="700">缺陷·踩坑·演进</text>
<line x1="660.8" y1="1154.0" x2="797.0" y2="1154.0" stroke="#d97706" stroke-width="2.4" stroke-linecap="round"/>
<text x="670.8" y="1146.0" fill="#1f2937" font-size="19" font-weight="400">当前设计缺陷</text>
<line x1="660.8" y1="1202.0" x2="797.0" y2="1202.0" stroke="#d97706" stroke-width="2.4" stroke-linecap="round"/>
<text x="670.8" y="1194.0" fill="#1f2937" font-size="19" font-weight="400">上线踩过的坑</text>
<line x1="660.8" y1="1250.0" x2="797.0" y2="1250.0" stroke="#d97706" stroke-width="2.4" stroke-linecap="round"/>
<text x="670.8" y="1242.0" fill="#1f2937" font-size="19" font-weight="400">短中长期演进</text>
<line x1="428.2" y1="1346.0" x2="525.7" y2="1346.0" stroke="#4f46e5" stroke-width="2.4" stroke-linecap="round"/>
<text x="438.2" y="1338.0" fill="#4f46e5" font-size="19" font-weight="700">面试材料</text>
<line x1="660.8" y1="1298.0" x2="758.3" y2="1298.0" stroke="#4f46e5" stroke-width="2.4" stroke-linecap="round"/>
<text x="670.8" y="1290.0" fill="#1f2937" font-size="19" font-weight="400">三档话术</text>
<line x1="660.8" y1="1346.0" x2="762.1" y2="1346.0" stroke="#4f46e5" stroke-width="2.4" stroke-linecap="round"/>
<text x="670.8" y="1338.0" fill="#1f2937" font-size="19" font-weight="400">高频 Q&amp;A</text>
<line x1="660.8" y1="1394.0" x2="777.7" y2="1394.0" stroke="#4f46e5" stroke-width="2.4" stroke-linecap="round"/>
<text x="670.8" y="1386.0" fill="#1f2937" font-size="19" font-weight="400">风险与边界</text>
</svg>