<svg xmlns="http://www.w3.org/2000/svg" viewBox="0 0 1217 1472" font-family="-apple-system, PingFang SC, Microsoft YaHei, Helvetica, Arial, sans-serif">
<rect x="0" y="0" width="1217" height="1472" fill="#ffffff"/>
<path d="M 464.0,722.0 C 501.5,722.0 501.5,98.0 539.0,98.0" fill="none" stroke="#7c3aed" stroke-width="2.4" stroke-linecap="round"/>
<path d="M 636.5,98.0 C 737.9,98.0 737.9,50.0 839.2,50.0" fill="none" stroke="#7c3aed" stroke-width="2.4" stroke-linecap="round"/>
<path d="M 636.5,98.0 C 737.9,98.0 737.9,98.0 839.2,98.0" fill="none" stroke="#7c3aed" stroke-width="2.4" stroke-linecap="round"/>
<path d="M 636.5,98.0 C 737.9,98.0 737.9,146.0 839.2,146.0" fill="none" stroke="#7c3aed" stroke-width="2.4" stroke-linecap="round"/>
<path d="M 464.0,722.0 C 501.5,722.0 501.5,242.0 539.0,242.0" fill="none" stroke="#2563eb" stroke-width="2.4" stroke-linecap="round"/>
<path d="M 636.5,242.0 C 737.9,242.0 737.9,194.0 839.2,194.0" fill="none" stroke="#2563eb" stroke-width="2.4" stroke-linecap="round"/>
<path d="M 636.5,242.0 C 737.9,242.0 737.9,242.0 839.2,242.0" fill="none" stroke="#2563eb" stroke-width="2.4" stroke-linecap="round"/>
<path d="M 636.5,242.0 C 737.9,242.0 737.9,290.0 839.2,290.0" fill="none" stroke="#2563eb" stroke-width="2.4" stroke-linecap="round"/>
<path d="M 464.0,722.0 C 501.5,722.0 501.5,434.0 539.0,434.0" fill="none" stroke="#0891b2" stroke-width="2.4" stroke-linecap="round"/>
<path d="M 764.2,434.0 C 801.7,434.0 801.7,338.0 839.2,338.0" fill="none" stroke="#0891b2" stroke-width="2.4" stroke-linecap="round"/>
<path d="M 764.2,434.0 C 801.7,434.0 801.7,386.0 839.2,386.0" fill="none" stroke="#0891b2" stroke-width="2.4" stroke-linecap="round"/>
<path d="M 764.2,434.0 C 801.7,434.0 801.7,434.0 839.2,434.0" fill="none" stroke="#0891b2" stroke-width="2.4" stroke-linecap="round"/>
<path d="M 764.2,434.0 C 801.7,434.0 801.7,482.0 839.2,482.0" fill="none" stroke="#0891b2" stroke-width="2.4" stroke-linecap="round"/>
<path d="M 764.2,434.0 C 801.7,434.0 801.7,530.0 839.2,530.0" fill="none" stroke="#0891b2" stroke-width="2.4" stroke-linecap="round"/>
<path d="M 464.0,722.0 C 501.5,722.0 501.5,674.0 539.0,674.0" fill="none" stroke="#dc2626" stroke-width="2.4" stroke-linecap="round"/>
<path d="M 636.5,674.0 C 737.9,674.0 737.9,578.0 839.2,578.0" fill="none" stroke="#dc2626" stroke-width="2.4" stroke-linecap="round"/>
<path d="M 636.5,674.0 C 737.9,674.0 737.9,626.0 839.2,626.0" fill="none" stroke="#dc2626" stroke-width="2.4" stroke-linecap="round"/>
<path d="M 636.5,674.0 C 737.9,674.0 737.9,674.0 839.2,674.0" fill="none" stroke="#dc2626" stroke-width="2.4" stroke-linecap="round"/>
<path d="M 636.5,674.0 C 737.9,674.0 737.9,722.0 839.2,722.0" fill="none" stroke="#dc2626" stroke-width="2.4" stroke-linecap="round"/>
<path d="M 636.5,674.0 C 737.9,674.0 737.9,770.0 839.2,770.0" fill="none" stroke="#dc2626" stroke-width="2.4" stroke-linecap="round"/>
<path d="M 464.0,722.0 C 501.5,722.0 501.5,866.0 539.0,866.0" fill="none" stroke="#ea580c" stroke-width="2.4" stroke-linecap="round"/>
<path d="M 732.3,866.0 C 785.7,866.0 785.7,818.0 839.2,818.0" fill="none" stroke="#ea580c" stroke-width="2.4" stroke-linecap="round"/>
<path d="M 732.3,866.0 C 785.7,866.0 785.7,866.0 839.2,866.0" fill="none" stroke="#ea580c" stroke-width="2.4" stroke-linecap="round"/>
<path d="M 732.3,866.0 C 785.7,866.0 785.7,914.0 839.2,914.0" fill="none" stroke="#ea580c" stroke-width="2.4" stroke-linecap="round"/>
<path d="M 464.0,722.0 C 501.5,722.0 501.5,1034.0 539.0,1034.0" fill="none" stroke="#059669" stroke-width="2.4" stroke-linecap="round"/>
<path d="M 655.9,1034.0 C 747.5,1034.0 747.5,962.0 839.2,962.0" fill="none" stroke="#059669" stroke-width="2.4" stroke-linecap="round"/>
<path d="M 655.9,1034.0 C 747.5,1034.0 747.5,1010.0 839.2,1010.0" fill="none" stroke="#059669" stroke-width="2.4" stroke-linecap="round"/>
<path d="M 655.9,1034.0 C 747.5,1034.0 747.5,1058.0 839.2,1058.0" fill="none" stroke="#059669" stroke-width="2.4" stroke-linecap="round"/>
<path d="M 655.9,1034.0 C 747.5,1034.0 747.5,1106.0 839.2,1106.0" fill="none" stroke="#059669" stroke-width="2.4" stroke-linecap="round"/>
<path d="M 464.0,722.0 C 501.5,722.0 501.5,1202.0 539.0,1202.0" fill="none" stroke="#d97706" stroke-width="2.4" stroke-linecap="round"/>
<path d="M 696.6,1202.0 C 767.9,1202.0 767.9,1154.0 839.2,1154.0" fill="none" stroke="#d97706" stroke-width="2.4" stroke-linecap="round"/>
<path d="M 696.6,1202.0 C 767.9,1202.0 767.9,1202.0 839.2,1202.0" fill="none" stroke="#d97706" stroke-width="2.4" stroke-linecap="round"/>
<path d="M 696.6,1202.0 C 767.9,1202.0 767.9,1250.0 839.2,1250.0" fill="none" stroke="#d97706" stroke-width="2.4" stroke-linecap="round"/>
<path d="M 464.0,722.0 C 501.5,722.0 501.5,1346.0 539.0,1346.0" fill="none" stroke="#4f46e5" stroke-width="2.4" stroke-linecap="round"/>
<path d="M 636.5,1346.0 C 737.9,1346.0 737.9,1298.0 839.2,1298.0" fill="none" stroke="#4f46e5" stroke-width="2.4" stroke-linecap="round"/>
<path d="M 636.5,1346.0 C 737.9,1346.0 737.9,1346.0 839.2,1346.0" fill="none" stroke="#4f46e5" stroke-width="2.4" stroke-linecap="round"/>
<path d="M 636.5,1346.0 C 737.9,1346.0 737.9,1394.0 839.2,1394.0" fill="none" stroke="#4f46e5" stroke-width="2.4" stroke-linecap="round"/>
<rect x="40" y="697.0" width="424.0" height="50" rx="11" fill="#1e293b"/>
<text x="252.0" y="729.0" text-anchor="middle" fill="#ffffff" font-size="20" font-weight="700">Tekton 内部 CI 引擎（v0.32.4 fork）</text>
<line x1="539.0" y1="98.0" x2="636.5" y2="98.0" stroke="#7c3aed" stroke-width="2.4" stroke-linecap="round"/>
<text x="549.0" y="90.0" fill="#7c3aed" font-size="19" font-weight="700">项目定位</text>
<line x1="839.2" y1="50.0" x2="1132.0" y2="50.0" stroke="#7c3aed" stroke-width="2.4" stroke-linecap="round"/>
<text x="849.2" y="42.0" fill="#1f2937" font-size="19" font-weight="400">fork 上游 Tekton Pipelines</text>
<line x1="839.2" y1="98.0" x2="1053.8" y2="98.0" stroke="#7c3aed" stroke-width="2.4" stroke-linecap="round"/>
<text x="849.2" y="90.0" fill="#1f2937" font-size="19" font-weight="400">只做 CI 不含 ArgoCD</text>
<line x1="839.2" y1="146.0" x2="1024.9" y2="146.0" stroke="#7c3aed" stroke-width="2.4" stroke-linecap="round"/>
<text x="849.2" y="138.0" fill="#1f2937" font-size="19" font-weight="400">多语言构建+推镜像</text>
<line x1="539.0" y1="242.0" x2="636.5" y2="242.0" stroke="#2563eb" stroke-width="2.4" stroke-linecap="round"/>
<text x="549.0" y="234.0" fill="#2563eb" font-size="19" font-weight="700">整体架构</text>
<line x1="839.2" y1="194.0" x2="1072.0" y2="194.0" stroke="#2563eb" stroke-width="2.4" stroke-linecap="round"/>
<text x="849.2" y="186.0" fill="#1f2937" font-size="19" font-weight="400">controller + webhook</text>
<line x1="839.2" y1="242.0" x2="1040.1" y2="242.0" stroke="#2563eb" stroke-width="2.4" stroke-linecap="round"/>
<text x="849.2" y="234.0" fill="#1f2937" font-size="19" font-weight="400">Task/Pipeline CRD</text>
<line x1="839.2" y1="290.0" x2="1135.8" y2="290.0" stroke="#2563eb" stroke-width="2.4" stroke-linecap="round"/>
<text x="849.2" y="282.0" fill="#1f2937" font-size="19" font-weight="400">TaskRun→Pod→step container</text>
<line x1="539.0" y1="434.0" x2="764.2" y2="434.0" stroke="#0891b2" stroke-width="2.4" stroke-linecap="round"/>
<text x="549.0" y="426.0" fill="#0891b2" font-size="19" font-weight="700">PipelineRun 生命周期</text>
<line x1="839.2" y1="338.0" x2="1051.9" y2="338.0" stroke="#0891b2" stroke-width="2.4" stroke-linecap="round"/>
<text x="849.2" y="330.0" fill="#1f2937" font-size="19" font-weight="400">Webhook 默认值+校验</text>
<line x1="839.2" y1="386.0" x2="1157.1" y2="386.0" stroke="#0891b2" stroke-width="2.4" stroke-linecap="round"/>
<text x="849.2" y="378.0" fill="#1f2937" font-size="19" font-weight="400">Informer+Workqueue+Reconcile</text>
<line x1="839.2" y1="434.0" x2="1006.3" y2="434.0" stroke="#0891b2" stroke-width="2.4" stroke-linecap="round"/>
<text x="849.2" y="426.0" fill="#1f2937" font-size="19" font-weight="400">DAG 拆 TaskRun</text>
<line x1="839.2" y1="482.0" x2="1111.9" y2="482.0" stroke="#0891b2" stroke-width="2.4" stroke-linecap="round"/>
<text x="849.2" y="474.0" fill="#1f2937" font-size="19" font-weight="400">entrypoint 文件信号灯串行</text>
<line x1="839.2" y1="530.0" x2="972.4" y2="530.0" stroke="#0891b2" stroke-width="2.4" stroke-linecap="round"/>
<text x="849.2" y="522.0" fill="#1f2937" font-size="19" font-weight="400">status 回写</text>
<line x1="539.0" y1="674.0" x2="636.5" y2="674.0" stroke="#dc2626" stroke-width="2.4" stroke-linecap="round"/>
<text x="549.0" y="666.0" fill="#dc2626" font-size="19" font-weight="700">二次开发</text>
<line x1="839.2" y1="578.0" x2="994.9" y2="578.0" stroke="#dc2626" stroke-width="2.4" stroke-linecap="round"/>
<text x="849.2" y="570.0" fill="#1f2937" font-size="19" font-weight="400">默认镜像内网化</text>
<line x1="839.2" y1="626.0" x2="1043.1" y2="626.0" stroke="#dc2626" stroke-width="2.4" stroke-linecap="round"/>
<text x="849.2" y="618.0" fill="#1f2937" font-size="19" font-weight="400">跳过 manifest 反查</text>
<line x1="839.2" y1="674.0" x2="1034.4" y2="674.0" stroke="#dc2626" stroke-width="2.4" stroke-linecap="round"/>
<text x="849.2" y="666.0" fill="#1f2937" font-size="19" font-weight="400">关 changeset 注解</text>
<line x1="839.2" y1="722.0" x2="989.9" y2="722.0" stroke="#dc2626" stroke-width="2.4" stroke-linecap="round"/>
<text x="849.2" y="714.0" fill="#1f2937" font-size="19" font-weight="400">新增 fcp 工具</text>
<line x1="839.2" y1="770.0" x2="1098.2" y2="770.0" stroke="#dc2626" stroke-width="2.4" stroke-linecap="round"/>
<text x="849.2" y="762.0" fill="#1f2937" font-size="19" font-weight="400">registry rewrite 已下沉</text>
<line x1="539.0" y1="866.0" x2="732.3" y2="866.0" stroke="#ea580c" stroke-width="2.4" stroke-linecap="round"/>
<text x="549.0" y="858.0" fill="#ea580c" font-size="19" font-weight="700">BuildKit 构建链路</text>
<line x1="839.2" y1="818.0" x2="1167.8" y2="818.0" stroke="#ea580c" stroke-width="2.4" stroke-linecap="round"/>
<text x="849.2" y="810.0" fill="#1f2937" font-size="19" font-weight="400">buildctl→buildkitd→containerd</text>
<line x1="839.2" y1="866.0" x2="1117.6" y2="866.0" stroke="#ea580c" stroke-width="2.4" stroke-linecap="round"/>
<text x="849.2" y="858.0" fill="#1f2937" font-size="19" font-weight="400">hostPath 共享 socket/缓存</text>
<line x1="839.2" y1="914.0" x2="1066.3" y2="914.0" stroke="#ea580c" stroke-width="2.4" stroke-linecap="round"/>
<text x="849.2" y="906.0" fill="#1f2937" font-size="19" font-weight="400">不依赖 Docker Engine</text>
<line x1="539.0" y1="1034.0" x2="655.9" y2="1034.0" stroke="#059669" stroke-width="2.4" stroke-linecap="round"/>
<text x="549.0" y="1026.0" fill="#059669" font-size="19" font-weight="700">规模化治理</text>
<line x1="839.2" y1="962.0" x2="1110.8" y2="962.0" stroke="#059669" stroke-width="2.4" stroke-linecap="round"/>
<text x="849.2" y="954.0" fill="#1f2937" font-size="19" font-weight="400">PipelineRun/TaskRun 清理</text>
<line x1="839.2" y1="1010.0" x2="1085.7" y2="1010.0" stroke="#059669" stroke-width="2.4" stroke-linecap="round"/>
<text x="849.2" y="1002.0" fill="#1f2937" font-size="19" font-weight="400">PVC/workspace 生命周期</text>
<line x1="839.2" y1="1058.0" x2="1011.2" y2="1058.0" stroke="#059669" stroke-width="2.4" stroke-linecap="round"/>
<text x="849.2" y="1050.0" fill="#1f2937" font-size="19" font-weight="400">Secret 最小权限</text>
<line x1="839.2" y1="1106.0" x2="1019.9" y2="1106.0" stroke="#059669" stroke-width="2.4" stroke-linecap="round"/>
<text x="849.2" y="1098.0" fill="#1f2937" font-size="19" font-weight="400">控制面 etcd 压力</text>
<line x1="539.0" y1="1202.0" x2="696.6" y2="1202.0" stroke="#d97706" stroke-width="2.4" stroke-linecap="round"/>
<text x="549.0" y="1194.0" fill="#d97706" font-size="19" font-weight="700">缺陷·踩坑·演进</text>
<line x1="839.2" y1="1154.0" x2="975.5" y2="1154.0" stroke="#d97706" stroke-width="2.4" stroke-linecap="round"/>
<text x="849.2" y="1146.0" fill="#1f2937" font-size="19" font-weight="400">当前设计缺陷</text>
<line x1="839.2" y1="1202.0" x2="1030.6" y2="1202.0" stroke="#d97706" stroke-width="2.4" stroke-linecap="round"/>
<text x="849.2" y="1194.0" fill="#1f2937" font-size="19" font-weight="400">Harbor 鉴权排查坑</text>
<line x1="839.2" y1="1250.0" x2="975.5" y2="1250.0" stroke="#d97706" stroke-width="2.4" stroke-linecap="round"/>
<text x="849.2" y="1242.0" fill="#1f2937" font-size="19" font-weight="400">短中长期演进</text>
<line x1="539.0" y1="1346.0" x2="636.5" y2="1346.0" stroke="#4f46e5" stroke-width="2.4" stroke-linecap="round"/>
<text x="549.0" y="1338.0" fill="#4f46e5" font-size="19" font-weight="700">面试材料</text>
<line x1="839.2" y1="1298.0" x2="936.7" y2="1298.0" stroke="#4f46e5" stroke-width="2.4" stroke-linecap="round"/>
<text x="849.2" y="1290.0" fill="#1f2937" font-size="19" font-weight="400">三档话术</text>
<line x1="839.2" y1="1346.0" x2="936.7" y2="1346.0" stroke="#4f46e5" stroke-width="2.4" stroke-linecap="round"/>
<text x="849.2" y="1338.0" fill="#1f2937" font-size="19" font-weight="400">高频追问</text>
<line x1="839.2" y1="1394.0" x2="956.1" y2="1394.0" stroke="#4f46e5" stroke-width="2.4" stroke-linecap="round"/>
<text x="849.2" y="1386.0" fill="#1f2937" font-size="19" font-weight="400">风险与边界</text>
</svg>