<svg xmlns="http://www.w3.org/2000/svg" viewBox="0 0 1800 1080" width="1800" height="1080">
  <defs>
    <marker id="arrowA" markerWidth="10" markerHeight="7" refX="9" refY="3.5" orient="auto">
      <polygon points="0 0, 10 3.5, 0 7" fill="#7c3aed"/>
    </marker>
    <marker id="arrowB" markerWidth="10" markerHeight="7" refX="9" refY="3.5" orient="auto">
      <polygon points="0 0, 10 3.5, 0 7" fill="#10b981"/>
    </marker>
    <marker id="arrowC" markerWidth="10" markerHeight="7" refX="9" refY="3.5" orient="auto">
      <polygon points="0 0, 10 3.5, 0 7" fill="#2563eb"/>
    </marker>
    <marker id="arrowE" markerWidth="10" markerHeight="7" refX="9" refY="3.5" orient="auto">
      <polygon points="0 0, 10 3.5, 0 7" fill="#f97316"/>
    </marker>
    <marker id="arrowF" markerWidth="10" markerHeight="7" refX="9" refY="3.5" orient="auto">
      <polygon points="0 0, 10 3.5, 0 7" fill="#7c3aed"/>
    </marker>
    <marker id="arrowG" markerWidth="10" markerHeight="7" refX="9" refY="3.5" orient="auto">
      <polygon points="0 0, 10 3.5, 0 7" fill="#ef4444"/>
    </marker>
    <marker id="arrowH" markerWidth="10" markerHeight="7" refX="9" refY="3.5" orient="auto">
      <polygon points="0 0, 10 3.5, 0 7" fill="#6b7280"/>
    </marker>
    <filter id="shadowSoft" x="-20%" y="-20%" width="140%" height="160%">
      <feDropShadow dx="0" dy="3" stdDeviation="6" flood-color="#0f172a" flood-opacity="0.12"/>
    </filter>
    <filter id="shadowGlass" x="-20%" y="-20%" width="140%" height="160%">
      <feDropShadow dx="0" dy="10" stdDeviation="16" flood-color="#020617" flood-opacity="0.28"/>
    </filter>
    <style>
    text { font-family: 'Helvetica Neue', Helvetica, Arial, 'PingFang SC', 'Microsoft YaHei', 'Microsoft JhengHei', 'SimHei', sans-serif; }
    .title { font-size: 30px; font-weight: 700; fill: #111827; }
    .subtitle { font-size: 14px; font-weight: 500; fill: #6b7280; }
    .section { font-size: 13px; font-weight: 700; fill: #2563eb; letter-spacing: 1.4px; }
    .section-sub { font-size: 12px; font-weight: 500; fill: #94a3b8; }
    .node-title { font-size: 18px; font-weight: 700; fill: #111827; }
    .node-sub { font-size: 12px; font-weight: 500; fill: #6b7280; }
    .node-type { font-size: 12px; font-weight: 700; fill: #9ca3af; letter-spacing: 0.08em; }
    .arrow-label { font-size: 12px; font-weight: 600; fill: #6b7280; }
    .legend { font-size: 12px; font-weight: 500; fill: #6b7280; }
    .footnote { font-size: 12px; font-weight: 500; fill: #94a3b8; }
    </style>
  </defs>
  <rect width="1800.0" height="1080.0" fill="#ffffff"/>
  <text x="900.0" y="56" text-anchor="middle" class="title">Tekton 构建环境与宿主机关系图</text>
  <text x="900.0" y="82" text-anchor="middle" class="subtitle">ACK 升级到纯 containerd 后，构建链路仍然是 buildctl -&gt; buildkitd -&gt; 宿主机 containerd -&gt; Harbor，而不是依赖 Docker Engine</text>
  <rect x="80.0" y="160.0" width="1240.0" height="760.0" rx="16.0" fill="none" stroke="#94a3b8" stroke-width="1.4" stroke-dasharray="6 5"/>
  <text x="28.0" y="540.0" text-anchor="start" dominant-baseline="middle" font-size="14.0" font-weight="600" fill="#6b7280">pipeline 节点 / 宿主机</text>
  <rect x="130.0" y="250.0" width="430.0" height="270.0" rx="16.0" fill="none" stroke="#cbd5e1" stroke-width="1.4" stroke-dasharray="6 5"/>
  <text x="140.0" y="236.0" text-anchor="start" dominant-baseline="middle" font-size="14.0" font-weight="600" fill="#6b7280">Tekton TaskRun Pod</text>
  <rect x="660.0" y="250.0" width="470.0" height="270.0" rx="16.0" fill="none" stroke="#cbd5e1" stroke-width="1.4" stroke-dasharray="6 5"/>
  <text x="630.0" y="236.0" text-anchor="start" dominant-baseline="middle" font-size="14.0" font-weight="600" fill="#6b7280">buildkitd DaemonSet Pod</text>
  <rect x="220.0" y="580.0" width="860.0" height="260.0" rx="16.0" fill="none" stroke="#cbd5e1" stroke-width="1.4" stroke-dasharray="6 5"/>
  <text x="210.0" y="526.0" text-anchor="start" dominant-baseline="middle" font-size="14.0" font-weight="600" fill="#6b7280">宿主机运行时层</text>
  <path d="M 330.0,384.0 L 330.0,430.0" fill="none" stroke="#7c3aed" stroke-width="2.4" marker-end="url(#arrowA)"/>
  <path d="M 305.0,620.0 L 305.0,560.0 L 240.0,560.0 L 240.0,384.0 L 330.0,384.0" fill="none" stroke="#2563eb" stroke-width="2.4" marker-end="url(#arrowC)"/>
  <path d="M 500.0,472.0 L 520.4,472.0 L 564.6,395.0 L 585.0,395.0" fill="none" stroke="#2563eb" stroke-width="2.4" marker-end="url(#arrowC)"/>
  <path d="M 885.0,395.0 L 905.4,395.0 L 909.6,342.0 L 930.0,342.0" fill="none" stroke="#2563eb" stroke-width="2.4" marker-end="url(#arrowC)"/>
  <path d="M 500.0,472.0 L 760.0,472.0 L 760.0,342.0 L 930.0,342.0" fill="none" stroke="#7c3aed" stroke-width="2.4" marker-end="url(#arrowA)"/>
  <path d="M 1040.0,430.0 L 1040.0,409.6 L 1035.0,404.4 L 1035.0,384.0" fill="none" stroke="#2563eb" stroke-width="2.4" marker-end="url(#arrowC)"/>
  <path d="M 1035.0,384.0 L 1035.0,590.0 L 710.0,590.0 L 710.0,640.0" fill="none" stroke="#10b981" stroke-width="2.4" marker-end="url(#arrowB)"/>
  <path d="M 735.0,470.0 L 735.0,600.0 L 650.0,600.0 L 650.0,640.0 L 710.0,640.0" fill="none" stroke="#2563eb" stroke-width="2.4" marker-end="url(#arrowC)"/>
  <path d="M 1035.0,384.0 L 1000.0,384.0 L 1000.0,600.0 L 395.0,600.0 L 395.0,770.0" fill="none" stroke="#10b981" stroke-width="2.4" marker-end="url(#arrowB)"/>
  <path d="M 710.0,726.0 L 710.0,746.4 L 720.0,759.6 L 720.0,780.0" fill="none" stroke="#ef4444" stroke-width="2.4" marker-end="url(#arrowG)"/>
  <path d="M 930.0,690.0 L 909.6,690.0 L 880.4,683.0 L 860.0,683.0" fill="none" stroke="#2563eb" stroke-width="2.4" marker-end="url(#arrowC)"/>
  <path d="M 860.0,683.0 L 1280.0,683.0 L 1280.0,390.0 L 1390.0,390.0" fill="none" stroke="#f97316" stroke-width="2.4" marker-end="url(#arrowE)"/>
  <path d="M 1520.0,450.0 L 1520.0,610.0" fill="none" stroke="#ef4444" stroke-width="2.4" marker-end="url(#arrowG)" stroke-dasharray="6,4"/>
  <rect x="220.0" y="88.0" width="1360.0" height="52.0" rx="10.0" fill="#fff7ed" stroke="#f97316" stroke-width="1.8"/>
  <text x="900.0" y="106.0" text-anchor="middle" class="node-type">适配背景</text>
  <text x="900.0" y="120.0" text-anchor="middle" class="node-title">ACK 节点升级后不再提供 Docker Runtime，构建能力下沉到 buildkitd + 宿主机 containerd</text>
  <rect x="160.0" y="300.0" width="340.0" height="84.0" rx="10.0" fill="#eff6ff" stroke="#2563eb" stroke-width="2.0" filter="url(#shadowSoft)"/>
  <rect x="166.0" y="306.0" width="328.0" height="72.0" rx="7.0" fill="none" stroke="#2563eb" stroke-width="1.2" opacity="0.65"/>
  <text x="330.0" y="318.0" text-anchor="middle" class="node-type">TaskRun 内执行单元</text>
  <text x="330.0" y="348.0" text-anchor="middle" class="node-title">docker-build step</text>
  <text x="330.0" y="370.0" text-anchor="middle" class="node-sub">nerdctl:v2.1.6</text>
  <path d="M 160.0 430.0 L 482.0 430.0 L 500.0 448.0 L 500.0 514.0 L 160.0 514.0 Z" fill="#ffffff" stroke="#7c3aed" stroke-width="2.0" filter="url(#shadowSoft)"/>
  <path d="M 482.0 430.0 L 482.0 448.0 L 500.0 448.0" fill="none" stroke="#7c3aed" stroke-width="2.0"/>
  <line x1="178.0" y1="456.0" x2="472.0" y2="456.0" stroke="#c4b5fd" stroke-width="1.2"/>
  <line x1="178.0" y1="470.0" x2="472.0" y2="470.0" stroke="#c4b5fd" stroke-width="1.2"/>
  <line x1="178.0" y1="484.0" x2="472.0" y2="484.0" stroke="#c4b5fd" stroke-width="1.2"/>
  <line x1="178.0" y1="498.0" x2="472.0" y2="498.0" stroke="#c4b5fd" stroke-width="1.2"/>
  <text x="330.0" y="540.0" text-anchor="middle" class="node-title">buildctl build</text>
  <text x="330.0" y="558.0" text-anchor="middle" class="node-sub">dockerfile frontend + image push</text>
  <path d="M 585.0 320.0 L 867.0 320.0 L 885.0 338.0 L 885.0 470.0 L 585.0 470.0 Z" fill="#ffffff" stroke="#94a3b8" stroke-width="2.0" filter="url(#shadowSoft)"/>
  <path d="M 867.0 320.0 L 867.0 338.0 L 885.0 338.0" fill="none" stroke="#94a3b8" stroke-width="2.0"/>
  <line x1="603.0" y1="346.0" x2="857.0" y2="346.0" stroke="#c4b5fd" stroke-width="1.2"/>
  <line x1="603.0" y1="360.0" x2="857.0" y2="360.0" stroke="#c4b5fd" stroke-width="1.2"/>
  <line x1="603.0" y1="374.0" x2="857.0" y2="374.0" stroke="#c4b5fd" stroke-width="1.2"/>
  <line x1="603.0" y1="388.0" x2="857.0" y2="388.0" stroke="#c4b5fd" stroke-width="1.2"/>
  <text x="735.0" y="496.0" text-anchor="middle" class="node-title">共享 hostPath</text>
  <text x="735.0" y="514.0" text-anchor="middle" class="node-sub">buildkit socket / cache /
containerd.sock / runtime data</text>
  <rect x="930.0" y="300.0" width="210.0" height="84.0" rx="10.0" fill="#eff6ff" stroke="#2563eb" stroke-width="2.0" filter="url(#shadowSoft)"/>
  <rect x="936.0" y="306.0" width="198.0" height="72.0" rx="7.0" fill="none" stroke="#2563eb" stroke-width="1.2" opacity="0.65"/>
  <text x="1035.0" y="318.0" text-anchor="middle" class="node-type">DaemonSet 进程</text>
  <text x="1035.0" y="348.0" text-anchor="middle" class="node-title">buildkitd</text>
  <text x="1035.0" y="370.0" text-anchor="middle" class="node-sub">一个节点一个 Pod</text>
  <path d="M 900.0 430.0 L 1162.0 430.0 L 1180.0 448.0 L 1180.0 520.0 L 900.0 520.0 Z" fill="#ffffff" stroke="#7c3aed" stroke-width="2.0" filter="url(#shadowSoft)"/>
  <path d="M 1162.0 430.0 L 1162.0 448.0 L 1180.0 448.0" fill="none" stroke="#7c3aed" stroke-width="2.0"/>
  <line x1="918.0" y1="456.0" x2="1152.0" y2="456.0" stroke="#c4b5fd" stroke-width="1.2"/>
  <line x1="918.0" y1="470.0" x2="1152.0" y2="470.0" stroke="#c4b5fd" stroke-width="1.2"/>
  <line x1="918.0" y1="484.0" x2="1152.0" y2="484.0" stroke="#c4b5fd" stroke-width="1.2"/>
  <line x1="918.0" y1="498.0" x2="1152.0" y2="498.0" stroke="#c4b5fd" stroke-width="1.2"/>
  <text x="1040.0" y="546.0" text-anchor="middle" class="node-title">buildkitd.toml</text>
  <text x="1040.0" y="564.0" text-anchor="middle" class="node-sub">containerd.sock
namespace: buildkit</text>
  <path d="M 160.0 638.0 L 181.6 638.0 L 191.32 620.0 L 214.0 620.0 L 450.0 620.0 L 450.0 702.0 L 160.0 702.0 Z" fill="#ffffff" stroke="#94a3b8" stroke-width="2.0" filter="url(#shadowSoft)"/>
  <line x1="182.0" y1="662.0" x2="428.0" y2="662.0" stroke="#94a3b8" stroke-opacity="0.35" stroke-width="1.2"/>
  <line x1="182.0" y1="676.0" x2="428.0" y2="676.0" stroke="#94a3b8" stroke-opacity="0.35" stroke-width="1.2"/>
  <line x1="182.0" y1="690.0" x2="428.0" y2="690.0" stroke="#94a3b8" stroke-opacity="0.35" stroke-width="1.2"/>
  <text x="305.0" y="728.0" text-anchor="middle" class="node-title">源码 / Dockerfile / Workspace</text>
  <text x="305.0" y="746.0" text-anchor="middle" class="node-sub">源码上下文</text>
  <rect x="560.0" y="640.0" width="300.0" height="86.0" rx="10.0" fill="#eff6ff" stroke="#2563eb" stroke-width="2.0" filter="url(#shadowSoft)"/>
  <rect x="566.0" y="646.0" width="288.0" height="74.0" rx="7.0" fill="none" stroke="#2563eb" stroke-width="1.2" opacity="0.65"/>
  <text x="710.0" y="658.0" text-anchor="middle" class="node-type">Node Runtime</text>
  <text x="710.0" y="689.0" text-anchor="middle" class="node-title">宿主机 containerd</text>
  <text x="710.0" y="711.0" text-anchor="middle" class="node-sub">真正执行拉镜像、缓存与推送</text>
  <path d="M 930.0 635.0 L 1092.0 635.0 L 1110.0 653.0 L 1110.0 745.0 L 930.0 745.0 Z" fill="#ffffff" stroke="#f97316" stroke-width="2.0" filter="url(#shadowSoft)"/>
  <path d="M 1092.0 635.0 L 1092.0 653.0 L 1110.0 653.0" fill="none" stroke="#f97316" stroke-width="2.0"/>
  <line x1="948.0" y1="661.0" x2="1082.0" y2="661.0" stroke="#c4b5fd" stroke-width="1.2"/>
  <line x1="948.0" y1="675.0" x2="1082.0" y2="675.0" stroke="#c4b5fd" stroke-width="1.2"/>
  <line x1="948.0" y1="689.0" x2="1082.0" y2="689.0" stroke="#c4b5fd" stroke-width="1.2"/>
  <line x1="948.0" y1="703.0" x2="1082.0" y2="703.0" stroke="#c4b5fd" stroke-width="1.2"/>
  <text x="1020.0" y="771.0" text-anchor="middle" class="node-title">hosts.toml</text>
  <text x="1020.0" y="789.0" text-anchor="middle" class="node-sub">mirror / auth / protocol</text>
  <ellipse cx="395.0" cy="781.5" rx="52.5" ry="11.5" fill="#f0fdf4" stroke="#16a34a" stroke-width="2.2"/>
  <rect x="290.0" y="781.5" width="210.0" height="69.0" fill="#f0fdf4" stroke="#16a34a" stroke-width="2.2"/>
  <ellipse cx="395.0" cy="850.5" rx="52.5" ry="11.5" fill="#f0fdf4" stroke="#16a34a" stroke-width="2.2"/>
  <ellipse cx="395.0" cy="804.96" rx="52.5" ry="11.5" fill="none" stroke="#16a34a" stroke-opacity="0.45" stroke-width="1.2"/>
  <ellipse cx="395.0" cy="825.2" rx="52.5" ry="11.5" fill="none" stroke="#16a34a" stroke-opacity="0.25" stroke-width="1.2"/>
  <text x="395.0" y="810.0" text-anchor="middle" class="node-title">BuildKit Cache</text>
  <text x="395.0" y="834.0" text-anchor="middle" class="node-sub">/var/lib/container/buildkit</text>
  <rect x="600.0" y="780.0" width="240.0" height="68.0" rx="10.0" fill="#ffffff" stroke="#94a3b8" stroke-width="1.8"/>
  <text x="720.0" y="798.0" text-anchor="middle" class="node-type">/run/containerd</text>
  <text x="720.0" y="820.0" text-anchor="middle" class="node-title">containerd.sock</text>
  <ellipse cx="1520.0" cy="345.0" rx="65.0" ry="15.0" fill="#f0fdf4" stroke="#16a34a" stroke-width="2.2"/>
  <rect x="1390.0" y="345.0" width="260.0" height="90.0" fill="#f0fdf4" stroke="#16a34a" stroke-width="2.2"/>
  <ellipse cx="1520.0" cy="435.0" rx="65.0" ry="15.0" fill="#f0fdf4" stroke="#16a34a" stroke-width="2.2"/>
  <ellipse cx="1520.0" cy="375.6" rx="65.0" ry="15.0" fill="none" stroke="#16a34a" stroke-opacity="0.45" stroke-width="1.2"/>
  <ellipse cx="1520.0" cy="402.0" rx="65.0" ry="15.0" fill="none" stroke="#16a34a" stroke-opacity="0.25" stroke-width="1.2"/>
  <text x="1520.0" y="384.0" text-anchor="middle" class="node-title">Harbor Registry</text>
  <text x="1520.0" y="408.0" text-anchor="middle" class="node-sub">prod / test registry</text>
  <rect x="1340.0" y="610.0" width="360.0" height="116.0" rx="10.0" fill="#faf5ff" stroke="#7c3aed" stroke-width="1.8"/>
  <text x="1520.0" y="628.0" text-anchor="middle" class="node-type">关系说明</text>
  <text x="1520.0" y="674.0" text-anchor="middle" class="node-title">链路说明</text>
  <text x="1520.0" y="696.0" text-anchor="middle" class="node-sub">Task Pod 只带源码与 buildctl。
真正构建和推镜像的是 buildkitd + containerd。</text>
  <rect x="855.0" y="354.5" width="105" height="20" rx="6" fill="#ffffff" opacity="0.94"/>
  <text x="907.5" y="368.5" text-anchor="middle" class="arrow-label">/run/buildkit</text>
  <rect x="842.5" y="672.5" width="105" height="20" rx="6" fill="#ffffff" opacity="0.94"/>
  <text x="895.0" y="686.5" text-anchor="middle" class="arrow-label">mirror / auth</text>
  <rect x="1195.5" y="522.5" width="133" height="20" rx="6" fill="#ffffff" opacity="0.94"/>
  <text x="1262.0" y="536.5" text-anchor="middle" class="arrow-label">HTTPS pull / push</text>
  <rect x="32.0" y="981.0" width="303" height="134" rx="10" fill="#ffffff" opacity="0.88"/>
  <line x1="42.0" y1="995.0" x2="72.0" y2="995.0" stroke="#7c3aed" stroke-width="2.4" marker-end="url(#arrowA)"/>
  <text x="82.0" y="999.0" class="legend">控制流：buildctl 发起构建请求</text>
  <line x1="42.0" y1="1017.0" x2="72.0" y2="1017.0" stroke="#2563eb" stroke-width="2.4" marker-end="url(#arrowC)"/>
  <text x="82.0" y="1021.0" class="legend">读路径：源码、配置、hostPath 挂载</text>
  <line x1="42.0" y1="1039.0" x2="72.0" y2="1039.0" stroke="#10b981" stroke-width="2.4" marker-end="url(#arrowB)"/>
  <text x="82.0" y="1043.0" class="legend">执行路径：buildkitd 通过 containerd 完成构建</text>
  <line x1="42.0" y1="1061.0" x2="72.0" y2="1061.0" stroke="#f97316" stroke-width="2.4" marker-end="url(#arrowE)"/>
  <text x="82.0" y="1065.0" class="legend">数据流：拉基础镜像、推目标镜像</text>
  <line x1="42.0" y1="1083.0" x2="72.0" y2="1083.0" stroke="#ef4444" stroke-width="2.4" marker-end="url(#arrowG)"/>
  <text x="82.0" y="1087.0" class="legend">结果/状态说明：socket、链路说明</text>
</svg>