<svg xmlns="http://www.w3.org/2000/svg" viewBox="0 0 1265 1280" font-family="-apple-system, PingFang SC, Microsoft YaHei, Helvetica, Arial, sans-serif">
<rect x="0" y="0" width="1265" height="1280" fill="#ffffff"/>
<path d="M 380.8,630.0 C 415.8,630.0 415.8,90.0 450.8,90.0" fill="none" stroke="#7c3aed" stroke-width="2.4" stroke-linecap="round"/>
<path d="M 540.2,90.0 C 623.3,90.0 623.3,50.0 706.4,50.0" fill="none" stroke="#7c3aed" stroke-width="2.4" stroke-linecap="round"/>
<path d="M 831.1,50.0 C 918.5,50.0 918.5,50.0 1005.8,50.0" fill="none" stroke="#7c3aed" stroke-width="2.4" stroke-linecap="round"/>
<path d="M 540.2,90.0 C 623.3,90.0 623.3,90.0 706.4,90.0" fill="none" stroke="#7c3aed" stroke-width="2.4" stroke-linecap="round"/>
<path d="M 795.7,90.0 C 900.8,90.0 900.8,90.0 1005.8,90.0" fill="none" stroke="#7c3aed" stroke-width="2.4" stroke-linecap="round"/>
<path d="M 540.2,90.0 C 623.3,90.0 623.3,130.0 706.4,130.0" fill="none" stroke="#7c3aed" stroke-width="2.4" stroke-linecap="round"/>
<path d="M 795.7,130.0 C 900.8,130.0 900.8,130.0 1005.8,130.0" fill="none" stroke="#7c3aed" stroke-width="2.4" stroke-linecap="round"/>
<path d="M 380.8,630.0 C 415.8,630.0 415.8,230.0 450.8,230.0" fill="none" stroke="#2563eb" stroke-width="2.4" stroke-linecap="round"/>
<path d="M 574.8,230.0 C 640.6,230.0 640.6,170.0 706.4,170.0" fill="none" stroke="#2563eb" stroke-width="2.4" stroke-linecap="round"/>
<path d="M 813.1,170.0 C 909.5,170.0 909.5,170.0 1005.8,170.0" fill="none" stroke="#2563eb" stroke-width="2.4" stroke-linecap="round"/>
<path d="M 574.8,230.0 C 640.6,230.0 640.6,210.0 706.4,210.0" fill="none" stroke="#2563eb" stroke-width="2.4" stroke-linecap="round"/>
<path d="M 833.8,210.0 C 919.8,210.0 919.8,210.0 1005.8,210.0" fill="none" stroke="#2563eb" stroke-width="2.4" stroke-linecap="round"/>
<path d="M 574.8,230.0 C 640.6,230.0 640.6,250.0 706.4,250.0" fill="none" stroke="#2563eb" stroke-width="2.4" stroke-linecap="round"/>
<path d="M 813.1,250.0 C 909.5,250.0 909.5,250.0 1005.8,250.0" fill="none" stroke="#2563eb" stroke-width="2.4" stroke-linecap="round"/>
<path d="M 574.8,230.0 C 640.6,230.0 640.6,290.0 706.4,290.0" fill="none" stroke="#2563eb" stroke-width="2.4" stroke-linecap="round"/>
<path d="M 799.1,290.0 C 902.5,290.0 902.5,290.0 1005.8,290.0" fill="none" stroke="#2563eb" stroke-width="2.4" stroke-linecap="round"/>
<path d="M 380.8,630.0 C 415.8,630.0 415.8,430.0 450.8,430.0" fill="none" stroke="#0891b2" stroke-width="2.4" stroke-linecap="round"/>
<path d="M 540.2,430.0 C 623.3,430.0 623.3,330.0 706.4,330.0" fill="none" stroke="#0891b2" stroke-width="2.4" stroke-linecap="round"/>
<path d="M 540.2,430.0 C 623.3,430.0 623.3,370.0 706.4,370.0" fill="none" stroke="#0891b2" stroke-width="2.4" stroke-linecap="round"/>
<path d="M 540.2,430.0 C 623.3,430.0 623.3,410.0 706.4,410.0" fill="none" stroke="#0891b2" stroke-width="2.4" stroke-linecap="round"/>
<path d="M 540.2,430.0 C 623.3,430.0 623.3,450.0 706.4,450.0" fill="none" stroke="#0891b2" stroke-width="2.4" stroke-linecap="round"/>
<path d="M 540.2,430.0 C 623.3,430.0 623.3,490.0 706.4,490.0" fill="none" stroke="#0891b2" stroke-width="2.4" stroke-linecap="round"/>
<path d="M 540.2,430.0 C 623.3,430.0 623.3,530.0 706.4,530.0" fill="none" stroke="#0891b2" stroke-width="2.4" stroke-linecap="round"/>
<path d="M 380.8,630.0 C 415.8,630.0 415.8,650.0 450.8,650.0" fill="none" stroke="#dc2626" stroke-width="2.4" stroke-linecap="round"/>
<path d="M 636.4,650.0 C 671.4,650.0 671.4,570.0 706.4,570.0" fill="none" stroke="#dc2626" stroke-width="2.4" stroke-linecap="round"/>
<path d="M 778.4,570.0 C 892.1,570.0 892.1,570.0 1005.8,570.0" fill="none" stroke="#dc2626" stroke-width="2.4" stroke-linecap="round"/>
<path d="M 636.4,650.0 C 671.4,650.0 671.4,610.0 706.4,610.0" fill="none" stroke="#dc2626" stroke-width="2.4" stroke-linecap="round"/>
<path d="M 778.4,610.0 C 892.1,610.0 892.1,610.0 1005.8,610.0" fill="none" stroke="#dc2626" stroke-width="2.4" stroke-linecap="round"/>
<path d="M 636.4,650.0 C 671.4,650.0 671.4,650.0 706.4,650.0" fill="none" stroke="#dc2626" stroke-width="2.4" stroke-linecap="round"/>
<path d="M 778.4,650.0 C 892.1,650.0 892.1,650.0 1005.8,650.0" fill="none" stroke="#dc2626" stroke-width="2.4" stroke-linecap="round"/>
<path d="M 636.4,650.0 C 671.4,650.0 671.4,690.0 706.4,690.0" fill="none" stroke="#dc2626" stroke-width="2.4" stroke-linecap="round"/>
<path d="M 778.4,690.0 C 892.1,690.0 892.1,690.0 1005.8,690.0" fill="none" stroke="#dc2626" stroke-width="2.4" stroke-linecap="round"/>
<path d="M 636.4,650.0 C 671.4,650.0 671.4,730.0 706.4,730.0" fill="none" stroke="#dc2626" stroke-width="2.4" stroke-linecap="round"/>
<path d="M 778.4,730.0 C 892.1,730.0 892.1,730.0 1005.8,730.0" fill="none" stroke="#dc2626" stroke-width="2.4" stroke-linecap="round"/>
<path d="M 380.8,630.0 C 415.8,630.0 415.8,850.0 450.8,850.0" fill="none" stroke="#ea580c" stroke-width="2.4" stroke-linecap="round"/>
<path d="M 557.5,850.0 C 631.9,850.0 631.9,770.0 706.4,770.0" fill="none" stroke="#ea580c" stroke-width="2.4" stroke-linecap="round"/>
<path d="M 557.5,850.0 C 631.9,850.0 631.9,810.0 706.4,810.0" fill="none" stroke="#ea580c" stroke-width="2.4" stroke-linecap="round"/>
<path d="M 557.5,850.0 C 631.9,850.0 631.9,850.0 706.4,850.0" fill="none" stroke="#ea580c" stroke-width="2.4" stroke-linecap="round"/>
<path d="M 557.5,850.0 C 631.9,850.0 631.9,890.0 706.4,890.0" fill="none" stroke="#ea580c" stroke-width="2.4" stroke-linecap="round"/>
<path d="M 557.5,850.0 C 631.9,850.0 631.9,930.0 706.4,930.0" fill="none" stroke="#ea580c" stroke-width="2.4" stroke-linecap="round"/>
<path d="M 380.8,630.0 C 415.8,630.0 415.8,1030.0 450.8,1030.0" fill="none" stroke="#059669" stroke-width="2.4" stroke-linecap="round"/>
<path d="M 540.2,1030.0 C 623.3,1030.0 623.3,970.0 706.4,970.0" fill="none" stroke="#059669" stroke-width="2.4" stroke-linecap="round"/>
<path d="M 540.2,1030.0 C 623.3,1030.0 623.3,1010.0 706.4,1010.0" fill="none" stroke="#059669" stroke-width="2.4" stroke-linecap="round"/>
<path d="M 540.2,1030.0 C 623.3,1030.0 623.3,1050.0 706.4,1050.0" fill="none" stroke="#059669" stroke-width="2.4" stroke-linecap="round"/>
<path d="M 540.2,1030.0 C 623.3,1030.0 623.3,1090.0 706.4,1090.0" fill="none" stroke="#059669" stroke-width="2.4" stroke-linecap="round"/>
<path d="M 380.8,630.0 C 415.8,630.0 415.8,1170.0 450.8,1170.0" fill="none" stroke="#d97706" stroke-width="2.4" stroke-linecap="round"/>
<path d="M 540.2,1170.0 C 623.3,1170.0 623.3,1130.0 706.4,1130.0" fill="none" stroke="#d97706" stroke-width="2.4" stroke-linecap="round"/>
<path d="M 540.2,1170.0 C 623.3,1170.0 623.3,1170.0 706.4,1170.0" fill="none" stroke="#d97706" stroke-width="2.4" stroke-linecap="round"/>
<path d="M 540.2,1170.0 C 623.3,1170.0 623.3,1210.0 706.4,1210.0" fill="none" stroke="#d97706" stroke-width="2.4" stroke-linecap="round"/>
<rect x="40" y="605.0" width="340.8" height="50" rx="11" fill="#1e293b"/>
<text x="210.4" y="637.0" text-anchor="middle" fill="#ffffff" font-size="20" font-weight="700">容量管理（推理稳定性·纯理论）</text>
<line x1="450.8" y1="90.0" x2="540.2" y2="90.0" stroke="#7c3aed" stroke-width="2.4" stroke-linecap="round"/>
<text x="460.8" y="82.0" fill="#7c3aed" font-size="17" font-weight="700">经验边界</text>
<line x1="706.4" y1="50.0" x2="831.1" y2="50.0" stroke="#7c3aed" stroke-width="2.4" stroke-linecap="round"/>
<text x="716.4" y="42.0" fill="#7c3aed" font-size="17" font-weight="600">theory_only</text>
<line x1="1005.8" y1="50.0" x2="1112.5" y2="50.0" stroke="#7c3aed" stroke-width="2.4" stroke-linecap="round"/>
<text x="1015.8" y="42.0" fill="#1f2937" font-size="17" font-weight="400">无落地经验</text>
<line x1="706.4" y1="90.0" x2="795.7" y2="90.0" stroke="#7c3aed" stroke-width="2.4" stroke-linecap="round"/>
<text x="716.4" y="82.0" fill="#7c3aed" font-size="17" font-weight="600">相邻认知</text>
<line x1="1005.8" y1="90.0" x2="1164.5" y2="90.0" stroke="#7c3aed" stroke-width="2.4" stroke-linecap="round"/>
<text x="1015.8" y="82.0" fill="#1f2937" font-size="17" font-weight="400">推理观测指标口径</text>
<line x1="706.4" y1="130.0" x2="795.7" y2="130.0" stroke="#7c3aed" stroke-width="2.4" stroke-linecap="round"/>
<text x="716.4" y="122.0" fill="#7c3aed" font-size="17" font-weight="600">面试声明</text>
<line x1="1005.8" y1="130.0" x2="1166.2" y2="130.0" stroke="#7c3aed" stroke-width="2.4" stroke-linecap="round"/>
<text x="1015.8" y="122.0" fill="#1f2937" font-size="17" font-weight="400">讲原理/设计/排障</text>
<line x1="450.8" y1="230.0" x2="574.8" y2="230.0" stroke="#2563eb" stroke-width="2.4" stroke-linecap="round"/>
<text x="460.8" y="222.0" fill="#2563eb" font-size="17" font-weight="700">解决什么问题</text>
<line x1="706.4" y1="170.0" x2="813.1" y2="170.0" stroke="#2563eb" stroke-width="2.4" stroke-linecap="round"/>
<text x="716.4" y="162.0" fill="#2563eb" font-size="17" font-weight="600">还能扛多少</text>
<line x1="1005.8" y1="170.0" x2="1148.9" y2="170.0" stroke="#2563eb" stroke-width="2.4" stroke-linecap="round"/>
<text x="1015.8" y="162.0" fill="#1f2937" font-size="17" font-weight="400">基线+水位+余量</text>
<line x1="706.4" y1="210.0" x2="833.8" y2="210.0" stroke="#2563eb" stroke-width="2.4" stroke-linecap="round"/>
<text x="716.4" y="202.0" fill="#2563eb" font-size="17" font-weight="600">浪费 or 打爆</text>
<line x1="1005.8" y1="210.0" x2="1112.5" y2="210.0" stroke="#2563eb" stroke-width="2.4" stroke-linecap="round"/>
<text x="1015.8" y="202.0" fill="#1f2937" font-size="17" font-weight="400">水位线决策</text>
<line x1="706.4" y1="250.0" x2="813.1" y2="250.0" stroke="#2563eb" stroke-width="2.4" stroke-linecap="round"/>
<text x="716.4" y="242.0" fill="#2563eb" font-size="17" font-weight="600">扩容拍脑袋</text>
<line x1="1005.8" y1="250.0" x2="1104.7" y2="250.0" stroke="#2563eb" stroke-width="2.4" stroke-linecap="round"/>
<text x="1015.8" y="242.0" fill="#1f2937" font-size="17" font-weight="400">评估+预测</text>
<line x1="706.4" y1="290.0" x2="799.1" y2="290.0" stroke="#2563eb" stroke-width="2.4" stroke-linecap="round"/>
<text x="716.4" y="282.0" fill="#2563eb" font-size="17" font-weight="600">推理≠QPS</text>
<line x1="1005.8" y1="290.0" x2="1139.4" y2="290.0" stroke="#2563eb" stroke-width="2.4" stroke-linecap="round"/>
<text x="1015.8" y="282.0" fill="#1f2937" font-size="17" font-weight="400">显存/排队延迟</text>
<line x1="450.8" y1="430.0" x2="540.2" y2="430.0" stroke="#0891b2" stroke-width="2.4" stroke-linecap="round"/>
<text x="460.8" y="422.0" fill="#0891b2" font-size="17" font-weight="700">核心概念</text>
<line x1="706.4" y1="330.0" x2="795.7" y2="330.0" stroke="#0891b2" stroke-width="2.4" stroke-linecap="round"/>
<text x="716.4" y="322.0" fill="#0891b2" font-size="17" font-weight="600">容量基线</text>
<line x1="706.4" y1="370.0" x2="851.2" y2="370.0" stroke="#0891b2" stroke-width="2.4" stroke-linecap="round"/>
<text x="716.4" y="362.0" fill="#0891b2" font-size="17" font-weight="600">利用率 vs 水位</text>
<line x1="706.4" y1="410.0" x2="882.4" y2="410.0" stroke="#0891b2" stroke-width="2.4" stroke-linecap="round"/>
<text x="716.4" y="402.0" fill="#0891b2" font-size="17" font-weight="600">单实例上限（压测）</text>
<line x1="706.4" y1="450.0" x2="846.7" y2="450.0" stroke="#0891b2" stroke-width="2.4" stroke-linecap="round"/>
<text x="716.4" y="442.0" fill="#0891b2" font-size="17" font-weight="600">headroom 余量</text>
<line x1="706.4" y1="490.0" x2="893.7" y2="490.0" stroke="#0891b2" stroke-width="2.4" stroke-linecap="round"/>
<text x="716.4" y="482.0" fill="#0891b2" font-size="17" font-weight="600">评估/规划/管理 辨析</text>
<line x1="706.4" y1="530.0" x2="849.5" y2="530.0" stroke="#0891b2" stroke-width="2.4" stroke-linecap="round"/>
<text x="716.4" y="522.0" fill="#0891b2" font-size="17" font-weight="600">配额·弹性·预测</text>
<line x1="450.8" y1="650.0" x2="636.4" y2="650.0" stroke="#dc2626" stroke-width="2.4" stroke-linecap="round"/>
<text x="460.8" y="642.0" fill="#dc2626" font-size="17" font-weight="700">如果让我设计（5层）</text>
<line x1="706.4" y1="570.0" x2="778.4" y2="570.0" stroke="#dc2626" stroke-width="2.4" stroke-linecap="round"/>
<text x="716.4" y="562.0" fill="#dc2626" font-size="17" font-weight="600">采集层</text>
<line x1="1005.8" y1="570.0" x2="1215.5" y2="570.0" stroke="#dc2626" stroke-width="2.4" stroke-linecap="round"/>
<text x="1015.8" y="562.0" fill="#1f2937" font-size="17" font-weight="400">golden+推理+资源+基线</text>
<line x1="706.4" y1="610.0" x2="778.4" y2="610.0" stroke="#dc2626" stroke-width="2.4" stroke-linecap="round"/>
<text x="716.4" y="602.0" fill="#dc2626" font-size="17" font-weight="600">建模层</text>
<line x1="1005.8" y1="610.0" x2="1148.9" y2="610.0" stroke="#dc2626" stroke-width="2.4" stroke-linecap="round"/>
<text x="1015.8" y="602.0" fill="#1f2937" font-size="17" font-weight="400">基线/上限/水位</text>
<line x1="706.4" y1="650.0" x2="778.4" y2="650.0" stroke="#dc2626" stroke-width="2.4" stroke-linecap="round"/>
<text x="716.4" y="642.0" fill="#dc2626" font-size="17" font-weight="600">决策层</text>
<line x1="1005.8" y1="650.0" x2="1183.6" y2="650.0" stroke="#dc2626" stroke-width="2.4" stroke-linecap="round"/>
<text x="1015.8" y="642.0" fill="#1f2937" font-size="17" font-weight="400">评估/预测/弹性阈值</text>
<line x1="706.4" y1="690.0" x2="778.4" y2="690.0" stroke="#dc2626" stroke-width="2.4" stroke-linecap="round"/>
<text x="716.4" y="682.0" fill="#dc2626" font-size="17" font-weight="600">执行层</text>
<line x1="1005.8" y1="690.0" x2="1166.2" y2="690.0" stroke="#dc2626" stroke-width="2.4" stroke-linecap="round"/>
<text x="1015.8" y="682.0" fill="#1f2937" font-size="17" font-weight="400">扩缩容/配额/采购</text>
<line x1="706.4" y1="730.0" x2="778.4" y2="730.0" stroke="#dc2626" stroke-width="2.4" stroke-linecap="round"/>
<text x="716.4" y="722.0" fill="#dc2626" font-size="17" font-weight="600">反馈层</text>
<line x1="1005.8" y1="730.0" x2="1183.6" y2="730.0" stroke="#dc2626" stroke-width="2.4" stroke-linecap="round"/>
<text x="1015.8" y="722.0" fill="#1f2937" font-size="17" font-weight="400">大盘/触顶预测/复盘</text>
<line x1="450.8" y1="850.0" x2="557.5" y2="850.0" stroke="#ea580c" stroke-width="2.4" stroke-linecap="round"/>
<text x="460.8" y="842.0" fill="#ea580c" font-size="17" font-weight="700">推理特殊性</text>
<line x1="706.4" y1="770.0" x2="898.8" y2="770.0" stroke="#ea580c" stroke-width="2.4" stroke-linecap="round"/>
<text x="716.4" y="762.0" fill="#ea580c" font-size="17" font-weight="600">显存 KVCache 先到顶</text>
<line x1="706.4" y1="810.0" x2="935.8" y2="810.0" stroke="#ea580c" stroke-width="2.4" stroke-linecap="round"/>
<text x="716.4" y="802.0" fill="#ea580c" font-size="17" font-weight="600">TTFT/TPS/queue latency</text>
<line x1="706.4" y1="850.0" x2="897.1" y2="850.0" stroke="#ea580c" stroke-width="2.4" stroke-linecap="round"/>
<text x="716.4" y="842.0" fill="#ea580c" font-size="17" font-weight="600">batch/序列/并发耦合</text>
<line x1="706.4" y1="890.0" x2="859.0" y2="890.0" stroke="#ea580c" stroke-width="2.4" stroke-linecap="round"/>
<text x="716.4" y="882.0" fill="#ea580c" font-size="17" font-weight="600">PD 分离分别评估</text>
<line x1="706.4" y1="930.0" x2="795.7" y2="930.0" stroke="#ea580c" stroke-width="2.4" stroke-linecap="round"/>
<text x="716.4" y="922.0" fill="#ea580c" font-size="17" font-weight="600">冷启动慢</text>
<line x1="450.8" y1="1030.0" x2="540.2" y2="1030.0" stroke="#059669" stroke-width="2.4" stroke-linecap="round"/>
<text x="460.8" y="1022.0" fill="#059669" font-size="17" font-weight="700">故障排查</text>
<line x1="706.4" y1="970.0" x2="843.3" y2="970.0" stroke="#059669" stroke-width="2.4" stroke-linecap="round"/>
<text x="716.4" y="962.0" fill="#059669" font-size="17" font-weight="600">先看 SLO 表现</text>
<line x1="706.4" y1="1010.0" x2="847.8" y2="1010.0" stroke="#059669" stroke-width="2.4" stroke-linecap="round"/>
<text x="716.4" y="1002.0" fill="#059669" font-size="17" font-weight="600">水位哪维先到顶</text>
<line x1="706.4" y1="1050.0" x2="885.8" y2="1050.0" stroke="#059669" stroke-width="2.4" stroke-linecap="round"/>
<text x="716.4" y="1042.0" fill="#059669" font-size="17" font-weight="600">真不够 vs 扩不起来</text>
<line x1="706.4" y1="1090.0" x2="822.6" y2="1090.0" stroke="#059669" stroke-width="2.4" stroke-linecap="round"/>
<text x="716.4" y="1082.0" fill="#059669" font-size="17" font-weight="600">倾斜/故障域</text>
<line x1="450.8" y1="1170.0" x2="540.2" y2="1170.0" stroke="#d97706" stroke-width="2.4" stroke-linecap="round"/>
<text x="460.8" y="1162.0" fill="#d97706" font-size="17" font-weight="700">面试要点</text>
<line x1="706.4" y1="1130.0" x2="839.9" y2="1130.0" stroke="#d97706" stroke-width="2.4" stroke-linecap="round"/>
<text x="716.4" y="1122.0" fill="#d97706" font-size="17" font-weight="600">主答+简短回答</text>
<line x1="706.4" y1="1170.0" x2="813.1" y2="1170.0" stroke="#d97706" stroke-width="2.4" stroke-linecap="round"/>
<text x="716.4" y="1162.0" fill="#d97706" font-size="17" font-weight="600">不能怎么说</text>
<line x1="706.4" y1="1210.0" x2="789.6" y2="1210.0" stroke="#d97706" stroke-width="2.4" stroke-linecap="round"/>
<text x="716.4" y="1202.0" fill="#d97706" font-size="17" font-weight="600">高频 QA</text>
</svg>