<svg xmlns="http://www.w3.org/2000/svg" viewBox="0 0 768 1338" width="768" height="1338">
<style>
text { font-family: -apple-system, BlinkMacSystemFont, 'PingFang SC', 'Microsoft YaHei', Helvetica, Arial, sans-serif; }
</style>
<rect x="0" y="0" width="768" height="1338" fill="#ffffff"/>
<path d="M 257.2,650.0 C 296.2,650.0 293.2,98.0 332.2,98.0" fill="none" stroke="#7c3aed" stroke-width="2.4" stroke-linecap="round"/>
<path d="M 429.7,98.0 C 468.7,98.0 465.7,50.0 504.7,50.0" fill="none" stroke="#7c3aed" stroke-width="2.4" stroke-linecap="round"/>
<path d="M 429.7,98.0 C 468.7,98.0 465.7,98.0 504.7,98.0" fill="none" stroke="#7c3aed" stroke-width="2.4" stroke-linecap="round"/>
<path d="M 429.7,98.0 C 468.7,98.0 465.7,146.0 504.7,146.0" fill="none" stroke="#7c3aed" stroke-width="2.4" stroke-linecap="round"/>
<path d="M 257.2,650.0 C 296.2,650.0 293.2,266.0 332.2,266.0" fill="none" stroke="#2563eb" stroke-width="2.4" stroke-linecap="round"/>
<path d="M 429.7,266.0 C 468.7,266.0 465.7,194.0 504.7,194.0" fill="none" stroke="#2563eb" stroke-width="2.4" stroke-linecap="round"/>
<path d="M 429.7,266.0 C 468.7,266.0 465.7,242.0 504.7,242.0" fill="none" stroke="#2563eb" stroke-width="2.4" stroke-linecap="round"/>
<path d="M 429.7,266.0 C 468.7,266.0 465.7,290.0 504.7,290.0" fill="none" stroke="#2563eb" stroke-width="2.4" stroke-linecap="round"/>
<path d="M 429.7,266.0 C 468.7,266.0 465.7,338.0 504.7,338.0" fill="none" stroke="#2563eb" stroke-width="2.4" stroke-linecap="round"/>
<path d="M 257.2,650.0 C 296.2,650.0 293.2,458.0 332.2,458.0" fill="none" stroke="#0891b2" stroke-width="2.4" stroke-linecap="round"/>
<path d="M 422.9,458.0 C 465.4,458.0 462.2,386.0 504.7,386.0" fill="none" stroke="#0891b2" stroke-width="2.4" stroke-linecap="round"/>
<path d="M 422.9,458.0 C 465.4,458.0 462.2,434.0 504.7,434.0" fill="none" stroke="#0891b2" stroke-width="2.4" stroke-linecap="round"/>
<path d="M 422.9,458.0 C 465.4,458.0 462.2,482.0 504.7,482.0" fill="none" stroke="#0891b2" stroke-width="2.4" stroke-linecap="round"/>
<path d="M 422.9,458.0 C 465.4,458.0 462.2,530.0 504.7,530.0" fill="none" stroke="#0891b2" stroke-width="2.4" stroke-linecap="round"/>
<path d="M 257.2,650.0 C 296.2,650.0 293.2,650.0 332.2,650.0" fill="none" stroke="#dc2626" stroke-width="2.4" stroke-linecap="round"/>
<path d="M 429.7,650.0 C 468.7,650.0 465.7,578.0 504.7,578.0" fill="none" stroke="#dc2626" stroke-width="2.4" stroke-linecap="round"/>
<path d="M 429.7,650.0 C 468.7,650.0 465.7,626.0 504.7,626.0" fill="none" stroke="#dc2626" stroke-width="2.4" stroke-linecap="round"/>
<path d="M 429.7,650.0 C 468.7,650.0 465.7,674.0 504.7,674.0" fill="none" stroke="#dc2626" stroke-width="2.4" stroke-linecap="round"/>
<path d="M 429.7,650.0 C 468.7,650.0 465.7,722.0 504.7,722.0" fill="none" stroke="#dc2626" stroke-width="2.4" stroke-linecap="round"/>
<path d="M 257.2,650.0 C 296.2,650.0 293.2,842.0 332.2,842.0" fill="none" stroke="#ea580c" stroke-width="2.4" stroke-linecap="round"/>
<path d="M 429.7,842.0 C 468.7,842.0 465.7,770.0 504.7,770.0" fill="none" stroke="#ea580c" stroke-width="2.4" stroke-linecap="round"/>
<path d="M 429.7,842.0 C 468.7,842.0 465.7,818.0 504.7,818.0" fill="none" stroke="#ea580c" stroke-width="2.4" stroke-linecap="round"/>
<path d="M 429.7,842.0 C 468.7,842.0 465.7,866.0 504.7,866.0" fill="none" stroke="#ea580c" stroke-width="2.4" stroke-linecap="round"/>
<path d="M 429.7,842.0 C 468.7,842.0 465.7,914.0 504.7,914.0" fill="none" stroke="#ea580c" stroke-width="2.4" stroke-linecap="round"/>
<path d="M 257.2,650.0 C 296.2,650.0 293.2,1034.0 332.2,1034.0" fill="none" stroke="#059669" stroke-width="2.4" stroke-linecap="round"/>
<path d="M 429.7,1034.0 C 468.7,1034.0 465.7,962.0 504.7,962.0" fill="none" stroke="#059669" stroke-width="2.4" stroke-linecap="round"/>
<path d="M 429.7,1034.0 C 468.7,1034.0 465.7,1010.0 504.7,1010.0" fill="none" stroke="#059669" stroke-width="2.4" stroke-linecap="round"/>
<path d="M 429.7,1034.0 C 468.7,1034.0 465.7,1058.0 504.7,1058.0" fill="none" stroke="#059669" stroke-width="2.4" stroke-linecap="round"/>
<path d="M 429.7,1034.0 C 468.7,1034.0 465.7,1106.0 504.7,1106.0" fill="none" stroke="#059669" stroke-width="2.4" stroke-linecap="round"/>
<path d="M 257.2,650.0 C 296.2,650.0 293.2,1202.0 332.2,1202.0" fill="none" stroke="#d97706" stroke-width="2.4" stroke-linecap="round"/>
<path d="M 429.7,1202.0 C 468.7,1202.0 465.7,1154.0 504.7,1154.0" fill="none" stroke="#d97706" stroke-width="2.4" stroke-linecap="round"/>
<path d="M 429.7,1202.0 C 468.7,1202.0 465.7,1202.0 504.7,1202.0" fill="none" stroke="#d97706" stroke-width="2.4" stroke-linecap="round"/>
<path d="M 429.7,1202.0 C 468.7,1202.0 465.7,1250.0 504.7,1250.0" fill="none" stroke="#d97706" stroke-width="2.4" stroke-linecap="round"/>
<rect x="40" y="625.0" width="217.2" height="50" rx="11" fill="#1e293b"/>
<text x="148.6" y="657.0" text-anchor="middle" fill="#ffffff" font-size="20" font-weight="700">PyTorchJob稳定性</text>
<line x1="332.2" y1="98.0" x2="429.7" y2="98.0" stroke="#7c3aed" stroke-width="2.4" stroke-linecap="round"/>
<text x="342.2" y="90.0" fill="#7c3aed" font-size="19" font-weight="700">定位边界</text>
<line x1="504.7" y1="50.0" x2="698.0" y2="50.0" stroke="#7c3aed" stroke-width="2.4" stroke-linecap="round"/>
<text x="514.7" y="42.0" fill="#1f2937" font-size="19" font-weight="400">SAI/TFJob真实经验</text>
<line x1="504.7" y1="98.0" x2="708.6" y2="98.0" stroke="#7c3aed" stroke-width="2.4" stroke-linecap="round"/>
<text x="514.7" y="90.0" fill="#1f2937" font-size="19" font-weight="400">PyTorchJob相邻承接</text>
<line x1="504.7" y1="146.0" x2="664.2" y2="146.0" stroke="#7c3aed" stroke-width="2.4" stroke-linecap="round"/>
<text x="514.7" y="138.0" fill="#1f2937" font-size="19" font-weight="400">不夸大NCCL内核</text>
<line x1="332.2" y1="266.0" x2="429.7" y2="266.0" stroke="#2563eb" stroke-width="2.4" stroke-linecap="round"/>
<text x="342.2" y="258.0" fill="#2563eb" font-size="19" font-weight="700">资源模型</text>
<line x1="504.7" y1="194.0" x2="663.0" y2="194.0" stroke="#2563eb" stroke-width="2.4" stroke-linecap="round"/>
<text x="514.7" y="186.0" fill="#1f2937" font-size="19" font-weight="400">api-resources</text>
<line x1="504.7" y1="242.0" x2="620.5" y2="242.0" stroke="#2563eb" stroke-width="2.4" stroke-linecap="round"/>
<text x="514.7" y="234.0" fill="#1f2937" font-size="19" font-weight="400">runPolicy</text>
<line x1="504.7" y1="290.0" x2="652.4" y2="290.0" stroke="#2563eb" stroke-width="2.4" stroke-linecap="round"/>
<text x="514.7" y="282.0" fill="#1f2937" font-size="19" font-weight="400">replicaSpecs</text>
<line x1="504.7" y1="338.0" x2="663.0" y2="338.0" stroke="#2563eb" stroke-width="2.4" stroke-linecap="round"/>
<text x="514.7" y="330.0" fill="#1f2937" font-size="19" font-weight="400">elasticPolicy</text>
<line x1="332.2" y1="458.0" x2="422.9" y2="458.0" stroke="#0891b2" stroke-width="2.4" stroke-linecap="round"/>
<text x="342.2" y="450.0" fill="#0891b2" font-size="19" font-weight="700">GPU调度</text>
<line x1="504.7" y1="386.0" x2="609.8" y2="386.0" stroke="#0891b2" stroke-width="2.4" stroke-linecap="round"/>
<text x="514.7" y="378.0" fill="#1f2937" font-size="19" font-weight="400">NodePool</text>
<line x1="504.7" y1="434.0" x2="631.1" y2="434.0" stroke="#0891b2" stroke-width="2.4" stroke-linecap="round"/>
<text x="514.7" y="426.0" fill="#1f2937" font-size="19" font-weight="400">Queue/Gang</text>
<line x1="504.7" y1="482.0" x2="638.0" y2="482.0" stroke="#0891b2" stroke-width="2.4" stroke-linecap="round"/>
<text x="514.7" y="474.0" fill="#1f2937" font-size="19" font-weight="400">PodSpec落地</text>
<line x1="504.7" y1="530.0" x2="616.7" y2="530.0" stroke="#0891b2" stroke-width="2.4" stroke-linecap="round"/>
<text x="514.7" y="522.0" fill="#1f2937" font-size="19" font-weight="400">拓扑/RDMA</text>
<line x1="332.2" y1="650.0" x2="429.7" y2="650.0" stroke="#dc2626" stroke-width="2.4" stroke-linecap="round"/>
<text x="342.2" y="642.0" fill="#dc2626" font-size="19" font-weight="700">启动运行</text>
<line x1="504.7" y1="578.0" x2="652.4" y2="578.0" stroke="#dc2626" stroke-width="2.4" stroke-linecap="round"/>
<text x="514.7" y="570.0" fill="#1f2937" font-size="19" font-weight="400">Master/rank0</text>
<line x1="504.7" y1="626.0" x2="652.4" y2="626.0" stroke="#dc2626" stroke-width="2.4" stroke-linecap="round"/>
<text x="514.7" y="618.0" fill="#1f2937" font-size="19" font-weight="400">Worker ranks</text>
<line x1="504.7" y1="674.0" x2="631.1" y2="674.0" stroke="#dc2626" stroke-width="2.4" stroke-linecap="round"/>
<text x="514.7" y="666.0" fill="#1f2937" font-size="19" font-weight="400">rendezvous</text>
<line x1="504.7" y1="722.0" x2="684.3" y2="722.0" stroke="#dc2626" stroke-width="2.4" stroke-linecap="round"/>
<text x="514.7" y="714.0" fill="#1f2937" font-size="19" font-weight="400">NCCL all-reduce</text>
<line x1="332.2" y1="842.0" x2="429.7" y2="842.0" stroke="#ea580c" stroke-width="2.4" stroke-linecap="round"/>
<text x="342.2" y="834.0" fill="#ea580c" font-size="19" font-weight="700">观测闭环</text>
<line x1="504.7" y1="770.0" x2="631.1" y2="770.0" stroke="#ea580c" stroke-width="2.4" stroke-linecap="round"/>
<text x="514.7" y="762.0" fill="#1f2937" font-size="19" font-weight="400">conditions</text>
<line x1="504.7" y1="818.0" x2="684.3" y2="818.0" stroke="#ea580c" stroke-width="2.4" stroke-linecap="round"/>
<text x="514.7" y="810.0" fill="#1f2937" font-size="19" font-weight="400">replicaStatuses</text>
<line x1="504.7" y1="866.0" x2="673.7" y2="866.0" stroke="#ea580c" stroke-width="2.4" stroke-linecap="round"/>
<text x="514.7" y="858.0" fill="#1f2937" font-size="19" font-weight="400">Pod/Event/Logs</text>
<line x1="504.7" y1="914.0" x2="673.7" y2="914.0" stroke="#ea580c" stroke-width="2.4" stroke-linecap="round"/>
<text x="514.7" y="906.0" fill="#1f2937" font-size="19" font-weight="400">GPU/Checkpoint</text>
<line x1="332.2" y1="1034.0" x2="429.7" y2="1034.0" stroke="#059669" stroke-width="2.4" stroke-linecap="round"/>
<text x="342.2" y="1026.0" fill="#059669" font-size="19" font-weight="700">排障路径</text>
<line x1="504.7" y1="962.0" x2="599.2" y2="962.0" stroke="#059669" stroke-width="2.4" stroke-linecap="round"/>
<text x="514.7" y="954.0" fill="#1f2937" font-size="19" font-weight="400">Pending</text>
<line x1="504.7" y1="1010.0" x2="669.9" y2="1010.0" stroke="#059669" stroke-width="2.4" stroke-linecap="round"/>
<text x="514.7" y="1002.0" fill="#1f2937" font-size="19" font-weight="400">rendezvous卡住</text>
<line x1="504.7" y1="1058.0" x2="652.4" y2="1058.0" stroke="#059669" stroke-width="2.4" stroke-linecap="round"/>
<text x="514.7" y="1050.0" fill="#1f2937" font-size="19" font-weight="400">NCCL timeout</text>
<line x1="504.7" y1="1106.0" x2="625.4" y2="1106.0" stroke="#059669" stroke-width="2.4" stroke-linecap="round"/>
<text x="514.7" y="1098.0" fill="#1f2937" font-size="19" font-weight="400">OOM/慢训练</text>
<line x1="332.2" y1="1202.0" x2="429.7" y2="1202.0" stroke="#d97706" stroke-width="2.4" stroke-linecap="round"/>
<text x="342.2" y="1194.0" fill="#d97706" font-size="19" font-weight="700">话术检查</text>
<line x1="504.7" y1="1154.0" x2="602.2" y2="1154.0" stroke="#d97706" stroke-width="2.4" stroke-linecap="round"/>
<text x="514.7" y="1146.0" fill="#1f2937" font-size="19" font-weight="400">三档背诵</text>
<line x1="504.7" y1="1202.0" x2="584.8" y2="1202.0" stroke="#d97706" stroke-width="2.4" stroke-linecap="round"/>
<text x="514.7" y="1194.0" fill="#1f2937" font-size="19" font-weight="400">高频QA</text>
<line x1="504.7" y1="1250.0" x2="621.6" y2="1250.0" stroke="#d97706" stroke-width="2.4" stroke-linecap="round"/>
<text x="514.7" y="1242.0" fill="#1f2937" font-size="19" font-weight="400">不能说的话</text>
</svg>