<svg xmlns="http://www.w3.org/2000/svg" viewBox="0 0 816 1338" width="816" height="1338">
<style>
text { font-family: -apple-system, BlinkMacSystemFont, 'PingFang SC', 'Microsoft YaHei', Helvetica, Arial, sans-serif; }
</style>
<rect x="0" y="0" width="816" height="1338" fill="#ffffff"/>
<path d="M 236.8,650.0 C 275.8,650.0 272.8,98.0 311.8,98.0" fill="none" stroke="#7c3aed" stroke-width="2.4" stroke-linecap="round"/>
<path d="M 409.3,98.0 C 479.9,98.0 474.5,50.0 545.1,50.0" fill="none" stroke="#7c3aed" stroke-width="2.4" stroke-linecap="round"/>
<path d="M 409.3,98.0 C 479.9,98.0 474.5,98.0 545.1,98.0" fill="none" stroke="#7c3aed" stroke-width="2.4" stroke-linecap="round"/>
<path d="M 409.3,98.0 C 479.9,98.0 474.5,146.0 545.1,146.0" fill="none" stroke="#7c3aed" stroke-width="2.4" stroke-linecap="round"/>
<path d="M 236.8,650.0 C 275.8,650.0 272.8,266.0 311.8,266.0" fill="none" stroke="#2563eb" stroke-width="2.4" stroke-linecap="round"/>
<path d="M 427.6,266.0 C 488.7,266.0 484.0,194.0 545.1,194.0" fill="none" stroke="#2563eb" stroke-width="2.4" stroke-linecap="round"/>
<path d="M 427.6,266.0 C 488.7,266.0 484.0,242.0 545.1,242.0" fill="none" stroke="#2563eb" stroke-width="2.4" stroke-linecap="round"/>
<path d="M 427.6,266.0 C 488.7,266.0 484.0,290.0 545.1,290.0" fill="none" stroke="#2563eb" stroke-width="2.4" stroke-linecap="round"/>
<path d="M 427.6,266.0 C 488.7,266.0 484.0,338.0 545.1,338.0" fill="none" stroke="#2563eb" stroke-width="2.4" stroke-linecap="round"/>
<path d="M 236.8,650.0 C 275.8,650.0 272.8,458.0 311.8,458.0" fill="none" stroke="#0891b2" stroke-width="2.4" stroke-linecap="round"/>
<path d="M 459.5,458.0 C 504.0,458.0 500.6,386.0 545.1,386.0" fill="none" stroke="#0891b2" stroke-width="2.4" stroke-linecap="round"/>
<path d="M 459.5,458.0 C 504.0,458.0 500.6,434.0 545.1,434.0" fill="none" stroke="#0891b2" stroke-width="2.4" stroke-linecap="round"/>
<path d="M 459.5,458.0 C 504.0,458.0 500.6,482.0 545.1,482.0" fill="none" stroke="#0891b2" stroke-width="2.4" stroke-linecap="round"/>
<path d="M 459.5,458.0 C 504.0,458.0 500.6,530.0 545.1,530.0" fill="none" stroke="#0891b2" stroke-width="2.4" stroke-linecap="round"/>
<path d="M 236.8,650.0 C 275.8,650.0 272.8,650.0 311.8,650.0" fill="none" stroke="#dc2626" stroke-width="2.4" stroke-linecap="round"/>
<path d="M 402.5,650.0 C 476.7,650.0 470.9,578.0 545.1,578.0" fill="none" stroke="#dc2626" stroke-width="2.4" stroke-linecap="round"/>
<path d="M 402.5,650.0 C 476.7,650.0 470.9,626.0 545.1,626.0" fill="none" stroke="#dc2626" stroke-width="2.4" stroke-linecap="round"/>
<path d="M 402.5,650.0 C 476.7,650.0 470.9,674.0 545.1,674.0" fill="none" stroke="#dc2626" stroke-width="2.4" stroke-linecap="round"/>
<path d="M 402.5,650.0 C 476.7,650.0 470.9,722.0 545.1,722.0" fill="none" stroke="#dc2626" stroke-width="2.4" stroke-linecap="round"/>
<path d="M 236.8,650.0 C 275.8,650.0 272.8,842.0 311.8,842.0" fill="none" stroke="#ea580c" stroke-width="2.4" stroke-linecap="round"/>
<path d="M 470.1,842.0 C 509.1,842.0 506.1,770.0 545.1,770.0" fill="none" stroke="#ea580c" stroke-width="2.4" stroke-linecap="round"/>
<path d="M 470.1,842.0 C 509.1,842.0 506.1,818.0 545.1,818.0" fill="none" stroke="#ea580c" stroke-width="2.4" stroke-linecap="round"/>
<path d="M 470.1,842.0 C 509.1,842.0 506.1,866.0 545.1,866.0" fill="none" stroke="#ea580c" stroke-width="2.4" stroke-linecap="round"/>
<path d="M 470.1,842.0 C 509.1,842.0 506.1,914.0 545.1,914.0" fill="none" stroke="#ea580c" stroke-width="2.4" stroke-linecap="round"/>
<path d="M 236.8,650.0 C 275.8,650.0 272.8,1034.0 311.8,1034.0" fill="none" stroke="#059669" stroke-width="2.4" stroke-linecap="round"/>
<path d="M 395.6,1034.0 C 473.4,1034.0 467.4,962.0 545.1,962.0" fill="none" stroke="#059669" stroke-width="2.4" stroke-linecap="round"/>
<path d="M 395.6,1034.0 C 473.4,1034.0 467.4,1010.0 545.1,1010.0" fill="none" stroke="#059669" stroke-width="2.4" stroke-linecap="round"/>
<path d="M 395.6,1034.0 C 473.4,1034.0 467.4,1058.0 545.1,1058.0" fill="none" stroke="#059669" stroke-width="2.4" stroke-linecap="round"/>
<path d="M 395.6,1034.0 C 473.4,1034.0 467.4,1106.0 545.1,1106.0" fill="none" stroke="#059669" stroke-width="2.4" stroke-linecap="round"/>
<path d="M 236.8,650.0 C 275.8,650.0 272.8,1202.0 311.8,1202.0" fill="none" stroke="#d97706" stroke-width="2.4" stroke-linecap="round"/>
<path d="M 409.3,1202.0 C 479.9,1202.0 474.5,1154.0 545.1,1154.0" fill="none" stroke="#d97706" stroke-width="2.4" stroke-linecap="round"/>
<path d="M 409.3,1202.0 C 479.9,1202.0 474.5,1202.0 545.1,1202.0" fill="none" stroke="#d97706" stroke-width="2.4" stroke-linecap="round"/>
<path d="M 409.3,1202.0 C 479.9,1202.0 474.5,1250.0 545.1,1250.0" fill="none" stroke="#d97706" stroke-width="2.4" stroke-linecap="round"/>
<rect x="40" y="625.0" width="196.8" height="50" rx="11" fill="#1e293b"/>
<text x="138.4" y="657.0" text-anchor="middle" fill="#ffffff" font-size="20" font-weight="700">PyTorchJob字段</text>
<line x1="311.8" y1="98.0" x2="409.3" y2="98.0" stroke="#7c3aed" stroke-width="2.4" stroke-linecap="round"/>
<text x="321.8" y="90.0" fill="#7c3aed" font-size="19" font-weight="700">资源身份</text>
<line x1="545.1" y1="50.0" x2="724.7" y2="50.0" stroke="#7c3aed" stroke-width="2.4" stroke-linecap="round"/>
<text x="555.1" y="42.0" fill="#1f2937" font-size="19" font-weight="400">kubeflow.org/v1</text>
<line x1="545.1" y1="98.0" x2="714.1" y2="98.0" stroke="#7c3aed" stroke-width="2.4" stroke-linecap="round"/>
<text x="555.1" y="90.0" fill="#1f2937" font-size="19" font-weight="400">namespaced CRD</text>
<line x1="545.1" y1="146.0" x2="756.6" y2="146.0" stroke="#7c3aed" stroke-width="2.4" stroke-linecap="round"/>
<text x="555.1" y="138.0" fill="#1f2937" font-size="19" font-weight="400">plural=pytorchjobs</text>
<line x1="311.8" y1="266.0" x2="427.6" y2="266.0" stroke="#2563eb" stroke-width="2.4" stroke-linecap="round"/>
<text x="321.8" y="258.0" fill="#2563eb" font-size="19" font-weight="700">runPolicy</text>
<line x1="545.1" y1="194.0" x2="639.6" y2="194.0" stroke="#2563eb" stroke-width="2.4" stroke-linecap="round"/>
<text x="555.1" y="186.0" fill="#1f2937" font-size="19" font-weight="400">suspend</text>
<line x1="545.1" y1="242.0" x2="692.8" y2="242.0" stroke="#2563eb" stroke-width="2.4" stroke-linecap="round"/>
<text x="555.1" y="234.0" fill="#1f2937" font-size="19" font-weight="400">backoffLimit</text>
<line x1="545.1" y1="290.0" x2="714.1" y2="290.0" stroke="#2563eb" stroke-width="2.4" stroke-linecap="round"/>
<text x="555.1" y="282.0" fill="#1f2937" font-size="19" font-weight="400">cleanPodPolicy</text>
<line x1="545.1" y1="338.0" x2="671.5" y2="338.0" stroke="#2563eb" stroke-width="2.4" stroke-linecap="round"/>
<text x="555.1" y="330.0" fill="#1f2937" font-size="19" font-weight="400">ttlSeconds</text>
<line x1="311.8" y1="458.0" x2="459.5" y2="458.0" stroke="#0891b2" stroke-width="2.4" stroke-linecap="round"/>
<text x="321.8" y="450.0" fill="#0891b2" font-size="19" font-weight="700">replicaSpecs</text>
<line x1="545.1" y1="386.0" x2="703.4" y2="386.0" stroke="#0891b2" stroke-width="2.4" stroke-linecap="round"/>
<text x="555.1" y="378.0" fill="#1f2937" font-size="19" font-weight="400">Master/Worker</text>
<line x1="545.1" y1="434.0" x2="650.2" y2="434.0" stroke="#0891b2" stroke-width="2.4" stroke-linecap="round"/>
<text x="555.1" y="426.0" fill="#1f2937" font-size="19" font-weight="400">replicas</text>
<line x1="545.1" y1="482.0" x2="703.4" y2="482.0" stroke="#0891b2" stroke-width="2.4" stroke-linecap="round"/>
<text x="555.1" y="474.0" fill="#1f2937" font-size="19" font-weight="400">restartPolicy</text>
<line x1="545.1" y1="530.0" x2="682.2" y2="530.0" stroke="#0891b2" stroke-width="2.4" stroke-linecap="round"/>
<text x="555.1" y="522.0" fill="#1f2937" font-size="19" font-weight="400">PodTemplate</text>
<line x1="311.8" y1="650.0" x2="402.5" y2="650.0" stroke="#dc2626" stroke-width="2.4" stroke-linecap="round"/>
<text x="321.8" y="642.0" fill="#dc2626" font-size="19" font-weight="700">GPU落点</text>
<line x1="545.1" y1="578.0" x2="735.4" y2="578.0" stroke="#dc2626" stroke-width="2.4" stroke-linecap="round"/>
<text x="555.1" y="570.0" fill="#1f2937" font-size="19" font-weight="400">resources.limits</text>
<line x1="545.1" y1="626.0" x2="692.8" y2="626.0" stroke="#dc2626" stroke-width="2.4" stroke-linecap="round"/>
<text x="555.1" y="618.0" fill="#1f2937" font-size="19" font-weight="400">nodeSelector</text>
<line x1="545.1" y1="674.0" x2="682.2" y2="674.0" stroke="#dc2626" stroke-width="2.4" stroke-linecap="round"/>
<text x="555.1" y="666.0" fill="#1f2937" font-size="19" font-weight="400">tolerations</text>
<line x1="545.1" y1="722.0" x2="639.6" y2="722.0" stroke="#dc2626" stroke-width="2.4" stroke-linecap="round"/>
<text x="555.1" y="714.0" fill="#1f2937" font-size="19" font-weight="400">volumes</text>
<line x1="311.8" y1="842.0" x2="470.1" y2="842.0" stroke="#ea580c" stroke-width="2.4" stroke-linecap="round"/>
<text x="321.8" y="834.0" fill="#ea580c" font-size="19" font-weight="700">elasticPolicy</text>
<line x1="545.1" y1="770.0" x2="735.4" y2="770.0" stroke="#ea580c" stroke-width="2.4" stroke-linecap="round"/>
<text x="555.1" y="762.0" fill="#1f2937" font-size="19" font-weight="400">min/max replicas</text>
<line x1="545.1" y1="818.0" x2="682.2" y2="818.0" stroke="#ea580c" stroke-width="2.4" stroke-linecap="round"/>
<text x="555.1" y="810.0" fill="#1f2937" font-size="19" font-weight="400">rdzvBackend</text>
<line x1="545.1" y1="866.0" x2="682.2" y2="866.0" stroke="#ea580c" stroke-width="2.4" stroke-linecap="round"/>
<text x="555.1" y="858.0" fill="#1f2937" font-size="19" font-weight="400">maxRestarts</text>
<line x1="545.1" y1="914.0" x2="692.8" y2="914.0" stroke="#ea580c" stroke-width="2.4" stroke-linecap="round"/>
<text x="555.1" y="906.0" fill="#1f2937" font-size="19" font-weight="400">nprocPerNode</text>
<line x1="311.8" y1="1034.0" x2="395.6" y2="1034.0" stroke="#059669" stroke-width="2.4" stroke-linecap="round"/>
<text x="321.8" y="1026.0" fill="#059669" font-size="19" font-weight="700">status</text>
<line x1="545.1" y1="962.0" x2="671.5" y2="962.0" stroke="#059669" stroke-width="2.4" stroke-linecap="round"/>
<text x="555.1" y="954.0" fill="#1f2937" font-size="19" font-weight="400">conditions</text>
<line x1="545.1" y1="1010.0" x2="724.7" y2="1010.0" stroke="#059669" stroke-width="2.4" stroke-linecap="round"/>
<text x="555.1" y="1002.0" fill="#1f2937" font-size="19" font-weight="400">replicaStatuses</text>
<line x1="545.1" y1="1058.0" x2="735.4" y2="1058.0" stroke="#059669" stroke-width="2.4" stroke-linecap="round"/>
<text x="555.1" y="1050.0" fill="#1f2937" font-size="19" font-weight="400">start/completion</text>
<line x1="545.1" y1="1106.0" x2="703.4" y2="1106.0" stroke="#059669" stroke-width="2.4" stroke-linecap="round"/>
<text x="555.1" y="1098.0" fill="#1f2937" font-size="19" font-weight="400">lastReconcile</text>
<line x1="311.8" y1="1202.0" x2="409.3" y2="1202.0" stroke="#d97706" stroke-width="2.4" stroke-linecap="round"/>
<text x="321.8" y="1194.0" fill="#d97706" font-size="19" font-weight="700">平台接入</text>
<line x1="545.1" y1="1154.0" x2="735.4" y2="1154.0" stroke="#d97706" stroke-width="2.4" stroke-linecap="round"/>
<text x="555.1" y="1146.0" fill="#1f2937" font-size="19" font-weight="400">Runtime registry</text>
<line x1="545.1" y1="1202.0" x2="678.4" y2="1202.0" stroke="#d97706" stroke-width="2.4" stroke-linecap="round"/>
<text x="555.1" y="1194.0" fill="#1f2937" font-size="19" font-weight="400">watcher映射</text>
<line x1="545.1" y1="1250.0" x2="702.7" y2="1250.0" stroke="#d97706" stroke-width="2.4" stroke-linecap="round"/>
<text x="555.1" y="1242.0" fill="#1f2937" font-size="19" font-weight="400">日志/事件/指标</text>
</svg>