<svg xmlns="http://www.w3.org/2000/svg" viewBox="0 0 749 1386" width="749" height="1386">
<style>
text { font-family: -apple-system, BlinkMacSystemFont, 'PingFang SC', 'Microsoft YaHei', Helvetica, Arial, sans-serif; }
</style>
<rect x="0" y="0" width="749" height="1386" fill="#ffffff"/>
<path d="M 236.8,686.0 C 275.8,686.0 272.8,122.0 311.8,122.0" fill="none" stroke="#7c3aed" stroke-width="2.4" stroke-linecap="round"/>
<path d="M 409.3,122.0 C 455.8,122.0 452.3,50.0 498.8,50.0" fill="none" stroke="#7c3aed" stroke-width="2.4" stroke-linecap="round"/>
<path d="M 409.3,122.0 C 455.8,122.0 452.3,98.0 498.8,98.0" fill="none" stroke="#7c3aed" stroke-width="2.4" stroke-linecap="round"/>
<path d="M 409.3,122.0 C 455.8,122.0 452.3,146.0 498.8,146.0" fill="none" stroke="#7c3aed" stroke-width="2.4" stroke-linecap="round"/>
<path d="M 409.3,122.0 C 455.8,122.0 452.3,194.0 498.8,194.0" fill="none" stroke="#7c3aed" stroke-width="2.4" stroke-linecap="round"/>
<path d="M 236.8,686.0 C 275.8,686.0 272.8,314.0 311.8,314.0" fill="none" stroke="#2563eb" stroke-width="2.4" stroke-linecap="round"/>
<path d="M 389.9,314.0 C 446.5,314.0 442.2,242.0 498.8,242.0" fill="none" stroke="#2563eb" stroke-width="2.4" stroke-linecap="round"/>
<path d="M 389.9,314.0 C 446.5,314.0 442.2,290.0 498.8,290.0" fill="none" stroke="#2563eb" stroke-width="2.4" stroke-linecap="round"/>
<path d="M 389.9,314.0 C 446.5,314.0 442.2,338.0 498.8,338.0" fill="none" stroke="#2563eb" stroke-width="2.4" stroke-linecap="round"/>
<path d="M 389.9,314.0 C 446.5,314.0 442.2,386.0 498.8,386.0" fill="none" stroke="#2563eb" stroke-width="2.4" stroke-linecap="round"/>
<path d="M 236.8,686.0 C 275.8,686.0 272.8,506.0 311.8,506.0" fill="none" stroke="#0891b2" stroke-width="2.4" stroke-linecap="round"/>
<path d="M 423.8,506.0 C 462.8,506.0 459.8,434.0 498.8,434.0" fill="none" stroke="#0891b2" stroke-width="2.4" stroke-linecap="round"/>
<path d="M 423.8,506.0 C 462.8,506.0 459.8,482.0 498.8,482.0" fill="none" stroke="#0891b2" stroke-width="2.4" stroke-linecap="round"/>
<path d="M 423.8,506.0 C 462.8,506.0 459.8,530.0 498.8,530.0" fill="none" stroke="#0891b2" stroke-width="2.4" stroke-linecap="round"/>
<path d="M 423.8,506.0 C 462.8,506.0 459.8,578.0 498.8,578.0" fill="none" stroke="#0891b2" stroke-width="2.4" stroke-linecap="round"/>
<path d="M 236.8,686.0 C 275.8,686.0 272.8,698.0 311.8,698.0" fill="none" stroke="#dc2626" stroke-width="2.4" stroke-linecap="round"/>
<path d="M 370.6,698.0 C 437.2,698.0 432.1,626.0 498.8,626.0" fill="none" stroke="#dc2626" stroke-width="2.4" stroke-linecap="round"/>
<path d="M 370.6,698.0 C 437.2,698.0 432.1,674.0 498.8,674.0" fill="none" stroke="#dc2626" stroke-width="2.4" stroke-linecap="round"/>
<path d="M 370.6,698.0 C 437.2,698.0 432.1,722.0 498.8,722.0" fill="none" stroke="#dc2626" stroke-width="2.4" stroke-linecap="round"/>
<path d="M 370.6,698.0 C 437.2,698.0 432.1,770.0 498.8,770.0" fill="none" stroke="#dc2626" stroke-width="2.4" stroke-linecap="round"/>
<path d="M 236.8,686.0 C 275.8,686.0 272.8,890.0 311.8,890.0" fill="none" stroke="#ea580c" stroke-width="2.4" stroke-linecap="round"/>
<path d="M 370.6,890.0 C 437.2,890.0 432.1,818.0 498.8,818.0" fill="none" stroke="#ea580c" stroke-width="2.4" stroke-linecap="round"/>
<path d="M 370.6,890.0 C 437.2,890.0 432.1,866.0 498.8,866.0" fill="none" stroke="#ea580c" stroke-width="2.4" stroke-linecap="round"/>
<path d="M 370.6,890.0 C 437.2,890.0 432.1,914.0 498.8,914.0" fill="none" stroke="#ea580c" stroke-width="2.4" stroke-linecap="round"/>
<path d="M 370.6,890.0 C 437.2,890.0 432.1,962.0 498.8,962.0" fill="none" stroke="#ea580c" stroke-width="2.4" stroke-linecap="round"/>
<path d="M 236.8,686.0 C 275.8,686.0 272.8,1082.0 311.8,1082.0" fill="none" stroke="#059669" stroke-width="2.4" stroke-linecap="round"/>
<path d="M 370.6,1082.0 C 437.2,1082.0 432.1,1010.0 498.8,1010.0" fill="none" stroke="#059669" stroke-width="2.4" stroke-linecap="round"/>
<path d="M 370.6,1082.0 C 437.2,1082.0 432.1,1058.0 498.8,1058.0" fill="none" stroke="#059669" stroke-width="2.4" stroke-linecap="round"/>
<path d="M 370.6,1082.0 C 437.2,1082.0 432.1,1106.0 498.8,1106.0" fill="none" stroke="#059669" stroke-width="2.4" stroke-linecap="round"/>
<path d="M 370.6,1082.0 C 437.2,1082.0 432.1,1154.0 498.8,1154.0" fill="none" stroke="#059669" stroke-width="2.4" stroke-linecap="round"/>
<path d="M 236.8,686.0 C 275.8,686.0 272.8,1250.0 311.8,1250.0" fill="none" stroke="#d97706" stroke-width="2.4" stroke-linecap="round"/>
<path d="M 409.3,1250.0 C 455.8,1250.0 452.3,1202.0 498.8,1202.0" fill="none" stroke="#d97706" stroke-width="2.4" stroke-linecap="round"/>
<path d="M 409.3,1250.0 C 455.8,1250.0 452.3,1250.0 498.8,1250.0" fill="none" stroke="#d97706" stroke-width="2.4" stroke-linecap="round"/>
<path d="M 409.3,1250.0 C 455.8,1250.0 452.3,1298.0 498.8,1298.0" fill="none" stroke="#d97706" stroke-width="2.4" stroke-linecap="round"/>
<rect x="40" y="661.0" width="196.8" height="50" rx="11" fill="#1e293b"/>
<text x="138.4" y="693.0" text-anchor="middle" fill="#ffffff" font-size="20" font-weight="700">GPU调度Runbook</text>
<line x1="311.8" y1="122.0" x2="409.3" y2="122.0" stroke="#7c3aed" stroke-width="2.4" stroke-linecap="round"/>
<text x="321.8" y="114.0" fill="#7c3aed" font-size="19" font-weight="700">调度主线</text>
<line x1="498.8" y1="50.0" x2="596.3" y2="50.0" stroke="#7c3aed" stroke-width="2.4" stroke-linecap="round"/>
<text x="508.8" y="42.0" fill="#1f2937" font-size="19" font-weight="400">准入画像</text>
<line x1="498.8" y1="98.0" x2="596.3" y2="98.0" stroke="#7c3aed" stroke-width="2.4" stroke-linecap="round"/>
<text x="508.8" y="90.0" fill="#1f2937" font-size="19" font-weight="400">队列配额</text>
<line x1="498.8" y1="146.0" x2="561.3" y2="146.0" stroke="#7c3aed" stroke-width="2.4" stroke-linecap="round"/>
<text x="508.8" y="138.0" fill="#1f2937" font-size="19" font-weight="400">Gang</text>
<line x1="498.8" y1="194.0" x2="593.2" y2="194.0" stroke="#7c3aed" stroke-width="2.4" stroke-linecap="round"/>
<text x="508.8" y="186.0" fill="#1f2937" font-size="19" font-weight="400">PodSpec</text>
<line x1="311.8" y1="314.0" x2="389.9" y2="314.0" stroke="#2563eb" stroke-width="2.4" stroke-linecap="round"/>
<text x="321.8" y="306.0" fill="#2563eb" font-size="19" font-weight="700">资源池</text>
<line x1="498.8" y1="242.0" x2="608.8" y2="242.0" stroke="#2563eb" stroke-width="2.4" stroke-linecap="round"/>
<text x="508.8" y="234.0" fill="#1f2937" font-size="19" font-weight="400">稳定GPU池</text>
<line x1="498.8" y1="290.0" x2="615.7" y2="290.0" stroke="#2563eb" stroke-width="2.4" stroke-linecap="round"/>
<text x="508.8" y="282.0" fill="#1f2937" font-size="19" font-weight="400">共享显存池</text>
<line x1="498.8" y1="338.0" x2="608.8" y2="338.0" stroke="#2563eb" stroke-width="2.4" stroke-linecap="round"/>
<text x="508.8" y="330.0" fill="#1f2937" font-size="19" font-weight="400">抢占GPU池</text>
<line x1="498.8" y1="386.0" x2="570.1" y2="386.0" stroke="#2563eb" stroke-width="2.4" stroke-linecap="round"/>
<text x="508.8" y="378.0" fill="#1f2937" font-size="19" font-weight="400">CPU池</text>
<line x1="311.8" y1="506.0" x2="423.8" y2="506.0" stroke="#0891b2" stroke-width="2.4" stroke-linecap="round"/>
<text x="321.8" y="498.0" fill="#0891b2" font-size="19" font-weight="700">队列/Gang</text>
<line x1="498.8" y1="434.0" x2="635.8" y2="434.0" stroke="#0891b2" stroke-width="2.4" stroke-linecap="round"/>
<text x="508.8" y="426.0" fill="#1f2937" font-size="19" font-weight="400">Kueue label</text>
<line x1="498.8" y1="482.0" x2="657.1" y2="482.0" stroke="#0891b2" stroke-width="2.4" stroke-linecap="round"/>
<text x="508.8" y="474.0" fill="#1f2937" font-size="19" font-weight="400">suspend/admit</text>
<line x1="498.8" y1="530.0" x2="689.0" y2="530.0" stroke="#0891b2" stroke-width="2.4" stroke-linecap="round"/>
<text x="508.8" y="522.0" fill="#1f2937" font-size="19" font-weight="400">Volcano/PodGroup</text>
<line x1="498.8" y1="578.0" x2="667.7" y2="578.0" stroke="#0891b2" stroke-width="2.4" stroke-linecap="round"/>
<text x="508.8" y="570.0" fill="#1f2937" font-size="19" font-weight="400">all-or-nothing</text>
<line x1="311.8" y1="698.0" x2="370.6" y2="698.0" stroke="#dc2626" stroke-width="2.4" stroke-linecap="round"/>
<text x="321.8" y="690.0" fill="#dc2626" font-size="19" font-weight="700">拓扑</text>
<line x1="498.8" y1="626.0" x2="678.4" y2="626.0" stroke="#dc2626" stroke-width="2.4" stroke-linecap="round"/>
<text x="508.8" y="618.0" fill="#1f2937" font-size="19" font-weight="400">NVLink/NVSwitch</text>
<line x1="498.8" y1="674.0" x2="580.7" y2="674.0" stroke="#dc2626" stroke-width="2.4" stroke-linecap="round"/>
<text x="508.8" y="666.0" fill="#1f2937" font-size="19" font-weight="400">RDMA域</text>
<line x1="498.8" y1="722.0" x2="615.7" y2="722.0" stroke="#dc2626" stroke-width="2.4" stroke-linecap="round"/>
<text x="508.8" y="714.0" fill="#1f2937" font-size="19" font-weight="400">同机型版本</text>
<line x1="498.8" y1="770.0" x2="615.7" y2="770.0" stroke="#dc2626" stroke-width="2.4" stroke-linecap="round"/>
<text x="508.8" y="762.0" fill="#1f2937" font-size="19" font-weight="400">避免慢链路</text>
<line x1="311.8" y1="890.0" x2="370.6" y2="890.0" stroke="#ea580c" stroke-width="2.4" stroke-linecap="round"/>
<text x="321.8" y="882.0" fill="#ea580c" font-size="19" font-weight="700">观测</text>
<line x1="498.8" y1="818.0" x2="657.1" y2="818.0" stroke="#ea580c" stroke-width="2.4" stroke-linecap="round"/>
<text x="508.8" y="810.0" fill="#1f2937" font-size="19" font-weight="400">Job condition</text>
<line x1="498.8" y1="866.0" x2="625.2" y2="866.0" stroke="#ea580c" stroke-width="2.4" stroke-linecap="round"/>
<text x="508.8" y="858.0" fill="#1f2937" font-size="19" font-weight="400">Pod events</text>
<line x1="498.8" y1="914.0" x2="603.9" y2="914.0" stroke="#ea580c" stroke-width="2.4" stroke-linecap="round"/>
<text x="508.8" y="906.0" fill="#1f2937" font-size="19" font-weight="400">GPU/DCGM</text>
<line x1="498.8" y1="962.0" x2="614.5" y2="962.0" stroke="#ea580c" stroke-width="2.4" stroke-linecap="round"/>
<text x="508.8" y="954.0" fill="#1f2937" font-size="19" font-weight="400">NCCL/step</text>
<line x1="311.8" y1="1082.0" x2="370.6" y2="1082.0" stroke="#059669" stroke-width="2.4" stroke-linecap="round"/>
<text x="321.8" y="1074.0" fill="#059669" font-size="19" font-weight="700">排障</text>
<line x1="498.8" y1="1010.0" x2="593.2" y2="1010.0" stroke="#059669" stroke-width="2.4" stroke-linecap="round"/>
<text x="508.8" y="1002.0" fill="#1f2937" font-size="19" font-weight="400">Pending</text>
<line x1="498.8" y1="1058.0" x2="600.1" y2="1058.0" stroke="#059669" stroke-width="2.4" stroke-linecap="round"/>
<text x="508.8" y="1050.0" fill="#1f2937" font-size="19" font-weight="400">部分rank</text>
<line x1="498.8" y1="1106.0" x2="625.2" y2="1106.0" stroke="#059669" stroke-width="2.4" stroke-linecap="round"/>
<text x="508.8" y="1098.0" fill="#1f2937" font-size="19" font-weight="400">rendezvous</text>
<line x1="498.8" y1="1154.0" x2="603.9" y2="1154.0" stroke="#059669" stroke-width="2.4" stroke-linecap="round"/>
<text x="508.8" y="1146.0" fill="#1f2937" font-size="19" font-weight="400">NCCL/OOM</text>
<line x1="311.8" y1="1250.0" x2="409.3" y2="1250.0" stroke="#d97706" stroke-width="2.4" stroke-linecap="round"/>
<text x="321.8" y="1242.0" fill="#d97706" font-size="19" font-weight="700">安全表达</text>
<line x1="498.8" y1="1202.0" x2="672.7" y2="1202.0" stroke="#d97706" stroke-width="2.4" stroke-linecap="round"/>
<text x="508.8" y="1194.0" fill="#1f2937" font-size="19" font-weight="400">不自研Scheduler</text>
<line x1="498.8" y1="1250.0" x2="615.7" y2="1250.0" stroke="#d97706" stroke-width="2.4" stroke-linecap="round"/>
<text x="508.8" y="1242.0" fill="#1f2937" font-size="19" font-weight="400">控制面治理</text>
<line x1="498.8" y1="1298.0" x2="635.0" y2="1298.0" stroke="#d97706" stroke-width="2.4" stroke-linecap="round"/>
<text x="508.8" y="1290.0" fill="#1f2937" font-size="19" font-weight="400">执行交给底座</text>
</svg>