<svg xmlns="http://www.w3.org/2000/svg" viewBox="0 0 1600 960" width="1600" height="960">
<style>
text { font-family: 'Helvetica Neue', Helvetica, Arial, 'PingFang SC', 'Microsoft YaHei', 'Microsoft JhengHei', 'SimHei', sans-serif; }
</style>
<defs>
<marker id="arrow-blue" markerWidth="10" markerHeight="7" refX="9" refY="3.5" orient="auto">
<polygon points="0 0, 10 3.5, 0 7" fill="#2563eb"/>
</marker>
<marker id="arrow-red" markerWidth="10" markerHeight="7" refX="9" refY="3.5" orient="auto">
<polygon points="0 0, 10 3.5, 0 7" fill="#dc2626"/>
</marker>
<marker id="arrow-green" markerWidth="10" markerHeight="7" refX="9" refY="3.5" orient="auto">
<polygon points="0 0, 10 3.5, 0 7" fill="#16a34a"/>
</marker>
<marker id="arrow-purple" markerWidth="10" markerHeight="7" refX="9" refY="3.5" orient="auto">
<polygon points="0 0, 10 3.5, 0 7" fill="#9333ea"/>
</marker>
<marker id="arrow-orange" markerWidth="10" markerHeight="7" refX="9" refY="3.5" orient="auto">
<polygon points="0 0, 10 3.5, 0 7" fill="#ea580c"/>
</marker>
<marker id="arrow-teal" markerWidth="10" markerHeight="7" refX="9" refY="3.5" orient="auto">
<polygon points="0 0, 10 3.5, 0 7" fill="#0891b2"/>
</marker>
<marker id="arrow-gray" markerWidth="10" markerHeight="7" refX="9" refY="3.5" orient="auto">
<polygon points="0 0, 10 3.5, 0 7" fill="#64748b"/>
</marker>
<filter id="shadow" x="-20%" y="-20%" width="140%" height="140%">
<feDropShadow dx="0" dy="3" stdDeviation="3" flood-color="#0f172a" flood-opacity="0.14"/>
</filter>
</defs>
<rect width="1600" height="960" fill="#ffffff"/>
<text x="60" y="62" fill="#111827" font-size="30" font-weight="800">PyTorchJob SRE 排障决策树</text>
<text x="60" y="96" fill="#475569" font-size="17">症状 -&gt; 假设 -&gt; 验证 -&gt; 指标 -&gt; 结论 -&gt; 优化</text>
<rect x="65" y="395" width="260" height="120" rx="10" fill="#111827" stroke="#111827" stroke-width="1.6" filter="url(#shadow)"/>
<text x="195.0" y="431" fill="#ffffff" font-size="20" font-weight="800" text-anchor="middle">入口症状</text>
<text x="87" y="463" fill="#cbd5e1" font-size="14" font-weight="400" text-anchor="start">• 先不要直接归因</text>
<text x="87" y="488" fill="#cbd5e1" font-size="14" font-weight="400" text-anchor="start">• 先定位卡在哪一层</text>
<rect x="455" y="150" width="345" height="115" rx="10" fill="#eff6ff" stroke="#2563eb" stroke-width="1.6" filter="url(#shadow)"/>
<rect x="455" y="150" width="345" height="8" rx="4" fill="#2563eb"/>
<text x="627.5" y="186" fill="#111827" font-size="18" font-weight="800" text-anchor="middle">Pending / 起不来</text>
<text x="477" y="218" fill="#475569" font-size="14" font-weight="400" text-anchor="start">• queue/gang/quota/nodePool/PVC/image</text>
<path d="M 325 455 L 390 455 L 390 208 L 455 208" fill="none" stroke="#2563eb" stroke-width="2.2" marker-end="url(#arrow-blue)"/>
<rect x="965" y="150" width="455" height="115" rx="10" fill="#ffffff" stroke="#cbd5e1" stroke-width="1.6" filter="url(#shadow)"/>
<rect x="965" y="150" width="455" height="8" rx="4" fill="#2563eb"/>
<text x="1192.5" y="186" fill="#111827" font-size="18" font-weight="800" text-anchor="middle">验证抓手</text>
<text x="987" y="218" fill="#475569" font-size="14" font-weight="400" text-anchor="start">• kubectl get/describe pytorchjob,pod,event</text>
<text x="987" y="243" fill="#475569" font-size="14" font-weight="400" text-anchor="start">• rank0/worker logs + GPU/NCCL metrics</text>
<path d="M 800 208 L 965 208" fill="none" stroke="#2563eb" stroke-width="2.2" marker-end="url(#arrow-blue)"/>
<rect x="837.5" y="182.0" width="90" height="24" rx="6" fill="#ffffff" opacity="0.96"/>
<text x="882.5" y="200.0" fill="#64748b" font-size="13" font-weight="700" text-anchor="middle">verify</text>
<rect x="455" y="330" width="345" height="115" rx="10" fill="#faf5ff" stroke="#9333ea" stroke-width="1.6" filter="url(#shadow)"/>
<rect x="455" y="330" width="345" height="8" rx="4" fill="#9333ea"/>
<text x="627.5" y="366" fill="#111827" font-size="18" font-weight="800" text-anchor="middle">Running 但卡住</text>
<text x="477" y="398" fill="#475569" font-size="14" font-weight="400" text-anchor="start">• rendezvous/rank 不齐/master 不可达</text>
<path d="M 325 455 L 390 455 L 390 388 L 455 388" fill="none" stroke="#9333ea" stroke-width="2.2" marker-end="url(#arrow-purple)"/>
<rect x="965" y="330" width="455" height="115" rx="10" fill="#ffffff" stroke="#cbd5e1" stroke-width="1.6" filter="url(#shadow)"/>
<rect x="965" y="330" width="455" height="8" rx="4" fill="#9333ea"/>
<text x="1192.5" y="366" fill="#111827" font-size="18" font-weight="800" text-anchor="middle">验证抓手</text>
<text x="987" y="398" fill="#475569" font-size="14" font-weight="400" text-anchor="start">• kubectl get/describe pytorchjob,pod,event</text>
<text x="987" y="423" fill="#475569" font-size="14" font-weight="400" text-anchor="start">• rank0/worker logs + GPU/NCCL metrics</text>
<path d="M 800 388 L 965 388" fill="none" stroke="#9333ea" stroke-width="2.2" marker-end="url(#arrow-purple)"/>
<rect x="837.5" y="362.0" width="90" height="24" rx="6" fill="#ffffff" opacity="0.96"/>
<text x="882.5" y="380.0" fill="#64748b" font-size="13" font-weight="700" text-anchor="middle">verify</text>
<rect x="455" y="510" width="345" height="115" rx="10" fill="#fef2f2" stroke="#dc2626" stroke-width="1.6" filter="url(#shadow)"/>
<rect x="455" y="510" width="345" height="8" rx="4" fill="#dc2626"/>
<text x="627.5" y="546" fill="#111827" font-size="18" font-weight="800" text-anchor="middle">NCCL timeout / 慢</text>
<text x="477" y="578" fill="#475569" font-size="14" font-weight="400" text-anchor="start">• 拓扑/RDMA/版本/掉队 rank</text>
<path d="M 325 455 L 390 455 L 390 568 L 455 568" fill="none" stroke="#dc2626" stroke-width="2.2" marker-end="url(#arrow-red)"/>
<rect x="965" y="510" width="455" height="115" rx="10" fill="#ffffff" stroke="#cbd5e1" stroke-width="1.6" filter="url(#shadow)"/>
<rect x="965" y="510" width="455" height="8" rx="4" fill="#dc2626"/>
<text x="1192.5" y="546" fill="#111827" font-size="18" font-weight="800" text-anchor="middle">验证抓手</text>
<text x="987" y="578" fill="#475569" font-size="14" font-weight="400" text-anchor="start">• kubectl get/describe pytorchjob,pod,event</text>
<text x="987" y="603" fill="#475569" font-size="14" font-weight="400" text-anchor="start">• rank0/worker logs + GPU/NCCL metrics</text>
<path d="M 800 568 L 965 568" fill="none" stroke="#dc2626" stroke-width="2.2" marker-end="url(#arrow-red)"/>
<rect x="837.5" y="542.0" width="90" height="24" rx="6" fill="#ffffff" opacity="0.96"/>
<text x="882.5" y="560.0" fill="#64748b" font-size="13" font-weight="700" text-anchor="middle">verify</text>
<rect x="455" y="690" width="345" height="115" rx="10" fill="#fff7ed" stroke="#ea580c" stroke-width="1.6" filter="url(#shadow)"/>
<rect x="455" y="690" width="345" height="8" rx="4" fill="#ea580c"/>
<text x="627.5" y="726" fill="#111827" font-size="18" font-weight="800" text-anchor="middle">OOM / 反复重启</text>
<text x="477" y="758" fill="#475569" font-size="14" font-weight="400" text-anchor="start">• CUDA OOM/K8s OOMKill/checkpoint 恢复失</text>
<text x="477" y="779" fill="#475569" font-size="14" font-weight="400" text-anchor="start">  败</text>
<path d="M 325 455 L 390 455 L 390 748 L 455 748" fill="none" stroke="#ea580c" stroke-width="2.2" marker-end="url(#arrow-orange)"/>
<rect x="965" y="690" width="455" height="115" rx="10" fill="#ffffff" stroke="#cbd5e1" stroke-width="1.6" filter="url(#shadow)"/>
<rect x="965" y="690" width="455" height="8" rx="4" fill="#ea580c"/>
<text x="1192.5" y="726" fill="#111827" font-size="18" font-weight="800" text-anchor="middle">验证抓手</text>
<text x="987" y="758" fill="#475569" font-size="14" font-weight="400" text-anchor="start">• kubectl get/describe pytorchjob,pod,event</text>
<text x="987" y="783" fill="#475569" font-size="14" font-weight="400" text-anchor="start">• rank0/worker logs + GPU/NCCL metrics</text>
<path d="M 800 748 L 965 748" fill="none" stroke="#ea580c" stroke-width="2.2" marker-end="url(#arrow-orange)"/>
<rect x="837.5" y="722.0" width="90" height="24" rx="6" fill="#ffffff" opacity="0.96"/>
<text x="882.5" y="740.0" fill="#64748b" font-size="13" font-weight="700" text-anchor="middle">verify</text>
<rect x="540" y="835" width="520" height="80" rx="10" fill="#111827" stroke="#111827" stroke-width="1.6" filter="url(#shadow)"/>
<text x="800.0" y="871" fill="#ffffff" font-size="21" font-weight="800" text-anchor="middle">收口动作</text>
<text x="562" y="903" fill="#cbd5e1" font-size="14" font-weight="400" text-anchor="start">• 补准入校验、放宽/收紧拓扑、退避熔断、checkpoint 恢复、节点隔</text>
<text x="562" y="924" fill="#cbd5e1" font-size="14" font-weight="400" text-anchor="start">  离、版本基线回归</text>
<path d="M 1190 805 L 1190 875 L 1060 875" fill="none" stroke="#16a34a" stroke-width="2.2" marker-end="url(#arrow-green)"/>
<rect x="1150.0" y="853" width="80" height="24" rx="6" fill="#ffffff" opacity="0.96"/>
<text x="1190" y="871" fill="#64748b" font-size="13" font-weight="700" text-anchor="middle">fix</text>
</svg>