<svg xmlns="http://www.w3.org/2000/svg" viewBox="0 0 1059 1520" font-family="-apple-system, PingFang SC, Microsoft YaHei, Helvetica, Arial, sans-serif">
<rect x="0" y="0" width="1059" height="1520" fill="#ffffff"/>
<path d="M 311.2,750.0 C 346.2,750.0 346.2,110.0 381.2,110.0" fill="none" stroke="#7c3aed" stroke-width="2.4" stroke-linecap="round"/>
<path d="M 470.6,110.0 C 531.6,110.0 531.6,70.0 592.6,70.0" fill="none" stroke="#7c3aed" stroke-width="2.4" stroke-linecap="round"/>
<path d="M 681.9,70.0 C 734.3,70.0 734.3,50.0 786.6,50.0" fill="none" stroke="#7c3aed" stroke-width="2.4" stroke-linecap="round"/>
<path d="M 681.9,70.0 C 734.3,70.0 734.3,90.0 786.6,90.0" fill="none" stroke="#7c3aed" stroke-width="2.4" stroke-linecap="round"/>
<path d="M 470.6,110.0 C 531.6,110.0 531.6,150.0 592.6,150.0" fill="none" stroke="#7c3aed" stroke-width="2.4" stroke-linecap="round"/>
<path d="M 681.9,150.0 C 734.3,150.0 734.3,130.0 786.6,130.0" fill="none" stroke="#7c3aed" stroke-width="2.4" stroke-linecap="round"/>
<path d="M 681.9,150.0 C 734.3,150.0 734.3,170.0 786.6,170.0" fill="none" stroke="#7c3aed" stroke-width="2.4" stroke-linecap="round"/>
<path d="M 311.2,750.0 C 346.2,750.0 346.2,270.0 381.2,270.0" fill="none" stroke="#2563eb" stroke-width="2.4" stroke-linecap="round"/>
<path d="M 470.6,270.0 C 531.6,270.0 531.6,230.0 592.6,230.0" fill="none" stroke="#2563eb" stroke-width="2.4" stroke-linecap="round"/>
<path d="M 681.9,230.0 C 734.3,230.0 734.3,210.0 786.6,210.0" fill="none" stroke="#2563eb" stroke-width="2.4" stroke-linecap="round"/>
<path d="M 681.9,230.0 C 734.3,230.0 734.3,250.0 786.6,250.0" fill="none" stroke="#2563eb" stroke-width="2.4" stroke-linecap="round"/>
<path d="M 470.6,270.0 C 531.6,270.0 531.6,310.0 592.6,310.0" fill="none" stroke="#2563eb" stroke-width="2.4" stroke-linecap="round"/>
<path d="M 681.9,310.0 C 734.3,310.0 734.3,290.0 786.6,290.0" fill="none" stroke="#2563eb" stroke-width="2.4" stroke-linecap="round"/>
<path d="M 681.9,310.0 C 734.3,310.0 734.3,330.0 786.6,330.0" fill="none" stroke="#2563eb" stroke-width="2.4" stroke-linecap="round"/>
<path d="M 311.2,750.0 C 346.2,750.0 346.2,430.0 381.2,430.0" fill="none" stroke="#0891b2" stroke-width="2.4" stroke-linecap="round"/>
<path d="M 487.9,430.0 C 540.2,430.0 540.2,390.0 592.6,390.0" fill="none" stroke="#0891b2" stroke-width="2.4" stroke-linecap="round"/>
<path d="M 716.6,390.0 C 751.6,390.0 751.6,370.0 786.6,370.0" fill="none" stroke="#0891b2" stroke-width="2.4" stroke-linecap="round"/>
<path d="M 716.6,390.0 C 751.6,390.0 751.6,410.0 786.6,410.0" fill="none" stroke="#0891b2" stroke-width="2.4" stroke-linecap="round"/>
<path d="M 487.9,430.0 C 540.2,430.0 540.2,470.0 592.6,470.0" fill="none" stroke="#0891b2" stroke-width="2.4" stroke-linecap="round"/>
<path d="M 681.9,470.0 C 734.3,470.0 734.3,450.0 786.6,450.0" fill="none" stroke="#0891b2" stroke-width="2.4" stroke-linecap="round"/>
<path d="M 681.9,470.0 C 734.3,470.0 734.3,490.0 786.6,490.0" fill="none" stroke="#0891b2" stroke-width="2.4" stroke-linecap="round"/>
<path d="M 311.2,750.0 C 346.2,750.0 346.2,610.0 381.2,610.0" fill="none" stroke="#dc2626" stroke-width="2.4" stroke-linecap="round"/>
<path d="M 470.6,610.0 C 531.6,610.0 531.6,550.0 592.6,550.0" fill="none" stroke="#dc2626" stroke-width="2.4" stroke-linecap="round"/>
<path d="M 681.9,550.0 C 734.3,550.0 734.3,530.0 786.6,530.0" fill="none" stroke="#dc2626" stroke-width="2.4" stroke-linecap="round"/>
<path d="M 681.9,550.0 C 734.3,550.0 734.3,570.0 786.6,570.0" fill="none" stroke="#dc2626" stroke-width="2.4" stroke-linecap="round"/>
<path d="M 470.6,610.0 C 531.6,610.0 531.6,610.0 592.6,610.0" fill="none" stroke="#dc2626" stroke-width="2.4" stroke-linecap="round"/>
<path d="M 681.9,610.0 C 734.3,610.0 734.3,610.0 786.6,610.0" fill="none" stroke="#dc2626" stroke-width="2.4" stroke-linecap="round"/>
<path d="M 470.6,610.0 C 531.6,610.0 531.6,670.0 592.6,670.0" fill="none" stroke="#dc2626" stroke-width="2.4" stroke-linecap="round"/>
<path d="M 681.9,670.0 C 734.3,670.0 734.3,650.0 786.6,650.0" fill="none" stroke="#dc2626" stroke-width="2.4" stroke-linecap="round"/>
<path d="M 681.9,670.0 C 734.3,670.0 734.3,690.0 786.6,690.0" fill="none" stroke="#dc2626" stroke-width="2.4" stroke-linecap="round"/>
<path d="M 311.2,750.0 C 346.2,750.0 346.2,790.0 381.2,790.0" fill="none" stroke="#ea580c" stroke-width="2.4" stroke-linecap="round"/>
<path d="M 487.9,790.0 C 540.2,790.0 540.2,790.0 592.6,790.0" fill="none" stroke="#ea580c" stroke-width="2.4" stroke-linecap="round"/>
<path d="M 681.9,790.0 C 734.3,790.0 734.3,730.0 786.6,730.0" fill="none" stroke="#ea580c" stroke-width="2.4" stroke-linecap="round"/>
<path d="M 681.9,790.0 C 734.3,790.0 734.3,770.0 786.6,770.0" fill="none" stroke="#ea580c" stroke-width="2.4" stroke-linecap="round"/>
<path d="M 681.9,790.0 C 734.3,790.0 734.3,810.0 786.6,810.0" fill="none" stroke="#ea580c" stroke-width="2.4" stroke-linecap="round"/>
<path d="M 681.9,790.0 C 734.3,790.0 734.3,850.0 786.6,850.0" fill="none" stroke="#ea580c" stroke-width="2.4" stroke-linecap="round"/>
<path d="M 311.2,750.0 C 346.2,750.0 346.2,950.0 381.2,950.0" fill="none" stroke="#059669" stroke-width="2.4" stroke-linecap="round"/>
<path d="M 522.6,950.0 C 557.6,950.0 557.6,910.0 592.6,910.0" fill="none" stroke="#059669" stroke-width="2.4" stroke-linecap="round"/>
<path d="M 681.9,910.0 C 734.3,910.0 734.3,890.0 786.6,890.0" fill="none" stroke="#059669" stroke-width="2.4" stroke-linecap="round"/>
<path d="M 681.9,910.0 C 734.3,910.0 734.3,930.0 786.6,930.0" fill="none" stroke="#059669" stroke-width="2.4" stroke-linecap="round"/>
<path d="M 522.6,950.0 C 557.6,950.0 557.6,990.0 592.6,990.0" fill="none" stroke="#059669" stroke-width="2.4" stroke-linecap="round"/>
<path d="M 664.6,990.0 C 725.6,990.0 725.6,970.0 786.6,970.0" fill="none" stroke="#059669" stroke-width="2.4" stroke-linecap="round"/>
<path d="M 664.6,990.0 C 725.6,990.0 725.6,1010.0 786.6,1010.0" fill="none" stroke="#059669" stroke-width="2.4" stroke-linecap="round"/>
<path d="M 311.2,750.0 C 346.2,750.0 346.2,1110.0 381.2,1110.0" fill="none" stroke="#d97706" stroke-width="2.4" stroke-linecap="round"/>
<path d="M 504.2,1110.0 C 548.4,1110.0 548.4,1070.0 592.6,1070.0" fill="none" stroke="#d97706" stroke-width="2.4" stroke-linecap="round"/>
<path d="M 675.8,1070.0 C 731.2,1070.0 731.2,1050.0 786.6,1050.0" fill="none" stroke="#d97706" stroke-width="2.4" stroke-linecap="round"/>
<path d="M 675.8,1070.0 C 731.2,1070.0 731.2,1090.0 786.6,1090.0" fill="none" stroke="#d97706" stroke-width="2.4" stroke-linecap="round"/>
<path d="M 504.2,1110.0 C 548.4,1110.0 548.4,1150.0 592.6,1150.0" fill="none" stroke="#d97706" stroke-width="2.4" stroke-linecap="round"/>
<path d="M 704.4,1150.0 C 745.5,1150.0 745.5,1130.0 786.6,1130.0" fill="none" stroke="#d97706" stroke-width="2.4" stroke-linecap="round"/>
<path d="M 704.4,1150.0 C 745.5,1150.0 745.5,1170.0 786.6,1170.0" fill="none" stroke="#d97706" stroke-width="2.4" stroke-linecap="round"/>
<path d="M 311.2,750.0 C 346.2,750.0 346.2,1240.0 381.2,1240.0" fill="none" stroke="#4f46e5" stroke-width="2.4" stroke-linecap="round"/>
<path d="M 470.6,1240.0 C 531.6,1240.0 531.6,1210.0 592.6,1210.0" fill="none" stroke="#4f46e5" stroke-width="2.4" stroke-linecap="round"/>
<path d="M 681.9,1210.0 C 734.3,1210.0 734.3,1210.0 786.6,1210.0" fill="none" stroke="#4f46e5" stroke-width="2.4" stroke-linecap="round"/>
<path d="M 470.6,1240.0 C 531.6,1240.0 531.6,1270.0 592.6,1270.0" fill="none" stroke="#4f46e5" stroke-width="2.4" stroke-linecap="round"/>
<path d="M 681.9,1270.0 C 734.3,1270.0 734.3,1250.0 786.6,1250.0" fill="none" stroke="#4f46e5" stroke-width="2.4" stroke-linecap="round"/>
<path d="M 681.9,1270.0 C 734.3,1270.0 734.3,1290.0 786.6,1290.0" fill="none" stroke="#4f46e5" stroke-width="2.4" stroke-linecap="round"/>
<path d="M 311.2,750.0 C 346.2,750.0 346.2,1390.0 381.2,1390.0" fill="none" stroke="#db2777" stroke-width="2.4" stroke-linecap="round"/>
<path d="M 470.6,1390.0 C 531.6,1390.0 531.6,1350.0 592.6,1350.0" fill="none" stroke="#db2777" stroke-width="2.4" stroke-linecap="round"/>
<path d="M 647.3,1350.0 C 716.9,1350.0 716.9,1330.0 786.6,1330.0" fill="none" stroke="#db2777" stroke-width="2.4" stroke-linecap="round"/>
<path d="M 647.3,1350.0 C 716.9,1350.0 716.9,1370.0 786.6,1370.0" fill="none" stroke="#db2777" stroke-width="2.4" stroke-linecap="round"/>
<path d="M 470.6,1390.0 C 531.6,1390.0 531.6,1430.0 592.6,1430.0" fill="none" stroke="#db2777" stroke-width="2.4" stroke-linecap="round"/>
<path d="M 647.3,1430.0 C 716.9,1430.0 716.9,1410.0 786.6,1410.0" fill="none" stroke="#db2777" stroke-width="2.4" stroke-linecap="round"/>
<path d="M 647.3,1430.0 C 716.9,1430.0 716.9,1450.0 786.6,1450.0" fill="none" stroke="#db2777" stroke-width="2.4" stroke-linecap="round"/>
<rect x="40" y="725.0" width="271.2" height="50" rx="11" fill="#1e293b"/>
<text x="175.6" y="757.0" text-anchor="middle" fill="#ffffff" font-size="20" font-weight="700">Soul-Bigeyes 事件中心</text>
<line x1="381.2" y1="110.0" x2="470.6" y2="110.0" stroke="#7c3aed" stroke-width="2.4" stroke-linecap="round"/>
<text x="391.2" y="102.0" fill="#7c3aed" font-size="17" font-weight="700">项目定位</text>
<line x1="592.6" y1="70.0" x2="681.9" y2="70.0" stroke="#7c3aed" stroke-width="2.4" stroke-linecap="round"/>
<text x="602.6" y="62.0" fill="#7c3aed" font-size="17" font-weight="600">整体定位</text>
<line x1="786.6" y1="50.0" x2="910.7" y2="50.0" stroke="#7c3aed" stroke-width="2.4" stroke-linecap="round"/>
<text x="796.6" y="42.0" fill="#1f2937" font-size="17" font-weight="400">统一事件中心</text>
<line x1="786.6" y1="90.0" x2="962.7" y2="90.0" stroke="#7c3aed" stroke-width="2.4" stroke-linecap="round"/>
<text x="796.6" y="82.0" fill="#1f2937" font-size="17" font-weight="400">告警是核心链路之一</text>
<line x1="592.6" y1="150.0" x2="681.9" y2="150.0" stroke="#7c3aed" stroke-width="2.4" stroke-linecap="round"/>
<text x="602.6" y="142.0" fill="#7c3aed" font-size="17" font-weight="600">演进路径</text>
<line x1="786.6" y1="130.0" x2="973.9" y2="130.0" stroke="#7c3aed" stroke-width="2.4" stroke-linecap="round"/>
<text x="796.6" y="122.0" fill="#1f2937" font-size="17" font-weight="400">报警中心 → 事件中心</text>
<line x1="786.6" y1="170.0" x2="928.0" y2="170.0" stroke="#7c3aed" stroke-width="2.4" stroke-linecap="round"/>
<text x="796.6" y="162.0" fill="#1f2937" font-size="17" font-weight="400">逐步替换老网关</text>
<line x1="381.2" y1="270.0" x2="470.6" y2="270.0" stroke="#2563eb" stroke-width="2.4" stroke-linecap="round"/>
<text x="391.2" y="262.0" fill="#2563eb" font-size="17" font-weight="700">总体架构</text>
<line x1="592.6" y1="230.0" x2="681.9" y2="230.0" stroke="#2563eb" stroke-width="2.4" stroke-linecap="round"/>
<text x="602.6" y="222.0" fill="#2563eb" font-size="17" font-weight="600">实时链路</text>
<line x1="786.6" y1="210.0" x2="952.1" y2="210.0" stroke="#2563eb" stroke-width="2.4" stroke-linecap="round"/>
<text x="796.6" y="202.0" fill="#1f2937" font-size="17" font-weight="400">接入 → MQ → 聚合</text>
<line x1="786.6" y1="250.0" x2="950.4" y2="250.0" stroke="#2563eb" stroke-width="2.4" stroke-linecap="round"/>
<text x="796.6" y="242.0" fill="#1f2937" font-size="17" font-weight="400">Piper 多渠道通知</text>
<line x1="592.6" y1="310.0" x2="681.9" y2="310.0" stroke="#2563eb" stroke-width="2.4" stroke-linecap="round"/>
<text x="602.6" y="302.0" fill="#2563eb" font-size="17" font-weight="600">运营汇聚</text>
<line x1="786.6" y1="290.0" x2="942.6" y2="290.0" stroke="#2563eb" stroke-width="2.4" stroke-linecap="round"/>
<text x="796.6" y="282.0" fill="#1f2937" font-size="17" font-weight="400">admin 查询·大盘</text>
<line x1="786.6" y1="330.0" x2="910.7" y2="330.0" stroke="#2563eb" stroke-width="2.4" stroke-linecap="round"/>
<text x="796.6" y="322.0" fill="#1f2937" font-size="17" font-weight="400">通用事件汇聚</text>
<line x1="381.2" y1="430.0" x2="487.9" y2="430.0" stroke="#0891b2" stroke-width="2.4" stroke-linecap="round"/>
<text x="391.2" y="422.0" fill="#0891b2" font-size="17" font-weight="700">告警主链路</text>
<line x1="592.6" y1="390.0" x2="716.6" y2="390.0" stroke="#0891b2" stroke-width="2.4" stroke-linecap="round"/>
<text x="602.6" y="382.0" fill="#0891b2" font-size="17" font-weight="600">两阶段流水线</text>
<line x1="786.6" y1="370.0" x2="893.3" y2="370.0" stroke="#0891b2" stroke-width="2.4" stroke-linecap="round"/>
<text x="796.6" y="362.0" fill="#1f2937" font-size="17" font-weight="400">先聚合入库</text>
<line x1="786.6" y1="410.0" x2="1009.3" y2="410.0" stroke="#0891b2" stroke-width="2.4" stroke-linecap="round"/>
<text x="796.6" y="402.0" fill="#1f2937" font-size="17" font-weight="400">再发 Spring Event 通知</text>
<line x1="592.6" y1="470.0" x2="681.9" y2="470.0" stroke="#0891b2" stroke-width="2.4" stroke-linecap="round"/>
<text x="602.6" y="462.0" fill="#0891b2" font-size="17" font-weight="600">渠道治理</text>
<line x1="786.6" y1="450.0" x2="876.0" y2="450.0" stroke="#0891b2" stroke-width="2.4" stroke-linecap="round"/>
<text x="796.6" y="442.0" fill="#1f2937" font-size="17" font-weight="400">级别路由</text>
<line x1="786.6" y1="490.0" x2="920.2" y2="490.0" stroke="#0891b2" stroke-width="2.4" stroke-linecap="round"/>
<text x="796.6" y="482.0" fill="#1f2937" font-size="17" font-weight="400">灰度·测试模式</text>
<line x1="381.2" y1="610.0" x2="470.6" y2="610.0" stroke="#dc2626" stroke-width="2.4" stroke-linecap="round"/>
<text x="391.2" y="602.0" fill="#dc2626" font-size="17" font-weight="700">关键设计</text>
<line x1="592.6" y1="550.0" x2="681.9" y2="550.0" stroke="#dc2626" stroke-width="2.4" stroke-linecap="round"/>
<text x="602.6" y="542.0" fill="#dc2626" font-size="17" font-weight="600">聚合分拣</text>
<line x1="786.6" y1="530.0" x2="955.5" y2="530.0" stroke="#dc2626" stroke-width="2.4" stroke-linecap="round"/>
<text x="796.6" y="522.0" fill="#1f2937" font-size="17" font-weight="400">fingerprint 四维</text>
<line x1="786.6" y1="570.0" x2="942.6" y2="570.0" stroke="#dc2626" stroke-width="2.4" stroke-linecap="round"/>
<text x="796.6" y="562.0" fill="#1f2937" font-size="17" font-weight="400">active 事件查找</text>
<line x1="592.6" y1="610.0" x2="681.9" y2="610.0" stroke="#dc2626" stroke-width="2.4" stroke-linecap="round"/>
<text x="602.6" y="602.0" fill="#dc2626" font-size="17" font-weight="600">唯一幂等</text>
<line x1="786.6" y1="610.0" x2="948.7" y2="610.0" stroke="#dc2626" stroke-width="2.4" stroke-linecap="round"/>
<text x="796.6" y="602.0" fill="#1f2937" font-size="17" font-weight="400">三层 DB 唯一约束</text>
<line x1="592.6" y1="670.0" x2="681.9" y2="670.0" stroke="#dc2626" stroke-width="2.4" stroke-linecap="round"/>
<text x="602.6" y="662.0" fill="#dc2626" font-size="17" font-weight="600">状态语义</text>
<line x1="786.6" y1="650.0" x2="928.0" y2="650.0" stroke="#dc2626" stroke-width="2.4" stroke-linecap="round"/>
<text x="796.6" y="642.0" fill="#1f2937" font-size="17" font-weight="400">恢复不自动关闭</text>
<line x1="786.6" y1="690.0" x2="907.9" y2="690.0" stroke="#dc2626" stroke-width="2.4" stroke-linecap="round"/>
<text x="796.6" y="682.0" fill="#1f2937" font-size="17" font-weight="400">抖动 reopen</text>
<line x1="381.2" y1="790.0" x2="487.9" y2="790.0" stroke="#ea580c" stroke-width="2.4" stroke-linecap="round"/>
<text x="391.2" y="782.0" fill="#ea580c" font-size="17" font-weight="700">稳定性治理</text>
<line x1="592.6" y1="790.0" x2="681.9" y2="790.0" stroke="#ea580c" stroke-width="2.4" stroke-linecap="round"/>
<text x="602.6" y="782.0" fill="#ea580c" font-size="17" font-weight="600">风暴四层</text>
<line x1="786.6" y1="730.0" x2="876.0" y2="730.0" stroke="#ea580c" stroke-width="2.4" stroke-linecap="round"/>
<text x="796.6" y="722.0" fill="#1f2937" font-size="17" font-weight="400">聚合收敛</text>
<line x1="786.6" y1="770.0" x2="876.0" y2="770.0" stroke="#ea580c" stroke-width="2.4" stroke-linecap="round"/>
<text x="796.6" y="762.0" fill="#1f2937" font-size="17" font-weight="400">渠道限流</text>
<line x1="786.6" y1="810.0" x2="876.0" y2="810.0" stroke="#ea580c" stroke-width="2.4" stroke-linecap="round"/>
<text x="796.6" y="802.0" fill="#1f2937" font-size="17" font-weight="400">抖动抑制</text>
<line x1="786.6" y1="850.0" x2="876.0" y2="850.0" stroke="#ea580c" stroke-width="2.4" stroke-linecap="round"/>
<text x="796.6" y="842.0" fill="#1f2937" font-size="17" font-weight="400">升级幂等</text>
<line x1="381.2" y1="950.0" x2="522.6" y2="950.0" stroke="#059669" stroke-width="2.4" stroke-linecap="round"/>
<text x="391.2" y="942.0" fill="#059669" font-size="17" font-weight="700">事件汇聚与运营</text>
<line x1="592.6" y1="910.0" x2="681.9" y2="910.0" stroke="#059669" stroke-width="2.4" stroke-linecap="round"/>
<text x="602.6" y="902.0" fill="#059669" font-size="17" font-weight="600">通用事件</text>
<line x1="786.6" y1="890.0" x2="955.5" y2="890.0" stroke="#059669" stroke-width="2.4" stroke-linecap="round"/>
<text x="796.6" y="882.0" fill="#1f2937" font-size="17" font-weight="400">event_local 同步</text>
<line x1="786.6" y1="930.0" x2="917.5" y2="930.0" stroke="#059669" stroke-width="2.4" stroke-linecap="round"/>
<text x="796.6" y="922.0" fill="#1f2937" font-size="17" font-weight="400">增量 XXL-JOB</text>
<line x1="592.6" y1="990.0" x2="664.6" y2="990.0" stroke="#059669" stroke-width="2.4" stroke-linecap="round"/>
<text x="602.6" y="982.0" fill="#059669" font-size="17" font-weight="600">运营面</text>
<line x1="786.6" y1="970.0" x2="876.0" y2="970.0" stroke="#059669" stroke-width="2.4" stroke-linecap="round"/>
<text x="796.6" y="962.0" fill="#1f2937" font-size="17" font-weight="400">统计大盘</text>
<line x1="786.6" y1="1010.0" x2="940.9" y2="1010.0" stroke="#059669" stroke-width="2.4" stroke-linecap="round"/>
<text x="796.6" y="1002.0" fill="#1f2937" font-size="17" font-weight="400">CMDB 只读元数据</text>
<line x1="381.2" y1="1110.0" x2="504.2" y2="1110.0" stroke="#d97706" stroke-width="2.4" stroke-linecap="round"/>
<text x="391.2" y="1102.0" fill="#d97706" font-size="17" font-weight="700">AI 与 Agent</text>
<line x1="592.6" y1="1070.0" x2="675.8" y2="1070.0" stroke="#d97706" stroke-width="2.4" stroke-linecap="round"/>
<text x="602.6" y="1062.0" fill="#d97706" font-size="17" font-weight="600">AI 根因</text>
<line x1="786.6" y1="1050.0" x2="876.0" y2="1050.0" stroke="#d97706" stroke-width="2.4" stroke-linecap="round"/>
<text x="796.6" y="1042.0" fill="#1f2937" font-size="17" font-weight="400">流式分析</text>
<line x1="786.6" y1="1090.0" x2="893.3" y2="1090.0" stroke="#d97706" stroke-width="2.4" stroke-linecap="round"/>
<text x="796.6" y="1082.0" fill="#1f2937" font-size="17" font-weight="400">异步不阻塞</text>
<line x1="592.6" y1="1150.0" x2="704.4" y2="1150.0" stroke="#d97706" stroke-width="2.4" stroke-linecap="round"/>
<text x="602.6" y="1142.0" fill="#d97706" font-size="17" font-weight="600">Agent 方向</text>
<line x1="786.6" y1="1130.0" x2="958.9" y2="1130.0" stroke="#d97706" stroke-width="2.4" stroke-linecap="round"/>
<text x="796.6" y="1122.0" fill="#1f2937" font-size="17" font-weight="400">oortcloud ai-mcp</text>
<line x1="786.6" y1="1170.0" x2="969.5" y2="1170.0" stroke="#d97706" stroke-width="2.4" stroke-linecap="round"/>
<text x="796.6" y="1162.0" fill="#1f2937" font-size="17" font-weight="400">Lark Bot（在建中）</text>
<line x1="381.2" y1="1240.0" x2="470.6" y2="1240.0" stroke="#4f46e5" stroke-width="2.4" stroke-linecap="round"/>
<text x="391.2" y="1232.0" fill="#4f46e5" font-size="17" font-weight="700">迁移治理</text>
<line x1="592.6" y1="1210.0" x2="681.9" y2="1210.0" stroke="#4f46e5" stroke-width="2.4" stroke-linecap="round"/>
<text x="602.6" y="1202.0" fill="#4f46e5" font-size="17" font-weight="600">灰度机制</text>
<line x1="786.6" y1="1210.0" x2="928.0" y2="1210.0" stroke="#4f46e5" stroke-width="2.4" stroke-linecap="round"/>
<text x="796.6" y="1202.0" fill="#1f2937" font-size="17" font-weight="400">部门级镜像配置</text>
<line x1="592.6" y1="1270.0" x2="681.9" y2="1270.0" stroke="#4f46e5" stroke-width="2.4" stroke-linecap="round"/>
<text x="602.6" y="1262.0" fill="#4f46e5" font-size="17" font-weight="600">切换顺序</text>
<line x1="786.6" y1="1250.0" x2="929.7" y2="1250.0" stroke="#4f46e5" stroke-width="2.4" stroke-linecap="round"/>
<text x="796.6" y="1242.0" fill="#1f2937" font-size="17" font-weight="400">验证·灰度·全量</text>
<line x1="786.6" y1="1290.0" x2="928.0" y2="1290.0" stroke="#4f46e5" stroke-width="2.4" stroke-linecap="round"/>
<text x="796.6" y="1282.0" fill="#1f2937" font-size="17" font-weight="400">先停老网关再开</text>
<line x1="381.2" y1="1390.0" x2="470.6" y2="1390.0" stroke="#db2777" stroke-width="2.4" stroke-linecap="round"/>
<text x="391.2" y="1382.0" fill="#db2777" font-size="17" font-weight="700">面试要点</text>
<line x1="592.6" y1="1350.0" x2="647.3" y2="1350.0" stroke="#db2777" stroke-width="2.4" stroke-linecap="round"/>
<text x="602.6" y="1342.0" fill="#db2777" font-size="17" font-weight="600">话术</text>
<line x1="786.6" y1="1330.0" x2="876.0" y2="1330.0" stroke="#db2777" stroke-width="2.4" stroke-linecap="round"/>
<text x="796.6" y="1322.0" fill="#1f2937" font-size="17" font-weight="400">三档话术</text>
<line x1="786.6" y1="1370.0" x2="910.7" y2="1370.0" stroke="#db2777" stroke-width="2.4" stroke-linecap="round"/>
<text x="796.6" y="1362.0" fill="#1f2937" font-size="17" font-weight="400">安全表达边界</text>
<line x1="592.6" y1="1430.0" x2="647.3" y2="1430.0" stroke="#db2777" stroke-width="2.4" stroke-linecap="round"/>
<text x="602.6" y="1422.0" fill="#db2777" font-size="17" font-weight="600">准备</text>
<line x1="786.6" y1="1410.0" x2="858.6" y2="1410.0" stroke="#db2777" stroke-width="2.4" stroke-linecap="round"/>
<text x="796.6" y="1402.0" fill="#1f2937" font-size="17" font-weight="400">追问树</text>
<line x1="786.6" y1="1450.0" x2="876.0" y2="1450.0" stroke="#db2777" stroke-width="2.4" stroke-linecap="round"/>
<text x="796.6" y="1442.0" fill="#1f2937" font-size="17" font-weight="400">高频问答</text>
</svg>