<svg xmlns="http://www.w3.org/2000/svg" viewBox="0 0 1200 760" width="1200" height="760">
  <style>
    text { font-family: 'Helvetica Neue', Helvetica, Arial, 'PingFang SC', 'Microsoft YaHei', 'Microsoft JhengHei', 'SimHei', sans-serif; }
    .title { font-size: 22px; font-weight: 700; fill: #111827; }
    .lane { font-size: 12px; font-weight: 700; fill: #374151; letter-spacing: .08em; }
    .node-title { font-size: 15px; font-weight: 700; fill: #111827; }
    .node-sub { font-size: 12px; fill: #6b7280; }
    .small { font-size: 11px; fill: #6b7280; }
    .arrow-label { font-size: 11px; fill: #374151; }
  </style>
  <defs>
    <marker id="arrow-blue" markerWidth="10" markerHeight="7" refX="9" refY="3.5" orient="auto">
      <polygon points="0 0, 10 3.5, 0 7" fill="#2563eb"/>
    </marker>
    <marker id="arrow-green" markerWidth="10" markerHeight="7" refX="9" refY="3.5" orient="auto">
      <polygon points="0 0, 10 3.5, 0 7" fill="#16a34a"/>
    </marker>
    <marker id="arrow-purple" markerWidth="10" markerHeight="7" refX="9" refY="3.5" orient="auto">
      <polygon points="0 0, 10 3.5, 0 7" fill="#9333ea"/>
    </marker>
    <marker id="arrow-red" markerWidth="10" markerHeight="7" refX="9" refY="3.5" orient="auto">
      <polygon points="0 0, 10 3.5, 0 7" fill="#dc2626"/>
    </marker>
  </defs>

  <rect width="1200" height="760" fill="#ffffff"/>
  <text x="40" y="42" class="title">Soul-Bigeyes 与 CMDB 交互过程</text>

  <rect x="32" y="78" width="1136" height="142" rx="10" fill="#eff6ff" stroke="#bfdbfe" stroke-dasharray="7,4"/>
  <text x="48" y="102" class="lane">CMDB READ MODEL</text>

  <path d="M92 134 C92 120, 252 120, 252 134 L252 182 C252 196, 92 196, 92 182 Z" fill="#ffffff" stroke="#d1d5db"/>
  <ellipse cx="172" cy="134" rx="80" ry="14" fill="#dbeafe" stroke="#bfdbfe"/>
  <text x="172" y="158" text-anchor="middle" class="node-title">CMDB MySQL</text>
  <text x="172" y="178" text-anchor="middle" class="node-sub">spring.datasource.cmdb</text>

  <rect x="335" y="118" width="184" height="78" rx="8" fill="#ffffff" stroke="#d1d5db"/>
  <text x="427" y="144" text-anchor="middle" class="node-title">category_* 资源表</text>
  <text x="427" y="164" text-anchor="middle" class="node-sub">application / ecs / rds</text>
  <text x="427" y="182" text-anchor="middle" class="node-sub">redis / domain / mq</text>

  <rect x="618" y="118" width="184" height="78" rx="8" fill="#ffffff" stroke="#d1d5db"/>
  <text x="710" y="144" text-anchor="middle" class="node-title">用户 / 部门表</text>
  <text x="710" y="164" text-anchor="middle" class="node-sub">account_user</text>
  <text x="710" y="182" text-anchor="middle" class="node-sub">user_department_lark</text>

  <rect x="890" y="118" width="214" height="78" rx="8" fill="#f0fdf4" stroke="#bbf7d0"/>
  <text x="997" y="144" text-anchor="middle" class="node-title">@DS(DataSourceType.CMDB)</text>
  <text x="997" y="164" text-anchor="middle" class="node-sub">CmdbCategoryMapper</text>
  <text x="997" y="182" text-anchor="middle" class="node-sub">CmdbUserMapper</text>

  <path d="M252 158 L335 158" stroke="#2563eb" stroke-width="2" fill="none" marker-end="url(#arrow-blue)"/>
  <path d="M519 158 L618 158" stroke="#2563eb" stroke-width="2" fill="none" stroke-dasharray="5,4" marker-end="url(#arrow-blue)"/>
  <path d="M802 158 L890 158" stroke="#2563eb" stroke-width="2" fill="none" marker-end="url(#arrow-blue)"/>
  <text x="289" y="146" text-anchor="middle" class="arrow-label">只读 SQL</text>
  <text x="568" y="146" text-anchor="middle" class="arrow-label">同库查询</text>
  <text x="845" y="146" text-anchor="middle" class="arrow-label">Mapper 路由</text>

  <rect x="32" y="252" width="1136" height="210" rx="10" fill="#faf5ff" stroke="#e9d5ff" stroke-dasharray="7,4"/>
  <text x="48" y="276" class="lane">BIGEYES ADMIN SYNC / QUERY</text>

  <rect x="80" y="318" width="190" height="72" rx="8" fill="#ffffff" stroke="#d1d5db"/>
  <text x="175" y="344" text-anchor="middle" class="node-title">CategorySyncJob</text>
  <text x="175" y="364" text-anchor="middle" class="node-sub">XXL-JOB 增量</text>
  <text x="175" y="382" text-anchor="middle" class="node-sub">5~10 min 建议</text>

  <rect x="344" y="318" width="206" height="72" rx="8" fill="#ffffff" stroke="#d1d5db"/>
  <text x="447" y="344" text-anchor="middle" class="node-title">CategorySyncService</text>
  <text x="447" y="364" text-anchor="middle" class="node-sub">分页 / 增量拉取</text>
  <text x="447" y="382" text-anchor="middle" class="node-sub">补齐 owner 部门</text>

  <rect x="344" y="412" width="206" height="34" rx="8" fill="#f0fdf4" stroke="#bbf7d0"/>
  <text x="447" y="434" text-anchor="middle" class="small">AdminUserCacheUtil：leader 部门缓存</text>

  <path d="M652 320 C652 304, 830 304, 830 320 L830 390 C830 406, 652 406, 652 390 Z" fill="#ffffff" stroke="#d1d5db"/>
  <ellipse cx="741" cy="320" rx="89" ry="16" fill="#ede9fe" stroke="#c4b5fd"/>
  <text x="741" y="350" text-anchor="middle" class="node-title">Bigeyes MySQL</text>
  <text x="741" y="370" text-anchor="middle" class="node-sub">category_local</text>
  <text x="741" y="388" text-anchor="middle" class="node-sub">本地资源缓存</text>

  <rect x="920" y="318" width="190" height="72" rx="8" fill="#ffffff" stroke="#d1d5db"/>
  <text x="1015" y="344" text-anchor="middle" class="node-title">AlarmCategory API</text>
  <text x="1015" y="364" text-anchor="middle" class="node-sub">/api/alarm/category/{type}</text>
  <text x="1015" y="382" text-anchor="middle" class="node-sub">资源筛选 / 我的资源</text>

  <path d="M270 354 L344 354" stroke="#9333ea" stroke-width="2" fill="none" marker-end="url(#arrow-purple)"/>
  <path d="M550 354 L652 354" stroke="#16a34a" stroke-width="2" fill="none" marker-end="url(#arrow-green)"/>
  <path d="M830 354 L920 354" stroke="#16a34a" stroke-width="2" fill="none" marker-end="url(#arrow-green)"/>
  <path d="M447 318 C500 250, 850 232, 997 196" stroke="#2563eb" stroke-width="2" fill="none" marker-end="url(#arrow-blue)"/>
  <path d="M710 196 C690 286, 590 400, 550 428" stroke="#2563eb" stroke-width="1.8" fill="none" stroke-dasharray="6,5" marker-end="url(#arrow-blue)"/>
  <path d="M447 412 L447 390" stroke="#16a34a" stroke-width="1.8" fill="none" marker-end="url(#arrow-green)"/>
  <text x="307" y="342" text-anchor="middle" class="arrow-label">触发</text>
  <text x="600" y="342" text-anchor="middle" class="arrow-label">upsert</text>
  <text x="875" y="342" text-anchor="middle" class="arrow-label">查询</text>
  <text x="684" y="252" text-anchor="middle" class="arrow-label">从 CMDB category_* 拉取</text>
  <text x="640" y="360" text-anchor="middle" class="arrow-label">leader 部门补齐</text>

  <rect x="80" y="410" width="190" height="34" rx="8" fill="#f9fafb" stroke="#e5e7eb"/>
  <text x="175" y="432" text-anchor="middle" class="small">手动入口：/api/sync/category/*</text>
  <path d="M175 410 L175 390" stroke="#9333ea" stroke-width="1.8" fill="none" marker-end="url(#arrow-purple)"/>

  <rect x="32" y="494" width="1136" height="158" rx="10" fill="#f0fdfa" stroke="#ccfbf1" stroke-dasharray="7,4"/>
  <text x="48" y="518" class="lane">REAL-TIME ALERT PATH</text>

  <rect x="80" y="552" width="166" height="58" rx="8" fill="#ffffff" stroke="#d1d5db"/>
  <text x="163" y="576" text-anchor="middle" class="node-title">老告警网关 / SDK</text>
  <text x="163" y="596" text-anchor="middle" class="node-sub">填充 owner / dept</text>

  <rect x="330" y="552" width="154" height="58" rx="23" fill="#f0fdf4" stroke="#bbf7d0"/>
  <text x="407" y="576" text-anchor="middle" class="node-title">RocketMQ</text>
  <text x="407" y="596" text-anchor="middle" class="node-sub">AlertEventMqMessage</text>

  <rect x="568" y="552" width="166" height="58" rx="8" fill="#ffffff" stroke="#d1d5db"/>
  <text x="651" y="576" text-anchor="middle" class="node-title">schedule</text>
  <text x="651" y="596" text-anchor="middle" class="node-sub">聚合 / 通知 / 落库</text>

  <rect x="818" y="552" width="190" height="58" rx="8" fill="#ffffff" stroke="#d1d5db"/>
  <text x="913" y="576" text-anchor="middle" class="node-title">Piper / 飞书</text>
  <text x="913" y="596" text-anchor="middle" class="node-sub">发送与交互回调</text>

  <rect x="1040" y="538" width="82" height="88" rx="8" fill="#fef2f2" stroke="#fecaca"/>
  <text x="1081" y="572" text-anchor="middle" class="node-title">CMDB</text>
  <text x="1081" y="592" text-anchor="middle" class="node-sub">不在</text>
  <text x="1081" y="610" text-anchor="middle" class="node-sub">实时链路</text>
  <line x1="1052" y1="548" x2="1110" y2="620" stroke="#dc2626" stroke-width="2"/>
  <line x1="1110" y1="548" x2="1052" y2="620" stroke="#dc2626" stroke-width="2"/>

  <path d="M246 581 L330 581" stroke="#16a34a" stroke-width="2" fill="none" marker-end="url(#arrow-green)"/>
  <path d="M484 581 L568 581" stroke="#16a34a" stroke-width="2" fill="none" marker-end="url(#arrow-green)"/>
  <path d="M734 581 L818 581" stroke="#16a34a" stroke-width="2" fill="none" marker-end="url(#arrow-green)"/>
  <path d="M995 581 L1040 581" stroke="#dc2626" stroke-width="2" fill="none" stroke-dasharray="6,5"/>
  <text x="288" y="568" text-anchor="middle" class="arrow-label">MQ 消息</text>
  <text x="526" y="568" text-anchor="middle" class="arrow-label">消费</text>
  <text x="776" y="568" text-anchor="middle" class="arrow-label">推送</text>

  <rect x="32" y="682" width="1136" height="50" rx="10" fill="#f9fafb" stroke="#e5e7eb"/>
  <line x1="52" y1="704" x2="90" y2="704" stroke="#2563eb" stroke-width="2" marker-end="url(#arrow-blue)"/>
  <text x="100" y="708" class="small">CMDB 只读查询</text>
  <line x1="220" y1="704" x2="258" y2="704" stroke="#9333ea" stroke-width="2" marker-end="url(#arrow-purple)"/>
  <text x="268" y="708" class="small">同步触发</text>
  <line x1="380" y1="704" x2="418" y2="704" stroke="#16a34a" stroke-width="2" marker-end="url(#arrow-green)"/>
  <text x="428" y="708" class="small">Bigeyes 本地数据/实时告警流</text>
  <line x1="650" y1="704" x2="688" y2="704" stroke="#dc2626" stroke-width="2" stroke-dasharray="6,5"/>
  <text x="698" y="708" class="small">非实时依赖边界</text>
  <text x="850" y="708" class="small">结论：admin 拉 CMDB 缓存资源；schedule 实时链路不查 CMDB。</text>
</svg>
