<svg xmlns="http://www.w3.org/2000/svg" viewBox="0 0 1023 1966" font-family="-apple-system, PingFang SC, Microsoft YaHei, Helvetica, Arial, sans-serif">
<rect x="0" y="0" width="1023" height="1966" fill="#ffffff"/>
<path d="M 282.8,1004.5 C 322.8,1004.5 322.8,165.0 362.8,165.0" fill="none" stroke="#7c3aed" stroke-width="2.4" stroke-linecap="round"/>
<path d="M 460.3,165.0 C 539.5,165.0 539.5,50.0 618.6,50.0" fill="none" stroke="#7c3aed" stroke-width="2.4" stroke-linecap="round"/>
<path d="M 460.3,165.0 C 539.5,165.0 539.5,96.0 618.6,96.0" fill="none" stroke="#7c3aed" stroke-width="2.4" stroke-linecap="round"/>
<path d="M 460.3,165.0 C 539.5,165.0 539.5,142.0 618.6,142.0" fill="none" stroke="#7c3aed" stroke-width="2.4" stroke-linecap="round"/>
<path d="M 460.3,165.0 C 539.5,165.0 539.5,188.0 618.6,188.0" fill="none" stroke="#7c3aed" stroke-width="2.4" stroke-linecap="round"/>
<path d="M 460.3,165.0 C 539.5,165.0 539.5,234.0 618.6,234.0" fill="none" stroke="#7c3aed" stroke-width="2.4" stroke-linecap="round"/>
<path d="M 460.3,165.0 C 539.5,165.0 539.5,280.0 618.6,280.0" fill="none" stroke="#7c3aed" stroke-width="2.4" stroke-linecap="round"/>
<path d="M 282.8,1004.5 C 322.8,1004.5 322.8,395.0 362.8,395.0" fill="none" stroke="#2563eb" stroke-width="2.4" stroke-linecap="round"/>
<path d="M 499.1,395.0 C 558.8,395.0 558.8,326.0 618.6,326.0" fill="none" stroke="#2563eb" stroke-width="2.4" stroke-linecap="round"/>
<path d="M 499.1,395.0 C 558.8,395.0 558.8,372.0 618.6,372.0" fill="none" stroke="#2563eb" stroke-width="2.4" stroke-linecap="round"/>
<path d="M 499.1,395.0 C 558.8,395.0 558.8,418.0 618.6,418.0" fill="none" stroke="#2563eb" stroke-width="2.4" stroke-linecap="round"/>
<path d="M 499.1,395.0 C 558.8,395.0 558.8,464.0 618.6,464.0" fill="none" stroke="#2563eb" stroke-width="2.4" stroke-linecap="round"/>
<path d="M 282.8,1004.5 C 322.8,1004.5 322.8,602.0 362.8,602.0" fill="none" stroke="#0891b2" stroke-width="2.4" stroke-linecap="round"/>
<path d="M 479.7,602.0 C 549.1,602.0 549.1,510.0 618.6,510.0" fill="none" stroke="#0891b2" stroke-width="2.4" stroke-linecap="round"/>
<path d="M 479.7,602.0 C 549.1,602.0 549.1,556.0 618.6,556.0" fill="none" stroke="#0891b2" stroke-width="2.4" stroke-linecap="round"/>
<path d="M 479.7,602.0 C 549.1,602.0 549.1,602.0 618.6,602.0" fill="none" stroke="#0891b2" stroke-width="2.4" stroke-linecap="round"/>
<path d="M 479.7,602.0 C 549.1,602.0 549.1,648.0 618.6,648.0" fill="none" stroke="#0891b2" stroke-width="2.4" stroke-linecap="round"/>
<path d="M 479.7,602.0 C 549.1,602.0 549.1,694.0 618.6,694.0" fill="none" stroke="#0891b2" stroke-width="2.4" stroke-linecap="round"/>
<path d="M 282.8,1004.5 C 322.8,1004.5 322.8,809.0 362.8,809.0" fill="none" stroke="#dc2626" stroke-width="2.4" stroke-linecap="round"/>
<path d="M 460.3,809.0 C 539.5,809.0 539.5,740.0 618.6,740.0" fill="none" stroke="#dc2626" stroke-width="2.4" stroke-linecap="round"/>
<path d="M 460.3,809.0 C 539.5,809.0 539.5,786.0 618.6,786.0" fill="none" stroke="#dc2626" stroke-width="2.4" stroke-linecap="round"/>
<path d="M 460.3,809.0 C 539.5,809.0 539.5,832.0 618.6,832.0" fill="none" stroke="#dc2626" stroke-width="2.4" stroke-linecap="round"/>
<path d="M 460.3,809.0 C 539.5,809.0 539.5,878.0 618.6,878.0" fill="none" stroke="#dc2626" stroke-width="2.4" stroke-linecap="round"/>
<path d="M 282.8,1004.5 C 322.8,1004.5 322.8,993.0 362.8,993.0" fill="none" stroke="#ea580c" stroke-width="2.4" stroke-linecap="round"/>
<path d="M 460.3,993.0 C 539.5,993.0 539.5,924.0 618.6,924.0" fill="none" stroke="#ea580c" stroke-width="2.4" stroke-linecap="round"/>
<path d="M 460.3,993.0 C 539.5,993.0 539.5,970.0 618.6,970.0" fill="none" stroke="#ea580c" stroke-width="2.4" stroke-linecap="round"/>
<path d="M 460.3,993.0 C 539.5,993.0 539.5,1016.0 618.6,1016.0" fill="none" stroke="#ea580c" stroke-width="2.4" stroke-linecap="round"/>
<path d="M 460.3,993.0 C 539.5,993.0 539.5,1062.0 618.6,1062.0" fill="none" stroke="#ea580c" stroke-width="2.4" stroke-linecap="round"/>
<path d="M 282.8,1004.5 C 322.8,1004.5 322.8,1200.0 362.8,1200.0" fill="none" stroke="#059669" stroke-width="2.4" stroke-linecap="round"/>
<path d="M 460.3,1200.0 C 539.5,1200.0 539.5,1108.0 618.6,1108.0" fill="none" stroke="#059669" stroke-width="2.4" stroke-linecap="round"/>
<path d="M 460.3,1200.0 C 539.5,1200.0 539.5,1154.0 618.6,1154.0" fill="none" stroke="#059669" stroke-width="2.4" stroke-linecap="round"/>
<path d="M 460.3,1200.0 C 539.5,1200.0 539.5,1200.0 618.6,1200.0" fill="none" stroke="#059669" stroke-width="2.4" stroke-linecap="round"/>
<path d="M 460.3,1200.0 C 539.5,1200.0 539.5,1246.0 618.6,1246.0" fill="none" stroke="#059669" stroke-width="2.4" stroke-linecap="round"/>
<path d="M 460.3,1200.0 C 539.5,1200.0 539.5,1292.0 618.6,1292.0" fill="none" stroke="#059669" stroke-width="2.4" stroke-linecap="round"/>
<path d="M 282.8,1004.5 C 322.8,1004.5 322.8,1407.0 362.8,1407.0" fill="none" stroke="#d97706" stroke-width="2.4" stroke-linecap="round"/>
<path d="M 460.3,1407.0 C 539.5,1407.0 539.5,1338.0 618.6,1338.0" fill="none" stroke="#d97706" stroke-width="2.4" stroke-linecap="round"/>
<path d="M 460.3,1407.0 C 539.5,1407.0 539.5,1384.0 618.6,1384.0" fill="none" stroke="#d97706" stroke-width="2.4" stroke-linecap="round"/>
<path d="M 460.3,1407.0 C 539.5,1407.0 539.5,1430.0 618.6,1430.0" fill="none" stroke="#d97706" stroke-width="2.4" stroke-linecap="round"/>
<path d="M 460.3,1407.0 C 539.5,1407.0 539.5,1476.0 618.6,1476.0" fill="none" stroke="#d97706" stroke-width="2.4" stroke-linecap="round"/>
<path d="M 282.8,1004.5 C 322.8,1004.5 322.8,1637.0 362.8,1637.0" fill="none" stroke="#4f46e5" stroke-width="2.4" stroke-linecap="round"/>
<path d="M 538.6,1637.0 C 578.6,1637.0 578.6,1522.0 618.6,1522.0" fill="none" stroke="#4f46e5" stroke-width="2.4" stroke-linecap="round"/>
<path d="M 538.6,1637.0 C 578.6,1637.0 578.6,1568.0 618.6,1568.0" fill="none" stroke="#4f46e5" stroke-width="2.4" stroke-linecap="round"/>
<path d="M 538.6,1637.0 C 578.6,1637.0 578.6,1614.0 618.6,1614.0" fill="none" stroke="#4f46e5" stroke-width="2.4" stroke-linecap="round"/>
<path d="M 538.6,1637.0 C 578.6,1637.0 578.6,1660.0 618.6,1660.0" fill="none" stroke="#4f46e5" stroke-width="2.4" stroke-linecap="round"/>
<path d="M 538.6,1637.0 C 578.6,1637.0 578.6,1706.0 618.6,1706.0" fill="none" stroke="#4f46e5" stroke-width="2.4" stroke-linecap="round"/>
<path d="M 538.6,1637.0 C 578.6,1637.0 578.6,1752.0 618.6,1752.0" fill="none" stroke="#4f46e5" stroke-width="2.4" stroke-linecap="round"/>
<path d="M 282.8,1004.5 C 322.8,1004.5 322.8,1844.0 362.8,1844.0" fill="none" stroke="#db2777" stroke-width="2.4" stroke-linecap="round"/>
<path d="M 460.3,1844.0 C 539.5,1844.0 539.5,1798.0 618.6,1798.0" fill="none" stroke="#db2777" stroke-width="2.4" stroke-linecap="round"/>
<path d="M 460.3,1844.0 C 539.5,1844.0 539.5,1844.0 618.6,1844.0" fill="none" stroke="#db2777" stroke-width="2.4" stroke-linecap="round"/>
<path d="M 460.3,1844.0 C 539.5,1844.0 539.5,1890.0 618.6,1890.0" fill="none" stroke="#db2777" stroke-width="2.4" stroke-linecap="round"/>
<rect x="40" y="979.5" width="242.8" height="50" rx="11" fill="#1e293b"/>
<text x="161.4" y="1011.5" text-anchor="middle" fill="#ffffff" font-size="20" font-weight="700">CUDA 与生成式推理栈</text>
<line x1="362.8" y1="165.0" x2="460.3" y2="165.0" stroke="#7c3aed" stroke-width="2.4" stroke-linecap="round"/>
<text x="372.8" y="157.0" fill="#7c3aed" font-size="19" font-weight="700">分层定位</text>
<line x1="618.6" y1="50.0" x2="922.1" y2="50.0" stroke="#7c3aed" stroke-width="2.4" stroke-linecap="round"/>
<text x="628.6" y="42.0" fill="#1f2937" font-size="19" font-weight="400">硬件 GPU(SM/TensorCore/HBM)</text>
<line x1="618.6" y1="96.0" x2="973.4" y2="96.0" stroke="#7c3aed" stroke-width="2.4" stroke-linecap="round"/>
<text x="628.6" y="88.0" fill="#1f2937" font-size="19" font-weight="400">Driver + CUDA Driver API(宿主机)</text>
<line x1="618.6" y1="142.0" x2="952.1" y2="142.0" stroke="#7c3aed" stroke-width="2.4" stroke-linecap="round"/>
<text x="628.6" y="134.0" fill="#1f2937" font-size="19" font-weight="400">CUDA Runtime + Toolkit(随镜像)</text>
<line x1="618.6" y1="188.0" x2="945.3" y2="188.0" stroke="#7c3aed" stroke-width="2.4" stroke-linecap="round"/>
<text x="628.6" y="180.0" fill="#1f2937" font-size="19" font-weight="400">库:cuDNN/cuBLAS/NCCL/TensorRT</text>
<line x1="618.6" y1="234.0" x2="900.8" y2="234.0" stroke="#7c3aed" stroke-width="2.4" stroke-linecap="round"/>
<text x="628.6" y="226.0" fill="#1f2937" font-size="19" font-weight="400">框架:PyTorch/vLLM/TRT-LLM</text>
<line x1="618.6" y1="280.0" x2="888.3" y2="280.0" stroke="#7c3aed" stroke-width="2.4" stroke-linecap="round"/>
<text x="628.6" y="272.0" fill="#1f2937" font-size="19" font-weight="400">K8s:device plugin 只调度</text>
<line x1="362.8" y1="395.0" x2="499.1" y2="395.0" stroke="#2563eb" stroke-width="2.4" stroke-linecap="round"/>
<text x="372.8" y="387.0" fill="#2563eb" font-size="19" font-weight="700">先校正的理解</text>
<line x1="618.6" y1="326.0" x2="924.4" y2="326.0" stroke="#2563eb" stroke-width="2.4" stroke-linecap="round"/>
<text x="628.6" y="318.0" fill="#1f2937" font-size="19" font-weight="400">不屏蔽硬件差异(只统一源码API)</text>
<line x1="618.6" y1="372.0" x2="868.1" y2="372.0" stroke="#2563eb" stroke-width="2.4" stroke-linecap="round"/>
<text x="628.6" y="364.0" fill="#1f2937" font-size="19" font-weight="400">PTX 向前兼容 ≠ 屏蔽架构</text>
<line x1="618.6" y1="418.0" x2="954.0" y2="418.0" stroke="#2563eb" stroke-width="2.4" stroke-linecap="round"/>
<text x="628.6" y="410.0" fill="#1f2937" font-size="19" font-weight="400">Driver API vs Runtime API 两层</text>
<line x1="618.6" y1="464.0" x2="925.1" y2="464.0" stroke="#2563eb" stroke-width="2.4" stroke-linecap="round"/>
<text x="628.6" y="456.0" fill="#1f2937" font-size="19" font-weight="400">TensorRT engine 绑架构要重编</text>
<line x1="362.8" y1="602.0" x2="479.7" y2="602.0" stroke="#0891b2" stroke-width="2.4" stroke-linecap="round"/>
<text x="372.8" y="594.0" fill="#0891b2" font-size="19" font-weight="700">它解决什么</text>
<line x1="618.6" y1="510.0" x2="836.2" y2="510.0" stroke="#0891b2" stroke-width="2.4" stroke-linecap="round"/>
<text x="628.6" y="502.0" fill="#1f2937" font-size="19" font-weight="400">把并行意图翻译给 GPU</text>
<line x1="618.6" y1="556.0" x2="778.1" y2="556.0" stroke="#0891b2" stroke-width="2.4" stroke-linecap="round"/>
<text x="628.6" y="548.0" fill="#1f2937" font-size="19" font-weight="400">PTX 跨代次兼容</text>
<line x1="618.6" y1="602.0" x2="854.4" y2="602.0" stroke="#0891b2" stroke-width="2.4" stroke-linecap="round"/>
<text x="628.6" y="594.0" fill="#1f2937" font-size="19" font-weight="400">cuDNN/cuBLAS 高频算子</text>
<line x1="618.6" y1="648.0" x2="769.3" y2="648.0" stroke="#0891b2" stroke-width="2.4" stroke-linecap="round"/>
<text x="628.6" y="640.0" fill="#1f2937" font-size="19" font-weight="400">NCCL 多卡通信</text>
<line x1="618.6" y1="694.0" x2="884.5" y2="694.0" stroke="#0891b2" stroke-width="2.4" stroke-linecap="round"/>
<text x="628.6" y="686.0" fill="#1f2937" font-size="19" font-weight="400">TensorRT/vLLM 压推理成本</text>
<line x1="362.8" y1="809.0" x2="460.3" y2="809.0" stroke="#dc2626" stroke-width="2.4" stroke-linecap="round"/>
<text x="372.8" y="801.0" fill="#dc2626" font-size="19" font-weight="700">请求链路</text>
<line x1="618.6" y1="740.0" x2="868.9" y2="740.0" stroke="#dc2626" stroke-width="2.4" stroke-linecap="round"/>
<text x="628.6" y="732.0" fill="#1f2937" font-size="19" font-weight="400">框架 batching/KV Cache</text>
<line x1="618.6" y1="786.0" x2="843.8" y2="786.0" stroke="#dc2626" stroke-width="2.4" stroke-linecap="round"/>
<text x="628.6" y="778.0" fill="#1f2937" font-size="19" font-weight="400">Runtime API 下发算子</text>
<line x1="618.6" y1="832.0" x2="826.3" y2="832.0" stroke="#dc2626" stroke-width="2.4" stroke-linecap="round"/>
<text x="628.6" y="824.0" fill="#1f2937" font-size="19" font-weight="400">Driver→GPU SM 执行</text>
<line x1="618.6" y1="878.0" x2="749.9" y2="878.0" stroke="#dc2626" stroke-width="2.4" stroke-linecap="round"/>
<text x="628.6" y="870.0" fill="#1f2937" font-size="19" font-weight="400">多卡走 NCCL</text>
<line x1="362.8" y1="993.0" x2="460.3" y2="993.0" stroke="#ea580c" stroke-width="2.4" stroke-linecap="round"/>
<text x="372.8" y="985.0" fill="#ea580c" font-size="19" font-weight="700">版本兼容</text>
<line x1="618.6" y1="924.0" x2="905.7" y2="924.0" stroke="#ea580c" stroke-width="2.4" stroke-linecap="round"/>
<text x="628.6" y="916.0" fill="#1f2937" font-size="19" font-weight="400">driver 对 runtime 向后兼容</text>
<line x1="618.6" y1="970.0" x2="833.2" y2="970.0" stroke="#ea580c" stroke-width="2.4" stroke-linecap="round"/>
<text x="628.6" y="962.0" fill="#1f2937" font-size="19" font-weight="400">镜像CUDA≤driver上限</text>
<line x1="618.6" y1="1016.0" x2="840.0" y2="1016.0" stroke="#ea580c" stroke-width="2.4" stroke-linecap="round"/>
<text x="628.6" y="1008.0" fill="#1f2937" font-size="19" font-weight="400">toolkit 注入宿主驱动</text>
<line x1="618.6" y1="1062.0" x2="890.2" y2="1062.0" stroke="#ea580c" stroke-width="2.4" stroke-linecap="round"/>
<text x="628.6" y="1054.0" fill="#1f2937" font-size="19" font-weight="400">driver insufficient 报错</text>
<line x1="362.8" y1="1200.0" x2="460.3" y2="1200.0" stroke="#059669" stroke-width="2.4" stroke-linecap="round"/>
<text x="372.8" y="1192.0" fill="#059669" font-size="19" font-weight="700">落地设计</text>
<line x1="618.6" y1="1108.0" x2="804.3" y2="1108.0" stroke="#059669" stroke-width="2.4" stroke-linecap="round"/>
<text x="628.6" y="1100.0" fill="#1f2937" font-size="19" font-weight="400">版本基线+兼容矩阵</text>
<line x1="618.6" y1="1154.0" x2="774.3" y2="1154.0" stroke="#059669" stroke-width="2.4" stroke-linecap="round"/>
<text x="628.6" y="1146.0" fill="#1f2937" font-size="19" font-weight="400">按卡型分池调度</text>
<line x1="618.6" y1="1200.0" x2="854.4" y2="1200.0" stroke="#059669" stroke-width="2.4" stroke-linecap="round"/>
<text x="628.6" y="1192.0" fill="#1f2937" font-size="19" font-weight="400">引擎选型 vLLM/TRT-LLM</text>
<line x1="618.6" y1="1246.0" x2="784.9" y2="1246.0" stroke="#059669" stroke-width="2.4" stroke-linecap="round"/>
<text x="628.6" y="1238.0" fill="#1f2937" font-size="19" font-weight="400">显存治理+可观测</text>
<line x1="618.6" y1="1292.0" x2="774.3" y2="1292.0" stroke="#059669" stroke-width="2.4" stroke-linecap="round"/>
<text x="628.6" y="1284.0" fill="#1f2937" font-size="19" font-weight="400">升级灰度可回滚</text>
<line x1="362.8" y1="1407.0" x2="460.3" y2="1407.0" stroke="#d97706" stroke-width="2.4" stroke-linecap="round"/>
<text x="372.8" y="1399.0" fill="#d97706" font-size="19" font-weight="700">排障路径</text>
<line x1="618.6" y1="1338.0" x2="827.5" y2="1338.0" stroke="#d97706" stroke-width="2.4" stroke-linecap="round"/>
<text x="628.6" y="1330.0" fill="#1f2937" font-size="19" font-weight="400">起不来:看CUDA版本错</text>
<line x1="618.6" y1="1384.0" x2="913.3" y2="1384.0" stroke="#d97706" stroke-width="2.4" stroke-linecap="round"/>
<text x="628.6" y="1376.0" fill="#1f2937" font-size="19" font-weight="400">慢:compute vs memory-bound</text>
<line x1="618.6" y1="1430.0" x2="882.6" y2="1430.0" stroke="#d97706" stroke-width="2.4" stroke-linecap="round"/>
<text x="628.6" y="1422.0" fill="#1f2937" font-size="19" font-weight="400">卡死:NCCL_DEBUG 拓扑超时</text>
<line x1="618.6" y1="1476.0" x2="854.4" y2="1476.0" stroke="#d97706" stroke-width="2.4" stroke-linecap="round"/>
<text x="628.6" y="1468.0" fill="#1f2937" font-size="19" font-weight="400">OOM:KVCache/并发/碎片</text>
<line x1="362.8" y1="1637.0" x2="538.6" y2="1637.0" stroke="#4f46e5" stroke-width="2.4" stroke-linecap="round"/>
<text x="372.8" y="1629.0" fill="#4f46e5" font-size="19" font-weight="700">Triton+CUDA实战</text>
<line x1="618.6" y1="1522.0" x2="911.8" y2="1522.0" stroke="#4f46e5" stroke-width="2.4" stroke-linecap="round"/>
<text x="628.6" y="1514.0" fill="#1f2937" font-size="19" font-weight="400">真碰过:版本/驱动不匹配起不来</text>
<line x1="618.6" y1="1568.0" x2="935.8" y2="1568.0" stroke="#4f46e5" stroke-width="2.4" stroke-linecap="round"/>
<text x="628.6" y="1560.0" fill="#1f2937" font-size="19" font-weight="400">异步报错:LAUNCH_BLOCKING 定位</text>
<line x1="618.6" y1="1614.0" x2="912.6" y2="1614.0" stroke="#4f46e5" stroke-width="2.4" stroke-linecap="round"/>
<text x="628.6" y="1606.0" fill="#1f2937" font-size="19" font-weight="400">sticky error:进程级重启自愈</text>
<line x1="618.6" y1="1660.0" x2="827.5" y2="1660.0" stroke="#4f46e5" stroke-width="2.4" stroke-linecap="round"/>
<text x="628.6" y="1652.0" fill="#1f2937" font-size="19" font-weight="400">OOM/碎片/显存不释放</text>
<line x1="618.6" y1="1706.0" x2="915.2" y2="1706.0" stroke="#4f46e5" stroke-width="2.4" stroke-linecap="round"/>
<text x="628.6" y="1698.0" fill="#1f2937" font-size="19" font-weight="400">device ordering:PCI_BUS_ID</text>
<line x1="618.6" y1="1752.0" x2="882.6" y2="1752.0" stroke="#4f46e5" stroke-width="2.4" stroke-linecap="round"/>
<text x="628.6" y="1744.0" fill="#1f2937" font-size="19" font-weight="400">TRT engine 版本/架构错配</text>
<line x1="362.8" y1="1844.0" x2="460.3" y2="1844.0" stroke="#db2777" stroke-width="2.4" stroke-linecap="round"/>
<text x="372.8" y="1836.0" fill="#db2777" font-size="19" font-weight="700">经验边界</text>
<line x1="618.6" y1="1798.0" x2="928.2" y2="1798.0" stroke="#db2777" stroke-width="2.4" stroke-linecap="round"/>
<text x="628.6" y="1790.0" fill="#1f2937" font-size="19" font-weight="400">真做:版本兼容/透传/Triton排查</text>
<line x1="618.6" y1="1844.0" x2="843.0" y2="1844.0" stroke="#db2777" stroke-width="2.4" stroke-linecap="round"/>
<text x="628.6" y="1836.0" fill="#1f2937" font-size="19" font-weight="400">社区通病:能排查不夸大</text>
<line x1="618.6" y1="1890.0" x2="889.4" y2="1890.0" stroke="#db2777" stroke-width="2.4" stroke-linecap="round"/>
<text x="628.6" y="1882.0" fill="#1f2937" font-size="19" font-weight="400">对标:kernel/算子/通信算法</text>
</svg>