<svg xmlns="http://www.w3.org/2000/svg" viewBox="0 0 808 1088" font-family="-apple-system, PingFang SC, Microsoft YaHei, Helvetica, Arial, sans-serif">
<rect x="0" y="0" width="808" height="1088" fill="#ffffff"/>
<path d="M 251.2,541.0 C 286.2,541.0 286.2,112.0 321.2,112.0" fill="none" stroke="#7c3aed" stroke-width="2.4" stroke-linecap="round"/>
<path d="M 427.9,112.0 C 473.3,112.0 473.3,46.0 518.6,46.0" fill="none" stroke="#7c3aed" stroke-width="2.4" stroke-linecap="round"/>
<path d="M 427.9,112.0 C 473.3,112.0 473.3,90.0 518.6,90.0" fill="none" stroke="#7c3aed" stroke-width="2.4" stroke-linecap="round"/>
<path d="M 427.9,112.0 C 473.3,112.0 473.3,134.0 518.6,134.0" fill="none" stroke="#7c3aed" stroke-width="2.4" stroke-linecap="round"/>
<path d="M 427.9,112.0 C 473.3,112.0 473.3,178.0 518.6,178.0" fill="none" stroke="#7c3aed" stroke-width="2.4" stroke-linecap="round"/>
<path d="M 251.2,541.0 C 286.2,541.0 286.2,266.0 321.2,266.0" fill="none" stroke="#2563eb" stroke-width="2.4" stroke-linecap="round"/>
<path d="M 407.8,266.0 C 463.2,266.0 463.2,222.0 518.6,222.0" fill="none" stroke="#2563eb" stroke-width="2.4" stroke-linecap="round"/>
<path d="M 407.8,266.0 C 463.2,266.0 463.2,266.0 518.6,266.0" fill="none" stroke="#2563eb" stroke-width="2.4" stroke-linecap="round"/>
<path d="M 407.8,266.0 C 463.2,266.0 463.2,310.0 518.6,310.0" fill="none" stroke="#2563eb" stroke-width="2.4" stroke-linecap="round"/>
<path d="M 251.2,541.0 C 286.2,541.0 286.2,398.0 321.2,398.0" fill="none" stroke="#0891b2" stroke-width="2.4" stroke-linecap="round"/>
<path d="M 436.4,398.0 C 477.5,398.0 477.5,354.0 518.6,354.0" fill="none" stroke="#0891b2" stroke-width="2.4" stroke-linecap="round"/>
<path d="M 436.4,398.0 C 477.5,398.0 477.5,398.0 518.6,398.0" fill="none" stroke="#0891b2" stroke-width="2.4" stroke-linecap="round"/>
<path d="M 436.4,398.0 C 477.5,398.0 477.5,442.0 518.6,442.0" fill="none" stroke="#0891b2" stroke-width="2.4" stroke-linecap="round"/>
<path d="M 251.2,541.0 C 286.2,541.0 286.2,552.0 321.2,552.0" fill="none" stroke="#dc2626" stroke-width="2.4" stroke-linecap="round"/>
<path d="M 410.6,552.0 C 464.6,552.0 464.6,486.0 518.6,486.0" fill="none" stroke="#dc2626" stroke-width="2.4" stroke-linecap="round"/>
<path d="M 410.6,552.0 C 464.6,552.0 464.6,530.0 518.6,530.0" fill="none" stroke="#dc2626" stroke-width="2.4" stroke-linecap="round"/>
<path d="M 410.6,552.0 C 464.6,552.0 464.6,574.0 518.6,574.0" fill="none" stroke="#dc2626" stroke-width="2.4" stroke-linecap="round"/>
<path d="M 410.6,552.0 C 464.6,552.0 464.6,618.0 518.6,618.0" fill="none" stroke="#dc2626" stroke-width="2.4" stroke-linecap="round"/>
<path d="M 251.2,541.0 C 286.2,541.0 286.2,706.0 321.2,706.0" fill="none" stroke="#ea580c" stroke-width="2.4" stroke-linecap="round"/>
<path d="M 410.6,706.0 C 464.6,706.0 464.6,662.0 518.6,662.0" fill="none" stroke="#ea580c" stroke-width="2.4" stroke-linecap="round"/>
<path d="M 410.6,706.0 C 464.6,706.0 464.6,706.0 518.6,706.0" fill="none" stroke="#ea580c" stroke-width="2.4" stroke-linecap="round"/>
<path d="M 410.6,706.0 C 464.6,706.0 464.6,750.0 518.6,750.0" fill="none" stroke="#ea580c" stroke-width="2.4" stroke-linecap="round"/>
<path d="M 251.2,541.0 C 286.2,541.0 286.2,838.0 321.2,838.0" fill="none" stroke="#059669" stroke-width="2.4" stroke-linecap="round"/>
<path d="M 448.6,838.0 C 483.6,838.0 483.6,794.0 518.6,794.0" fill="none" stroke="#059669" stroke-width="2.4" stroke-linecap="round"/>
<path d="M 448.6,838.0 C 483.6,838.0 483.6,838.0 518.6,838.0" fill="none" stroke="#059669" stroke-width="2.4" stroke-linecap="round"/>
<path d="M 448.6,838.0 C 483.6,838.0 483.6,882.0 518.6,882.0" fill="none" stroke="#059669" stroke-width="2.4" stroke-linecap="round"/>
<path d="M 251.2,541.0 C 286.2,541.0 286.2,970.0 321.2,970.0" fill="none" stroke="#db2777" stroke-width="2.4" stroke-linecap="round"/>
<path d="M 410.6,970.0 C 464.6,970.0 464.6,926.0 518.6,926.0" fill="none" stroke="#db2777" stroke-width="2.4" stroke-linecap="round"/>
<path d="M 410.6,970.0 C 464.6,970.0 464.6,970.0 518.6,970.0" fill="none" stroke="#db2777" stroke-width="2.4" stroke-linecap="round"/>
<path d="M 410.6,970.0 C 464.6,970.0 464.6,1014.0 518.6,1014.0" fill="none" stroke="#db2777" stroke-width="2.4" stroke-linecap="round"/>
<rect x="40" y="516.0" width="211.2" height="50" rx="11" fill="#1e293b"/>
<text x="145.6" y="548.0" text-anchor="middle" fill="#fff" font-size="20" font-weight="700">框架科普·SRE排查</text>
<line x1="321.2" y1="112.0" x2="427.9" y2="112.0" stroke="#7c3aed" stroke-width="2.4" stroke-linecap="round"/>
<text x="331.2" y="104.0" fill="#7c3aed" font-size="17" font-weight="700">框架是什么</text>
<line x1="518.6" y1="46.0" x2="679.1" y2="46.0" stroke="#7c3aed" stroke-width="2.4" stroke-linecap="round"/>
<text x="528.6" y="38.0" fill="#1f2937" font-size="17" font-weight="400">计算图 动态/静态</text>
<line x1="518.6" y1="90.0" x2="693.7" y2="90.0" stroke="#7c3aed" stroke-width="2.4" stroke-linecap="round"/>
<text x="528.6" y="82.0" fill="#1f2937" font-size="17" font-weight="400">autograd 训练核心</text>
<line x1="518.6" y1="134.0" x2="625.3" y2="134.0" stroke="#7c3aed" stroke-width="2.4" stroke-linecap="round"/>
<text x="528.6" y="126.0" fill="#1f2937" font-size="17" font-weight="400">分布式扩展</text>
<line x1="518.6" y1="178.0" x2="649.5" y2="178.0" stroke="#7c3aed" stroke-width="2.4" stroke-linecap="round"/>
<text x="528.6" y="170.0" fill="#1f2937" font-size="17" font-weight="400">serving 部署</text>
<line x1="321.2" y1="266.0" x2="407.8" y2="266.0" stroke="#2563eb" stroke-width="2.4" stroke-linecap="round"/>
<text x="331.2" y="258.0" fill="#2563eb" font-size="17" font-weight="700">PyTorch</text>
<line x1="518.6" y1="222.0" x2="647.8" y2="222.0" stroke="#2563eb" stroke-width="2.4" stroke-linecap="round"/>
<text x="528.6" y="214.0" fill="#1f2937" font-size="17" font-weight="400">动态图 eager</text>
<line x1="518.6" y1="266.0" x2="625.3" y2="266.0" stroke="#2563eb" stroke-width="2.4" stroke-linecap="round"/>
<text x="528.6" y="258.0" fill="#1f2937" font-size="17" font-weight="400">训练为主业</text>
<line x1="518.6" y1="310.0" x2="752.5" y2="310.0" stroke="#2563eb" stroke-width="2.4" stroke-linecap="round"/>
<text x="528.6" y="302.0" fill="#1f2937" font-size="17" font-weight="400">推理转 TorchScript/ONNX</text>
<line x1="321.2" y1="398.0" x2="436.4" y2="398.0" stroke="#0891b2" stroke-width="2.4" stroke-linecap="round"/>
<text x="331.2" y="390.0" fill="#0891b2" font-size="17" font-weight="700">TensorFlow</text>
<line x1="518.6" y1="354.0" x2="652.2" y2="354.0" stroke="#0891b2" stroke-width="2.4" stroke-linecap="round"/>
<text x="528.6" y="346.0" fill="#1f2937" font-size="17" font-weight="400">训练+推理都强</text>
<line x1="518.6" y1="398.0" x2="697.1" y2="398.0" stroke="#0891b2" stroke-width="2.4" stroke-linecap="round"/>
<text x="528.6" y="390.0" fill="#1f2937" font-size="17" font-weight="400">TF1静态/TF2 eager</text>
<line x1="518.6" y1="442.0" x2="700.5" y2="442.0" stroke="#0891b2" stroke-width="2.4" stroke-linecap="round"/>
<text x="528.6" y="434.0" fill="#1f2937" font-size="17" font-weight="400">TF Serving/TFLite</text>
<line x1="321.2" y1="552.0" x2="410.6" y2="552.0" stroke="#dc2626" stroke-width="2.4" stroke-linecap="round"/>
<text x="331.2" y="544.0" fill="#dc2626" font-size="17" font-weight="700">训练视角</text>
<line x1="518.6" y1="486.0" x2="696.4" y2="486.0" stroke="#dc2626" stroke-width="2.4" stroke-linecap="round"/>
<text x="528.6" y="478.0" fill="#1f2937" font-size="17" font-weight="400">吃显存 反向+优化器</text>
<line x1="518.6" y1="530.0" x2="666.8" y2="530.0" stroke="#dc2626" stroke-width="2.4" stroke-linecap="round"/>
<text x="528.6" y="522.0" fill="#1f2937" font-size="17" font-weight="400">分布式 NCCL/PS</text>
<line x1="518.6" y1="574.0" x2="678.0" y2="574.0" stroke="#dc2626" stroke-width="2.4" stroke-linecap="round"/>
<text x="528.6" y="566.0" fill="#1f2937" font-size="17" font-weight="400">checkpoint 容错</text>
<line x1="518.6" y1="618.0" x2="758.6" y2="618.0" stroke="#dc2626" stroke-width="2.4" stroke-linecap="round"/>
<text x="528.6" y="610.0" fill="#1f2937" font-size="17" font-weight="400">故障:Pending/卡死/OOM/慢</text>
<line x1="321.2" y1="706.0" x2="410.6" y2="706.0" stroke="#ea580c" stroke-width="2.4" stroke-linecap="round"/>
<text x="331.2" y="698.0" fill="#ea580c" font-size="17" font-weight="700">推理视角</text>
<line x1="518.6" y1="662.0" x2="590.7" y2="662.0" stroke="#ea580c" stroke-width="2.4" stroke-linecap="round"/>
<text x="528.6" y="654.0" fill="#1f2937" font-size="17" font-weight="400">只前向</text>
<line x1="518.6" y1="706.0" x2="674.6" y2="706.0" stroke="#ea580c" stroke-width="2.4" stroke-linecap="round"/>
<text x="528.6" y="698.0" fill="#1f2937" font-size="17" font-weight="400">延迟/吞吐/batch</text>
<line x1="518.6" y1="750.0" x2="740.6" y2="750.0" stroke="#ea580c" stroke-width="2.4" stroke-linecap="round"/>
<text x="528.6" y="742.0" fill="#1f2937" font-size="17" font-weight="400">故障:加载/延迟/利用率低</text>
<line x1="321.2" y1="838.0" x2="448.6" y2="838.0" stroke="#059669" stroke-width="2.4" stroke-linecap="round"/>
<text x="331.2" y="830.0" fill="#059669" font-size="17" font-weight="700">SRE 分层排查</text>
<line x1="518.6" y1="794.0" x2="686.9" y2="794.0" stroke="#059669" stroke-width="2.4" stroke-linecap="round"/>
<text x="528.6" y="786.0" fill="#1f2937" font-size="17" font-weight="400">基础设施层 平台侧</text>
<line x1="518.6" y1="838.0" x2="652.2" y2="838.0" stroke="#059669" stroke-width="2.4" stroke-linecap="round"/>
<text x="528.6" y="830.0" fill="#1f2937" font-size="17" font-weight="400">框架层 配合查</text>
<line x1="518.6" y1="882.0" x2="704.2" y2="882.0" stroke="#059669" stroke-width="2.4" stroke-linecap="round"/>
<text x="528.6" y="874.0" fill="#1f2937" font-size="17" font-weight="400">业务代码层 甩回业务</text>
<line x1="321.2" y1="970.0" x2="410.6" y2="970.0" stroke="#db2777" stroke-width="2.4" stroke-linecap="round"/>
<text x="331.2" y="962.0" fill="#db2777" font-size="17" font-weight="700">经验边界</text>
<line x1="518.6" y1="926.0" x2="657.3" y2="926.0" stroke="#db2777" stroke-width="2.4" stroke-linecap="round"/>
<text x="528.6" y="918.0" fill="#1f2937" font-size="17" font-weight="400">TFJob 熟·实践</text>
<line x1="518.6" y1="970.0" x2="649.5" y2="970.0" stroke="#db2777" stroke-width="2.4" stroke-linecap="round"/>
<text x="528.6" y="962.0" fill="#1f2937" font-size="17" font-weight="400">PyTorch 了解</text>
<line x1="518.6" y1="1014.0" x2="665.1" y2="1014.0" stroke="#db2777" stroke-width="2.4" stroke-linecap="round"/>
<text x="528.6" y="1006.0" fill="#1f2937" font-size="17" font-weight="400">NCCL/内核 对标</text>
</svg>