<svg xmlns="http://www.w3.org/2000/svg" width="1600" height="980" viewBox="0 0 1600 980">
  <defs>
    <style>
      .title { font: 700 40px "PingFang SC", "Microsoft YaHei", "Noto Sans CJK SC", Arial, sans-serif; fill: #0f172a; }
      .subtitle { font: 500 22px "PingFang SC", "Microsoft YaHei", "Noto Sans CJK SC", Arial, sans-serif; fill: #475569; }
      .node-title { font: 700 26px "PingFang SC", "Microsoft YaHei", "Noto Sans CJK SC", Arial, sans-serif; fill: #0f172a; }
      .node-text { font: 500 18px "PingFang SC", "Microsoft YaHei", "Noto Sans CJK SC", Arial, sans-serif; fill: #334155; }
      .small { font: 500 16px "PingFang SC", "Microsoft YaHei", "Noto Sans CJK SC", Arial, sans-serif; fill: #475569; }
    </style>
    <marker id="arrow" markerWidth="10" markerHeight="8" refX="9" refY="4" orient="auto" markerUnits="strokeWidth">
      <path d="M0,0 L10,4 L0,8 z" fill="#2563eb"/>
    </marker>
    <filter id="shadow" x="-20%" y="-20%" width="140%" height="140%">
      <feDropShadow dx="0" dy="2" stdDeviation="4" flood-color="#94a3b8" flood-opacity="0.35"/>
    </filter>
  </defs>

  <rect x="0" y="0" width="1600" height="980" fill="#f8fafc"/>

  <text x="800" y="68" text-anchor="middle" class="title">TFJob &#x8BCA;&#x65AD;&#x95ED;&#x73AF;&#x6D41;&#x7A0B;&#x56FE;</text>
  <text x="800" y="102" text-anchor="middle" class="subtitle">&#x75C7;&#x72B6; -&gt; &#x5047;&#x8BBE; -&gt; &#x9A8C;&#x8BC1; -&gt; &#x5F52;&#x56E0; -&gt; &#x52A8;&#x4F5C; -&gt; &#x590D;&#x6D4B;</text>

  <rect x="80" y="180" rx="20" ry="20" width="220" height="120" fill="#dbeafe" stroke="#3b82f6" stroke-width="2.5" filter="url(#shadow)"/>
  <text x="190" y="226" text-anchor="middle" class="node-title">&#x75C7;&#x72B6;</text>
  <text x="190" y="256" text-anchor="middle" class="node-text">GPU &#x5229;&#x7528;&#x7387;&#x4F4E;</text>
  <text x="190" y="282" text-anchor="middle" class="small">Running &#x4F46;&#x541E;&#x5410;&#x4E0B;&#x964D;</text>

  <rect x="340" y="180" rx="20" ry="20" width="220" height="120" fill="#e0e7ff" stroke="#6366f1" stroke-width="2.5" filter="url(#shadow)"/>
  <text x="450" y="226" text-anchor="middle" class="node-title">&#x5047;&#x8BBE;</text>
  <text x="450" y="256" text-anchor="middle" class="node-text">IO / CPU / &#x901A;&#x4FE1;</text>
  <text x="450" y="282" text-anchor="middle" class="small">checkpoint / &#x8BBE;&#x5907;&#x5F02;&#x5E38;</text>

  <rect x="600" y="180" rx="20" ry="20" width="220" height="120" fill="#dcfce7" stroke="#22c55e" stroke-width="2.5" filter="url(#shadow)"/>
  <text x="710" y="226" text-anchor="middle" class="node-title">&#x9A8C;&#x8BC1;</text>
  <text x="710" y="256" text-anchor="middle" class="node-text">&#x72B6;&#x6001; + &#x6307;&#x6807; + &#x4E8B;&#x4EF6;</text>
  <text x="710" y="282" text-anchor="middle" class="small">&#x65E5;&#x5FD7;&#x7247;&#x6BB5;&#x4EA4;&#x53C9;&#x786E;&#x8BA4;</text>

  <rect x="860" y="180" rx="20" ry="20" width="220" height="120" fill="#fef3c7" stroke="#f59e0b" stroke-width="2.5" filter="url(#shadow)"/>
  <text x="970" y="226" text-anchor="middle" class="node-title">&#x5F52;&#x56E0;</text>
  <text x="970" y="256" text-anchor="middle" class="node-text">&#x6570;&#x636E;&#x4F9B;&#x7ED9;&#x6162;</text>
  <text x="970" y="282" text-anchor="middle" class="small">&#x6216;&#x901A;&#x4FE1;&#x7B49;&#x5F85; / &#x5B58;&#x50A8;&#x6162;</text>

  <rect x="1120" y="180" rx="20" ry="20" width="220" height="120" fill="#fee2e2" stroke="#ef4444" stroke-width="2.5" filter="url(#shadow)"/>
  <text x="1230" y="226" text-anchor="middle" class="node-title">&#x52A8;&#x4F5C;</text>
  <text x="1230" y="256" text-anchor="middle" class="node-text">&#x8C03;&#x5E76;&#x53D1; / &#x8C03;&#x7F13;&#x5B58;</text>
  <text x="1230" y="282" text-anchor="middle" class="small">&#x8C03;&#x53C2;&#x6570; / &#x5FEB;&#x5931;&#x8D25;</text>

  <rect x="1380" y="180" rx="20" ry="20" width="140" height="120" fill="#f1f5f9" stroke="#64748b" stroke-width="2.5" filter="url(#shadow)"/>
  <text x="1450" y="226" text-anchor="middle" class="node-title">&#x590D;&#x6D4B;</text>
  <text x="1450" y="256" text-anchor="middle" class="node-text">&#x7A97;&#x53E3;&#x56DE;&#x770B;</text>
  <text x="1450" y="282" text-anchor="middle" class="small">&#x786E;&#x8BA4;&#x6062;&#x590D;</text>

  <line x1="300" y1="240" x2="340" y2="240" stroke="#2563eb" stroke-width="3" marker-end="url(#arrow)"/>
  <line x1="560" y1="240" x2="600" y2="240" stroke="#2563eb" stroke-width="3" marker-end="url(#arrow)"/>
  <line x1="820" y1="240" x2="860" y2="240" stroke="#2563eb" stroke-width="3" marker-end="url(#arrow)"/>
  <line x1="1080" y1="240" x2="1120" y2="240" stroke="#2563eb" stroke-width="3" marker-end="url(#arrow)"/>
  <line x1="1340" y1="240" x2="1380" y2="240" stroke="#2563eb" stroke-width="3" marker-end="url(#arrow)"/>

  <path d="M1450 304 C1450 390, 190 390, 190 304" fill="none" stroke="#7c3aed" stroke-width="3" marker-end="url(#arrow)"/>
  <text x="820" y="386" text-anchor="middle" class="node-text" fill="#7c3aed">&#x672A;&#x6062;&#x590D;&#x5219;&#x56DE;&#x5230;&#x201C;&#x5047;&#x8BBE;/&#x9A8C;&#x8BC1;&#x201D;&#x7EE7;&#x7EED;&#x8FED;&#x4EE3;</text>

  <rect x="80" y="470" rx="16" ry="16" width="1440" height="420" fill="#ffffff" stroke="#cbd5e1" stroke-width="2"/>
  <text x="120" y="520" class="node-title">&#x9A8C;&#x8BC1;&#x9636;&#x6BB5;&#x91CD;&#x70B9;&#x4FE1;&#x53F7;</text>

  <rect x="110" y="550" rx="14" ry="14" width="320" height="130" fill="#eef2ff" stroke="#6366f1" stroke-width="2"/>
  <text x="130" y="590" class="node-title">TFJob / Pod &#x72B6;&#x6001;</text>
  <text x="130" y="622" class="node-text">condition&#x3001;replica &#x72B6;&#x6001;</text>
  <text x="130" y="648" class="node-text">restart&#x3001;exitCode&#x3001;OOM</text>

  <rect x="460" y="550" rx="14" ry="14" width="320" height="130" fill="#ecfeff" stroke="#06b6d4" stroke-width="2"/>
  <text x="480" y="590" class="node-title">TensorBoard &#x6838;&#x5FC3;&#x6307;&#x6807;</text>
  <text x="480" y="622" class="node-text">global_step&#x3001;step_time</text>
  <text x="480" y="648" class="node-text">samples_per_sec&#x3001;loss&#x3001;checkpoint_age</text>

  <rect x="810" y="550" rx="14" ry="14" width="320" height="130" fill="#ecfccb" stroke="#84cc16" stroke-width="2"/>
  <text x="830" y="590" class="node-title">GPU / &#x8282;&#x70B9;&#x6307;&#x6807;</text>
  <text x="830" y="622" class="node-text">util&#x3001;memory&#x3001;XID/ECC</text>
  <text x="830" y="648" class="node-text">CPU&#x3001;&#x5185;&#x5B58;&#x3001;&#x8282;&#x70B9;&#x5F02;&#x5E38;</text>

  <rect x="1160" y="550" rx="14" ry="14" width="320" height="130" fill="#fff7ed" stroke="#f97316" stroke-width="2"/>
  <text x="1180" y="590" class="node-title">&#x4E8B;&#x4EF6;&#x4E0E;&#x65E5;&#x5FD7;</text>
  <text x="1180" y="622" class="node-text">&#x8C03;&#x5EA6;/&#x955C;&#x50CF;/PVC &#x4E8B;&#x4EF6;</text>
  <text x="1180" y="648" class="node-text">&#x5173;&#x952E;&#x9519;&#x8BEF;&#x65E5;&#x5FD7;&#x7247;&#x6BB5;</text>

  <line x1="270" y1="550" x2="640" y2="300" stroke="#64748b" stroke-width="2" stroke-dasharray="6 5"/>
  <line x1="620" y1="550" x2="690" y2="300" stroke="#64748b" stroke-width="2" stroke-dasharray="6 5"/>
  <line x1="970" y1="550" x2="740" y2="300" stroke="#64748b" stroke-width="2" stroke-dasharray="6 5"/>
  <line x1="1320" y1="550" x2="790" y2="300" stroke="#64748b" stroke-width="2" stroke-dasharray="6 5"/>

  <text x="800" y="742" text-anchor="middle" class="small">&#x5224;&#x5B9A;&#x89C4;&#x5219;&#xFF1A;&#x7EC4;&#x5408;&#x4FE1;&#x53F7; + &#x9636;&#x6BB5;&#x8C41;&#x514D;&#xFF08;eval / warmup / &#x957F; checkpoint&#xFF09;+ &#x544A;&#x8B66;&#x5206;&#x7EA7;</text>
  <text x="800" y="774" text-anchor="middle" class="small">&#x8F93;&#x51FA;&#x76EE;&#x6807;&#xFF1A;&#x53EF;&#x89E3;&#x91CA;&#x7ED3;&#x8BBA;&#x3001;&#x53EF;&#x6267;&#x884C;&#x52A8;&#x4F5C;&#x3001;&#x53EF;&#x9A8C;&#x8BC1;&#x590D;&#x6D4B;</text>
</svg>
