<svg xmlns="http://www.w3.org/2000/svg" viewBox="0 0 1560 820" font-family="-apple-system, PingFang SC, Microsoft YaHei, Helvetica, Arial, sans-serif">
<defs><marker id="arr" markerWidth="10" markerHeight="10" refX="8" refY="3" orient="auto"><path d="M0,0 L8,3 L0,6 Z" fill="#475569"/></marker></defs>
<rect x="0" y="0" width="1560" height="820" fill="#ffffff"/>
<text x="780.0" y="40.0" text-anchor="middle" fill="#0f172a" font-size="22" font-weight="700">业务把在线推理技改成 PD 分离 · 平台侧要做什么 + oncall 变化</text>
<rect x="50.0" y="360.0" width="150.0" height="90.0" rx="12" fill="#1e293b" stroke="#1e293b" stroke-width="2"/>
<text x="125.0" y="391.4" text-anchor="middle" fill="#ffffff" font-size="13" font-weight="700">业务诉求</text>
<text x="125.0" y="409.9" text-anchor="middle" fill="#ffffff" font-size="13" font-weight="400">单体→PD分离</text>
<text x="125.0" y="428.4" text-anchor="middle" fill="#ffffff" font-size="13" font-weight="400">TTFT/TPOT 分别优化</text>
<rect x="260.0" y="90.0" width="300.0" height="88.0" rx="10" fill="#eff6ff" stroke="#2563eb" stroke-width="2"/>
<text x="410.0" y="129.5" text-anchor="middle" fill="#1f2937" font-size="14" font-weight="700">①服务模型表达</text>
<text x="410.0" y="148.5" text-anchor="middle" fill="#1f2937" font-size="14" font-weight="400">单组件→多角色统一服务</text>
<path d="M 200.0,405.0 L 260.0,134.0" fill="none" stroke="#2563eb" stroke-width="2" marker-end="url(#arr)"/>
<rect x="260.0" y="196.0" width="300.0" height="88.0" rx="10" fill="#eff6ff" stroke="#2563eb" stroke-width="2"/>
<text x="410.0" y="235.5" text-anchor="middle" fill="#1f2937" font-size="14" font-weight="700">②资源池/拓扑</text>
<text x="410.0" y="254.5" text-anchor="middle" fill="#1f2937" font-size="14" font-weight="400">按角色绑池·KV近拓扑亲和</text>
<path d="M 200.0,405.0 L 260.0,240.0" fill="none" stroke="#2563eb" stroke-width="2" marker-end="url(#arr)"/>
<rect x="260.0" y="302.0" width="300.0" height="88.0" rx="10" fill="#eff6ff" stroke="#2563eb" stroke-width="2"/>
<text x="410.0" y="341.5" text-anchor="middle" fill="#1f2937" font-size="14" font-weight="700">③网络/KV传输</text>
<text x="410.0" y="360.5" text-anchor="middle" fill="#1f2937" font-size="14" font-weight="400">保障RDMA/NVLink·暴露KV指标</text>
<path d="M 200.0,405.0 L 260.0,346.0" fill="none" stroke="#2563eb" stroke-width="2" marker-end="url(#arr)"/>
<rect x="260.0" y="408.0" width="300.0" height="88.0" rx="10" fill="#eff6ff" stroke="#2563eb" stroke-width="2"/>
<text x="410.0" y="447.5" text-anchor="middle" fill="#1f2937" font-size="14" font-weight="700">④按角色扩缩容</text>
<text x="410.0" y="466.5" text-anchor="middle" fill="#1f2937" font-size="14" font-weight="400">分阶段指标驱动·维护比例</text>
<path d="M 200.0,405.0 L 260.0,452.0" fill="none" stroke="#2563eb" stroke-width="2" marker-end="url(#arr)"/>
<rect x="260.0" y="514.0" width="300.0" height="88.0" rx="10" fill="#eff6ff" stroke="#2563eb" stroke-width="2"/>
<text x="410.0" y="553.5" text-anchor="middle" fill="#1f2937" font-size="14" font-weight="700">⑤整组发布灰度</text>
<text x="410.0" y="572.5" text-anchor="middle" fill="#1f2937" font-size="14" font-weight="400">版本兼容·一起灰度回滚</text>
<path d="M 200.0,405.0 L 260.0,558.0" fill="none" stroke="#2563eb" stroke-width="2" marker-end="url(#arr)"/>
<rect x="260.0" y="620.0" width="300.0" height="88.0" rx="10" fill="#eff6ff" stroke="#2563eb" stroke-width="2"/>
<text x="410.0" y="659.5" text-anchor="middle" fill="#1f2937" font-size="14" font-weight="700">⑥状态聚合+观测</text>
<text x="410.0" y="678.5" text-anchor="middle" fill="#1f2937" font-size="14" font-weight="400">多组件聚合态·分阶段指标</text>
<path d="M 200.0,405.0 L 260.0,664.0" fill="none" stroke="#2563eb" stroke-width="2" marker-end="url(#arr)"/>
<text x="410.0" y="76.0" text-anchor="middle" fill="#2563eb" font-size="14" font-weight="700">平台侧六件事（蓝=我真实参与）</text>
<rect x="920.0" y="90.0" width="320.0" height="72.0" rx="10" fill="#fff7ed" stroke="#ea580c" stroke-width="2"/>
<text x="1080.0" y="121.6" text-anchor="middle" fill="#1f2937" font-size="13" font-weight="700">故障域 1→4</text>
<text x="1080.0" y="140.1" text-anchor="middle" fill="#1f2937" font-size="13" font-weight="400">Router/Prefill/Decode/KV</text>
<rect x="920.0" y="174.0" width="320.0" height="72.0" rx="10" fill="#fff7ed" stroke="#ea580c" stroke-width="2"/>
<text x="1080.0" y="205.6" text-anchor="middle" fill="#1f2937" font-size="13" font-weight="700">告警维度升级</text>
<text x="1080.0" y="224.1" text-anchor="middle" fill="#1f2937" font-size="13" font-weight="400">TTFT/TPOT/KV/比例失衡</text>
<rect x="920.0" y="258.0" width="320.0" height="72.0" rx="10" fill="#fff7ed" stroke="#ea580c" stroke-width="2"/>
<text x="1080.0" y="289.6" text-anchor="middle" fill="#1f2937" font-size="13" font-weight="700">比例失衡新值班项</text>
<text x="1080.0" y="308.1" text-anchor="middle" fill="#1f2937" font-size="13" font-weight="400">画像漂移打破P:D比例</text>
<rect x="920.0" y="342.0" width="320.0" height="72.0" rx="10" fill="#fff7ed" stroke="#ea580c" stroke-width="2"/>
<text x="1080.0" y="373.6" text-anchor="middle" fill="#1f2937" font-size="13" font-weight="700">定位先分阶段</text>
<text x="1080.0" y="392.1" text-anchor="middle" fill="#1f2937" font-size="13" font-weight="400">TTFT vs TPOT vs KV transfer</text>
<rect x="920.0" y="426.0" width="320.0" height="72.0" rx="10" fill="#fff7ed" stroke="#ea580c" stroke-width="2"/>
<text x="1080.0" y="457.6" text-anchor="middle" fill="#1f2937" font-size="13" font-weight="700">局部故障粒度</text>
<text x="1080.0" y="476.1" text-anchor="middle" fill="#1f2937" font-size="13" font-weight="400">单角色重启 vs 整组处理</text>
<rect x="920.0" y="510.0" width="320.0" height="72.0" rx="10" fill="#fff7ed" stroke="#ea580c" stroke-width="2"/>
<text x="1080.0" y="541.6" text-anchor="middle" fill="#1f2937" font-size="13" font-weight="700">回滚必须整组</text>
<text x="1080.0" y="560.1" text-anchor="middle" fill="#1f2937" font-size="13" font-weight="400">防 KV 版本不兼容</text>
<rect x="920.0" y="594.0" width="320.0" height="72.0" rx="10" fill="#fff7ed" stroke="#ea580c" stroke-width="2"/>
<text x="1080.0" y="625.6" text-anchor="middle" fill="#1f2937" font-size="13" font-weight="700">拓扑进一线排查</text>
<text x="1080.0" y="644.1" text-anchor="middle" fill="#1f2937" font-size="13" font-weight="400">RDMA/NVLink/同AZ 链路</text>
<text x="1080.0" y="76.0" text-anchor="middle" fill="#ea580c" font-size="14" font-weight="700">oncall 保障的变化</text>
<path d="M 560.0,452.0 L 920.0,378.0" fill="none" stroke="#94a3b8" stroke-width="2" marker-end="url(#arr)"/>
<rect x="1250.0" y="90.0" width="230.0" height="72.0" rx="10" fill="#fef2f2" stroke="#dc2626" stroke-width="2"/>
<text x="1365.0" y="113.0" text-anchor="middle" fill="#1f2937" font-size="12" font-weight="700">新增 runbook</text>
<text x="1365.0" y="130.5" text-anchor="middle" fill="#1f2937" font-size="12" font-weight="400">比例失衡/KV异常</text>
<text x="1365.0" y="148.0" text-anchor="middle" fill="#1f2937" font-size="12" font-weight="400">单角色OOM/Router过载</text>
<text x="780.0" y="796.0" text-anchor="middle" fill="#64748b" font-size="14" font-weight="400">本质：从「单服务稳定性」→「多角色 + KV transfer 新关键通路 的协同稳定性」；引擎内部不是我做的</text>
</svg>