<svg xmlns="http://www.w3.org/2000/svg" viewBox="0 0 846 1180" font-family="-apple-system, PingFang SC, Microsoft YaHei, Helvetica, Arial, sans-serif">
<rect x="0" y="0" width="846" height="1180" fill="#ffffff"/>
<path d="M 253.1,586.5 C 280.6,586.5 280.6,115.0 308.1,115.0" fill="none" stroke="#0891b2" stroke-width="2.4" stroke-linecap="round"/>
<path d="M 437.2,115.0 C 475.4,115.0 475.4,46.0 513.6,46.0" fill="none" stroke="#0891b2" stroke-width="2.4" stroke-linecap="round"/>
<path d="M 437.2,115.0 C 475.4,115.0 475.4,92.0 513.6,92.0" fill="none" stroke="#0891b2" stroke-width="2.4" stroke-linecap="round"/>
<path d="M 437.2,115.0 C 475.4,115.0 475.4,138.0 513.6,138.0" fill="none" stroke="#0891b2" stroke-width="2.4" stroke-linecap="round"/>
<path d="M 437.2,115.0 C 475.4,115.0 475.4,184.0 513.6,184.0" fill="none" stroke="#0891b2" stroke-width="2.4" stroke-linecap="round"/>
<path d="M 253.1,586.5 C 280.6,586.5 280.6,322.0 308.1,322.0" fill="none" stroke="#2563eb" stroke-width="2.4" stroke-linecap="round"/>
<path d="M 415.8,322.0 C 464.7,322.0 464.7,230.0 513.6,230.0" fill="none" stroke="#2563eb" stroke-width="2.4" stroke-linecap="round"/>
<path d="M 415.8,322.0 C 464.7,322.0 464.7,276.0 513.6,276.0" fill="none" stroke="#2563eb" stroke-width="2.4" stroke-linecap="round"/>
<path d="M 415.8,322.0 C 464.7,322.0 464.7,322.0 513.6,322.0" fill="none" stroke="#2563eb" stroke-width="2.4" stroke-linecap="round"/>
<path d="M 415.8,322.0 C 464.7,322.0 464.7,368.0 513.6,368.0" fill="none" stroke="#2563eb" stroke-width="2.4" stroke-linecap="round"/>
<path d="M 415.8,322.0 C 464.7,322.0 464.7,414.0 513.6,414.0" fill="none" stroke="#2563eb" stroke-width="2.4" stroke-linecap="round"/>
<path d="M 253.1,586.5 C 280.6,586.5 280.6,529.0 308.1,529.0" fill="none" stroke="#dc2626" stroke-width="2.4" stroke-linecap="round"/>
<path d="M 420.0,529.0 C 466.8,529.0 466.8,460.0 513.6,460.0" fill="none" stroke="#dc2626" stroke-width="2.4" stroke-linecap="round"/>
<path d="M 420.0,529.0 C 466.8,529.0 466.8,506.0 513.6,506.0" fill="none" stroke="#dc2626" stroke-width="2.4" stroke-linecap="round"/>
<path d="M 420.0,529.0 C 466.8,529.0 466.8,552.0 513.6,552.0" fill="none" stroke="#dc2626" stroke-width="2.4" stroke-linecap="round"/>
<path d="M 420.0,529.0 C 466.8,529.0 466.8,598.0 513.6,598.0" fill="none" stroke="#dc2626" stroke-width="2.4" stroke-linecap="round"/>
<path d="M 253.1,586.5 C 280.6,586.5 280.6,713.0 308.1,713.0" fill="none" stroke="#ea580c" stroke-width="2.4" stroke-linecap="round"/>
<path d="M 458.6,713.0 C 486.1,713.0 486.1,644.0 513.6,644.0" fill="none" stroke="#ea580c" stroke-width="2.4" stroke-linecap="round"/>
<path d="M 458.6,713.0 C 486.1,713.0 486.1,690.0 513.6,690.0" fill="none" stroke="#ea580c" stroke-width="2.4" stroke-linecap="round"/>
<path d="M 458.6,713.0 C 486.1,713.0 486.1,736.0 513.6,736.0" fill="none" stroke="#ea580c" stroke-width="2.4" stroke-linecap="round"/>
<path d="M 458.6,713.0 C 486.1,713.0 486.1,782.0 513.6,782.0" fill="none" stroke="#ea580c" stroke-width="2.4" stroke-linecap="round"/>
<path d="M 253.1,586.5 C 280.6,586.5 280.6,897.0 308.1,897.0" fill="none" stroke="#059669" stroke-width="2.4" stroke-linecap="round"/>
<path d="M 437.2,897.0 C 475.4,897.0 475.4,828.0 513.6,828.0" fill="none" stroke="#059669" stroke-width="2.4" stroke-linecap="round"/>
<path d="M 437.2,897.0 C 475.4,897.0 475.4,874.0 513.6,874.0" fill="none" stroke="#059669" stroke-width="2.4" stroke-linecap="round"/>
<path d="M 437.2,897.0 C 475.4,897.0 475.4,920.0 513.6,920.0" fill="none" stroke="#059669" stroke-width="2.4" stroke-linecap="round"/>
<path d="M 437.2,897.0 C 475.4,897.0 475.4,966.0 513.6,966.0" fill="none" stroke="#059669" stroke-width="2.4" stroke-linecap="round"/>
<path d="M 253.1,586.5 C 280.6,586.5 280.6,1058.0 308.1,1058.0" fill="none" stroke="#7c3aed" stroke-width="2.4" stroke-linecap="round"/>
<path d="M 415.8,1058.0 C 464.7,1058.0 464.7,1012.0 513.6,1012.0" fill="none" stroke="#7c3aed" stroke-width="2.4" stroke-linecap="round"/>
<path d="M 415.8,1058.0 C 464.7,1058.0 464.7,1058.0 513.6,1058.0" fill="none" stroke="#7c3aed" stroke-width="2.4" stroke-linecap="round"/>
<path d="M 415.8,1058.0 C 464.7,1058.0 464.7,1104.0 513.6,1104.0" fill="none" stroke="#7c3aed" stroke-width="2.4" stroke-linecap="round"/>
<rect x="40" y="557.5" width="213.1" height="58" rx="11" fill="#1e293b"/>
<text x="146.6" y="594.5" text-anchor="middle" fill="#fff" font-size="24" font-weight="700">搜推 SRE 保障</text>
<line x1="308.1" y1="115.0" x2="437.2" y2="115.0" stroke="#0891b2" stroke-width="2.4" stroke-linecap="round"/>
<text x="319.1" y="107.0" fill="#0891b2" font-size="21" font-weight="700">搜推在干嘛</text>
<line x1="513.6" y1="46.0" x2="796.9" y2="46.0" stroke="#0891b2" stroke-width="2.4" stroke-linecap="round"/>
<text x="524.6" y="38.0" fill="#1f2937" font-size="21" font-weight="400">召回-粗排-精排-重排 漏斗</text>
<line x1="513.6" y1="92.0" x2="664.2" y2="92.0" stroke="#0891b2" stroke-width="2.4" stroke-linecap="round"/>
<text x="524.6" y="84.0" fill="#1f2937" font-size="21" font-weight="400">严格延迟预算</text>
<line x1="513.6" y1="138.0" x2="718.8" y2="138.0" stroke="#0891b2" stroke-width="2.4" stroke-linecap="round"/>
<text x="524.6" y="130.0" fill="#1f2937" font-size="21" font-weight="400">模型/特征频繁更新</text>
<line x1="513.6" y1="184.0" x2="656.6" y2="184.0" stroke="#0891b2" stroke-width="2.4" stroke-linecap="round"/>
<text x="524.6" y="176.0" fill="#1f2937" font-size="21" font-weight="400">AB 实验分流</text>
<line x1="308.1" y1="322.0" x2="415.8" y2="322.0" stroke="#2563eb" stroke-width="2.4" stroke-linecap="round"/>
<text x="319.1" y="314.0" fill="#2563eb" font-size="21" font-weight="700">核心概念</text>
<line x1="513.6" y1="230.0" x2="761.6" y2="230.0" stroke="#2563eb" stroke-width="2.4" stroke-linecap="round"/>
<text x="524.6" y="222.0" fill="#1f2937" font-size="21" font-weight="400">漏斗四级 各为在线服务</text>
<line x1="513.6" y1="276.0" x2="718.8" y2="276.0" stroke="#2563eb" stroke-width="2.4" stroke-linecap="round"/>
<text x="524.6" y="268.0" fill="#1f2937" font-size="21" font-weight="400">特征平台/实时特征</text>
<line x1="513.6" y1="322.0" x2="642.7" y2="322.0" stroke="#2563eb" stroke-width="2.4" stroke-linecap="round"/>
<text x="524.6" y="314.0" fill="#1f2937" font-size="21" font-weight="400">模型热更新</text>
<line x1="513.6" y1="368.0" x2="656.6" y2="368.0" stroke="#2563eb" stroke-width="2.4" stroke-linecap="round"/>
<text x="524.6" y="360.0" fill="#1f2937" font-size="21" font-weight="400">低延迟高QPS</text>
<line x1="513.6" y1="414.0" x2="621.3" y2="414.0" stroke="#2563eb" stroke-width="2.4" stroke-linecap="round"/>
<text x="524.6" y="406.0" fill="#1f2937" font-size="21" font-weight="400">降级兜底</text>
<line x1="308.1" y1="529.0" x2="420.0" y2="529.0" stroke="#dc2626" stroke-width="2.4" stroke-linecap="round"/>
<text x="319.1" y="521.0" fill="#dc2626" font-size="21" font-weight="700">SRE 排查</text>
<line x1="513.6" y1="460.0" x2="718.8" y2="460.0" stroke="#dc2626" stroke-width="2.4" stroke-linecap="round"/>
<text x="524.6" y="452.0" fill="#1f2937" font-size="21" font-weight="400">延迟突增 分段定位</text>
<line x1="513.6" y1="506.0" x2="675.9" y2="506.0" stroke="#dc2626" stroke-width="2.4" stroke-linecap="round"/>
<text x="524.6" y="498.0" fill="#1f2937" font-size="21" font-weight="400">结果为空/劣化</text>
<line x1="513.6" y1="552.0" x2="697.3" y2="552.0" stroke="#dc2626" stroke-width="2.4" stroke-linecap="round"/>
<text x="524.6" y="544.0" fill="#1f2937" font-size="21" font-weight="400">更新后出事 回滚</text>
<line x1="513.6" y1="598.0" x2="718.8" y2="598.0" stroke="#dc2626" stroke-width="2.4" stroke-linecap="round"/>
<text x="524.6" y="590.0" fill="#1f2937" font-size="21" font-weight="400">高峰雪崩 限流降级</text>
<line x1="308.1" y1="713.0" x2="458.6" y2="713.0" stroke="#ea580c" stroke-width="2.4" stroke-linecap="round"/>
<text x="319.1" y="705.0" fill="#ea580c" font-size="21" font-weight="700">大模型落地难</text>
<line x1="513.6" y1="644.0" x2="685.6" y2="644.0" stroke="#ea580c" stroke-width="2.4" stroke-linecap="round"/>
<text x="524.6" y="636.0" fill="#1f2937" font-size="21" font-weight="400">延迟预算对不上</text>
<line x1="513.6" y1="690.0" x2="689.8" y2="690.0" stroke="#ea580c" stroke-width="2.4" stroke-linecap="round"/>
<text x="524.6" y="682.0" fill="#1f2937" font-size="21" font-weight="400">成本/ROI不成立</text>
<line x1="513.6" y1="736.0" x2="642.7" y2="736.0" stroke="#ea580c" stroke-width="2.4" stroke-linecap="round"/>
<text x="524.6" y="728.0" fill="#1f2937" font-size="21" font-weight="400">增量更新慢</text>
<line x1="513.6" y1="782.0" x2="742.3" y2="782.0" stroke="#ea580c" stroke-width="2.4" stroke-linecap="round"/>
<text x="524.6" y="774.0" fill="#1f2937" font-size="21" font-weight="400">可解释差 → 多为辅助</text>
<line x1="308.1" y1="897.0" x2="437.2" y2="897.0" stroke="#059669" stroke-width="2.4" stroke-linecap="round"/>
<text x="319.1" y="889.0" fill="#059669" font-size="21" font-weight="700">如果我来做</text>
<line x1="513.6" y1="828.0" x2="689.8" y2="828.0" stroke="#059669" stroke-width="2.4" stroke-linecap="round"/>
<text x="524.6" y="820.0" fill="#1f2937" font-size="21" font-weight="400">分段可观测 P99</text>
<line x1="513.6" y1="874.0" x2="664.2" y2="874.0" stroke="#059669" stroke-width="2.4" stroke-linecap="round"/>
<text x="524.6" y="866.0" fill="#1f2937" font-size="21" font-weight="400">分级降级体系</text>
<line x1="513.6" y1="920.0" x2="730.5" y2="920.0" stroke="#059669" stroke-width="2.4" stroke-linecap="round"/>
<text x="524.6" y="912.0" fill="#1f2937" font-size="21" font-weight="400">变更安全 灰度/回滚</text>
<line x1="513.6" y1="966.0" x2="664.2" y2="966.0" stroke="#059669" stroke-width="2.4" stroke-linecap="round"/>
<text x="524.6" y="958.0" fill="#1f2937" font-size="21" font-weight="400">容量过载保护</text>
<line x1="308.1" y1="1058.0" x2="415.8" y2="1058.0" stroke="#7c3aed" stroke-width="2.4" stroke-linecap="round"/>
<text x="319.1" y="1050.0" fill="#7c3aed" font-size="21" font-weight="700">经验边界</text>
<line x1="513.6" y1="1012.0" x2="718.8" y2="1012.0" stroke="#7c3aed" stroke-width="2.4" stroke-linecap="round"/>
<text x="524.6" y="1004.0" fill="#1f2937" font-size="21" font-weight="400">在线稳定性 可迁移</text>
<line x1="513.6" y1="1058.0" x2="718.8" y2="1058.0" stroke="#7c3aed" stroke-width="2.4" stroke-linecap="round"/>
<text x="524.6" y="1050.0" fill="#1f2937" font-size="21" font-weight="400">算法链路 对标了解</text>
<line x1="513.6" y1="1104.0" x2="685.6" y2="1104.0" stroke="#7c3aed" stroke-width="2.4" stroke-linecap="round"/>
<text x="524.6" y="1096.0" fill="#1f2937" font-size="21" font-weight="400">不假装算法出身</text>
</svg>