<svg xmlns="http://www.w3.org/2000/svg" viewBox="0 0 1700 840" font-family="-apple-system, PingFang SC, Microsoft YaHei, Helvetica, Arial, sans-serif">
<rect x="0" y="0" width="1700" height="840" fill="#f8fafc"/>
<text x="40" y="52" fill="#0f172a" font-size="29.3" font-weight="700">搜推在线漏斗 + 特征平台（SRE 关注层）</text>
<rect x="40" y="73" width="22" height="16" rx="3" fill="#2563eb"/>
<text x="70" y="86" fill="#334155" font-size="17.1">SRE 掌控/配合</text>
<rect x="290" y="73" width="22" height="16" rx="3" fill="#d97706"/>
<text x="320" y="86" fill="#334155" font-size="17.1">算法链路·对标了解</text>
<rect x="540" y="73" width="22" height="16" rx="3" fill="#dc2626"/>
<text x="570" y="86" fill="#334155" font-size="17.1">算法效果·业务侧</text>
<rect x="60" y="120" width="2" height="2" rx="10" fill="#fff" stroke="#fff" stroke-width="2"/>
<rect x="40" y="183" width="30" height="44" rx="6" fill="#0f172a" stroke="#0f172a" stroke-width="2"/>
<text x="55" y="209.5" text-anchor="middle" fill="#fff" font-size="17.1" font-weight="700">Client</text>
<rect x="120" y="150" width="300" height="110" rx="10" fill="#fffbeb" stroke="#d97706" stroke-width="2.4"/>
<text x="270" y="198.0" text-anchor="middle" fill="#334155" font-size="23.2" font-weight="700">召回</text>
<text x="270" y="226.0" text-anchor="middle" fill="#334155" font-size="22.0" font-weight="400">百万→千·多路并行</text>
<defs><marker id="ah64748b" markerWidth="9" markerHeight="9" refX="7" refY="3" orient="auto"><path d="M0,0 L7,3 L0,6 Z" fill="#64748b"/></marker></defs>
<path d="M 70,205 L 120,205" stroke="#64748b" stroke-width="2.4" fill="none" marker-end="url(#ah64748b)"/>
<rect x="466" y="150" width="300" height="110" rx="10" fill="#fffbeb" stroke="#d97706" stroke-width="2.4"/>
<text x="616" y="198.0" text-anchor="middle" fill="#334155" font-size="23.2" font-weight="700">粗排</text>
<text x="616" y="226.0" text-anchor="middle" fill="#334155" font-size="22.0" font-weight="400">千→百</text>
<defs><marker id="ah64748b" markerWidth="9" markerHeight="9" refX="7" refY="3" orient="auto"><path d="M0,0 L7,3 L0,6 Z" fill="#64748b"/></marker></defs>
<path d="M 720,205 L 466,205" stroke="#64748b" stroke-width="2.4" fill="none" marker-end="url(#ah64748b)"/>
<rect x="812" y="150" width="300" height="110" rx="10" fill="#fffbeb" stroke="#d97706" stroke-width="2.4"/>
<text x="962" y="198.0" text-anchor="middle" fill="#334155" font-size="23.2" font-weight="700">精排</text>
<text x="962" y="226.0" text-anchor="middle" fill="#334155" font-size="22.0" font-weight="400">百→十·最重</text>
<defs><marker id="ah64748b" markerWidth="9" markerHeight="9" refX="7" refY="3" orient="auto"><path d="M0,0 L7,3 L0,6 Z" fill="#64748b"/></marker></defs>
<path d="M 1066,205 L 812,205" stroke="#64748b" stroke-width="2.4" fill="none" marker-end="url(#ah64748b)"/>
<rect x="1158" y="150" width="300" height="110" rx="10" fill="#fffbeb" stroke="#d97706" stroke-width="2.4"/>
<text x="1308" y="198.0" text-anchor="middle" fill="#334155" font-size="23.2" font-weight="700">重排</text>
<text x="1308" y="226.0" text-anchor="middle" fill="#334155" font-size="22.0" font-weight="400">多样性/打散/规则</text>
<defs><marker id="ah64748b" markerWidth="9" markerHeight="9" refX="7" refY="3" orient="auto"><path d="M0,0 L7,3 L0,6 Z" fill="#64748b"/></marker></defs>
<path d="M 1412,205 L 1158,205" stroke="#64748b" stroke-width="2.4" fill="none" marker-end="url(#ah64748b)"/>
<defs><marker id="ah64748b" markerWidth="9" markerHeight="9" refX="7" refY="3" orient="auto"><path d="M0,0 L7,3 L0,6 Z" fill="#64748b"/></marker></defs>
<path d="M 1458,205 L 1504,205" stroke="#64748b" stroke-width="2.4" fill="none" marker-end="url(#ah64748b)"/>
<rect x="1504" y="183" width="70" height="44" rx="6" fill="#0f172a" stroke="#0f172a" stroke-width="2"/>
<text x="1539" y="209.5" text-anchor="middle" fill="#fff" font-size="17.1" font-weight="700">返回</text>
<text x="120" y="298" fill="#b45309" font-size="18.3" font-weight="700">整链路严格延迟预算（几十 ms 级）·每级独立超时+降级+监控</text>
<rect x="70" y="350" width="380" height="110" rx="10" fill="#eff6ff" stroke="#2563eb" stroke-width="2.2"/>
<text x="260" y="398.5" text-anchor="middle" fill="#334155" font-size="22.0" font-weight="700">特征平台</text>
<text x="260" y="424.5" text-anchor="middle" fill="#334155" font-size="20.7" font-weight="400">在线特征服务 + 实时/离线生产·进延迟预算</text>
<defs><marker id="ah94a3b8" markerWidth="9" markerHeight="9" refX="7" refY="3" orient="auto"><path d="M0,0 L7,3 L0,6 Z" fill="#94a3b8"/></marker></defs>
<path d="M 260,350 L 260,268" stroke="#94a3b8" stroke-width="1.8" fill="none" stroke-dasharray="6 5" marker-end="url(#ah94a3b8)"/>
<rect x="480" y="350" width="380" height="110" rx="10" fill="#eff6ff" stroke="#2563eb" stroke-width="2.2"/>
<text x="670" y="398.5" text-anchor="middle" fill="#334155" font-size="22.0" font-weight="700">模型服务</text>
<text x="670" y="424.5" text-anchor="middle" fill="#334155" font-size="20.7" font-weight="400">频繁热更新·灰度/AB/影子/回滚</text>
<defs><marker id="ah94a3b8" markerWidth="9" markerHeight="9" refX="7" refY="3" orient="auto"><path d="M0,0 L7,3 L0,6 Z" fill="#94a3b8"/></marker></defs>
<path d="M 670,350 L 670,268" stroke="#94a3b8" stroke-width="1.8" fill="none" stroke-dasharray="6 5" marker-end="url(#ah94a3b8)"/>
<rect x="890" y="350" width="380" height="110" rx="10" fill="#eff6ff" stroke="#2563eb" stroke-width="2.2"/>
<text x="1080" y="398.5" text-anchor="middle" fill="#334155" font-size="22.0" font-weight="700">缓存层</text>
<text x="1080" y="424.5" text-anchor="middle" fill="#334155" font-size="20.7" font-weight="400">用户/物品/结果缓存·命中率是命门</text>
<defs><marker id="ah94a3b8" markerWidth="9" markerHeight="9" refX="7" refY="3" orient="auto"><path d="M0,0 L7,3 L0,6 Z" fill="#94a3b8"/></marker></defs>
<path d="M 1080,350 L 1080,268" stroke="#94a3b8" stroke-width="1.8" fill="none" stroke-dasharray="6 5" marker-end="url(#ah94a3b8)"/>
<rect x="1300" y="350" width="380" height="110" rx="10" fill="#eff6ff" stroke="#2563eb" stroke-width="2.2"/>
<text x="1490" y="398.5" text-anchor="middle" fill="#334155" font-size="22.0" font-weight="700">AB 实验</text>
<text x="1490" y="424.5" text-anchor="middle" fill="#334155" font-size="20.7" font-weight="400">分流一致性·配置变更风险</text>
<defs><marker id="ah94a3b8" markerWidth="9" markerHeight="9" refX="7" refY="3" orient="auto"><path d="M0,0 L7,3 L0,6 Z" fill="#94a3b8"/></marker></defs>
<path d="M 1490,350 L 1490,268" stroke="#94a3b8" stroke-width="1.8" fill="none" stroke-dasharray="6 5" marker-end="url(#ah94a3b8)"/>
<rect x="40" y="500" width="1620" height="58" rx="12" fill="#0f172a" stroke="#0f172a" stroke-width="2"/>
<text x="850" y="535.0" text-anchor="middle" fill="#e2e8f0" font-size="20.7" font-weight="700">SRE 关注：P99 长尾延迟 · 各级耗时分段 · 缓存命中 · 降级触发率 · 特征缺失率 · 模型版本 · 容量水位</text>
</svg>