<svg xmlns="http://www.w3.org/2000/svg" viewBox="0 0 1740 980" font-family="-apple-system, PingFang SC, Microsoft YaHei, Helvetica, Arial, sans-serif">
<rect x="0" y="0" width="1740" height="980" fill="#f8fafc"/>
<text x="40" y="52" fill="#0f172a" font-size="29.3" font-weight="700">搜推在线服务排障决策树（先降级止血，再定根因）</text>
<rect x="40" y="71" width="22" height="16" rx="3" fill="#2563eb"/>
<text x="70" y="84" fill="#334155" font-size="17.1">平台侧·SRE 处理</text>
<rect x="290" y="71" width="22" height="16" rx="3" fill="#d97706"/>
<text x="320" y="84" fill="#334155" font-size="17.1">链路配置·SRE 配合</text>
<rect x="540" y="71" width="22" height="16" rx="3" fill="#dc2626"/>
<text x="570" y="84" fill="#334155" font-size="17.1">算法/特征·业务侧</text>
<rect x="40" y="110" width="250" height="72" rx="12" fill="#0f172a" stroke="#0f172a" stroke-width="2"/>
<text x="165" y="140.0" text-anchor="middle" fill="#fff" font-size="20.7" font-weight="700">搜推报障</text>
<text x="165" y="164.0" text-anchor="middle" fill="#fff" font-size="19.5" font-weight="400">保:有结果不超时</text>
<defs><marker id="ah94a3b8" markerWidth="9" markerHeight="9" refX="7" refY="3" orient="auto"><path d="M0,0 L7,3 L0,6 Z" fill="#94a3b8"/></marker></defs>
<path d="M 290,146 L 318,200" stroke="#94a3b8" stroke-width="2.0" fill="none" marker-end="url(#ah94a3b8)"/>
<rect x="330" y="110" width="250" height="180" rx="12" fill="#d97706" stroke="#d97706" stroke-width="2"/>
<text x="455" y="206.0" text-anchor="middle" fill="#fff" font-size="20.7" font-weight="700">延迟突增 / P99 飙高</text>
<rect x="596" y="110" width="359" height="180" rx="9" fill="#f1f5f9" stroke="#d97706" stroke-width="1.6"/>
<text x="610" y="138" fill="#d97706" font-size="17.1" font-weight="700">可能原因</text>
<text x="610" y="164" fill="#334155" font-size="16.5">某级慢(精排)/特征慢/缓存掉/</text>
<text x="610" y="186" fill="#334155" font-size="16.5">下游抖/容量满</text>
<rect x="969" y="110" width="359" height="180" rx="9" fill="#eef2ff" stroke="#d97706" stroke-width="1.6"/>
<text x="983" y="138" fill="#d97706" font-size="17.1" font-weight="700">怎么验证</text>
<text x="983" y="164" fill="#334155" font-size="16.5">按链路分段看各级耗时+缓存命中+</text>
<text x="983" y="186" fill="#334155" font-size="16.5">水位</text>
<rect x="1341" y="110" width="359" height="180" rx="9" fill="#fffbeb" stroke="#d97706" stroke-width="1.6"/>
<text x="1355" y="138" fill="#d97706" font-size="17.1" font-weight="700">结论/责任方</text>
<text x="1355" y="164" fill="#334155" font-size="16.5">先降级慢的那级止血·容量平台扩</text>
<defs><marker id="ah94a3b8" markerWidth="9" markerHeight="9" refX="7" refY="3" orient="auto"><path d="M0,0 L7,3 L0,6 Z" fill="#94a3b8"/></marker></defs>
<path d="M 290,146 L 318,396" stroke="#94a3b8" stroke-width="2.0" fill="none" marker-end="url(#ah94a3b8)"/>
<rect x="330" y="306" width="250" height="180" rx="12" fill="#dc2626" stroke="#dc2626" stroke-width="2"/>
<text x="455" y="402.0" text-anchor="middle" fill="#fff" font-size="20.7" font-weight="700">结果为空 / 质量劣化</text>
<rect x="596" y="306" width="359" height="180" rx="9" fill="#f1f5f9" stroke="#dc2626" stroke-width="1.6"/>
<text x="610" y="334" fill="#dc2626" font-size="17.1" font-weight="700">可能原因</text>
<text x="610" y="360" fill="#334155" font-size="16.5">召回挂/特征大面积缺失/新模型劣</text>
<text x="610" y="382" fill="#334155" font-size="16.5">化/降级没恢复</text>
<rect x="969" y="306" width="359" height="180" rx="9" fill="#eef2ff" stroke="#dc2626" stroke-width="1.6"/>
<text x="983" y="334" fill="#dc2626" font-size="17.1" font-weight="700">怎么验证</text>
<text x="983" y="360" fill="#334155" font-size="16.5">看召回各路返回·特征缺失率·模型</text>
<text x="983" y="382" fill="#334155" font-size="16.5">版本·降级开关</text>
<rect x="1341" y="306" width="359" height="180" rx="9" fill="#fef2f2" stroke="#dc2626" stroke-width="1.6"/>
<text x="1355" y="334" fill="#dc2626" font-size="17.1" font-weight="700">结论/责任方</text>
<text x="1355" y="360" fill="#334155" font-size="16.5">召回特征定位到路·模型劣化回滚</text>
<defs><marker id="ah94a3b8" markerWidth="9" markerHeight="9" refX="7" refY="3" orient="auto"><path d="M0,0 L7,3 L0,6 Z" fill="#94a3b8"/></marker></defs>
<path d="M 290,146 L 318,592" stroke="#94a3b8" stroke-width="2.0" fill="none" marker-end="url(#ah94a3b8)"/>
<rect x="330" y="502" width="250" height="180" rx="12" fill="#dc2626" stroke="#dc2626" stroke-width="2"/>
<text x="455" y="598.0" text-anchor="middle" fill="#fff" font-size="20.7" font-weight="700">模型/特征更新后出事</text>
<rect x="596" y="502" width="359" height="180" rx="9" fill="#f1f5f9" stroke="#dc2626" stroke-width="1.6"/>
<text x="610" y="530" fill="#dc2626" font-size="17.1" font-weight="700">可能原因</text>
<text x="610" y="556" fill="#334155" font-size="16.5">新版本劣化/特征穿越/在线离线不</text>
<text x="610" y="578" fill="#334155" font-size="16.5">一致/更新抖动</text>
<rect x="969" y="502" width="359" height="180" rx="9" fill="#eef2ff" stroke="#dc2626" stroke-width="1.6"/>
<text x="983" y="530" fill="#dc2626" font-size="17.1" font-weight="700">怎么验证</text>
<text x="983" y="556" fill="#334155" font-size="16.5">对比更新前后指标·特征版本·灰度</text>
<text x="983" y="578" fill="#334155" font-size="16.5">AB数据</text>
<rect x="1341" y="502" width="359" height="180" rx="9" fill="#fef2f2" stroke="#dc2626" stroke-width="1.6"/>
<text x="1355" y="530" fill="#dc2626" font-size="17.1" font-weight="700">结论/责任方</text>
<text x="1355" y="556" fill="#334155" font-size="16.5">能回滚先回滚·穿越不一致甩业务</text>
<defs><marker id="ah94a3b8" markerWidth="9" markerHeight="9" refX="7" refY="3" orient="auto"><path d="M0,0 L7,3 L0,6 Z" fill="#94a3b8"/></marker></defs>
<path d="M 290,146 L 318,788" stroke="#94a3b8" stroke-width="2.0" fill="none" marker-end="url(#ah94a3b8)"/>
<rect x="330" y="698" width="250" height="180" rx="12" fill="#2563eb" stroke="#2563eb" stroke-width="2"/>
<text x="455" y="794.0" text-anchor="middle" fill="#fff" font-size="20.7" font-weight="700">高峰容量不够 / 雪崩</text>
<rect x="596" y="698" width="359" height="180" rx="9" fill="#f1f5f9" stroke="#2563eb" stroke-width="1.6"/>
<text x="610" y="726" fill="#2563eb" font-size="17.1" font-weight="700">可能原因</text>
<text x="610" y="752" fill="#334155" font-size="16.5">QPS超容量/缓存击穿/依赖超时</text>
<text x="610" y="774" fill="#334155" font-size="16.5">拖垮/没熔断</text>
<rect x="969" y="698" width="359" height="180" rx="9" fill="#eef2ff" stroke="#2563eb" stroke-width="1.6"/>
<text x="983" y="726" fill="#2563eb" font-size="17.1" font-weight="700">怎么验证</text>
<text x="983" y="752" fill="#334155" font-size="16.5">看水位·缓存命中·超时熔断是否生</text>
<text x="983" y="774" fill="#334155" font-size="16.5">效</text>
<rect x="1341" y="698" width="359" height="180" rx="9" fill="#eff6ff" stroke="#2563eb" stroke-width="1.6"/>
<text x="1355" y="726" fill="#2563eb" font-size="17.1" font-weight="700">结论/责任方</text>
<text x="1355" y="752" fill="#334155" font-size="16.5">限流+降级+缓存兜底·扩容·补熔</text>
<text x="1355" y="774" fill="#334155" font-size="16.5">断</text>
</svg>