<svg xmlns="http://www.w3.org/2000/svg" viewBox="0 0 927 1214" font-family="-apple-system, PingFang SC, Microsoft YaHei, Helvetica, Arial, sans-serif">
<rect x="0" y="0" width="927" height="1214" fill="#ffffff"/>
<path d="M 307.6,606.5 C 342.6,606.5 342.6,134.0 377.6,134.0" fill="none" stroke="#7c3aed" stroke-width="2.4" stroke-linecap="round"/>
<path d="M 467.0,134.0 C 538.4,134.0 538.4,50.0 609.7,50.0" fill="none" stroke="#7c3aed" stroke-width="2.4" stroke-linecap="round"/>
<path d="M 467.0,134.0 C 538.4,134.0 538.4,92.0 609.7,92.0" fill="none" stroke="#7c3aed" stroke-width="2.4" stroke-linecap="round"/>
<path d="M 467.0,134.0 C 538.4,134.0 538.4,134.0 609.7,134.0" fill="none" stroke="#7c3aed" stroke-width="2.4" stroke-linecap="round"/>
<path d="M 467.0,134.0 C 538.4,134.0 538.4,176.0 609.7,176.0" fill="none" stroke="#7c3aed" stroke-width="2.4" stroke-linecap="round"/>
<path d="M 467.0,134.0 C 538.4,134.0 538.4,218.0 609.7,218.0" fill="none" stroke="#7c3aed" stroke-width="2.4" stroke-linecap="round"/>
<path d="M 307.6,606.5 C 342.6,606.5 342.6,365.0 377.6,365.0" fill="none" stroke="#2563eb" stroke-width="2.4" stroke-linecap="round"/>
<path d="M 467.0,365.0 C 538.4,365.0 538.4,260.0 609.7,260.0" fill="none" stroke="#2563eb" stroke-width="2.4" stroke-linecap="round"/>
<path d="M 467.0,365.0 C 538.4,365.0 538.4,302.0 609.7,302.0" fill="none" stroke="#2563eb" stroke-width="2.4" stroke-linecap="round"/>
<path d="M 467.0,365.0 C 538.4,365.0 538.4,344.0 609.7,344.0" fill="none" stroke="#2563eb" stroke-width="2.4" stroke-linecap="round"/>
<path d="M 467.0,365.0 C 538.4,365.0 538.4,386.0 609.7,386.0" fill="none" stroke="#2563eb" stroke-width="2.4" stroke-linecap="round"/>
<path d="M 467.0,365.0 C 538.4,365.0 538.4,428.0 609.7,428.0" fill="none" stroke="#2563eb" stroke-width="2.4" stroke-linecap="round"/>
<path d="M 467.0,365.0 C 538.4,365.0 538.4,470.0 609.7,470.0" fill="none" stroke="#2563eb" stroke-width="2.4" stroke-linecap="round"/>
<path d="M 307.6,606.5 C 342.6,606.5 342.6,575.0 377.6,575.0" fill="none" stroke="#0891b2" stroke-width="2.4" stroke-linecap="round"/>
<path d="M 467.0,575.0 C 538.4,575.0 538.4,512.0 609.7,512.0" fill="none" stroke="#0891b2" stroke-width="2.4" stroke-linecap="round"/>
<path d="M 467.0,575.0 C 538.4,575.0 538.4,554.0 609.7,554.0" fill="none" stroke="#0891b2" stroke-width="2.4" stroke-linecap="round"/>
<path d="M 467.0,575.0 C 538.4,575.0 538.4,596.0 609.7,596.0" fill="none" stroke="#0891b2" stroke-width="2.4" stroke-linecap="round"/>
<path d="M 467.0,575.0 C 538.4,575.0 538.4,638.0 609.7,638.0" fill="none" stroke="#0891b2" stroke-width="2.4" stroke-linecap="round"/>
<path d="M 307.6,606.5 C 342.6,606.5 342.6,743.0 377.6,743.0" fill="none" stroke="#dc2626" stroke-width="2.4" stroke-linecap="round"/>
<path d="M 467.0,743.0 C 538.4,743.0 538.4,680.0 609.7,680.0" fill="none" stroke="#dc2626" stroke-width="2.4" stroke-linecap="round"/>
<path d="M 467.0,743.0 C 538.4,743.0 538.4,722.0 609.7,722.0" fill="none" stroke="#dc2626" stroke-width="2.4" stroke-linecap="round"/>
<path d="M 467.0,743.0 C 538.4,743.0 538.4,764.0 609.7,764.0" fill="none" stroke="#dc2626" stroke-width="2.4" stroke-linecap="round"/>
<path d="M 467.0,743.0 C 538.4,743.0 538.4,806.0 609.7,806.0" fill="none" stroke="#dc2626" stroke-width="2.4" stroke-linecap="round"/>
<path d="M 307.6,606.5 C 342.6,606.5 342.6,911.0 377.6,911.0" fill="none" stroke="#ea580c" stroke-width="2.4" stroke-linecap="round"/>
<path d="M 539.7,911.0 C 574.7,911.0 574.7,848.0 609.7,848.0" fill="none" stroke="#ea580c" stroke-width="2.4" stroke-linecap="round"/>
<path d="M 539.7,911.0 C 574.7,911.0 574.7,890.0 609.7,890.0" fill="none" stroke="#ea580c" stroke-width="2.4" stroke-linecap="round"/>
<path d="M 539.7,911.0 C 574.7,911.0 574.7,932.0 609.7,932.0" fill="none" stroke="#ea580c" stroke-width="2.4" stroke-linecap="round"/>
<path d="M 539.7,911.0 C 574.7,911.0 574.7,974.0 609.7,974.0" fill="none" stroke="#ea580c" stroke-width="2.4" stroke-linecap="round"/>
<path d="M 307.6,606.5 C 342.6,606.5 342.6,1079.0 377.6,1079.0" fill="none" stroke="#059669" stroke-width="2.4" stroke-linecap="round"/>
<path d="M 484.3,1079.0 C 547.0,1079.0 547.0,1016.0 609.7,1016.0" fill="none" stroke="#059669" stroke-width="2.4" stroke-linecap="round"/>
<path d="M 484.3,1079.0 C 547.0,1079.0 547.0,1058.0 609.7,1058.0" fill="none" stroke="#059669" stroke-width="2.4" stroke-linecap="round"/>
<path d="M 484.3,1079.0 C 547.0,1079.0 547.0,1100.0 609.7,1100.0" fill="none" stroke="#059669" stroke-width="2.4" stroke-linecap="round"/>
<path d="M 484.3,1079.0 C 547.0,1079.0 547.0,1142.0 609.7,1142.0" fill="none" stroke="#059669" stroke-width="2.4" stroke-linecap="round"/>
<rect x="40" y="581.5" width="267.6" height="50" rx="11" fill="#1e293b"/>
<text x="173.8" y="613.5" text-anchor="middle" fill="#ffffff" font-size="19" font-weight="700">GPU 训练/推理稳定性治理</text>
<line x1="377.6" y1="134.0" x2="467.0" y2="134.0" stroke="#7c3aed" stroke-width="2.4" stroke-linecap="round"/>
<text x="387.6" y="126.0" fill="#7c3aed" font-size="17" font-weight="700">经验边界</text>
<line x1="609.7" y1="50.0" x2="822.2" y2="50.0" stroke="#7c3aed" stroke-width="2.4" stroke-linecap="round"/>
<text x="619.7" y="42.0" fill="#1f2937" font-size="17" font-weight="400">真做:训练/推理任务托管</text>
<line x1="609.7" y1="92.0" x2="877.6" y2="92.0" stroke="#7c3aed" stroke-width="2.4" stroke-linecap="round"/>
<text x="619.7" y="84.0" fill="#1f2937" font-size="17" font-weight="400">真做:资源池/状态同步/GPU排障</text>
<line x1="609.7" y1="134.0" x2="831.7" y2="134.0" stroke="#7c3aed" stroke-width="2.4" stroke-linecap="round"/>
<text x="619.7" y="126.0" fill="#1f2937" font-size="17" font-weight="400">真做:告警/发布/变更风控</text>
<line x1="609.7" y1="176.0" x2="831.7" y2="176.0" stroke="#7c3aed" stroke-width="2.4" stroke-linecap="round"/>
<text x="619.7" y="168.0" fill="#1f2937" font-size="17" font-weight="400">对标:引擎内核/压测/演练</text>
<line x1="609.7" y1="218.0" x2="751.1" y2="218.0" stroke="#7c3aed" stroke-width="2.4" stroke-linecap="round"/>
<text x="619.7" y="210.0" fill="#1f2937" font-size="17" font-weight="400">开场先声明边界</text>
<line x1="377.6" y1="365.0" x2="467.0" y2="365.0" stroke="#2563eb" stroke-width="2.4" stroke-linecap="round"/>
<text x="387.6" y="357.0" fill="#2563eb" font-size="17" font-weight="700">共性底座</text>
<line x1="609.7" y1="260.0" x2="816.7" y2="260.0" stroke="#2563eb" stroke-width="2.4" stroke-linecap="round"/>
<text x="619.7" y="252.0" fill="#1f2937" font-size="17" font-weight="400">GPU健康:DCGM/XID/ECC</text>
<line x1="609.7" y1="302.0" x2="795.3" y2="302.0" stroke="#2563eb" stroke-width="2.4" stroke-linecap="round"/>
<text x="619.7" y="294.0" fill="#1f2937" font-size="17" font-weight="400">分层可观测+告警治理</text>
<line x1="609.7" y1="344.0" x2="814.4" y2="344.0" stroke="#2563eb" stroke-width="2.4" stroke-linecap="round"/>
<text x="619.7" y="336.0" fill="#1f2937" font-size="17" font-weight="400">资源池/配额/抢占/拓扑</text>
<line x1="609.7" y1="386.0" x2="733.8" y2="386.0" stroke="#2563eb" stroke-width="2.4" stroke-linecap="round"/>
<text x="619.7" y="378.0" fill="#1f2937" font-size="17" font-weight="400">变更发布管控</text>
<line x1="609.7" y1="428.0" x2="778.0" y2="428.0" stroke="#2563eb" stroke-width="2.4" stroke-linecap="round"/>
<text x="619.7" y="420.0" fill="#1f2937" font-size="17" font-weight="400">故障处理闭环+演练</text>
<line x1="609.7" y1="470.0" x2="726.0" y2="470.0" stroke="#2563eb" stroke-width="2.4" stroke-linecap="round"/>
<text x="619.7" y="462.0" fill="#1f2937" font-size="17" font-weight="400">多集群/容灾</text>
<line x1="377.6" y1="575.0" x2="467.0" y2="575.0" stroke="#0891b2" stroke-width="2.4" stroke-linecap="round"/>
<text x="387.6" y="567.0" fill="#0891b2" font-size="17" font-weight="700">训练特有</text>
<line x1="609.7" y1="512.0" x2="803.8" y2="512.0" stroke="#0891b2" stroke-width="2.4" stroke-linecap="round"/>
<text x="619.7" y="504.0" fill="#1f2937" font-size="17" font-weight="400">checkpoint+断点续训</text>
<line x1="609.7" y1="554.0" x2="781.4" y2="554.0" stroke="#0891b2" stroke-width="2.4" stroke-linecap="round"/>
<text x="619.7" y="546.0" fill="#1f2937" font-size="17" font-weight="400">Gang调度+拓扑亲和</text>
<line x1="609.7" y1="596.0" x2="815.0" y2="596.0" stroke="#0891b2" stroke-width="2.4" stroke-linecap="round"/>
<text x="619.7" y="588.0" fill="#1f2937" font-size="17" font-weight="400">NCCL/RDMA+慢节点hang</text>
<line x1="609.7" y1="638.0" x2="771.9" y2="638.0" stroke="#0891b2" stroke-width="2.4" stroke-linecap="round"/>
<text x="619.7" y="630.0" fill="#1f2937" font-size="17" font-weight="400">MFU/有效训练时长</text>
<line x1="377.6" y1="743.0" x2="467.0" y2="743.0" stroke="#dc2626" stroke-width="2.4" stroke-linecap="round"/>
<text x="387.6" y="735.0" fill="#dc2626" font-size="17" font-weight="700">推理特有</text>
<line x1="609.7" y1="680.0" x2="797.7" y2="680.0" stroke="#dc2626" stroke-width="2.4" stroke-linecap="round"/>
<text x="619.7" y="672.0" fill="#1f2937" font-size="17" font-weight="400">SLO:TTFT/TPOT/长尾</text>
<line x1="609.7" y1="722.0" x2="803.8" y2="722.0" stroke="#dc2626" stroke-width="2.4" stroke-linecap="round"/>
<text x="619.7" y="714.0" fill="#1f2937" font-size="17" font-weight="400">PD分离+KV cache显存</text>
<line x1="609.7" y1="764.0" x2="804.8" y2="764.0" stroke="#dc2626" stroke-width="2.4" stroke-linecap="round"/>
<text x="619.7" y="756.0" fill="#1f2937" font-size="17" font-weight="400">弹性+冷启动+过载保护</text>
<line x1="609.7" y1="806.0" x2="733.8" y2="806.0" stroke="#dc2626" stroke-width="2.4" stroke-linecap="round"/>
<text x="619.7" y="798.0" fill="#1f2937" font-size="17" font-weight="400">模型版本灰度</text>
<line x1="377.6" y1="911.0" x2="539.7" y2="911.0" stroke="#ea580c" stroke-width="2.4" stroke-linecap="round"/>
<text x="387.6" y="903.0" fill="#ea580c" font-size="17" font-weight="700">训练 vs 推理差异</text>
<line x1="609.7" y1="848.0" x2="841.2" y2="848.0" stroke="#ea580c" stroke-width="2.4" stroke-linecap="round"/>
<text x="619.7" y="840.0" fill="#1f2937" font-size="17" font-weight="400">长时有状态 vs 在线无状态</text>
<line x1="609.7" y1="890.0" x2="849.7" y2="890.0" stroke="#ea580c" stroke-width="2.4" stroke-linecap="round"/>
<text x="619.7" y="882.0" fill="#1f2937" font-size="17" font-weight="400">checkpoint vs 多副本降级</text>
<line x1="609.7" y1="932.0" x2="792.6" y2="932.0" stroke="#ea580c" stroke-width="2.4" stroke-linecap="round"/>
<text x="619.7" y="924.0" fill="#1f2937" font-size="17" font-weight="400">Gang vs 弹性扩缩容</text>
<line x1="609.7" y1="974.0" x2="794.3" y2="974.0" stroke="#ea580c" stroke-width="2.4" stroke-linecap="round"/>
<text x="619.7" y="966.0" fill="#1f2937" font-size="17" font-weight="400">MFU vs 延迟吞吐SLO</text>
<line x1="377.6" y1="1079.0" x2="484.3" y2="1079.0" stroke="#059669" stroke-width="2.4" stroke-linecap="round"/>
<text x="387.6" y="1071.0" fill="#059669" font-size="17" font-weight="700">落地与排障</text>
<line x1="609.7" y1="1016.0" x2="822.2" y2="1016.0" stroke="#059669" stroke-width="2.4" stroke-linecap="round"/>
<text x="619.7" y="1008.0" fill="#1f2937" font-size="17" font-weight="400">共性底座+训练/推理专项</text>
<line x1="609.7" y1="1058.0" x2="855.8" y2="1058.0" stroke="#059669" stroke-width="2.4" stroke-linecap="round"/>
<text x="619.7" y="1050.0" fill="#1f2937" font-size="17" font-weight="400">训练hang:无进展→NCCL→续训</text>
<line x1="609.7" y1="1100.0" x2="813.3" y2="1100.0" stroke="#059669" stroke-width="2.4" stroke-linecap="round"/>
<text x="619.7" y="1092.0" fill="#1f2937" font-size="17" font-weight="400">推理:SLO→引擎→GPU→PD</text>
<line x1="609.7" y1="1142.0" x2="751.1" y2="1142.0" stroke="#059669" stroke-width="2.4" stroke-linecap="round"/>
<text x="619.7" y="1134.0" fill="#1f2937" font-size="17" font-weight="400">止血优先于定位</text>
</svg>