<svg xmlns="http://www.w3.org/2000/svg" viewBox="0 0 1480 1000" font-family="-apple-system, PingFang SC, Microsoft YaHei, Helvetica, Arial, sans-serif">
<rect width="1480" height="1000" fill="#f8fafc"/>
<defs><marker id="ah" markerWidth="9" markerHeight="9" refX="7" refY="3" orient="auto"><path d="M0,0 L7,3 L0,6 Z" fill="#64748b"/></marker></defs>
<text x="40" y="42" fill="#0f172a" font-size="24" font-weight="800">GPU 训练 / 推理稳定性治理架构</text>
<text x="40" y="66" fill="#64748b" font-size="14">共性底座可复用 · 训练与推理按负载特征分别治理</text>
<rect x="940" y="32" width="15" height="15" rx="3" fill="#ecfdf5" stroke="#059669" stroke-width="2"/>
<text x="960" y="44" fill="#334155" font-size="12.5">真做</text>
<rect x="1009" y="32" width="15" height="15" rx="3" fill="#eff6ff" stroke="#2563eb" stroke-width="2"/>
<text x="1029" y="44" fill="#334155" font-size="12.5">部分真做+对标</text>
<rect x="1136" y="32" width="15" height="15" rx="3" fill="#fff7ed" stroke="#ea580c" stroke-width="2"/>
<text x="1156" y="44" fill="#334155" font-size="12.5">理论对标</text>
<rect x="40" y="92" width="680" height="44" rx="9" fill="#7c3aed"/>
<text x="380" y="120" text-anchor="middle" fill="#fff" font-size="16" font-weight="800">GPU 训练链路（长时·有状态）</text>
<rect x="40" y="150" width="680" height="62" rx="9" fill="#ecfdf5" stroke="#059669" stroke-width="2.2"/>
<text x="380" y="175" text-anchor="middle" fill="#059669" font-size="17" font-weight="700">TFJob / 分布式训练作业</text>
<text x="380" y="200" text-anchor="middle" fill="#475569" font-size="12.5">多角色副本 · Gang 调度 · 拓扑亲和</text>
<rect x="649" y="157" width="64" height="19" rx="9" fill="#059669"/>
<text x="681" y="170" text-anchor="middle" fill="#fff" font-size="11.5">托管真做</text>
<line x1="380" y1="212" x2="380" y2="236" stroke="#64748b" stroke-width="2.2" marker-end="url(#ah)"/>
<rect x="40" y="236" width="680" height="62" rx="9" fill="#eff6ff" stroke="#2563eb" stroke-width="2.2"/>
<text x="380" y="261" text-anchor="middle" fill="#2563eb" font-size="17" font-weight="700">NCCL / RDMA 集合通信</text>
<text x="380" y="286" text-anchor="middle" fill="#475569" font-size="12.5">AllReduce · 慢节点(straggler) · hang 检测</text>
<rect x="642" y="243" width="71" height="19" rx="9" fill="#2563eb"/>
<text x="678" y="256" text-anchor="middle" fill="#fff" font-size="11.5">接触/对标</text>
<line x1="380" y1="298" x2="380" y2="322" stroke="#64748b" stroke-width="2.2" marker-end="url(#ah)"/>
<rect x="40" y="322" width="680" height="62" rx="9" fill="#eff6ff" stroke="#2563eb" stroke-width="2.2"/>
<text x="380" y="347" text-anchor="middle" fill="#2563eb" font-size="17" font-weight="700">checkpoint 容错</text>
<text x="380" y="372" text-anchor="middle" fill="#475569" font-size="12.5">断点续训 · 存储 IO · 弹性容错</text>
<rect x="649" y="329" width="64" height="19" rx="9" fill="#2563eb"/>
<text x="681" y="342" text-anchor="middle" fill="#fff" font-size="11.5">平台支持</text>
<line x1="380" y1="384" x2="380" y2="408" stroke="#64748b" stroke-width="2.2" marker-end="url(#ah)"/>
<rect x="40" y="408" width="680" height="62" rx="9" fill="#fff7ed" stroke="#ea580c" stroke-width="2.2"/>
<text x="380" y="433" text-anchor="middle" fill="#ea580c" font-size="17" font-weight="700">有效算力度量</text>
<text x="380" y="458" text-anchor="middle" fill="#475569" font-size="12.5">MFU / 有效训练时长 / 故障重启次数</text>
<rect x="673" y="415" width="40" height="19" rx="9" fill="#ea580c"/>
<text x="693" y="428" text-anchor="middle" fill="#fff" font-size="11.5">对标</text>
<rect x="760" y="92" width="680" height="44" rx="9" fill="#0891b2"/>
<text x="1100" y="120" text-anchor="middle" fill="#fff" font-size="16" font-weight="800">GPU 推理链路（在线·无状态）</text>
<rect x="760" y="150" width="680" height="62" rx="9" fill="#eff6ff" stroke="#2563eb" stroke-width="2.2"/>
<text x="1100" y="175" text-anchor="middle" fill="#2563eb" font-size="17" font-weight="700">入口 / 路由 / 过载保护</text>
<text x="1100" y="200" text-anchor="middle" fill="#475569" font-size="12.5">限流 · 降级 · 优先级排队</text>
<rect x="1369" y="157" width="64" height="19" rx="9" fill="#2563eb"/>
<text x="1401" y="170" text-anchor="middle" fill="#fff" font-size="11.5">相邻真做</text>
<line x1="1100" y1="212" x2="1100" y2="236" stroke="#64748b" stroke-width="2.2" marker-end="url(#ah)"/>
<rect x="760" y="236" width="680" height="62" rx="9" fill="#eff6ff" stroke="#2563eb" stroke-width="2.2"/>
<text x="1100" y="261" text-anchor="middle" fill="#2563eb" font-size="17" font-weight="700">PD 分离推理服务</text>
<text x="1100" y="286" text-anchor="middle" fill="#475569" font-size="12.5">Prefill→KV cache→Decode · vLLM/SGLang</text>
<rect x="1369" y="243" width="64" height="19" rx="9" fill="#2563eb"/>
<text x="1401" y="256" text-anchor="middle" fill="#fff" font-size="11.5">平台适配</text>
<line x1="1100" y1="298" x2="1100" y2="322" stroke="#64748b" stroke-width="2.2" marker-end="url(#ah)"/>
<rect x="760" y="322" width="680" height="62" rx="9" fill="#ecfdf5" stroke="#059669" stroke-width="2.2"/>
<text x="1100" y="347" text-anchor="middle" fill="#059669" font-size="17" font-weight="700">弹性 / 冷启动</text>
<text x="1100" y="372" text-anchor="middle" fill="#475569" font-size="12.5">多副本 · 大权重预拉 · HPA 扩缩容</text>
<rect x="1393" y="329" width="40" height="19" rx="9" fill="#059669"/>
<text x="1413" y="342" text-anchor="middle" fill="#fff" font-size="11.5">真做</text>
<line x1="1100" y1="384" x2="1100" y2="408" stroke="#64748b" stroke-width="2.2" marker-end="url(#ah)"/>
<rect x="760" y="408" width="680" height="62" rx="9" fill="#fff7ed" stroke="#ea580c" stroke-width="2.2"/>
<text x="1100" y="433" text-anchor="middle" fill="#ea580c" font-size="17" font-weight="700">推理 SLO 度量</text>
<text x="1100" y="458" text-anchor="middle" fill="#475569" font-size="12.5">TTFT / TPOT / 长尾 P99 / 吞吐</text>
<rect x="1393" y="415" width="40" height="19" rx="9" fill="#ea580c"/>
<text x="1413" y="428" text-anchor="middle" fill="#fff" font-size="11.5">对标</text>
<text x="740" y="500" text-anchor="middle" fill="#94a3b8" font-size="13">▲ 负载特征不同 → SLO / 容错 / 调度分别设计　　　▼ 下层共性底座两者复用</text>
<rect x="40" y="520" width="1400" height="44" rx="9" fill="#475569"/>
<text x="740" y="548" text-anchor="middle" fill="#fff" font-size="16" font-weight="800">共性稳定性底座（训练 + 推理复用）</text>
<rect x="40" y="578" width="220" height="150" rx="9" fill="#fff7ed" stroke="#ea580c" stroke-width="2.2"/>
<text x="150" y="603" text-anchor="middle" fill="#ea580c" font-size="15" font-weight="700">GPU 健康域</text>
<rect x="182" y="585" width="71" height="19" rx="9" fill="#ea580c"/>
<text x="218" y="598" text-anchor="middle" fill="#fff" font-size="11.5">感知/对标</text>
<text x="150" y="668" text-anchor="middle" fill="#475569" font-size="11.5">DCGM · XID ·</text>
<text x="150" y="686" text-anchor="middle" fill="#475569" font-size="11.5"> ECC · 掉卡/慢卡/降频</text>
<rect x="276" y="578" width="220" height="150" rx="9" fill="#ecfdf5" stroke="#059669" stroke-width="2.2"/>
<text x="386" y="603" text-anchor="middle" fill="#059669" font-size="15" font-weight="700">分层可观测 &amp; 告警</text>
<rect x="402" y="585" width="87" height="19" rx="9" fill="#059669"/>
<text x="446" y="598" text-anchor="middle" fill="#fff" font-size="11.5">Bigeyes真做</text>
<text x="386" y="668" text-anchor="middle" fill="#475569" font-size="11.5">平台/引擎/GPU 三层</text>
<text x="386" y="686" text-anchor="middle" fill="#475569" font-size="11.5"> · 聚合去抖限流</text>
<rect x="512" y="578" width="220" height="150" rx="9" fill="#ecfdf5" stroke="#059669" stroke-width="2.2"/>
<text x="622" y="603" text-anchor="middle" fill="#059669" font-size="15" font-weight="700">资源池 &amp; 配额</text>
<rect x="685" y="585" width="40" height="19" rx="9" fill="#059669"/>
<text x="705" y="598" text-anchor="middle" fill="#fff" font-size="11.5">真做</text>
<text x="622" y="668" text-anchor="middle" fill="#475569" font-size="11.5">异构资源组 · 抢占 ·</text>
<text x="622" y="686" text-anchor="middle" fill="#475569" font-size="11.5"> 拓扑亲和</text>
<rect x="748" y="578" width="220" height="150" rx="9" fill="#ecfdf5" stroke="#059669" stroke-width="2.2"/>
<text x="858" y="603" text-anchor="middle" fill="#059669" font-size="15" font-weight="700">变更 &amp; 发布管控</text>
<rect x="865" y="585" width="96" height="19" rx="9" fill="#059669"/>
<text x="913" y="598" text-anchor="middle" fill="#fff" font-size="11.5">SAE/riskfree</text>
<text x="858" y="668" text-anchor="middle" fill="#475569" font-size="11.5">灰度 · 回滚 · 红线</text>
<text x="858" y="686" text-anchor="middle" fill="#475569" font-size="11.5"> · 封网</text>
<rect x="984" y="578" width="220" height="150" rx="9" fill="#eff6ff" stroke="#2563eb" stroke-width="2.2"/>
<text x="1094" y="603" text-anchor="middle" fill="#2563eb" font-size="15" font-weight="700">故障处理 &amp; 演练</text>
<rect x="1133" y="585" width="64" height="19" rx="9" fill="#2563eb"/>
<text x="1165" y="598" text-anchor="middle" fill="#fff" font-size="11.5">部分真做</text>
<text x="1094" y="668" text-anchor="middle" fill="#475569" font-size="11.5">发现→止血→定位→恢复→</text>
<text x="1094" y="686" text-anchor="middle" fill="#475569" font-size="11.5">复盘 · 故障注入</text>
<rect x="1220" y="578" width="220" height="150" rx="9" fill="#eff6ff" stroke="#2563eb" stroke-width="2.2"/>
<text x="1330" y="603" text-anchor="middle" fill="#2563eb" font-size="15" font-weight="700">多集群 &amp; 容灾</text>
<rect x="1369" y="585" width="64" height="19" rx="9" fill="#2563eb"/>
<text x="1401" y="598" text-anchor="middle" fill="#fff" font-size="11.5">部分真做</text>
<text x="1330" y="668" text-anchor="middle" fill="#475569" font-size="11.5">多AZ冗余 · 状态同步</text>
<text x="1330" y="686" text-anchor="middle" fill="#475569" font-size="11.5">补偿</text>
<text x="40" y="760" fill="#94a3b8" font-size="12.5">说明：我深度参与的是上层托管/编排与共性底座的可观测·变更·故障处理；引擎内核(NCCL/Megatron/vLLM)与系统化压测/演练为理论对标。</text>
</svg>