<svg xmlns="http://www.w3.org/2000/svg" viewBox="0 0 938 1506" font-family="-apple-system, PingFang SC, Microsoft YaHei, Helvetica, Arial, sans-serif">
<rect x="0" y="0" width="938" height="1506" fill="#ffffff"/>
<path d="M 312.4,728.5 C 349.9,728.5 349.9,73.0 387.4,73.0" fill="none" stroke="#7c3aed" stroke-width="2.4" stroke-linecap="round"/>
<path d="M 476.8,73.0 C 563.2,73.0 563.2,50.0 649.7,50.0" fill="none" stroke="#7c3aed" stroke-width="2.4" stroke-linecap="round"/>
<path d="M 476.8,73.0 C 563.2,73.0 563.2,96.0 649.7,96.0" fill="none" stroke="#7c3aed" stroke-width="2.4" stroke-linecap="round"/>
<path d="M 312.4,728.5 C 349.9,728.5 349.9,211.0 387.4,211.0" fill="none" stroke="#2563eb" stroke-width="2.4" stroke-linecap="round"/>
<path d="M 574.7,211.0 C 612.2,211.0 612.2,142.0 649.7,142.0" fill="none" stroke="#2563eb" stroke-width="2.4" stroke-linecap="round"/>
<path d="M 574.7,211.0 C 612.2,211.0 612.2,188.0 649.7,188.0" fill="none" stroke="#2563eb" stroke-width="2.4" stroke-linecap="round"/>
<path d="M 574.7,211.0 C 612.2,211.0 612.2,234.0 649.7,234.0" fill="none" stroke="#2563eb" stroke-width="2.4" stroke-linecap="round"/>
<path d="M 574.7,211.0 C 612.2,211.0 612.2,280.0 649.7,280.0" fill="none" stroke="#2563eb" stroke-width="2.4" stroke-linecap="round"/>
<path d="M 312.4,728.5 C 349.9,728.5 349.9,464.0 387.4,464.0" fill="none" stroke="#0891b2" stroke-width="2.4" stroke-linecap="round"/>
<path d="M 511.4,464.0 C 580.6,464.0 580.6,326.0 649.7,326.0" fill="none" stroke="#0891b2" stroke-width="2.4" stroke-linecap="round"/>
<path d="M 511.4,464.0 C 580.6,464.0 580.6,372.0 649.7,372.0" fill="none" stroke="#0891b2" stroke-width="2.4" stroke-linecap="round"/>
<path d="M 511.4,464.0 C 580.6,464.0 580.6,418.0 649.7,418.0" fill="none" stroke="#0891b2" stroke-width="2.4" stroke-linecap="round"/>
<path d="M 511.4,464.0 C 580.6,464.0 580.6,464.0 649.7,464.0" fill="none" stroke="#0891b2" stroke-width="2.4" stroke-linecap="round"/>
<path d="M 511.4,464.0 C 580.6,464.0 580.6,510.0 649.7,510.0" fill="none" stroke="#0891b2" stroke-width="2.4" stroke-linecap="round"/>
<path d="M 511.4,464.0 C 580.6,464.0 580.6,556.0 649.7,556.0" fill="none" stroke="#0891b2" stroke-width="2.4" stroke-linecap="round"/>
<path d="M 511.4,464.0 C 580.6,464.0 580.6,602.0 649.7,602.0" fill="none" stroke="#0891b2" stroke-width="2.4" stroke-linecap="round"/>
<path d="M 312.4,728.5 C 349.9,728.5 349.9,786.0 387.4,786.0" fill="none" stroke="#dc2626" stroke-width="2.4" stroke-linecap="round"/>
<path d="M 511.4,786.0 C 580.6,786.0 580.6,648.0 649.7,648.0" fill="none" stroke="#dc2626" stroke-width="2.4" stroke-linecap="round"/>
<path d="M 511.4,786.0 C 580.6,786.0 580.6,694.0 649.7,694.0" fill="none" stroke="#dc2626" stroke-width="2.4" stroke-linecap="round"/>
<path d="M 511.4,786.0 C 580.6,786.0 580.6,740.0 649.7,740.0" fill="none" stroke="#dc2626" stroke-width="2.4" stroke-linecap="round"/>
<path d="M 511.4,786.0 C 580.6,786.0 580.6,786.0 649.7,786.0" fill="none" stroke="#dc2626" stroke-width="2.4" stroke-linecap="round"/>
<path d="M 511.4,786.0 C 580.6,786.0 580.6,832.0 649.7,832.0" fill="none" stroke="#dc2626" stroke-width="2.4" stroke-linecap="round"/>
<path d="M 511.4,786.0 C 580.6,786.0 580.6,878.0 649.7,878.0" fill="none" stroke="#dc2626" stroke-width="2.4" stroke-linecap="round"/>
<path d="M 511.4,786.0 C 580.6,786.0 580.6,924.0 649.7,924.0" fill="none" stroke="#dc2626" stroke-width="2.4" stroke-linecap="round"/>
<path d="M 312.4,728.5 C 349.9,728.5 349.9,1039.0 387.4,1039.0" fill="none" stroke="#ea580c" stroke-width="2.4" stroke-linecap="round"/>
<path d="M 494.1,1039.0 C 571.9,1039.0 571.9,970.0 649.7,970.0" fill="none" stroke="#ea580c" stroke-width="2.4" stroke-linecap="round"/>
<path d="M 494.1,1039.0 C 571.9,1039.0 571.9,1016.0 649.7,1016.0" fill="none" stroke="#ea580c" stroke-width="2.4" stroke-linecap="round"/>
<path d="M 494.1,1039.0 C 571.9,1039.0 571.9,1062.0 649.7,1062.0" fill="none" stroke="#ea580c" stroke-width="2.4" stroke-linecap="round"/>
<path d="M 494.1,1039.0 C 571.9,1039.0 571.9,1108.0 649.7,1108.0" fill="none" stroke="#ea580c" stroke-width="2.4" stroke-linecap="round"/>
<path d="M 312.4,728.5 C 349.9,728.5 349.9,1223.0 387.4,1223.0" fill="none" stroke="#059669" stroke-width="2.4" stroke-linecap="round"/>
<path d="M 476.8,1223.0 C 563.2,1223.0 563.2,1154.0 649.7,1154.0" fill="none" stroke="#059669" stroke-width="2.4" stroke-linecap="round"/>
<path d="M 476.8,1223.0 C 563.2,1223.0 563.2,1200.0 649.7,1200.0" fill="none" stroke="#059669" stroke-width="2.4" stroke-linecap="round"/>
<path d="M 476.8,1223.0 C 563.2,1223.0 563.2,1246.0 649.7,1246.0" fill="none" stroke="#059669" stroke-width="2.4" stroke-linecap="round"/>
<path d="M 476.8,1223.0 C 563.2,1223.0 563.2,1292.0 649.7,1292.0" fill="none" stroke="#059669" stroke-width="2.4" stroke-linecap="round"/>
<path d="M 312.4,728.5 C 349.9,728.5 349.9,1384.0 387.4,1384.0" fill="none" stroke="#d97706" stroke-width="2.4" stroke-linecap="round"/>
<path d="M 476.8,1384.0 C 563.2,1384.0 563.2,1338.0 649.7,1338.0" fill="none" stroke="#d97706" stroke-width="2.4" stroke-linecap="round"/>
<path d="M 476.8,1384.0 C 563.2,1384.0 563.2,1384.0 649.7,1384.0" fill="none" stroke="#d97706" stroke-width="2.4" stroke-linecap="round"/>
<path d="M 476.8,1384.0 C 563.2,1384.0 563.2,1430.0 649.7,1430.0" fill="none" stroke="#d97706" stroke-width="2.4" stroke-linecap="round"/>
<rect x="40" y="703.5" width="272.4" height="50" rx="11" fill="#1e293b"/>
<text x="176.2" y="735.5" text-anchor="middle" fill="#ffffff" font-size="20" font-weight="700">GPU 基本原理与运维知识</text>
<line x1="387.4" y1="73.0" x2="476.8" y2="73.0" stroke="#7c3aed" stroke-width="2.4" stroke-linecap="round"/>
<text x="397.4" y="65.0" fill="#7c3aed" font-size="17" font-weight="700">经验边界</text>
<line x1="649.7" y1="50.0" x2="800.6" y2="50.0" stroke="#7c3aed" stroke-width="2.4" stroke-linecap="round"/>
<text x="659.7" y="42.0" fill="#1f2937" font-size="17" font-weight="400">运维侧:相邻经验</text>
<line x1="649.7" y1="96.0" x2="817.9" y2="96.0" stroke="#7c3aed" stroke-width="2.4" stroke-linecap="round"/>
<text x="659.7" y="88.0" fill="#1f2937" font-size="17" font-weight="400">架构内核:理论对标</text>
<line x1="387.4" y1="211.0" x2="574.7" y2="211.0" stroke="#2563eb" stroke-width="2.4" stroke-linecap="round"/>
<text x="397.4" y="203.0" fill="#2563eb" font-size="17" font-weight="700">为什么不是更快的CPU</text>
<line x1="649.7" y1="142.0" x2="786.6" y2="142.0" stroke="#2563eb" stroke-width="2.4" stroke-linecap="round"/>
<text x="659.7" y="134.0" fill="#1f2937" font-size="17" font-weight="400">吞吐优先 SIMT</text>
<line x1="649.7" y1="188.0" x2="783.2" y2="188.0" stroke="#2563eb" stroke-width="2.4" stroke-linecap="round"/>
<text x="659.7" y="180.0" fill="#1f2937" font-size="17" font-weight="400">内存层级/带宽</text>
<line x1="649.7" y1="234.0" x2="756.4" y2="234.0" stroke="#2563eb" stroke-width="2.4" stroke-linecap="round"/>
<text x="659.7" y="226.0" fill="#1f2937" font-size="17" font-weight="400">精度换吞吐</text>
<line x1="649.7" y1="280.0" x2="748.6" y2="280.0" stroke="#2563eb" stroke-width="2.4" stroke-linecap="round"/>
<text x="659.7" y="272.0" fill="#1f2937" font-size="17" font-weight="400">互联/通信</text>
<line x1="387.4" y1="464.0" x2="511.4" y2="464.0" stroke="#0891b2" stroke-width="2.4" stroke-linecap="round"/>
<text x="397.4" y="456.0" fill="#0891b2" font-size="17" font-weight="700">原理核心概念</text>
<line x1="649.7" y1="326.0" x2="850.6" y2="326.0" stroke="#0891b2" stroke-width="2.4" stroke-linecap="round"/>
<text x="659.7" y="318.0" fill="#1f2937" font-size="17" font-weight="400">SM/CUDA/Tensor Core</text>
<line x1="649.7" y1="372.0" x2="790.0" y2="372.0" stroke="#0891b2" stroke-width="2.4" stroke-linecap="round"/>
<text x="659.7" y="364.0" fill="#1f2937" font-size="17" font-weight="400">HBM/SRAM 层级</text>
<line x1="649.7" y1="418.0" x2="888.6" y2="418.0" stroke="#0891b2" stroke-width="2.4" stroke-linecap="round"/>
<text x="659.7" y="410.0" fill="#1f2937" font-size="17" font-weight="400">compute vs memory-bound</text>
<line x1="649.7" y1="464.0" x2="793.4" y2="464.0" stroke="#0891b2" stroke-width="2.4" stroke-linecap="round"/>
<text x="659.7" y="456.0" fill="#1f2937" font-size="17" font-weight="400">FP32/BF16/FP8</text>
<line x1="649.7" y1="510.0" x2="765.9" y2="510.0" stroke="#0891b2" stroke-width="2.4" stroke-linecap="round"/>
<text x="659.7" y="502.0" fill="#1f2937" font-size="17" font-weight="400">软件栈/版本</text>
<line x1="649.7" y1="556.0" x2="822.0" y2="556.0" stroke="#0891b2" stroke-width="2.4" stroke-linecap="round"/>
<text x="659.7" y="548.0" fill="#1f2937" font-size="17" font-weight="400">NVLink/PCIe/RDMA</text>
<line x1="649.7" y1="602.0" x2="780.5" y2="602.0" stroke="#0891b2" stroke-width="2.4" stroke-linecap="round"/>
<text x="659.7" y="594.0" fill="#1f2937" font-size="17" font-weight="400">MIG/MPS/切分</text>
<line x1="387.4" y1="786.0" x2="511.4" y2="786.0" stroke="#dc2626" stroke-width="2.4" stroke-linecap="round"/>
<text x="397.4" y="778.0" fill="#dc2626" font-size="17" font-weight="700">运维核心概念</text>
<line x1="649.7" y1="648.0" x2="812.5" y2="648.0" stroke="#dc2626" stroke-width="2.4" stroke-linecap="round"/>
<text x="659.7" y="640.0" fill="#1f2937" font-size="17" font-weight="400">DCGM/nvidia-smi</text>
<line x1="649.7" y1="694.0" x2="739.0" y2="694.0" stroke="#dc2626" stroke-width="2.4" stroke-linecap="round"/>
<text x="659.7" y="686.0" fill="#1f2937" font-size="17" font-weight="400">关键指标</text>
<line x1="649.7" y1="740.0" x2="759.8" y2="740.0" stroke="#dc2626" stroke-width="2.4" stroke-linecap="round"/>
<text x="659.7" y="732.0" fill="#1f2937" font-size="17" font-weight="400">XID 错误码</text>
<line x1="649.7" y1="786.0" x2="774.4" y2="786.0" stroke="#dc2626" stroke-width="2.4" stroke-linecap="round"/>
<text x="659.7" y="778.0" fill="#1f2937" font-size="17" font-weight="400">ECC SBE/DBE</text>
<line x1="649.7" y1="832.0" x2="792.8" y2="832.0" stroke="#dc2626" stroke-width="2.4" stroke-linecap="round"/>
<text x="659.7" y="824.0" fill="#1f2937" font-size="17" font-weight="400">健康/隔离/驱逐</text>
<line x1="649.7" y1="878.0" x2="831.5" y2="878.0" stroke="#dc2626" stroke-width="2.4" stroke-linecap="round"/>
<text x="659.7" y="870.0" fill="#1f2937" font-size="17" font-weight="400">K8s device plugin</text>
<line x1="649.7" y1="924.0" x2="783.2" y2="924.0" stroke="#dc2626" stroke-width="2.4" stroke-linecap="round"/>
<text x="659.7" y="916.0" fill="#1f2937" font-size="17" font-weight="400">驱动/固件治理</text>
<line x1="387.4" y1="1039.0" x2="494.1" y2="1039.0" stroke="#ea580c" stroke-width="2.4" stroke-linecap="round"/>
<text x="397.4" y="1031.0" fill="#ea580c" font-size="17" font-weight="700">运维主流程</text>
<line x1="649.7" y1="970.0" x2="704.4" y2="970.0" stroke="#ea580c" stroke-width="2.4" stroke-linecap="round"/>
<text x="659.7" y="962.0" fill="#1f2937" font-size="17" font-weight="400">采集</text>
<line x1="649.7" y1="1016.0" x2="739.0" y2="1016.0" stroke="#ea580c" stroke-width="2.4" stroke-linecap="round"/>
<text x="659.7" y="1008.0" fill="#1f2937" font-size="17" font-weight="400">异常识别</text>
<line x1="649.7" y1="1062.0" x2="863.8" y2="1062.0" stroke="#ea580c" stroke-width="2.4" stroke-linecap="round"/>
<text x="659.7" y="1054.0" fill="#1f2937" font-size="17" font-weight="400">应用类vs硬件类vs性能类</text>
<line x1="649.7" y1="1108.0" x2="748.6" y2="1108.0" stroke="#ea580c" stroke-width="2.4" stroke-linecap="round"/>
<text x="659.7" y="1100.0" fill="#1f2937" font-size="17" font-weight="400">处置+兜底</text>
<line x1="387.4" y1="1223.0" x2="476.8" y2="1223.0" stroke="#059669" stroke-width="2.4" stroke-linecap="round"/>
<text x="397.4" y="1215.0" fill="#059669" font-size="17" font-weight="700">排障路径</text>
<line x1="649.7" y1="1154.0" x2="721.7" y2="1154.0" stroke="#059669" stroke-width="2.4" stroke-linecap="round"/>
<text x="659.7" y="1146.0" fill="#1f2937" font-size="17" font-weight="400">起不来</text>
<line x1="649.7" y1="1200.0" x2="704.4" y2="1200.0" stroke="#059669" stroke-width="2.4" stroke-linecap="round"/>
<text x="659.7" y="1192.0" fill="#1f2937" font-size="17" font-weight="400">慢卡</text>
<line x1="649.7" y1="1246.0" x2="736.3" y2="1246.0" stroke="#059669" stroke-width="2.4" stroke-linecap="round"/>
<text x="659.7" y="1238.0" fill="#1f2937" font-size="17" font-weight="400">OOM/502</text>
<line x1="649.7" y1="1292.0" x2="739.0" y2="1292.0" stroke="#059669" stroke-width="2.4" stroke-linecap="round"/>
<text x="659.7" y="1284.0" fill="#1f2937" font-size="17" font-weight="400">坏卡隔离</text>
<line x1="387.4" y1="1384.0" x2="476.8" y2="1384.0" stroke="#d97706" stroke-width="2.4" stroke-linecap="round"/>
<text x="397.4" y="1376.0" fill="#d97706" font-size="17" font-weight="700">经验映射</text>
<line x1="649.7" y1="1338.0" x2="810.1" y2="1338.0" stroke="#d97706" stroke-width="2.4" stroke-linecap="round"/>
<text x="659.7" y="1330.0" fill="#1f2937" font-size="17" font-weight="400">资源池/调度:我做</text>
<line x1="649.7" y1="1384.0" x2="824.7" y2="1384.0" stroke="#d97706" stroke-width="2.4" stroke-linecap="round"/>
<text x="659.7" y="1376.0" fill="#1f2937" font-size="17" font-weight="400">DCGM/XID:接触兜底</text>
<line x1="649.7" y1="1430.0" x2="792.8" y2="1430.0" stroke="#d97706" stroke-width="2.4" stroke-linecap="round"/>
<text x="659.7" y="1422.0" fill="#1f2937" font-size="17" font-weight="400">内核/硬件:不做</text>
</svg>