<svg xmlns="http://www.w3.org/2000/svg" viewBox="0 0 1293 960" font-family="-apple-system, PingFang SC, Microsoft YaHei, Helvetica, Arial, sans-serif">
<rect x="0" y="0" width="1293" height="960" fill="#ffffff"/>
<path d="M 178.6,488.0 C 215.6,488.0 215.6,124.0 252.6,124.0" fill="none" stroke="#2563eb" stroke-width="2.1" stroke-linecap="round"/>
<path d="M 362.4,124.0 C 421.1,124.0 421.1,40.0 479.9,40.0" fill="none" stroke="#2563eb" stroke-width="2.1" stroke-linecap="round"/>
<path d="M 559.1,40.0 C 706.2,40.0 706.2,40.0 853.3,40.0" fill="none" stroke="#2563eb" stroke-width="2.1" stroke-linecap="round"/>
<path d="M 362.4,124.0 C 421.1,124.0 421.1,68.0 479.9,68.0" fill="none" stroke="#2563eb" stroke-width="2.1" stroke-linecap="round"/>
<path d="M 559.1,68.0 C 706.2,68.0 706.2,68.0 853.3,68.0" fill="none" stroke="#2563eb" stroke-width="2.1" stroke-linecap="round"/>
<path d="M 362.4,124.0 C 421.1,124.0 421.1,96.0 479.9,96.0" fill="none" stroke="#2563eb" stroke-width="2.1" stroke-linecap="round"/>
<path d="M 559.1,96.0 C 706.2,96.0 706.2,96.0 853.3,96.0" fill="none" stroke="#2563eb" stroke-width="2.1" stroke-linecap="round"/>
<path d="M 362.4,124.0 C 421.1,124.0 421.1,124.0 479.9,124.0" fill="none" stroke="#2563eb" stroke-width="2.1" stroke-linecap="round"/>
<path d="M 559.1,124.0 C 706.2,124.0 706.2,124.0 853.3,124.0" fill="none" stroke="#2563eb" stroke-width="2.1" stroke-linecap="round"/>
<path d="M 362.4,124.0 C 421.1,124.0 421.1,152.0 479.9,152.0" fill="none" stroke="#2563eb" stroke-width="2.1" stroke-linecap="round"/>
<path d="M 559.1,152.0 C 706.2,152.0 706.2,152.0 853.3,152.0" fill="none" stroke="#2563eb" stroke-width="2.1" stroke-linecap="round"/>
<path d="M 362.4,124.0 C 421.1,124.0 421.1,180.0 479.9,180.0" fill="none" stroke="#2563eb" stroke-width="2.1" stroke-linecap="round"/>
<path d="M 559.1,180.0 C 706.2,180.0 706.2,180.0 853.3,180.0" fill="none" stroke="#2563eb" stroke-width="2.1" stroke-linecap="round"/>
<path d="M 362.4,124.0 C 421.1,124.0 421.1,208.0 479.9,208.0" fill="none" stroke="#2563eb" stroke-width="2.1" stroke-linecap="round"/>
<path d="M 565.1,208.0 C 709.2,208.0 709.2,208.0 853.3,208.0" fill="none" stroke="#2563eb" stroke-width="2.1" stroke-linecap="round"/>
<path d="M 178.6,488.0 C 215.6,488.0 215.6,348.0 252.6,348.0" fill="none" stroke="#dc2626" stroke-width="2.1" stroke-linecap="round"/>
<path d="M 405.9,348.0 C 442.9,348.0 442.9,236.0 479.9,236.0" fill="none" stroke="#dc2626" stroke-width="2.1" stroke-linecap="round"/>
<path d="M 559.1,236.0 C 706.2,236.0 706.2,236.0 853.3,236.0" fill="none" stroke="#dc2626" stroke-width="2.1" stroke-linecap="round"/>
<path d="M 405.9,348.0 C 442.9,348.0 442.9,306.0 479.9,306.0" fill="none" stroke="#dc2626" stroke-width="2.1" stroke-linecap="round"/>
<path d="M 589.7,306.0 C 721.5,306.0 721.5,264.0 853.3,264.0" fill="none" stroke="#dc2626" stroke-width="2.1" stroke-linecap="round"/>
<path d="M 589.7,306.0 C 721.5,306.0 721.5,292.0 853.3,292.0" fill="none" stroke="#dc2626" stroke-width="2.1" stroke-linecap="round"/>
<path d="M 589.7,306.0 C 721.5,306.0 721.5,320.0 853.3,320.0" fill="none" stroke="#dc2626" stroke-width="2.1" stroke-linecap="round"/>
<path d="M 589.7,306.0 C 721.5,306.0 721.5,348.0 853.3,348.0" fill="none" stroke="#dc2626" stroke-width="2.1" stroke-linecap="round"/>
<path d="M 405.9,348.0 C 442.9,348.0 442.9,404.0 479.9,404.0" fill="none" stroke="#dc2626" stroke-width="2.1" stroke-linecap="round"/>
<path d="M 528.5,404.0 C 690.9,404.0 690.9,376.0 853.3,376.0" fill="none" stroke="#dc2626" stroke-width="2.1" stroke-linecap="round"/>
<path d="M 528.5,404.0 C 690.9,404.0 690.9,404.0 853.3,404.0" fill="none" stroke="#dc2626" stroke-width="2.1" stroke-linecap="round"/>
<path d="M 528.5,404.0 C 690.9,404.0 690.9,432.0 853.3,432.0" fill="none" stroke="#dc2626" stroke-width="2.1" stroke-linecap="round"/>
<path d="M 405.9,348.0 C 442.9,348.0 442.9,460.0 479.9,460.0" fill="none" stroke="#dc2626" stroke-width="2.1" stroke-linecap="round"/>
<path d="M 584.3,460.0 C 718.8,460.0 718.8,460.0 853.3,460.0" fill="none" stroke="#dc2626" stroke-width="2.1" stroke-linecap="round"/>
<path d="M 178.6,488.0 C 215.6,488.0 215.6,558.0 252.6,558.0" fill="none" stroke="#059669" stroke-width="2.1" stroke-linecap="round"/>
<path d="M 362.4,558.0 C 421.1,558.0 421.1,488.0 479.9,488.0" fill="none" stroke="#059669" stroke-width="2.1" stroke-linecap="round"/>
<path d="M 362.4,558.0 C 421.1,558.0 421.1,516.0 479.9,516.0" fill="none" stroke="#059669" stroke-width="2.1" stroke-linecap="round"/>
<path d="M 362.4,558.0 C 421.1,558.0 421.1,544.0 479.9,544.0" fill="none" stroke="#059669" stroke-width="2.1" stroke-linecap="round"/>
<path d="M 362.4,558.0 C 421.1,558.0 421.1,572.0 479.9,572.0" fill="none" stroke="#059669" stroke-width="2.1" stroke-linecap="round"/>
<path d="M 362.4,558.0 C 421.1,558.0 421.1,600.0 479.9,600.0" fill="none" stroke="#059669" stroke-width="2.1" stroke-linecap="round"/>
<path d="M 362.4,558.0 C 421.1,558.0 421.1,628.0 479.9,628.0" fill="none" stroke="#059669" stroke-width="2.1" stroke-linecap="round"/>
<path d="M 178.6,488.0 C 215.6,488.0 215.6,712.0 252.6,712.0" fill="none" stroke="#7c3aed" stroke-width="2.1" stroke-linecap="round"/>
<path d="M 396.0,712.0 C 437.9,712.0 437.9,656.0 479.9,656.0" fill="none" stroke="#7c3aed" stroke-width="2.1" stroke-linecap="round"/>
<path d="M 396.0,712.0 C 437.9,712.0 437.9,684.0 479.9,684.0" fill="none" stroke="#7c3aed" stroke-width="2.1" stroke-linecap="round"/>
<path d="M 396.0,712.0 C 437.9,712.0 437.9,712.0 479.9,712.0" fill="none" stroke="#7c3aed" stroke-width="2.1" stroke-linecap="round"/>
<path d="M 396.0,712.0 C 437.9,712.0 437.9,740.0 479.9,740.0" fill="none" stroke="#7c3aed" stroke-width="2.1" stroke-linecap="round"/>
<path d="M 396.0,712.0 C 437.9,712.0 437.9,768.0 479.9,768.0" fill="none" stroke="#7c3aed" stroke-width="2.1" stroke-linecap="round"/>
<path d="M 178.6,488.0 C 215.6,488.0 215.6,852.0 252.6,852.0" fill="none" stroke="#ea580c" stroke-width="2.1" stroke-linecap="round"/>
<path d="M 393.0,852.0 C 436.4,852.0 436.4,796.0 479.9,796.0" fill="none" stroke="#ea580c" stroke-width="2.1" stroke-linecap="round"/>
<path d="M 393.0,852.0 C 436.4,852.0 436.4,824.0 479.9,824.0" fill="none" stroke="#ea580c" stroke-width="2.1" stroke-linecap="round"/>
<path d="M 393.0,852.0 C 436.4,852.0 436.4,852.0 479.9,852.0" fill="none" stroke="#ea580c" stroke-width="2.1" stroke-linecap="round"/>
<path d="M 393.0,852.0 C 436.4,852.0 436.4,880.0 479.9,880.0" fill="none" stroke="#ea580c" stroke-width="2.1" stroke-linecap="round"/>
<path d="M 393.0,852.0 C 436.4,852.0 436.4,908.0 479.9,908.0" fill="none" stroke="#ea580c" stroke-width="2.1" stroke-linecap="round"/>
<rect x="36" y="465.0" width="142.6" height="46" rx="10" fill="#1e293b"/>
<text x="107.3" y="494.0" text-anchor="middle" fill="#ffffff" font-size="19" font-weight="700">AIOps 体系</text>
<line x1="252.6" y1="124.0" x2="362.4" y2="124.0" stroke="#2563eb" stroke-width="2.1" stroke-linecap="round"/>
<text x="261.6" y="117.0" fill="#2563eb" font-size="15" font-weight="700">一、建设维度</text>
<line x1="479.9" y1="40.0" x2="559.1" y2="40.0" stroke="#2563eb" stroke-width="2.1" stroke-linecap="round"/>
<text x="488.9" y="33.0" fill="#2563eb" font-size="15" font-weight="600">数据底座</text>
<line x1="853.3" y1="40.0" x2="1253.5" y2="40.0" stroke="#2563eb" stroke-width="2.1" stroke-linecap="round"/>
<text x="862.3" y="33.0" fill="#1f2937" font-size="15" font-weight="400">指标 / 日志 / 链路 / 事件 / 变更 / CMDB 拓扑统一</text>
<line x1="479.9" y1="68.0" x2="559.1" y2="68.0" stroke="#2563eb" stroke-width="2.1" stroke-linecap="round"/>
<text x="488.9" y="61.0" fill="#2563eb" font-size="15" font-weight="600">告警治理</text>
<line x1="853.3" y1="68.0" x2="1115.2" y2="68.0" stroke="#2563eb" stroke-width="2.1" stroke-linecap="round"/>
<text x="862.3" y="61.0" fill="#1f2937" font-size="15" font-weight="400">降噪 / 同源聚合 / 分级 / 事件化</text>
<line x1="479.9" y1="96.0" x2="559.1" y2="96.0" stroke="#2563eb" stroke-width="2.1" stroke-linecap="round"/>
<text x="488.9" y="89.0" fill="#2563eb" font-size="15" font-weight="600">检测能力</text>
<line x1="853.3" y1="96.0" x2="1074.7" y2="96.0" stroke="#2563eb" stroke-width="2.1" stroke-linecap="round"/>
<text x="862.3" y="89.0" fill="#1f2937" font-size="15" font-weight="400">异常检测 / 趋势 / 容量预测</text>
<line x1="479.9" y1="124.0" x2="559.1" y2="124.0" stroke="#2563eb" stroke-width="2.1" stroke-linecap="round"/>
<text x="488.9" y="117.0" fill="#2563eb" font-size="15" font-weight="600">根因分析</text>
<line x1="853.3" y1="124.0" x2="1105.3" y2="124.0" stroke="#2563eb" stroke-width="2.1" stroke-linecap="round"/>
<text x="862.3" y="117.0" fill="#1f2937" font-size="15" font-weight="400">关联下钻 / 拓扑推理 / 血缘归因</text>
<line x1="479.9" y1="152.0" x2="559.1" y2="152.0" stroke="#2563eb" stroke-width="2.1" stroke-linecap="round"/>
<text x="488.9" y="145.0" fill="#2563eb" font-size="15" font-weight="600">知识资产</text>
<line x1="853.3" y1="152.0" x2="1105.9" y2="152.0" stroke="#2563eb" stroke-width="2.1" stroke-linecap="round"/>
<text x="862.3" y="145.0" fill="#1f2937" font-size="15" font-weight="400">SOP / Skill / 知识库 / 经验库</text>
<line x1="479.9" y1="180.0" x2="559.1" y2="180.0" stroke="#2563eb" stroke-width="2.1" stroke-linecap="round"/>
<text x="488.9" y="173.0" fill="#2563eb" font-size="15" font-weight="600">受控处置</text>
<line x1="853.3" y1="180.0" x2="1059.4" y2="180.0" stroke="#2563eb" stroke-width="2.1" stroke-linecap="round"/>
<text x="862.3" y="173.0" fill="#1f2937" font-size="15" font-weight="400">预案 / 分级执行 / 可回滚</text>
<line x1="479.9" y1="208.0" x2="565.1" y2="208.0" stroke="#2563eb" stroke-width="2.1" stroke-linecap="round"/>
<text x="488.9" y="201.0" fill="#2563eb" font-size="15" font-weight="600">AgentOps</text>
<line x1="853.3" y1="208.0" x2="1028.8" y2="208.0" stroke="#2563eb" stroke-width="2.1" stroke-linecap="round"/>
<text x="862.3" y="201.0" fill="#1f2937" font-size="15" font-weight="400">可观测 / 评估 / 回归</text>
<line x1="252.6" y1="348.0" x2="405.9" y2="348.0" stroke="#dc2626" stroke-width="2.1" stroke-linecap="round"/>
<text x="261.6" y="341.0" fill="#dc2626" font-size="15" font-weight="700">二、高优 Agent 化</text>
<line x1="479.9" y1="236.0" x2="559.1" y2="236.0" stroke="#dc2626" stroke-width="2.1" stroke-linecap="round"/>
<text x="488.9" y="229.0" fill="#dc2626" font-size="15" font-weight="600">判断标准</text>
<line x1="853.3" y1="236.0" x2="1130.5" y2="236.0" stroke="#dc2626" stroke-width="2.1" stroke-linecap="round"/>
<text x="862.3" y="229.0" fill="#1f2937" font-size="15" font-weight="400">高频 + 规则清晰 + 只读 + 证据可得</text>
<line x1="479.9" y1="306.0" x2="589.7" y2="306.0" stroke="#dc2626" stroke-width="2.1" stroke-linecap="round"/>
<text x="488.9" y="299.0" fill="#dc2626" font-size="15" font-weight="600">先做（高优）</text>
<line x1="853.3" y1="264.0" x2="1148.2" y2="264.0" stroke="#dc2626" stroke-width="2.1" stroke-linecap="round"/>
<text x="862.3" y="257.0" fill="#1f2937" font-size="15" font-weight="400">告警上下文聚合取证（指标/日志/链路）</text>
<line x1="853.3" y1="292.0" x2="1088.5" y2="292.0" stroke="#dc2626" stroke-width="2.1" stroke-linecap="round"/>
<text x="862.3" y="285.0" fill="#1f2937" font-size="15" font-weight="400">假设-验证根因（候选 + 反证）</text>
<line x1="853.3" y1="320.0" x2="1018.9" y2="320.0" stroke="#dc2626" stroke-width="2.1" stroke-linecap="round"/>
<text x="862.3" y="313.0" fill="#1f2937" font-size="15" font-weight="400">告警降噪 / 同源聚合</text>
<line x1="853.3" y1="348.0" x2="1030.3" y2="348.0" stroke="#dc2626" stroke-width="2.1" stroke-linecap="round"/>
<text x="862.3" y="341.0" fill="#1f2937" font-size="15" font-weight="400">Runbook 只读取证执行</text>
<line x1="479.9" y1="404.0" x2="528.5" y2="404.0" stroke="#dc2626" stroke-width="2.1" stroke-linecap="round"/>
<text x="488.9" y="397.0" fill="#dc2626" font-size="15" font-weight="600">中优</text>
<line x1="853.3" y1="376.0" x2="963.1" y2="376.0" stroke="#dc2626" stroke-width="2.1" stroke-linecap="round"/>
<text x="862.3" y="369.0" fill="#1f2937" font-size="15" font-weight="400">变更关联归因</text>
<line x1="853.3" y1="404.0" x2="1018.0" y2="404.0" stroke="#dc2626" stroke-width="2.1" stroke-linecap="round"/>
<text x="862.3" y="397.0" fill="#1f2937" font-size="15" font-weight="400">复盘转 SOP / Skill</text>
<line x1="853.3" y1="432.0" x2="988.3" y2="432.0" stroke="#dc2626" stroke-width="2.1" stroke-linecap="round"/>
<text x="862.3" y="425.0" fill="#1f2937" font-size="15" font-weight="400">容量 / 趋势问答</text>
<line x1="479.9" y1="460.0" x2="584.3" y2="460.0" stroke="#dc2626" stroke-width="2.1" stroke-linecap="round"/>
<text x="488.9" y="453.0" fill="#dc2626" font-size="15" font-weight="600">谨慎 / 暂缓</text>
<line x1="853.3" y1="460.0" x2="1115.2" y2="460.0" stroke="#dc2626" stroke-width="2.1" stroke-linecap="round"/>
<text x="862.3" y="453.0" fill="#1f2937" font-size="15" font-weight="400">自动写操作 / 自愈 → 受控 + 审批</text>
<line x1="252.6" y1="558.0" x2="362.4" y2="558.0" stroke="#059669" stroke-width="2.1" stroke-linecap="round"/>
<text x="261.6" y="551.0" fill="#059669" font-size="15" font-weight="700">三、设计原则</text>
<line x1="479.9" y1="488.0" x2="666.2" y2="488.0" stroke="#059669" stroke-width="2.1" stroke-linecap="round"/>
<text x="488.9" y="481.0" fill="#1f2937" font-size="15" font-weight="400">证据驱动，不让模型裸答</text>
<line x1="479.9" y1="516.0" x2="681.5" y2="516.0" stroke="#059669" stroke-width="2.1" stroke-linecap="round"/>
<text x="488.9" y="509.0" fill="#1f2937" font-size="15" font-weight="400">只读优先，写操作分级受控</text>
<line x1="479.9" y1="544.0" x2="731.9" y2="544.0" stroke="#059669" stroke-width="2.1" stroke-linecap="round"/>
<text x="488.9" y="537.0" fill="#1f2937" font-size="15" font-weight="400">输出分层 · 事实/推断/建议/风险</text>
<line x1="479.9" y1="572.0" x2="687.5" y2="572.0" stroke="#059669" stroke-width="2.1" stroke-linecap="round"/>
<text x="488.9" y="565.0" fill="#1f2937" font-size="15" font-weight="400">允许 Unknown，不硬凑结论</text>
<line x1="479.9" y1="600.0" x2="711.2" y2="600.0" stroke="#059669" stroke-width="2.1" stroke-linecap="round"/>
<text x="488.9" y="593.0" fill="#1f2937" font-size="15" font-weight="400">工具输出结构化信封 envelope</text>
<line x1="479.9" y1="628.0" x2="659.9" y2="628.0" stroke="#059669" stroke-width="2.1" stroke-linecap="round"/>
<text x="488.9" y="621.0" fill="#1f2937" font-size="15" font-weight="400">Local-first 分层诊断</text>
<line x1="252.6" y1="712.0" x2="396.0" y2="712.0" stroke="#7c3aed" stroke-width="2.1" stroke-linecap="round"/>
<text x="261.6" y="705.0" fill="#7c3aed" font-size="15" font-weight="700">四、落地路线 0→1</text>
<line x1="479.9" y1="656.0" x2="764.0" y2="656.0" stroke="#7c3aed" stroke-width="2.1" stroke-linecap="round"/>
<text x="488.9" y="649.0" fill="#1f2937" font-size="15" font-weight="400">P0 · 只读取证 + 报告，告警驱动编排</text>
<line x1="479.9" y1="684.0" x2="726.5" y2="684.0" stroke="#7c3aed" stroke-width="2.1" stroke-linecap="round"/>
<text x="488.9" y="677.0" fill="#1f2937" font-size="15" font-weight="400">P1 · 实体/拓扑模型 + 工具网关</text>
<line x1="479.9" y1="712.0" x2="766.1" y2="712.0" stroke="#7c3aed" stroke-width="2.1" stroke-linecap="round"/>
<text x="488.9" y="705.0" fill="#1f2937" font-size="15" font-weight="400">P2 · 假设-验证 Agent + Skill 沉淀</text>
<line x1="479.9" y1="740.0" x2="757.7" y2="740.0" stroke="#7c3aed" stroke-width="2.1" stroke-linecap="round"/>
<text x="488.9" y="733.0" fill="#1f2937" font-size="15" font-weight="400">P3 · AgentOps 评估 / 回归 / 看板</text>
<line x1="479.9" y1="768.0" x2="723.5" y2="768.0" stroke="#7c3aed" stroke-width="2.1" stroke-linecap="round"/>
<text x="488.9" y="761.0" fill="#1f2937" font-size="15" font-weight="400">P4 · 受控执行，按风险分级放开</text>
<line x1="252.6" y1="852.0" x2="393.0" y2="852.0" stroke="#ea580c" stroke-width="2.1" stroke-linecap="round"/>
<text x="261.6" y="845.0" fill="#ea580c" font-size="15" font-weight="700">五、面试发散应答</text>
<line x1="479.9" y1="796.0" x2="720.5" y2="796.0" stroke="#ea580c" stroke-width="2.1" stroke-linecap="round"/>
<text x="488.9" y="789.0" fill="#1f2937" font-size="15" font-weight="400">先定边界（只读/受控）再讲方案</text>
<line x1="479.9" y1="824.0" x2="779.3" y2="824.0" stroke="#ea580c" stroke-width="2.1" stroke-linecap="round"/>
<text x="488.9" y="817.0" fill="#1f2937" font-size="15" font-weight="400">主线 · 数据→检测→定位→处置→沉淀→评估</text>
<line x1="479.9" y1="852.0" x2="758.0" y2="852.0" stroke="#ea580c" stroke-width="2.1" stroke-linecap="round"/>
<text x="488.9" y="845.0" fill="#1f2937" font-size="15" font-weight="400">落到一个场景讲闭环（数仓破线最佳）</text>
<line x1="479.9" y1="880.0" x2="689.0" y2="880.0" stroke="#ea580c" stroke-width="2.1" stroke-linecap="round"/>
<text x="488.9" y="873.0" fill="#1f2937" font-size="15" font-weight="400">强调 AgentOps 闭环防回退</text>
<line x1="479.9" y1="908.0" x2="752.6" y2="908.0" stroke="#ea580c" stroke-width="2.1" stroke-linecap="round"/>
<text x="488.9" y="901.0" fill="#1f2937" font-size="15" font-weight="400">不夸大 · 没生产级就说「对标设计」</text>
</svg>