<svg xmlns="http://www.w3.org/2000/svg" viewBox="0 0 1192 820" font-family="-apple-system, PingFang SC, Microsoft YaHei, Helvetica, Arial, sans-serif">
<rect x="0" y="0" width="1192" height="820" fill="#ffffff"/>
<path d="M 333.6,411.0 C 370.6,411.0 370.6,68.0 407.6,68.0" fill="none" stroke="#2563eb" stroke-width="2.1" stroke-linecap="round"/>
<path d="M 486.8,68.0 C 558.9,68.0 558.9,40.0 631.0,40.0" fill="none" stroke="#2563eb" stroke-width="2.1" stroke-linecap="round"/>
<path d="M 710.2,40.0 C 762.8,40.0 762.8,40.0 815.4,40.0" fill="none" stroke="#2563eb" stroke-width="2.1" stroke-linecap="round"/>
<path d="M 486.8,68.0 C 558.9,68.0 558.9,68.0 631.0,68.0" fill="none" stroke="#2563eb" stroke-width="2.1" stroke-linecap="round"/>
<path d="M 710.2,68.0 C 762.8,68.0 762.8,68.0 815.4,68.0" fill="none" stroke="#2563eb" stroke-width="2.1" stroke-linecap="round"/>
<path d="M 486.8,68.0 C 558.9,68.0 558.9,96.0 631.0,96.0" fill="none" stroke="#2563eb" stroke-width="2.1" stroke-linecap="round"/>
<path d="M 710.2,96.0 C 762.8,96.0 762.8,96.0 815.4,96.0" fill="none" stroke="#2563eb" stroke-width="2.1" stroke-linecap="round"/>
<path d="M 333.6,411.0 C 370.6,411.0 370.6,152.0 407.6,152.0" fill="none" stroke="#dc2626" stroke-width="2.1" stroke-linecap="round"/>
<path d="M 545.6,152.0 C 588.3,152.0 588.3,124.0 631.0,124.0" fill="none" stroke="#dc2626" stroke-width="2.1" stroke-linecap="round"/>
<path d="M 679.6,124.0 C 747.5,124.0 747.5,124.0 815.4,124.0" fill="none" stroke="#dc2626" stroke-width="2.1" stroke-linecap="round"/>
<path d="M 545.6,152.0 C 588.3,152.0 588.3,152.0 631.0,152.0" fill="none" stroke="#dc2626" stroke-width="2.1" stroke-linecap="round"/>
<path d="M 710.2,152.0 C 762.8,152.0 762.8,152.0 815.4,152.0" fill="none" stroke="#dc2626" stroke-width="2.1" stroke-linecap="round"/>
<path d="M 545.6,152.0 C 588.3,152.0 588.3,180.0 631.0,180.0" fill="none" stroke="#dc2626" stroke-width="2.1" stroke-linecap="round"/>
<path d="M 694.9,180.0 C 755.2,180.0 755.2,180.0 815.4,180.0" fill="none" stroke="#dc2626" stroke-width="2.1" stroke-linecap="round"/>
<path d="M 333.6,411.0 C 370.6,411.0 370.6,236.0 407.6,236.0" fill="none" stroke="#059669" stroke-width="2.1" stroke-linecap="round"/>
<path d="M 548.0,236.0 C 589.5,236.0 589.5,208.0 631.0,208.0" fill="none" stroke="#059669" stroke-width="2.1" stroke-linecap="round"/>
<path d="M 710.2,208.0 C 762.8,208.0 762.8,208.0 815.4,208.0" fill="none" stroke="#059669" stroke-width="2.1" stroke-linecap="round"/>
<path d="M 548.0,236.0 C 589.5,236.0 589.5,236.0 631.0,236.0" fill="none" stroke="#059669" stroke-width="2.1" stroke-linecap="round"/>
<path d="M 725.5,236.0 C 770.5,236.0 770.5,236.0 815.4,236.0" fill="none" stroke="#059669" stroke-width="2.1" stroke-linecap="round"/>
<path d="M 548.0,236.0 C 589.5,236.0 589.5,264.0 631.0,264.0" fill="none" stroke="#059669" stroke-width="2.1" stroke-linecap="round"/>
<path d="M 710.2,264.0 C 762.8,264.0 762.8,264.0 815.4,264.0" fill="none" stroke="#059669" stroke-width="2.1" stroke-linecap="round"/>
<path d="M 333.6,411.0 C 370.6,411.0 370.6,320.0 407.6,320.0" fill="none" stroke="#7c3aed" stroke-width="2.1" stroke-linecap="round"/>
<path d="M 486.8,320.0 C 558.9,320.0 558.9,292.0 631.0,292.0" fill="none" stroke="#7c3aed" stroke-width="2.1" stroke-linecap="round"/>
<path d="M 710.2,292.0 C 762.8,292.0 762.8,292.0 815.4,292.0" fill="none" stroke="#7c3aed" stroke-width="2.1" stroke-linecap="round"/>
<path d="M 486.8,320.0 C 558.9,320.0 558.9,320.0 631.0,320.0" fill="none" stroke="#7c3aed" stroke-width="2.1" stroke-linecap="round"/>
<path d="M 679.6,320.0 C 747.5,320.0 747.5,320.0 815.4,320.0" fill="none" stroke="#7c3aed" stroke-width="2.1" stroke-linecap="round"/>
<path d="M 486.8,320.0 C 558.9,320.0 558.9,348.0 631.0,348.0" fill="none" stroke="#7c3aed" stroke-width="2.1" stroke-linecap="round"/>
<path d="M 674.2,348.0 C 744.8,348.0 744.8,348.0 815.4,348.0" fill="none" stroke="#7c3aed" stroke-width="2.1" stroke-linecap="round"/>
<path d="M 333.6,411.0 C 370.6,411.0 370.6,418.0 407.6,418.0" fill="none" stroke="#ea580c" stroke-width="2.1" stroke-linecap="round"/>
<path d="M 502.1,418.0 C 566.6,418.0 566.6,376.0 631.0,376.0" fill="none" stroke="#ea580c" stroke-width="2.1" stroke-linecap="round"/>
<path d="M 710.2,376.0 C 762.8,376.0 762.8,376.0 815.4,376.0" fill="none" stroke="#ea580c" stroke-width="2.1" stroke-linecap="round"/>
<path d="M 502.1,418.0 C 566.6,418.0 566.6,404.0 631.0,404.0" fill="none" stroke="#ea580c" stroke-width="2.1" stroke-linecap="round"/>
<path d="M 694.9,404.0 C 755.2,404.0 755.2,404.0 815.4,404.0" fill="none" stroke="#ea580c" stroke-width="2.1" stroke-linecap="round"/>
<path d="M 502.1,418.0 C 566.6,418.0 566.6,432.0 631.0,432.0" fill="none" stroke="#ea580c" stroke-width="2.1" stroke-linecap="round"/>
<path d="M 694.9,432.0 C 755.2,432.0 755.2,432.0 815.4,432.0" fill="none" stroke="#ea580c" stroke-width="2.1" stroke-linecap="round"/>
<path d="M 502.1,418.0 C 566.6,418.0 566.6,460.0 631.0,460.0" fill="none" stroke="#ea580c" stroke-width="2.1" stroke-linecap="round"/>
<path d="M 679.6,460.0 C 747.5,460.0 747.5,460.0 815.4,460.0" fill="none" stroke="#ea580c" stroke-width="2.1" stroke-linecap="round"/>
<path d="M 333.6,411.0 C 370.6,411.0 370.6,530.0 407.6,530.0" fill="none" stroke="#0891b2" stroke-width="2.1" stroke-linecap="round"/>
<path d="M 502.1,530.0 C 566.6,530.0 566.6,488.0 631.0,488.0" fill="none" stroke="#0891b2" stroke-width="2.1" stroke-linecap="round"/>
<path d="M 691.0,488.0 C 753.2,488.0 753.2,488.0 815.4,488.0" fill="none" stroke="#0891b2" stroke-width="2.1" stroke-linecap="round"/>
<path d="M 502.1,530.0 C 566.6,530.0 566.6,516.0 631.0,516.0" fill="none" stroke="#0891b2" stroke-width="2.1" stroke-linecap="round"/>
<path d="M 691.0,516.0 C 753.2,516.0 753.2,516.0 815.4,516.0" fill="none" stroke="#0891b2" stroke-width="2.1" stroke-linecap="round"/>
<path d="M 502.1,530.0 C 566.6,530.0 566.6,544.0 631.0,544.0" fill="none" stroke="#0891b2" stroke-width="2.1" stroke-linecap="round"/>
<path d="M 741.4,544.0 C 778.4,544.0 778.4,544.0 815.4,544.0" fill="none" stroke="#0891b2" stroke-width="2.1" stroke-linecap="round"/>
<path d="M 502.1,530.0 C 566.6,530.0 566.6,572.0 631.0,572.0" fill="none" stroke="#0891b2" stroke-width="2.1" stroke-linecap="round"/>
<path d="M 741.4,572.0 C 778.4,572.0 778.4,572.0 815.4,572.0" fill="none" stroke="#0891b2" stroke-width="2.1" stroke-linecap="round"/>
<path d="M 333.6,411.0 C 370.6,411.0 370.6,656.0 407.6,656.0" fill="none" stroke="#d97706" stroke-width="2.1" stroke-linecap="round"/>
<path d="M 557.0,656.0 C 594.0,656.0 594.0,600.0 631.0,600.0" fill="none" stroke="#d97706" stroke-width="2.1" stroke-linecap="round"/>
<path d="M 679.6,600.0 C 747.5,600.0 747.5,600.0 815.4,600.0" fill="none" stroke="#d97706" stroke-width="2.1" stroke-linecap="round"/>
<path d="M 557.0,656.0 C 594.0,656.0 594.0,628.0 631.0,628.0" fill="none" stroke="#d97706" stroke-width="2.1" stroke-linecap="round"/>
<path d="M 679.6,628.0 C 747.5,628.0 747.5,628.0 815.4,628.0" fill="none" stroke="#d97706" stroke-width="2.1" stroke-linecap="round"/>
<path d="M 557.0,656.0 C 594.0,656.0 594.0,656.0 631.0,656.0" fill="none" stroke="#d97706" stroke-width="2.1" stroke-linecap="round"/>
<path d="M 679.6,656.0 C 747.5,656.0 747.5,656.0 815.4,656.0" fill="none" stroke="#d97706" stroke-width="2.1" stroke-linecap="round"/>
<path d="M 557.0,656.0 C 594.0,656.0 594.0,684.0 631.0,684.0" fill="none" stroke="#d97706" stroke-width="2.1" stroke-linecap="round"/>
<path d="M 679.6,684.0 C 747.5,684.0 747.5,684.0 815.4,684.0" fill="none" stroke="#d97706" stroke-width="2.1" stroke-linecap="round"/>
<path d="M 557.0,656.0 C 594.0,656.0 594.0,712.0 631.0,712.0" fill="none" stroke="#d97706" stroke-width="2.1" stroke-linecap="round"/>
<path d="M 679.6,712.0 C 747.5,712.0 747.5,712.0 815.4,712.0" fill="none" stroke="#d97706" stroke-width="2.1" stroke-linecap="round"/>
<path d="M 333.6,411.0 C 370.6,411.0 370.6,754.0 407.6,754.0" fill="none" stroke="#db2777" stroke-width="2.1" stroke-linecap="round"/>
<path d="M 542.6,754.0 C 586.8,754.0 586.8,740.0 631.0,740.0" fill="none" stroke="#db2777" stroke-width="2.1" stroke-linecap="round"/>
<path d="M 710.2,740.0 C 762.8,740.0 762.8,740.0 815.4,740.0" fill="none" stroke="#db2777" stroke-width="2.1" stroke-linecap="round"/>
<path d="M 542.6,754.0 C 586.8,754.0 586.8,768.0 631.0,768.0" fill="none" stroke="#db2777" stroke-width="2.1" stroke-linecap="round"/>
<path d="M 679.6,768.0 C 747.5,768.0 747.5,768.0 815.4,768.0" fill="none" stroke="#db2777" stroke-width="2.1" stroke-linecap="round"/>
<rect x="36" y="388.0" width="297.6" height="46" rx="10" fill="#1e293b"/>
<text x="184.8" y="417.0" text-anchor="middle" fill="#ffffff" font-size="19" font-weight="700">数仓平台 AIOps（实际场景）</text>
<line x1="407.6" y1="68.0" x2="486.8" y2="68.0" stroke="#2563eb" stroke-width="2.1" stroke-linecap="round"/>
<text x="416.6" y="61.0" fill="#2563eb" font-size="15" font-weight="700">数据质量</text>
<line x1="631.0" y1="40.0" x2="710.2" y2="40.0" stroke="#2563eb" stroke-width="2.1" stroke-linecap="round"/>
<text x="640.0" y="33.0" fill="#2563eb" font-size="15" font-weight="600">校验规则</text>
<line x1="815.4" y1="40.0" x2="1148.4" y2="40.0" stroke="#2563eb" stroke-width="2.1" stroke-linecap="round"/>
<text x="824.4" y="33.0" fill="#1f2937" font-size="15" font-weight="400">空值 / 重复 / 主键唯一 / 枚举 / 取值范围</text>
<line x1="631.0" y1="68.0" x2="710.2" y2="68.0" stroke="#2563eb" stroke-width="2.1" stroke-linecap="round"/>
<text x="640.0" y="61.0" fill="#2563eb" font-size="15" font-weight="600">分布漂移</text>
<line x1="815.4" y1="68.0" x2="1011.6" y2="68.0" stroke="#2563eb" stroke-width="2.1" stroke-linecap="round"/>
<text x="824.4" y="61.0" fill="#1f2937" font-size="15" font-weight="400">行数突增突降 / 分位漂移</text>
<line x1="631.0" y1="96.0" x2="710.2" y2="96.0" stroke="#2563eb" stroke-width="2.1" stroke-linecap="round"/>
<text x="640.0" y="89.0" fill="#2563eb" font-size="15" font-weight="600">校验时机</text>
<line x1="815.4" y1="96.0" x2="996.3" y2="96.0" stroke="#2563eb" stroke-width="2.1" stroke-linecap="round"/>
<text x="824.4" y="89.0" fill="#1f2937" font-size="15" font-weight="400">入仓即检 / 产出后校验</text>
<line x1="407.6" y1="152.0" x2="545.6" y2="152.0" stroke="#dc2626" stroke-width="2.1" stroke-linecap="round"/>
<text x="416.6" y="145.0" fill="#dc2626" font-size="15" font-weight="700">时效 SLA / 破线</text>
<line x1="631.0" y1="124.0" x2="679.6" y2="124.0" stroke="#dc2626" stroke-width="2.1" stroke-linecap="round"/>
<text x="640.0" y="117.0" fill="#dc2626" font-size="15" font-weight="600">基线</text>
<line x1="815.4" y1="124.0" x2="955.8" y2="124.0" stroke="#dc2626" stroke-width="2.1" stroke-linecap="round"/>
<text x="824.4" y="117.0" fill="#1f2937" font-size="15" font-weight="400">历史产出时间分布</text>
<line x1="631.0" y1="152.0" x2="710.2" y2="152.0" stroke="#dc2626" stroke-width="2.1" stroke-linecap="round"/>
<text x="640.0" y="145.0" fill="#dc2626" font-size="15" font-weight="600">破线预测</text>
<line x1="815.4" y1="152.0" x2="1042.2" y2="152.0" stroke="#dc2626" stroke-width="2.1" stroke-linecap="round"/>
<text x="824.4" y="145.0" fill="#1f2937" font-size="15" font-weight="400">上游延迟 + 运行时长能否赶上</text>
<line x1="631.0" y1="180.0" x2="694.9" y2="180.0" stroke="#dc2626" stroke-width="2.1" stroke-linecap="round"/>
<text x="640.0" y="173.0" fill="#dc2626" font-size="15" font-weight="600">影响面</text>
<line x1="815.4" y1="180.0" x2="996.3" y2="180.0" stroke="#dc2626" stroke-width="2.1" stroke-linecap="round"/>
<text x="824.4" y="173.0" fill="#1f2937" font-size="15" font-weight="400">沿血缘下游报表 / 看板</text>
<line x1="407.6" y1="236.0" x2="548.0" y2="236.0" stroke="#059669" stroke-width="2.1" stroke-linecap="round"/>
<text x="416.6" y="229.0" fill="#059669" font-size="15" font-weight="700">血缘根因（核心）</text>
<line x1="631.0" y1="208.0" x2="710.2" y2="208.0" stroke="#059669" stroke-width="2.1" stroke-linecap="round"/>
<text x="640.0" y="201.0" fill="#059669" font-size="15" font-weight="600">血缘粒度</text>
<line x1="815.4" y1="208.0" x2="935.1" y2="208.0" stroke="#059669" stroke-width="2.1" stroke-linecap="round"/>
<text x="824.4" y="201.0" fill="#1f2937" font-size="15" font-weight="400">表级 / 字段级</text>
<line x1="631.0" y1="236.0" x2="725.5" y2="236.0" stroke="#059669" stroke-width="2.1" stroke-linecap="round"/>
<text x="640.0" y="229.0" fill="#059669" font-size="15" font-weight="600">坏数据传播</text>
<line x1="815.4" y1="236.0" x2="955.8" y2="236.0" stroke="#059669" stroke-width="2.1" stroke-linecap="round"/>
<text x="824.4" y="229.0" fill="#1f2937" font-size="15" font-weight="400">沿血缘定位首因表</text>
<line x1="631.0" y1="264.0" x2="710.2" y2="264.0" stroke="#059669" stroke-width="2.1" stroke-linecap="round"/>
<text x="640.0" y="257.0" fill="#059669" font-size="15" font-weight="600">延迟传播</text>
<line x1="815.4" y1="264.0" x2="986.4" y2="264.0" stroke="#059669" stroke-width="2.1" stroke-linecap="round"/>
<text x="824.4" y="257.0" fill="#1f2937" font-size="15" font-weight="400">哪个上游任务拖累产出</text>
<line x1="407.6" y1="320.0" x2="486.8" y2="320.0" stroke="#7c3aed" stroke-width="2.1" stroke-linecap="round"/>
<text x="416.6" y="313.0" fill="#7c3aed" font-size="15" font-weight="700">调度健康</text>
<line x1="631.0" y1="292.0" x2="710.2" y2="292.0" stroke="#7c3aed" stroke-width="2.1" stroke-linecap="round"/>
<text x="640.0" y="285.0" fill="#7c3aed" font-size="15" font-weight="600">任务异常</text>
<line x1="815.4" y1="292.0" x2="1031.4" y2="292.0" stroke="#7c3aed" stroke-width="2.1" stroke-linecap="round"/>
<text x="824.4" y="285.0" fill="#1f2937" font-size="15" font-weight="400">失败 / 重跑 / 卡死 / 长尾</text>
<line x1="631.0" y1="320.0" x2="679.6" y2="320.0" stroke="#7c3aed" stroke-width="2.1" stroke-linecap="round"/>
<text x="640.0" y="313.0" fill="#7c3aed" font-size="15" font-weight="600">依赖</text>
<line x1="815.4" y1="320.0" x2="965.7" y2="320.0" stroke="#7c3aed" stroke-width="2.1" stroke-linecap="round"/>
<text x="824.4" y="313.0" fill="#1f2937" font-size="15" font-weight="400">上游未就绪 / 积压</text>
<line x1="631.0" y1="348.0" x2="674.2" y2="348.0" stroke="#7c3aed" stroke-width="2.1" stroke-linecap="round"/>
<text x="640.0" y="341.0" fill="#7c3aed" font-size="15" font-weight="600">DAG</text>
<line x1="815.4" y1="348.0" x2="925.2" y2="348.0" stroke="#7c3aed" stroke-width="2.1" stroke-linecap="round"/>
<text x="824.4" y="341.0" fill="#1f2937" font-size="15" font-weight="400">关键路径分析</text>
<line x1="407.6" y1="418.0" x2="502.1" y2="418.0" stroke="#ea580c" stroke-width="2.1" stroke-linecap="round"/>
<text x="416.6" y="411.0" fill="#ea580c" font-size="15" font-weight="700">资源与成本</text>
<line x1="631.0" y1="376.0" x2="710.2" y2="376.0" stroke="#ea580c" stroke-width="2.1" stroke-linecap="round"/>
<text x="640.0" y="369.0" fill="#ea580c" font-size="15" font-weight="600">数据倾斜</text>
<line x1="815.4" y1="376.0" x2="995.4" y2="376.0" stroke="#ea580c" stroke-width="2.1" stroke-linecap="round"/>
<text x="824.4" y="369.0" fill="#1f2937" font-size="15" font-weight="400">热点 key / 长尾 task</text>
<line x1="631.0" y1="404.0" x2="694.9" y2="404.0" stroke="#ea580c" stroke-width="2.1" stroke-linecap="round"/>
<text x="640.0" y="397.0" fill="#ea580c" font-size="15" font-weight="600">小文件</text>
<line x1="815.4" y1="404.0" x2="919.8" y2="404.0" stroke="#ea580c" stroke-width="2.1" stroke-linecap="round"/>
<text x="824.4" y="397.0" fill="#1f2937" font-size="15" font-weight="400">合并 / 治理</text>
<line x1="631.0" y1="432.0" x2="694.9" y2="432.0" stroke="#ea580c" stroke-width="2.1" stroke-linecap="round"/>
<text x="640.0" y="425.0" fill="#ea580c" font-size="15" font-weight="600">扫描量</text>
<line x1="815.4" y1="432.0" x2="981.0" y2="432.0" stroke="#ea580c" stroke-width="2.1" stroke-linecap="round"/>
<text x="824.4" y="425.0" fill="#1f2937" font-size="15" font-weight="400">分区裁剪 / 谓词下推</text>
<line x1="631.0" y1="460.0" x2="679.6" y2="460.0" stroke="#ea580c" stroke-width="2.1" stroke-linecap="round"/>
<text x="640.0" y="453.0" fill="#ea580c" font-size="15" font-weight="600">队列</text>
<line x1="815.4" y1="460.0" x2="961.8" y2="460.0" stroke="#ea580c" stroke-width="2.1" stroke-linecap="round"/>
<text x="824.4" y="453.0" fill="#1f2937" font-size="15" font-weight="400">抢占 / Spot 弹性</text>
<line x1="407.6" y1="530.0" x2="502.1" y2="530.0" stroke="#0891b2" stroke-width="2.1" stroke-linecap="round"/>
<text x="416.6" y="523.0" fill="#0891b2" font-size="15" font-weight="700">引擎层故障</text>
<line x1="631.0" y1="488.0" x2="691.0" y2="488.0" stroke="#0891b2" stroke-width="2.1" stroke-linecap="round"/>
<text x="640.0" y="481.0" fill="#0891b2" font-size="15" font-weight="600">Spark</text>
<line x1="815.4" y1="488.0" x2="1040.4" y2="488.0" stroke="#0891b2" stroke-width="2.1" stroke-linecap="round"/>
<text x="824.4" y="481.0" fill="#1f2937" font-size="15" font-weight="400">OOM / shuffle / GC / 倾斜</text>
<line x1="631.0" y1="516.0" x2="691.0" y2="516.0" stroke="#0891b2" stroke-width="2.1" stroke-linecap="round"/>
<text x="640.0" y="509.0" fill="#0891b2" font-size="15" font-weight="600">Flink</text>
<line x1="815.4" y1="516.0" x2="1098.6" y2="516.0" stroke="#0891b2" stroke-width="2.1" stroke-linecap="round"/>
<text x="824.4" y="509.0" fill="#1f2937" font-size="15" font-weight="400">反压 / checkpoint 失败 / 状态膨胀</text>
<line x1="631.0" y1="544.0" x2="741.4" y2="544.0" stroke="#0891b2" stroke-width="2.1" stroke-linecap="round"/>
<text x="640.0" y="537.0" fill="#0891b2" font-size="15" font-weight="600">Hive·Presto</text>
<line x1="815.4" y1="544.0" x2="960.3" y2="544.0" stroke="#0891b2" stroke-width="2.1" stroke-linecap="round"/>
<text x="824.4" y="537.0" fill="#1f2937" font-size="15" font-weight="400">慢SQL / 全表扫描</text>
<line x1="631.0" y1="572.0" x2="741.4" y2="572.0" stroke="#0891b2" stroke-width="2.1" stroke-linecap="round"/>
<text x="640.0" y="565.0" fill="#0891b2" font-size="15" font-weight="600">HBase·Kafka</text>
<line x1="815.4" y1="572.0" x2="919.8" y2="572.0" stroke="#0891b2" stroke-width="2.1" stroke-linecap="round"/>
<text x="824.4" y="565.0" fill="#1f2937" font-size="15" font-weight="400">热点 / 积压</text>
<line x1="407.6" y1="656.0" x2="557.0" y2="656.0" stroke="#d97706" stroke-width="2.1" stroke-linecap="round"/>
<text x="416.6" y="649.0" fill="#d97706" font-size="15" font-weight="700">AIOps Agent 闭环</text>
<line x1="631.0" y1="600.0" x2="679.6" y2="600.0" stroke="#d97706" stroke-width="2.1" stroke-linecap="round"/>
<text x="640.0" y="593.0" fill="#d97706" font-size="15" font-weight="600">输入</text>
<line x1="815.4" y1="600.0" x2="981.0" y2="600.0" stroke="#d97706" stroke-width="2.1" stroke-linecap="round"/>
<text x="824.4" y="593.0" fill="#1f2937" font-size="15" font-weight="400">任务失败 / 破线告警</text>
<line x1="631.0" y1="628.0" x2="679.6" y2="628.0" stroke="#d97706" stroke-width="2.1" stroke-linecap="round"/>
<text x="640.0" y="621.0" fill="#d97706" font-size="15" font-weight="600">取证</text>
<line x1="815.4" y1="628.0" x2="1123.2" y2="628.0" stroke="#d97706" stroke-width="2.1" stroke-linecap="round"/>
<text x="824.4" y="621.0" fill="#1f2937" font-size="15" font-weight="400">调度日志 + 引擎指标 + 血缘 + 数据剖析</text>
<line x1="631.0" y1="656.0" x2="679.6" y2="656.0" stroke="#d97706" stroke-width="2.1" stroke-linecap="round"/>
<text x="640.0" y="649.0" fill="#d97706" font-size="15" font-weight="600">定位</text>
<line x1="815.4" y1="656.0" x2="984.0" y2="656.0" stroke="#d97706" stroke-width="2.1" stroke-linecap="round"/>
<text x="824.4" y="649.0" fill="#1f2937" font-size="15" font-weight="400">沿血缘 + DAG 找首因</text>
<line x1="631.0" y1="684.0" x2="679.6" y2="684.0" stroke="#d97706" stroke-width="2.1" stroke-linecap="round"/>
<text x="640.0" y="677.0" fill="#d97706" font-size="15" font-weight="600">建议</text>
<line x1="815.4" y1="684.0" x2="1117.8" y2="684.0" stroke="#d97706" stroke-width="2.1" stroke-linecap="round"/>
<text x="824.4" y="677.0" fill="#1f2937" font-size="15" font-weight="400">重跑 / 补数 / 调参 / 扩资源 / 改分区</text>
<line x1="631.0" y1="712.0" x2="679.6" y2="712.0" stroke="#d97706" stroke-width="2.1" stroke-linecap="round"/>
<text x="640.0" y="705.0" fill="#d97706" font-size="15" font-weight="600">受控</text>
<line x1="815.4" y1="712.0" x2="1004.7" y2="712.0" stroke="#d97706" stroke-width="2.1" stroke-linecap="round"/>
<text x="824.4" y="705.0" fill="#1f2937" font-size="15" font-weight="400">重跑·补数需审批 + 幂等</text>
<line x1="407.6" y1="754.0" x2="542.6" y2="754.0" stroke="#db2777" stroke-width="2.1" stroke-linecap="round"/>
<text x="416.6" y="747.0" fill="#db2777" font-size="15" font-weight="700">经验连接 / 边界</text>
<line x1="631.0" y1="740.0" x2="710.2" y2="740.0" stroke="#db2777" stroke-width="2.1" stroke-linecap="round"/>
<text x="640.0" y="733.0" fill="#db2777" font-size="15" font-weight="600">真实经验</text>
<line x1="815.4" y1="740.0" x2="1152.0" y2="740.0" stroke="#db2777" stroke-width="2.1" stroke-linecap="round"/>
<text x="824.4" y="733.0" fill="#1f2937" font-size="15" font-weight="400">Soda Pepsi 调度 / 画像宽表 / Worker OOM</text>
<line x1="631.0" y1="768.0" x2="679.6" y2="768.0" stroke="#db2777" stroke-width="2.1" stroke-linecap="round"/>
<text x="640.0" y="761.0" fill="#db2777" font-size="15" font-weight="600">边界</text>
<line x1="815.4" y1="768.0" x2="1126.2" y2="768.0" stroke="#db2777" stroke-width="2.1" stroke-linecap="round"/>
<text x="824.4" y="761.0" fill="#1f2937" font-size="15" font-weight="400">数仓 AIOps Agent 未生产落地，对标设计</text>
</svg>