<svg xmlns="http://www.w3.org/2000/svg" viewBox="0 0 960 650" width="960" height="650">
<style>
text { font-family: 'Helvetica Neue', Helvetica, Arial, 'PingFang SC', 'Microsoft YaHei', 'Microsoft JhengHei', 'SimHei', sans-serif; }
.title { font-size: 25px; font-weight: 700; fill: #111827; }
.subtitle { font-size: 13px; fill: #6b7280; }
.label { font-size: 14px; font-weight: 650; fill: #111827; }
.small { font-size: 12px; fill: #6b7280; }
.tiny { font-size: 11px; fill: #6b7280; }
.lane { font-size: 11px; font-weight: 700; letter-spacing: 0.04em; }
</style>
<defs>
<filter id="shadow" x="-20%" y="-20%" width="140%" height="140%"><feDropShadow dx="0" dy="4" stdDeviation="4" flood-color="#0f172a" flood-opacity="0.10"/></filter>
<marker id="arrow-blue" markerWidth="10" markerHeight="7" refX="9" refY="3.5" orient="auto"><polygon points="0 0,10 3.5,0 7" fill="#2563eb"/></marker>
<marker id="arrow-green" markerWidth="10" markerHeight="7" refX="9" refY="3.5" orient="auto"><polygon points="0 0,10 3.5,0 7" fill="#16a34a"/></marker>
<marker id="arrow-purple" markerWidth="10" markerHeight="7" refX="9" refY="3.5" orient="auto"><polygon points="0 0,10 3.5,0 7" fill="#9333ea"/></marker>
<marker id="arrow-orange" markerWidth="10" markerHeight="7" refX="9" refY="3.5" orient="auto"><polygon points="0 0,10 3.5,0 7" fill="#ea580c"/></marker>
<marker id="arrow-red" markerWidth="10" markerHeight="7" refX="9" refY="3.5" orient="auto"><polygon points="0 0,10 3.5,0 7" fill="#dc2626"/></marker>
<marker id="arrow-teal" markerWidth="10" markerHeight="7" refX="9" refY="3.5" orient="auto"><polygon points="0 0,10 3.5,0 7" fill="#0f766e"/></marker>
<marker id="arrow-gray" markerWidth="10" markerHeight="7" refX="9" refY="3.5" orient="auto"><polygon points="0 0,10 3.5,0 7" fill="#6b7280"/></marker>
</defs>
<rect width="960" height="650" fill="#ffffff"/>
<text x="480.0" y="34" text-anchor="middle" class="title">AI 工作负载 Runtime 统一</text>
<text x="480.0" y="57" text-anchor="middle" class="subtitle">底层异构，平台侧统一服务画像、资源、状态和运维动作</text>
<rect x="30" y="80" width="900" height="74" rx="10" fill="#eff6ff" fill-opacity="0.45" stroke="#bfdbfe" stroke-width="1.3" stroke-dasharray="7 5"/>
<text x="44" y="102" class="lane" fill="#2563eb">USER / AUTOMATION</text>
<rect x="70" y="104" width="150" height="40" rx="10" fill="#eff6ff" stroke="#bfdbfe" stroke-width="1.5" filter="url(#shadow)"/>
<text x="145.0" y="116.0" text-anchor="middle" class="label">算法同学</text>
<text x="145.0" y="137.0" text-anchor="middle" class="small">训练 / 推理 / 下载</text>
<rect x="300" y="104" width="150" height="40" rx="10" fill="#eff6ff" stroke="#bfdbfe" stroke-width="1.5" filter="url(#shadow)"/>
<text x="375.0" y="116.0" text-anchor="middle" class="label">SAI Console</text>
<text x="375.0" y="137.0" text-anchor="middle" class="small">统一入口</text>
<rect x="530" y="104" width="150" height="40" rx="10" fill="#eff6ff" stroke="#bfdbfe" stroke-width="1.5" filter="url(#shadow)"/>
<text x="605.0" y="116.0" text-anchor="middle" class="label">OpenAPI</text>
<text x="605.0" y="137.0" text-anchor="middle" class="small">自动化系统</text>
<line x1="220" y1="124" x2="300" y2="124" stroke="#2563eb" stroke-width="2.2" marker-end="url(#arrow-blue)"/>
<rect x="218.0" y="103.0" width="84" height="20" rx="10" fill="#ffffff" opacity="0.92"/>
<text x="260.0" y="118.0" text-anchor="middle" class="tiny">提交</text>
<line x1="450" y1="124" x2="530" y2="124" stroke="#2563eb" stroke-width="2.2" marker-end="url(#arrow-blue)"/>
<rect x="448.0" y="103.0" width="84" height="20" rx="10" fill="#ffffff" opacity="0.92"/>
<text x="490.0" y="118.0" text-anchor="middle" class="tiny">调用</text>
<rect x="30" y="185" width="900" height="125" rx="10" fill="#faf5ff" fill-opacity="0.45" stroke="#e9d5ff" stroke-width="1.3" stroke-dasharray="7 5"/>
<text x="44" y="207" class="lane" fill="#9333ea">SAI CONTROL PLANE</text>
<rect x="70" y="220" width="150" height="58" rx="10" fill="#faf5ff" stroke="#e9d5ff" stroke-width="1.5" filter="url(#shadow)"/>
<text x="145.0" y="241.0" text-anchor="middle" class="label">server</text>
<text x="145.0" y="262.0" text-anchor="middle" class="small">鉴权 / 校验 / 编排</text>
<rect x="285" y="220" width="150" height="58" rx="10" fill="#faf5ff" stroke="#e9d5ff" stroke-width="1.5" filter="url(#shadow)"/>
<text x="360.0" y="241.0" text-anchor="middle" class="label">服务画像</text>
<text x="360.0" y="262.0" text-anchor="middle" class="small">provider / runtime</text>
<text x="360.0" y="276.0" text-anchor="middle" class="small">/ model</text>
<rect x="500" y="220" width="150" height="58" rx="10" fill="#faf5ff" stroke="#e9d5ff" stroke-width="1.5" filter="url(#shadow)"/>
<text x="575.0" y="241.0" text-anchor="middle" class="label">生命周期动作</text>
<text x="575.0" y="262.0" text-anchor="middle" class="small">扩缩容 / 重启 / 迁移</text>
<rect x="715" y="220" width="150" height="58" rx="10" fill="#faf5ff" stroke="#e9d5ff" stroke-width="1.5" filter="url(#shadow)"/>
<text x="790.0" y="241.0" text-anchor="middle" class="label">Provider 适配</text>
<text x="790.0" y="262.0" text-anchor="middle" class="small">ACK / PAI / 贝联</text>
<line x1="220" y1="249" x2="285" y2="249" stroke="#9333ea" stroke-width="2.2" marker-end="url(#arrow-purple)"/>
<line x1="435" y1="249" x2="500" y2="249" stroke="#9333ea" stroke-width="2.2" marker-end="url(#arrow-purple)"/>
<line x1="650" y1="249" x2="715" y2="249" stroke="#9333ea" stroke-width="2.2" marker-end="url(#arrow-purple)"/>
<rect x="30" y="340" width="900" height="120" rx="10" fill="#f0fdf4" fill-opacity="0.45" stroke="#bbf7d0" stroke-width="1.3" stroke-dasharray="7 5"/>
<text x="44" y="362" class="lane" fill="#16a34a">SHARED GOVERNANCE</text>
<rect x="70" y="374" width="150" height="56" rx="10" fill="#f0fdf4" stroke="#bbf7d0" stroke-width="1.5" filter="url(#shadow)"/>
<text x="145.0" y="394.0" text-anchor="middle" class="label">NodePool</text>
<text x="145.0" y="415.0" text-anchor="middle" class="small">GPU / CPU / spot</text>
<rect x="285" y="374" width="150" height="56" rx="10" fill="#f0fdf4" stroke="#bbf7d0" stroke-width="1.5" filter="url(#shadow)"/>
<text x="360.0" y="394.0" text-anchor="middle" class="label">存储挂载</text>
<text x="360.0" y="415.0" text-anchor="middle" class="small">NAS / OSS / Git /</text>
<text x="360.0" y="429.0" text-anchor="middle" class="small">PVC</text>
<rect x="500" y="374" width="150" height="56" rx="10" fill="#f0fdf4" stroke="#bbf7d0" stroke-width="1.5" filter="url(#shadow)"/>
<text x="575.0" y="394.0" text-anchor="middle" class="label">watcher / Sync</text>
<text x="575.0" y="415.0" text-anchor="middle" class="small">状态回写 / 补偿</text>
<rect x="715" y="374" width="150" height="56" rx="10" fill="#f0fdf4" stroke="#bbf7d0" stroke-width="1.5" filter="url(#shadow)"/>
<text x="790.0" y="394.0" text-anchor="middle" class="label">日志事件</text>
<text x="790.0" y="415.0" text-anchor="middle" class="small">实例 / Pod / Event</text>
<path d="M790 278 V337 Q790 352 775 352 H575 V374" fill="none" stroke="#16a34a" stroke-width="2.2" marker-end="url(#arrow-green)" stroke-dasharray="6 4"/>
<rect x="644" y="339" width="92" height="20" rx="10" fill="#ffffff" opacity="0.92"/>
<text x="690" y="354" text-anchor="middle" class="tiny">运行态</text>
<path d="M145 374 V320 Q145 305 160 305 H790 V278" fill="none" stroke="#16a34a" stroke-width="2.2" marker-end="url(#arrow-green)" stroke-dasharray="6 4"/>
<rect x="406" y="308" width="92" height="20" rx="10" fill="#ffffff" opacity="0.92"/>
<text x="452" y="323" text-anchor="middle" class="tiny">资源与存储</text>
<rect x="30" y="490" width="900" height="100" rx="10" fill="#fff7ed" fill-opacity="0.45" stroke="#fed7aa" stroke-width="1.3" stroke-dasharray="7 5"/>
<text x="44" y="512" class="lane" fill="#ea580c">EXECUTION RUNTIMES</text>
<rect x="65" y="522" width="90" height="44" rx="10" fill="#fff7ed" stroke="#fed7aa" stroke-width="1.5" filter="url(#shadow)"/>
<text x="110.0" y="536.0" text-anchor="middle" class="label">KServe</text>
<text x="110.0" y="557.0" text-anchor="middle" class="small">推理</text>
<rect x="190" y="522" width="90" height="44" rx="10" fill="#fff7ed" stroke="#fed7aa" stroke-width="1.5" filter="url(#shadow)"/>
<text x="235.0" y="536.0" text-anchor="middle" class="label">TFJob</text>
<text x="235.0" y="557.0" text-anchor="middle" class="small">训练</text>
<rect x="315" y="522" width="90" height="44" rx="10" fill="#fff7ed" stroke="#fed7aa" stroke-width="1.5" filter="url(#shadow)"/>
<text x="360.0" y="536.0" text-anchor="middle" class="label">CronJob</text>
<text x="360.0" y="557.0" text-anchor="middle" class="small">周期</text>
<rect x="440" y="522" width="90" height="44" rx="10" fill="#fff7ed" stroke="#fed7aa" stroke-width="1.5" filter="url(#shadow)"/>
<text x="485.0" y="536.0" text-anchor="middle" class="label">Nuclio</text>
<text x="485.0" y="557.0" text-anchor="middle" class="small">函数</text>
<rect x="565" y="522" width="90" height="44" rx="10" fill="#fff7ed" stroke="#fed7aa" stroke-width="1.5" filter="url(#shadow)"/>
<text x="610.0" y="536.0" text-anchor="middle" class="label">Job</text>
<text x="610.0" y="557.0" text-anchor="middle" class="small">模型下载</text>
<rect x="690" y="522" width="90" height="44" rx="10" fill="#fff7ed" stroke="#fed7aa" stroke-width="1.5" filter="url(#shadow)"/>
<text x="735.0" y="536.0" text-anchor="middle" class="label">PAI / 火山</text>
<text x="735.0" y="557.0" text-anchor="middle" class="small">托管</text>
<rect x="815" y="522" width="90" height="44" rx="10" fill="#fff7ed" stroke="#fed7aa" stroke-width="1.5" filter="url(#shadow)"/>
<text x="860.0" y="536.0" text-anchor="middle" class="label">贝联</text>
<text x="860.0" y="557.0" text-anchor="middle" class="small">外部推理</text>
<path d="M790 278 V505" fill="none" stroke="#ea580c" stroke-width="2.2" marker-end="url(#arrow-orange)"/>
<rect x="774" y="375" width="92" height="20" rx="10" fill="#ffffff" opacity="0.92"/>
<text x="820" y="390" text-anchor="middle" class="tiny">执行</text>
<line x1="26" y1="610" x2="56" y2="610" stroke="#2563eb" stroke-width="2" marker-end="url(#arrow-blue)"/>
<text x="64" y="614" class="tiny">同步控制</text>
<line x1="26" y1="628" x2="56" y2="628" stroke="#9333ea" stroke-width="2" marker-end="url(#arrow-purple)"/>
<text x="64" y="632" class="tiny">平台编排</text>
<line x1="26" y1="646" x2="56" y2="646" stroke="#16a34a" stroke-width="2" marker-end="url(#arrow-green)"/>
<text x="64" y="650" class="tiny">状态与治理</text>
<line x1="26" y1="664" x2="56" y2="664" stroke="#ea580c" stroke-width="2" marker-end="url(#arrow-orange)"/>
<text x="64" y="668" class="tiny">底层执行</text>
</svg>