<svg xmlns="http://www.w3.org/2000/svg" viewBox="0 0 960 650" width="960" height="650">
<style>
text { font-family: 'Helvetica Neue', Helvetica, Arial, 'PingFang SC', 'Microsoft YaHei', 'Microsoft JhengHei', 'SimHei', sans-serif; }
.title { font-size: 25px; font-weight: 700; fill: #111827; }
.subtitle { font-size: 13px; fill: #6b7280; }
.label { font-size: 14px; font-weight: 650; fill: #111827; }
.small { font-size: 12px; fill: #6b7280; }
.tiny { font-size: 11px; fill: #6b7280; }
.lane { font-size: 11px; font-weight: 700; letter-spacing: 0.04em; }
</style>
<defs>
<filter id="shadow" x="-20%" y="-20%" width="140%" height="140%"><feDropShadow dx="0" dy="4" stdDeviation="4" flood-color="#0f172a" flood-opacity="0.10"/></filter>
<marker id="arrow-blue" markerWidth="10" markerHeight="7" refX="9" refY="3.5" orient="auto"><polygon points="0 0,10 3.5,0 7" fill="#2563eb"/></marker>
<marker id="arrow-green" markerWidth="10" markerHeight="7" refX="9" refY="3.5" orient="auto"><polygon points="0 0,10 3.5,0 7" fill="#16a34a"/></marker>
<marker id="arrow-purple" markerWidth="10" markerHeight="7" refX="9" refY="3.5" orient="auto"><polygon points="0 0,10 3.5,0 7" fill="#9333ea"/></marker>
<marker id="arrow-orange" markerWidth="10" markerHeight="7" refX="9" refY="3.5" orient="auto"><polygon points="0 0,10 3.5,0 7" fill="#ea580c"/></marker>
<marker id="arrow-red" markerWidth="10" markerHeight="7" refX="9" refY="3.5" orient="auto"><polygon points="0 0,10 3.5,0 7" fill="#dc2626"/></marker>
<marker id="arrow-teal" markerWidth="10" markerHeight="7" refX="9" refY="3.5" orient="auto"><polygon points="0 0,10 3.5,0 7" fill="#0f766e"/></marker>
<marker id="arrow-gray" markerWidth="10" markerHeight="7" refX="9" refY="3.5" orient="auto"><polygon points="0 0,10 3.5,0 7" fill="#6b7280"/></marker>
</defs>
<rect width="960" height="650" fill="#ffffff"/>
<text x="480.0" y="34" text-anchor="middle" class="title">GPU 资源池与资源治理</text>
<text x="480.0" y="57" text-anchor="middle" class="subtitle">SAI 做调度意图产品化，最终调度仍由 Kubernetes 和 GPU 插件完成</text>
<rect x="30" y="80" width="900" height="82" rx="10" fill="#eff6ff" fill-opacity="0.45" stroke="#bfdbfe" stroke-width="1.3" stroke-dasharray="7 5"/>
<text x="44" y="102" class="lane" fill="#2563eb">WORKLOAD INTENT</text>
<rect x="65" y="108" width="120" height="42" rx="10" fill="#eff6ff" stroke="#bfdbfe" stroke-width="1.5" filter="url(#shadow)"/>
<text x="125.0" y="121.0" text-anchor="middle" class="label">在线推理</text>
<text x="125.0" y="142.0" text-anchor="middle" class="small">低抖动</text>
<rect x="210" y="108" width="120" height="42" rx="10" fill="#eff6ff" stroke="#bfdbfe" stroke-width="1.5" filter="url(#shadow)"/>
<text x="270.0" y="121.0" text-anchor="middle" class="label">训练任务</text>
<text x="270.0" y="142.0" text-anchor="middle" class="small">算力密集</text>
<rect x="355" y="108" width="120" height="42" rx="10" fill="#eff6ff" stroke="#bfdbfe" stroke-width="1.5" filter="url(#shadow)"/>
<text x="415.0" y="121.0" text-anchor="middle" class="label">FAISS / 下载</text>
<text x="415.0" y="142.0" text-anchor="middle" class="small">可重试</text>
<rect x="500" y="108" width="120" height="42" rx="10" fill="#eff6ff" stroke="#bfdbfe" stroke-width="1.5" filter="url(#shadow)"/>
<text x="560.0" y="121.0" text-anchor="middle" class="label">CPU 任务</text>
<text x="560.0" y="142.0" text-anchor="middle" class="small">非 GPU</text>
<rect x="680" y="102" width="170" height="54" rx="10" fill="#faf5ff" stroke="#e9d5ff" stroke-width="1.5" filter="url(#shadow)"/>
<text x="765.0" y="121.0" text-anchor="middle" class="label">SAI 资源准入</text>
<text x="765.0" y="142.0" text-anchor="middle" class="small">类型 / 规格 / 权限校验</text>
<line x1="620" y1="129" x2="680" y2="129" stroke="#2563eb" stroke-width="2.2" marker-end="url(#arrow-blue)"/>
<rect x="608.0" y="108.0" width="84" height="20" rx="10" fill="#ffffff" opacity="0.92"/>
<text x="650.0" y="123.0" text-anchor="middle" class="tiny">提交</text>
<rect x="30" y="200" width="900" height="115" rx="10" fill="#f0fdf4" fill-opacity="0.45" stroke="#bbf7d0" stroke-width="1.3" stroke-dasharray="7 5"/>
<text x="44" y="222" class="lane" fill="#16a34a">NODEPOOL / RESOURCEGROUP</text>
<rect x="75" y="236" width="165" height="50" rx="10" fill="#f0fdf4" stroke="#bbf7d0" stroke-width="1.5" filter="url(#shadow)"/>
<text x="157.5" y="253.0" text-anchor="middle" class="label">独占 GPU 池</text>
<text x="157.5" y="274.0" text-anchor="middle" class="small">nvidia.com/gpu</text>
<rect x="290" y="236" width="165" height="50" rx="10" fill="#f0fdf4" stroke="#bbf7d0" stroke-width="1.5" filter="url(#shadow)"/>
<text x="372.5" y="253.0" text-anchor="middle" class="label">共享显存池</text>
<text x="372.5" y="274.0" text-anchor="middle" class="small">aliyun.com/gpu-mem</text>
<rect x="505" y="236" width="165" height="50" rx="10" fill="#f0fdf4" stroke="#bbf7d0" stroke-width="1.5" filter="url(#shadow)"/>
<text x="587.5" y="253.0" text-anchor="middle" class="label">抢占 GPU 池</text>
<text x="587.5" y="274.0" text-anchor="middle" class="small">spot / taint</text>
<rect x="720" y="236" width="165" height="50" rx="10" fill="#f0fdf4" stroke="#bbf7d0" stroke-width="1.5" filter="url(#shadow)"/>
<text x="802.5" y="253.0" text-anchor="middle" class="label">CPU 池</text>
<text x="802.5" y="274.0" text-anchor="middle" class="small">cpu / memory</text>
<path d="M765 156 V190 Q765 205 750 205 H155 V236" fill="none" stroke="#16a34a" stroke-width="2.2" marker-end="url(#arrow-green)"/>
<rect x="434" y="192" width="92" height="20" rx="10" fill="#ffffff" opacity="0.92"/>
<text x="480" y="207" text-anchor="middle" class="tiny">资源池选择</text>
<rect x="30" y="350" width="900" height="88" rx="10" fill="#faf5ff" fill-opacity="0.45" stroke="#e9d5ff" stroke-width="1.3" stroke-dasharray="7 5"/>
<text x="44" y="372" class="lane" fill="#9333ea">PODSPEC TRANSLATION</text>
<rect x="95" y="377" width="155" height="42" rx="10" fill="#faf5ff" stroke="#e9d5ff" stroke-width="1.5" filter="url(#shadow)"/>
<text x="172.5" y="390.0" text-anchor="middle" class="label">nodeSelector</text>
<text x="172.5" y="411.0" text-anchor="middle" class="small">节点标签</text>
<rect x="310" y="377" width="155" height="42" rx="10" fill="#faf5ff" stroke="#e9d5ff" stroke-width="1.5" filter="url(#shadow)"/>
<text x="387.5" y="390.0" text-anchor="middle" class="label">tolerations</text>
<text x="387.5" y="411.0" text-anchor="middle" class="small">污点容忍</text>
<rect x="525" y="377" width="155" height="42" rx="10" fill="#faf5ff" stroke="#e9d5ff" stroke-width="1.5" filter="url(#shadow)"/>
<text x="602.5" y="390.0" text-anchor="middle" class="label">limits</text>
<text x="602.5" y="411.0" text-anchor="middle" class="small">GPU / 显存 / CPU</text>
<rect x="740" y="377" width="120" height="42" rx="10" fill="#faf5ff" stroke="#e9d5ff" stroke-width="1.5" filter="url(#shadow)"/>
<text x="800.0" y="390.0" text-anchor="middle" class="label">PodSpec</text>
<text x="800.0" y="411.0" text-anchor="middle" class="small">生成</text>
<line x1="240" y1="261" x2="250" y2="377" stroke="#9333ea" stroke-width="2.2" marker-end="url(#arrow-purple)"/>
<line x1="455" y1="261" x2="465" y2="377" stroke="#9333ea" stroke-width="2.2" marker-end="url(#arrow-purple)"/>
<line x1="670" y1="261" x2="680" y2="377" stroke="#9333ea" stroke-width="2.2" marker-end="url(#arrow-purple)"/>
<line x1="680" y1="398" x2="740" y2="398" stroke="#9333ea" stroke-width="2.2" marker-end="url(#arrow-purple)"/>
<rect x="30" y="475" width="900" height="98" rx="10" fill="#fff7ed" fill-opacity="0.45" stroke="#fed7aa" stroke-width="1.3" stroke-dasharray="7 5"/>
<text x="44" y="497" class="lane" fill="#ea580c">KUBERNETES EXECUTION</text>
<rect x="90" y="510" width="150" height="42" rx="10" fill="#fff7ed" stroke="#fed7aa" stroke-width="1.5" filter="url(#shadow)"/>
<text x="165.0" y="523.0" text-anchor="middle" class="label">scheduler</text>
<text x="165.0" y="544.0" text-anchor="middle" class="small">真实调度</text>
<rect x="310" y="510" width="150" height="42" rx="10" fill="#fff7ed" stroke="#fed7aa" stroke-width="1.5" filter="url(#shadow)"/>
<text x="385.0" y="523.0" text-anchor="middle" class="label">GPU plugin</text>
<text x="385.0" y="544.0" text-anchor="middle" class="small">设备分配</text>
<rect x="530" y="510" width="150" height="42" rx="10" fill="#fff7ed" stroke="#fed7aa" stroke-width="1.5" filter="url(#shadow)"/>
<text x="605.0" y="515.0" text-anchor="middle" class="label">GPU / CPU</text>
<text x="605.0" y="532.0" text-anchor="middle" class="label">nodes</text>
<text x="605.0" y="553.0" text-anchor="middle" class="small">运行工作负载</text>
<rect x="750" y="510" width="130" height="42" rx="10" fill="#f0fdfa" stroke="#99f6e4" stroke-width="1.5" filter="url(#shadow)"/>
<text x="815.0" y="523.0" text-anchor="middle" class="label">观测与成本</text>
<text x="815.0" y="544.0" text-anchor="middle" class="small">水位 / 用量</text>
<line x1="740" y1="419" x2="240" y2="510" stroke="#ea580c" stroke-width="2.2" marker-end="url(#arrow-orange)"/>
<rect x="448.0" y="443.5" width="84" height="20" rx="10" fill="#ffffff" opacity="0.92"/>
<text x="490.0" y="458.5" text-anchor="middle" class="tiny">调度</text>
<line x1="240" y1="531" x2="310" y2="531" stroke="#ea580c" stroke-width="2.2" marker-end="url(#arrow-orange)"/>
<line x1="460" y1="531" x2="530" y2="531" stroke="#ea580c" stroke-width="2.2" marker-end="url(#arrow-orange)"/>
<line x1="680" y1="531" x2="750" y2="531" stroke="#0f766e" stroke-width="2.2" marker-end="url(#arrow-teal)"/>
<rect x="673.0" y="510.0" width="84" height="20" rx="10" fill="#ffffff" opacity="0.92"/>
<text x="715.0" y="525.0" text-anchor="middle" class="tiny">回收口径</text>
<line x1="26" y1="610" x2="56" y2="610" stroke="#2563eb" stroke-width="2" marker-end="url(#arrow-blue)"/>
<text x="64" y="614" class="tiny">用户意图</text>
<line x1="26" y1="628" x2="56" y2="628" stroke="#16a34a" stroke-width="2" marker-end="url(#arrow-green)"/>
<text x="64" y="632" class="tiny">资源池治理</text>
<line x1="26" y1="646" x2="56" y2="646" stroke="#9333ea" stroke-width="2" marker-end="url(#arrow-purple)"/>
<text x="64" y="650" class="tiny">PodSpec 翻译</text>
<line x1="26" y1="664" x2="56" y2="664" stroke="#ea580c" stroke-width="2" marker-end="url(#arrow-orange)"/>
<text x="64" y="668" class="tiny">底层调度</text>
</svg>