<svg xmlns="http://www.w3.org/2000/svg" viewBox="0 0 960 650" width="960" height="650">
<style>
text { font-family: 'Helvetica Neue', Helvetica, Arial, 'PingFang SC', 'Microsoft YaHei', 'Microsoft JhengHei', 'SimHei', sans-serif; }
.title { font-size: 25px; font-weight: 700; fill: #111827; }
.subtitle { font-size: 13px; fill: #6b7280; }
.label { font-size: 14px; font-weight: 650; fill: #111827; }
.small { font-size: 12px; fill: #6b7280; }
.tiny { font-size: 11px; fill: #6b7280; }
.lane { font-size: 11px; font-weight: 700; letter-spacing: 0.04em; }
</style>
<defs>
<filter id="shadow" x="-20%" y="-20%" width="140%" height="140%"><feDropShadow dx="0" dy="4" stdDeviation="4" flood-color="#0f172a" flood-opacity="0.10"/></filter>
<marker id="arrow-blue" markerWidth="10" markerHeight="7" refX="9" refY="3.5" orient="auto"><polygon points="0 0,10 3.5,0 7" fill="#2563eb"/></marker>
<marker id="arrow-green" markerWidth="10" markerHeight="7" refX="9" refY="3.5" orient="auto"><polygon points="0 0,10 3.5,0 7" fill="#16a34a"/></marker>
<marker id="arrow-purple" markerWidth="10" markerHeight="7" refX="9" refY="3.5" orient="auto"><polygon points="0 0,10 3.5,0 7" fill="#9333ea"/></marker>
<marker id="arrow-orange" markerWidth="10" markerHeight="7" refX="9" refY="3.5" orient="auto"><polygon points="0 0,10 3.5,0 7" fill="#ea580c"/></marker>
<marker id="arrow-red" markerWidth="10" markerHeight="7" refX="9" refY="3.5" orient="auto"><polygon points="0 0,10 3.5,0 7" fill="#dc2626"/></marker>
<marker id="arrow-teal" markerWidth="10" markerHeight="7" refX="9" refY="3.5" orient="auto"><polygon points="0 0,10 3.5,0 7" fill="#0f766e"/></marker>
<marker id="arrow-gray" markerWidth="10" markerHeight="7" refX="9" refY="3.5" orient="auto"><polygon points="0 0,10 3.5,0 7" fill="#6b7280"/></marker>
</defs>
<rect width="960" height="650" fill="#ffffff"/>
<text x="480.0" y="34" text-anchor="middle" class="title">生命周期与状态一致性治理</text>
<text x="480.0" y="57" text-anchor="middle" class="subtitle">server 处理期望状态，watcher / Sync 回写真状态，Job 承接长任务</text>
<rect x="55" y="110" width="145" height="58" rx="10" fill="#eff6ff" stroke="#bfdbfe" stroke-width="1.5" filter="url(#shadow)"/>
<text x="127.5" y="131.0" text-anchor="middle" class="label">用户动作</text>
<text x="127.5" y="152.0" text-anchor="middle" class="small">创建 / 扩缩容 / 停止</text>
<rect x="225" y="110" width="145" height="58" rx="10" fill="#faf5ff" stroke="#e9d5ff" stroke-width="1.5" filter="url(#shadow)"/>
<text x="297.5" y="131.0" text-anchor="middle" class="label">server</text>
<text x="297.5" y="152.0" text-anchor="middle" class="small">鉴权 / 校验 / 编排</text>
<rect x="395" y="110" width="145" height="58" rx="10" fill="#f0fdf4" stroke="#bbf7d0" stroke-width="1.5" filter="url(#shadow)"/>
<text x="467.5" y="131.0" text-anchor="middle" class="label">期望状态</text>
<text x="467.5" y="152.0" text-anchor="middle" class="small">DB / metadata</text>
<rect x="565" y="110" width="145" height="58" rx="10" fill="#fff7ed" stroke="#fed7aa" stroke-width="1.5" filter="url(#shadow)"/>
<text x="637.5" y="131.0" text-anchor="middle" class="label">Runtime 执行</text>
<text x="637.5" y="152.0" text-anchor="middle" class="small">K8s / 第三方平台</text>
<rect x="735" y="110" width="145" height="58" rx="10" fill="#f0fdf4" stroke="#bbf7d0" stroke-width="1.5" filter="url(#shadow)"/>
<text x="807.5" y="131.0" text-anchor="middle" class="label">真实状态</text>
<text x="807.5" y="152.0" text-anchor="middle" class="small">Pod / Job / 服务实例</text>
<line x1="200" y1="139" x2="225" y2="139" stroke="#2563eb" stroke-width="2.2" marker-end="url(#arrow-blue)"/>
<line x1="370" y1="139" x2="395" y2="139" stroke="#2563eb" stroke-width="2.2" marker-end="url(#arrow-blue)"/>
<line x1="540" y1="139" x2="565" y2="139" stroke="#2563eb" stroke-width="2.2" marker-end="url(#arrow-blue)"/>
<line x1="710" y1="139" x2="735" y2="139" stroke="#2563eb" stroke-width="2.2" marker-end="url(#arrow-blue)"/>
<rect x="55" y="230" width="370" height="140" rx="10" fill="#faf5ff" fill-opacity="0.45" stroke="#e9d5ff" stroke-width="1.3" stroke-dasharray="7 5"/>
<text x="69" y="252" class="lane" fill="#9333ea">EVENT DRIVEN</text>
<rect x="85" y="273" width="140" height="54" rx="10" fill="#faf5ff" stroke="#e9d5ff" stroke-width="1.5" filter="url(#shadow)"/>
<text x="155.0" y="292.0" text-anchor="middle" class="label">watcher</text>
<text x="155.0" y="313.0" text-anchor="middle" class="small">TFJob / Job / Pod</text>
<text x="155.0" y="327.0" text-anchor="middle" class="small">事件</text>
<rect x="255" y="273" width="140" height="54" rx="10" fill="#faf5ff" stroke="#e9d5ff" stroke-width="1.5" filter="url(#shadow)"/>
<text x="325.0" y="292.0" text-anchor="middle" class="label">快速回写</text>
<text x="325.0" y="313.0" text-anchor="middle" class="small">及时状态更新</text>
<line x1="225" y1="300" x2="255" y2="300" stroke="#9333ea" stroke-width="2.2" marker-end="url(#arrow-purple)"/>
<rect x="535" y="230" width="370" height="140" rx="10" fill="#f0fdfa" fill-opacity="0.45" stroke="#99f6e4" stroke-width="1.3" stroke-dasharray="7 5"/>
<text x="549" y="252" class="lane" fill="#0f766e">PERIODIC COMPENSATION</text>
<rect x="565" y="273" width="140" height="54" rx="10" fill="#f0fdfa" stroke="#99f6e4" stroke-width="1.5" filter="url(#shadow)"/>
<text x="635.0" y="292.0" text-anchor="middle" class="label">Sync</text>
<text x="635.0" y="313.0" text-anchor="middle" class="small">定时查询</text>
<rect x="735" y="273" width="140" height="54" rx="10" fill="#f0fdfa" stroke="#99f6e4" stroke-width="1.5" filter="url(#shadow)"/>
<text x="805.0" y="292.0" text-anchor="middle" class="label">状态补偿</text>
<text x="805.0" y="313.0" text-anchor="middle" class="small">修复漂移 / 丢事件</text>
<line x1="705" y1="300" x2="735" y2="300" stroke="#0f766e" stroke-width="2.2" marker-end="url(#arrow-teal)"/>
<path d="M805 168 V220 Q805 236 790 236 H155 V273" fill="none" stroke="#9333ea" stroke-width="2.2" marker-end="url(#arrow-purple)" stroke-dasharray="6 4"/>
<rect x="424" y="221" width="92" height="20" rx="10" fill="#ffffff" opacity="0.92"/>
<text x="470" y="236" text-anchor="middle" class="tiny">事件</text>
<path d="M805 168 V220 Q805 236 790 236 H635 V273" fill="none" stroke="#0f766e" stroke-width="2.2" marker-end="url(#arrow-teal)" stroke-dasharray="6 4"/>
<rect x="674" y="221" width="92" height="20" rx="10" fill="#ffffff" opacity="0.92"/>
<text x="720" y="236" text-anchor="middle" class="tiny">巡检</text>
<rect x="55" y="420" width="850" height="108" rx="10" fill="#fff7ed" fill-opacity="0.45" stroke="#fed7aa" stroke-width="1.3" stroke-dasharray="7 5"/>
<text x="69" y="442" class="lane" fill="#ea580c">LONG RUNNING TASKS</text>
<rect x="95" y="455" width="165" height="48" rx="10" fill="#fff7ed" stroke="#fed7aa" stroke-width="1.5" filter="url(#shadow)"/>
<text x="177.5" y="471.0" text-anchor="middle" class="label">Kubernetes Job</text>
<text x="177.5" y="492.0" text-anchor="middle" class="small">模型下载 / 制品处理</text>
<rect x="330" y="455" width="165" height="48" rx="10" fill="#fff7ed" stroke="#fed7aa" stroke-width="1.5" filter="url(#shadow)"/>
<text x="412.5" y="471.0" text-anchor="middle" class="label">Pod 日志</text>
<text x="412.5" y="492.0" text-anchor="middle" class="small">失败定位</text>
<rect x="565" y="455" width="165" height="48" rx="10" fill="#f0fdf4" stroke="#bbf7d0" stroke-width="1.5" filter="url(#shadow)"/>
<text x="647.5" y="471.0" text-anchor="middle" class="label">最终收敛</text>
<text x="647.5" y="492.0" text-anchor="middle" class="small">平台状态可见</text>
<line x1="260" y1="479" x2="330" y2="479" stroke="#ea580c" stroke-width="2.2" marker-end="url(#arrow-orange)"/>
<line x1="495" y1="479" x2="565" y2="479" stroke="#16a34a" stroke-width="2.2" marker-end="url(#arrow-green)"/>
<path d="M635 327 V405 Q635 420 620 420 H180 V455" fill="none" stroke="#ea580c" stroke-width="2.2" marker-end="url(#arrow-orange)"/>
<rect x="359" y="405" width="92" height="20" rx="10" fill="#ffffff" opacity="0.92"/>
<text x="405" y="420" text-anchor="middle" class="tiny">长任务异步</text>
<rect x="96" y="570" width="180" height="34" rx="17.0" fill="#fef2f2" stroke="#fecaca" stroke-width="1.2"/>
<text x="186.0" y="592.0" text-anchor="middle" class="small" font-weight="650" fill="#dc2626">API 返回不等于任务完成</text>
<rect x="320" y="570" width="170" height="34" rx="17.0" fill="#faf5ff" stroke="#e9d5ff" stroke-width="1.2"/>
<text x="405.0" y="592.0" text-anchor="middle" class="small" font-weight="650" fill="#9333ea">watcher 保证及时性</text>
<rect x="535" y="570" width="170" height="34" rx="17.0" fill="#f0fdfa" stroke="#99f6e4" stroke-width="1.2"/>
<text x="620.0" y="592.0" text-anchor="middle" class="small" font-weight="650" fill="#0f766e">Sync 保证补偿</text>
<rect x="750" y="570" width="145" height="34" rx="17.0" fill="#f0fdf4" stroke="#bbf7d0" stroke-width="1.2"/>
<text x="822.5" y="592.0" text-anchor="middle" class="small" font-weight="650" fill="#16a34a">最终一致性</text>
<line x1="26" y1="610" x2="56" y2="610" stroke="#2563eb" stroke-width="2" marker-end="url(#arrow-blue)"/>
<text x="64" y="614" class="tiny">期望状态</text>
<line x1="26" y1="628" x2="56" y2="628" stroke="#9333ea" stroke-width="2" marker-end="url(#arrow-purple)"/>
<text x="64" y="632" class="tiny">事件回写</text>
<line x1="26" y1="646" x2="56" y2="646" stroke="#0f766e" stroke-width="2" marker-end="url(#arrow-teal)"/>
<text x="64" y="650" class="tiny">定时补偿</text>
<line x1="26" y1="664" x2="56" y2="664" stroke="#ea580c" stroke-width="2" marker-end="url(#arrow-orange)"/>
<text x="64" y="668" class="tiny">长任务执行</text>
</svg>