<svg xmlns="http://www.w3.org/2000/svg" viewBox="0 0 916 1327" font-family="-apple-system, PingFang SC, Microsoft YaHei, Helvetica, Arial, sans-serif">
<rect x="0" y="0" width="916" height="1327" fill="#ffffff"/>
<path d="M 229.6,662.8 C 268.6,662.8 268.6,114.5 307.6,114.5" fill="none" stroke="#7c3aed" stroke-width="2.4" stroke-linecap="round"/>
<path d="M 426.4,114.5 C 475.3,114.5 475.3,50.0 524.2,50.0" fill="none" stroke="#7c3aed" stroke-width="2.4" stroke-linecap="round"/>
<path d="M 426.4,114.5 C 475.3,114.5 475.3,93.0 524.2,93.0" fill="none" stroke="#7c3aed" stroke-width="2.4" stroke-linecap="round"/>
<path d="M 426.4,114.5 C 475.3,114.5 475.3,136.0 524.2,136.0" fill="none" stroke="#7c3aed" stroke-width="2.4" stroke-linecap="round"/>
<path d="M 426.4,114.5 C 475.3,114.5 475.3,179.0 524.2,179.0" fill="none" stroke="#7c3aed" stroke-width="2.4" stroke-linecap="round"/>
<path d="M 229.6,662.8 C 268.6,662.8 268.6,265.0 307.6,265.0" fill="none" stroke="#2563eb" stroke-width="2.4" stroke-linecap="round"/>
<path d="M 446.2,265.0 C 485.2,265.0 485.2,222.0 524.2,222.0" fill="none" stroke="#2563eb" stroke-width="2.4" stroke-linecap="round"/>
<path d="M 446.2,265.0 C 485.2,265.0 485.2,265.0 524.2,265.0" fill="none" stroke="#2563eb" stroke-width="2.4" stroke-linecap="round"/>
<path d="M 446.2,265.0 C 485.2,265.0 485.2,308.0 524.2,308.0" fill="none" stroke="#2563eb" stroke-width="2.4" stroke-linecap="round"/>
<path d="M 229.6,662.8 C 268.6,662.8 268.6,437.0 307.6,437.0" fill="none" stroke="#0891b2" stroke-width="2.4" stroke-linecap="round"/>
<path d="M 423.4,437.0 C 473.8,437.0 473.8,351.0 524.2,351.0" fill="none" stroke="#0891b2" stroke-width="2.4" stroke-linecap="round"/>
<path d="M 423.4,437.0 C 473.8,437.0 473.8,394.0 524.2,394.0" fill="none" stroke="#0891b2" stroke-width="2.4" stroke-linecap="round"/>
<path d="M 423.4,437.0 C 473.8,437.0 473.8,437.0 524.2,437.0" fill="none" stroke="#0891b2" stroke-width="2.4" stroke-linecap="round"/>
<path d="M 423.4,437.0 C 473.8,437.0 473.8,480.0 524.2,480.0" fill="none" stroke="#0891b2" stroke-width="2.4" stroke-linecap="round"/>
<path d="M 423.4,437.0 C 473.8,437.0 473.8,523.0 524.2,523.0" fill="none" stroke="#0891b2" stroke-width="2.4" stroke-linecap="round"/>
<path d="M 229.6,662.8 C 268.6,662.8 268.6,609.0 307.6,609.0" fill="none" stroke="#dc2626" stroke-width="2.4" stroke-linecap="round"/>
<path d="M 406.6,609.0 C 465.4,609.0 465.4,566.0 524.2,566.0" fill="none" stroke="#dc2626" stroke-width="2.4" stroke-linecap="round"/>
<path d="M 406.6,609.0 C 465.4,609.0 465.4,609.0 524.2,609.0" fill="none" stroke="#dc2626" stroke-width="2.4" stroke-linecap="round"/>
<path d="M 406.6,609.0 C 465.4,609.0 465.4,652.0 524.2,652.0" fill="none" stroke="#dc2626" stroke-width="2.4" stroke-linecap="round"/>
<path d="M 229.6,662.8 C 268.6,662.8 268.6,738.0 307.6,738.0" fill="none" stroke="#ea580c" stroke-width="2.4" stroke-linecap="round"/>
<path d="M 426.4,738.0 C 475.3,738.0 475.3,695.0 524.2,695.0" fill="none" stroke="#ea580c" stroke-width="2.4" stroke-linecap="round"/>
<path d="M 426.4,738.0 C 475.3,738.0 475.3,738.0 524.2,738.0" fill="none" stroke="#ea580c" stroke-width="2.4" stroke-linecap="round"/>
<path d="M 426.4,738.0 C 475.3,738.0 475.3,781.0 524.2,781.0" fill="none" stroke="#ea580c" stroke-width="2.4" stroke-linecap="round"/>
<path d="M 229.6,662.8 C 268.6,662.8 268.6,888.5 307.6,888.5" fill="none" stroke="#059669" stroke-width="2.4" stroke-linecap="round"/>
<path d="M 406.6,888.5 C 465.4,888.5 465.4,824.0 524.2,824.0" fill="none" stroke="#059669" stroke-width="2.4" stroke-linecap="round"/>
<path d="M 406.6,888.5 C 465.4,888.5 465.4,867.0 524.2,867.0" fill="none" stroke="#059669" stroke-width="2.4" stroke-linecap="round"/>
<path d="M 406.6,888.5 C 465.4,888.5 465.4,910.0 524.2,910.0" fill="none" stroke="#059669" stroke-width="2.4" stroke-linecap="round"/>
<path d="M 406.6,888.5 C 465.4,888.5 465.4,953.0 524.2,953.0" fill="none" stroke="#059669" stroke-width="2.4" stroke-linecap="round"/>
<path d="M 229.6,662.8 C 268.6,662.8 268.6,1060.5 307.6,1060.5" fill="none" stroke="#d97706" stroke-width="2.4" stroke-linecap="round"/>
<path d="M 367.1,1060.5 C 445.6,1060.5 445.6,996.0 524.2,996.0" fill="none" stroke="#d97706" stroke-width="2.4" stroke-linecap="round"/>
<path d="M 367.1,1060.5 C 445.6,1060.5 445.6,1039.0 524.2,1039.0" fill="none" stroke="#d97706" stroke-width="2.4" stroke-linecap="round"/>
<path d="M 367.1,1060.5 C 445.6,1060.5 445.6,1082.0 524.2,1082.0" fill="none" stroke="#d97706" stroke-width="2.4" stroke-linecap="round"/>
<path d="M 367.1,1060.5 C 445.6,1060.5 445.6,1125.0 524.2,1125.0" fill="none" stroke="#d97706" stroke-width="2.4" stroke-linecap="round"/>
<path d="M 229.6,662.8 C 268.6,662.8 268.6,1211.0 307.6,1211.0" fill="none" stroke="#4f46e5" stroke-width="2.4" stroke-linecap="round"/>
<path d="M 406.6,1211.0 C 465.4,1211.0 465.4,1168.0 524.2,1168.0" fill="none" stroke="#4f46e5" stroke-width="2.4" stroke-linecap="round"/>
<path d="M 406.6,1211.0 C 465.4,1211.0 465.4,1211.0 524.2,1211.0" fill="none" stroke="#4f46e5" stroke-width="2.4" stroke-linecap="round"/>
<path d="M 406.6,1211.0 C 465.4,1211.0 465.4,1254.0 524.2,1254.0" fill="none" stroke="#4f46e5" stroke-width="2.4" stroke-linecap="round"/>
<rect x="40" y="637.8" width="189.6" height="50" rx="11" fill="#1e293b"/>
<text x="134.8" y="669.8" text-anchor="middle" fill="#ffffff" font-size="20" font-weight="700">分布式并行架构</text>
<line x1="307.6" y1="114.5" x2="426.4" y2="114.5" stroke="#7c3aed" stroke-width="2.4" stroke-linecap="round"/>
<text x="317.6" y="106.5" fill="#7c3aed" font-size="19" font-weight="700">它解决什么</text>
<line x1="524.2" y1="50.0" x2="712.9" y2="50.0" stroke="#7c3aed" stroke-width="2.4" stroke-linecap="round"/>
<text x="534.2" y="42.0" fill="#1f2937" font-size="19" font-weight="400">单卡显存装不下→切</text>
<line x1="524.2" y1="93.0" x2="734.2" y2="93.0" stroke="#7c3aed" stroke-width="2.4" stroke-linecap="round"/>
<text x="534.2" y="85.0" fill="#1f2937" font-size="19" font-weight="400">单卡算不动→DP扩吞吐</text>
<line x1="524.2" y1="136.0" x2="732.6" y2="136.0" stroke="#7c3aed" stroke-width="2.4" stroke-linecap="round"/>
<text x="534.2" y="128.0" fill="#1f2937" font-size="19" font-weight="400">切分带来通信→贴拓扑</text>
<line x1="524.2" y1="179.0" x2="732.6" y2="179.0" stroke="#7c3aed" stroke-width="2.4" stroke-linecap="round"/>
<text x="534.2" y="171.0" fill="#1f2937" font-size="19" font-weight="400">超大模型→多维度组合</text>
<line x1="307.6" y1="265.0" x2="446.2" y2="265.0" stroke="#2563eb" stroke-width="2.4" stroke-linecap="round"/>
<text x="317.6" y="257.0" fill="#2563eb" font-size="19" font-weight="700">三种基本并行</text>
<line x1="524.2" y1="222.0" x2="831.4" y2="222.0" stroke="#2563eb" stroke-width="2.4" stroke-linecap="round"/>
<text x="534.2" y="214.0" fill="#1f2937" font-size="19" font-weight="400">DP:切数据 复制模型 AllReduce</text>
<line x1="524.2" y1="265.0" x2="814.7" y2="265.0" stroke="#2563eb" stroke-width="2.4" stroke-linecap="round"/>
<text x="534.2" y="257.0" fill="#1f2937" font-size="19" font-weight="400">TP:切层内权重 通信最重 机内</text>
<line x1="524.2" y1="308.0" x2="825.4" y2="308.0" stroke="#2563eb" stroke-width="2.4" stroke-linecap="round"/>
<text x="534.2" y="300.0" fill="#1f2937" font-size="19" font-weight="400">PP:切层成stage P2P 有bubble</text>
<line x1="307.6" y1="437.0" x2="423.4" y2="437.0" stroke="#0891b2" stroke-width="2.4" stroke-linecap="round"/>
<text x="317.6" y="429.0" fill="#0891b2" font-size="19" font-weight="700">ZeRO/FSDP</text>
<line x1="524.2" y1="351.0" x2="737.2" y2="351.0" stroke="#0891b2" stroke-width="2.4" stroke-linecap="round"/>
<text x="534.2" y="343.0" fill="#1f2937" font-size="19" font-weight="400">ZeRO-1:切优化器状态</text>
<line x1="524.2" y1="394.0" x2="688.6" y2="394.0" stroke="#0891b2" stroke-width="2.4" stroke-linecap="round"/>
<text x="534.2" y="386.0" fill="#1f2937" font-size="19" font-weight="400">ZeRO-2:+切梯度</text>
<line x1="524.2" y1="437.0" x2="834.5" y2="437.0" stroke="#0891b2" stroke-width="2.4" stroke-linecap="round"/>
<text x="534.2" y="429.0" fill="#1f2937" font-size="19" font-weight="400">ZeRO-3:+切参数 用时AllGather</text>
<line x1="524.2" y1="480.0" x2="805.6" y2="480.0" stroke="#0891b2" stroke-width="2.4" stroke-linecap="round"/>
<text x="534.2" y="472.0" fill="#1f2937" font-size="19" font-weight="400">FSDP:PyTorch原生 类ZeRO-3</text>
<line x1="524.2" y1="523.0" x2="767.6" y2="523.0" stroke="#0891b2" stroke-width="2.4" stroke-linecap="round"/>
<text x="534.2" y="515.0" fill="#1f2937" font-size="19" font-weight="400">拿通信换显存 可offload</text>
<line x1="307.6" y1="609.0" x2="406.6" y2="609.0" stroke="#dc2626" stroke-width="2.4" stroke-linecap="round"/>
<text x="317.6" y="601.0" fill="#dc2626" font-size="19" font-weight="700">其它维度</text>
<line x1="524.2" y1="566.0" x2="753.9" y2="566.0" stroke="#dc2626" stroke-width="2.4" stroke-linecap="round"/>
<text x="534.2" y="558.0" fill="#1f2937" font-size="19" font-weight="400">SP序列并行:降激活显存</text>
<line x1="524.2" y1="609.0" x2="804.1" y2="609.0" stroke="#dc2626" stroke-width="2.4" stroke-linecap="round"/>
<text x="534.2" y="601.0" fill="#1f2937" font-size="19" font-weight="400">EP专家并行:MoE All-to-All</text>
<line x1="524.2" y1="652.0" x2="700.7" y2="652.0" stroke="#dc2626" stroke-width="2.4" stroke-linecap="round"/>
<text x="534.2" y="644.0" fill="#1f2937" font-size="19" font-weight="400">3D并行:DP×TP×PP</text>
<line x1="307.6" y1="738.0" x2="426.4" y2="738.0" stroke="#ea580c" stroke-width="2.4" stroke-linecap="round"/>
<text x="317.6" y="730.0" fill="#ea580c" font-size="19" font-weight="700">推理侧并行</text>
<line x1="524.2" y1="695.0" x2="758.5" y2="695.0" stroke="#ea580c" stroke-width="2.4" stroke-linecap="round"/>
<text x="534.2" y="687.0" fill="#1f2937" font-size="19" font-weight="400">TP切大模型 机内NVLink</text>
<line x1="524.2" y1="738.0" x2="674.9" y2="738.0" stroke="#ea580c" stroke-width="2.4" stroke-linecap="round"/>
<text x="534.2" y="730.0" fill="#1f2937" font-size="19" font-weight="400">PP增延迟 慎用</text>
<line x1="524.2" y1="781.0" x2="804.1" y2="781.0" stroke="#ea580c" stroke-width="2.4" stroke-linecap="round"/>
<text x="534.2" y="773.0" fill="#1f2937" font-size="19" font-weight="400">PD分离:Prefill/Decode分池</text>
<line x1="307.6" y1="888.5" x2="406.6" y2="888.5" stroke="#059669" stroke-width="2.4" stroke-linecap="round"/>
<text x="317.6" y="880.5" fill="#059669" font-size="19" font-weight="700">落地选型</text>
<line x1="524.2" y1="824.0" x2="817.8" y2="824.0" stroke="#059669" stroke-width="2.4" stroke-linecap="round"/>
<text x="534.2" y="816.0" fill="#1f2937" font-size="19" font-weight="400">单卡→TP→PP→DP→ZeRO→offload</text>
<line x1="524.2" y1="867.0" x2="749.4" y2="867.0" stroke="#059669" stroke-width="2.4" stroke-linecap="round"/>
<text x="534.2" y="859.0" fill="#1f2937" font-size="19" font-weight="400">TP绑机内 PP/DP跨机IB</text>
<line x1="524.2" y1="910.0" x2="715.9" y2="910.0" stroke="#059669" stroke-width="2.4" stroke-linecap="round"/>
<text x="534.2" y="902.0" fill="#1f2937" font-size="19" font-weight="400">gang调度+拓扑感知</text>
<line x1="524.2" y1="953.0" x2="767.6" y2="953.0" stroke="#059669" stroke-width="2.4" stroke-linecap="round"/>
<text x="534.2" y="945.0" fill="#1f2937" font-size="19" font-weight="400">scaling/通信占比可观测</text>
<line x1="307.6" y1="1060.5" x2="367.1" y2="1060.5" stroke="#d97706" stroke-width="2.4" stroke-linecap="round"/>
<text x="317.6" y="1052.5" fill="#d97706" font-size="19" font-weight="700">排障</text>
<line x1="524.2" y1="996.0" x2="845.1" y2="996.0" stroke="#d97706" stroke-width="2.4" stroke-linecap="round"/>
<text x="534.2" y="988.0" fill="#1f2937" font-size="19" font-weight="400">OOM:定位哪块显存→调并行/重计算</text>
<line x1="524.2" y1="1039.0" x2="866.4" y2="1039.0" stroke="#d97706" stroke-width="2.4" stroke-linecap="round"/>
<text x="534.2" y="1031.0" fill="#1f2937" font-size="19" font-weight="400">慢:TP跨机?PP bubble?回退Socket?</text>
<line x1="524.2" y1="1082.0" x2="772.2" y2="1082.0" stroke="#d97706" stroke-width="2.4" stroke-linecap="round"/>
<text x="534.2" y="1074.0" fill="#1f2937" font-size="19" font-weight="400">hang:转NCCL查rank/超时</text>
<line x1="524.2" y1="1125.0" x2="831.4" y2="1125.0" stroke="#d97706" stroke-width="2.4" stroke-linecap="round"/>
<text x="534.2" y="1117.0" fill="#1f2937" font-size="19" font-weight="400">不收敛:梯度同步/global batch</text>
<line x1="307.6" y1="1211.0" x2="406.6" y2="1211.0" stroke="#4f46e5" stroke-width="2.4" stroke-linecap="round"/>
<text x="317.6" y="1203.0" fill="#4f46e5" font-size="19" font-weight="700">经验边界</text>
<line x1="524.2" y1="1168.0" x2="805.6" y2="1168.0" stroke="#4f46e5" stroke-width="2.4" stroke-linecap="round"/>
<text x="534.2" y="1160.0" fill="#1f2937" font-size="19" font-weight="400">真做:并行调度+OOM/扩展排障</text>
<line x1="524.2" y1="1211.0" x2="858.8" y2="1211.0" stroke="#4f46e5" stroke-width="2.4" stroke-linecap="round"/>
<text x="534.2" y="1203.0" fill="#1f2937" font-size="19" font-weight="400">社区通病:TP跨机/bubble/通信放大</text>
<line x1="524.2" y1="1254.0" x2="772.2" y2="1254.0" stroke="#4f46e5" stroke-width="2.4" stroke-linecap="round"/>
<text x="534.2" y="1246.0" fill="#1f2937" font-size="19" font-weight="400">对标:Megatron/ZeRO实现</text>
</svg>