<svg xmlns="http://www.w3.org/2000/svg" viewBox="0 0 2200 820" font-family="-apple-system, PingFang SC, Microsoft YaHei, Helvetica, Arial, sans-serif">
<rect x="0" y="0" width="2200" height="820" fill="#ffffff"/>
<text x="50" y="60" fill="#0f172a" font-size="34" font-weight="700">四种并行维度：切什么 / 通信什么</text>
<rect x="50" y="110" width="502" height="640" rx="16" fill="#2563eb" fill-opacity="0.06" stroke="#2563eb" stroke-width="3"/>
<text x="301" y="158" fill="#2563eb" font-size="25" font-weight="700" text-anchor="middle">数据并行 DP</text>
<rect x="90" y="200" width="196" height="135" rx="9" fill="#fff" stroke="#2563eb" stroke-width="2.4"/>
<text x="188" y="226" fill="#475569" font-size="16" text-anchor="middle">GPU0</text>
<text x="188" y="281" fill="#2563eb" font-size="19" font-weight="700" text-anchor="middle">模型</text>
<rect x="316" y="200" width="196" height="135" rx="9" fill="#fff" stroke="#2563eb" stroke-width="2.4"/>
<text x="414" y="226" fill="#475569" font-size="16" text-anchor="middle">GPU1</text>
<text x="414" y="281" fill="#2563eb" font-size="19" font-weight="700" text-anchor="middle">模型</text>
<rect x="90" y="365" width="196" height="135" rx="9" fill="#fff" stroke="#2563eb" stroke-width="2.4"/>
<text x="188" y="391" fill="#475569" font-size="16" text-anchor="middle">GPU2</text>
<text x="188" y="446" fill="#2563eb" font-size="19" font-weight="700" text-anchor="middle">模型</text>
<rect x="316" y="365" width="196" height="135" rx="9" fill="#fff" stroke="#2563eb" stroke-width="2.4"/>
<text x="414" y="391" fill="#475569" font-size="16" text-anchor="middle">GPU3</text>
<text x="414" y="446" fill="#2563eb" font-size="19" font-weight="700" text-anchor="middle">模型</text>
<text x="80" y="544" fill="#64748b" font-size="17" font-weight="700">切什么</text>
<text x="80" y="570" fill="#334155" font-size="19">切数据，每卡整模型副本</text>
<text x="80" y="606" fill="#64748b" font-size="17" font-weight="700">通信</text>
<text x="80" y="632" fill="#334155" font-size="19">梯度 AllReduce</text>
<text x="80" y="668" fill="#64748b" font-size="17" font-weight="700">特征</text>
<text x="80" y="694" fill="#334155" font-size="19">扩吞吐，不省显存</text>
<rect x="582" y="110" width="502" height="640" rx="16" fill="#0891b2" fill-opacity="0.06" stroke="#0891b2" stroke-width="3"/>
<text x="833" y="158" fill="#0891b2" font-size="25" font-weight="700" text-anchor="middle">张量并行 TP</text>
<rect x="622" y="200" width="196" height="135" rx="9" fill="#fff" stroke="#0891b2" stroke-width="2.4"/>
<text x="720" y="226" fill="#475569" font-size="16" text-anchor="middle">GPU0</text>
<text x="720" y="281" fill="#0891b2" font-size="19" font-weight="700" text-anchor="middle">W片1</text>
<rect x="848" y="200" width="196" height="135" rx="9" fill="#fff" stroke="#0891b2" stroke-width="2.4"/>
<text x="946" y="226" fill="#475569" font-size="16" text-anchor="middle">GPU1</text>
<text x="946" y="281" fill="#0891b2" font-size="19" font-weight="700" text-anchor="middle">W片2</text>
<rect x="622" y="365" width="196" height="135" rx="9" fill="#fff" stroke="#0891b2" stroke-width="2.4"/>
<text x="720" y="391" fill="#475569" font-size="16" text-anchor="middle">GPU2</text>
<text x="720" y="446" fill="#0891b2" font-size="19" font-weight="700" text-anchor="middle">W片3</text>
<rect x="848" y="365" width="196" height="135" rx="9" fill="#fff" stroke="#0891b2" stroke-width="2.4"/>
<text x="946" y="391" fill="#475569" font-size="16" text-anchor="middle">GPU3</text>
<text x="946" y="446" fill="#0891b2" font-size="19" font-weight="700" text-anchor="middle">W片4</text>
<text x="612" y="544" fill="#64748b" font-size="17" font-weight="700">切什么</text>
<text x="612" y="570" fill="#334155" font-size="19">切单层权重(行/列)</text>
<text x="612" y="606" fill="#64748b" font-size="17" font-weight="700">通信</text>
<text x="612" y="632" fill="#334155" font-size="19">层内 AllReduce/AllGather</text>
<text x="612" y="668" fill="#64748b" font-size="17" font-weight="700">特征</text>
<text x="612" y="694" fill="#334155" font-size="19">通信最重 → 机内 NVLink</text>
<rect x="1115" y="110" width="502" height="640" rx="16" fill="#d97706" fill-opacity="0.06" stroke="#d97706" stroke-width="3"/>
<text x="1366" y="158" fill="#d97706" font-size="25" font-weight="700" text-anchor="middle">流水线并行 PP</text>
<rect x="1155" y="200" width="196" height="135" rx="9" fill="#fff" stroke="#d97706" stroke-width="2.4"/>
<text x="1253" y="226" fill="#475569" font-size="16" text-anchor="middle">GPU0</text>
<text x="1253" y="281" fill="#d97706" font-size="19" font-weight="700" text-anchor="middle">L0-3</text>
<rect x="1381" y="200" width="196" height="135" rx="9" fill="#fff" stroke="#d97706" stroke-width="2.4"/>
<text x="1479" y="226" fill="#475569" font-size="16" text-anchor="middle">GPU1</text>
<text x="1479" y="281" fill="#d97706" font-size="19" font-weight="700" text-anchor="middle">L4-7</text>
<rect x="1155" y="365" width="196" height="135" rx="9" fill="#fff" stroke="#d97706" stroke-width="2.4"/>
<text x="1253" y="391" fill="#475569" font-size="16" text-anchor="middle">GPU2</text>
<text x="1253" y="446" fill="#d97706" font-size="19" font-weight="700" text-anchor="middle">L8-11</text>
<rect x="1381" y="365" width="196" height="135" rx="9" fill="#fff" stroke="#d97706" stroke-width="2.4"/>
<text x="1479" y="391" fill="#475569" font-size="16" text-anchor="middle">GPU3</text>
<text x="1479" y="446" fill="#d97706" font-size="19" font-weight="700" text-anchor="middle">L12-15</text>
<text x="1145" y="544" fill="#64748b" font-size="17" font-weight="700">切什么</text>
<text x="1145" y="570" fill="#334155" font-size="19">切不同层成 stage</text>
<text x="1145" y="606" fill="#64748b" font-size="17" font-weight="700">通信</text>
<text x="1145" y="632" fill="#334155" font-size="19">stage 间 P2P send/recv</text>
<text x="1145" y="668" fill="#64748b" font-size="17" font-weight="700">特征</text>
<text x="1145" y="694" fill="#334155" font-size="19">通信轻可跨机，有 bubble</text>
<rect x="1647" y="110" width="502" height="640" rx="16" fill="#7c3aed" fill-opacity="0.06" stroke="#7c3aed" stroke-width="3"/>
<text x="1898" y="158" fill="#7c3aed" font-size="25" font-weight="700" text-anchor="middle">专家并行 EP(MoE)</text>
<rect x="1687" y="200" width="196" height="135" rx="9" fill="#fff" stroke="#7c3aed" stroke-width="2.4"/>
<text x="1785" y="226" fill="#475569" font-size="16" text-anchor="middle">GPU0</text>
<text x="1785" y="281" fill="#7c3aed" font-size="19" font-weight="700" text-anchor="middle">E0,E1</text>
<rect x="1913" y="200" width="196" height="135" rx="9" fill="#fff" stroke="#7c3aed" stroke-width="2.4"/>
<text x="2011" y="226" fill="#475569" font-size="16" text-anchor="middle">GPU1</text>
<text x="2011" y="281" fill="#7c3aed" font-size="19" font-weight="700" text-anchor="middle">E2,E3</text>
<rect x="1687" y="365" width="196" height="135" rx="9" fill="#fff" stroke="#7c3aed" stroke-width="2.4"/>
<text x="1785" y="391" fill="#475569" font-size="16" text-anchor="middle">GPU2</text>
<text x="1785" y="446" fill="#7c3aed" font-size="19" font-weight="700" text-anchor="middle">E4,E5</text>
<rect x="1913" y="365" width="196" height="135" rx="9" fill="#fff" stroke="#7c3aed" stroke-width="2.4"/>
<text x="2011" y="391" fill="#475569" font-size="16" text-anchor="middle">GPU3</text>
<text x="2011" y="446" fill="#7c3aed" font-size="19" font-weight="700" text-anchor="middle">E6,E7</text>
<text x="1677" y="544" fill="#64748b" font-size="17" font-weight="700">切什么</text>
<text x="1677" y="570" fill="#334155" font-size="19">不同专家放不同卡</text>
<text x="1677" y="606" fill="#64748b" font-size="17" font-weight="700">通信</text>
<text x="1677" y="632" fill="#334155" font-size="19">token All-to-All 路由</text>
<text x="1677" y="668" fill="#64748b" font-size="17" font-weight="700">特征</text>
<text x="1677" y="694" fill="#334155" font-size="19">通信不规则，易瓶颈</text>
</svg>