<svg xmlns="http://www.w3.org/2000/svg" viewBox="0 0 949 1532" font-family="-apple-system, PingFang SC, Microsoft YaHei, Helvetica, Arial, sans-serif">
<rect x="0" y="0" width="949" height="1532" fill="#ffffff"/>
<path d="M 223.2,765.0 C 262.2,765.0 262.2,116.0 301.2,116.0" fill="none" stroke="#7c3aed" stroke-width="2.4" stroke-linecap="round"/>
<path d="M 420.0,116.0 C 468.9,116.0 468.9,50.0 517.8,50.0" fill="none" stroke="#7c3aed" stroke-width="2.4" stroke-linecap="round"/>
<path d="M 420.0,116.0 C 468.9,116.0 468.9,94.0 517.8,94.0" fill="none" stroke="#7c3aed" stroke-width="2.4" stroke-linecap="round"/>
<path d="M 420.0,116.0 C 468.9,116.0 468.9,138.0 517.8,138.0" fill="none" stroke="#7c3aed" stroke-width="2.4" stroke-linecap="round"/>
<path d="M 420.0,116.0 C 468.9,116.0 468.9,182.0 517.8,182.0" fill="none" stroke="#7c3aed" stroke-width="2.4" stroke-linecap="round"/>
<path d="M 223.2,765.0 C 262.2,765.0 262.2,336.0 301.2,336.0" fill="none" stroke="#2563eb" stroke-width="2.4" stroke-linecap="round"/>
<path d="M 439.8,336.0 C 478.8,336.0 478.8,226.0 517.8,226.0" fill="none" stroke="#2563eb" stroke-width="2.4" stroke-linecap="round"/>
<path d="M 439.8,336.0 C 478.8,336.0 478.8,270.0 517.8,270.0" fill="none" stroke="#2563eb" stroke-width="2.4" stroke-linecap="round"/>
<path d="M 439.8,336.0 C 478.8,336.0 478.8,314.0 517.8,314.0" fill="none" stroke="#2563eb" stroke-width="2.4" stroke-linecap="round"/>
<path d="M 439.8,336.0 C 478.8,336.0 478.8,358.0 517.8,358.0" fill="none" stroke="#2563eb" stroke-width="2.4" stroke-linecap="round"/>
<path d="M 439.8,336.0 C 478.8,336.0 478.8,402.0 517.8,402.0" fill="none" stroke="#2563eb" stroke-width="2.4" stroke-linecap="round"/>
<path d="M 439.8,336.0 C 478.8,336.0 478.8,446.0 517.8,446.0" fill="none" stroke="#2563eb" stroke-width="2.4" stroke-linecap="round"/>
<path d="M 223.2,765.0 C 262.2,765.0 262.2,556.0 301.2,556.0" fill="none" stroke="#0891b2" stroke-width="2.4" stroke-linecap="round"/>
<path d="M 439.8,556.0 C 478.8,556.0 478.8,490.0 517.8,490.0" fill="none" stroke="#0891b2" stroke-width="2.4" stroke-linecap="round"/>
<path d="M 439.8,556.0 C 478.8,556.0 478.8,534.0 517.8,534.0" fill="none" stroke="#0891b2" stroke-width="2.4" stroke-linecap="round"/>
<path d="M 439.8,556.0 C 478.8,556.0 478.8,578.0 517.8,578.0" fill="none" stroke="#0891b2" stroke-width="2.4" stroke-linecap="round"/>
<path d="M 439.8,556.0 C 478.8,556.0 478.8,622.0 517.8,622.0" fill="none" stroke="#0891b2" stroke-width="2.4" stroke-linecap="round"/>
<path d="M 223.2,765.0 C 262.2,765.0 262.2,710.0 301.2,710.0" fill="none" stroke="#dc2626" stroke-width="2.4" stroke-linecap="round"/>
<path d="M 421.5,710.0 C 469.6,710.0 469.6,666.0 517.8,666.0" fill="none" stroke="#dc2626" stroke-width="2.4" stroke-linecap="round"/>
<path d="M 421.5,710.0 C 469.6,710.0 469.6,710.0 517.8,710.0" fill="none" stroke="#dc2626" stroke-width="2.4" stroke-linecap="round"/>
<path d="M 421.5,710.0 C 469.6,710.0 469.6,754.0 517.8,754.0" fill="none" stroke="#dc2626" stroke-width="2.4" stroke-linecap="round"/>
<path d="M 223.2,765.0 C 262.2,765.0 262.2,864.0 301.2,864.0" fill="none" stroke="#ea580c" stroke-width="2.4" stroke-linecap="round"/>
<path d="M 439.8,864.0 C 478.8,864.0 478.8,798.0 517.8,798.0" fill="none" stroke="#ea580c" stroke-width="2.4" stroke-linecap="round"/>
<path d="M 439.8,864.0 C 478.8,864.0 478.8,842.0 517.8,842.0" fill="none" stroke="#ea580c" stroke-width="2.4" stroke-linecap="round"/>
<path d="M 439.8,864.0 C 478.8,864.0 478.8,886.0 517.8,886.0" fill="none" stroke="#ea580c" stroke-width="2.4" stroke-linecap="round"/>
<path d="M 439.8,864.0 C 478.8,864.0 478.8,930.0 517.8,930.0" fill="none" stroke="#ea580c" stroke-width="2.4" stroke-linecap="round"/>
<path d="M 223.2,765.0 C 262.2,765.0 262.2,1062.0 301.2,1062.0" fill="none" stroke="#059669" stroke-width="2.4" stroke-linecap="round"/>
<path d="M 400.2,1062.0 C 459.0,1062.0 459.0,974.0 517.8,974.0" fill="none" stroke="#059669" stroke-width="2.4" stroke-linecap="round"/>
<path d="M 400.2,1062.0 C 459.0,1062.0 459.0,1018.0 517.8,1018.0" fill="none" stroke="#059669" stroke-width="2.4" stroke-linecap="round"/>
<path d="M 400.2,1062.0 C 459.0,1062.0 459.0,1062.0 517.8,1062.0" fill="none" stroke="#059669" stroke-width="2.4" stroke-linecap="round"/>
<path d="M 400.2,1062.0 C 459.0,1062.0 459.0,1106.0 517.8,1106.0" fill="none" stroke="#059669" stroke-width="2.4" stroke-linecap="round"/>
<path d="M 400.2,1062.0 C 459.0,1062.0 459.0,1150.0 517.8,1150.0" fill="none" stroke="#059669" stroke-width="2.4" stroke-linecap="round"/>
<path d="M 223.2,765.0 C 262.2,765.0 262.2,1260.0 301.2,1260.0" fill="none" stroke="#d97706" stroke-width="2.4" stroke-linecap="round"/>
<path d="M 400.2,1260.0 C 459.0,1260.0 459.0,1194.0 517.8,1194.0" fill="none" stroke="#d97706" stroke-width="2.4" stroke-linecap="round"/>
<path d="M 400.2,1260.0 C 459.0,1260.0 459.0,1238.0 517.8,1238.0" fill="none" stroke="#d97706" stroke-width="2.4" stroke-linecap="round"/>
<path d="M 400.2,1260.0 C 459.0,1260.0 459.0,1282.0 517.8,1282.0" fill="none" stroke="#d97706" stroke-width="2.4" stroke-linecap="round"/>
<path d="M 400.2,1260.0 C 459.0,1260.0 459.0,1326.0 517.8,1326.0" fill="none" stroke="#d97706" stroke-width="2.4" stroke-linecap="round"/>
<path d="M 223.2,765.0 C 262.2,765.0 262.2,1414.0 301.2,1414.0" fill="none" stroke="#4f46e5" stroke-width="2.4" stroke-linecap="round"/>
<path d="M 400.2,1414.0 C 459.0,1414.0 459.0,1370.0 517.8,1370.0" fill="none" stroke="#4f46e5" stroke-width="2.4" stroke-linecap="round"/>
<path d="M 400.2,1414.0 C 459.0,1414.0 459.0,1414.0 517.8,1414.0" fill="none" stroke="#4f46e5" stroke-width="2.4" stroke-linecap="round"/>
<path d="M 400.2,1414.0 C 459.0,1414.0 459.0,1458.0 517.8,1458.0" fill="none" stroke="#4f46e5" stroke-width="2.4" stroke-linecap="round"/>
<rect x="40" y="740.0" width="183.2" height="50" rx="11" fill="#1e293b"/>
<text x="131.6" y="772.0" text-anchor="middle" fill="#ffffff" font-size="20" font-weight="700">NCCL 集合通信</text>
<line x1="301.2" y1="116.0" x2="420.0" y2="116.0" stroke="#7c3aed" stroke-width="2.4" stroke-linecap="round"/>
<text x="311.2" y="108.0" fill="#7c3aed" font-size="19" font-weight="700">它解决什么</text>
<line x1="517.8" y1="50.0" x2="746.0" y2="50.0" stroke="#7c3aed" stroke-width="2.4" stroke-linecap="round"/>
<text x="527.8" y="42.0" fill="#1f2937" font-size="19" font-weight="400">多卡协同算一件事→原语</text>
<line x1="517.8" y1="94.0" x2="686.7" y2="94.0" stroke="#7c3aed" stroke-width="2.4" stroke-linecap="round"/>
<text x="527.8" y="86.0" fill="#1f2937" font-size="19" font-weight="400">打满带宽+贴拓扑</text>
<line x1="517.8" y1="138.0" x2="747.5" y2="138.0" stroke="#7c3aed" stroke-width="2.4" stroke-linecap="round"/>
<text x="527.8" y="130.0" fill="#1f2937" font-size="19" font-weight="400">屏蔽NVLink/IB/Socket</text>
<line x1="517.8" y1="182.0" x2="721.7" y2="182.0" stroke="#7c3aed" stroke-width="2.4" stroke-linecap="round"/>
<text x="527.8" y="174.0" fill="#1f2937" font-size="19" font-weight="400">通信与计算 overlap</text>
<line x1="301.2" y1="336.0" x2="439.8" y2="336.0" stroke="#2563eb" stroke-width="2.4" stroke-linecap="round"/>
<text x="311.2" y="328.0" fill="#2563eb" font-size="19" font-weight="700">集合通信原语</text>
<line x1="517.8" y1="226.0" x2="755.1" y2="226.0" stroke="#2563eb" stroke-width="2.4" stroke-linecap="round"/>
<text x="527.8" y="218.0" fill="#1f2937" font-size="19" font-weight="400">AllReduce(DP梯度同步)</text>
<line x1="517.8" y1="270.0" x2="899.5" y2="270.0" stroke="#2563eb" stroke-width="2.4" stroke-linecap="round"/>
<text x="527.8" y="262.0" fill="#1f2937" font-size="19" font-weight="400">ReduceScatter+AllGather(ZeRO/FSDP)</text>
<line x1="517.8" y1="314.0" x2="755.1" y2="314.0" stroke="#2563eb" stroke-width="2.4" stroke-linecap="round"/>
<text x="527.8" y="306.0" fill="#1f2937" font-size="19" font-weight="400">AllGather(TP输出汇聚)</text>
<line x1="517.8" y1="358.0" x2="768.8" y2="358.0" stroke="#2563eb" stroke-width="2.4" stroke-linecap="round"/>
<text x="527.8" y="350.0" fill="#1f2937" font-size="19" font-weight="400">All-to-All(MoE EP路由)</text>
<line x1="517.8" y1="402.0" x2="708.0" y2="402.0" stroke="#2563eb" stroke-width="2.4" stroke-linecap="round"/>
<text x="527.8" y="394.0" fill="#1f2937" font-size="19" font-weight="400">Broadcast/Reduce</text>
<line x1="517.8" y1="446.0" x2="697.4" y2="446.0" stroke="#2563eb" stroke-width="2.4" stroke-linecap="round"/>
<text x="527.8" y="438.0" fill="#1f2937" font-size="19" font-weight="400">AllReduce≈RS+AG</text>
<line x1="301.2" y1="556.0" x2="439.8" y2="556.0" stroke="#0891b2" stroke-width="2.4" stroke-linecap="round"/>
<text x="311.2" y="548.0" fill="#0891b2" font-size="19" font-weight="700">通信子与拓扑</text>
<line x1="517.8" y1="490.0" x2="835.7" y2="490.0" stroke="#0891b2" stroke-width="2.4" stroke-linecap="round"/>
<text x="527.8" y="482.0" fill="#1f2937" font-size="19" font-weight="400">communicator/rank/world_size</text>
<line x1="517.8" y1="534.0" x2="665.4" y2="534.0" stroke="#0891b2" stroke-width="2.4" stroke-linecap="round"/>
<text x="527.8" y="526.0" fill="#1f2937" font-size="19" font-weight="400">channel/ring</text>
<line x1="517.8" y1="578.0" x2="752.1" y2="578.0" stroke="#0891b2" stroke-width="2.4" stroke-linecap="round"/>
<text x="527.8" y="570.0" fill="#1f2937" font-size="19" font-weight="400">机内NVLink 机间IB分层</text>
<line x1="517.8" y1="622.0" x2="612.2" y2="622.0" stroke="#0891b2" stroke-width="2.4" stroke-linecap="round"/>
<text x="527.8" y="614.0" fill="#1f2937" font-size="19" font-weight="400">PXN/GDR</text>
<line x1="301.2" y1="710.0" x2="421.5" y2="710.0" stroke="#dc2626" stroke-width="2.4" stroke-linecap="round"/>
<text x="311.2" y="702.0" fill="#dc2626" font-size="19" font-weight="700">算法(对标)</text>
<line x1="517.8" y1="666.0" x2="750.6" y2="666.0" stroke="#dc2626" stroke-width="2.4" stroke-linecap="round"/>
<text x="527.8" y="658.0" fill="#1f2937" font-size="19" font-weight="400">Ring:带宽最优 与N无关</text>
<line x1="517.8" y1="710.0" x2="739.9" y2="710.0" stroke="#dc2626" stroke-width="2.4" stroke-linecap="round"/>
<text x="527.8" y="702.0" fill="#1f2937" font-size="19" font-weight="400">Tree/双二叉树:延迟优</text>
<line x1="517.8" y1="754.0" x2="797.7" y2="754.0" stroke="#dc2626" stroke-width="2.4" stroke-linecap="round"/>
<text x="527.8" y="746.0" fill="#1f2937" font-size="19" font-weight="400">NVLS:NVLink SHARP在网规约</text>
<line x1="301.2" y1="864.0" x2="439.8" y2="864.0" stroke="#ea580c" stroke-width="2.4" stroke-linecap="round"/>
<text x="311.2" y="856.0" fill="#ea580c" font-size="19" font-weight="700">关键环境变量</text>
<line x1="517.8" y1="798.0" x2="750.6" y2="798.0" stroke="#ea580c" stroke-width="2.4" stroke-linecap="round"/>
<text x="527.8" y="790.0" fill="#1f2937" font-size="19" font-weight="400">NCCL_DEBUG=INFO/WARN</text>
<line x1="517.8" y1="842.0" x2="793.1" y2="842.0" stroke="#ea580c" stroke-width="2.4" stroke-linecap="round"/>
<text x="527.8" y="834.0" fill="#1f2937" font-size="19" font-weight="400">IB_DISABLE/SOCKET_IFNAME</text>
<line x1="517.8" y1="886.0" x2="750.6" y2="886.0" stroke="#ea580c" stroke-width="2.4" stroke-linecap="round"/>
<text x="527.8" y="878.0" fill="#1f2937" font-size="19" font-weight="400">ALGO/PROTO/P2P_LEVEL</text>
<line x1="517.8" y1="930.0" x2="800.7" y2="930.0" stroke="#ea580c" stroke-width="2.4" stroke-linecap="round"/>
<text x="527.8" y="922.0" fill="#1f2937" font-size="19" font-weight="400">超时:TORCH_NCCL_*/timeout</text>
<line x1="301.2" y1="1062.0" x2="400.2" y2="1062.0" stroke="#059669" stroke-width="2.4" stroke-linecap="round"/>
<text x="311.2" y="1054.0" fill="#059669" font-size="19" font-weight="700">落地设计</text>
<line x1="517.8" y1="974.0" x2="656.3" y2="974.0" stroke="#059669" stroke-width="2.4" stroke-linecap="round"/>
<text x="527.8" y="966.0" fill="#1f2937" font-size="19" font-weight="400">拓扑感知调度</text>
<line x1="517.8" y1="1018.0" x2="726.2" y2="1018.0" stroke="#059669" stroke-width="2.4" stroke-linecap="round"/>
<text x="527.8" y="1010.0" fill="#1f2937" font-size="19" font-weight="400">版本基线 全节点一致</text>
<line x1="517.8" y1="1062.0" x2="744.5" y2="1062.0" stroke="#059669" stroke-width="2.4" stroke-linecap="round"/>
<text x="527.8" y="1054.0" fill="#1f2937" font-size="19" font-weight="400">nccl-tests 基准+回归</text>
<line x1="517.8" y1="1106.0" x2="673.0" y2="1106.0" stroke="#059669" stroke-width="2.4" stroke-linecap="round"/>
<text x="527.8" y="1098.0" fill="#1f2937" font-size="19" font-weight="400">超时+watchdog</text>
<line x1="517.8" y1="1150.0" x2="771.8" y2="1150.0" stroke="#059669" stroke-width="2.4" stroke-linecap="round"/>
<text x="527.8" y="1142.0" fill="#1f2937" font-size="19" font-weight="400">通信耗时/scaling 可观测</text>
<line x1="301.2" y1="1260.0" x2="400.2" y2="1260.0" stroke="#d97706" stroke-width="2.4" stroke-linecap="round"/>
<text x="311.2" y="1252.0" fill="#d97706" font-size="19" font-weight="700">排障路径</text>
<line x1="517.8" y1="1194.0" x2="849.4" y2="1194.0" stroke="#d97706" stroke-width="2.4" stroke-linecap="round"/>
<text x="527.8" y="1186.0" fill="#1f2937" font-size="19" font-weight="400">hang:DEBUG看停在哪个collective</text>
<line x1="517.8" y1="1238.0" x2="732.3" y2="1238.0" stroke="#d97706" stroke-width="2.4" stroke-linecap="round"/>
<text x="527.8" y="1230.0" fill="#1f2937" font-size="19" font-weight="400">rank没到齐→整组hang</text>
<line x1="517.8" y1="1282.0" x2="799.2" y2="1282.0" stroke="#d97706" stroke-width="2.4" stroke-linecap="round"/>
<text x="527.8" y="1274.0" fill="#1f2937" font-size="19" font-weight="400">慢:nccl-tests/回退Socket?</text>
<line x1="517.8" y1="1326.0" x2="803.8" y2="1326.0" stroke="#d97706" stroke-width="2.4" stroke-linecap="round"/>
<text x="527.8" y="1318.0" fill="#1f2937" font-size="19" font-weight="400">版本不一致/CUDA sticky连带</text>
<line x1="301.2" y1="1414.0" x2="400.2" y2="1414.0" stroke="#4f46e5" stroke-width="2.4" stroke-linecap="round"/>
<text x="311.2" y="1406.0" fill="#4f46e5" font-size="19" font-weight="700">经验边界</text>
<line x1="517.8" y1="1370.0" x2="790.1" y2="1370.0" stroke="#4f46e5" stroke-width="2.4" stroke-linecap="round"/>
<text x="527.8" y="1362.0" fill="#1f2937" font-size="19" font-weight="400">真做:hang/慢排查+拓扑调度</text>
<line x1="517.8" y1="1414.0" x2="809.8" y2="1414.0" stroke="#4f46e5" stroke-width="2.4" stroke-linecap="round"/>
<text x="527.8" y="1406.0" fill="#1f2937" font-size="19" font-weight="400">社区通病:rank不齐/回退/版本</text>
<line x1="517.8" y1="1458.0" x2="773.4" y2="1458.0" stroke="#4f46e5" stroke-width="2.4" stroke-linecap="round"/>
<text x="527.8" y="1450.0" fill="#1f2937" font-size="19" font-weight="400">对标:Ring/Tree算法+源码</text>
</svg>