<svg xmlns="http://www.w3.org/2000/svg" viewBox="0 0 787 1126" font-family="-apple-system, PingFang SC, Microsoft YaHei, Helvetica, Arial, sans-serif">
<rect x="0" y="0" width="787" height="1126" fill="#ffffff"/>
<path d="M 210.4,560.5 C 244.4,560.5 244.4,109.0 278.4,109.0" fill="none" stroke="#2563eb" stroke-width="2.4" stroke-linecap="round"/>
<path d="M 443.9,109.0 C 477.9,109.0 477.9,46.0 511.9,46.0" fill="none" stroke="#2563eb" stroke-width="2.4" stroke-linecap="round"/>
<path d="M 443.9,109.0 C 477.9,109.0 477.9,88.0 511.9,88.0" fill="none" stroke="#2563eb" stroke-width="2.4" stroke-linecap="round"/>
<path d="M 443.9,109.0 C 477.9,109.0 477.9,130.0 511.9,130.0" fill="none" stroke="#2563eb" stroke-width="2.4" stroke-linecap="round"/>
<path d="M 443.9,109.0 C 477.9,109.0 477.9,172.0 511.9,172.0" fill="none" stroke="#2563eb" stroke-width="2.4" stroke-linecap="round"/>
<path d="M 210.4,560.5 C 244.4,560.5 244.4,298.0 278.4,298.0" fill="none" stroke="#0891b2" stroke-width="2.4" stroke-linecap="round"/>
<path d="M 367.8,298.0 C 439.8,298.0 439.8,214.0 511.9,214.0" fill="none" stroke="#0891b2" stroke-width="2.4" stroke-linecap="round"/>
<path d="M 367.8,298.0 C 439.8,298.0 439.8,256.0 511.9,256.0" fill="none" stroke="#0891b2" stroke-width="2.4" stroke-linecap="round"/>
<path d="M 367.8,298.0 C 439.8,298.0 439.8,298.0 511.9,298.0" fill="none" stroke="#0891b2" stroke-width="2.4" stroke-linecap="round"/>
<path d="M 367.8,298.0 C 439.8,298.0 439.8,340.0 511.9,340.0" fill="none" stroke="#0891b2" stroke-width="2.4" stroke-linecap="round"/>
<path d="M 367.8,298.0 C 439.8,298.0 439.8,382.0 511.9,382.0" fill="none" stroke="#0891b2" stroke-width="2.4" stroke-linecap="round"/>
<path d="M 210.4,560.5 C 244.4,560.5 244.4,487.0 278.4,487.0" fill="none" stroke="#7c3aed" stroke-width="2.4" stroke-linecap="round"/>
<path d="M 385.1,487.0 C 448.5,487.0 448.5,424.0 511.9,424.0" fill="none" stroke="#7c3aed" stroke-width="2.4" stroke-linecap="round"/>
<path d="M 385.1,487.0 C 448.5,487.0 448.5,466.0 511.9,466.0" fill="none" stroke="#7c3aed" stroke-width="2.4" stroke-linecap="round"/>
<path d="M 385.1,487.0 C 448.5,487.0 448.5,508.0 511.9,508.0" fill="none" stroke="#7c3aed" stroke-width="2.4" stroke-linecap="round"/>
<path d="M 385.1,487.0 C 448.5,487.0 448.5,550.0 511.9,550.0" fill="none" stroke="#7c3aed" stroke-width="2.4" stroke-linecap="round"/>
<path d="M 210.4,560.5 C 244.4,560.5 244.4,676.0 278.4,676.0" fill="none" stroke="#dc2626" stroke-width="2.4" stroke-linecap="round"/>
<path d="M 402.4,676.0 C 457.2,676.0 457.2,592.0 511.9,592.0" fill="none" stroke="#dc2626" stroke-width="2.4" stroke-linecap="round"/>
<path d="M 402.4,676.0 C 457.2,676.0 457.2,634.0 511.9,634.0" fill="none" stroke="#dc2626" stroke-width="2.4" stroke-linecap="round"/>
<path d="M 402.4,676.0 C 457.2,676.0 457.2,676.0 511.9,676.0" fill="none" stroke="#dc2626" stroke-width="2.4" stroke-linecap="round"/>
<path d="M 402.4,676.0 C 457.2,676.0 457.2,718.0 511.9,718.0" fill="none" stroke="#dc2626" stroke-width="2.4" stroke-linecap="round"/>
<path d="M 402.4,676.0 C 457.2,676.0 457.2,760.0 511.9,760.0" fill="none" stroke="#dc2626" stroke-width="2.4" stroke-linecap="round"/>
<path d="M 210.4,560.5 C 244.4,560.5 244.4,865.0 278.4,865.0" fill="none" stroke="#059669" stroke-width="2.4" stroke-linecap="round"/>
<path d="M 367.8,865.0 C 439.8,865.0 439.8,802.0 511.9,802.0" fill="none" stroke="#059669" stroke-width="2.4" stroke-linecap="round"/>
<path d="M 367.8,865.0 C 439.8,865.0 439.8,844.0 511.9,844.0" fill="none" stroke="#059669" stroke-width="2.4" stroke-linecap="round"/>
<path d="M 367.8,865.0 C 439.8,865.0 439.8,886.0 511.9,886.0" fill="none" stroke="#059669" stroke-width="2.4" stroke-linecap="round"/>
<path d="M 367.8,865.0 C 439.8,865.0 439.8,928.0 511.9,928.0" fill="none" stroke="#059669" stroke-width="2.4" stroke-linecap="round"/>
<path d="M 210.4,560.5 C 244.4,560.5 244.4,1012.0 278.4,1012.0" fill="none" stroke="#d97706" stroke-width="2.4" stroke-linecap="round"/>
<path d="M 367.8,1012.0 C 439.8,1012.0 439.8,970.0 511.9,970.0" fill="none" stroke="#d97706" stroke-width="2.4" stroke-linecap="round"/>
<path d="M 367.8,1012.0 C 439.8,1012.0 439.8,1012.0 511.9,1012.0" fill="none" stroke="#d97706" stroke-width="2.4" stroke-linecap="round"/>
<path d="M 367.8,1012.0 C 439.8,1012.0 439.8,1054.0 511.9,1054.0" fill="none" stroke="#d97706" stroke-width="2.4" stroke-linecap="round"/>
<rect x="40" y="535.5" width="170.4" height="50" rx="11" fill="#1e293b"/>
<text x="125.2" y="567.5" text-anchor="middle" fill="#fff" font-size="20" font-weight="700">推理服务·SRE</text>
<line x1="278.4" y1="109.0" x2="443.9" y2="109.0" stroke="#2563eb" stroke-width="2.4" stroke-linecap="round"/>
<text x="288.4" y="101.0" fill="#2563eb" font-size="17" font-weight="700">serving 解决什么</text>
<line x1="511.9" y1="46.0" x2="636.0" y2="46.0" stroke="#2563eb" stroke-width="2.4" stroke-linecap="round"/>
<text x="521.9" y="38.0" fill="#1f2937" font-size="17" font-weight="400">稳定在线服务</text>
<line x1="511.9" y1="88.0" x2="618.6" y2="88.0" stroke="#2563eb" stroke-width="2.4" stroke-linecap="round"/>
<text x="521.9" y="80.0" fill="#1f2937" font-size="17" font-weight="400">攒批提吞吐</text>
<line x1="511.9" y1="130.0" x2="601.3" y2="130.0" stroke="#2563eb" stroke-width="2.4" stroke-linecap="round"/>
<text x="521.9" y="122.0" fill="#1f2937" font-size="17" font-weight="400">并发调度</text>
<line x1="511.9" y1="172.0" x2="636.0" y2="172.0" stroke="#2563eb" stroke-width="2.4" stroke-linecap="round"/>
<text x="521.9" y="164.0" fill="#1f2937" font-size="17" font-weight="400">压延迟压显存</text>
<line x1="278.4" y1="298.0" x2="367.8" y2="298.0" stroke="#0891b2" stroke-width="2.4" stroke-linecap="round"/>
<text x="288.4" y="290.0" fill="#0891b2" font-size="17" font-weight="700">核心概念</text>
<line x1="511.9" y1="214.0" x2="601.3" y2="214.0" stroke="#0891b2" stroke-width="2.4" stroke-linecap="round"/>
<text x="521.9" y="206.0" fill="#1f2937" font-size="17" font-weight="400">延迟分解</text>
<line x1="511.9" y1="256.0" x2="684.2" y2="256.0" stroke="#0891b2" stroke-width="2.4" stroke-linecap="round"/>
<text x="521.9" y="248.0" fill="#1f2937" font-size="17" font-weight="400">dynamic batching</text>
<line x1="511.9" y1="298.0" x2="712.8" y2="298.0" stroke="#0891b2" stroke-width="2.4" stroke-linecap="round"/>
<text x="521.9" y="290.0" fill="#1f2937" font-size="17" font-weight="400">continuous batching</text>
<line x1="511.9" y1="340.0" x2="722.3" y2="340.0" stroke="#0891b2" stroke-width="2.4" stroke-linecap="round"/>
<text x="521.9" y="332.0" fill="#1f2937" font-size="17" font-weight="400">KV cache / PagedAttn</text>
<line x1="511.9" y1="382.0" x2="636.6" y2="382.0" stroke="#0891b2" stroke-width="2.4" stroke-linecap="round"/>
<text x="521.9" y="374.0" fill="#1f2937" font-size="17" font-weight="400">TTFT / TPOT</text>
<line x1="278.4" y1="487.0" x2="385.1" y2="487.0" stroke="#7c3aed" stroke-width="2.4" stroke-linecap="round"/>
<text x="288.4" y="479.0" fill="#7c3aed" font-size="17" font-weight="700">四框架对标</text>
<line x1="511.9" y1="424.0" x2="690.4" y2="424.0" stroke="#7c3aed" stroke-width="2.4" stroke-linecap="round"/>
<text x="521.9" y="416.0" fill="#1f2937" font-size="17" font-weight="400">TF Serving 纯TF稳</text>
<line x1="511.9" y1="466.0" x2="738.0" y2="466.0" stroke="#7c3aed" stroke-width="2.4" stroke-linecap="round"/>
<text x="521.9" y="458.0" fill="#1f2937" font-size="17" font-weight="400">TorchServe 纯PyTorch简</text>
<line x1="511.9" y1="508.0" x2="702.6" y2="508.0" stroke="#7c3aed" stroke-width="2.4" stroke-linecap="round"/>
<text x="521.9" y="500.0" fill="#1f2937" font-size="17" font-weight="400">Triton 多框架高利用</text>
<line x1="511.9" y1="550.0" x2="660.1" y2="550.0" stroke="#7c3aed" stroke-width="2.4" stroke-linecap="round"/>
<text x="521.9" y="542.0" fill="#1f2937" font-size="17" font-weight="400">vLLM LLM高吞吐</text>
<line x1="278.4" y1="676.0" x2="402.4" y2="676.0" stroke="#dc2626" stroke-width="2.4" stroke-linecap="round"/>
<text x="288.4" y="668.0" fill="#dc2626" font-size="17" font-weight="700">推理性能排查</text>
<line x1="511.9" y1="592.0" x2="689.7" y2="592.0" stroke="#dc2626" stroke-width="2.4" stroke-linecap="round"/>
<text x="521.9" y="584.0" fill="#1f2937" font-size="17" font-weight="400">加载失败 格式/显存</text>
<line x1="511.9" y1="634.0" x2="662.8" y2="634.0" stroke="#dc2626" stroke-width="2.4" stroke-linecap="round"/>
<text x="521.9" y="626.0" fill="#1f2937" font-size="17" font-weight="400">延迟高 先做分解</text>
<line x1="511.9" y1="676.0" x2="697.5" y2="676.0" stroke="#dc2626" stroke-width="2.4" stroke-linecap="round"/>
<text x="521.9" y="668.0" fill="#1f2937" font-size="17" font-weight="400">利用率低还慢 别加卡</text>
<line x1="511.9" y1="718.0" x2="737.3" y2="718.0" stroke="#dc2626" stroke-width="2.4" stroke-linecap="round"/>
<text x="521.9" y="710.0" fill="#1f2937" font-size="17" font-weight="400">吞吐上不去 调batch/实例</text>
<line x1="511.9" y1="760.0" x2="703.3" y2="760.0" stroke="#dc2626" stroke-width="2.4" stroke-linecap="round"/>
<text x="521.9" y="752.0" fill="#1f2937" font-size="17" font-weight="400">OOM KV cache/batch</text>
<line x1="278.4" y1="865.0" x2="367.8" y2="865.0" stroke="#059669" stroke-width="2.4" stroke-linecap="round"/>
<text x="288.4" y="857.0" fill="#059669" font-size="17" font-weight="700">落地设计</text>
<line x1="511.9" y1="802.0" x2="618.6" y2="802.0" stroke="#059669" stroke-width="2.4" stroke-linecap="round"/>
<text x="521.9" y="794.0" fill="#1f2937" font-size="17" font-weight="400">按约束选型</text>
<line x1="511.9" y1="844.0" x2="680.2" y2="844.0" stroke="#059669" stroke-width="2.4" stroke-linecap="round"/>
<text x="521.9" y="836.0" fill="#1f2937" font-size="17" font-weight="400">统一网关+格式规范</text>
<line x1="511.9" y1="886.0" x2="656.7" y2="886.0" stroke="#059669" stroke-width="2.4" stroke-linecap="round"/>
<text x="521.9" y="878.0" fill="#1f2937" font-size="17" font-weight="400">按QPS/延迟扩缩</text>
<line x1="511.9" y1="928.0" x2="700.9" y2="928.0" stroke="#059669" stroke-width="2.4" stroke-linecap="round"/>
<text x="521.9" y="920.0" fill="#1f2937" font-size="17" font-weight="400">延迟分解+TTFT可观测</text>
<line x1="278.4" y1="1012.0" x2="367.8" y2="1012.0" stroke="#d97706" stroke-width="2.4" stroke-linecap="round"/>
<text x="288.4" y="1004.0" fill="#d97706" font-size="17" font-weight="700">经验边界</text>
<line x1="511.9" y1="970.0" x2="645.5" y2="970.0" stroke="#d97706" stroke-width="2.4" stroke-linecap="round"/>
<text x="521.9" y="962.0" fill="#1f2937" font-size="17" font-weight="400">平台承接 真实</text>
<line x1="511.9" y1="1012.0" x2="645.5" y2="1012.0" stroke="#d97706" stroke-width="2.4" stroke-linecap="round"/>
<text x="521.9" y="1004.0" fill="#1f2937" font-size="17" font-weight="400">框架对标 了解</text>
<line x1="511.9" y1="1054.0" x2="662.8" y2="1054.0" stroke="#d97706" stroke-width="2.4" stroke-linecap="round"/>
<text x="521.9" y="1046.0" fill="#1f2937" font-size="17" font-weight="400">引擎内核 不开发</text>
</svg>